<?xml version="1.0" encoding="utf-8"?>
<!-- Generator: Adobe Illustrator 18.1.1, SVG Export Plug-In . SVG Version: 6.00 Build 0)  -->
<svg version="1.1" id="Layer_1" xmlns:sketch="http://www.bohemiancoding.com/sketch/ns"
	 xmlns="http://www.w3.org/2000/svg" xmlns:xlink="http://www.w3.org/1999/xlink" x="0px" y="0px" viewBox="-155 207 200 100"
	 enable-background="new -155 207 200 100" xml:space="preserve">
<title>aardvark</title>
<g>
	<g>
		<g>
			<g>
				<path d="M-105.8350906,231.2719269c0,1.8982086,0.0003815,2.8476562,0.0003815,4.7458496
					c-1.568367,0.1543884-2.352478,0.2338257-3.9199677,0.400116c0-1.8982086,0-2.8468933,0-4.7450867
					C-108.1871872,231.5065155-107.4034576,231.4263611-105.8350906,231.2719269L-105.8350906,231.2719269z
					 M-103.1908264,241.1533203c1.2680969-1.3035583,1.9022675-1.9546051,3.1709366-3.2492828c0-3.9863586,0-5.9795837,0-9.9659882
					c-1.3481064-1.0845642-2.0219879-1.625-3.369339-2.7006226c-4.0673294,0.3978729-8.1277695,0.8262177-12.1884079,1.2864532
					c0,8.9757385-0.0005264,17.9514313-0.0001907,26.9271088c2.3281937-0.2739105,3.492569-0.4038239,5.822998-0.6510315
					c0-4.21875,0.0001526-6.3284607,0.0001526-10.5464935c0.2166061-0.022995,0.3245926-0.0348969,0.5411987-0.0571594
					c1.3570023,3.3776703,2.713623,6.7553253,4.0672836,10.1345215c2.4952316-0.2420044,3.7429276-0.3556061,6.2403641-0.5671692
					C-100.3317032,248.225647-101.7608871,244.6891022-103.1908264,241.1533203L-103.1908264,241.1533203z"/>
			</g>
		</g>
		<g>
			<g>
				<path d="M-87.3089142,245.0937042c0-1.8915253,0-2.8358002,0-4.7272644
					c2.6206589-0.1633301,3.9311066-0.2375488,6.553627-0.3674622c0-2.3339691,0.0003815-3.5001678,0.0003815-5.8340912
					c-2.6225204,0.1291504-3.9333496,0.2033844-6.5540085,0.3659363c0-1.8914642,0-2.8372345,0-4.7287445
					c3.0436172-0.18927,4.566185-0.2731628,7.6118469-0.4171753c0-2.3272705,0-3.490509,0-5.8170166
					c-4.4822922,0.2115479-8.9619675,0.4825134-13.4373856,0.8121185c0,8.9749603,0.0003433,17.9506531,0.0003433,26.9263763
					c4.5081024-0.3310852,9.0200806-0.6027985,13.5350266-0.8165894c0-2.32724,0.0003815-3.4905243,0.0003815-5.8177643
					C-82.6833649,244.8175354-84.2261124,244.9021759-87.3089142,245.0937042L-87.3089142,245.0937042z"/>
			</g>
		</g>
		<g>
			<g>
				<path d="M-58.5220261,230.7634277c0-1.9093018,0-2.8647156,0-4.7740173
					c-1.3523674-1.187027-2.0284538-1.7779083-3.3808212-2.9560394c-3.4697189,0.0445404-5.2044144,0.0809174-8.6734085,0.1841125
					c-1.3657074,1.2419586-2.0483017,1.8647919-3.4138565,3.1163635c0,4.1482391,0,6.2230988,0,10.3713074
					c1.365181,1.1521454,2.0481491,1.7311554,3.4138565,2.8921967c2.4876251-0.0734711,3.7319717-0.1024323,6.2203293-0.146225
					c0,1.8914795,0,2.8364716,0,4.7279816c-1.5207062,0.0267181-2.2808685,0.0430603-3.8011932,0.0809174
					c0-0.8373566,0-1.2560577,0-2.0934143c-2.3332062,0.0586548-3.5001678,0.0935364-5.8329926,0.1781464
					c0,1.9694672,0,2.9545593,0,4.923996c1.3655548,1.1454468,2.0485229,1.7207794,3.4142303,2.8751221
					c3.4690018-0.1031952,5.2033157-0.1395721,8.6730347-0.1841125c1.3523674-1.2129974,2.0284538-1.8180084,3.3808212-3.0220947
					c0-4.1541748,0-6.2305298,0-10.3854218c-1.3519859-1.1936798-2.0277328-1.7883148-3.3793373-2.973114
					c-2.5024529,0.0319366-3.7536812,0.0556946-6.2557564,0.1180573c0-1.89151,0-2.837265,0-4.7287445
					c1.5203247-0.0378418,2.2804871-0.0541992,3.8011932-0.0809174c0,0.7779999,0,1.1669617,0,1.9456787
					C-62.0225716,230.7923889-60.8557625,230.7775269-58.5220261,230.7634277L-58.5220261,230.7634277z"/>
			</g>
		</g>
		<g>
			<g>
				<path d="M5.2187533,234.3148193c0-1.9093323,0-2.8639832,0-4.7732849
					c-1.3454869-1.3547974-2.0184152-2.0295868-3.3642826-3.3754578c-3.4541442-0.3845215-5.1819549-0.5619507-8.6405411-0.8885956
					c-1.3614883,1.0727081-2.0429363,1.6116638-3.4051466,2.693985c0,4.1482391,0,6.2223358,0,10.3713074
					c1.3622103,1.3213959,2.0436583,1.9842834,3.4051466,3.3145752c2.4798059,0.2338562,3.7195115,0.3600464,6.1974502,0.6243134
					c0,1.89151,0,2.8357849,0,4.7272644c-1.514015-0.1618347-2.2715547-0.2397614-3.7867098-0.38974
					c0-0.8373566,0-1.2560425,0-2.0934143c-2.3253746-0.2308502-3.4886508-0.3392487-5.815887-0.543396
					c0,1.9694672,0,2.9545593,0,4.923996c1.3622103,1.3139343,2.0436583,1.9731445,3.4051466,3.2975006
					c3.4585857,0.3266449,5.1863966,0.5040588,8.6405411,0.8893127c1.3458673-1.0459442,2.0187955-1.5663452,3.3642826-2.6033936
					c0-4.1541748,0-6.2312469,0-10.3861389c-1.3447647-1.360733-2.0176983-2.0392456-3.3631854-3.3910522
					c-2.4909375-0.2776489-3.7373376-0.4090424-6.2308974-0.65625c0-1.8914642,0-2.8372192,0-4.7287292
					c1.5151551,0.1506958,2.2726948,0.22789,3.7867098,0.3897247c0,0.7779846,0,1.1669617,0,1.9456787
					C1.7356902,233.9109955,2.8966861,234.0401459,5.2187533,234.3148193L5.2187533,234.3148193z"/>
			</g>
		</g>
		<g>
			<g>
				<path d="M-42.0167007,223.1625671c0,4.2179871,0,6.3270111,0,10.5457611
					c-1.758255-0.0453033-2.6371918-0.0645752-4.3958282-0.0950165c0-4.21875,0-6.3277893,0-10.5457764
					c-2.3335457-0.0401001-3.5008888-0.0541992-5.8344345-0.0675354c0,8.9756927,0,17.9513855,0,26.9271088
					c2.3335457,0.0133514,3.5008888,0.0274506,5.8344345,0.0667877c0-4.2179871,0-6.3269806,0-10.5457764
					c1.7586365,0.0304413,2.6375732,0.048996,4.3958282,0.0942993c0,4.21875,0,6.3277435,0,10.5457764
					c2.3335457,0.0608521,3.5001678,0.0964966,5.8333359,0.1833496c0-8.9756927,0-17.9514313,0-26.9263611
					C-38.5161896,223.2583008-39.6831551,223.2226868-42.0167007,223.1625671L-42.0167007,223.1625671z"/>
			</g>
		</g>
		<g>
			<g>
				<path d="M-24.1102047,245.0431824c0-1.8914795,0-2.8364716,0-4.7279816
					c2.6208534,0.1588745,3.9322052,0.2464447,6.5519524,0.438736c0-2.3339386,0-3.5009003,0-5.8348541
					c-2.6197472-0.1922455-3.9310989-0.2798615-6.5519524-0.438736c0-1.8914642,0-2.8372192,0-4.7287445
					c3.0436134,0.1848755,4.5650406,0.2880249,7.6060696,0.5174561c0-2.3272858,0-3.4905243,0-5.8170319
					c-4.4745045-0.3377838-8.9530773-0.6161499-13.4346123-0.8366394c0,8.9749756,0,17.9506683,0,26.9263611
					c4.5145645,0.2219543,9.0265446,0.5018463,13.533699,0.8440399c0-2.3264771,0-3.4904785,0-5.817749
					C-19.4857578,245.3349304-21.0272522,245.2302551-24.1102047,245.0431824L-24.1102047,245.0431824z"/>
			</g>
		</g>
		<g>
			<g>
				<path d="M10.1538782,227.1593475c0,2.3272705,0,3.490509,0,5.8170166
					c1.8929939,0.2420044,2.8390923,0.3674622,4.7302237,0.6272888c0,7.0367126,0.0011024,14.0733795,0,21.1100922
					c2.3242722,0.3191833,3.4864464,0.4854736,5.8077526,0.8314209c0-7.0367126,0-14.0733795,0-21.1100769
					c1.8885098,0.2813263,2.8320236,0.4261017,4.718708,0.7252655c0-2.3272705,0-3.490509,0-5.8170319
					C20.3359146,228.5393829,15.2497015,227.811142,10.1538782,227.1593475L10.1538782,227.1593475z"/>
			</g>
		</g>
		<g>
			<g>
				<path d="M-121.159317,233.1545105c0-2.339859,0-3.5090637,0-5.8489075
					c-4.4846878,0.5760498-8.9617767,1.2129822-13.4297791,1.9070892c0,9.0269318-0.0007629,18.0530853,0,27.0800323
					c2.3328247-0.3630219,3.4999695-0.538208,5.8357544-0.8737488c0-4.2424927,0.0001984-6.3633881,0.0001984-10.605896
					c2.6130524-0.3756256,3.9201584-0.5552979,6.5367126-0.897522c0-2.3472595,0.0003738-3.5202026,0.0003738-5.8675079
					c-2.6165848,0.3422394-3.9240341,0.5218964-6.5370865,0.8975372c0-1.9026489,0-2.8535767,0-4.7562256
					C-125.7178955,233.7528687-124.1992416,233.5457306-121.159317,233.1545105L-121.159317,233.1545105z"/>
			</g>
		</g>
		<g>
			<g>
				<path d="M2.0066121,269.1820679c0-2.0451355,0-3.0681458,0-5.1132812
					c-1.4430919-1.3043213-2.1650181-1.9441833-3.6100101-3.2009888c-3.7054105,0-5.5579257,0-9.2633743,0
					c-1.4560909,1.2114868-2.1832237,1.8076172-3.6389675,2.9834595c0.0088892,4.121521,0.0133734,6.182251,0.0222673,10.303772
					c1.459816,1.2701721,2.1891918,1.9152832,3.6479044,3.2292175c2.6534986,0.184845,3.9800577,0.2843018,6.6306291,0.4966125
					c0.0022044,1.9650269,0.0029645,2.9463806,0.0051689,4.911377c-1.618309-0.1677856-2.4274635-0.2479248-4.047255-0.4023438
					c-0.0018625-0.8537292-0.0018625-1.2798157-0.0033398-2.1335144c-2.4868708-0.2138062-3.7317553-0.3132629-6.2212105-0.4981079
					c0.004447,1.9560852,0.0066509,2.9337463,0.0110979,4.8905945c1.4590988,1.3228149,2.1880941,1.9968872,3.6453247,3.3680115
					c3.6965122,0.4253235,5.5431032,0.6592102,9.2306833,1.1728821c1.4364405-1.0570679,2.1546469-1.5930786,3.5910821-2.6828308
					c0-3.7087708,0-7.416748,0-11.1247864c-1.439025-1.3956299-2.1590886-2.0785522-3.6007361-3.4222107
					c-2.6672568-0.1447754-4.0016079-0.2130432-6.6710649-0.3399963c-0.0026274-1.9285889-0.0041094-2.8936768-0.0070744-4.8222656
					c1.6224194,0.0430603,2.4333935,0.0645752,4.0554276,0.1113281c0.0007601,0.8084106,0.0018625,1.2137451,0.0026226,2.0221863
					C-1.7251331,269.0254211-0.4813608,269.0751953,2.0066121,269.1820679L2.0066121,269.1820679z"/>
			</g>
		</g>
		<g>
			<g>
				<path d="M-93.5954514,268.7604065c0.0040665-1.9026184,0.0065002-2.8543091,0.0109482-4.7576599
					c-1.4702301-1.1721802-2.2058792-1.7668152-3.6764908-2.9724121c-3.8509064,0.0030212-5.7761688,0.0052185-9.6269226,0.0081787
					c-1.4744873,1.2597961-2.2110825,1.9011841-3.6838989,3.2084351
					c-0.0029602,7.4472046-0.0034943,14.8944092-0.0074081,22.3408813c1.4442291,1.0882874,2.1663437,1.6235352,3.6103897,2.6791687
					c3.8553925-0.5256348,5.7858582-0.7646484,9.6508636-1.1914978c1.4731979-1.3622131,2.2097931-2.029541,3.6844711-3.3442383
					c0.0105667-4.4206848,0.0209808-8.8406067,0.0311661-13.2605591c-3.6640167,0.1455078-5.4952087,0.2272034-9.1560745,0.4075623
					c-0.0037308,2.3992615-0.0057831,3.598175-0.0094681,5.9974365c1.1587906-0.0891113,1.7381897-0.1314087,2.8975525-0.2153015
					c-0.0035324,1.9211731-0.0050201,2.8817749-0.0085526,4.8029785c-1.7773361,0.1640625-2.665741,0.2486877-4.4414368,0.4290771
					c0.0063095-5.2773438,0.0140991-10.5554199,0.0211716-15.8334961c1.7793808-0.0504761,2.6686935-0.0742188,4.4485016-0.1210022
					c-0.0014801,0.8091431-0.0014801,1.214447-0.0029602,2.0236206
					C-97.3511887,268.8747253-96.0991974,268.8353882-93.5954514,268.7604065L-93.5954514,268.7604065z"/>
			</g>
		</g>
		<g>
			<g>
				<path d="M-75.8411407,266.3039856c-0.0105667,4.7643738-0.0205994,9.5287781-0.0293427,14.2931213
					c-1.8939056,0.0794373-2.8407669,0.12323-4.7339096,0.2204895c0.0107574-4.8170776,0.0205994-9.6349182,0.0339355-14.4519653
					C-78.6789398,266.3388672-77.7331848,266.325531-75.8411407,266.3039856L-75.8411407,266.3039856z M-73.2269821,260.8677979
					c-3.9810104,0-5.9717941,0-9.9528046,0c-1.4460983,1.1446838-2.1695023,1.7222595-3.6156006,2.8928833
					c-0.0165329,6.7138062-0.0335999,13.4275818-0.049942,20.1421204c1.4409256,1.0444641,2.1619034,1.563385,3.6035538,2.5967102
					c3.9836273-0.2895203,5.9771881-0.4082947,9.9657974-0.5953674c1.4648361-1.1788635,2.1964188-1.7615967,3.6609039-2.9144592
					c0.0090866-6.448761,0.0198441-12.896759,0.0307846-19.346283
					C-71.041893,262.5395203-71.770134,261.9850464-73.2269821,260.8677979L-73.2269821,260.8677979z"/>
			</g>
		</g>
		<g>
			<g>
				<path d="M-51.8832245,266.2520142c0.0011024,4.6611938,0.0025864,9.3231201,0.0052071,13.9850464
					c-1.8955803-0.0126038-2.8435783-0.0140991-4.7387772-0.0088806c0.0007286-4.659729-0.0007591-9.3186951,0.0022049-13.978363
					C-54.7219734,266.2483215-53.7758369,266.2483215-51.8832245,266.2520142L-51.8832245,266.2520142z M-49.2831612,260.9316406
					c-3.9808235,0-5.9714203,0-9.9522781,0c-1.4438515,1.1001282-2.1661568,1.6509705-3.6111107,2.7570801
					c-0.0068779,6.397522-0.011898,12.7958069-0.0174446,19.1933289c1.445713,1.0704651,2.1687431,1.60495,3.6159401,2.6835938
					c3.9916115-0.0422974,5.9885178-0.0386047,9.9800949,0.0222778c1.4628143-1.0719604,2.194397-1.6042175,3.6560745-2.6702271
					c-0.0070724-6.4079285-0.0137215-12.8165894-0.0211716-19.2260132
					C-47.0935936,262.5840759-47.8236923,262.0325317-49.2831612,260.9316406L-49.2831612,260.9316406z"/>
			</g>
		</g>
		<g>
			<g>
				<path d="M-31.9653416,280.7047424c-0.0096531-4.7903442-0.0218925-9.5806885-0.0315456-14.3703308
					c1.8216896,0.0230408,2.7318363,0.036377,4.5531864,0.0645752c0.0092697,4.8468018,0.0218868,9.6936035,0.0359879,14.5403442
					C-29.2301636,280.837616-30.1421299,280.7901306-31.9653416,280.7047424L-31.9653416,280.7047424z M-24.8904343,260.8677979
					c-4.3560715,0-8.7121429,0-13.0685921,0c-0.1199188,0-0.1796684,0-0.2999268,0c-0.5534363,0-0.8307037,0-1.3841019,0
					c0.0037231,2.1535339,0.0048294,3.2306824,0.0088921,5.3842163c0.5538177,0.0044556,0.8314285,0.0059814,1.3852463,0.0119019
					c0.0048294,4.7287292,0.0152016,9.4581909,0.0248566,14.1877136c-0.5541573-0.0193176-0.832531-0.0282288-1.3866882-0.0452881
					c0.0036926,2.1535339,0.005928,3.22995,0.0096169,5.3834839c0.5545387,0.0222778,0.8318062,0.0333862,1.3863449,0.0571594
					c0.1206398,0.0052185,0.1803856,0.0089417,0.3010254,0.0140991c4.3679657,0.2197266,8.7247982,0.4869995,13.0867996,0.8032227
					c1.463541-1.0363159,2.1943989-1.5574646,3.6567974-2.6071167c-0.0159626-6.7538757-0.0334091-13.5077209-0.0497093-20.2615967
					C-22.6878643,262.6100769-23.4220638,262.0250854-24.8904343,260.8677979L-24.8904343,260.8677979z"/>
			</g>
		</g>
	</g>
</g>
</svg>
