<?xml version="1.0" encoding="utf-8"?>
<!-- Generator: Adobe Illustrator 19.0.1, SVG Export Plug-In . SVG Version: 6.00 Build 0)  -->
<svg version="1.1" id="Layer_1" xmlns="http://www.w3.org/2000/svg" xmlns:xlink="http://www.w3.org/1999/xlink" x="0px" y="0px"
	 viewBox="0 0 90 50" enable-background="new 0 0 90 50" xml:space="preserve">
<g>
	<rect x="3" y="4" fill="#9DCEF2" width="5.7718506" height="27.4327393"/>
	<rect x="3" y="33.6192017" fill="#9DCEF2" width="5.7718506" height="5.7587891"/>
	<path fill="#9DCEF2" d="M22.5,14.0253906c-2.1216431,0-3.8531494,1.3848267-5.1949463,2.7696533H17.211853v-2.3721313h-5.7412109
		v24.9550781h5.7412109V19.7315063c0.3895874-0.5028687,1.1386108-0.953064,1.918396-0.953064
		c0.9985962,0,1.6382446,0.5995483,1.6382446,2.4959717v18.1035767h5.7406616V19.1846313
		C26.5091553,15.9042969,25.2147827,14.0253906,22.5,14.0253906z"/>
	<path fill="#9DCEF2" d="M38.6776733,15.8067017h-0.109375c-0.6865234-0.9433594-1.9341431-1.7901001-3.6191406-1.7901001
		c-4.1962891,0-6.1308594,4.5684204-6.1308594,12.8212891c0,8.1573486,1.4819946,12.9365234,5.631897,12.9365234
		c2.2772827,0,3.2290039-1.093689,4.368103-2.3895874h0.0932617v1.984375h5.4912109V4h-5.7250977V15.8067017z
		 M38.6776733,34.7919922c-0.3120117,0.4501953-0.9047852,0.8027954-1.7471313,0.8027954
		c-1.6849976,0-1.9813843-1.1464844-1.9813843-8.8007812c0-7.8565063,0.4526367-8.8974609,2.137207-8.8974609
		c0.7333984,0,1.3417969,0.3446655,1.5913086,0.7939453V34.7919922z"/>
	<rect x="47.3514404" y="4" fill="#9DCEF2" width="5.725647" height="5.7315063"/>
	<rect x="47.3514404" y="14.4229126" fill="#9DCEF2" width="5.725647" height="24.9550781"/>
	<path fill="#9DCEF2" d="M66.274353,15.1983032c-1.4356079-1.031311-2.7294922-1.1817017-3.8692017-1.1817017
		c-4.5703125,0-7.2381592,3.756897-7.2381592,7.7686157c0,2.8662109,0.5926514,5.3173828,3.0263062,6.9932251
		c-1.8408203,1.0848999-3.2754517,2.4248047-3.2754517,4.7616577c0,2.0458984,1.6376953,3.2890015,3.4160156,3.7919922v0.0966187
		c-2.1834717,0.8466797-4.414978,1.8251953-4.414978,4.5762329c0,1.5791016,1.8876953,4.8067017,8.4862671,4.8067017
		c6.7090454,0,8.9863892-3.5274048,8.9863892-7.0635376c0-8.3944702-11.7158813-5.8027954-11.7158813-8.8446655
		c0-0.4942017,0.109436-0.8907471,0.5458984-1.1377563c0.6553345,0.1943359,1.3417969,0.2470093,2.0440063,0.2470093
		c4.5078125,0,7.3475952-3.7567749,7.3475952-8.0770874c0-2.0546875-0.4989624-3.6152954-1.7010498-5.1054688
		c0.5-0.3973999,1.2479858-0.6434937,1.7479858-0.6434937c0.3896484,0,1.1855469,0.0965576,1.7314453,0.2997437v-5.0527954
		C69.2069702,11.6796875,67.2264404,13.2236938,66.274353,15.1983032z M62.265564,38.319397
		c0.5928345,0.0527344,4.368103,0.6434937,4.368103,2.2128906c0,1.5263062-1.4511108,2.4082031-4.0252686,2.4082031
		c-3.0264282,0-3.9161377-0.7411499-3.9161377-1.9667969C58.6922607,39.210022,61.3758545,38.4697876,62.265564,38.319397z
		 M62.4051514,26.4590454c-1.3876953,0-2.0741577-1.3574219-2.0741577-4.4179077
		c0-3.1124268,0.6864624-4.4708252,2.0741577-4.4708252c1.3417969,0,2.0440063,1.3583984,2.0440063,4.4708252
		C64.4491577,25.1016235,63.7469482,26.4590454,62.4051514,26.4590454z"/>
	<path fill="#9DCEF2" d="M79.4100952,14.0253906c-4.4619141,0-7.9092407,3.4395142-7.9092407,12.875
		c0,9.4434204,3.4473267,12.8740234,7.9092407,12.8740234c4.4462891,0,7.9091797-3.430603,7.9091797-12.8740234
		C87.3192749,17.4649048,83.8563843,14.0253906,79.4100952,14.0253906z M79.4100952,35.5947876
		c-1.3417969,0-1.7939453-1.09375-1.7939453-8.694397c0-7.6015015,0.4521484-8.6952515,1.7939453-8.6952515
		s1.7782593,1.09375,1.7782593,8.6952515C81.1883545,34.5010376,80.7518921,35.5947876,79.4100952,35.5947876z"/>
</g>
</svg>
