<?xml version="1.0" encoding="utf-8"?>
<!-- Generator: Adobe Illustrator 19.0.1, SVG Export Plug-In . SVG Version: 6.00 Build 0)  -->
<svg version="1.1" id="Layer_1" xmlns:sketch="http://www.bohemiancoding.com/sketch/ns"
	 xmlns="http://www.w3.org/2000/svg" xmlns:xlink="http://www.w3.org/1999/xlink" x="0px" y="0px" viewBox="0 0 200 100"
	 enable-background="new 0 0 200 100" xml:space="preserve">
<title>aardvark</title>
<g>
	<polygon points="178.5674896,42.4642982 178.5674896,43.2701912 179.4537354,43.2701912 179.4537354,45.5210991 
		180.440155,45.5210991 180.440155,43.2701912 181.3248901,43.2701912 181.3248901,42.4642982 	"/>
	<polygon points="183.8551331,42.4642982 183.3241577,44.3739433 182.7928925,42.4642982 181.6013184,42.4642982 
		181.6013184,45.5210991 182.4890594,45.5210991 182.4890594,44.4882584 182.4671478,44.0127182 182.4257507,43.5619774 
		182.4348755,43.5619774 182.9828796,45.5210991 183.6684875,45.5210991 184.2119446,43.5619774 184.2210693,43.5619774 
		184.1717529,44.1145668 184.1577606,44.5885887 184.1577606,45.5210991 185.0439758,45.5210991 185.0439758,42.4642982 	"/>
	<polygon points="136.9562225,56.4966888 142.3343506,56.4966888 141.0481873,61.8937683 135.6708221,61.8937683 	"/>
	<path d="M161.214386,54.1453094c-1.4493256,5.0693054-5.2596588,8.0182953-10.4880829,8.0182953
		c-5.835495,0-8.5133972-3.8881187-7.1265259-10.164505c1.3930054-6.3015213,5.8088989-10.1651764,11.4919434-10.1651764
		c5.2802429,0,7.7646942,2.8164444,7.0160065,7.8049545h-5.5818329c0.2551727-1.9572945-0.5559998-2.9763412-2.4242249-2.9763412
		c-2.2992706,0-3.8278961,1.7692451-4.6153412,5.3365631c-0.7767792,3.51408,0.0578156,5.3373833,2.4066467,5.3373833
		c1.7935638,0,3.1553497-1.1264229,3.7890015-3.1911736H161.214386z"/>
	<path d="M169.6895905,42.4642982h5.955719l2.1470642,19.4294701h-5.8290405l-0.1197205-2.5677719h-5.8290405l-1.2807159,2.5677719
		h-5.776825L169.6895905,42.4642982z M171.6756439,55.2458725l-0.3453369-6.7292366l-3.3443756,6.7292366H171.6756439z"/>
	<path d="M45.373085,42.4642982L36.1760025,58.428524l-3.6488266-8.8026237l8.5486794-7.161602h-7.2411385l-7.0362072,6.4321632
		l1.4420509-6.4321632h-6.1881771l-5.0084076,19.4294701h6.8419991l1.3870163-6.1890984l1.8971329-1.5941925l3.0111637,7.7832909
		h3.9990406h6.1338959l1.3328056-2.5668716h6.187439l0.1552353,2.5668716h6.1866608l-2.4819641-19.4294701H45.373085z
		 M43.695488,55.2459679l3.4813957-6.7272987l0.4365997,6.7272987H43.695488z"/>
	<polygon points="70.896225,42.4642982 68.4107895,54.274765 64.4640732,42.4642982 58.5458679,42.4642982 54.18993,61.8937683 
		60.1089706,61.8937683 62.5813408,50.139843 66.5411148,61.8937683 72.486084,61.8937683 76.8419418,42.4642982 	"/>
	<polygon points="83.2198257,47.3036919 82.5821457,50.1504173 90.4449081,50.1504173 89.4478073,54.6083031 81.5819702,54.6083031 
		81.008522,57.164444 90.6835251,57.164444 89.622879,61.8937683 73.7076797,61.8937683 78.0631027,42.4642982 
		110.7140274,42.4642982 109.6251831,47.3190117 104.139534,47.3190117 100.8730087,61.8937683 94.6313019,61.8937683 
		97.8978119,47.3190117 	"/>
	<polygon points="111.7038803,42.4642982 107.3069,61.8937683 113.6874313,61.8937683 118.3347092,42.4642982 	"/>
	<polygon points="138.816803,42.4642982 131.9528656,42.4642982 128.0123138,47.3820076 126.5219727,42.4642982 
		119.4944,42.4642982 123.4845505,51.787487 114.5451584,61.8937683 121.7340775,61.8937683 125.8604126,56.6249924 
		127.6238556,61.8937683 134.6781006,61.8937683 130.4303894,51.787487 	"/>
</g>
</svg>
