<?xml version="1.0" encoding="utf-8"?>
<!-- Generator: Adobe Illustrator 19.0.1, SVG Export Plug-In . SVG Version: 6.00 Build 0)  -->
<svg version="1.1" id="Layer_1" xmlns="http://www.w3.org/2000/svg" xmlns:xlink="http://www.w3.org/1999/xlink" x="0px" y="0px"
	 viewBox="0 0 200 100" enable-background="new 0 0 200 100" xml:space="preserve">
<path d="M118.6478806,50.8839951c1.2062912-1.9452667,2.7969437-4.4613991,3.9002075-6.3074875
	c1.2525253,0,2.5166702,0.0162811,3.4504395,0.0162811c0,4.9784966,0,9.8646278,0,14.8108406c-1.024147,0-2.0305939,0-3.1596451,0
	c0-3.0902824-0.0018921-6.5528336-0.0018921-9.6422997c-0.0708237-0.0200043,0.0708237,0.0200043,0,0
	c-1.315506,1.9934845-2.8415909,4.300045-4.230896,6.4053726c-1.3524551-2.0496902-2.8401489-4.3095093-4.1407547-6.2806168
	c-0.063324,0.0090942,0.063324-0.0090942,0,0c0,3.0537148-0.0028763,6.4234123-0.0028763,9.5257759
	c-1.1200027,0-2.0974579,0-3.1368179,0c0-4.9122849,0-9.802063,0-14.8040657c1.0404663,0,2.2201309-0.0312881,3.3852081-0.0312881
	C115.8780899,46.4163666,117.4076233,48.8878021,118.6478806,50.8839951z"/>
<path d="M75.2913589,59.7036247c-4.4951782,0.0076523-7.8846207-3.2428474-7.9109116-7.5866089
	c-0.0263519-4.3533173,3.414978-7.7452316,7.867569-7.7545891c4.4850464-0.0094299,7.8793945,3.253952,7.90448,7.5994873
	C83.1777496,56.3368149,79.7667313,59.6960068,75.2913589,59.7036247z M75.2445526,47.3849182
	c-2.5381851,0.0053978-4.4407043,1.971508-4.4534607,4.6023026c-0.0128098,2.644516,1.9297256,4.6963844,4.4623566,4.7134972
	c2.5619812,0.0173111,4.5015488-1.9861679,4.5019913-4.6503372C79.7558823,49.4296799,77.7736588,47.3795357,75.2445526,47.3849182z
	"/>
<path d="M143.2751923,44.7411652c2.4918976,0,4.9223785-0.2245941,7.294632,0.0513992
	c3.7809753,0.4398842,6.2957001,3.5508842,6.2661133,7.2944374c-0.0297546,3.7631836-2.6501465,6.8442802-6.4572296,7.2264252
	c-2.3227692,0.2331581-4.6880493,0.0430489-7.1035156,0.0430489
	C143.2751923,54.4959717,143.2751923,49.6080322,143.2751923,44.7411652z M146.5009766,56.4895401
	c1.029953,0,1.9636993,0.035656,2.8938446-0.007103c2.2315063-0.1025848,3.7709656-1.6399193,4.0179291-3.964344
	c0.2432709-2.2895432-1.0349121-4.3251228-3.178894-4.766201c-1.1948395-0.2458153-2.4539948-0.1790771-3.7328796-0.2561302
	C146.5009766,50.5712891,146.5009766,53.4762535,146.5009766,56.4895401z"/>
<path d="M129.3472595,44.6542969c3.6535187,0,7.2999268,0,11.0203857,0c0,0.9280281,0,1.8428841,0,2.8480339
	c-2.5856171,0-5.1558075,0-7.7956085,0c0,1.0303192,0,1.9736633,0,3.0338135
	c4.8091888,0.0323296,0.0045013-0.0196419,6.9020386,0.0126877c0.0052948,2.8592796,0,0,0.0052948,2.8592796
	c-2.3448639,0-4.621048,0-6.9314423,0c0,1.1042099,0,2.0836678,0,3.1441765c2.6457367,0,5.2459869,0,7.9150543,0
	c0,0.9915123,0,1.9030838,0,2.8635216c-3.7068634,0-7.3806152,0-11.1157227,0
	C129.3472595,54.4954605,129.3472595,49.6041641,129.3472595,44.6542969z"/>
<path d="M164.3228149,59.4630203c0,0,1.4497833-3.4318237,2.1438141-5.0700798
	c1.3048096-3.079937,2.8391724-6.6629715,4.1284485-9.7494011c3.1406403,0,0,0,3.1406403,0
	c1.6779633,3.9680939,4.1985321,9.9181175,5.8786774,13.8852844c0.1073761,0.253521,0.3587341,0.9257774,0.3587341,0.9257774
	s0,0-3.3479462-0.0250778c0,0,3.3181152,0,0,0c-0.3234558-0.7244644-1.0846558-2.5214882-1.3494873-3.2689362l0,0
	c-6.2827301-0.0035477,0,0-6.2827301-0.0035477l0,0c-0.361496,0.7028618-1.2766724,3.3182411-1.2766724,3.3182411
	l-0.1060486-0.0006676L164.3228149,59.4630203z M174.0602112,53.1857567
	c-0.639801-1.5694466-1.2449036-3.053791-1.9378662-4.7536774c-0.7046967,1.7308426-1.3073273,3.2110176-1.9354095,4.7536774
	C171.5306854,53.1857567,172.7353058,53.1857567,174.0602112,53.1857567z"/>
<path d="M54.3878899,44.7240181c2.4925995,0,4.8718529-0.0972748,7.342186,0.0431213
	c2.5554314,0.2128792,4.1413689,2.1285133,4.2884712,4.6932259c0.1473083,2.568367-1.2203903,4.555294-3.6872406,5.2197227
	c-0.8107109,0.2183609-1.6731758,0.2695465-2.5167999,0.3329811c-0.699028,0.0525627-1.4051552,0.0107536-2.1992874,0.0107536
	c0,1.4746513,0,2.8775139,0,4.3595695c-1.113018,0-2.1383476,0-3.2273293,0
	C54.3878899,54.5076256,54.3878899,49.6206093,54.3878899,44.7240181z M57.6373482,47.5998917c0,1.5234871,0,2.952282,0,4.4320259
	c1.114872,0,2.1890335,0.0898438,3.2411537-0.0240097c1.1689339-0.1264954,1.8825188-1.0945358,1.8626328-2.2604866
	c-0.0196304-1.1509399-0.771286-2.02145-2.0001678-2.1295662C59.7375755,47.5295753,58.7202339,47.5998917,57.6373482,47.5998917z"
	/>
<path d="M84.4793854,57.3616867c1.5534363-2.1616096,0,0,1.5534363-2.1616096
	c1.2965622,0.5368576,2.4563446,1.1232452,3.6828003,1.4811363c0.634964,0.1852913,1.4447937,0.1304474,2.0716934-0.1189423
	c0.5453491-0.2169495,0.8682709-0.7117577,0.9022064-1.1369667c0.0499573-0.6259003-0.3547134-0.9744606-0.7197723-1.1650925
	c-0.7670364-0.4005432-1.6398926-0.5991173-2.4704895-0.8770561c-0.7245941-0.242466-1.4667587-0.440834-2.1730652-0.7278214
	c-1.5734177-0.6393051-2.4085617-1.807518-2.4478073-3.5353317c-0.041214-1.8142815,0.6780167-3.2013206,2.2885284-4.0502815
	c2.4072342-1.2689438,5.9793854-0.4932137,8.3541794,1.248661c-0.5262909,0.7756538-1.059021,1.5607948-1.5479355,2.2813759
	c-1.1016541-0.4298401-2.1209564-0.9100151-3.1907578-1.210228c-0.5365601-0.1505699-1.2159729-0.1040344-1.7353363,0.0983276
	c-0.390152,0.1520195-0.7012405,0.3142395-0.8730545,1.0679016c-0.1397934,0.6132088,0.3422241,0.9754372,0.705162,1.1824188
	c0.6504211,0.3709412,1.4261856,0.5221138,2.1495972,0.7650414c0.8312378,0.2791367,1.682457,0.5103798,2.4895248,0.847393
	c1.5856552,0.6621246,2.4709625,1.8417892,2.4794693,3.6102142c0.0088272,1.834919-0.7189255,3.2332344-2.3901367,4.080925
	C90.9708557,60.3791962,87.6406708,59.7126045,84.4793854,57.3616867z"/>
<path d="M97.2296219,44.6417999c4.106636,0,8.1199646,0,12.1904144,0c0,0.9907112,0,1.9357567,0,2.9646149
	c-1.4834824,0-2.9170609,0-4.4543152,0c0,3.9746132,0,7.8674507,0,11.8083344c-1.1119385,0-2.1181259,0-3.2274628,0
	c0-3.9150009,0-7.8077545,0-11.8097725c-1.5544434,0-3.0096436,0-4.5086365,0
	C97.2296219,46.5726738,97.2296219,45.6505928,97.2296219,44.6417999z"/>
<path d="M159.421524,44.6435394c1.0576019,0,2.0645294,0,3.1359711,0c0,4.9337463,0,9.8201027,0,14.7638206
	c-1.0440979,0-2.0516052,0-3.1359711,0C159.421524,54.527607,159.421524,49.6390038,159.421524,44.6435394z"/>
<path d="M19,38v26h11.393259v-3.2134819h-0.0370426v-4.4172554h3.224678c3.4602585,0,5.5317345-2.377449,5.5317345-5.2254791
	c0-2.8482399-2.071476-5.2256165-5.5317345-5.2256165h-6.4965038v14.868351h-4.8709068V41.2134819h20.4494381v19.5730362h-7.3033714
	L32.704937,64h13.1714668V38H19z M30.3562164,48.8369484h3.06007c1.4829254,0,2.4243736,0.9415207,2.4243736,2.3068352
	c0,1.3651047-0.9414482,2.2831612-2.4243736,2.2831612h-3.06007V48.8369484z"/>
</svg>
