<?xml version="1.0" encoding="utf-8"?>
<!-- Generator: Adobe Illustrator 19.0.1, SVG Export Plug-In . SVG Version: 6.00 Build 0)  -->
<svg version="1.1" id="Layer_1" xmlns:sketch="http://www.bohemiancoding.com/sketch/ns"
	 xmlns="http://www.w3.org/2000/svg" xmlns:xlink="http://www.w3.org/1999/xlink" x="0px" y="0px" viewBox="0 0 200 100"
	 enable-background="new 0 0 200 100" xml:space="preserve">
<title>tourismtoronto</title>
<g id="brand-logos" sketch:type="MSPage">
	<g id="tourismtoronto" sketch:type="MSArtboardGroup">
		<g id="Path" transform="translate(17.500000, 28.000000)" sketch:type="MSLayerGroup">
			<path sketch:type="MSShapeGroup" d="M19.371912,31.1673412c-0.5336418,0-0.8959808-0.3003674-0.8959808-0.9540749
				c0-2.0785141,2.9097538-12.960083,2.9097538-12.960083h4.8839893l0.6675224-2.8315325H21.983551l1.3700352-5.2405386h-4.1640205
				l-3.1087437,5.205821l-3.1991892,0.8042898l-0.4059372,1.9570751h2.8312454c0,0-3.1214094,11.2702732-3.1214094,14.1231251
				c0,2.2433929,1.4199667,3.6485023,3.6700745,3.6485023c2.7179089,0,5.4285946-1.711853,7.1038971-3.905508l-1.5452404-1.3373718
				C20.7466602,30.4664001,19.9538651,31.1673412,19.371912,31.1673412z M37.3647423,13.9563999
				c-8.470768,0-12.6895084,7.5745316-12.6895084,13.497036c0,4.3605061,2.675045,7.4964504,7.9450779,7.4964504
				c8.470768,0,12.688694-7.9190712,12.688694-13.8408413C45.3090057,16.7485332,42.636322,13.9563999,37.3647423,13.9563999z
				 M38.1726379,25.0516186c-1.1948357,4.7516308-3.2435188,7.855196-5.1455765,7.855196
				c-2.0368271,0-2.1985531-4.6419849-1.0061569-9.3959522c1.1956482-4.7523651,3.2411652-7.690403,5.1424141-7.690403
				C39.2041206,15.8204594,39.3658485,20.2953053,38.1726379,25.0516186z M105.4947433,31.1673412
				c-0.5320129,0-0.8349228-0.3595543-0.8349228-1.0139866c0-2.6943512,3.1848907-9.1231995,3.1848907-12.7960873
				c0-2.3867998-1.561142-3.4008675-3.9483719-3.4008675c-3.3069305,0-7.2045746,3.1753464-9.1723938,9.2918777
				l-0.7191544-0.0023384c2.0511169-8.1248837-1.7069702-12.4672232-8.8639603-12.4672232
				c-2.5212784,0-5.3874359,0.7237873-7.5725098,1.5990543c-1.5951614-0.835784-3.9673767-1.590415-6.5108185-1.590415
				c-7.2823448,0-13.2746201,4.0971174-16.0915794,12.4609222l-0.7651138-0.0023384c0,0,1.2915306-3.7170582,1.2915306-6.0826244
				c0-2.826849-1.6205864-3.2069149-3.2015419-3.2069149c-2.022541,0-4.5508766,1.5754814-5.8511734,2.9451427l0.8443489,1.4697857
				c1.9504471-1.3097496,2.7964172-1.0479755,2.7964172,1.4145603c0,2.4649582-1.6372261,7.8639126-3.7437935,14.783123h6.6400719
				c0,0,1.1551323-6.0290012,2.5569115-9.1617947c1.6610146-3.7154465,3.9935265-4.9518814,6.4251709-4.4227657
				c1.6824493-5.5077972,4.9489403-7.9238281,9.2374992-7.9238281c1.1392975,0,2.4697266,0.3398561,3.0325928,0.6450701
				c-5.3723297,2.5697603-9.8796082,7.429347-9.8796082,13.7430601c0,4.4275246,3.139679,7.4885368,7.8317413,7.4885368
				c7.2679672,0,12.4935989-5.6851959,12.4935989-12.2543831c0-4.1949005-1.8837967-6.8198919-4.4613266-8.7099543
				c1.2352676-0.5440512,2.9263992-0.9548779,4.447113-0.9548779c4.7855911,0,5.8424149,4.2351103,4.7253494,9.2263937
				c-0.5368118,2.4057732-1.1790009,5.4053326-3.2879257,12.324543h6.6408844c0,0,0.9149017-4.9022179,2.8573914-9.5331364
				c1.141655-2.7314148,3.1079407-6.6747971,4.7150345-6.6747971c0.6485291,0,0.9141693,0.3555984,0.9141693,1.0093021
				c0,2.371048-2.9160843,8.5072803-2.9160843,11.8963623c0,2.243309,1.4207764,3.653183,3.6692657,3.653183
				c2.7194443,0,5.4310226-1.7118492,7.1038971-3.905508l-1.5444336-1.3373718
				C106.8703079,30.4664001,106.0774384,31.1673412,105.4947433,31.1673412z M72.6590118,32.9044724
				c-1.4984818,0-1.9282074-1.9310741-1.9282074-4.1294994c0-4.9636631,2.4578705-10.3571339,6.1842117-13.0530968
				c1.0901794,1.4098701,1.5317535,3.1738091,1.5317535,5.3170013
				C78.4467697,26.9629917,75.5211792,32.9044724,72.6590118,32.9044724z M117.7552567,31.1673412
				c-0.5335617,0-0.8967133-0.3003674-0.8967133-0.9540749c0-2.0785141,2.9105682-12.960083,2.9105682-12.960083h4.8839035
				l0.6684189-2.8315325h-4.9568939l1.3732071-5.2405386h-4.1640244l-3.1110992,5.205821l-3.1983719,0.8042898l-0.4059296,1.9570751
				h2.8304291c0,0-3.1197968,11.2702732-3.1197968,14.1231251c0,2.2433929,1.4199677,3.6485023,3.6692734,3.6485023
				c2.7171021,0,5.4285889-1.711853,7.1038895-3.905508l-1.546051-1.3373718
				C119.127739,30.4664001,118.3348618,31.1673412,117.7552567,31.1673412z M135.7457275,13.9563999
				c-8.4675903,0-12.6870651,7.5745316-12.6870651,13.497036c0,4.3605061,2.6758575,7.4964504,7.9442673,7.4964504
				c8.4707794,0,12.6887054-7.9190712,12.6887054-13.8408413C143.6916351,16.7485332,141.0205536,13.9563999,135.7457275,13.9563999
				z M136.5544586,25.0516186c-1.1948547,4.7516308-3.2427216,7.855196-5.1432343,7.855196
				c-2.0383759,0-2.1985474-4.6419849-1.0077057-9.3959522c1.1956482-4.7523651,3.2427979-7.690403,5.144043-7.690403
				C137.5851135,15.8204594,137.7476501,20.2953053,136.5544586,25.0516186z M160.5760803,12.8107252l-0.1126099-0.4826126
				l-0.6485291-0.2499809c-0.2663727-0.1001272-0.3290405-0.2491779-0.2235718-0.6363478l0.6271667-2.3032255l-0.3171997-0.317811
				l-2.0383759,0.4440145c-0.2402191,0.0354443-0.4011383-0.1253948-0.435257-0.2712994l-0.1942596-0.7088537l-0.4067535-0.1080322
				l-1.8884888,2.3607979l-0.6620941-0.4754257l1.1893158-4.9424276l-0.3473358-0.2476425l-0.8459625,0.4755015
				c-0.3123169,0.1853051-0.5652313,0.1419482-0.740509-0.1513963l-1.4215088-2.5437648h-0.4471741l-1.4239349,2.5437648
				c-0.1728668,0.2933445-0.421051,0.3367014-0.7350006,0.1513963l-0.8451691-0.4755015l-0.3488464,0.2476425l1.1853333,4.9424276
				l-0.6581116,0.4754257l-1.8861389-2.3607979l-0.4115295,0.1080322l-0.19104,0.7088537
				c-0.0372772,0.1459045-0.1950989,0.3067436-0.4385071,0.2712994l-2.036026-0.4440145l-0.3187256,0.317811l0.626358,2.3032255
				c0.1062775,0.3871698,0.0460205,0.5362215-0.2219696,0.6363478l-0.6477966,0.2499809l-0.1133423,0.4826126l4.7729492,2.8291893
				l-0.7357483,1.2891645l0.351944,0.2996387l3.7549438-1.0700207c0,1.8097191-0.9783173,3.3480549-0.9783173,3.3480549
				l1.2384338,1.0235157c0.7293854-1.1669922,1.0464935-2.8378334,0.8323975-4.3715706l3.7502136,1.0700207l0.3543854-0.2996387
				l-0.7365265-1.2891645L160.5760803,12.8107252z"/>
		</g>
	</g>
</g>
</svg>
