<?xml version="1.0" encoding="utf-8"?>
<!-- Generator: Adobe Illustrator 19.2.0, SVG Export Plug-In . SVG Version: 6.00 Build 0)  -->
<svg version="1.1" xmlns="http://www.w3.org/2000/svg" xmlns:xlink="http://www.w3.org/1999/xlink" x="0px" y="0px"
	 viewBox="0 0 160 210" style="enable-background:new 0 0 160 210;" xml:space="preserve">
<g id="Layer_1">
	<path style="fill:#72E9FE;" d="M6,0h150c2.209137,0,4,1.790861,4,4v202c0,2.209137-1.790863,4-4,4H6c-3.313709,0-6-2.686295-6-6V6
		C0,2.686291,2.686291,0,6,0z"/>
	<path style="opacity:0.2;" d="M156,198H0v6c0,3.313721,2.686279,6,6,6h150c2.209167,0,4-1.790894,4-4v-12
		C160,196.209106,158.209167,198,156,198z"/>
	<path style="opacity:0.75;" d="M10,0H6C2.686279,0,0,2.686279,0,6v198c0,3.313721,2.686279,6,6,6h4V0z"/>
	<path style="fill:#FFFFFF;" d="M152.463135,204c0-1.538879,0.584351-2.937927,1.536804-4H6c-2.209106,0-4,1.790833-4,4
		c0,2.209106,1.790894,4,4,4h148C153.047485,206.937988,152.463135,205.53894,152.463135,204z"/>
	<path style="fill:#D9D9D9;" d="M6,202h146.822632c0.265503-0.74292,0.660706-1.423889,1.177307-2H6c-2.209106,0-4,1.790833-4,4
		c0,0.347412,0.058167,0.678589,0.141418,1C2.587524,203.27771,4.138306,202,6,202z"/>
	<path d="M32.074219,174.726562H28.5L27.71875,177h-1.578125l3.289062-9.054688h1.765625L34.527344,177h-1.660156
		L32.074219,174.726562z M31.640625,173.441406l-1.363281-3.894531l-1.347656,3.894531H31.640625z"/>
	<path d="M40.557617,176.351562c-0.644531,0.488281-1.457031,0.777344-2.3125,0.777344
		c-1.664062,0-3.292969-1.09375-3.292969-3.273438c0-2.085938,1.492188-3.351562,3.3125-3.351562
		c0.796875,0,1.621094,0.246094,2.207031,0.691406l-0.621094,1.035156c-0.417969-0.273438-0.957031-0.4375-1.464844-0.4375
		c-1.125,0-1.953125,0.8125-1.953125,2.019531c0,1.203125,0.816406,2.023438,1.9375,2.023438
		c0.511719,0,1.058594-0.171875,1.476562-0.460938L40.557617,176.351562z"/>
	<path d="M46.724121,176.351562c-0.644531,0.488281-1.457031,0.777344-2.3125,0.777344
		c-1.664062,0-3.292969-1.09375-3.292969-3.273438c0-2.085938,1.492188-3.351562,3.3125-3.351562
		c0.796875,0,1.621094,0.246094,2.207031,0.691406l-0.621094,1.035156c-0.417969-0.273438-0.957031-0.4375-1.464844-0.4375
		c-1.125,0-1.953125,0.8125-1.953125,2.019531c0,1.203125,0.816406,2.023438,1.9375,2.023438
		c0.511719,0,1.058594-0.171875,1.476562-0.460938L46.724121,176.351562z"/>
	<path d="M50.5625,177.128906c-1.800781,0-3.277344-1.148438-3.277344-3.273438c0-2.066406,1.410156-3.351562,3.1875-3.351562
		c1.851562,0,3.003906,1.386719,3.003906,3.203125c0,0.203125-0.015625,0.421875-0.03125,0.546875h-4.675781
		c0.105469,1.039062,0.828125,1.667969,1.886719,1.667969c0.632812,0,1.257812-0.226562,1.738281-0.589844L53.0625,176.25
		C52.4375,176.800781,51.523438,177.128906,50.5625,177.128906z M52.035156,173.25
		c-0.074219-0.832031-0.605469-1.527344-1.566406-1.527344c-0.898438,0-1.546875,0.609375-1.679688,1.527344H52.035156z"/>
	<path d="M56.645996,175.921875c0.570312,0,1.136719-0.179688,1.136719-0.707031c0-1.261719-3.328125-0.390625-3.328125-2.75
		c0-1.34375,1.074219-1.960938,2.371094-1.960938c0.859375,0,1.632812,0.273438,2.222656,0.734375l-0.554688,0.921875
		c-0.480469-0.304688-1.082031-0.480469-1.574219-0.480469c-0.527344,0-1.019531,0.203125-1.019531,0.683594
		c0,1.25,3.351562,0.445312,3.351562,2.789062c0,1.351562-1.113281,1.976562-2.523438,1.976562
		c-1.050781,0-1.734375-0.351562-2.503906-0.9375l0.660156-0.890625
		C55.431152,175.675781,55.978027,175.921875,56.645996,175.921875z"/>
	<path d="M62.45752,175.921875c0.570312,0,1.136719-0.179688,1.136719-0.707031c0-1.261719-3.328125-0.390625-3.328125-2.75
		c0-1.34375,1.074219-1.960938,2.371094-1.960938c0.859375,0,1.632812,0.273438,2.222656,0.734375l-0.554688,0.921875
		c-0.480469-0.304688-1.082031-0.480469-1.574219-0.480469c-0.527344,0-1.019531,0.203125-1.019531,0.683594
		c0,1.25,3.351562,0.445312,3.351562,2.789062c0,1.351562-1.113281,1.976562-2.523438,1.976562
		c-1.050781,0-1.734375-0.351562-2.503906-0.9375l0.660156-0.890625C61.242676,175.675781,61.789551,175.921875,62.45752,175.921875
		z"/>
	<path d="M66.143555,168.59375c0-0.507812,0.414062-0.921875,0.925781-0.921875c0.507812,0,0.921875,0.414062,0.921875,0.921875
		c0,0.511719-0.414062,0.925781-0.921875,0.925781C66.557617,169.519531,66.143555,169.105469,66.143555,168.59375z
		 M66.327148,170.632812h1.476562V177h-1.476562V170.632812z"/>
	<path d="M69.486816,177v-9.199219l1.480469-0.273438v3.863281c0.472656-0.617188,1.207031-0.886719,1.988281-0.886719
		c1.878906,0,2.9375,1.5,2.9375,3.3125c0,1.988281-1.257812,3.3125-2.9375,3.3125c-0.859375,0-1.640625-0.347656-2.128906-1.039062
		L70.70166,177H69.486816z M74.412598,173.816406c0-1.199219-0.695312-2.007812-1.746094-2.007812
		c-1.074219,0-1.746094,0.847656-1.746094,1.988281c0,1.054688,0.566406,2.039062,1.722656,2.039062
		C73.67041,175.835938,74.412598,175.058594,74.412598,173.816406z"/>
	<path d="M77.178223,167.800781l1.472656-0.273438v7.492188c0,0.5,0.089844,0.75,0.464844,0.941406l-0.191406,1.167969
		c-0.90625,0-1.746094-0.5-1.746094-1.546875V167.800781z"/>
	<path d="M83.364746,177.128906c-1.800781,0-3.277344-1.148438-3.277344-3.273438c0-2.066406,1.410156-3.351562,3.1875-3.351562
		c1.851562,0,3.003906,1.386719,3.003906,3.203125c0,0.203125-0.015625,0.421875-0.03125,0.546875h-4.675781
		c0.105469,1.039062,0.828125,1.667969,1.886719,1.667969c0.632812,0,1.257812-0.226562,1.738281-0.589844L85.864746,176.25
		C85.239746,176.800781,84.325684,177.128906,83.364746,177.128906z M84.837402,173.25
		c-0.074219-0.832031-0.605469-1.527344-1.566406-1.527344c-0.898438,0-1.546875,0.609375-1.679688,1.527344H84.837402z"/>
	<path d="M98.083496,176.097656c-0.824219,0.667969-2.039062,1.03125-3.148438,1.03125
		c-2.609375,0-4.53125-1.996094-4.53125-4.617188c0-2.667969,1.988281-4.695312,4.585938-4.695312
		c1.105469,0,2.246094,0.371094,3.082031,1.046875l-0.683594,1.066406c-0.648438-0.488281-1.507812-0.757812-2.292969-0.757812
		c-1.8125,0-3.136719,1.433594-3.136719,3.308594c0,1.851562,1.289062,3.273438,3.105469,3.273438
		c0.828125,0,1.722656-0.296875,2.324219-0.75L98.083496,176.097656z"/>
	<path d="M98.648926,173.820312c0-1.976562,1.433594-3.316406,3.304688-3.316406c1.859375,0,3.296875,1.320312,3.296875,3.296875
		c0,1.980469-1.449219,3.328125-3.3125,3.328125C100.078613,177.128906,98.648926,175.792969,98.648926,173.820312z
		 M103.758301,173.808594c0-1.171875-0.773438-2-1.808594-2s-1.820312,0.824219-1.820312,2.007812
		c0,1.171875,0.773438,2.019531,1.808594,2.019531C102.965332,175.835938,103.758301,174.988281,103.758301,173.808594z"/>
	<path d="M110.856445,177v-3.789062c0-0.84375-0.464844-1.386719-1.316406-1.386719
		c-0.933594,0-1.507812,0.664062-1.507812,1.605469V177h-1.484375v-6.367188h1.214844l0.125,0.867188
		c0.480469-0.664062,1.238281-0.996094,2.09375-0.996094c1.546875,0,2.351562,1.0625,2.351562,2.625V177H110.856445z"/>
	<path d="M113.291016,170.632812h1.117188v-1.957031l1.472656-0.273438v2.230469h1.554688v1.253906h-1.554688v2.546875
		c0,1.125,0.519531,1.324219,1.382812,1.496094l-0.175781,1.199219c-1.320312,0-2.679688-0.582031-2.679688-2.257812v-2.984375
		h-1.117188V170.632812z"/>
	<path d="M121.413086,177.128906c-1.800781,0-3.277344-1.148438-3.277344-3.273438c0-2.066406,1.410156-3.351562,3.1875-3.351562
		c1.851562,0,3.003906,1.386719,3.003906,3.203125c0,0.203125-0.015625,0.421875-0.03125,0.546875h-4.675781
		c0.105469,1.039062,0.828125,1.667969,1.886719,1.667969c0.632812,0,1.257812-0.226562,1.738281-0.589844l0.667969,0.917969
		C123.288086,176.800781,122.374023,177.128906,121.413086,177.128906z M122.885742,173.25
		c-0.074219-0.832031-0.605469-1.527344-1.566406-1.527344c-0.898438,0-1.546875,0.609375-1.679688,1.527344H122.885742z"/>
	<path d="M129.859375,177v-3.789062c0-0.84375-0.464844-1.386719-1.316406-1.386719
		c-0.933594,0-1.507812,0.664062-1.507812,1.605469V177h-1.484375v-6.367188h1.214844l0.125,0.867188
		c0.480469-0.664062,1.238281-0.996094,2.09375-0.996094c1.546875,0,2.351562,1.0625,2.351562,2.625V177H129.859375z"/>
	<path d="M132.293457,170.632812h1.117188v-1.957031l1.472656-0.273438v2.230469h1.554688v1.253906h-1.554688v2.546875
		c0,1.125,0.519531,1.324219,1.382812,1.496094l-0.175781,1.199219c-1.320312,0-2.679688-0.582031-2.679688-2.257812v-2.984375
		h-1.117188V170.632812z"/>
	<path d="M70.922836,23.509279c-0.04628,0-0.077133,0.030846-0.092552,0.06171
		c-0.354813,0.879309-1.064438,1.820345-1.666069,1.820345c-0.2314,0-0.339386-0.107979-0.354813-0.370241
		c0-0.401089,0.262253-0.879309,0.555351-1.388393c0.339386-0.601641,0.740479-1.295837,0.725052-1.990034
		c-0.015419-0.493643-0.293106-1.01815-0.802185-1.18784h-0.015419c-1.172417-0.354818-2.190575,0.524508-2.915627,1.31126
		c-0.015427,0.015423-0.04628,0.030846-0.061714,0.030846c-0.015419,0-0.030853,0-0.04628-0.015423
		c-0.046272-0.030846-0.015419-0.092556,0-0.138844c0.308533-0.910172,1.172417-2.869341,2.252281-4.24231
		c0.154266-0.385666-0.848465-0.431953-1.033585-0.385666c-0.647919,0.169689-1.033585,0.894751-1.326683,1.434681
		c-1.002724,1.959169-1.619789,4.088045-1.866608,6.263189c-0.030861,0.29311-0.061714,0.601641-0.061714,0.910173
		c0.015427,0.894749,0.617065,0.941017,0.802185,0.941017s0.339386-0.077133,0.354813-0.092556
		c0.030853-0.015423,0.046272-0.046288,0.046272-0.077133c0-2.082588,1.83577-4.612553,2.992767-4.627975
		c0.13884,0,0.231392,0.046288,0.231392,0.262245c0,0.323954-0.246819,0.786751-0.509071,1.280415
		c-0.354813,0.647907-0.755905,1.388391-0.740479,2.082588c0.015427,0.83304,0.524513,1.295837,1.403816,1.280415
		c1.434677-0.030846,2.653374-1.619791,2.637947-2.576233C71.401062,23.771544,71.215935,23.540144,70.922836,23.509279z"/>
	<path d="M29.147642,27.535633c-1.943752,0.030846-3.116173-0.894749-3.147024-2.468252
		c-0.030853-1.511814,1.095289-2.637943,2.668798-2.653366c0.755901-0.015423,1.203272,0.339376,1.218699,0.941017
		c0,0.215977-0.09256,0.370243-0.09256,0.385666c-0.015427,0.030846-0.046278,0.046288-0.077133,0.046288l0,0
		c-0.030855,0-0.061705-0.015423-0.077133-0.030846c-0.030855-0.030846-0.246826-0.215977-0.771328-0.200554
		c-0.910168,0.015423-1.465527,0.555353-1.450098,1.419239c0.015427,0.848461,0.694195,1.357546,1.835762,1.326681
		c1.450098-0.030846,2.529959-0.925594,2.499109-2.082588c-0.015429-1.002728-0.77133-1.388393-1.573515-1.804903
		c-0.817606-0.41651-1.743202-0.894749-1.774057-2.144299c-0.030855-1.388393,1.2187-2.421967,2.94648-2.437408
		c1.511803-0.030846,2.591663,0.725042,2.60709,1.835768c0.01543,1.126148-0.817604,1.218704-1.06443,1.218704
		c-0.077133,0-0.154266,0-0.246826-0.015423c-0.030857,0-0.061707-0.015423-0.077133-0.046288
		c-0.01543-0.030846-0.01543-0.06171,0-0.092556c0,0,0.107986-0.2314,0.107986-0.617064
		c-0.015427-0.678774-0.555359-1.095284-1.40382-1.079861c-0.894741,0.015423-1.434671,0.447374-1.434671,1.126148
		c0.015429,0.70962,0.632492,1.033573,1.357538,1.403814c0.879318,0.447376,1.974602,1.002729,1.990028,2.514542
		C33.251114,25.992975,31.492485,27.489346,29.147642,27.535633z"/>
	<path d="M43.586926,25.206203c-0.539928,0.694197-1.558086,1.280415-2.344841,1.295837
		c-0.925594,0.015423-1.4501-0.47822-1.465527-1.372969c-0.015427-0.617064,0.2314-1.203281,0.493652-1.820345
		c0.293106-0.694197,0.586208-1.419239,0.586208-2.298565c0-0.046288,0.030857-0.077133,0.077133-0.092556
		c0,0,0.262253-0.06171,0.447369-0.077133c0.524506-0.015423,0.848465,0.308531,0.863892,0.848461
		c0.015427,0.617064-0.277676,1.280415-0.570786,1.912901c-0.2314,0.524508-0.462799,1.033573-0.447369,1.403816
		c0,0.24682,0.09256,0.339376,0.354809,0.339376c1.141563-0.015423,2.622517-2.452831,2.69965-4.411999
		c0-0.046288,0.030857-0.077133,0.061707-0.092556c0.030857-0.015423,0.169693-0.06171,0.354809-0.06171
		c0.555359-0.015423,0.894741,0.308531,0.894741,0.863886c0.015427,1.141571-0.987301,4.226887-1.26498,5.198751
		c-0.2314,0.771328-0.478226,1.480947-1.095291,2.113434c-0.586208,0.601641-1.434669,0.925596-2.360264,0.941019
		c-1.033585,0.015423-1.789486-0.524508-1.804913-1.31126c-0.015427-0.53993,0.262253-1.01815,0.771328-1.357548
		c0.323959-0.215975,0.755901-0.323954,1.234127-0.339376c0.262253,0,0.539932,0.030846,0.817608,0.092556
		c0.215973,0.046286,0.601635,0.293108,0.293102,0.524508c-0.09256,0.06171-0.215969,0.092556-0.323956,0.092556
		c-0.462799,0.030846-1.372967,0.169687-1.372967,0.786751c0,0.2314,0.154266,0.401089,0.570786,0.401089
		c0.863888-0.015423,1.527229-0.617064,1.866619-1.372971C43.232117,26.656307,43.540649,25.252491,43.586926,25.206203z"/>
	<path d="M55.326557,26.887705c-1.357536,0.030846-2.144291-0.817616-2.175148-2.298565
		c-0.030853-1.928322,1.280403-4.103468,3.224155-4.134331c0.971874-0.015423,1.588936,0.509085,1.604362,1.388391
		c0.01543,0.678774-0.293102,2.329411-3.316715,3.177874c-0.030853,0-0.046276,0.030846-0.061703,0.046288
		c-0.01543,0.015423-0.01543,0.046288-0.01543,0.077133c0.10799,0.385664,0.401093,0.555353,0.879318,0.555353
		c1.388393-0.030846,2.607094-1.31126,2.992756-1.928324c0.01543-0.030846,0.04628-0.046288,0.077133-0.046288
		c0.215973,0.030846,0.431942,0.200554,0.431942,0.555353C58.998085,25.237068,57.301159,26.856859,55.326557,26.887705z
		 M56.190449,21.642666c-0.725052,0.015423-1.480953,1.018152-1.650646,2.206011c0,0.030846,0.015427,0.061708,0.030853,0.092554
		c0.01543,0.015423,0.04628,0.015423,0.061707,0.015423s0.015427,0,0.030857,0
		c1.218697-0.447374,1.974598-1.172417,1.959175-1.866611C56.622391,21.766087,56.483551,21.627243,56.190449,21.642666z"/>
	<path d="M72.141533,26.579174c-0.04628,0-0.077133,0-0.123413,0c-0.2314-0.030846-0.431938-0.077133-0.586205-0.262245
		c-0.138847-0.154264-0.215981-0.339376-0.215981-0.555353c0-0.524508,0.44738-0.987305,0.941017-1.002728
		c0.462799-0.015423,0.771332,0.277687,0.802185,0.755907c0.015427,0.323954-0.077133,0.617064-0.262253,0.817616
		C72.558052,26.486618,72.357506,26.579174,72.141533,26.579174z M72.666039,24.188053
		c-0.370239,0-0.817604-0.169689-0.833038-1.095284c-0.030853-1.357548,0.509079-3.964624,1.20327-5.167906
		c0.293114-0.509085,0.647919-0.617064,0.894745-0.632486c0.18512,0,0.416519,0.077133,0.555351,0.24682
		c0.154266,0.200554,0.061707,0.401089,0,0.555353c-0.015427,0.030846-0.030853,0.046288-0.030853,0.077133
		c-0.246826,0.570776-0.44738,1.095284-0.632492,1.588947c-0.370239,1.049015-0.802177,2.869341-1.01815,4.041758
		c-0.015419,0.06171-0.046272,0.277685-0.046272,0.277685C72.758598,24.157207,72.712318,24.188053,72.666039,24.188053z"/>
	<path d="M37.154037,26.286066c-0.339386,0.385664-1.049004,0.941017-1.959179,0.95644
		c-1.095287,0.015423-1.835762-0.755907-1.851189-1.990034c-0.015427-0.709618,0.154266-1.434679,0.478226-2.067165
		c0.370235-0.740484,0.97187-1.342106,1.774055-1.820345c0.2314-0.138844,1.033585-0.570776,1.851192-0.586218
		c0.401093,0,0.755901,0.092556,1.018154,0.29311c0.663342,0.509085,0.524502,1.234125,0.308533,1.943745
		c-0.10799,0.385666-0.215973,0.786753-0.323959,1.172417c-0.169693,0.601641-0.555359,1.882036,0.493652,1.866613
		c1.156994-0.015423,1.110714-1.604368,1.434669-2.468254c0.015427-0.030846,0.10799,0.447376,0.154266,0.447376
		c0.123409,0.015423,0.478226,0.077131,0.493652,0.601641c0.015427,0.863884-1.079861,2.545385-2.60709,2.576231
		C37.601414,27.227102,37.262028,26.594597,37.154037,26.286066z M37.431721,22.074619
		c-0.354809-0.200554-1.156994,0.308531-1.40382,0.493643c-0.416519,0.323954-0.740475,0.755907-0.987301,1.218704
		c-0.215973,0.447374-0.339386,0.941017-0.323959,1.434679c0.015427,0.617064,0.2314,0.663351,0.462795,0.663351
		c0.647919-0.015423,1.342117-0.586218,1.666069-1.141571c0.24683-0.431952,0.431946-0.894749,0.586208-1.372971
		C37.508854,23.09277,37.801956,22.259729,37.431721,22.074619z"/>
	<path d="M53.645061,24.727983c-0.293102,0.617064-1.049004,0.987305-1.619789,0.987305
		c0.09256-0.431952,0.246826-0.910172,0.339386-1.342104c0.200542-0.941019,0.462795-1.866613,0.771328-2.776787
		c0.339386-1.064438,0.802185-2.098011,1.388393-3.05447c0.061707-0.107979,0.123409-0.200554,0.200542-0.308533
		c0.123413-0.401087-0.879318-0.370241-1.064434-0.308531c-0.431942,0.138842-0.709621,0.555353-0.910168,0.941017
		c-0.354809,0.694197-0.555355,1.527237-0.802181,2.2677c-0.370239,1.110706-1.141567,2.807632-2.85392,2.838495
		c-1.851189,0.030846,0.570786-2.853918,0.539932-4.766817c-0.01543-0.956442-1.049007-1.60437-1.851192-0.725042
		c-0.154266,0.185112-0.030853,0.24682,0.09256,0.231398c0.462799-0.061708,0.354813,0.509085,0.323959,0.663351
		c-0.262253,1.573505-2.529957,4.381155-0.555355,5.769547c0.833035,0.586218,2.992756,0.030846,3.548111-0.802174
		c-0.077129,0.462797-0.215969,0.941017-0.323956,1.403814c-3.239586,0.06171-4.674255,1.079861-4.658833,2.62252
		c0.015427,1.01815,1.033585,1.434679,1.851189,1.419237c1.388393-0.030846,2.85392-0.755905,3.424706-2.067165
		c0.154266-0.354818,0.277676-0.725042,0.385666-1.110706c1.141563-0.015423,1.974598-0.586218,2.113441-1.234127
		L53.645061,24.727983z M48.106915,28.692627c-0.370239,0-0.570786-0.138842-0.570786-0.401087
		c-0.015427-0.632486,0.570786-1.450104,3.116173-1.619791C50.359196,27.859589,49.526161,28.661762,48.106915,28.692627z"/>
	<path d="M61.759441,25.854132c-0.339386,0.385666-1.049004,0.941019-1.959179,0.956442
		c-1.095287,0.015423-1.835762-0.755907-1.851189-1.990034c-0.015427-0.70962,0.154266-1.434679,0.478226-2.067165
		c0.370235-0.740484,0.971874-1.342106,1.774055-1.820345c0.2314-0.138844,1.033585-0.570776,1.851192-0.586218
		c0.401093,0,0.755901,0.092556,1.018154,0.293108c0.663342,0.509085,0.524502,1.234127,0.308533,1.943747
		c-0.10799,0.385664-0.215973,0.786753-0.323959,1.172417c-0.169693,0.601641-0.555359,1.882036,0.493652,1.866613
		c1.156998-0.015423,1.11071-1.604368,1.434677-2.468254c0.015419-0.030846,0.107986,0.447374,0.154266,0.447374
		c0.123405,0.015423,0.478218,0.077133,0.493652,0.601641c0.015419,0.863886-1.079865,2.545387-2.607094,2.576233
		C62.206818,26.795151,61.867432,26.162664,61.759441,25.854132z M62.037125,21.642666
		c-0.354809-0.200552-1.156994,0.308533-1.40382,0.493645c-0.416519,0.323954-0.740475,0.755905-0.987301,1.218704
		c-0.215973,0.447374-0.339386,0.941017-0.323959,1.434679c0.015427,0.617064,0.2314,0.663351,0.462795,0.663351
		c0.647919-0.015423,1.342117-0.586218,1.666073-1.141571c0.246826-0.431952,0.431942-0.894751,0.586208-1.372971
		C62.114258,22.660818,62.40736,21.84322,62.037125,21.642666z"/>
	<path style="opacity:0.2;" d="M84,46c24.261719,0,44,19.738281,44,44s-19.738281,44-44,44s-44-19.738281-44-44S59.738281,46,84,46
		 M84,45c-24.81308,0-45,20.18692-45,45s20.18692,45,45,45s45-20.18692,45-45S108.81308,45,84,45L84,45z"/>
	<path style="opacity:0.2;" d="M84,54c19.850586,0,36,16.149414,36,36s-16.149414,36-36,36s-36-16.149414-36-36S64.149414,54,84,54
		 M84,53c-20.401855,0-37,16.598145-37,37s16.598145,37,37,37s37-16.598145,37-37S104.401855,53,84,53L84,53z"/>
	<path style="opacity:0.8;" d="M84,62c15.437866,0,28,12.562134,28,28c0,15.437805-12.562134,28-28,28
		c-15.437805,0-28-12.562195-28-28C56,74.562134,68.562195,62,84,62 M84,60c-16.542053,0-30,13.457947-30,30s13.457947,30,30,30
		s30-13.457947,30-30S100.542053,60,84,60L84,60z"/>
	<circle style="opacity:0.8;" cx="84" cy="71.081078" r="3.783784"/>
	<path style="opacity:0.8;" d="M99.286499,79.254044l-10.745956,1.362152v10.745956l5.221642,17.405449
		c0.302673,1.135139-0.37838,2.194527-1.437859,2.497246c-1.059433,0.302719-2.194565-0.302719-2.497292-1.437859
		l-5.372955-15.891846h-1.664871l-4.918922,16.194572c-0.378372,1.059471-1.589211,1.513512-2.648643,1.135132
		c-1.059479-0.37838-1.664879-1.589172-1.286499-2.648651l4.540543-17.102684V80.540543l-9.913544-1.362152
		c-0.983772-0.075706-1.740532-0.983826-1.589165-1.967598c0.075653-1.059433,0.983772-1.816185,2.043251-1.740532
		l12.032402,1.059433h5.297295l12.864868-1.059433c0.983772-0.075706,1.891891,0.75676,1.891891,1.816193
		C101.10273,78.345924,100.270271,79.178391,99.286499,79.254044z"/>
</g>
<g id="Layer_2">
</g>
</svg>
