<?xml version="1.0" encoding="utf-8"?>
<!-- Generator: Adobe Illustrator 19.2.0, SVG Export Plug-In . SVG Version: 6.00 Build 0)  -->
<svg version="1.1" xmlns="http://www.w3.org/2000/svg" xmlns:xlink="http://www.w3.org/1999/xlink" x="0px" y="0px"
	 viewBox="0 0 160 210" style="enable-background:new 0 0 160 210;" xml:space="preserve">
<g id="Layer_1">
	<path style="fill:#FE4C61;" d="M6.000092,0H156c2.20929,0,4.000122,1.791016,4.000122,4.000122V206
		c0,2.20929-1.790833,4.000122-4.000122,4.000122H6.000092C2.686341,210.000122,0,207.313782,0,204V6.000092
		C0,2.68634,2.68634,0,6.000092,0"/>
	<path style="fill:#FE4C61;" d="M88.000061,60h-2l0,0c0,0.551575,0.448486,1,1,1S88.000061,60.551575,88.000061,60L88.000061,60"/>
	<path style="fill:#FE4C61;" d="M91,60h-1.999939l0,0c0,0.551575,0.448608,1,1,1C90.551575,61,91,60.551575,91,60L91,60"/>
	<path style="fill:#FE4C61;" d="M94,60h-2l0,0c0,0.551575,0.448669,1,1,1C93.551514,61,94,60.551575,94,60L94,60"/>
	<path style="fill:#C13A4A;" d="M124,106.000061V94h12.000061v12.000061H124 M137.000061,93H123v14h14.000061V93"/>
	<path style="fill:#982E3A;" d="M130,100.000122L130,100.000122l3.000061,2.999939L130,100.000122 M127,97.000122l3,3L127,97.000122
		"/>
	<polyline style="fill:#982E3A;" points="133.000061,97.000122 130,100.000122 127,103.000061 130,100.000122 133.000061,97.000122 
			"/>
	<polyline style="fill:#982E3A;" points="113.000122,100.000122 116.000122,103.000061 113.000122,100.000122 	"/>
	<polyline style="fill:#982E3A;" points="116.000122,97.000122 113.000122,100.000122 116.000122,97.000122 	"/>
	<polyline style="fill:#C13A4A;" points="120.000061,93 113.000122,93 113.000122,94 119.000061,94 119.000061,106.000061 
		113.000122,106.000061 113.000122,107 120.000061,107 120.000061,93 	"/>
	<polyline style="fill:#C13A4A;" points="137.000061,67.000122 113.000122,67.000122 113.000122,68.000122 136.000061,68.000122 
		136.000061,89.000061 113.000122,89.000061 113.000122,90.000061 137.000061,90.000061 137.000061,67.000122 	"/>
	<path style="fill:#982E3A;" d="M141,57.000061h-27.999878V63H141v48h-27.999878v2.000122H141c1.100037,0,2-0.900085,2-2.000122
		V59.000061C143,57.899963,142.100037,57.000061,141,57.000061"/>
	<path style="fill:#CB3D4E;" d="M160.000122,194.000122c0,2.209106-1.790833,3.999939-4.000122,3.999939H10.000061v12.000061
		H6.000092C2.686341,210.000122,0,207.313782,0,204v-5.999939V204c0,3.313782,2.68634,6.000122,6.000092,6.000122H156
		c2.20929,0,4.000122-1.791016,4.000122-4.000122V194.000122"/>
	<path style="fill:#401318;" d="M10.000061,0H6.000092C2.686341,0,0,2.68634,0,6.000092v191.999969h10.000061V0"/>
	<path style="fill:#330F14;" d="M10.000061,198.000061H0V204c0,3.313782,2.68634,6.000122,6.000092,6.000122h3.999969V198.000061"/>
	<path style="fill:#FFFFFF;" d="M152.463196,204.000061c0-1.538879,0.584351-2.937927,1.536804-4H6.000061
		c-2.209106,0-4,1.790833-4,4c0,2.209106,1.790894,4,4,4h148C153.047546,206.938049,152.463196,205.539001,152.463196,204.000061z"
		/>
	<path style="fill:#D9D9D9;" d="M6.000061,202.000061h146.822632c0.265503-0.74292,0.660706-1.423889,1.177307-2H6.000061
		c-2.209106,0-4,1.790833-4,4c0,0.347412,0.058167,0.678589,0.141418,1
		C2.587585,203.277771,4.138367,202.000061,6.000061,202.000061z"/>
	<g>
		<path style="fill:#330F13;" d="M27.097717,131.945374h5.699219v1.339844h-4.171875v2.484375h3.628906v1.332031h-3.628906v2.558594
			h4.277344v1.339844h-5.804688V131.945374z"/>
		<path style="fill:#330F13;" d="M33.565491,134.632874h1.132812v-0.882812c0-1.445312,0.824219-2.222656,2.269531-2.222656
			c0.429688,0,0.816406,0.070312,1.191406,0.15625l-0.171875,1.1875c-0.242188-0.042969-0.511719-0.089844-0.78125-0.089844
			c-0.816406,0-1.027344,0.421875-1.027344,1.238281v0.613281h1.253906v1.253906h-1.253906v5.113281h-1.480469v-5.113281h-1.132812
			V134.632874z M37.889709,135.88678v-1.253906h1.132812v-0.882812c0-1.445312,0.824219-2.222656,2.269531-2.222656
			c0.429688,0,0.816406,0.070312,1.191406,0.15625l-0.171875,1.1875c-0.242188-0.042969-0.511719-0.089844-0.78125-0.089844
			c-0.816406,0-1.027344,0.421875-1.027344,1.238281v0.613281h1.621094v1.253906h-1.621094v5.113281h-1.480469v-5.113281H37.889709z
			"/>
		<path style="fill:#330F13;" d="M45.909241,141.128967c-1.800781,0-3.277344-1.148438-3.277344-3.273438
			c0-2.066406,1.410156-3.351562,3.1875-3.351562c1.851562,0,3.003906,1.386719,3.003906,3.203125
			c0,0.203125-0.015625,0.421875-0.03125,0.546875h-4.675781c0.105469,1.039062,0.828125,1.667969,1.886719,1.667969
			c0.632812,0,1.257812-0.226562,1.738281-0.589844l0.667969,0.917969
			C47.784241,140.800842,46.870178,141.128967,45.909241,141.128967z M47.381897,137.250061
			c-0.074219-0.832031-0.605469-1.527344-1.566406-1.527344c-0.898438,0-1.546875,0.609375-1.679688,1.527344H47.381897z"/>
		<path style="fill:#330F13;" d="M55.289124,140.351624c-0.644531,0.488281-1.457031,0.777344-2.3125,0.777344
			c-1.664062,0-3.292969-1.09375-3.292969-3.273438c0-2.085938,1.492188-3.351562,3.3125-3.351562
			c0.796875,0,1.621094,0.246094,2.207031,0.691406l-0.621094,1.035156c-0.417969-0.273438-0.957031-0.4375-1.464844-0.4375
			c-1.125,0-1.953125,0.8125-1.953125,2.019531c0,1.203125,0.816406,2.023438,1.9375,2.023438
			c0.511719,0,1.058594-0.171875,1.476562-0.460938L55.289124,140.351624z"/>
		<path style="fill:#330F13;" d="M55.740295,134.632874h1.117188v-1.957031l1.472656-0.273438v2.230469h1.554688v1.253906h-1.554688
			v2.546875c0,1.125,0.519531,1.324219,1.382812,1.496094l-0.175781,1.199219c-1.320312,0-2.679688-0.582031-2.679688-2.257812
			v-2.984375h-1.117188V134.632874z"/>
		<path style="fill:#330F13;" d="M60.823303,132.593811c0-0.507812,0.414062-0.921875,0.925781-0.921875
			c0.507812,0,0.921875,0.414062,0.921875,0.921875c0,0.511719-0.414062,0.925781-0.921875,0.925781
			C61.237366,133.519592,60.823303,133.10553,60.823303,132.593811z M61.006897,134.632874h1.476562v6.367188h-1.476562V134.632874z
			"/>
		<path style="fill:#330F13;" d="M66.732483,139.421936l1.695312-4.789062h1.496094l-2.496094,6.367188H65.94342l-2.40625-6.367188
			h1.59375L66.732483,139.421936z"/>
		<path style="fill:#330F13;" d="M73.627991,141.128967c-1.800781,0-3.277344-1.148438-3.277344-3.273438
			c0-2.066406,1.410156-3.351562,3.1875-3.351562c1.851562,0,3.003906,1.386719,3.003906,3.203125
			c0,0.203125-0.015625,0.421875-0.03125,0.546875h-4.675781c0.105469,1.039062,0.828125,1.667969,1.886719,1.667969
			c0.632812,0,1.257812-0.226562,1.738281-0.589844l0.667969,0.917969
			C75.502991,140.800842,74.588928,141.128967,73.627991,141.128967z M75.100647,137.250061
			c-0.074219-0.832031-0.605469-1.527344-1.566406-1.527344c-0.898438,0-1.546875,0.609375-1.679688,1.527344H75.100647z"/>
		<path style="fill:#330F13;" d="M81.241272,131.945374h1.53125v7.714844h4.039062v1.339844h-5.570312V131.945374z"/>
		<path style="fill:#330F13;" d="M93.226624,141.125061c-0.804688,0-1.53125-0.285156-1.589844-0.945312
			c-0.429688,0.664062-1.25,0.949219-2.039062,0.949219c-1.234375,0-2.269531-0.703125-2.269531-1.964844
			c0-1.242188,0.996094-2.089844,2.765625-2.089844c0.515625,0,1.039062,0.074219,1.421875,0.152344v-0.324219
			c0-0.855469-0.613281-1.179688-1.453125-1.179688c-0.640625,0-1.316406,0.1875-1.824219,0.464844l-0.449219-0.992188
			c0.703125-0.503906,1.675781-0.691406,2.527344-0.691406c1.703125,0,2.65625,0.746094,2.65625,2.238281v2.398438
			c0,0.5,0.097656,0.742188,0.429688,0.921875L93.226624,141.125061z M90.253967,138.132874
			c-1.039062,0-1.503906,0.351562-1.503906,0.941406c0,0.636719,0.53125,0.882812,1.074219,0.882812
			c0.777344,0,1.691406-0.507812,1.691406-1.285156v-0.402344C91.203186,138.203186,90.718811,138.132874,90.253967,138.132874z"/>
		<path style="fill:#330F13;" d="M99.041077,141.000061v-3.789062c0-0.84375-0.464844-1.386719-1.316406-1.386719
			c-0.933594,0-1.507812,0.664062-1.507812,1.605469v3.570312h-1.484375v-6.367188h1.214844l0.125,0.867188
			c0.480469-0.664062,1.238281-0.996094,2.09375-0.996094c1.546875,0,2.351562,1.0625,2.351562,2.625v3.871094H99.041077z"/>
		<path style="fill:#330F13;" d="M106.830139,140.089905c-0.488281,0.691406-1.269531,1.039062-2.128906,1.039062
			c-1.683594,0-2.941406-1.324219-2.941406-3.3125c0-1.8125,1.0625-3.3125,2.941406-3.3125
			c0.78125,0,1.515625,0.269531,1.988281,0.886719v-3.589844l1.480469-0.273438v9.472656h-1.214844L106.830139,140.089905z
			 M106.736389,137.796936c0-1.140625-0.671875-1.988281-1.746094-1.988281c-1.050781,0-1.746094,0.808594-1.746094,2.007812
			c0,1.242188,0.742188,2.019531,1.769531,2.019531C106.169983,139.835999,106.736389,138.851624,106.736389,137.796936z"/>
		<path style="fill:#330F13;" d="M109.66217,132.593811c0-0.507812,0.414062-0.921875,0.925781-0.921875
			c0.507812,0,0.921875,0.414062,0.921875,0.921875c0,0.511719-0.414062,0.925781-0.921875,0.925781
			C110.076233,133.519592,109.66217,133.10553,109.66217,132.593811z M109.845764,134.632874h1.476562v6.367188h-1.476562
			V134.632874z"/>
		<path style="fill:#330F13;" d="M117.310608,141.000061v-3.789062c0-0.84375-0.464844-1.386719-1.316406-1.386719
			c-0.933594,0-1.507812,0.664062-1.507812,1.605469v3.570312h-1.484375v-6.367188h1.214844l0.125,0.867188
			c0.480469-0.664062,1.238281-0.996094,2.09375-0.996094c1.546875,0,2.351562,1.0625,2.351562,2.625v3.871094H117.310608z"/>
		<path style="fill:#330F13;" d="M126.427795,140.679749c0,2.007812-1.351562,3.125-3.285156,3.125
			c-1.046875,0-1.964844-0.332031-2.695312-0.964844l0.6875-0.9375c0.519531,0.390625,1.195312,0.621094,1.882812,0.621094
			c1.105469,0,1.933594-0.589844,1.933594-2.042969v-0.457031c-0.464844,0.621094-1.25,0.902344-2.035156,0.902344
			c-1.738281,0-2.878906-1.339844-2.878906-3.179688c0-2.011719,1.34375-3.242188,2.957031-3.242188
			c0.832031,0,1.632812,0.328125,2.078125,1.015625l0.121094-0.886719h1.234375V140.679749z M124.978577,137.718811
			c0-1.082031-0.628906-1.917969-1.714844-1.917969c-1.082031,0-1.746094,0.832031-1.746094,1.941406
			c0,1.113281,0.671875,1.90625,1.742188,1.90625C124.373108,139.648499,124.978577,138.781311,124.978577,137.718811z"/>
	</g>
	<g>
		<path style="fill:#330F13;" d="M28.609436,159.000061h-1.511719v-9.054688h3.3125c2.015625,0,3.125,1.257812,3.125,2.914062
			c0,1.710938-1.1875,2.984375-3.113281,2.984375h-1.8125V159.000061z M30.214905,154.507874
			c1.140625,0,1.792969-0.617188,1.792969-1.628906c0-1.023438-0.671875-1.597656-1.792969-1.597656h-1.605469v3.226562H30.214905z"
			/>
		<path style="fill:#330F13;" d="M39.951233,159.125061c-0.804688,0-1.53125-0.285156-1.589844-0.945312
			c-0.429688,0.664062-1.25,0.949219-2.039062,0.949219c-1.234375,0-2.269531-0.703125-2.269531-1.964844
			c0-1.242188,0.996094-2.089844,2.765625-2.089844c0.515625,0,1.039062,0.074219,1.421875,0.152344v-0.324219
			c0-0.855469-0.613281-1.179688-1.453125-1.179688c-0.640625,0-1.316406,0.1875-1.824219,0.464844l-0.449219-0.992188
			c0.703125-0.503906,1.675781-0.691406,2.527344-0.691406c1.703125,0,2.65625,0.746094,2.65625,2.238281v2.398438
			c0,0.5,0.097656,0.742188,0.429688,0.921875L39.951233,159.125061z M36.978577,156.132874
			c-1.039062,0-1.503906,0.351562-1.503906,0.941406c0,0.636719,0.53125,0.882812,1.074219,0.882812
			c0.777344,0,1.691406-0.507812,1.691406-1.285156v-0.402344C37.927795,156.203186,37.44342,156.132874,36.978577,156.132874z"/>
		<path style="fill:#330F13;" d="M47.499084,158.679749c0,2.007812-1.351562,3.125-3.285156,3.125
			c-1.046875,0-1.964844-0.332031-2.695312-0.964844l0.6875-0.9375c0.519531,0.390625,1.195312,0.621094,1.882812,0.621094
			c1.105469,0,1.933594-0.589844,1.933594-2.042969v-0.457031c-0.464844,0.621094-1.25,0.902344-2.035156,0.902344
			c-1.738281,0-2.878906-1.339844-2.878906-3.179688c0-2.011719,1.34375-3.242188,2.957031-3.242188
			c0.832031,0,1.632812,0.328125,2.078125,1.015625l0.121094-0.886719h1.234375V158.679749z M46.049866,155.718811
			c0-1.082031-0.628906-1.917969-1.714844-1.917969c-1.082031,0-1.746094,0.832031-1.746094,1.941406
			c0,1.113281,0.671875,1.90625,1.742188,1.90625C45.444397,157.648499,46.049866,156.781311,46.049866,155.718811z"/>
		<path style="fill:#330F13;" d="M52.081116,159.128967c-1.800781,0-3.277344-1.148438-3.277344-3.273438
			c0-2.066406,1.410156-3.351562,3.1875-3.351562c1.851562,0,3.003906,1.386719,3.003906,3.203125
			c0,0.203125-0.015625,0.421875-0.03125,0.546875h-4.675781c0.105469,1.039062,0.828125,1.667969,1.886719,1.667969
			c0.632812,0,1.257812-0.226562,1.738281-0.589844l0.667969,0.917969
			C53.956116,158.800842,53.042053,159.128967,52.081116,159.128967z M53.553772,155.250061
			c-0.074219-0.832031-0.605469-1.527344-1.566406-1.527344c-0.898438,0-1.546875,0.609375-1.679688,1.527344H53.553772z"/>
		<path style="fill:#330F13;" d="M58.164124,157.921936c0.570312,0,1.136719-0.179688,1.136719-0.707031
			c0-1.261719-3.328125-0.390625-3.328125-2.75c0-1.34375,1.074219-1.960938,2.371094-1.960938
			c0.859375,0,1.632812,0.273438,2.222656,0.734375l-0.554688,0.921875c-0.480469-0.304688-1.082031-0.480469-1.574219-0.480469
			c-0.527344,0-1.019531,0.203125-1.019531,0.683594c0,1.25,3.351562,0.445312,3.351562,2.789062
			c0,1.351562-1.113281,1.976562-2.523438,1.976562c-1.050781,0-1.734375-0.351562-2.503906-0.9375l0.660156-0.890625
			C56.94928,157.675842,57.496155,157.921936,58.164124,157.921936z"/>
		<path style="fill:#330F13;" d="M61.983459,155.003967h12.34375v1.113281h-12.34375V155.003967z"/>
		<path style="fill:#330F13;" d="M81.173889,156.726624H77.59967l-0.78125,2.273438h-1.578125l3.289062-9.054688h1.765625
			l3.332031,9.054688h-1.660156L81.173889,156.726624z M80.740295,155.441467l-1.363281-3.894531l-1.347656,3.894531H80.740295z"/>
		<path style="fill:#330F13;" d="M90.188538,157.757874c0.945312,0,1.765625-0.359375,1.765625-1.226562
			c0-2.054688-4.726562-0.773438-4.726562-4.019531c0-1.753906,1.375-2.695312,3.09375-2.695312
			c1.082031,0,2.203125,0.371094,3.03125,1.019531l-0.679688,1.0625c-0.644531-0.46875-1.539062-0.738281-2.265625-0.738281
			c-0.898438,0-1.664062,0.410156-1.664062,1.230469c0,2.03125,4.757812,0.691406,4.757812,4.007812
			c0,1.835938-1.453125,2.730469-3.25,2.730469c-1.25,0-2.355469-0.433594-3.285156-1.179688l0.691406-1.089844
			C88.426819,157.445374,89.305725,157.757874,90.188538,157.757874z"/>
		<path style="fill:#330F13;" d="M94.021545,152.632874h1.117188v-1.957031l1.472656-0.273438v2.230469h1.554688v1.253906h-1.554688
			v2.546875c0,1.125,0.519531,1.324219,1.382812,1.496094l-0.175781,1.199219c-1.320312,0-2.679688-0.582031-2.679688-2.257812
			v-2.984375h-1.117188V152.632874z"/>
		<path style="fill:#330F13;" d="M99.288147,152.632874h1.214844l0.128906,0.972656l0.011719,0.003906
			c0.359375-0.757812,0.878906-1.105469,1.726562-1.105469c0.292969,0,0.570312,0.042969,0.839844,0.121094l-0.230469,1.363281
			c-0.230469-0.070312-0.449219-0.105469-0.683594-0.105469c-1.257812,0-1.535156,1.078125-1.535156,2.332031v2.785156h-1.472656
			V152.632874z"/>
		<path style="fill:#330F13;" d="M109.458069,159.125061c-0.804688,0-1.53125-0.285156-1.589844-0.945312
			c-0.429688,0.664062-1.25,0.949219-2.039062,0.949219c-1.234375,0-2.269531-0.703125-2.269531-1.964844
			c0-1.242188,0.996094-2.089844,2.765625-2.089844c0.515625,0,1.039062,0.074219,1.421875,0.152344v-0.324219
			c0-0.855469-0.613281-1.179688-1.453125-1.179688c-0.640625,0-1.316406,0.1875-1.824219,0.464844l-0.449219-0.992188
			c0.703125-0.503906,1.675781-0.691406,2.527344-0.691406c1.703125,0,2.65625,0.746094,2.65625,2.238281v2.398438
			c0,0.5,0.097656,0.742188,0.429688,0.921875L109.458069,159.125061z M106.485413,156.132874
			c-1.039062,0-1.503906,0.351562-1.503906,0.941406c0,0.636719,0.53125,0.882812,1.074219,0.882812
			c0.777344,0,1.691406-0.507812,1.691406-1.285156v-0.402344C107.434631,156.203186,106.950256,156.132874,106.485413,156.132874z"
			/>
		<path style="fill:#330F13;" d="M110.244202,152.632874h1.117188v-1.957031l1.472656-0.273438v2.230469h1.554688v1.253906
			h-1.554688v2.546875c0,1.125,0.519531,1.324219,1.382812,1.496094l-0.175781,1.199219
			c-1.320312,0-2.679688-0.582031-2.679688-2.257812v-2.984375h-1.117188V152.632874z"/>
		<path style="fill:#330F13;" d="M118.369202,159.128967c-1.800781,0-3.277344-1.148438-3.277344-3.273438
			c0-2.066406,1.410156-3.351562,3.1875-3.351562c1.851562,0,3.003906,1.386719,3.003906,3.203125
			c0,0.203125-0.015625,0.421875-0.03125,0.546875h-4.675781c0.105469,1.039062,0.828125,1.667969,1.886719,1.667969
			c0.632812,0,1.257812-0.226562,1.738281-0.589844l0.667969,0.917969
			C120.244202,158.800842,119.330139,159.128967,118.369202,159.128967z M119.841858,155.250061
			c-0.074219-0.832031-0.605469-1.527344-1.566406-1.527344c-0.898438,0-1.546875,0.609375-1.679688,1.527344H119.841858z"/>
		<path style="fill:#330F13;" d="M128.549866,158.679749c0,2.007812-1.351562,3.125-3.285156,3.125
			c-1.046875,0-1.964844-0.332031-2.695312-0.964844l0.6875-0.9375c0.519531,0.390625,1.195312,0.621094,1.882812,0.621094
			c1.105469,0,1.933594-0.589844,1.933594-2.042969v-0.457031c-0.464844,0.621094-1.25,0.902344-2.035156,0.902344
			c-1.738281,0-2.878906-1.339844-2.878906-3.179688c0-2.011719,1.34375-3.242188,2.957031-3.242188
			c0.832031,0,1.632812,0.328125,2.078125,1.015625l0.121094-0.886719h1.234375V158.679749z M127.100647,155.718811
			c0-1.082031-0.628906-1.917969-1.714844-1.917969c-1.082031,0-1.746094,0.832031-1.746094,1.941406
			c0,1.113281,0.671875,1.90625,1.742188,1.90625C126.495178,157.648499,127.100647,156.781311,127.100647,155.718811z"/>
		<path style="fill:#330F13;" d="M130.038147,150.593811c0-0.507812,0.414062-0.921875,0.925781-0.921875
			c0.507812,0,0.921875,0.414062,0.921875,0.921875c0,0.511719-0.414062,0.925781-0.921875,0.925781
			C130.452209,151.519592,130.038147,151.10553,130.038147,150.593811z M130.221741,152.632874h1.476562v6.367188h-1.476562
			V152.632874z"/>
		<path style="fill:#330F13;" d="M138.619202,158.351624c-0.644531,0.488281-1.457031,0.777344-2.3125,0.777344
			c-1.664062,0-3.292969-1.09375-3.292969-3.273438c0-2.085938,1.492188-3.351562,3.3125-3.351562
			c0.796875,0,1.621094,0.246094,2.207031,0.691406l-0.621094,1.035156c-0.417969-0.273438-0.957031-0.4375-1.464844-0.4375
			c-1.125,0-1.953125,0.8125-1.953125,2.019531c0,1.203125,0.816406,2.023438,1.9375,2.023438
			c0.511719,0,1.058594-0.171875,1.476562-0.460938L138.619202,158.351624z"/>
	</g>
	<g>
		<path style="fill:#330F13;" d="M28.625061,177.000061h-1.527344v-9.054688h5.738281v1.339844h-4.210938v2.667969h3.515625
			v1.332031h-3.515625V177.000061z"/>
		<path style="fill:#330F13;" d="M33.222717,173.820374c0-1.976562,1.433594-3.316406,3.304688-3.316406
			c1.859375,0,3.296875,1.320312,3.296875,3.296875c0,1.980469-1.449219,3.328125-3.3125,3.328125
			C34.652405,177.128967,33.222717,175.79303,33.222717,173.820374z M38.332092,173.808655c0-1.171875-0.773438-2-1.808594-2
			s-1.820312,0.824219-1.820312,2.007812c0,1.171875,0.773438,2.019531,1.808594,2.019531
			C37.539124,175.835999,38.332092,174.988342,38.332092,173.808655z"/>
		<path style="fill:#330F13;" d="M46.782288,177.000061h-1.21875l-0.117188-0.84375
			c-0.480469,0.6875-1.222656,0.972656-2.039062,0.972656c-1.578125,0-2.355469-1.054688-2.355469-2.636719v-3.859375h1.480469
			v3.789062c0,0.855469,0.429688,1.378906,1.296875,1.378906c0.953125,0,1.472656-0.640625,1.472656-1.605469v-3.5625h1.480469
			V177.000061z"/>
		<path style="fill:#330F13;" d="M52.762756,177.000061v-3.789062c0-0.84375-0.464844-1.386719-1.316406-1.386719
			c-0.933594,0-1.507812,0.664062-1.507812,1.605469v3.570312h-1.484375v-6.367188h1.214844l0.125,0.867188
			c0.480469-0.664062,1.238281-0.996094,2.09375-0.996094c1.546875,0,2.351562,1.0625,2.351562,2.625v3.871094H52.762756z"/>
		<path style="fill:#330F13;" d="M60.552795,176.089905c-0.488281,0.691406-1.269531,1.039062-2.128906,1.039062
			c-1.683594,0-2.941406-1.324219-2.941406-3.3125c0-1.8125,1.0625-3.3125,2.941406-3.3125
			c0.78125,0,1.515625,0.269531,1.988281,0.886719v-3.589844l1.480469-0.273438v9.472656h-1.214844L60.552795,176.089905z
			 M60.459045,173.796936c0-1.140625-0.671875-1.988281-1.746094-1.988281c-1.050781,0-1.746094,0.808594-1.746094,2.007812
			c0,1.242188,0.742188,2.019531,1.769531,2.019531C59.892639,175.835999,60.459045,174.851624,60.459045,173.796936z"/>
		<path style="fill:#330F13;" d="M68.994202,177.125061c-0.804688,0-1.53125-0.285156-1.589844-0.945312
			c-0.429688,0.664062-1.25,0.949219-2.039062,0.949219c-1.234375,0-2.269531-0.703125-2.269531-1.964844
			c0-1.242188,0.996094-2.089844,2.765625-2.089844c0.515625,0,1.039062,0.074219,1.421875,0.152344v-0.324219
			c0-0.855469-0.613281-1.179688-1.453125-1.179688c-0.640625,0-1.316406,0.1875-1.824219,0.464844l-0.449219-0.992188
			c0.703125-0.503906,1.675781-0.691406,2.527344-0.691406c1.703125,0,2.65625,0.746094,2.65625,2.238281v2.398438
			c0,0.5,0.097656,0.742188,0.429688,0.921875L68.994202,177.125061z M66.021545,174.132874
			c-1.039062,0-1.503906,0.351562-1.503906,0.941406c0,0.636719,0.53125,0.882812,1.074219,0.882812
			c0.777344,0,1.691406-0.507812,1.691406-1.285156v-0.402344C66.970764,174.203186,66.486389,174.132874,66.021545,174.132874z"/>
		<path style="fill:#330F13;" d="M69.794006,170.632874h1.117188v-1.957031l1.472656-0.273438v2.230469h1.554688v1.253906H72.38385
			v2.546875c0,1.125,0.519531,1.324219,1.382812,1.496094l-0.175781,1.199219c-1.320312,0-2.679688-0.582031-2.679688-2.257812
			v-2.984375h-1.117188V170.632874z"/>
		<path style="fill:#330F13;" d="M74.877014,168.593811c0-0.507812,0.414062-0.921875,0.925781-0.921875
			c0.507812,0,0.921875,0.414062,0.921875,0.921875c0,0.511719-0.414062,0.925781-0.921875,0.925781
			C75.291077,169.519592,74.877014,169.10553,74.877014,168.593811z M75.060608,170.632874h1.476562v6.367188h-1.476562V170.632874z
			"/>
		<path style="fill:#330F13;" d="M77.844788,173.820374c0-1.976562,1.433594-3.316406,3.304688-3.316406
			c1.859375,0,3.296875,1.320312,3.296875,3.296875c0,1.980469-1.449219,3.328125-3.3125,3.328125
			C79.274475,177.128967,77.844788,175.79303,77.844788,173.820374z M82.954163,173.808655c0-1.171875-0.773438-2-1.808594-2
			s-1.820312,0.824219-1.820312,2.007812c0,1.171875,0.773438,2.019531,1.808594,2.019531
			C82.161194,175.835999,82.954163,174.988342,82.954163,173.808655z"/>
		<path style="fill:#330F13;" d="M90.051819,177.000061v-3.789062c0-0.84375-0.464844-1.386719-1.316406-1.386719
			c-0.933594,0-1.507812,0.664062-1.507812,1.605469v3.570312h-1.484375v-6.367188h1.214844l0.125,0.867188
			c0.480469-0.664062,1.238281-0.996094,2.09375-0.996094c1.546875,0,2.351562,1.0625,2.351562,2.625v3.871094H90.051819z"/>
	</g>
	<path d="M70.922913,23.509338l-0.09256,0.061707c-0.354828,0.879333-1.064453,1.820374-1.666077,1.820374
		c-0.231415,0-0.339386-0.107971-0.354797-0.370239c0-0.401123,0.262238-0.879333,0.555328-1.388428
		c0.339386-0.601624,0.740479-1.295837,0.725067-1.990051c-0.015442-0.493591-0.293121-1.018127-0.802185-1.187805h-0.015442
		c-1.172394-0.354797-2.190552,0.524475-2.915619,1.311279l-0.061707,0.030823l-0.046265-0.015442V21.6427
		c0.308533-0.910156,1.172394-2.869324,2.252258-4.24231c0.154266-0.38562-0.84845-0.431915-1.033569-0.38562
		c-0.647919,0.169678-1.0336,0.894714-1.326691,1.434631c-1.002716,1.959229-1.619781,4.088074-1.866608,6.263245
		c-0.030853,0.293091-0.061707,0.601624-0.061707,0.910156c0.015411,0.894714,0.617065,0.94104,0.802185,0.94104
		s0.339386-0.077148,0.354797-0.09259l0.046295-0.077148c0-2.082581,1.835754-4.612549,2.992737-4.62793
		c0.138855,0,0.231415,0.046265,0.231415,0.262207c0,0.323975-0.246826,0.786743-0.509094,1.280396
		c-0.354797,0.647949-0.75589,1.388428-0.740448,2.082642c0.015411,0.833008,0.524506,1.295837,1.403809,1.280396
		c1.434662-0.030823,2.653381-1.619812,2.637939-2.576233C71.401123,23.771606,71.216003,23.540222,70.922913,23.509338z"/>
	<path d="M29.147705,27.535706c-1.943756,0.030823-3.11618-0.894775-3.147034-2.468262
		c-0.030853-1.511841,1.095306-2.637939,2.668793-2.653381c0.75592-0.015381,1.203278,0.339417,1.218719,0.94104
		c0,0.215942-0.09256,0.370239-0.09256,0.385681l-0.077148,0.046265l-0.077118-0.030823
		c-0.030853-0.030884-0.246826-0.216003-0.771332-0.200562c-0.910187,0.015381-1.465515,0.555359-1.450104,1.41925
		c0.015442,0.84845,0.694183,1.357544,1.835754,1.32666c1.450104-0.030823,2.529968-0.925598,2.499115-2.082581
		c-0.015411-1.002747-0.771332-1.388428-1.573517-1.804932c-0.817596-0.416504-1.743195-0.894714-1.774048-2.144287
		c-0.030853-1.388367,1.218689-2.421936,2.946472-2.437378c1.51181-0.030884,2.591675,0.725037,2.607086,1.835754
		c0.015442,1.12616-0.817596,1.218689-1.064423,1.218689c-0.077148,0-0.154266,0-0.246826-0.015442l-0.077148-0.046265v-0.09259
		c0,0,0.108002-0.231384,0.108002-0.617004c-0.015442-0.678772-0.555359-1.095337-1.403809-1.079895
		c-0.894745,0.015442-1.434692,0.447388-1.434692,1.12616c0.015442,0.709595,0.632507,1.033569,1.357544,1.403809
		c0.879333,0.447388,1.974609,1.002747,1.990021,2.514526C33.25119,25.993042,31.492554,27.48938,29.147705,27.535706z"/>
	<path d="M43.586975,25.206238c-0.539917,0.694214-1.558075,1.280457-2.344818,1.295837
		c-0.925598,0.015442-1.450104-0.47821-1.465546-1.372925c-0.015411-0.617065,0.231415-1.203308,0.493652-1.820374
		c0.293121-0.694214,0.586212-1.41925,0.586212-2.298584l0.077148-0.092529c0,0,0.262238-0.061707,0.447357-0.077148
		c0.524506-0.015381,0.84845,0.308533,0.863892,0.848511c0.015442,0.617004-0.277679,1.280396-0.570801,1.912842
		c-0.231384,0.524536-0.462769,1.03363-0.447357,1.40387c0,0.246826,0.09256,0.339355,0.354797,0.339355
		c1.141571-0.015442,2.622528-2.45282,2.699677-4.411987l0.061707-0.09259c0.030853-0.015381,0.169678-0.061707,0.354797-0.061707
		c0.555359-0.015381,0.894745,0.308533,0.894745,0.863892c0.015411,1.141602-0.987305,4.226868-1.264984,5.19873
		c-0.231415,0.771362-0.478241,1.480957-1.095276,2.113464c-0.586212,0.601624-1.434692,0.925598-2.360291,0.94104
		c-1.033569,0.015381-1.789459-0.524536-1.804901-1.311279c-0.015442-0.539917,0.262268-1.018127,0.771332-1.357544
		c0.323944-0.216003,0.75589-0.323975,1.234131-0.339355c0.262238,0,0.539917,0.030823,0.817596,0.092529
		c0.215973,0.046265,0.601654,0.293091,0.293121,0.524536c-0.09256,0.061707-0.215973,0.092529-0.323975,0.092529
		c-0.462799,0.030823-1.372955,0.169678-1.372955,0.786743c0,0.231384,0.154266,0.401123,0.57077,0.401123
		c0.863892-0.015442,1.527252-0.617065,1.866638-1.372986C43.232178,26.656372,43.54071,25.252563,43.586975,25.206238z"/>
	<path d="M55.32663,26.887756c-1.357544,0.030884-2.144318-0.817627-2.175171-2.298584
		c-0.030853-1.928284,1.280426-4.103455,3.224182-4.134277c0.971863-0.015442,1.588928,0.509033,1.60434,1.388367
		c0.015442,0.678772-0.293091,2.329407-3.316711,3.177856l-0.061707,0.046326l-0.015411,0.077087
		c0.107971,0.385681,0.401093,0.555359,0.879303,0.555359c1.388397-0.030823,2.607086-1.311218,2.992767-1.928284l0.077118-0.046326
		c0.215973,0.030884,0.431946,0.200562,0.431946,0.555359C58.998138,25.237122,57.301208,26.856934,55.32663,26.887756z
		 M56.190521,21.6427c-0.725067,0.015442-1.480957,1.018188-1.650665,2.206055l0.030853,0.092529l0.061707,0.015442h0.030853
		c1.218719-0.447388,1.974609-1.172424,1.959198-1.866638C56.622467,21.766174,56.483612,21.627319,56.190521,21.6427z"/>
	<path d="M72.141602,26.579224h-0.123413c-0.231415-0.030823-0.431946-0.077148-0.586212-0.262207
		c-0.138855-0.154297-0.215973-0.339417-0.215973-0.555359c0-0.524536,0.447357-0.987305,0.94101-1.002747
		c0.462799-0.015442,0.771332,0.27771,0.802185,0.75592c0.015411,0.323914-0.077118,0.617065-0.262238,0.817627
		C72.558105,26.486694,72.357574,26.579224,72.141602,26.579224z M72.666107,24.18811
		c-0.370239,0-0.817627-0.169678-0.833038-1.095276c-0.030853-1.357544,0.509064-3.9646,1.203278-5.167908
		c0.293091-0.509094,0.647919-0.617065,0.894714-0.632507c0.18512,0,0.416534,0.077148,0.555359,0.246826
		c0.154266,0.200562,0.061707,0.401123,0,0.555359l-0.030853,0.077148c-0.246826,0.57074-0.447357,1.095276-0.632477,1.588928
		c-0.370239,1.049011-0.802185,2.869324-1.018158,4.041748l-0.046265,0.27771L72.666107,24.18811z"/>
	<path d="M37.154114,26.286133c-0.339386,0.385681-1.049011,0.94104-1.959198,0.956421
		c-1.095276,0.015442-1.835754-0.75592-1.851196-1.98999c-0.015411-0.709656,0.154266-1.434692,0.478241-2.0672
		c0.370239-0.740479,0.971863-1.342102,1.774048-1.820312c0.231415-0.138855,1.0336-0.570801,1.851196-0.586243
		c0.401093,0,0.75589,0.092529,1.018158,0.293091c0.66333,0.509094,0.524506,1.234131,0.308533,1.943787
		c-0.108002,0.38562-0.215973,0.786743-0.323975,1.172363c-0.169678,0.601685-0.555359,1.88208,0.493652,1.866638
		c1.157013-0.015442,1.110718-1.60437,1.434692-2.468262l0.154266,0.447388c0.123413,0.015442,0.47821,0.077148,0.493652,0.601624
		c0.015411,0.863892-1.079865,2.54541-2.607117,2.576233C37.601471,27.227173,37.262085,26.594666,37.154114,26.286133z
		 M37.431793,22.074707c-0.354828-0.200562-1.157013,0.308533-1.403839,0.493591
		c-0.416504,0.323975-0.740479,0.75592-0.987305,1.21875c-0.215973,0.447327-0.339386,0.940979-0.323944,1.434631
		c0.015411,0.617065,0.231384,0.663391,0.462799,0.663391c0.647919-0.015442,1.342102-0.586243,1.666077-1.141602
		c0.246826-0.431946,0.431915-0.894714,0.586182-1.372925C37.508911,23.092834,37.802032,22.259766,37.431793,22.074707z"/>
	<path d="M53.645111,24.728027c-0.293091,0.617065-1.048981,0.987305-1.619781,0.987305
		c0.09256-0.431946,0.246826-0.910156,0.339386-1.342102c0.200562-0.940979,0.462799-1.866577,0.771332-2.776794
		c0.339386-1.064392,0.802185-2.097961,1.388397-3.054443c0.061707-0.107971,0.123413-0.200562,0.200531-0.308533
		c0.123413-0.401062-0.879303-0.370239-1.064423-0.308533c-0.431946,0.138855-0.709625,0.555359-0.910156,0.94104
		c-0.354828,0.694153-0.555359,1.527222-0.802185,2.2677c-0.370239,1.110657-1.141571,2.807617-2.853943,2.838501
		c-1.851166,0.030823,0.570801-2.853943,0.539948-4.766846c-0.015442-0.956421-1.049011-1.60437-1.851196-0.725037
		c-0.154266,0.18512-0.030853,0.246826,0.09256,0.231384c0.462799-0.061707,0.354797,0.509094,0.323975,0.66333
		c-0.262268,1.573547-2.529968,4.381165-0.555359,5.769592c0.833008,0.586182,2.992737,0.030823,3.548096-0.802185
		c-0.077118,0.462769-0.215973,0.94104-0.323944,1.403809c-3.239594,0.061707-4.674255,1.079834-4.658844,2.622498
		c0.015442,1.018188,1.0336,1.434692,1.851196,1.41925c1.388397-0.030823,2.853912-0.75592,3.424713-2.067139
		c0.154266-0.354858,0.277679-0.725037,0.385651-1.110718c1.141571-0.015442,1.974609-0.586243,2.113434-1.234131
		L53.645111,24.728027z M48.106964,28.692688c-0.370239,0-0.57077-0.138855-0.57077-0.401062
		c-0.015442-0.632507,0.57077-1.450134,3.11618-1.619812C50.359253,27.859619,49.526215,28.661804,48.106964,28.692688z"/>
	<path d="M61.759491,25.854187c-0.339386,0.385681-1.048981,0.94104-1.959167,0.956421
		c-1.095276,0.015442-1.835754-0.755859-1.851196-1.98999c-0.015411-0.709656,0.154266-1.434692,0.478241-2.0672
		c0.370239-0.740479,0.971863-1.342102,1.774048-1.820312c0.231415-0.138855,1.033569-0.570801,1.851196-0.586243
		c0.401093,0,0.75589,0.09259,1.018158,0.293091c0.66333,0.509094,0.524506,1.234131,0.308533,1.943787
		c-0.108002,0.385681-0.215973,0.786743-0.323975,1.172424c-0.169678,0.601624-0.555359,1.882019,0.493652,1.866577
		c1.157013-0.015381,1.110718-1.60437,1.434692-2.468262l0.154266,0.447388c0.123413,0.015442,0.47821,0.077148,0.493652,0.601624
		c0.015411,0.863892-1.079865,2.54541-2.607117,2.576233C62.206879,26.795227,61.867493,26.16272,61.759491,25.854187z
		 M62.03717,21.6427c-0.354797-0.2005-1.156982,0.308533-1.403809,0.493652c-0.416504,0.323975-0.740479,0.75592-0.987305,1.21875
		c-0.215973,0.447327-0.339386,0.940979-0.323944,1.434631c0.015411,0.617065,0.231384,0.663391,0.462799,0.663391
		c0.647919-0.015442,1.342102-0.586243,1.666046-1.141602c0.246826-0.431946,0.431946-0.894714,0.586212-1.372986
		C62.114319,22.660889,62.40741,21.843262,62.03717,21.6427z"/>
	<polyline style="fill:#661E27;" points="103.000061,96.000122 78.999969,96.000122 78.999969,97.000122 103.000061,97.000122 
		103.000061,96.000122 	"/>
	<polyline style="fill:#661E27;" points="103.000061,100.000122 78.999969,100.000122 78.999969,101.000061 103.000061,101.000061 
		103.000061,100.000122 	"/>
	<polyline style="fill:#661E27;" points="95,104.000061 78.999969,104.000061 78.999969,105.000061 95,105.000061 95,104.000061 	
		"/>
	<polyline style="fill:#661E27;" points="103.000061,92 78.999969,92 78.999969,93 103.000061,93 103.000061,92 	"/>
	<path style="fill:#661E27;" d="M58.000031,59.000061v-4h46.000031v4H58.000031 M105.000061,54.000061h-48V60h29
		c0-0.551331,0.448486-0.999939,1-0.999939s1,0.448608,1,0.999939h1c0-0.551331,0.448608-0.999939,1-0.999939
		C90.551575,59.000061,91,59.448669,91,60h1c0-0.551331,0.448669-0.999939,1-0.999939c0.551514,0,1,0.448608,1,0.999939h11.000061
		V54.000061"/>
	<path style="fill:#661E27;" d="M87.000061,59.000061c-0.551514,0-1,0.448608-1,0.999939h2
		C88.000061,59.448669,87.551575,59.000061,87.000061,59.000061"/>
	<path style="fill:#661E27;" d="M90.000061,59.000061c-0.551392,0-1,0.448608-1,0.999939H91
		C91,59.448669,90.551575,59.000061,90.000061,59.000061"/>
	<path style="fill:#661E27;" d="M93,59.000061c-0.551331,0-1,0.448608-1,0.999939h2C94,59.448669,93.551514,59.000061,93,59.000061"
		/>
	<path style="fill:#661E27;" d="M58.000031,86.000061V65.000122h46.000031v20.999939H58.000031 M105.000061,64h-48v23.000061h48V64"
		/>
	<path style="fill:#661E27;" d="M58.000031,106.000061V92h16v14.000061H58.000031 M75.000031,91H57.000061v16h17.999969V91"/>
	<line style="fill:none;" x1="61.000061" y1="95.000061" x2="71.000061" y2="103.000061"/>
	<line style="fill:none;" x1="71.000061" y1="95.000061" x2="61.000061" y2="103.000061"/>
	<path d="M109,44H53.000092c-1.100037,0-1.999969,0.899963-1.999969,2v65c0,1.100037,0.899933,2.000122,1.999969,2.000122H109
		c1.100037,0,2-0.900085,2-2.000122V46C111,44.899963,110.100037,44,109,44 M61,46c0.551544,0,1,0.448608,1,1
		c0,0.551514-0.448456,1-1,1c-0.551331,0-0.999969-0.448486-0.999969-1C60.000031,46.448608,60.448669,46,61,46 M58.000031,46
		c0.551544,0,1,0.448608,1,1c0,0.551514-0.448456,1-1,1c-0.551331,0-0.999969-0.448486-0.999969-1
		C57.000061,46.448608,57.4487,46,58.000031,46 M55.000092,46c0.551331,0,0.999969,0.448608,0.999969,1
		c0,0.551514-0.448639,1-0.999969,1c-0.551544,0-1-0.448486-1-1C54.000092,46.448608,54.448547,46,55.000092,46 M109,111H53.000092
		V50.000122H109V111"/>
	<path style="fill:#661E27;" d="M86.0047,75.476196l2.934631-2.934692l0.281494-0.120544
		c0.120544,0,0.200867,0.040283,0.281311,0.120544l0.522583,0.522766l0.120544,0.281372l-0.120544,0.281311l-3.738708,3.73877
		L86.0047,77.486206c-0.120544,0-0.20105-0.040222-0.281372-0.120483l-1.889648-1.889526l-0.120544-0.281311
		c0-0.120728,0.040222-0.20105,0.120544-0.281494l0.522766-0.522583l0.281311-0.120544
		c0.120728,0,0.20105,0.040222,0.281494,0.120544L86.0047,75.476196 M87.018921,69.000122
		c-0.070007,0-0.139893,0.001282-0.210327,0.003845c-2.733643,0.080322-4.984802,2.010071-5.628113,4.542664
		c-0.075684,0.340271-0.40271,0.600769-0.775452,0.63147c-0.281494-0.028381-0.522949-0.177002-0.6315-0.43042
		c-0.442261-0.763855-1.286591-1.286438-2.21106-1.286438c-0.924622,0-1.768951,0.522583-2.21106,1.286438
		c-0.160767,0.281311-0.442108,0.442078-0.723602,0.442078h-0.080475c-0.321564,0-0.602875-0.160767-0.723602-0.401855
		c-0.440643-0.779663-1.310242-1.302185-2.270996-1.302246c-0.17865,0-0.360321,0.018066-0.543121,0.055847
		c-1.004944,0.20105-1.768799,1.045349-1.969635,2.050293c-0.281494,1.648254,0.964691,3.055237,2.53244,3.055237
		c0.965057,0,1.768951-0.522583,2.211243-1.286255c0.160797-0.281494,0.442108-0.442322,0.723602-0.442322h0.080322
		c0.321716,0,0.603058,0.160828,0.723602,0.442322c0.442261,0.763672,1.286438,1.286255,2.21106,1.286255
		c0.924805,0,1.768951-0.522583,2.21106-1.286255c0.144714-0.253296,0.387543-0.401855,0.639618-0.430481
		c0.364258,0.030029,0.654907,0.25647,0.767334,0.63147c0.643311,2.612915,3.015137,4.542664,5.829285,4.542664
		c3.37677,0,6.070374-2.773865,6.03009-6.150818C92.999634,71.688171,90.227234,69.000122,87.018921,69.000122"/>
	<polyline style="fill:#982E3A;" points="49.000153,106.000061 31.999969,106.000061 31.999969,107 49.000153,107 
		49.000153,106.000061 	"/>
	<polyline style="fill:#982E3A;" points="49.000153,102.000061 31.999969,102.000061 31.999969,103.000061 49.000153,103.000061 
		49.000153,102.000061 	"/>
	<polyline style="fill:#982E3A;" points="49.000153,98.000122 31.999969,98.000122 31.999969,99.000122 49.000153,99.000122 
		49.000153,98.000122 	"/>
	<polyline style="fill:#982E3A;" points="49.000153,94 31.999969,94 31.999969,95 49.000153,95 49.000153,94 	"/>
	<polyline style="fill:#C13A4A;" points="49.000153,80 31.999969,80 31.999969,91 49.000153,91 49.000153,90.000061 
		33.000153,90.000061 33.000153,81.000122 49.000153,81.000122 49.000153,80 	"/>
	<path style="fill:#982E3A;" d="M30,74.000061c-0.551361,0-1-0.448669-1-1c0-0.551514,0.448639-1,1-1c0.551544,0,1,0.448486,1,1
		C31,73.551392,30.551544,74.000061,30,74.000061 M33.000153,74.000061c-0.551544,0-1.000183-0.448669-1.000183-1
		c0-0.551514,0.448639-1,1.000183-1c0.551361,0,0.999969,0.448486,0.999969,1
		C34.000122,73.551392,33.551514,74.000061,33.000153,74.000061 M36.000122,74.000061c-0.551544,0-1-0.448669-1-1
		c0-0.551514,0.448456-1,1-1c0.551331,0,0.999969,0.448486,0.999969,1C37.000092,73.551392,36.551453,74.000061,36.000122,74.000061
		 M49.000153,70.000061H28.000031c-1.099884,0-1.999969,0.899963-1.999969,2V111c0,1.100037,0.900085,2.000122,1.999969,2.000122
		h21.000122V111H28.000031V76h21.000122V70.000061"/>
</g>
<g id="Layer_2">
</g>
</svg>
