<?xml version="1.0" encoding="utf-8"?>
<!-- Generator: Adobe Illustrator 19.2.0, SVG Export Plug-In . SVG Version: 6.00 Build 0)  -->
<svg version="1.1" xmlns="http://www.w3.org/2000/svg" xmlns:xlink="http://www.w3.org/1999/xlink" x="0px" y="0px"
	 viewBox="0 0 412 314" style="enable-background:new 0 0 412 314;" xml:space="preserve">
<g id="Layer_1">
	<g>
		<path style="fill:#655700;" d="M2,291V11c0-2.209139,1.790861-4,4-4h400c2.209137,0,4,1.790861,4,4v280c0,2.209137-1.790863,4-4,4
			H6C3.790861,295,2,293.209137,2,291z"/>
		<rect x="6" y="11" style="fill:#FCE558;" width="400" height="280"/>
		<rect x="29" y="143" style="fill:none;" width="247" height="126.09668"/>
		<text transform="matrix(1 0 0 1 29 159.95459)"><tspan x="0" y="0" style="font-family:'Aspira-Medium'; font-size:20px;">Deliver digital products </tspan><tspan x="0" y="26" style="font-family:'Aspira-Medium'; font-size:20px;">that make a bottom line </tspan><tspan x="0" y="52" style="font-family:'Aspira-Medium'; font-size:20px;">different with Toronto’s </tspan><tspan x="0" y="78" style="font-family:'Aspira-Medium'; font-size:20px;">multichannel experience </tspan><tspan x="0" y="104" style="font-family:'Aspira-Medium'; font-size:20px;">design studio.</tspan></text>
		<g style="opacity:0.8;">
			<g>
				<g>
					<path d="M104.466003,114.270638c-0.077744,0-0.129578,0.051819-0.155487,0.103668
						c-0.596046,1.47715-1.788147,3.057999-2.798836,3.057999c-0.388725,0-0.570137-0.181389-0.596039-0.621971
						c0-0.673782,0.440559-1.47715,0.932938-2.332359c0.570137-1.010696,1.243919-2.17688,1.218018-3.343063
						c-0.025909-0.829277-0.492401-1.710396-1.347595-1.995453h-0.025909c-1.969543-0.596062-3.679955,0.881119-4.897972,2.202782
						c-0.025909,0.025909-0.077744,0.051819-0.103668,0.051819c-0.025909,0-0.051834,0-0.077744-0.025909
						c-0.077736-0.051811-0.025909-0.155479,0-0.233238c0.518303-1.528999,1.969551-4.820213,3.783607-7.126671
						c0.259155-0.647881-1.425331-0.725639-1.736313-0.647881c-1.08844,0.285057-1.73632,1.50309-2.228699,2.410126
						c-1.684486,3.291214-2.721092,6.867516-3.135735,10.521545c-0.051826,0.492393-0.103661,1.010704-0.103661,1.529007
						c0.025909,1.50309,1.036606,1.580818,1.347588,1.580818c0.310989,0,0.570137-0.129578,0.596046-0.155487
						c0.051834-0.025909,0.077744-0.077759,0.077744-0.129578c0-3.498543,3.083908-7.748642,5.02755-7.774551
						c0.233238,0,0.388725,0.077759,0.388725,0.440552c0,0.544212-0.414635,1.321663-0.855194,2.15097
						c-0.596046,1.088425-1.269852,2.332359-1.243927,3.498543c0.025909,1.399429,0.881119,2.17688,2.358276,2.15097
						c2.410103-0.051811,4.457405-2.721092,4.43148-4.32782C105.269363,114.711212,104.958382,114.322487,104.466003,114.270638z"/>
					<path d="M34.287731,121.034523c-3.265312,0.051819-5.234865-1.503098-5.286692-4.146431
						c-0.051834-2.539696,1.839979-4.431488,4.48332-4.45739c1.26984-0.025909,2.021381,0.570114,2.047298,1.580818
						c0,0.362816-0.155495,0.621971-0.155495,0.647873c-0.025917,0.051819-0.077744,0.077759-0.129574,0.077759l0,0
						c-0.051834,0-0.103661-0.025909-0.129578-0.051811c-0.051834-0.051819-0.414642-0.362823-1.295757-0.336914
						c-1.528996,0.025909-2.461941,0.932938-2.436026,2.384186c0.025917,1.425331,1.166182,2.280548,3.083902,2.228699
						c2.436024-0.051819,4.250088-1.554916,4.198261-3.49855c-0.025917-1.684486-1.295757-2.332367-2.643349-3.032059
						c-1.373501-0.699699-2.928413-1.503098-2.980244-3.602219c-0.051834-2.332367,2.047295-4.068665,4.949799-4.094604
						c2.53968-0.051819,4.353745,1.217995,4.379658,3.083908c0.025917,1.891823-1.373497,2.047302-1.788143,2.047302
						c-0.129578,0-0.259151,0-0.414642-0.025909c-0.051834,0-0.103661-0.025909-0.129578-0.077759
						c-0.025917-0.051811-0.025917-0.103661,0-0.155479c0,0,0.181408-0.388733,0.181408-1.036606
						c-0.025917-1.140274-0.932945-1.839973-2.35828-1.814064c-1.503075,0.025909-2.410107,0.751549-2.410107,1.891823
						c0.025917,1.192085,1.062523,1.736298,2.280529,2.358269c1.477169,0.751549,3.317139,1.684486,3.343056,4.224182
						C41.181168,118.443001,38.226841,120.956764,34.287731,121.034523z"/>
					<path d="M58.544327,117.121307c-0.907028,1.166183-2.617432,2.15097-3.939106,2.17688
						c-1.554913,0.025909-2.436024-0.803368-2.461941-2.306458c-0.025917-1.036606,0.388725-2.021393,0.829288-3.057999
						c0.492386-1.166183,0.984772-2.384186,0.984772-3.861366c0-0.077759,0.051834-0.129578,0.129578-0.155487
						c0,0,0.440559-0.103668,0.751537-0.129578c0.881115-0.025909,1.425335,0.518303,1.451248,1.425339
						c0.025917,1.036606-0.466469,2.15097-0.958862,3.213486c-0.388729,0.881119-0.777454,1.736298-0.751537,2.358269
						c0,0.414642,0.155491,0.570122,0.596043,0.570122c1.917721-0.025909,4.405579-4.120514,4.535156-7.411728
						c0-0.077759,0.051834-0.129578,0.103657-0.155487c0.051834-0.025909,0.285069-0.103668,0.596046-0.103668
						c0.932949-0.025909,1.503078,0.518303,1.503078,1.451248c0.025917,1.917725-1.658569,7.100761-2.12505,8.733398
						c-0.388725,1.295753-0.803371,2.487846-1.839977,3.550362c-0.984772,1.010696-2.410107,1.554909-3.965015,1.580818
						c-1.73632,0.025909-3.006161-0.881119-3.032078-2.202789c-0.025917-0.907028,0.440559-1.710396,1.295757-2.280548
						c0.54422-0.362816,1.26984-0.544212,2.073215-0.570122c0.440559,0,0.907028,0.051819,1.373497,0.155487
						c0.362812,0.077759,1.010693,0.492393,0.49239,0.881119c-0.155495,0.103668-0.362812,0.155487-0.54422,0.155487
						c-0.777458,0.051819-2.30645,0.285065-2.30645,1.321671c0,0.388725,0.259151,0.673782,0.958866,0.673782
						c1.451248-0.025909,2.565598-1.036606,3.135735-2.30645C57.94828,119.557335,58.466587,117.199066,58.544327,117.121307z"/>
					<path d="M78.26577,119.946068c-2.280533,0.051811-3.602203-1.37352-3.654037-3.861366
						c-0.051834-3.239395,2.150955-6.893433,5.416267-6.945282c1.632652-0.025909,2.669258,0.855217,2.695175,2.332367
						c0.025917,1.140274-0.492386,3.913185-5.571762,5.338516c-0.051834,0-0.077744,0.051819-0.103661,0.077759
						c-0.025917,0.025909-0.025917,0.077759-0.025917,0.129578c0.181412,0.647881,0.673798,0.932938,1.477173,0.932938
						c2.332359-0.051819,4.379662-2.202789,5.027534-3.239395c0.025917-0.051819,0.077744-0.077759,0.129578-0.077759
						c0.362808,0.051819,0.725624,0.336914,0.725624,0.932938C84.433578,117.173157,81.582909,119.894249,78.26577,119.946068z
						 M79.717018,111.134911c-1.21801,0.025909-2.487854,1.710396-2.772926,3.705879
						c0,0.051819,0.025917,0.103668,0.051834,0.155487c0.025917,0.025909,0.077744,0.025909,0.103661,0.025909
						s0.025917,0,0.051834,0c2.047295-0.751549,3.317139-1.969551,3.291229-3.135735
						C80.442642,111.342239,80.209404,111.109001,79.717018,111.134911z"/>
					<path d="M106.51329,119.427765c-0.077744,0-0.129578,0-0.207314,0c-0.388733-0.051819-0.725624-0.129578-0.984779-0.440552
						c-0.233238-0.259148-0.362816-0.570114-0.362816-0.932938c0-0.881119,0.751549-1.658577,1.580818-1.684486
						c0.777458-0.025909,1.295761,0.466484,1.347595,1.269852c0.025909,0.544212-0.129578,1.036606-0.440567,1.37352
						C107.213005,119.272278,106.876114,119.427765,106.51329,119.427765z M107.394417,115.410912
						c-0.621971,0-1.373505-0.285057-1.399429-1.839973c-0.051834-2.280548,0.855202-6.660179,2.021378-8.68158
						c0.492401-0.855209,1.08844-1.036606,1.503082-1.062515c0.310982,0,0.699707,0.129578,0.932938,0.414635
						c0.259148,0.336914,0.103668,0.67379,0,0.932945c-0.025909,0.051819-0.051834,0.077759-0.051834,0.12957
						c-0.414635,0.958855-0.751549,1.839973-1.062515,2.669281c-0.621971,1.762238-1.347595,4.820213-1.710396,6.789757
						c-0.025909,0.103668-0.077744,0.466484-0.077744,0.466484C107.549896,115.359093,107.472153,115.410912,107.394417,115.410912z
						"/>
					<path d="M47.737701,118.935364c-0.570137,0.647881-1.76223,1.580826-3.291229,1.606728
						c-1.839977,0.025909-3.083904-1.269844-3.109821-3.343056c-0.025917-1.192093,0.259151-2.410126,0.803371-3.472641
						c0.621964-1.243942,1.632652-2.254608,2.980244-3.058006c0.388729-0.233238,1.73632-0.958847,3.109821-0.984787
						c0.673798,0,1.26984,0.155487,1.710403,0.492393c1.114349,0.855217,0.881111,2.073219,0.518303,3.265305
						c-0.181412,0.647881-0.362812,1.321671-0.54422,1.969551c-0.285069,1.010696-0.932949,3.161636,0.829288,3.135727
						c1.943638-0.025909,1.865894-2.695183,2.410107-4.146431c0.025917-0.051811,0.181408,0.751549,0.259151,0.751549
						c0.207317,0.025909,0.803371,0.129578,0.829288,1.010696c0.025917,1.451248-1.81406,4.276001-4.379662,4.32782
						C48.489246,120.51622,47.919109,119.453674,47.737701,118.935364z M48.204178,111.86055
						c-0.596046-0.336914-1.943638,0.518303-2.35828,0.829269c-0.699715,0.544212-1.243927,1.269852-1.658569,2.047302
						c-0.362812,0.751549-0.570137,1.580818-0.54422,2.410126c0.025917,1.036606,0.388725,1.114365,0.777454,1.114365
						c1.08844-0.025909,2.254623-0.984787,2.798836-1.917732c0.414642-0.725632,0.72562-1.50309,0.984772-2.30645
						C48.333755,113.570938,48.826141,112.171516,48.204178,111.86055z"/>
					<path d="M75.441017,116.31794c-0.492386,1.036606-1.76223,1.658577-2.721092,1.658577
						c0.155495-0.725632,0.414642-1.528999,0.570137-2.254608c0.336891-1.580818,0.777458-3.135727,1.295761-4.664726
						c0.570137-1.788155,1.347588-3.524452,2.332359-5.131218c0.103661-0.181389,0.207321-0.336906,0.336899-0.518303
						c0.207314-0.673782-1.477165-0.621971-1.788147-0.518303c-0.725624,0.233246-1.192101,0.932945-1.528992,1.580818
						c-0.596046,1.166183-0.932945,2.565613-1.347595,3.809517c-0.621956,1.865883-1.917717,4.716553-4.794304,4.768402
						c-3.109818,0.051811,0.958862-4.794312,0.907036-8.007797c-0.025917-1.606728-1.76223-2.695183-3.109825-1.217995
						c-0.259148,0.310966-0.051834,0.414635,0.155495,0.388725c0.777458-0.103668,0.596046,0.855209,0.54422,1.114365
						c-0.440559,2.643333-4.250088,7.359909-0.932945,9.692276c1.399414,0.984787,5.027534,0.051819,5.960487-1.347572
						c-0.129578,0.777451-0.362816,1.580818-0.54422,2.358269c-5.442184,0.103668-7.852295,1.814064-7.826385,4.405579
						c0.025917,1.710396,1.73632,2.410126,3.109818,2.384186c2.332367-0.051819,4.794312-1.269852,5.753174-3.472641
						c0.259148-0.596062,0.466469-1.218002,0.647881-1.865875c1.917717-0.025909,3.317139-0.984795,3.550377-2.073219
						L75.441017,116.31794z M66.137466,122.978157c-0.621964,0-0.958862-0.233238-0.958862-0.67379
						c-0.025917-1.062515,0.958862-2.436028,5.234863-2.721092C69.921082,121.578735,68.521667,122.926308,66.137466,122.978157z"/>
					<path d="M89.072388,118.209763c-0.570137,0.647881-1.76223,1.580818-3.291229,1.606728
						c-1.839973,0.025909-3.0839-1.269852-3.109818-3.343063c-0.025917-1.192093,0.259148-2.410126,0.803368-3.472641
						c0.621964-1.243935,1.632652-2.254601,2.980247-3.057999c0.388725-0.233246,1.73632-0.958847,3.109818-0.984787
						c0.673798,0,1.269844,0.155479,1.710403,0.492393c1.114349,0.855209,0.881111,2.073212,0.518303,3.265305
						c-0.181412,0.647881-0.362808,1.321663-0.54422,1.969543c-0.285065,1.010696-0.932945,3.161636,0.829292,3.135727
						c1.943642-0.025909,1.865883-2.695183,2.41011-4.146423c0.025909-0.051819,0.181412,0.751549,0.259155,0.751549
						c0.207314,0.025902,0.80336,0.12957,0.829285,1.010696c0.025909,1.451241-1.814056,4.276001-4.379662,4.32782
						C89.823936,119.790581,89.253799,118.728065,89.072388,118.209763z M89.538864,111.134911
						c-0.596046-0.336914-1.943634,0.518303-2.358276,0.829269c-0.699715,0.544212-1.243927,1.269852-1.658569,2.047302
						c-0.362816,0.751549-0.570137,1.580826-0.54422,2.410126c0.025917,1.036606,0.388725,1.114365,0.777451,1.114365
						c1.08844-0.025909,2.254623-0.984787,2.798836-1.917725c0.414642-0.725639,0.725624-1.503098,0.984772-2.306458
						C89.668442,112.845306,90.160828,111.471817,89.538864,111.134911z"/>
				</g>
			</g>
		</g>
		<path style="fill:#1A1600;" d="M408,0H4C1.790861,0,0,1.790861,0,4v7c0,0.552285,0.447715,1,1,1h410c0.552277,0,1-0.447715,1-1V4
			C412,1.790861,410.209137,0,408,0z"/>
		<rect x="2" y="12" style="opacity:0.2;" width="408" height="2"/>
		<line style="fill:none;stroke:#655700;stroke-width:2;stroke-miterlimit:10;" x1="207" y1="303" x2="207" y2="295"/>
		<g style="opacity:0.8;">
			<path d="M207,304c2.205597,0,4,1.794434,4,4s-1.794403,4-4,4s-4-1.794434-4-4S204.794403,304,207,304 M207,302
				c-3.308594,0-6,2.691406-6,6s2.691406,6,6,6s6-2.691406,6-6S210.308594,302,207,302L207,302z"/>
		</g>
		<rect x="206" y="295" style="opacity:0.5;" width="2" height="2"/>
		<rect x="6" y="289" style="opacity:0.2;" width="400" height="2"/>
		<path d="M316.799988,156.362396l-0.259186-0.103195l2.608795-1.052795l0.26001,0.103195L316.799988,156.362396z
			 M320.280792,155.659195l-2.605591,1.053604l-0.565613-0.228806l2.608826-1.052795L320.280792,155.659195z M321.152802,156.012802
			l-2.608795,1.052795l-0.565613-0.227997l2.608795-1.053604L321.152802,156.012802z M322.024811,156.362396l-2.609619,1.056
			l-0.565582-0.227997l2.606384-1.056L322.024811,156.362396z M322.893616,156.716003l-2.606415,1.056l-0.565613-0.227997
			l2.609619-1.053604L322.893616,156.716003z M323.768799,157.068802l-2.609589,1.052795l-0.565613-0.227997l2.606415-1.052795
			L323.768799,157.068802z M324.637604,157.418396l-2.609589,1.056808l-0.565613-0.228012l2.609589-1.053589L324.637604,157.418396z
			 M325.349609,157.709595l-2.608795,1.052811l-0.406403-0.162399l2.609589-1.052811L325.349609,157.709595z M314.040802,156.255997
			l8.700012,3.516006l5.108795-2.065598l-8.700012-3.519211L314.040802,156.255997z"/>
		<path d="M345.287201,190.262405v1.912796l-0.415192,0.577606l-0.73761,1.028793l1.475189-0.603195l1.474426-0.6064
			l-0.73761-0.424805l-0.412018-0.237595v-1.912811c1.044006-0.646393,1.84082-2.240799,1.84082-3.768799
			c0-0.465591-0.075195-0.877594-0.209595-1.218399l-2.037598,0.837601l-0.4216,1.562408l0.911987-0.819214l-1.187195,3.225601
			l0.321594-1.984787l-0.646393,0.512787l0.440002-2.259995l-1.29361,0.531998
			c-0.134399,0.4496-0.208801,0.924805-0.208801,1.390396C343.446411,189.534393,344.246399,190.472,345.287201,190.262405z"/>
		<polygon points="337.065613,196.593597 340.740814,195.084 340.740814,188.5504 342.362396,187.884003 340.634399,185.647202 
			338.903198,183.406403 337.171997,187.062393 335.444,190.724792 337.065613,190.059204 		"/>
		<path d="M356.803192,190.909607l-22.812775,9.221588v-33.140793l22.812775-9.221603V190.909607z M311.028015,156.318405
			l11.115997-4.493607l21.934387,8.868805l-11.115997,4.493591L311.028015,156.318405z M331.934387,200.131195l-22.80957-9.221588
			v-33.140808l22.80957,9.221603V200.131195z M332.965607,147.452805l21.931183,8.86879l-9.444,3.819199l-21.934387-8.871994
			L332.965607,147.452805z M332.962402,144l-27.037598,10.931198v38.137604L332.962402,204L360,193.068802v-38.134399
			L332.962402,144z"/>
	</g>
</g>
<g id="Layer_2">
</g>
</svg>
