<?xml version="1.0" encoding="utf-8"?>
<!-- Generator: Adobe Illustrator 19.2.0, SVG Export Plug-In . SVG Version: 6.00 Build 0)  -->
<svg version="1.1" xmlns="http://www.w3.org/2000/svg" xmlns:xlink="http://www.w3.org/1999/xlink" x="0px" y="0px"
	 viewBox="0 0 160 210" style="enable-background:new 0 0 160 210;" xml:space="preserve">
<g id="Layer_1">
	<path style="fill:#4D2D00;" d="M6,9h148c3.313705,0,6,2.686292,6,6v189c0,3.313705-2.686295,6-6,6H6c-3.313709,0-6-2.686295-6-6V15
		C0,11.686292,2.686291,9,6,9z"/>
	<path style="fill:#804B00;" d="M6,8h148c3.313705,0,6,2.686292,6,6v189c0,3.313705-2.686295,6-6,6H6c-3.313709,0-6-2.686295-6-6V14
		C0,10.686292,2.686291,8,6,8z"/>
	<path style="fill:#734300;" d="M8,202V22c0-0.552284,0.447716-1,1-1h142c0.552292,0,1,0.447716,1,1v180c0,0.552292-0.447708,1-1,1
		H9C8.447716,203,8,202.552292,8,202z"/>
	<path style="fill:#FCFCFC;" d="M8,201V21c0-0.552284,0.447716-1,1-1h142c0.552292,0,1,0.447716,1,1v180c0,0.552292-0.447708,1-1,1
		H9C8.447716,202,8,201.552292,8,201z"/>
	<rect x="35" y="14" style="opacity:0.75;fill:#4D2D00;" width="90" height="1"/>
	<path style="opacity:0.5;fill:#CCCCCC;" d="M8,200V20c0-0.552284,0.447716-1,1-1h142c0.552292,0,1,0.447716,1,1v180
		c0,0.552292-0.447708,1-1,1H9C8.447716,201,8,200.552292,8,200z"/>
	<path style="fill:#FFFFFF;" d="M8,199V19c0-0.552284,0.447716-1,1-1h142c0.552292,0,1,0.447716,1,1v180c0,0.552292-0.447708,1-1,1
		H9C8.447716,200,8,199.552292,8,199z"/>
	<path style="opacity:0.5;fill:#CCCCCC;" d="M8,198V18c0-0.552284,0.447716-1,1-1h142c0.552292,0,1,0.447716,1,1v180
		c0,0.552292-0.447708,1-1,1H9C8.447716,199,8,198.552292,8,198z"/>
	<path style="fill:#FCFCFC;" d="M8,197V17c0-0.552284,0.447716-1,1-1h142c0.552292,0,1,0.447716,1,1v180c0,0.552292-0.447708,1-1,1
		H9C8.447716,198,8,197.552292,8,197z"/>
	<rect x="15" y="23" style="fill:#F2F2F2;" width="130" height="98"/>
	<path style="fill:#A6A6A6;" d="M145,23h-4v1h4V23L145,23z M137,23h-4v1h4V23L137,23z M129,23h-4v1h4V23L129,23z M121,23h-4v1h4V23
		L121,23z M113,23h-4v1h4V23L113,23z M105,23h-4v1h4V23L105,23z M97,23h-4v1h4V23L97,23z M89,23h-4v1h4V23L89,23z M81,23h-4v1h4V23
		L81,23z M73,23h-4v1h4V23L73,23z M65,23h-4v1h4V23L65,23z M57,23h-4v1h4V23L57,23z M49,23h-4v1h4V23L49,23z M41,23h-4v1h4V23L41,23
		z M33,23h-4v1h4V23L33,23z M25,23h-4v1h4V23L25,23z M17,23h-2v1l0,0c0,0.5,0,1,0,1h1v-1h1V23L17,23z M16,29h-1v4h1V29L16,29z
		 M16,37h-1v4h1V37L16,37z M16,45h-1v4h1V45L16,45z M16,53h-1v4h1V53L16,53z M16,61h-1v4h1V61L16,61z M16,69h-1v4h1V69L16,69z
		 M16,77h-1v4h1V77L16,77z M16,85h-1v4h1V85L16,85z M16,93h-1v4h1V93L16,93z M16,101h-1v4h1V101L16,101z M16,109h-1v4h1V109L16,109z
		 M16,117h-1v4h1V117L16,117z M23,120h-4v1h4V120L23,120z M31,120h-4v1h4V120L31,120z M39,120h-4v1h4V120L39,120z M47,120h-4v1h4
		V120L47,120z M55,120h-4v1h4V120L55,120z M63,120h-4v1h4V120L63,120z M71,120h-4v1h4V120L71,120z M79,120h-4v1h4V120L79,120z
		 M87,120h-4v1h4V120L87,120z M95,120h-4v1h4V120L95,120z M103,120h-4v1h4V120L103,120z M111,120h-4v1h4V120L111,120z M119,120h-4v1
		h4V120L119,120z M127,120h-4v1h4V120L127,120z M135,120h-4v1h4V120L135,120z M143,120h-4v1h4V120L143,120z M145,115h-1v4h1V115
		L145,115z M145,107h-1v4h1V107L145,107z M145,99h-1v4h1V99L145,99z M145,91h-1v4h1V91L145,91z M145,83h-1v4h1V83L145,83z M145,75
		h-1v4h1V75L145,75z M145,67h-1v4h1V67L145,67z M145,59h-1v4h1V59L145,59z M145,51h-1v4h1V51L145,51z M145,43h-1v4h1V43L145,43z
		 M145,35h-1v4h1V35L145,35z M145,27h-1v4h1V27L145,27z"/>
	<path style="opacity:0.1;fill:#A6A6A6;" d="M120.062988,16l-1.666504,5H40.603516l-1.666504-5h-7.378601l3.088074,9.265137
		C35.192383,26.900879,36.717285,28,38.441406,28h82.117188c1.724121,0,3.249023-1.099121,3.794922-2.735352L127.441589,16
		H120.062988z"/>
	<path style="fill:#A6A6A6;" d="M124.225128,11H115V7c0-1.656854-1.343147-3-3-3H90.999992C89.895432,4,89,3.104571,89,2.000004V2
		c0-1.104569-0.895432-2-2-2H71c-1.104568,0-2,0.895431-2,2v0.000004C69,3.104571,68.104568,4,67.000008,4H47
		c-1.656853,0-3,1.343146-3,3v4h-9.225159c-1.365089,0-2.32901,1.337369-1.897331,2.632407l3.666691,11.000077
		C36.816425,25.449152,37.580685,26,38.441528,26h82.116943c0.860878,0,1.625175-0.550875,1.897408-1.367579l3.666618-10.999975
		C126.554176,12.337387,125.59024,11,124.225128,11z M79,3c1.104614,0,2,0.895386,2,2c0,1.104553-0.895386,2-2,2
		c-1.104553,0-2-0.895447-2-2C77,3.895386,77.895447,3,79,3z M119.837708,23H39.162292l-3-9h86.675415L119.837708,23z"/>
	<path style="fill:#B3B3B3;" d="M81.221436,7C80.672302,7.609558,79.88501,8,79,8s-1.672302-0.390442-2.221436-1H44v2h32.027466
		C76.860229,9.620117,77.881897,10,79,10s2.139771-0.379883,2.972534-1H115V7H81.221436z"/>
	<path style="fill:#333333;" d="M22.350586,153.406738h7.012695v1.648926H24.22998v3.056641h4.465332v1.63916H24.22998v3.148438
		h5.263184v1.648926h-7.142578V153.406738z"/>
	<path style="fill:#333333;" d="M33.158691,160.520508l-2.768555-3.806641h2.163086l1.682129,2.460938l1.735352-2.460938h2.013672
		l-2.696289,3.710449l3.047363,4.124512H36.16748l-1.956055-2.769043l-1.956055,2.769043h-2.057129L33.158691,160.520508z"/>
	<path style="fill:#333333;" d="M39.151855,154.20459c0-0.624512,0.509277-1.134277,1.13916-1.134277
		c0.624512,0,1.134277,0.509766,1.134277,1.134277c0,0.629883-0.509766,1.13916-1.134277,1.13916
		C39.661133,155.34375,39.151855,154.834473,39.151855,154.20459z M39.377441,156.713867h1.816895v7.834961h-1.816895V156.713867z"
		/>
	<path style="fill:#333333;" d="M45.654785,163.22168c0.70166,0,1.398438-0.221191,1.398438-0.870117
		c0-1.552246-4.095215-0.480469-4.095215-3.383789c0-1.65332,1.321777-2.412598,2.91748-2.412598
		c1.057617,0,2.009277,0.336426,2.734863,0.90332l-0.682129,1.134766c-0.591309-0.375-1.331543-0.591309-1.937012-0.591309
		c-0.648926,0-1.254883,0.25-1.254883,0.84082c0,1.538086,4.124023,0.54834,4.124023,3.432129
		c0,1.663086-1.369629,2.432129-3.10498,2.432129c-1.292969,0-2.133789-0.432617-3.081055-1.153809l0.8125-1.095703
		C44.159668,162.918945,44.83252,163.22168,45.654785,163.22168z"/>
	<path style="fill:#333333;" d="M49.625488,156.713867H51v-2.408203l1.812012-0.336426v2.744629h1.913086v1.542969h-1.913086
		v3.133789c0,1.384277,0.639648,1.629395,1.70166,1.84082l-0.216309,1.475586c-1.624512,0-3.297363-0.716309-3.297363-2.77832
		v-3.671875h-1.374512V156.713867z"/>
	<path style="fill:#333333;" d="M55.881348,154.20459c0-0.624512,0.509277-1.134277,1.13916-1.134277
		c0.624512,0,1.134277,0.509766,1.134277,1.134277c0,0.629883-0.509766,1.13916-1.134277,1.13916
		C56.390625,155.34375,55.881348,154.834473,55.881348,154.20459z M56.106934,156.713867h1.816895v7.834961h-1.816895V156.713867z"
		/>
	<path style="fill:#333333;" d="M65.291992,164.548828v-4.662598c0-1.038574-0.571777-1.706543-1.619629-1.706543
		c-1.148926,0-1.855469,0.816895-1.855469,1.975586v4.393555h-1.82666v-7.834961h1.495117l0.153809,1.066895
		c0.591309-0.816895,1.523438-1.225586,2.576172-1.225586c1.90332,0,2.893555,1.307129,2.893555,3.22998v4.763672H65.291992z"/>
	<path style="fill:#333333;" d="M76.51416,164.154297C76.51416,166.625,74.851074,168,72.47168,168
		c-1.288086,0-2.41748-0.40918-3.316406-1.1875l0.845703-1.154297c0.639648,0.480469,1.471191,0.764648,2.316895,0.764648
		c1.360352,0,2.379395-0.725586,2.379395-2.513672v-0.5625c-0.572266,0.764648-1.538086,1.110352-2.504395,1.110352
		c-2.138672,0-3.54248-1.648438-3.54248-3.912598c0-2.475098,1.653809-3.989258,3.638672-3.989258
		c1.023926,0,2.009277,0.403809,2.557129,1.249512l0.148926-1.09082h1.519043V164.154297z M74.730957,160.510742
		c0-1.331055-0.773926-2.359863-2.110352-2.359863c-1.331055,0-2.148438,1.023926-2.148438,2.388672
		c0,1.370117,0.82666,2.345703,2.143555,2.345703C73.98584,162.885254,74.730957,161.818359,74.730957,160.510742z"/>
	<path style="fill:#333333;" d="M84.706055,164.548828h-1.860352v-11.14209h4.076172c2.47998,0,3.845215,1.547852,3.845215,3.585938
		c0,2.10498-1.461426,3.671875-3.831055,3.671875h-2.22998V164.548828z M86.681152,159.020996
		c1.403809,0,2.206543-0.759766,2.206543-2.004395c0-1.259277-0.82666-1.96582-2.206543-1.96582h-1.975098v3.970215H86.681152z"/>
	<path style="fill:#333333;" d="M92.210938,156.713867h1.495117l0.158203,1.196777l0.014648,0.004883
		c0.442383-0.932617,1.081543-1.360352,2.124512-1.360352c0.360352,0,0.70166,0.052734,1.033203,0.148926l-0.283203,1.677246
		c-0.283691-0.086426-0.552734-0.129395-0.841309-0.129395c-1.547852,0-1.88916,1.32666-1.88916,2.869141v3.427734h-1.812012
		V156.713867z"/>
	<path style="fill:#333333;" d="M97.442871,160.635742c0-2.432129,1.76416-4.080566,4.066406-4.080566
		c2.288086,0,4.056641,1.624512,4.056641,4.056641c0,2.437012-1.783203,4.095215-4.075684,4.095215
		C99.202148,164.707031,97.442871,163.062988,97.442871,160.635742z M103.72998,160.621582
		c0-1.441895-0.95166-2.460938-2.225586-2.460938c-1.273438,0-2.239746,1.01416-2.239746,2.470215
		c0,1.441895,0.95166,2.485352,2.225586,2.485352C102.754395,163.116211,103.72998,162.072754,103.72998,160.621582z"/>
	<path style="fill:#333333;" d="M112.966309,163.428223c-0.601074,0.851074-1.562012,1.278809-2.619629,1.278809
		c-2.071777,0-3.619141-1.629395-3.619141-4.076172c0-2.22998,1.307129-4.075684,3.619141-4.075684
		c0.961426,0,1.864746,0.331543,2.446289,1.09082v-4.416992l1.821777-0.336426v11.65625h-1.494629L112.966309,163.428223z
		 M112.851074,160.606934c0-1.40332-0.827148-2.446289-2.148926-2.446289c-1.292969,0-2.148438,0.994629-2.148438,2.470215
		c0,1.528809,0.913574,2.485352,2.177246,2.485352C112.153809,163.116211,112.851074,161.904785,112.851074,160.606934z"/>
	<path style="fill:#333333;" d="M123.63916,164.548828h-1.499512l-0.144531-1.038574
		c-0.59082,0.845215-1.504395,1.196777-2.508789,1.196777c-1.941895,0-2.898438-1.297852-2.898438-3.244629v-4.748535h1.821777
		v4.662109c0,1.052734,0.528809,1.696777,1.595703,1.696777c1.172852,0,1.812012-0.788086,1.812012-1.975586v-4.383301h1.821777
		V164.548828z"/>
	<path style="fill:#333333;" d="M132.149902,163.750488c-0.793457,0.601074-1.792969,0.956543-2.845703,0.956543
		c-2.047363,0-4.051758-1.345703-4.051758-4.027832c0-2.566895,1.835938-4.124023,4.075684-4.124023
		c0.980957,0,1.995117,0.302734,2.71582,0.850586l-0.76416,1.273926c-0.51416-0.336426-1.177734-0.538574-1.802246-0.538574
		c-1.384277,0-2.40332,1-2.40332,2.485352c0,1.47998,1.004395,2.489746,2.383789,2.489746
		c0.629883,0,1.302734-0.211914,1.816895-0.567383L132.149902,163.750488z"/>
	<path style="fill:#333333;" d="M132.707031,156.713867h1.374512v-2.408203l1.812012-0.336426v2.744629h1.913086v1.542969h-1.913086
		v3.133789c0,1.384277,0.639648,1.629395,1.70166,1.84082l-0.216309,1.475586c-1.624512,0-3.297363-0.716309-3.297363-2.77832
		v-3.671875h-1.374512V156.713867z"/>
	<path style="fill:#333333;" d="M30.247559,183.952148c-0.84082,0.485352-1.831055,0.754883-2.907715,0.754883
		c-3.258789,0-5.695801-2.456055-5.695801-5.734375c0-3.316406,2.494629-5.724609,5.714844-5.724609
		c3.220703,0,5.681641,2.413086,5.681641,5.710938c0,1.551758-0.54834,2.916992-1.466309,3.931641l0.730469,0.796875
		l-1.321777,1.077148L30.247559,183.952148z M31.112793,178.977539c0-2.354492-1.595703-4.061523-3.772949-4.061523
		c-2.182129,0-3.782715,1.707031-3.782715,4.061523c0,2.345703,1.59082,4.066406,3.782715,4.066406
		c0.629395,0,1.211426-0.143555,1.720703-0.40332l-1.864746-2.067383l1.273438-1.095703l1.869629,2.051758
		C30.829102,180.847656,31.112793,179.967773,31.112793,178.977539z"/>
	<path style="fill:#333333;" d="M41.661621,184.548828h-1.499512l-0.144531-1.039062
		c-0.59082,0.845703-1.504395,1.197266-2.508789,1.197266c-1.941895,0-2.898438-1.297852-2.898438-3.244141v-4.749023h1.821777
		v4.662109c0,1.052734,0.528809,1.696289,1.595703,1.696289c1.172852,0,1.812012-0.787109,1.812012-1.974609v-4.383789h1.821777
		V184.548828z"/>
	<path style="fill:#333333;" d="M47.307617,184.707031c-2.21582,0-4.032715-1.413086-4.032715-4.027344
		c0-2.542969,1.735352-4.125,3.921875-4.125c2.27832,0,3.696289,1.707031,3.696289,3.941406
		c0,0.25-0.019043,0.519531-0.038086,0.673828h-5.753418c0.129395,1.277344,1.018555,2.051758,2.321289,2.051758
		c0.778809,0,1.547852-0.27832,2.13916-0.725586l0.821777,1.128906C49.614746,184.302734,48.489746,184.707031,47.307617,184.707031
		z M49.119629,179.933594c-0.091309-1.023438-0.745117-1.878906-1.927246-1.878906c-1.105469,0-1.903809,0.75-2.066895,1.878906
		H49.119629z"/>
	<path style="fill:#333333;" d="M54.794922,183.22168c0.70166,0,1.398438-0.22168,1.398438-0.870117
		c0-1.552734-4.095215-0.480469-4.095215-3.383789c0-1.65332,1.321777-2.413086,2.91748-2.413086
		c1.057617,0,2.009277,0.336914,2.735352,0.904297l-0.682617,1.134766c-0.591309-0.375-1.331543-0.591797-1.937012-0.591797
		c-0.648926,0-1.254883,0.25-1.254883,0.84082c0,1.538086,4.124023,0.547852,4.124023,3.432617
		c0,1.662109-1.369629,2.431641-3.10498,2.431641c-1.292969,0-2.133789-0.432617-3.081055-1.154297l0.8125-1.095703
		C53.299805,182.918945,53.972656,183.22168,54.794922,183.22168z"/>
	<path style="fill:#333333;" d="M58.765625,176.713867h1.374512v-2.408203l1.812012-0.336914v2.745117h1.913086v1.542969h-1.913086
		v3.133789c0,1.384766,0.639648,1.628906,1.70166,1.84082l-0.216309,1.475586c-1.624512,0-3.297363-0.716797-3.297363-2.77832
		v-3.671875h-1.374512V176.713867z"/>
	<path style="fill:#333333;" d="M65.021484,174.205078c0-0.625,0.509277-1.134766,1.13916-1.134766
		c0.624512,0,1.134277,0.509766,1.134277,1.134766c0,0.628906-0.509766,1.138672-1.134277,1.138672
		C65.530762,175.34375,65.021484,174.833984,65.021484,174.205078z M65.24707,176.713867h1.816895v7.834961H65.24707V176.713867z"/>
	<path style="fill:#333333;" d="M68.673828,180.635742c0-2.432617,1.76416-4.081055,4.066406-4.081055
		c2.288086,0,4.056641,1.625,4.056641,4.056641c0,2.4375-1.783203,4.095703-4.075684,4.095703
		C70.433105,184.707031,68.673828,183.0625,68.673828,180.635742z M74.960938,180.621094
		c0-1.441406-0.95166-2.460938-2.225586-2.460938c-1.273438,0-2.239746,1.014648-2.239746,2.470703
		c0,1.441406,0.95166,2.485352,2.225586,2.485352C73.985352,183.116211,74.960938,182.072266,74.960938,180.621094z"/>
	<path style="fill:#333333;" d="M83.697266,184.548828v-4.662109c0-1.039062-0.571777-1.707031-1.619629-1.707031
		c-1.148926,0-1.855469,0.816406-1.855469,1.975586v4.393555h-1.82666v-7.834961h1.495117l0.153809,1.067383
		c0.591309-0.817383,1.523438-1.226562,2.576172-1.226562c1.90332,0,2.893555,1.307617,2.893555,3.230469v4.763672H83.697266z"/>
	<path style="fill:#333333;" d="M92.78418,184.548828v-4.662109c0-1.039062-0.571777-1.707031-1.619629-1.707031
		c-1.148926,0-1.855469,0.816406-1.855469,1.975586v4.393555h-1.82666v-7.834961h1.495117l0.153809,1.067383
		c0.591309-0.817383,1.523438-1.226562,2.576172-1.226562c1.90332,0,2.893555,1.307617,2.893555,3.230469v4.763672H92.78418z"/>
	<path style="fill:#333333;" d="M103.251465,184.702148c-0.990234,0-1.884277-0.350586-1.956055-1.163086
		c-0.528809,0.816406-1.538086,1.167969-2.509277,1.167969c-1.518555,0-2.79248-0.865234-2.79248-2.417969
		c0-1.52832,1.225586-2.571289,3.40332-2.571289c0.634277,0,1.27832,0.09082,1.749512,0.1875v-0.399414
		c0-1.052734-0.754883-1.451172-1.788086-1.451172c-0.788574,0-1.620117,0.230469-2.244629,0.572266l-0.552734-1.220703
		c0.865234-0.621094,2.062012-0.851562,3.109863-0.851562c2.095703,0,3.268066,0.917969,3.268066,2.753906v2.951172
		c0,0.615234,0.120117,0.914062,0.528809,1.134766L103.251465,184.702148z M99.59375,181.020508
		c-1.27832,0-1.850586,0.432617-1.850586,1.158203c0,0.78418,0.653809,1.086914,1.321777,1.086914
		c0.956543,0,2.081543-0.625,2.081543-1.582031v-0.495117C100.761719,181.107422,100.166016,181.020508,99.59375,181.020508z"/>
	<path style="fill:#333333;" d="M104.884766,174.205078c0-0.625,0.509277-1.134766,1.13916-1.134766
		c0.624512,0,1.134277,0.509766,1.134277,1.134766c0,0.628906-0.509766,1.138672-1.134277,1.138672
		C105.394043,175.34375,104.884766,174.833984,104.884766,174.205078z M105.110352,176.713867h1.816895v7.834961h-1.816895
		V176.713867z"/>
	<path style="fill:#333333;" d="M108.998535,176.713867h1.495117l0.158691,1.196289l0.01416,0.005859
		c0.442383-0.933594,1.081543-1.361328,2.124512-1.361328c0.360352,0,0.70166,0.052734,1.033203,0.149414l-0.283203,1.676758
		c-0.283691-0.085938-0.552734-0.128906-0.841309-0.128906c-1.547852,0-1.88916,1.326172-1.88916,2.869141v3.427734h-1.812012
		V176.713867z"/>
	<path style="fill:#333333;" d="M118.272949,184.707031c-2.21582,0-4.032715-1.413086-4.032715-4.027344
		c0-2.542969,1.735352-4.125,3.921875-4.125c2.27832,0,3.696289,1.707031,3.696289,3.941406
		c0,0.25-0.019043,0.519531-0.038086,0.673828h-5.753418c0.129395,1.277344,1.018555,2.051758,2.321289,2.051758
		c0.778809,0,1.547852-0.27832,2.13916-0.725586l0.821777,1.128906
		C120.580078,184.302734,119.455078,184.707031,118.272949,184.707031z M120.084961,179.933594
		c-0.091309-1.023438-0.745117-1.878906-1.927246-1.878906c-1.105469,0-1.903809,0.75-2.066895,1.878906H120.084961z"/>
	<path style="fill:#828282;" d="M79,4c0.760498,0,1.446899,0.292114,1.975647,0.758484C80.855103,3.769104,80.021851,3,79,3
		c-1.02179,0-1.855103,0.769104-1.975647,1.758484C77.553101,4.292114,78.239502,4,79,4z"/>
	<polygon style="fill:#8C8C8C;" points="113,12 46,12 44,11 115,11 	"/>
	<path style="fill:#333333;" d="M65.922836,139.057678c-0.04628,0-0.077133,0.030853-0.092552,0.061707
		c-0.354813,0.879318-1.064438,1.820343-1.666069,1.820343c-0.2314,0-0.33939-0.107971-0.354813-0.370239
		c0-0.401077,0.262253-0.879303,0.555351-1.388382c0.339386-0.601639,0.740479-1.295837,0.725052-1.990036
		c-0.015419-0.493652-0.293106-1.018158-0.802185-1.187836h-0.015419c-1.172417-0.354828-2.190578,0.524506-2.91563,1.311249
		c-0.015423,0.015427-0.046276,0.030853-0.06171,0.030853c-0.015423,0-0.030853,0-0.046276-0.015427
		c-0.04628-0.030838-0.015423-0.09256,0-0.13884c0.308533-0.910172,1.172417-2.869339,2.252277-4.24231
		c0.154266-0.385666-0.848461-0.431961-1.033585-0.385666c-0.647919,0.169693-1.033581,0.894745-1.326679,1.434677
		c-1.002731,1.959167-1.619793,4.088043-1.866615,6.263184c-0.030853,0.293121-0.06171,0.601654-0.06171,0.910172
		c0.015423,0.89476,0.617065,0.941025,0.802185,0.941025s0.339386-0.077133,0.354809-0.09256
		c0.030857-0.015411,0.04628-0.04628,0.04628-0.077133c0-2.082581,1.835766-4.612549,2.99276-4.627975
		c0.138844,0,0.2314,0.046295,0.2314,0.262253c0,0.323944-0.246822,0.786743-0.509075,1.280411
		c-0.354809,0.647903-0.755909,1.388397-0.740475,2.082581c0.015423,0.833054,0.524506,1.295837,1.403816,1.280426
		c1.434673-0.030853,2.65337-1.619797,2.637943-2.576233C66.401062,139.319946,66.215935,139.088547,65.922836,139.057678z"/>
	<path style="fill:#333333;" d="M24.147642,143.08403c-1.943752,0.030853-3.116173-0.894745-3.147024-2.468246
		c-0.030853-1.51181,1.095289-2.637939,2.668798-2.653366c0.755901-0.015427,1.203272,0.339371,1.218699,0.94101
		c0,0.215988-0.09256,0.370255-0.09256,0.385666c-0.015427,0.030853-0.046278,0.046295-0.077133,0.046295l0,0
		c-0.030855,0-0.061705-0.015427-0.077133-0.030853c-0.030855-0.030838-0.246826-0.215973-0.771328-0.200546
		c-0.910168,0.015427-1.465527,0.555359-1.450098,1.419235c0.015427,0.848465,0.694195,1.357544,1.835762,1.326691
		c1.450098-0.030853,2.529959-0.925598,2.499109-2.082596c-0.015429-1.002731-0.77133-1.388397-1.573515-1.804901
		c-0.817606-0.416519-1.743202-0.894745-1.774057-2.144302c-0.030855-1.388397,1.2187-2.421967,2.94648-2.437408
		c1.511803-0.030838,2.591663,0.725037,2.607092,1.83577c0.015427,1.126144-0.817608,1.218704-1.064434,1.218704
		c-0.077133,0-0.154266,0-0.246826-0.015427c-0.030855,0-0.061705-0.015427-0.077133-0.04628
		c-0.015427-0.030853-0.015427-0.061722,0-0.09256c0,0,0.107988-0.2314,0.107988-0.617065
		c-0.015427-0.678772-0.555357-1.095276-1.40382-1.079865c-0.894739,0.015427-1.434671,0.447372-1.434671,1.12616
		c0.015429,0.70961,0.632492,1.033569,1.357538,1.403809c0.879318,0.447372,1.974602,1.002731,1.990028,2.514542
		C28.251114,141.541382,26.492485,143.03775,24.147642,143.08403z"/>
	<path style="fill:#333333;" d="M38.586926,140.754608c-0.539928,0.694199-1.558086,1.280411-2.344841,1.295837
		c-0.925594,0.015427-1.4501-0.478226-1.465527-1.372971c-0.015427-0.617065,0.2314-1.203278,0.493652-1.820343
		c0.293106-0.694199,0.586208-1.419235,0.586208-2.298569c0-0.046295,0.030857-0.077133,0.077133-0.09256
		c0,0,0.262253-0.061707,0.447369-0.077133c0.524506-0.015427,0.848465,0.308533,0.863892,0.848465
		c0.015427,0.617065-0.277676,1.280411-0.570786,1.912903c-0.2314,0.524506-0.462799,1.033569-0.447369,1.403809
		c0,0.246826,0.09256,0.339386,0.354809,0.339386c1.141567-0.015427,2.622517-2.452835,2.69965-4.412003
		c0-0.046295,0.030857-0.077133,0.061707-0.09256c0.030857-0.015427,0.169693-0.061707,0.354809-0.061707
		c0.555359-0.015427,0.894741,0.308533,0.894741,0.863892c0.015427,1.141571-0.987301,4.226883-1.26498,5.198746
		c-0.2314,0.771332-0.478226,1.480942-1.095291,2.113434c-0.586208,0.601639-1.434669,0.925598-2.360264,0.941025
		c-1.033585,0.015411-1.789486-0.524521-1.804913-1.311264c-0.015427-0.539932,0.262253-1.018158,0.771328-1.357544
		c0.323959-0.215988,0.755901-0.323959,1.234127-0.339386c0.262253,0,0.539932,0.030853,0.817608,0.09256
		c0.215973,0.04628,0.601635,0.293106,0.293102,0.524506c-0.09256,0.061707-0.215969,0.09256-0.323956,0.09256
		c-0.462799,0.030838-1.372967,0.169693-1.372967,0.786743c0,0.2314,0.154266,0.401093,0.570786,0.401093
		c0.863888-0.015427,1.527229-0.617065,1.866619-1.372971C38.232117,142.204712,38.540649,140.800888,38.586926,140.754608z"/>
	<path style="fill:#333333;" d="M50.326557,142.436111c-1.357536,0.030838-2.144291-0.817627-2.175148-2.298569
		c-0.030853-1.928329,1.280407-4.10347,3.224155-4.134338c0.971874-0.015411,1.588936,0.509094,1.604362,1.388397
		c0.01543,0.678772-0.293102,2.329407-3.316715,3.177872c-0.030853,0-0.046276,0.030853-0.061703,0.046295
		c-0.01543,0.015411-0.01543,0.04628-0.01543,0.077133c0.10799,0.385651,0.401093,0.555344,0.879318,0.555344
		c1.388393-0.030838,2.607094-1.311264,2.992756-1.928314c0.01543-0.030853,0.04628-0.046295,0.077133-0.046295
		c0.215973,0.030853,0.431942,0.200562,0.431942,0.555359C53.998085,140.785477,52.301159,142.405258,50.326557,142.436111z
		 M51.190449,137.191071c-0.725052,0.015427-1.480953,1.018143-1.650646,2.206009c0,0.030838,0.015427,0.061707,0.030853,0.09256
		c0.01543,0.015411,0.04628,0.015411,0.061707,0.015411s0.015427,0,0.030857,0
		c1.218697-0.447372,1.974598-1.172409,1.959175-1.866608C51.622391,137.314484,51.483555,137.175644,51.190449,137.191071z"/>
	<path style="fill:#333333;" d="M67.141533,142.127579c-0.04628,0-0.077133,0-0.123413,0
		c-0.2314-0.030853-0.431938-0.077133-0.586205-0.262253c-0.138847-0.154266-0.215981-0.339371-0.215981-0.555344
		c0-0.524506,0.44738-0.987305,0.941017-1.002731c0.462799-0.015427,0.771332,0.277679,0.802185,0.755905
		c0.015427,0.323959-0.077133,0.617065-0.262253,0.817612C67.558052,142.035019,67.357506,142.127579,67.141533,142.127579z
		 M67.666039,139.73645c-0.370239,0-0.817604-0.169678-0.833038-1.095276c-0.030853-1.357544,0.509079-3.96463,1.20327-5.167908
		c0.293114-0.509094,0.647919-0.617065,0.894745-0.632492c0.18512,0,0.416519,0.077133,0.555351,0.246826
		c0.154266,0.200546,0.061707,0.401093,0,0.555359c-0.015427,0.030838-0.030853,0.04628-0.030853,0.077133
		c-0.246826,0.57077-0.44738,1.095276-0.632484,1.588943c-0.370247,1.049011-0.802185,2.869339-1.018158,4.041748
		c-0.015419,0.061722-0.046272,0.277695-0.046272,0.277695C67.758598,139.705612,67.712318,139.73645,67.666039,139.73645z"/>
	<path style="fill:#333333;" d="M32.154037,141.834473c-0.339386,0.385651-1.049006,0.94101-1.959177,0.956436
		c-1.095289,0.015427-1.835764-0.755905-1.851191-1.990036c-0.015427-0.709625,0.154266-1.434677,0.478226-2.067169
		c0.370237-0.740479,0.971872-1.342102,1.774057-1.820343c0.231398-0.13884,1.033583-0.57077,1.851191-0.586212
		c0.401093,0,0.755901,0.092545,1.018154,0.293106c0.663342,0.509079,0.524502,1.234131,0.308533,1.943741
		c-0.10799,0.385666-0.215973,0.786758-0.323959,1.172424c-0.169693,0.601639-0.555359,1.882034,0.493652,1.866608
		c1.156994-0.015427,1.110718-1.60437,1.434669-2.468246c0.015427-0.030853,0.10799,0.447372,0.154266,0.447372
		c0.123413,0.015427,0.478226,0.077133,0.493652,0.601639c0.015427,0.863892-1.079861,2.54538-2.60709,2.576233
		C32.601414,142.775497,32.262028,142.143005,32.154037,141.834473z M32.431721,137.623016
		c-0.354809-0.200546-1.156996,0.308533-1.403822,0.493652c-0.416519,0.323944-0.740473,0.755905-0.987299,1.218704
		c-0.215973,0.447372-0.339388,0.94101-0.323959,1.434677c0.015427,0.617065,0.231398,0.663345,0.462797,0.663345
		c0.647919-0.015427,1.342115-0.586212,1.666069-1.141571c0.246828-0.431946,0.431944-0.894745,0.58621-1.372971
		C32.508854,138.641174,32.801956,137.808136,32.431721,137.623016z"/>
	<path style="fill:#333333;" d="M48.645061,140.276382c-0.293102,0.617065-1.049004,0.987305-1.619789,0.987305
		c0.09256-0.431946,0.246826-0.910172,0.339386-1.342102c0.200542-0.941025,0.462795-1.866608,0.771328-2.776779
		c0.339386-1.064438,0.802185-2.098022,1.388393-3.054474c0.061707-0.107986,0.123409-0.200562,0.200542-0.308533
		c0.123413-0.401093-0.879314-0.370239-1.064434-0.308533c-0.431942,0.13884-0.709621,0.555344-0.910168,0.94101
		c-0.354809,0.694199-0.555355,1.527237-0.802181,2.2677c-0.370239,1.110718-1.141567,2.807632-2.85392,2.838501
		c-1.851189,0.030853,0.570786-2.853912,0.539932-4.766815c-0.01543-0.956436-1.049007-1.60437-1.851192-0.725052
		c-0.154266,0.18512-0.030853,0.246826,0.09256,0.2314c0.462799-0.061707,0.354813,0.509094,0.323959,0.663361
		c-0.262253,1.573502-2.529957,4.381149-0.555355,5.769547c0.833035,0.586212,2.992756,0.030838,3.548115-0.802185
		c-0.077133,0.462799-0.215973,0.941025-0.323959,1.403824c-3.239586,0.061707-4.674255,1.079865-4.658833,2.622513
		c0.015427,1.018158,1.033585,1.434692,1.851189,1.41925c1.388393-0.030853,2.85392-0.75592,3.424706-2.067169
		c0.154266-0.354828,0.277676-0.725052,0.385666-1.110718c1.141563-0.015411,1.974602-0.586212,2.113441-1.234116
		L48.645061,140.276382z M43.106915,144.241028c-0.370239,0-0.570786-0.13884-0.570786-0.401093
		c-0.015427-0.632477,0.570786-1.450104,3.116173-1.619781C45.359196,143.40799,44.526161,144.210159,43.106915,144.241028z"/>
	<path style="fill:#333333;" d="M56.759441,141.402527c-0.339386,0.385666-1.049004,0.941025-1.959179,0.956451
		c-1.095287,0.015411-1.835762-0.755905-1.851189-1.990036c-0.015427-0.709625,0.154266-1.434677,0.478226-2.067169
		c0.370235-0.740479,0.971874-1.342102,1.774055-1.820343c0.2314-0.13884,1.033585-0.57077,1.851192-0.586212
		c0.401093,0,0.755901,0.092545,1.018154,0.293106c0.663342,0.509079,0.524502,1.234131,0.308533,1.943741
		c-0.10799,0.385666-0.215973,0.786758-0.323959,1.172424c-0.169693,0.601639-0.555359,1.882034,0.493652,1.866608
		c1.156998-0.015427,1.11071-1.60437,1.434677-2.468246c0.015423-0.030853,0.107986,0.447372,0.154263,0.447372
		c0.123413,0.015411,0.478222,0.077133,0.493652,0.601639c0.015423,0.863876-1.079861,2.54538-2.60709,2.576233
		C57.206818,142.343552,56.867432,141.71106,56.759441,141.402527z M57.037125,137.191071
		c-0.354809-0.200562-1.156994,0.308533-1.40382,0.493637c-0.416519,0.323959-0.740475,0.755905-0.987301,1.218704
		c-0.215973,0.447372-0.339386,0.941025-0.323959,1.434677c0.015427,0.617065,0.2314,0.663361,0.462795,0.663361
		c0.647919-0.015427,1.342117-0.586227,1.666073-1.141571c0.246826-0.431961,0.431942-0.89476,0.586208-1.372971
		C57.114258,138.209213,57.40736,137.391617,57.037125,137.191071z"/>
	<path style="fill:#333333;" d="M108.171738,66.620499h-2.825455V51.828266c0-0.997253-0.831017-1.828266-1.828262-1.828266
		H61.052647c-0.997253,0-1.828266,0.831013-1.828266,1.828266V62.90012c-0.564468-0.011539-1.161972-0.019272-1.828266-0.019272
		c-3.573406,0-5.65097,0.166237-6.565102,0.498657C50,63.711922,50,64.210518,50,64.958405v24.515274
		c0,0.831009,0,1.246552,0.831013,1.578903c0.914131,0.33242,2.991695,0.498657,6.565102,0.498657
		c3.57341,0,5.650974-0.166237,6.565105-0.498657c0.831009-0.332352,0.831009-0.831009,0.831009-1.578903v-5.235497h12.880913
		v0.831078h0.083122v2.825447h-4.653786c-0.498596,0-0.914131,0.415543-0.914131,0.914139v0.914131h5.567917h9.22438h5.567848
		v-0.914131c-0.083122-0.498596-0.498596-0.914139-0.997253-0.914139h-4.653717V85.06926v-0.831078h10.138512v-5.567856H64.792229
		V65.041527c0-0.831009,0-1.329605-0.831009-1.662022c-0.544117-0.19788-1.511887-0.3354-2.95042-0.415539
		c0.012363,0,0.032272,0,0.041847,0V52.742397h42.465374v13.878101h-4.570663c-0.997192,0-1.82827,0.831009-1.82827,1.828262
		v21.274216c0,0.997253,0.831078,1.828262,1.82827,1.828262h9.22438c0.997253,0,1.828262-0.831009,1.828262-1.828262V68.448761
		C110,67.451508,109.168991,66.620499,108.171738,66.620499z M63.878098,88.808846H50.914131V65.70636h12.963966V88.808846z
		 M109.085869,88.808846H98.033226V69.362831h11.052643V88.808846z"/>
	<path style="fill:#333333;" d="M52,27h-6c-0.552284,0-1-0.447716-1-1v-3c0-0.552284,0.447716-1,1-1h6c0.552284,0,1,0.447716,1,1v3
		C53,26.552284,52.552284,27,52,27z"/>
	<path style="fill:#1F1F1F;" d="M52,25h-6c-0.552246,0-1-0.447754-1-1v2c0,0.552246,0.447754,1,1,1h6c0.552246,0,1-0.447754,1-1v-2
		C53,24.552246,52.552246,25,52,25z"/>
	<path style="fill:#333333;" d="M113,27h-6c-0.552284,0-1-0.447716-1-1v-3c0-0.552284,0.447716-1,1-1h6c0.552284,0,1,0.447716,1,1v3
		C114,26.552284,113.552284,27,113,27z"/>
	<path style="fill:#1F1F1F;" d="M113,25h-6c-0.552246,0-1-0.447754-1-1v2c0,0.552246,0.447754,1,1,1h6c0.552246,0,1-0.447754,1-1v-2
		C114,24.552246,113.552246,25,113,25z"/>
</g>
<g id="Layer_2">
</g>
</svg>
