<?xml version="1.0" encoding="utf-8"?>
<!-- Generator: Adobe Illustrator 19.2.0, SVG Export Plug-In . SVG Version: 6.00 Build 0)  -->
<svg version="1.1" xmlns="http://www.w3.org/2000/svg" xmlns:xlink="http://www.w3.org/1999/xlink" x="0px" y="0px"
	 viewBox="0 0 24 24" style="enable-background:new 0 0 24 24;" xml:space="preserve">
<g id="Layer_1">
	<g>
		<path d="M12-0.000244c-6.62738,0-12,5.372559-12,12s5.37262,12,12,12c6.627441,0,12-5.372559,12-12
			S18.627441-0.000244,12-0.000244z M20,16.999756c0,0.552246-0.447693,1-1,1H5c-0.552307,0-1-0.447754-1-1v-10
			c0-0.552307,0.447693-1,1-1h14c0.552307,0,1,0.447693,1,1V16.999756z"/>
		<path d="M17.679688,7.615723L12,12.349121L6.320312,7.615723C6.109375,7.440918,5.793945,7.466797,5.616211,7.679688
			C5.439453,7.89209,5.467773,8.20752,5.679688,8.384277L12,13.650879l6.320312-5.266602
			c0.211914-0.176758,0.240234-0.492188,0.063477-0.70459C18.206055,7.46582,17.890625,7.439453,17.679688,7.615723z"/>
	</g>
</g>
<g id="Layer_2">
</g>
</svg>
