<?xml version="1.0" encoding="utf-8"?>
<!-- Generator: Adobe Illustrator 19.2.0, SVG Export Plug-In . SVG Version: 6.00 Build 0)  -->
<svg version="1.1" xmlns="http://www.w3.org/2000/svg" xmlns:xlink="http://www.w3.org/1999/xlink" x="0px" y="0px"
	 viewBox="0 0 160 120" style="enable-background:new 0 0 160 120;" xml:space="preserve">
<g id="Layer_1">
	<g>
		<path d="M86.919106,60.055748c-1.225586-0.196941-2.459305,0.141602-3.391922,0.934246
			c-0.933434,0.79427-1.468918,1.951496-1.468918,3.175457v0.834961h1.666672v-0.834961
			c0-0.734051,0.321449-1.429039,0.882156-1.905926c0.568039-0.483398,1.295578-0.68034,2.043457-0.559898
			c1.182457,0.193687,2.074387,1.329754,2.074387,2.644855v1.489258c0,0.458984-0.373535,0.833336-0.833336,0.833336h-15
			c-0.459793,0-0.833328-0.374352-0.833328-0.833336v-1.489258c0-1.315102,0.891922-2.451168,2.074371-2.644855
			c0.747078-0.120441,1.475426,0.0765,2.043465,0.559898c0.560707,0.476887,0.882156,1.171875,0.882156,1.905926v0.834961h1.666672
			v-0.834961c0-1.223961-0.535484-2.381187-1.468918-3.175457c-0.932617-0.792645-2.167969-1.132812-3.39193-0.934246
			c-1.979156,0.322266-3.472488,2.16634-3.472488,4.288734v1.489258c0,1.378586,1.121414,2.5,2.5,2.5h4.166664v16.666672h1.666672
			V68.33374h3.333328v16.666672h1.666672V68.33374h4.166664c1.378578,0,2.5-1.121414,2.5-2.5v-1.489258
			C90.391602,62.222088,88.898277,60.378014,86.919106,60.055748z"/>
		<path d="M117.75,46.885071c-0.79834,0-1.448242-0.649902-1.448242-1.448242s0.649902-1.447754,1.448242-1.447754h3.396484
			c0.79834,0,1.447754,0.649414,1.447754,1.447754s-0.649414,1.448242-1.447754,1.448242H117.75z"/>
		<path d="M127.938965,47.316223c-0.79834,0-1.448242-0.649414-1.448242-1.447754s0.649902-1.448242,1.448242-1.448242h3.395996
			c0.79834,0,1.448242,0.649902,1.448242,1.448242s-0.649902,1.447754-1.448242,1.447754H127.938965z"/>
		<path d="M115.630859,27.585266c-0.560547,0-1.076172-0.328125-1.313477-0.835938
			c-0.336914-0.724121-0.022949-1.587402,0.700195-1.924316l3.078125-1.436523
			c0.192871-0.089844,0.397949-0.135254,0.609375-0.135254c0.561523,0,1.077637,0.328125,1.314941,0.835938
			c0.337402,0.723633,0.023438,1.586914-0.699707,1.924316l-3.077637,1.436035
			C116.048828,27.539368,115.842773,27.585266,115.630859,27.585266z"/>
		<path d="M124.865234,23.278625c-0.560547,0-1.076172-0.328125-1.313477-0.835938
			c-0.336914-0.723633-0.022461-1.586914,0.700684-1.924316l3.078125-1.43457
			c0.193359-0.089844,0.398438-0.135254,0.609863-0.135254c0.562012,0,1.077637,0.327637,1.313965,0.834961
			c0.337402,0.723633,0.022949,1.587402-0.700684,1.924805l-3.077637,1.43457
			C125.282227,23.232727,125.076172,23.278625,124.865234,23.278625z"/>
		<path d="M127.941406,70.280579c-0.211426,0-0.416992-0.045898-0.61084-0.135742l-3.078125-1.43457
			c-0.723145-0.337402-1.037598-1.200684-0.700684-1.924805c0.236816-0.506836,0.75293-0.834473,1.314453-0.834473
			c0.211426,0,0.416992,0.04541,0.610352,0.135254l3.077148,1.434082c0.350586,0.163574,0.616699,0.453613,0.749023,0.816895
			c0.132324,0.36377,0.115234,0.756836-0.04834,1.10791C129.017578,69.952454,128.502441,70.280579,127.941406,70.280579z"/>
		<path d="M118.707031,65.975891c-0.211426,0-0.41748-0.045898-0.612305-0.13623l-3.07666-1.436035
			c-0.723633-0.336914-1.037598-1.200195-0.700684-1.924805c0.237305-0.506836,0.753906-0.834961,1.31543-0.834961
			c0.211426,0,0.416504,0.04541,0.609863,0.135254l3.077637,1.436035c0.723145,0.337402,1.037109,1.200684,0.699707,1.924805
			C119.782715,65.647766,119.26709,65.975891,118.707031,65.975891z"/>
		<path d="M39.636719,46.885071c-0.79834,0-1.447754-0.649902-1.447754-1.448242s0.649414-1.447754,1.447754-1.447754h3.396484
			c0.79834,0,1.448242,0.649414,1.448242,1.447754s-0.649902,1.448242-1.448242,1.448242H39.636719z"/>
		<path d="M29.448242,47.316223C28.649902,47.316223,28,46.666809,28,45.868469s0.649902-1.448242,1.448242-1.448242h3.395996
			c0.79834,0,1.448242,0.649902,1.448242,1.448242s-0.649902,1.447754-1.448242,1.447754H29.448242z"/>
		<path d="M45.152344,27.585266c-0.211914,0-0.417969-0.045898-0.611816-0.135742l-3.077637-1.436035
			c-0.723145-0.337402-1.037109-1.200684-0.699707-1.924805c0.237305-0.507324,0.753418-0.835449,1.314941-0.835449
			c0.211426,0,0.416504,0.04541,0.609863,0.135254l3.077148,1.436523c0.723633,0.336914,1.037598,1.200195,0.700684,1.924805
			C46.228516,27.257141,45.712891,27.585266,45.152344,27.585266z"/>
		<path d="M35.917969,23.278625c-0.210938,0-0.416992-0.045898-0.61084-0.135742l-3.077637-1.43457
			c-0.723633-0.337402-1.038086-1.201172-0.700684-1.924805c0.236328-0.507324,0.751953-0.834961,1.313965-0.834961
			c0.211426,0,0.416504,0.04541,0.609863,0.135254l3.078125,1.43457c0.723145,0.337402,1.037598,1.200684,0.700684,1.924805
			C36.994141,22.9505,36.478516,23.278625,35.917969,23.278625z"/>
		<path d="M32.841797,70.280579c-0.561035,0-1.076172-0.328125-1.312988-0.835449
			c-0.163574-0.351074-0.180664-0.744141-0.04834-1.10791c0.132324-0.363281,0.398438-0.65332,0.749023-0.816895l3.077637-1.43457
			c0.192871-0.089355,0.398438-0.134766,0.609863-0.134766c0.561523,0,1.077637,0.327637,1.314453,0.834961
			c0.336914,0.723633,0.022461,1.586914-0.700684,1.924316l-3.078125,1.43457
			C33.258789,70.23468,33.053223,70.280579,32.841797,70.280579z"/>
		<path d="M42.076172,65.975891c-0.560059,0-1.075684-0.328125-1.312988-0.836426
			c-0.337402-0.723633-0.023438-1.586914,0.699707-1.924316l3.077637-1.436035
			c0.193359-0.089844,0.398438-0.135254,0.609863-0.135254c0.561523,0,1.078125,0.328125,1.31543,0.835449
			c0.336914,0.724121,0.022949,1.587402-0.700195,1.924316L42.6875,65.840149
			C42.493652,65.929993,42.287598,65.975891,42.076172,65.975891z"/>
		<g>
			<path d="M98.700806,67.108765c5.44342-6.050842,8.860596-14.98999,8.860596-22.938782
				C107.561401,29.164612,95.397034,17,80.391602,17s-27.1698,12.164612-27.1698,27.169983
				c0,7.948792,3.417236,16.887939,8.860657,22.938782c4.420776,4.914001,7.044434,12.009155,7.851624,18.53302v1.358521h-1.04248
				c-0.82843,0-1.5,0.67157-1.5,1.5s0.67157,1.5,1.5,1.5h23c0.82843,0,1.5-0.67157,1.5-1.5s-0.67157-1.5-1.5-1.5h-1.04248v-1.358521
				C91.656433,79.11792,94.279968,72.022766,98.700806,67.108765z M63.638672,65.495422
				c-5.112793-5.628418-8.416504-14.093262-8.416504-21.564941c0-13.746582,11.291016-24.930176,25.169434-24.930176
				s25.169434,11.183594,25.169434,24.930176c0,7.47168-3.303711,15.936523-8.416504,21.564941
				c-4.638184,5.105469-7.871094,12.617676-8.869629,21.504883H72.508301
				C71.509766,78.113098,68.276855,70.600891,63.638672,65.495422z"/>
			<path d="M70.202942,98.509949c0,2.813354,2.280762,5.094421,5.094299,5.094421h0.312012
				c0.701782,1.974243,2.567444,3.39624,4.782349,3.39624s4.080566-1.421997,4.782349-3.39624h0.312012
				c2.813538,0,5.094299-2.281067,5.094299-5.094421v-8.490601H70.202942V98.509949z M86.391602,98.000549h-12v-1h12V98.000549z
				 M87.391602,93.000488h-14v-1h14V93.000488z"/>
		</g>
		<path d="M70.391602,96.000305c-0.82843,0-1.5-0.67157-1.5-1.5s0.67157-1.5,1.5-1.5h20c0.82843,0,1.5,0.67157,1.5,1.5
			s-0.67157,1.5-1.5,1.5H70.391602z"/>
	</g>
</g>
<g id="Layer_2">
</g>
</svg>
