<?xml version="1.0" encoding="utf-8"?>
<!-- Generator: Adobe Illustrator 19.2.0, SVG Export Plug-In . SVG Version: 6.00 Build 0)  -->
<svg version="1.1" xmlns="http://www.w3.org/2000/svg" xmlns:xlink="http://www.w3.org/1999/xlink" x="0px" y="0px"
	 viewBox="0 0 160 44" style="enable-background:new 0 0 160 44;" xml:space="preserve">
<g id="Layer_1">
	<g>
		<path d="M147.952576,21.385986c-0.129028,0.002991-0.243042,0.080994-0.291016,0.200989
			c-1.161011,2.885986-3.484985,5.971008-5.505005,6.007019c-0.786011,0.013-1.143005-0.356018-1.156982-1.197021
			c-0.02301-1.315979,0.878967-2.901001,1.836975-4.583984c1.132019-1.992004,2.416016-4.249023,2.375977-6.528992
			c-0.027954-1.64502-0.987-3.347046-2.630981-3.890015c-0.024963-0.007996-0.049988-0.015991-0.075989-0.023987
			c-3.867004-1.17804-7.197998,1.75-9.606995,4.309998c-0.061035,0.065002-0.143005,0.098999-0.22699,0.101013
			c-0.058044,0.000977-0.117004-0.014038-0.169006-0.046021c-0.130005-0.077026-0.04303-0.291992,0.005005-0.434021
			c0.997009-2.982971,3.859009-9.45697,7.406006-13.987976c0.508972-1.27301-2.81604-1.416992-3.416016-1.263
			c-2.122986,0.544983-3.427002,2.930969-4.345032,4.731018c-3.282959,6.434998-5.328979,13.466003-6.161987,20.634949
			c-0.083008,0.715027-0.154968,1.436035-0.182007,2.157043c-0.528992,0.487976-1.203979,0.795959-2.106995,0.812012
			c-3.453979,0.059998-2.135986-4.133057-1.60199-6.127014c0.346985-1.296021,0.690979-2.592041,1.059021-3.882019
			c0.665955-2.338989,1.133972-4.760986-1.040039-6.421021c-0.877991-0.670959-2.005981-0.998962-3.351013-0.974976
			c-2.695984,0.046997-5.36499,1.481018-6.117981,1.919983c-2.638977,1.536011-4.597961,3.548035-5.82196,5.979004
			c-0.844055,1.67804-1.351013,3.519043-1.501038,5.390015c-1.891968,2.005005-4.932007,4.255981-8.253967,4.314026
			c-1.563049,0.026978-2.503052-0.568054-2.874023-1.821045c-0.023987-0.083008-0.013977-0.170959,0.026978-0.245972
			c0.041016-0.075012,0.111023-0.130005,0.194031-0.153015c9.971985-2.796021,10.958984-8.249023,10.919983-10.463013
			c-0.049988-2.865967-2.078003-4.610962-5.291992-4.554993c-6.382019,0.112-10.705994,7.26001-10.596008,13.606018
			c0.014038,0.77002,0.096985,1.47998,0.234009,2.140991c-1.164001,0.97998-2.694031,1.541016-3.973022,1.564026
			c0.311035-1.423035,0.809021-2.987,1.112-4.406006c0.666016-3.114014,1.535034-6.136047,2.525024-9.161011
			c1.140991-3.48999,2.664978-6.906982,4.593994-10.036987c0.208984-0.33905,0.424011-0.675049,0.645996-1.006042
			c0.414001-1.307007-2.911987-1.205994-3.5-1.007996c-1.421997,0.478027-2.333008,1.820007-2.992004,3.091003
			c-1.190979,2.299011-1.820007,5.048035-2.619995,7.486023c-1.195984,3.643005-3.757996,9.240967-9.406982,9.339966
			c-6.119019,0.106018,1.869995-9.408997,1.76001-15.709961c-0.054993-3.161987-3.440002-5.308044-6.100037-2.363037
			c-0.531006,0.588013-0.099976,0.812012,0.29303,0.757996c1.536011-0.207947,1.169983,1.661011,1.079956,2.205017
			c-0.848999,5.18103-8.307983,14.41803-1.84198,18.981995c2.744019,1.937988,9.869019,0.108032,11.661987-2.653992
			c-0.268982,1.536011-0.722961,3.085999-1.07196,4.608032c-10.692993,0.186951-15.407043,3.53595-15.317993,8.613953
			c0.05896,3.375,3.393005,4.731018,6.076965,4.684021c4.574036-0.080017,9.390991-2.466003,11.281006-6.792969
			c0.517029-1.184021,0.923035-2.405029,1.27301-3.643005c2.367981-0.042053,4.328003-0.795044,5.578003-1.891052
			c1.200989,1.828003,3.201965,2.800049,5.873962,2.754028c3.641052-0.064026,7.003052-1.77002,9.239014-3.812012
			c0.924011,2.265991,2.893005,3.600037,5.515015,3.554016c3.002014-0.052002,5.328979-1.849976,6.435974-3.127991
			c0.332031,1.023987,1.460999,3.112,4.157043,3.063965c1.677979-0.028992,3.188965-0.667969,4.463989-1.604004
			c0.648987,0.848999,1.61499,0.932007,2.007996,0.926025c0.625977-0.010986,1.106995-0.27301,1.158997-0.302002
			c0.098999-0.055969,0.161011-0.163025,0.161011-0.276978c0.005981-6.852051,6.052979-15.199036,9.846985-15.265015
			c0.476013-0.009033,0.773987,0.13501,0.786987,0.878967c0.018005,1.069031-0.813965,2.607056-1.697998,4.239014
			c-1.159973,2.143005-2.474976,4.570007-2.434998,6.872009c0.048035,2.721008,1.723999,4.252991,4.598999,4.203003
			c4.71405-0.083008,8.759033-5.34198,8.704041-8.478027C149.539551,22.244995,148.938538,21.482971,147.952576,21.385986z
			 M72.812561,38.442993c-1.244019,0.021973-1.888-0.436035-1.903015-1.301025
			c-0.036011-2.067993,1.903992-4.766968,10.268982-5.323975C80.266541,35.703003,77.499573,38.360962,72.812561,38.442993z
			 M94.043518,22.487c0.561035-3.892029,3.045044-7.215027,5.425049-7.257019c0.967957-0.017029,1.425964,0.439026,1.44397,1.434021
			c0.040039,2.307007-2.427979,4.670959-6.440979,6.169006c-0.033997,0.011963-0.070007,0.018982-0.106018,0.019958
			c-0.073975,0.001038-0.146973-0.02301-0.205994-0.070984C94.071533,22.710999,94.027527,22.598999,94.043518,22.487z
			 M118.698547,19.488953c-0.481995,1.561035-1.117004,3.081055-1.922974,4.502014
			c-1.05304,1.858032-3.333008,3.743042-5.484009,3.781006c-0.76001,0.013-1.505005-0.143005-1.541016-2.164001
			c-0.028015-1.632019,0.343994-3.263,1.075989-4.716003c0.778015-1.542969,1.856018-2.95697,3.238037-4.007996
			c0.846985-0.643982,3.452942-2.294006,4.645996-1.649963C119.908569,15.880005,118.973572,18.598999,118.698547,19.488953z"/>
		<path d="M17.214539,14.927002c-2.383972-1.217041-4.442017-2.267029-4.482971-4.609009
			c-0.039001-2.221008,1.765991-3.632996,4.710999-3.684021c2.820007-0.049988,4.595947,1.315002,4.634949,3.562012
			c0.022034,1.262024-0.330994,2.038025-0.334961,2.046021c-0.044006,0.09198-0.041016,0.199951,0.007019,0.289978
			c0.04895,0.090027,0.138,0.151001,0.238953,0.164978c0.270996,0.036011,0.538025,0.052002,0.795044,0.048035
			c0.838989-0.015015,3.570984-0.350037,3.505981-4.038025c-0.062988-3.640015-3.596985-6.119995-8.593018-6.03302
			c-5.713013,0.100037-9.802002,3.485046-9.721985,8.051025c0.072021,4.10498,3.127014,5.677979,5.823975,7.067017
			c2.623047,1.349976,5.101013,2.625,5.158997,5.922974c0.06604,3.828003-3.481995,6.777039-8.253967,6.859985
			c-3.723999,0.065002-5.976013-1.573975-6.025024-4.386963c-0.049988-2.843994,1.780029-4.643982,4.773987-4.695984
			c1.697998-0.030029,2.446045,0.591003,2.536011,0.670959c0.058044,0.05603,0.137024,0.088989,0.252991,0.087036
			c0.005005,0,0.01001-0.001038,0.015015-0.001038c0.098999-0.013977,0.184021-0.072998,0.233032-0.159973
			c0.013-0.02301,0.315979-0.570007,0.303955-1.257996c-0.033997-1.971985-1.534973-3.122986-4.013-3.080017
			c-5.17395,0.090027-8.867004,3.775024-8.778992,8.762024c0.091003,5.211975,3.967041,8.256958,10.368042,8.144958
			c7.764954-0.134949,13.534973-5.066956,13.422974-11.471985C23.706543,18.237976,20.106567,16.401978,17.214539,14.927002z"/>
		<path d="M61.450562,12.422974c-0.571045,0.01001-1.059998,0.16803-1.149048,0.197998
			c-0.125,0.044983-0.208984,0.158997-0.212952,0.291016c-0.234009,6.453003-5.13501,14.464966-8.889038,14.529968
			c-0.828003,0.015015-1.141968-0.287964-1.156006-1.11499c-0.021973-1.231995,0.713013-2.882996,1.493042-4.632996
			c0.938965-2.110962,1.909973-4.292969,1.875-6.302979c-0.031006-1.77002-1.091003-2.807983-2.835022-2.778015
			c-0.643005,0.010986-1.477966,0.234985-1.489014,0.237976c-0.139954,0.038025-0.237,0.165039-0.237,0.309021
			c0.009033,2.874023-0.971985,5.252991-1.919983,7.554016c-0.843018,2.046021-1.638977,3.97699-1.603027,6.018982
			c0.008057,0.489014,0.079041,0.92804,0.177002,1.34198c-0.588989,1.005005-1.44696,1.700012-2.825989,1.72406
			c-3.453979,0.060974-2.135986-4.132019-1.60199-6.127014c0.346985-1.296021,0.692017-2.592041,1.059021-3.882019
			c0.665955-2.338013,1.133972-4.760986-1.039001-6.421021c-0.879028-0.669983-2.007019-0.997986-3.35199-0.974976
			c-2.696045,0.046997-5.364014,1.481995-6.118042,1.919983c-2.638977,1.536011-4.597961,3.548035-5.820984,5.979004
			c-1.057007,2.101013-1.594971,4.455017-1.552979,6.807007c0.070007,4.049988,2.462952,6.625977,6.094971,6.562012
			c3.002991-0.052002,5.328979-1.849976,6.437012-3.127991c0.33197,1.024963,1.460999,3.112,4.156006,3.065002
			c2.487976-0.044006,4.619019-1.415039,6.136963-3.134033c0.788025,0.531006,1.817017,0.812012,3.096008,0.789001
			c2.625-0.045959,5.973022-1.942993,7.747009-4.252991c-0.148987,0.147034-1.140991,4.737-2.305969,7.346985
			c-1.110046,2.485046-3.309021,4.453003-6.140991,4.502014c-1.381042,0.023987-1.890015-0.526001-1.904053-1.301025
			c-0.034973-2.05896,2.984009-2.480957,4.503052-2.606995c0.375977-0.030945,0.766968-0.09198,1.06897-0.316956
			c1.007996-0.75-0.22699-1.536011-0.953979-1.702026c-0.882019-0.201965-1.809998-0.300964-2.684021-0.284973
			c-1.559021,0.026978-2.95697,0.407959-4.041016,1.102966c-1.674988,1.074036-2.578979,2.655029-2.547974,4.452026
			c0.044983,2.550964,2.541016,4.359985,5.934998,4.300964c3.054993-0.053955,5.844971-1.113953,7.771973-3.108948
			c2.024048-2.097046,2.862-4.454041,3.603027-6.981018c0.940002-3.210022,4.249023-13.372986,4.184021-17.125
			C64.376526,13.458984,63.270569,12.390991,61.450562,12.422974z M37.675537,20.902954
			c-0.481018,1.561035-1.117004,3.081055-1.922974,4.503052c-1.052002,1.856995-3.333008,3.742981-5.483032,3.779968
			c-0.760986,0.013977-1.505981-0.143005-1.541016-2.164001c-0.028992-1.630981,0.343018-3.263,1.075012-4.714966
			c0.778015-1.544006,1.856018-2.958008,3.238037-4.009033c0.846985-0.643005,3.453003-2.294006,4.645996-1.649963
			C38.885559,17.294006,37.950562,20.013,37.675537,20.902954z"/>
		<path d="M152.024536,25.505005c-1.658997,0.028992-3.110962,1.57196-3.107971,3.300964
			c0.000977,0.68103,0.242004,1.307007,0.695007,1.811035c0.526001,0.58197,1.156982,0.760986,1.945007,0.849976
			c0.145996,0.017029,0.286987,0.023987,0.422974,0.021973c0.726013-0.013,1.359985-0.289001,1.833008-0.799988
			c0.597961-0.644958,0.904968-1.626953,0.84198-2.69397C154.562561,26.432007,153.554565,25.477966,152.024536,25.505005z"/>
		<path d="M159.718567,1.789978c-0.44104-0.59198-1.231018-0.846008-1.819031-0.835999
			c-0.807983,0.013977-1.976013,0.38501-2.94696,2.067017c-2.286011,3.960999-4.032043,12.562012-3.953003,17.041992
			c0.052002,3.003967,1.511963,3.609009,2.727966,3.588013c0.156006-0.002991,0.286987-0.117004,0.309998-0.275024
			c0,0,0.11499-0.697021,0.153992-0.921021c0.689026-3.901978,2.091003-9.901978,3.333008-13.335999
			c0.588989-1.632996,1.265015-3.35199,2.065002-5.255981c0.036987-0.088989,0.077026-0.177002,0.116028-0.262024
			C159.936523,3.096985,160.225525,2.469971,159.718567,1.789978z"/>
	</g>
</g>
<g id="Layer_2">
</g>
</svg>
