<?xml version="1.0" encoding="utf-8"?>
<!-- Generator: Adobe Illustrator 19.2.0, SVG Export Plug-In . SVG Version: 6.00 Build 0)  -->
<svg version="1.1" xmlns="http://www.w3.org/2000/svg" xmlns:xlink="http://www.w3.org/1999/xlink" x="0px" y="0px"
	 viewBox="0 0 48 44" style="enable-background:new 0 0 48 44;" xml:space="preserve">
<g id="Layer_1">
	<g>
		<g>
			<g>
				<rect x="16" y="15" width="6" height="2"/>
				<rect x="16" y="23" width="6" height="2"/>
				<rect x="16" y="19" width="6" height="2"/>
				<rect x="6" y="27" width="16" height="2"/>
				<rect x="26" y="15" width="16" height="2"/>
				<rect x="26" y="23" width="16" height="2"/>
				<rect x="26" y="19" width="16" height="2"/>
				<rect x="26" y="27" width="16" height="2"/>
				<rect x="6" y="31" width="16" height="2"/>
				<rect x="26" y="31" width="16" height="2"/>
			</g>
		</g>
	</g>
	<path d="M46,4H2C0.895431,4,0,4.895431,0,6v31c0,1.104568,0.895431,2,2,2h44c1.104568,0,2-0.895432,2-2V6
		C48,4.895431,47.104568,4,46,4z M14.5,6C15.32843,6,16,6.67157,16,7.5S15.32843,9,14.5,9S13,8.32843,13,7.5S13.67157,6,14.5,6z
		 M9.5,6C10.32843,6,11,6.67157,11,7.5S10.32843,9,9.5,9S8,8.32843,8,7.5S8.67157,6,9.5,6z M4.5,6C5.32843,6,6,6.67157,6,7.5
		S5.32843,9,4.5,9S3,8.32843,3,7.5S3.67157,6,4.5,6z M46,37H2V11h44V37z"/>
	<g>
		<rect x="6" y="15" width="8" height="10"/>
	</g>
</g>
<g id="Layer_2">
</g>
</svg>
