<?xml version="1.0" encoding="utf-8"?>
<!-- Generator: Adobe Illustrator 19.2.0, SVG Export Plug-In . SVG Version: 6.00 Build 0)  -->
<svg version="1.1" xmlns="http://www.w3.org/2000/svg" xmlns:xlink="http://www.w3.org/1999/xlink" x="0px" y="0px"
	 viewBox="0 0 60 60" style="enable-background:new 0 0 60 60;" xml:space="preserve">
<g id="Layer_1">
	<path d="M30,4.000031c14.336456,0,26,11.664215,26,26.001495c0,14.335602-11.663544,25.998505-26,25.998505
		S4,44.337128,4,30.001526C4,15.664246,15.663544,4.000031,30,4.000031 M30,0.000031c-16.569,0-30,13.432495-30,30.001495
		c0,16.567505,13.431,29.998505,30,29.998505s30-13.431,30-29.998505C60,13.432526,46.569,0.000031,30,0.000031L30,0.000031z"/>
	<g>
		<g>
			<path d="M19.627487,13.133429c-0.76799-0.766479-2.011505-0.767944-2.779495,0l-3.521988,3.52652
				c-0.76799,0.770966-0.76799,2.014435,0,2.781006l2.776474,2.777985l6.306015-6.304504L19.627487,13.133429z"/>
			<path d="M40.340973,35.351448L23.798996,17.303473l-6.306015,6.305969l16.542023,18.046511l10.763992,4.459534
				L40.340973,35.351448z M39.069763,36.720436l2.670273,6.243164l-6.318375-2.707855L39.069763,36.720436z"/>
		</g>
	</g>
</g>
<g id="Layer_2">
</g>
</svg>
