<?xml version="1.0" encoding="utf-8"?>
<!-- Generator: Adobe Illustrator 19.2.0, SVG Export Plug-In . SVG Version: 6.00 Build 0)  -->
<svg version="1.1" xmlns="http://www.w3.org/2000/svg" xmlns:xlink="http://www.w3.org/1999/xlink" x="0px" y="0px"
	 viewBox="0 0 60 60" style="enable-background:new 0 0 60 60;" xml:space="preserve">
<g id="Layer_1">
	<g>
		<path style="fill-rule:evenodd;clip-rule:evenodd;" d="M32.25,46.75h-0.137787c-0.309906,0.871948-1.133972,1.5-2.112213,1.5
			s-1.802216-0.628052-2.112213-1.5H27.75c-1.242645,0-2.25-1.007446-2.25-2.25h9C34.5,45.742554,33.492645,46.75,32.25,46.75z
			 M34.5,43h-9c-0.414185,0-0.75-0.335815-0.75-0.75c0-0.414276,0.335815-0.75,0.75-0.75h9c0.414185,0,0.75,0.335724,0.75,0.75
			C35.25,42.664185,34.914185,43,34.5,43z M35.25,40h-10.5C24.335815,40,24,39.664185,24,39.25c0-0.414276,0.335815-0.75,0.75-0.75
			h10.5c0.414185,0,0.75,0.335724,0.75,0.75C36,39.664185,35.664185,40,35.25,40z"/>
	</g>
	<path d="M30,4.000031c14.336456,0,26,11.664215,26,26.001465c0,14.335632-11.663544,25.998535-26,25.998535
		S4,44.337128,4,30.001495C4,15.664246,15.663544,4.000031,30,4.000031 M30,0.000031c-16.569031,0-30,13.43251-30,30.001465
		C0,46.56897,13.430969,60.000031,30,60.000031S60,46.56897,60,30.001495C60,13.432541,46.569031,0.000031,30,0.000031L30,0.000031z
		"/>
	<path style="fill-rule:evenodd;clip-rule:evenodd;" d="M37.29538,30.505121C35.579498,32.022213,35.279205,34.381008,34.804504,37
		h-9.608368c-0.474701-2.622108-0.833954-4.916321-2.491516-6.494879C21,28.881758,18,26.05254,18,21.675676
		C18,15.227473,23.372589,10,30,10s12,5.227473,12,11.675676C42,26.05254,38.718731,29.246622,37.29538,30.505121z"/>
	<path style="opacity:0.5;fill:#FFFFFF;" d="M32.733215,28.02655c-0.588257-0.094543-1.180481,0.067932-1.628113,0.448425
		c-0.448059,0.381226-0.705078,0.936707-0.705078,1.524231v0.400757h0.799988v-0.400757
		c0-0.352356,0.154297-0.685974,0.423401-0.914856c0.272705-0.232056,0.621887-0.326538,0.980896-0.268738
		c0.567566,0.092957,0.995728,0.638245,0.995728,1.269531v0.714844c0,0.220276-0.179321,0.400024-0.400024,0.400024h-6.400024
		c-0.220703,0-0.400024-0.179749-0.400024-0.400024v-0.714844c0-0.631287,0.428162-1.176575,0.995728-1.269531
		c0.358582-0.0578,0.708191,0.036682,0.980896,0.268738c0.269104,0.228882,0.423401,0.5625,0.423401,0.914856v0.400757h0.799988
		v-0.400757c0-0.587524-0.257019-1.143005-0.705078-1.524231c-0.447632-0.380493-1.040588-0.543762-1.628113-0.448425
		c-0.950012,0.154663-1.666809,1.039856-1.666809,2.058594v0.714844C25.599976,31.461731,26.138245,32,26.799988,32H28v5h1v-5h2v5h1
		v-5h1.200012c0.661743,0,1.200012-0.538269,1.200012-1.200012v-0.714844
		C34.400024,29.066406,33.683228,28.181213,32.733215,28.02655z"/>
</g>
<g id="Layer_2">
</g>
</svg>
