<?xml version="1.0" encoding="utf-8"?>
<!-- Generator: Adobe Illustrator 19.2.0, SVG Export Plug-In . SVG Version: 6.00 Build 0)  -->
<svg version="1.1" xmlns="http://www.w3.org/2000/svg" xmlns:xlink="http://www.w3.org/1999/xlink" x="0px" y="0px"
	 viewBox="0 0 36 36" style="enable-background:new 0 0 36 36;" xml:space="preserve">
<g id="Layer_1">
	<g>
		<g>
			<path style="fill:#1A1A1A;" d="M19.650221,15.516907V15.47926c-0.007874,0.012121-0.017836,0.025671-0.02549,0.037646H19.650221z
				"/>
		</g>
		<g>
			<g>
				<path d="M13.656372,25.442139H9.79812V13.833142h3.858252V25.442139z M11.727429,12.248731h-0.025195
					c-1.294886,0-2.132227-0.8922-2.132227-2.006104c0-1.13877,0.86283-2.005774,2.18291-2.005774
					c1.319752,0,2.132227,0.867004,2.157422,2.005774C13.910339,11.356531,13.072669,12.248731,11.727429,12.248731z
					 M27.570007,25.442139h-3.858252v-6.210571c0-1.560278-0.558216-2.625219-1.954762-2.625219
					c-1.065819,0-1.700867,0.718065-1.979626,1.411486c-0.10199,0.247597-0.127148,0.594435-0.127148,0.941309v6.482996h-3.858582
					c0,0,0.050647-10.519885,0-11.608996h3.858582v1.646118c0.512146-0.791162,1.427343-1.918506,3.477501-1.918506
					c2.538832,0,4.442286,1.659228,4.442286,5.224951V25.442139z"/>
			</g>
		</g>
	</g>
</g>
<g id="Layer_2">
</g>
</svg>
