<?xml version="1.0" encoding="utf-8"?>
<!-- Generator: Adobe Illustrator 19.2.0, SVG Export Plug-In . SVG Version: 6.00 Build 0)  -->
<svg version="1.1" xmlns="http://www.w3.org/2000/svg" xmlns:xlink="http://www.w3.org/1999/xlink" x="0px" y="0px"
	 viewBox="0 0 36 36" style="enable-background:new 0 0 36 36;" xml:space="preserve">
<g id="Layer_1">
	<g>
		<path d="M14.53082,28.070351c0.541561-0.843243,0.915592-1.742901,1.171412-2.716028
			c0.098212-0.373652,0.394042-1.52821,0.886289-3.466095c0.219179,0.426394,0.619209,0.797682,1.198887,1.109076
			c0.580883,0.311396,1.204878,0.467093,1.873188,0.467093c1.324646,0,2.506765-0.376072,3.547556-1.12343
			c1.039593-0.752144,1.84444-1.78219,2.414543-3.097229c0.568903-1.315041,0.853951-2.793041,0.853951-4.433829
			c0-1.250421-0.325769-2.421754-0.977312-3.516419c-0.651545-1.094724-1.596521-1.988153-2.833735-2.678041
			c-1.237213-0.689887-2.633718-1.034831-4.188322-1.034831c-1.149776,0-2.222912,0.158118-3.219388,0.476718
			c-0.996476,0.318542-1.842046,0.740153-2.5379,1.264717c-0.694664,0.524621-1.292306,1.130635-1.789351,1.815739
			c-0.499438,0.682681-0.865926,1.391706-1.100676,2.127075c-0.235946,0.733006-0.353316,1.468374-0.353316,2.201379
			c0,1.137784,0.219178,2.141429,0.656331,3.003789c0.438356,0.867144,1.079116,1.475521,1.922295,1.825249
			c0.328161,0.129354,0.53656,0.021561,0.623992-0.330532c0.021559-0.076666,0.065873-0.244354,0.131746-0.507847
			c0.065873-0.263491,0.108991-0.426336,0.131746-0.493435c0.064677-0.251501,0.004791-0.486229-0.180852-0.704241
			c-0.559323-0.670691-0.838379-1.494717-0.838379-2.481588c0-1.652836,0.572495-3.07567,1.716288-4.263778
			c1.144989-1.188107,2.642098-1.782189,4.492532-1.782189c1.654011,0,2.942722,0.450317,3.868536,1.348589
			c0.92462,0.898272,1.388123,2.062456,1.388123,3.499644c0,1.858857-0.374876,3.442174-1.125826,4.745282
			c-0.749754,1.303049-1.710304,1.954603-2.881643,1.954603c-0.66831,0-1.204874-0.237148-1.609697-0.71381
			c-0.40601-0.476662-0.531769-1.049185-0.378464-1.717455c0.087425-0.383278,0.232351-0.895908,0.435957-1.535473
			c0.202408-0.639563,0.366493-1.204882,0.49225-1.691111c0.125759-0.486288,0.189236-0.900693,0.189236-1.240851
			c0-0.548544-0.148514-1.001225-0.444344-1.362943c-0.294636-0.361718-0.717421-0.541338-1.264761-0.541338
			c-0.679092,0-1.25398,0.311395-1.724674,0.934184c-0.470688,0.62521-0.705437,1.403697-0.705437,2.333097
			c0,0.800045,0.136538,1.468374,0.41081,2.004927l-1.626465,6.865154c-0.229554,0.968927-0.324105,1.989183-0.202704,2.980312
			c0.074171,0.605541,0.352755,2.113886,0.352755,2.113886S14.169238,28.633352,14.53082,28.070351z"/>
	</g>
</g>
<g id="Layer_2">
</g>
</svg>
