<?xml version="1.0" encoding="utf-8"?>
<!-- Generator: Adobe Illustrator 19.2.0, SVG Export Plug-In . SVG Version: 6.00 Build 0)  -->
<svg version="1.1" id="Layer_1" xmlns="http://www.w3.org/2000/svg" xmlns:xlink="http://www.w3.org/1999/xlink" x="0px" y="0px"
	 viewBox="0 0 36 36" style="enable-background:new 0 0 36 36;" xml:space="preserve">
<style type="text/css">
	.st0{fill:#1A1A1A;}
</style>
<g id="Layer_1_1_">
</g>
<path class="st0" d="M13.6,25.6C9.4,25.6,6,22.2,6,18s3.4-7.6,7.6-7.6c2.1,0,3.8,0.8,5.1,2l-2.1,2c-0.6-0.5-1.6-1.2-3-1.2
	c-2.6,0-4.7,2.2-4.7,4.8s2.1,4.8,4.7,4.8c3,0,4.2-2.2,4.3-3.3h-4.3v-2.6h7.2c0.1,0.4,0.1,0.8,0.1,1.3C21,22.5,18,25.6,13.6,25.6z
	 M30,19.1h-2.2v2.2h-2.2v-2.2h-2.2v-2.2h2.2v-2.2h2.2v2.2H30V19.1z"/>
</svg>
