<?xml version="1.0" encoding="utf-8"?>
<!-- Generator: Adobe Illustrator 19.2.0, SVG Export Plug-In . SVG Version: 6.00 Build 0)  -->
<svg version="1.1" xmlns="http://www.w3.org/2000/svg" xmlns:xlink="http://www.w3.org/1999/xlink" x="0px" y="0px"
	 viewBox="0 0 36 36" style="enable-background:new 0 0 36 36;" xml:space="preserve">
<g id="Layer_1">
</g>
<g id="Layer_2">
	<g>
		<g>
			<path style="fill:#1A1A1A;" d="M13.636353,25.636353C9.414551,25.636353,6,22.221802,6,18s3.414551-7.636353,7.636353-7.636353
				c2.061829,0,3.785461,0.752686,5.116333,1.996338l-2.072632,1.996338c-0.567322-0.545471-1.560059-1.178162-3.043701-1.178162
				c-2.6073,0-4.734497,2.160034-4.734497,4.821838s2.127197,4.821777,4.734497,4.821777
				c3.021851,0,4.156372-2.170898,4.330933-3.294495h-4.330933v-2.618225h7.210876
				c0.065552,0.381836,0.120056,0.763672,0.120056,1.265442C20.967285,22.538147,18.04364,25.636353,13.636353,25.636353z
				 M30,19.090881h-2.181824v2.181824h-2.181824v-2.181824h-2.181824v-2.181824h2.181824v-2.181824h2.181824v2.181824H30V19.090881z
				"/>
		</g>
	</g>
</g>
</svg>
