<?xml version="1.0" encoding="utf-8"?>
<!-- Generator: Adobe Illustrator 19.2.0, SVG Export Plug-In . SVG Version: 6.00 Build 0)  -->
<svg version="1.1" xmlns="http://www.w3.org/2000/svg" xmlns:xlink="http://www.w3.org/1999/xlink" x="0px" y="0px"
	 viewBox="0 0 36 36" style="enable-background:new 0 0 36 36;" xml:space="preserve">
<g id="Layer_1">
	<g>
		<g>
			<path d="M15.917297,17.27594c0,0,2.044006-0.151794,2.044006-2.548828c0-2.397156-1.672363-3.566895-3.79071-3.566895H7.200012
				V24.55603h6.970581c0,0,4.255249,0.134155,4.255249-3.953857C18.425842,20.602173,18.611633,17.27594,15.917297,17.27594z
				 M10.271362,13.541016h3.397461h0.50177c0,0,0.947632,0,0.947632,1.393616c0,1.393677-0.557434,1.595764-1.18927,1.595764
				h-3.657593V13.541016z M13.990845,22.175232h-3.719482v-3.579956h3.899231c0,0,1.41217-0.018555,1.41217,1.8396
				C15.582764,21.984192,14.549805,22.159729,13.990845,22.175232z"/>
		</g>
	</g>
	<g>
		<g>
			<path d="M24.101135,14.568359c-5.151367,0-5.146729,5.14679-5.146729,5.14679s-0.353516,5.12085,5.146912,5.12085
				c0,0,4.58374,0.26178,4.58374-3.562317h-2.357361c0,0,0.078552,1.44043-2.147827,1.44043
				c0,0-2.357483,0.157715-2.357483-2.330872h6.941223C28.763611,20.38324,29.523071,14.568359,24.101135,14.568359z
				 M21.796143,18.595276c0,0,0.288147-2.06488,2.357422-2.06488s2.042969,2.06488,2.042969,2.06488H21.796143z"/>
		</g>
	</g>
	<g>
		<rect x="21.219397" y="11.949206" width="5.526672" height="1.650037"/>
	</g>
</g>
<g id="Layer_2">
</g>
</svg>
