<?xml version="1.0" encoding="utf-8"?>
<!-- Generator: Adobe Illustrator 19.2.0, SVG Export Plug-In . SVG Version: 6.00 Build 0)  -->
<svg version="1.1" xmlns="http://www.w3.org/2000/svg" xmlns:xlink="http://www.w3.org/1999/xlink" x="0px" y="0px"
	 viewBox="0 0 12 12" style="enable-background:new 0 0 12 12;" xml:space="preserve">
<g id="Layer_1">
</g>
<g id="Layer_2">
	<path style="fill-rule:evenodd;clip-rule:evenodd;" d="M8.505356,2.002615C7.262447,2.056706,6.592174,2.836252,6.238811,3.917525
		c0,0.132273-0.106545,0.238818-0.238811,0.238818c-0.13228,0-0.238826-0.106545-0.238826-0.238818
		C5.407811,2.836252,4.737538,2.056706,3.494629,2.002615C1.933901,1.934252,1,3.162888,1,4.625979
		c0,1.907,1.664629,3.267091,2.916364,4.291545C5.217811,9.982888,5.581818,10.21107,6,10.641616
		c0.418182-0.430546,0.782174-0.658728,2.083636-1.724092C9.335356,7.89307,11,6.532979,11,4.625979
		C11,3.162888,10.066083,1.934252,8.505356,2.002615z"/>
</g>
</svg>
