<?xml version="1.0" encoding="utf-8"?>
<!-- Generator: Adobe Illustrator 18.1.1, SVG Export Plug-In . SVG Version: 6.00 Build 0)  -->
<svg version="1.1" id="Layer_1" xmlns="http://www.w3.org/2000/svg" xmlns:xlink="http://www.w3.org/1999/xlink" x="0px" y="0px"
	 viewBox="0 0 10 8.6" enable-background="new 0 0 10 8.6" xml:space="preserve">
<path fill-rule="evenodd" clip-rule="evenodd" fill="rgba(0,0,0,0.6)" d="M7.5,0C6.3,0.1,5.6,0.8,5.2,1.9C5.2,2,5.1,2.2,5,2.2
	C4.9,2.2,4.8,2,4.8,1.9C4.4,0.8,3.7,0.1,2.5,0C0.9-0.1,0,1.2,0,2.6c0,1.9,1.7,3.3,2.9,4.3C4.2,8,4.6,8.2,5,8.6
	C5.4,8.2,5.8,8,7.1,6.9c1.3-1,2.9-2.4,2.9-4.3C10,1.2,9.1-0.1,7.5,0z"/>
</svg>
