<?xml version="1.0" encoding="utf-8"?>
<!-- Generator: Adobe Illustrator 18.1.1, SVG Export Plug-In . SVG Version: 6.00 Build 0)  -->
<svg version="1.1" id="Layer_1" xmlns="http://www.w3.org/2000/svg" xmlns:xlink="http://www.w3.org/1999/xlink" x="0px" y="0px"
	 viewBox="0 0 200 100" enable-background="new 0 0 200 100" xml:space="preserve">
<g id="g3_1_" transform="translate(-11.287002,-8.062)">
	<path fill="#1B1919" d="M69.6,40c-10.9,0-19.9,9-19.9,19.9s9,19.9,19.9,19.9s19.9-9,19.9-19.9C89.6,48.8,80.6,40,69.6,40z M69.5,69
		c3.6,0,6.7-2.1,8.2-5.2h3.6c-1.6,4.9-6.2,8.5-11.8,8.5c-6.9,0-12.4-5.6-12.4-12.4s5.2-12.3,12.1-12.3c5.6,0,10.6,3.6,12.1,8.7h-3.4
		c-1.5-3.3-4.7-5.6-8.7-5.6c-5.1,0-8.8,3.9-8.8,9C60.5,65,64.6,69,69.5,69z"/>
	<path fill="#1B1919" d="M91,41.4V79h36.4V41.4H91z M121.1,52.4H111v19h-3.4v-19H97.2V49h23.9V52.4z"/>
	<path fill="#1B1919" d="M128.4,41.4l22.2,37.9l22.2-37.9H128.4z M150.7,70.7l-13.2-22.4h3.9l9.3,15.5l9.3-15.5h3.9L150.7,70.7z"/>
</g>
</svg>
