<?xml version="1.0" encoding="utf-8"?>
<!-- Generator: Adobe Illustrator 18.1.1, SVG Export Plug-In . SVG Version: 6.00 Build 0)  -->
<svg version="1.1" id="Layer_1" xmlns="http://www.w3.org/2000/svg" xmlns:xlink="http://www.w3.org/1999/xlink" x="0px" y="0px"
	 viewBox="0 0 200 100" enable-background="new 0 0 200 100" xml:space="preserve">
<path d="M134.4,50c0,19.1-15.5,34.5-34.5,34.4c-18.9-0.2-34.4-15.6-34.2-34.7c0.2-18.9,15.6-34.2,34.7-34.1
	C119.1,15.8,134.4,31.1,134.4,50z M82.7,47.7c0,0.3,0,0.5,0,0.6c-0.3,2-0.6,3.9-0.9,5.9c-0.2,1.4-1.1,2.3-2.7,2.5
	c-1.1,0.2-2-0.6-2-1.6c0-0.5,0-1.1,0.2-1.6c0.2-0.8-0.2-1.3-1.1-1.3c-0.8,0-1.6,0-2.2,0c-0.9,0-1.4,0.5-1.6,1.4
	c-0.2,0.6-0.2,1.4-0.2,2.2c0,3,2.7,5.6,5.6,5.8c3.4,0.2,6.7-1.7,8.3-4.8c0.8-1.6,0.9-3.3,1.3-4.8c0.2-1.4,0.5-2.7,0.6-4.1
	c1.6,0,3.1,0,4.7,0c-0.3,1.7-0.5,3.3-0.8,5c-0.3,2.5-0.8,4.8-1.1,7.3c-0.2,0.8,0.2,1.3,1.1,1.3c0.8,0,1.7,0,2.5,0
	c0.9,0,1.4-0.5,1.6-1.4c0.3-2.2,0.6-4.4,0.9-6.6c0.3-2.5,0.8-5,1.1-7.7c0.2-1.4-0.6-2.5-2-2.7c-1.3-0.2-2.3,0-3.6,0s-2.5,0-3.8,0
	c0.3-1.6,0.5-3,0.8-4.5c0.2-0.6,0.6-1.3,1.1-1.6c0.8-0.6,1.7-0.6,2.5-0.2c0.8,0.5,0.8,1.3,0.8,2c0,0.3-0.2,0.6-0.2,0.9
	c-0.2,0.8,0.3,1.3,1.1,1.3c0.6,0,1.4,0,2,0c1.9,0,2-0.2,2.3-1.9c0.2-1.3,0.2-2.5-0.3-3.8c-1.4-2.8-4.5-4.2-7.8-3.6
	c-4.2,0.9-6.6,4.5-6.9,7.7c-0.2,1.3-0.3,2.3-0.5,3.6c-0.2,0-0.5,0-0.6,0c-1.1,0-2.2,0-3.3,0c-0.8,0-1.4,0.3-1.4,0.9
	c-0.2,0.9-0.3,2-0.5,3c0,0.5,0.3,0.8,0.8,0.8c0.2,0,0.5,0,0.8,0C80.3,47.7,81.4,47.7,82.7,47.7z M112.8,46.1
	C112.8,46.1,113,46.1,112.8,46.1c0,0.2-0.2,0.2-0.2,0.3c-2.2,2.3-3.3,5.2-2.8,8.4c0.3,2.3,1.4,4.1,3.4,5.3c2.7,1.7,5.6,1.9,8.4,0.6
	c2.8-1.1,4.8-3.3,6.1-6.1c0.3-0.9,0-1.4-0.9-1.4c-0.8,0-1.7,0-2.5,0c-0.6,0-1.1,0.3-1.4,0.8c-0.9,1.6-2.2,2.5-3.9,2.7
	c-2.2,0.3-4.2-1.3-4.4-3.6c-0.2-2.8,2.2-5.5,5.2-5.5c1.1,0,2.2,0,3.1,0c0.8,0,1.3-0.5,1.4-1.1c0.2-0.9,0.3-1.9,0.5-2.7
	c0-0.6-0.2-0.9-0.8-0.9c-0.2,0-0.5,0-0.6,0c-5,0-10,0-14.8,0c-0.3,0-0.5,0-0.8,0c0.3-1.9,0.5-3.8,0.8-5.6c0.2-0.8-0.2-1.4-1.1-1.4
	c-0.8,0-1.7,0-2.5,0c-0.8,0-1.4,0.5-1.4,1.3c-0.3,1.7-0.5,3.4-0.8,5.2c0,0.3-0.2,0.5-0.5,0.5c-0.5,0-1.1,0-1.6,0
	c-0.8,0-1.3,0.5-1.4,1.4c-0.2,0.6-0.2,1.4-0.3,2c-0.2,0.9,0.2,1.4,1.3,1.4c0.6,0,1.3,0,1.9,0c-0.2,1.4-0.5,2.8-0.6,4.2
	c-0.5,2.7-0.8,5.3-1.3,8c-0.2,0.8,0.2,1.3,1.1,1.3s1.7,0,2.7,0c0.8,0,1.3-0.5,1.4-1.3c0.6-3.9,1.3-7.7,1.7-11.6
	c0.2-0.6,0.3-0.8,0.8-0.6c1.7,0.2,3.3-0.2,4.5-1.3C112.5,46.2,112.7,46.1,112.8,46.1z"/>
</svg>
