<?xml version="1.0" encoding="utf-8"?>
<!-- Generator: Adobe Illustrator 19.2.0, SVG Export Plug-In . SVG Version: 6.00 Build 0)  -->
<svg version="1.1" id="Layer_1" xmlns="http://www.w3.org/2000/svg" xmlns:xlink="http://www.w3.org/1999/xlink" x="0px" y="0px"
	 viewBox="0 0 48 32" style="enable-background:new 0 0 48 32;" xml:space="preserve">
<polygon points="8.437439,17.79142 8.437439,30.683926 13.016876,30.683926 13.016876,1.644611 8.437439,1.644611 
	8.437439,13.836998 5.997383,13.836998 5.997383,1.644611 1.425491,1.644611 1.425491,30.683926 5.997383,30.683926 
	5.997383,17.79142 "/>
<path d="M26.203819,6.897316c0-5.252453-4.562294-5.73381-5.775978-5.73381c-1.230492,0-5.80101,0.481358-5.80101,5.73381v18.402782
	c0,5.383762,4.570518,5.863407,5.80101,5.863407c1.213684,0,5.775978-0.479645,5.775978-5.87027V6.897316z M21.641525,6.740288
	V25.57061c0,0.812885-0.548904,1.223618-1.221916,1.223618c-0.674385,0-1.22226-0.410732-1.22226-1.223618V6.740288
	c0-0.725792,0.553017-1.200642,1.22226-1.200642c0.668556,0,1.216431,0.480999,1.216431,1.200642H21.641525z"/>
<path d="M41.339073,1.644695l-1.118034,16.772198c-0.02948,0.019882-0.060684,0.031536-0.097031,0.031536
	c-0.023315,0-0.04731-0.004791-0.065826-0.011654l-1.631958-16.79208h-3.86837l-1.629219,16.789337
	c-0.022972,0.009605-0.043541,0.014397-0.0672,0.014397c-0.037712,0-0.069252-0.011654-0.094971-0.031536L31.654602,1.644695
	h-4.688805l2.385544,29.039001h4.490295l2.564522-15.555759c0.027763-0.006508,0.053139-0.009941,0.084335-0.009941
	s0.061714,0.003433,0.090172,0.009941l2.564171,15.555759h4.491661l2.391037-29.039001H41.339073z"/>
</svg>
