<?xml version="1.0" encoding="utf-8"?>
<!-- Generator: Adobe Illustrator 18.1.1, SVG Export Plug-In . SVG Version: 6.00 Build 0)  -->
<svg version="1.1" id="Layer_1" xmlns="http://www.w3.org/2000/svg" xmlns:xlink="http://www.w3.org/1999/xlink" x="0px" y="0px"
	 viewBox="0 0 200 100" enable-background="new 0 0 200 100" xml:space="preserve">
<g>
	<path d="M93.1,38.2c-0.4,0-0.7,0-0.9,0c-2.6,0-5.3,0-7.9,0c-0.4,0-0.5,0.1-0.9,0.5c-1.2,1.4-2.1,2.6-3,3.7c-0.7-1.2-1.3-2.5-2-3.7
		c-0.3-0.4-0.4-0.5-0.9-0.5c-2.6,0-5.3,0-7.9,0c-0.3,0-0.5,0-0.9,0c0.1,0.3,0.1,0.5,0.3,0.7c1.8,3.6,3.6,7.2,5.4,10.8
		c-1.2,1.4,2.6-3.2-9.6,11.6c-0.1,0.1-0.1,0.4-0.3,0.7c0.8,0,1.6,0,2.4,0c2.2,0,4.3,0,6.6,0c0.5,0,0.7-0.1,0.9-0.5
		c1.4-1.7,2.6-3.3,3.7-4.5c0.8,1.4,1.6,3,2.4,4.5c0.3,0.4,0.5,0.5,0.9,0.5c2.2,0,4.3,0,6.6,0c0.8,0,1.4,0,2.4,0
		c-0.1-0.3-0.3-0.4-0.3-0.7c-2-3.9-3.9-7.8-5.9-11.7c0.8-0.9,2.9-3.6,8.7-10.7C93,38.7,93,38.5,93.1,38.2z"/>
	<path d="M60.7,38.2c-0.1,0-0.4,0.3-0.4,0.5c-0.5,3-0.9,5.9-1.4,9c-0.1,0.8-0.3,1.6-0.4,2.4c-0.4-0.1-0.5-0.4-0.5-0.5
		c-1.4-3.3-2.9-6.5-4.3-9.7c-0.3-0.5-0.5-0.9-0.8-1.3v-0.1c-0.1-0.1-0.1-0.1-0.1-0.1c-0.1,0-0.3,0-0.4,0C51.9,38,51.5,38,51,38
		c-1.7,0.1-3.4,0-5.3,0l0,0c-0.3,0-0.5,0-0.8,0c-0.1,0.1-0.4,0.4-0.4,0.5c-0.1,0.8-0.3,1.6-0.4,2.4c-0.9,5.7-1.8,11.3-2.8,17.1
		c-0.3,1.3-0.4,2.5-0.7,3.8c2.8,0,5.4,0,8.2,0c0.7-4.1,1.3-8.2,2-12.1c0.3,0.3,0.4,0.5,0.5,0.8c1.6,3.6,3.2,7.1,4.9,10.8
		c0.1,0.3,0.4,0.5,0.5,0.5c2.5,0,4.9,0,7.4,0c0.1,0,0.5-0.3,0.5-0.5c0.3-1.2,0.4-2.2,0.5-3.4c0.9-5.7,1.7-11.2,2.6-16.9
		c0.1-0.9,0.3-1.8,0.4-2.9C65.6,38.2,63.1,38.2,60.7,38.2z"/>
	<path d="M110.2,38.2c-0.1,0-0.4,0.3-0.4,0.5c-0.5,3-0.9,5.9-1.4,9c-0.1,0.8-0.3,1.6-0.4,2.4c-0.3-0.1-0.4-0.4-0.5-0.7
		c-1.4-3.3-2.9-6.5-4.3-9.7c-0.3-0.5-0.5-1.1-0.8-1.3v-0.1c-0.1-0.1-0.1-0.1-0.1-0.1c-0.1,0-0.3,0-0.4,0c-0.4-0.1-0.8-0.1-1.2-0.1
		c-1.7,0.1-3.4,0-5.3,0l0,0c-0.3,0-0.5,0-0.8,0c-0.1,0-0.4,0.3-0.4,0.4c-0.1,0.8-0.3,1.6-0.4,2.4C92.8,46.3,91.9,52,91,57.8
		c-0.3,1.3-0.4,2.5-0.7,3.8c2.8,0,5.4,0,8.2,0c0.7-4.1,1.3-8.2,2-12.1c0.1,0.3,0.3,0.5,0.4,0.8c1.6,3.6,3.2,7.1,4.9,10.8
		c0.1,0.3,0.4,0.5,0.5,0.5c2.5,0,4.9,0,7.4,0c0.1,0,0.5-0.3,0.5-0.5c0.3-1.2,0.4-2.2,0.5-3.4c0.9-5.7,1.7-11.2,2.6-16.9
		c0.1-0.9,0.3-1.8,0.4-2.9C115.2,38.2,112.7,38.2,110.2,38.2z"/>
	<path d="M134.6,44.6c0.3-2.2,0.7-4.3,0.9-6.5c-4.3,0-8.6,0-12.8,0c-0.9,0-1.8,0-2.8,0l0,0c-0.1,0-0.1,0-0.3,0c0,0.1,0,0.3,0,0.3
		s0,0,0,0.1c-0.1,0.8-0.3,1.6-0.4,2.4c-0.9,5.7-1.8,11.3-2.8,17.1c-0.3,1.3-0.4,2.5-0.7,3.8l0,0l0,0c5.4,0,10.7,0,15.9,0
		c0.3-2.2,0.7-4.3,0.9-6.5c-2.6,0-5.1,0-7.6,0c0.1-0.9,0.3-2,0.5-2.9c1.1,0,2.1,0,3.3,0s2.4,0,3.6,0c0.5,0,0.8-0.1,0.8-0.7
		s0.1-1.1,0.1-1.6c0.1-0.9,0.3-2,0.3-3c-0.3,0-0.5,0-0.8,0c-2.2,0-4.3,0-6.6,0c0.1-0.9,0.3-1.7,0.4-2.6
		C129.3,44.6,131.9,44.6,134.6,44.6z"/>
	<path d="M140.7,37.9v5.8h7.1c-0.1,0.1-0.3,0.3-0.4,0.4c-3.9,3.9-7.9,7.9-11.8,11.8c-0.1,0.1-0.4,0.4-0.5,0.5c2,2,3.8,3.8,5.7,5.7
		c1.3-1.2,2.6-2.5,3.8-3.8c3.2-3.2,6.3-6.2,9.3-9.3v7.6h5.4V43.7v-5.8l0,0H140.7z"/>
</g>
</svg>
