<?xml version="1.0" encoding="utf-8"?>
<!-- Generator: Adobe Illustrator 18.1.1, SVG Export Plug-In . SVG Version: 6.00 Build 0)  -->
<svg version="1.1" id="Layer_1" xmlns="http://www.w3.org/2000/svg" xmlns:xlink="http://www.w3.org/1999/xlink" x="0px" y="0px"
	 viewBox="0 0 200 100" enable-background="new 0 0 200 100" xml:space="preserve">
<g>
	<path d="M136.7,42.8h-2.5v14.5h2.5c4.8,0,6.7-2.5,6.7-7.3C143.4,45.3,141.5,42.8,136.7,42.8z"/>
	<path d="M44.1,31V69h111.7V31H44.1z M93.2,62.2l-5.7-9.8h-2.3v9.8h-6V38h10.4c5.7,0,8.9,2.5,8.9,7s-3.2,6.4-4.8,6.9l6.4,10.4h-6.9
		V62.2z M123.7,58.5c0,0-3.1,4.2-10.4,4.2s-11.7-5-11.7-12.7s4.8-12.6,11.9-12.6c7,0,9.4,4.5,9.7,5.3l-5.1,2.3
		c-0.3-0.7-1.6-2.8-4.5-2.8s-5.6,2.1-5.6,7.8s2.5,7.8,5.6,7.8c3.1,0,4.2-1.3,4.2-1.3v-4h-4.8v-4.7h10.8L123.7,58.5L123.7,58.5z
		 M137.7,62.2h-9.5V38h9.5c7.6,0,12.2,4.5,12.2,12.2C149.7,57.8,145.3,62.2,137.7,62.2z"/>
	<path d="M88.8,42.5H85v5.3h3.8c1.9,0,3.4-0.7,3.4-2.6S90.7,42.5,88.8,42.5z"/>
</g>
</svg>
