<?xml version="1.0" encoding="utf-8"?>
<!-- Generator: Adobe Illustrator 18.1.1, SVG Export Plug-In . SVG Version: 6.00 Build 0)  -->
<svg version="1.1" id="Layer_1" xmlns="http://www.w3.org/2000/svg" xmlns:xlink="http://www.w3.org/1999/xlink" x="0px" y="0px"
	 viewBox="0 0 200 100" enable-background="new 0 0 200 100" xml:space="preserve">
<g>
	<path fill="#1B1919" d="M164.8,59.3v-1.8l0.5-0.5h1.8l0.5,0.5v1.8l-0.5,0.5h-1.8L164.8,59.3z M167,59.5l0.4-0.4v-1.7l-0.4-0.4h-1.6
		l-0.4,0.4v1.7l0.4,0.4H167z M165.4,58.9h0.1v-1.2h-0.1v-0.2h1.1l0.2,0.2v0.5l-0.2,0.2l0.2,0.2V59h0.1v0.2h-0.4l-0.1-0.1v-0.4
		l-0.1-0.1h-0.5V59h0.1v0.2h-0.6v-0.4H165.4z M166.4,58.3l0.1-0.1v-0.2l-0.1-0.1h-0.5v0.5C165.9,58.3,166.4,58.3,166.4,58.3z"/>
	<polygon fill="#1B1919" points="32,56.5 32,54 39.5,54 39.5,54.9 40.1,55.5 52.6,55.5 53,55 53,52.6 52.8,52.2 35.3,52.2 32.2,49 
		32.2,43.8 35.7,40.2 57,40.2 60.4,43.5 60.4,46 52.9,46 52.9,45 52.4,44.5 40.1,44.5 39.6,44.9 39.6,47.3 39.8,47.6 57.4,47.6 
		60.4,50.7 60.4,56.2 56.9,59.8 35.3,59.8 	"/>
	<polygon fill="#1B1919" points="79.2,55.5 82.9,55.5 78,52.3 73.1,55.5 76.7,55.5 76.7,59.8 61.8,59.8 61.8,55.5 64.3,55.5 
		73.2,50.1 65,44.5 62.1,44.5 62.1,40.2 76.7,40.2 76.7,44.5 73.1,44.5 78,47.4 82.9,44.5 79.3,44.5 79.3,40.2 93.8,40.2 93.8,44.5 
		91,44.5 81.9,49.9 91.8,55.5 94.2,55.5 94.2,59.8 79.2,59.8 	"/>
	<polygon fill="#1B1919" points="95.6,56.5 95.6,54 103,54 103,54.9 103.5,55.5 116,55.5 116.5,55 116.5,52.6 116.3,52.2 98.8,52.2 
		95.7,49 95.7,43.8 99.2,40.2 120.5,40.2 123.8,43.5 123.8,46 116.4,46 116.4,45 115.9,44.5 103.5,44.5 103.1,44.9 103.1,47.3 
		103.4,47.6 120.8,47.6 124,50.7 124,56.2 120.4,59.8 98.8,59.8 	"/>
	<polygon fill="#1B1919" points="127,44.5 124.8,44.5 124.8,40.2 137.7,40.2 137.7,44.5 134.2,44.5 137.1,54.8 142.2,40.2 
		151.5,40.2 156.6,54.8 159.5,44.5 155.9,44.5 155.9,40.2 168,40.2 168,44.5 165.8,44.5 161.1,59.8 151.1,59.8 146.5,45.4 
		141.9,59.8 131.6,59.8 	"/>
</g>
</svg>
