<?xml version="1.0" encoding="utf-8"?>
<!-- Generator: Adobe Illustrator 19.2.0, SVG Export Plug-In . SVG Version: 6.00 Build 0)  -->
<svg version="1.1" id="Layer_1" xmlns="http://www.w3.org/2000/svg" xmlns:xlink="http://www.w3.org/1999/xlink" x="0px" y="0px"
	 viewBox="0 0 164 27" style="enable-background:new 0 0 164 27;" xml:space="preserve">
<g>
	<path d="M69.902771,11.051735c0.867874,0.090137,1.330978-0.068676,1.33213-0.952332
		c0.003181-2.441605,0.013832-4.883335-0.008629-7.324738c-0.005173-0.562458,0.11808-0.762653,0.743065-0.727779
		c1.185478,0.066151,2.37558-0.028885,3.56781,0.043076c0.69146,0.041737,0.875107,0.271091,0.871483,0.94466
		c-0.02636,4.910824-0.014183,9.821854-0.014191,14.732819c0,2.164154-0.026421,4.328823,0.015533,6.492161
		c0.013191,0.680111-0.227676,0.872955-0.863373,0.855495c-1.164398-0.031975-2.330788-0.027115-3.495506-0.001572
		c-0.589195,0.012924-0.837593-0.162258-0.828163-0.804153C71.263535,21.54636,71.423035,18.760742,71.385239,16
		c-0.006622-0.483437-0.355949-0.559448-0.770294-0.557926c-2.524796,0.009262-5.049667,0.004223-7.574509,0.003765
		c-0.543938-0.000099-0.765778,0.166843-0.723953,0.797497c0.183411,2.765572,0.049812,5.537647,0.090904,8.306789
		c0.005531,0.372597-0.186462,0.496983-0.495598,0.515026c-1.413307,0.082493-2.827843,0.045921-4.241753,0.01944
		c-0.360634-0.006752-0.436043-0.262375-0.428627-0.579102c0.011688-0.499123,0.002953-0.998764,0.002953-1.498184
		c-0.000046-6.631191-0.000328-13.262379,0.00029-19.89357c0.000092-1.020302,0.054016-1.094204,1.079819-1.067215
		c1.024918,0.026962,2.04837-0.030487,3.072655-0.00771c0.936134,0.020817,1.003761,0.077541,1.004829,0.985756
		c0.002724,2.330624-0.000099,4.661255,0.001343,6.993237c0.000259,0.645596,0.120239,1.142082,0.890106,1.145702"/>
	<path d="M100.435471,24.961742c-3.232704,0-6.465416,0-9.735001,0c0.153679-0.460392,0.526115-0.359486,0.787811-0.438751
		c1.688133-0.511314,2.258804-1.160755,2.273804-2.908016c0.046455-5.409908,0.067528-10.82019,0.062241-16.230293
		c-0.00174-1.781136-0.464607-2.392738-1.889404-2.816162c-1.205093-0.358131-2.478691,0.146854-3.285522,1.359367
		c-1.02182,1.535637-1.584679,3.291283-2.316467,4.96587c-2.252258,5.154018-3.950188,10.537395-6.453682,15.58672
		c-0.138161,0.278664-0.169456,0.741627-0.577576,0.726036c-0.405113-0.015484-0.399132-0.474174-0.522392-0.763969
		c-0.357529-0.840557-0.683937-1.694485-1.048004-2.532101c-0.281769-0.648281-0.390762-1.308685-0.384331-2.018631
		c0.024376-2.690937,0.009819-5.382229,0.156853-8.12933c1.135201,2.815796,2.270401,5.631592,3.491875,8.661388
		c0.481392-1.215748,0.89093-2.249355,1.299957-3.283161c1.427406-3.607727,2.893059-7.201042,4.123016-10.883411
		c0.113831-0.340805,0.19619-0.693325,0.274689-1.044533c0.361359-1.616886,0.044395-2.122715-1.554993-2.635132
		c-0.433205-0.13879-0.941315-0.055298-1.469284-0.511845c5.6894,0,11.210541,0,16.841431,0
		c-0.371353,0.457226-0.831902,0.385231-1.199814,0.514637c-1.259026,0.442844-1.803078,1.045437-1.811226,2.378349
		c-0.035378,5.798416-0.043503,11.597099-0.031441,17.395622c0.002579,1.23859,0.638847,1.823269,2.175346,2.201778
		c0.258812,0.063759,0.521599,0.111408,0.782547,0.1665C100.429092,24.802364,100.432289,24.882053,100.435471,24.961742z"/>
	<path d="M138.794067,8.275841c0.286102,0.326775,0.18837,0.615604,0.189316,0.8764
		c0.010483,2.830612,0.013947,5.661293,0.001495,8.491879c-0.001083,0.241051,0.182831,0.646637-0.200806,0.69619
		c-0.269302,0.03479-0.266327-0.360367-0.354797-0.5816c-0.52356-1.309105-0.93544-2.696239-2.264069-3.474876
		c-1.568497-0.919209-3.311905-0.771503-5.02417-0.778576c-0.340378-0.001404-0.351044,0.315296-0.349655,0.562588
		c0.016113,2.88409-0.113312,5.771633,0.172882,8.649685c0.082886,0.833714,0.510849,1.418694,1.376587,1.540997
		c2.571579,0.363289,5.147598,0.481461,7.653198-0.353992c1.38121-0.460545,2.404007-1.472309,3.297455-2.587109
		c0.483734-0.603607,0.877075-1.278992,1.328079-1.909908c0.147003-0.205635,0.217926-0.645218,0.547836-0.494511
		c0.3284,0.150032,0.048645,0.491615-0.014206,0.737179c-0.405411,1.584084-0.838486,3.161232-1.22876,4.748951
		c-0.120392,0.489838-0.349884,0.667152-0.859421,0.665932c-6.160843-0.014767-12.321701-0.01001-18.482559-0.010376
		c-0.191956-0.000011-0.387451,0.013359-0.558609-0.126759c0.049301-0.361645,0.350098-0.303242,0.562363-0.353405
		c1.471817-0.347816,2.426758-1.135483,2.496597-2.765659c0.245911-5.739475,0.315369-11.480141,0.034195-17.218727
		c-0.066544-1.358101-0.675598-1.883675-2.012939-2.127464c-0.313492-0.057148-0.53952-0.150425-0.782425-0.324574
		c0.135681-0.268753,0.387146-0.16011,0.585373-0.160297c5.494812-0.005222,10.989655,0.00346,16.484421-0.012417
		c0.517853-0.001495,0.78685,0.140484,0.981049,0.647144c0.53569,1.397415,1.140884,2.76815,1.715714,4.150627
		c0.07991,0.1922,0.2789,0.422424-0.015259,0.573341c-0.239624,0.12294-0.323563-0.150391-0.437469-0.283688
		c-0.793442-0.928497-1.640396-1.798645-2.557709-2.610119c-1.37265-1.214291-2.956467-1.768497-4.773193-1.8703
		c-1.580963-0.088589-3.15416-0.185432-4.734665-0.032539c-0.402893,0.038979-0.634583,0.131226-0.667831,0.625969
		c-0.208664,3.105644-0.091507,6.213097-0.101044,9.31974c-0.000854,0.281849,0.058975,0.496483,0.403702,0.488922
		c1.494919-0.032791,2.994263,0.021507,4.446136-0.469936c1.384003-0.46846,2.189911-1.436897,2.610825-2.79594
		C138.404419,9.247849,138.42244,8.733509,138.794067,8.275841z"/>
	<path d="M146.956741,18.535858c0.451202,1.079185,0.928162,2.033951,1.526321,2.923286
		c1.800125,2.676407,4.489532,3.812519,7.46524,3.134697c3.013046-0.686329,4.591629-4.059925,3.089066-6.615028
		c-0.54689-0.929977-1.415161-1.490376-2.384171-1.858673c-1.709579-0.649776-3.444153-1.233932-5.16951-1.842033
		c-3.534225-1.245628-5.358124-4.480076-4.365479-7.953503c0.761963-2.666321,2.782745-3.995094,5.378448-4.488163
		c2.548859-0.484173,5.037277-0.260349,7.316956,1.102612c0.548401,0.327869,0.655167-0.134747,0.925171-0.353191
		c0.217453-0.175911,0.282898-0.658012,0.644073-0.503654c0.32135,0.137344,0.166595,0.547832,0.168854,0.838642
		c0.010147,1.304497,0.019089,2.609509-0.010117,3.913471c-0.008072,0.360939,0.248398,0.937462-0.159866,1.045486
		c-0.455826,0.120609-0.464127-0.516819-0.615097-0.830734c-0.719635-1.496292-1.61586-2.840706-2.978424-3.835865
		c-2.138092-1.561565-5.447952-1.338787-7.006668,0.48185c-1.854843,2.166527-1.228439,5.266521,1.358582,6.697926
		c1.591171,0.880409,3.364471,1.278477,5.05603,1.89315c0.936935,0.340458,1.883041,0.652786,2.724426,1.218357
		c2.177399,1.463623,3.095108,3.519573,2.739334,6.081104c-0.376572,2.711338-2.082108,4.400738-4.618805,5.128773
		c-3.175049,0.911243-6.364731,0.854939-9.40976-0.597206c-0.624924-0.298019-0.841385,0.053513-1.165771,0.392246
		c-0.157639,0.164627-0.230484,0.537895-0.543411,0.40337c-0.277344-0.119232-0.129395-0.445107-0.134048-0.673096
		c-0.033417-1.637413-0.049255-3.275211-0.06456-4.912945C146.721558,19.11385,146.654068,18.884506,146.956741,18.535858z"/>
	<path d="M35.130497,1.974033c0.000431,1.192337-0.010025,2.384819,0.006084,3.576942
		c0.007549,0.558353-0.200863,0.755367-0.784008,0.748238c-2.524376-0.030846-5.049671,0.008545-7.573875-0.028522
		c-0.627117-0.009212-0.815434,0.16729-0.79052,0.787422c0.044506,1.107872,0.02993,2.219635-0.003433,3.328461
		c-0.016254,0.540104,0.1581,0.717491,0.7117,0.710861c2.246834-0.026905,4.494217-0.006008,6.741398-0.00663
		c1.117771-0.000309,1.112949-0.004051,1.12608,1.072891c0.009808,0.804169,0.025673,1.608467,0.054871,2.412125
		c0.020119,0.553871-0.192127,0.783543-0.77932,0.776508c-2.274712-0.027252-4.5504,0.012722-6.824772-0.029327
		c-0.636669-0.011753-1.002956,0.167423-1.0033,0.843361c-0.000683,1.344181-0.001369,2.688366-0.002052,4.032547
		c-0.000069,0.140278,0.000702,0.284943,0.055386,0.414433c0.135403,0.32003,0.574696,0.309944,0.863266,0.305233
		c2.60725-0.042572,5.215939,0.007729,7.823486-0.024872c0.665432-0.00832,0.888206,0.221989,0.866936,0.858032
		c-0.029655,0.886803-0.02153,1.775776,0.000572,2.663067c0.013851,0.556026-0.193916,0.8088-0.774109,0.807369
		c-4.439106-0.010937-8.87825-0.007908-13.317379-0.005524c-0.582558,0.000313-0.87558-0.155781-0.872978-0.858059
		c0.02673-7.213482,0.014034-14.427109,0.015182-21.640697c0.000042-0.248867,0.029903-0.497734,0.045845-0.746578
		C25.520523,1.972233,30.325512,1.973133,35.130497,1.974033z"/>
	<path d="M7.549873,15.754223c0-2.829342-0.018839-5.658897,0.013134-8.487877
		c0.008078-0.714806-0.18965-0.973801-0.940212-0.938393C5.128708,6.398438,3.62977,6.359264,2.133356,6.390354
		c-1.142745,0.023743-0.962061-1.14143-0.947691-1.982471c0.008581-0.502239,0.017162-1.004475,0.025745-1.506714
		C1.219355,2.436253,1.187574,1.95845,1.780554,1.959686c5.6583,0.011818,11.316631,0.012894,16.974974,0.005527
		c0.86755-0.001083,0.575348,1.518597,0.56274,2.029121c-0.015682,0.63509,0.261597,2.373665-0.783623,2.361637
		c-1.580877-0.018196-3.163857,0.040112-4.742491-0.021538c-0.782951-0.030575-1.001699,0.226593-0.998053,0.9827
		c0.026627,5.519798,0.018545,11.039768,0.020786,16.559681c0.000544,1.34481-0.000544,1.344509-1.314617,1.343395
		c-1.054052-0.000893-2.109182-0.029774-3.161757,0.009499c-0.627041,0.023388-0.808697-0.211349-0.803337-0.821106
		C7.56053,21.523998,7.546492,18.63905,7.549873,15.754223z"/>
	<path d="M55.130318,3.424717c0.267174-0.717609-0.071777-0.959267-0.642937-1.113052
		c-5.900452-1.588657-12.928677-0.316036-16.159519,5.322659C36.662834,10.540245,36.098999,14.215729,37,17.460175
		c0.757065,2.726135,2.442432,5.169033,4.993893,6.484478l0.004627,0.00238c0.863449,0.408546,1.753601,0.740665,2.66803,1.022747
		c1.741463,0.537193,3.531246,0.606968,5.329529,0.633327c1.358887-0.166237,2.715912-0.337734,4.046448-0.679661
		c0.919144-0.236202,1.033081-0.368965,0.775093-1.236126c-0.13604-0.457249-0.146538-0.919876-0.186867-1.383858
		c-0.140106-0.38237-0.124863-0.793911-0.223-1.184418c-0.12468-0.496124-0.364975-0.77533-0.911659-0.502689
		c-1.991417,0.687752-4.032883,0.718319-6.058384,0.284489c-1.146595-0.245583-2.221493-0.783287-3.043755-1.677593
		c-2.340244-2.545273-2.483982-5.506615-1.610699-8.655571c0.480827-1.733799,1.831509-3.017769,3.423244-3.771687
		c1.379879-0.653572,2.875179-0.947578,4.399494-0.791458c0.440674,0.045135,0.876854,0.125694,1.312454,0.206169
		c0.487038,0.089973,2.397385,0.924381,2.369392,0.065018C54.563011,5.32328,54.785385,4.351181,55.130318,3.424717z"/>
	<path d="M119.386581,13.562622c-0.702209-0.261902-1.432861-0.447449-2.284485-0.709106
		c0.805115-0.222351,1.46106-0.441528,2.075623-0.761475c3.41333-1.777039,3.79541-6.141663,0.742554-8.470154
		c-1.597473-1.218384-3.477783-1.587708-5.405701-1.621521c-3.718384-0.065125-7.438599-0.026306-11.15802-0.021606
		c-0.186401,0.000183-0.459778-0.120667-0.530579,0.213318c0.069153,0.149536,0.204041,0.181152,0.33905,0.211853
		c1.866272,0.424683,2.339233,0.927307,2.450623,2.879517c0.308533,5.40741,0.189575,10.818054-0.009827,16.225037
		c-0.072266,1.959839-0.693787,2.575317-2.637756,3.074158c-0.197693,0.050781-0.464783-0.004822-0.566101,0.295837
		c0.164734,0.250793,0.432312,0.177612,0.66333,0.177185c4.410889-0.007874,8.822815,0.045959,13.23175-0.116028
		c1.191223-0.043762,2.361084-0.243896,3.464417-0.772522c2.25238-1.079102,3.582397-3.197876,3.500916-5.66748
		C123.192184,16.370483,121.672592,14.415283,119.386581,13.562622z M109.291428,8.572693
		c-0.007874-1.747986,0.023865-3.493896,0.142883-5.239441c0.037354-0.548279,0.243591-0.795715,0.779053-0.839783
		c1.36145-0.112183,2.721802-0.131653,4.051514,0.213074c2.543701,0.659424,3.971802,2.583069,3.898315,5.187195
		c-0.069397,2.45874-1.748413,4.345032-4.325317,4.869873c-1.345337,0.273987-2.707275,0.185425-4.064697,0.214722
		c-0.440552,0.009583-0.48822-0.226746-0.485596-0.576111C109.297226,11.125732,109.291428,9.849182,109.291428,8.572693z
		 M119.280991,20.597717c-0.521423,1.96228-2.46344,3.538818-4.794922,3.797485
		c-0.960571,0.106567-1.941162,0.108582-2.908081,0.062317c-1.314758-0.062927-1.984131-0.789551-2.14624-2.098938
		c-0.191772-1.548889-0.09967-3.102661-0.139648-4.352112c0-1.522766-0.000366-2.74353,0.000244-3.964294
		c0.000183-0.279297-0.034424-0.589844,0.389771-0.57843c1.959412,0.05249,3.941528-0.205017,5.857666,0.437805
		C118.460922,14.881531,120.046677,17.716431,119.280991,20.597717z"/>
</g>
</svg>
