<?xml version="1.0" encoding="utf-8"?>
<!-- Generator: Adobe Illustrator 18.1.1, SVG Export Plug-In . SVG Version: 6.00 Build 0)  -->
<svg version="1.1" id="Layer_1" xmlns="http://www.w3.org/2000/svg" xmlns:xlink="http://www.w3.org/1999/xlink" x="0px" y="0px"
	 viewBox="0 0 200 100" enable-background="new 0 0 200 100" xml:space="preserve">
<g>
	<g>
		<path d="M22.3,37.9v24.5h33.2V37.9C55.5,37.9,22.3,37.9,22.3,37.9z M37.3,52.6c0,3.9-3.1,6.4-6.7,6.4c-3.7,0-6.7-2.4-6.7-6.4V41.1
			h4.4v11.4c0,1.7,0.9,2.6,2.3,2.6s2.4-1,2.4-2.6V41.1h4.4v11.5H37.3z M49.7,58.8l-2.9-5.5l-2.9,5.5h-5l5.5-9.2L39,40.9h5l2.7,5.1
			l2.6-5h5l-5.1,8.7l5.5,9.2h-5V58.8z"/>
	</g>
	<g>
		<path d="M77.7,58.8V45.3l-4.9,10.8h-1.6l-5-10.8v13.6h-2V41.1h2L72,53.7l5.6-12.6h2v17.9h-1.8V58.8z"/>
		<path d="M95.1,58.8l-1.5-4h-7.7l-1.5,4h-2.1L89,40.9h1.6l6.5,17.9H95.1z M89.8,43.8l-3.3,9.4h6.6L89.8,43.8z"/>
		<path d="M110.2,57c-1.2,1.3-2.9,2.1-4.8,2.1c-1.7,0-3.3-0.6-4.5-1.8c-1.7-1.7-1.7-3.4-1.7-7.2c0-3.8,0-5.5,1.7-7.2
			c1.2-1.2,2.8-1.8,4.5-1.8c3.4,0,5.8,2.2,6.2,5.4h-2c-0.5-2.2-2.1-3.7-4.3-3.7c-1.2,0-2.3,0.5-3.1,1.2c-1.1,1.1-1.2,2.3-1.2,6.1
			c0,3.8,0.1,5,1.2,6.1c0.7,0.9,2,1.2,3.1,1.2c1.3,0,2.6-0.5,3.4-1.5c0.7-0.9,1-1.8,1-3.2v-1.5h-4.4v-1.7h6.2v2.8
			C111.6,54.4,111.3,55.8,110.2,57z"/>
		<path d="M126.2,58.8l-1.5-4h-7.8l-1.5,4h-2.1l6.6-17.9h1.6l6.5,17.9H126.2z M120.9,43.8l-3.3,9.4h6.6L120.9,43.8z"/>
		<path d="M130,58.8V57l8.9-14.3h-8.6v-1.6h10.8v1.6l-8.9,14.6h8.9v1.7H130V58.8z"/>
		<path d="M145.1,58.8V41.1h2v17.9h-2V58.8z"/>
		<path d="M163.6,58.8l-9.4-14.3v14.3h-2V41.1h1.8l9.4,14.2V41.1h2v17.9h-1.8V58.8z"/>
		<path d="M170.4,58.8V41.1h11v1.6h-9.2v6.2h7.8v1.7h-7.8v6.5h9.2v1.7C181.5,58.8,170.4,58.8,170.4,58.8z"/>
	</g>
	<g>
		<path d="M24.7,35.3c-3.4,0-6.1,2.7-6.1,6.1v17.1c0,3.4,2.7,6.1,6.1,6.1h27.8c3.4,0,6.1-2.7,6.1-6.1V41.4c0-3.4-2.7-6.1-6.1-6.1
			H24.7z M55.5,56.2c0,3.4-2.7,6.1-6.1,6.1H28.5c-3.4,0-6.1-2.7-6.1-6.1V44.4c0-3.4,2.7-6.1,6.1-6.1h20.9c3.4,0,6.1,2.7,6.1,6.1
			V56.2z"/>
	</g>
</g>
</svg>
