<?xml version="1.0" encoding="utf-8"?>
<!-- Generator: Adobe Illustrator 19.2.0, SVG Export Plug-In . SVG Version: 6.00 Build 0)  -->
<svg version="1.1" id="Layer_1" xmlns="http://www.w3.org/2000/svg" xmlns:xlink="http://www.w3.org/1999/xlink" x="0px" y="0px"
	 viewBox="0 0 200 100" style="enable-background:new 0 0 200 100;" xml:space="preserve">
<g>
	<path style="fill:#231F20;" d="M54.049683,34H19.958773c-1.875,0-3.40909,1.534092-3.40909,3.409092v23.181816
		c0,1.875,1.53409,3.409092,3.40909,3.409092h34.090912c1.875,0,3.409092-1.534092,3.409092-3.409092V37.409092
		C57.458775,35.534092,55.924683,34,54.049683,34z M35.705925,51.634056c0,3.989368-3.145416,6.54652-6.930374,6.54652
		c-3.784624,0-6.878773-2.557152-6.878773-6.54652V39.819424h4.475098v11.712425c0,1.687569,0.920521,2.659359,2.403675,2.659359
		s2.454945-0.97179,2.454945-2.659359V39.819424h4.47543V51.634056z M48.338871,58.0271l-2.991943-5.600365L42.354984,58.0271
		h-5.114635l5.676937-9.334049l-5.319046-8.873627h5.089001l2.659687,5.14027l2.659359-5.14027h5.089001l-5.31905,8.873627
		l5.676937,9.334049H48.338871z"/>
	<g>
		<path style="fill:#231F20;" d="M76.879387,58.0271V44.192318l-4.986794,10.97068h-1.66227l-5.063362-10.97068V58.0271h-1.943253
			V39.819424h1.943253l5.932945,12.914265l5.77948-12.914265h1.943245V58.0271H76.879387z"/>
		<path style="fill:#231F20;" d="M94.703537,58.0271l-1.45752-4.11721h-7.953102l-1.45752,4.11721h-2.071426l6.699997-18.207676
			h1.636635L96.774956,58.0271H94.703537z M89.307587,42.606956l-3.426407,9.615368h6.8022L89.307587,42.606956z"/>
		<path style="fill:#231F20;" d="M109.995506,56.083519c-1.278412,1.380947-2.991943,2.097057-4.85862,2.097057
			c-1.790108,0-3.426735-0.664841-4.654205-1.892311c-1.713203-1.713535-1.713203-3.503643-1.713203-7.364838
			c0-3.861526,0-5.651634,1.713203-7.364834c1.22747-1.227474,2.838463-1.892311,4.654205-1.892311
			c3.478004,0,5.830414,2.250198,6.367409,5.446888h-1.943245c-0.511703-2.301468-2.148331-3.708054-4.424164-3.708054
			c-1.201836,0-2.352737,0.485729-3.145416,1.304047c-1.150574,1.176533-1.278412,2.404007-1.278412,6.214264
			c0,3.810261,0.127838,5.063366,1.278412,6.239571c0.792679,0.818314,1.943581,1.27874,3.145416,1.27874
			c1.329681,0,2.608421-0.536999,3.45237-1.560059c0.741409-0.894886,1.022728-1.892311,1.022728-3.298893v-1.380947h-4.475098
			v-1.713203h6.418678v2.889736C111.555565,53.475098,111.120773,54.88168,109.995506,56.083519z"/>
		<path style="fill:#231F20;" d="M126.438713,58.0271l-1.45752-4.11721h-7.953102l-1.45752,4.11721h-2.071426l6.699997-18.207676
			h1.636627l6.674362,18.207676H126.438713z M121.042755,42.606956l-3.426399,9.615368h6.8022L121.042755,42.606956z"/>
		<path style="fill:#231F20;" d="M130.274597,58.0271v-1.841373l9.104004-14.627132h-8.745773v-1.73917h10.944702v1.636631
			l-9.180237,14.832211h9.180237V58.0271H130.274597z"/>
		<path style="fill:#231F20;" d="M145.669785,58.0271V39.819424h1.943237V58.0271H145.669785z"/>
		<path style="fill:#231F20;" d="M164.491028,58.0271l-9.666641-14.60183V58.0271h-1.943253V39.819424h1.841049l9.666306,14.550892
			V39.819424h1.943573V58.0271H164.491028z"/>
		<path style="fill:#231F20;" d="M171.60051,58.0271V39.819424h11.302933v1.73917h-9.35968v6.418678h7.978729v1.738838h-7.978729
			v6.572155h9.35968V58.0271H171.60051z"/>
	</g>
</g>
</svg>
