<?xml version="1.0" encoding="utf-8"?>
<!-- Generator: Adobe Illustrator 19.2.0, SVG Export Plug-In . SVG Version: 6.00 Build 0)  -->
<svg version="1.1" id="Layer_1" xmlns="http://www.w3.org/2000/svg" xmlns:xlink="http://www.w3.org/1999/xlink" x="0px" y="0px"
	 viewBox="0 0 170 32" style="enable-background:new 0 0 170 32;" xml:space="preserve">
<g>
	<path style="fill:#231F20;" d="M38.5,1H4.40909C2.53409,1,1,2.534092,1,4.409092v23.181816C1,29.465908,2.53409,31,4.40909,31H38.5
		c1.875,0,3.409092-1.534092,3.409092-3.409092V4.409092C41.909092,2.534092,40.375,1,38.5,1z M20.156242,18.634056
		c0,3.989368-3.145416,6.54652-6.930374,6.54652c-3.784624,0-6.878773-2.557152-6.878773-6.54652V6.819424h4.475098v11.712425
		c0,1.687569,0.920521,2.659359,2.403675,2.659359s2.454945-0.97179,2.454945-2.659359V6.819424h4.47543V18.634056z
		 M32.789188,25.0271l-2.991943-5.600365L26.805302,25.0271h-5.114635l5.676937-9.334049l-5.319046-8.873627h5.089001
		l2.659687,5.14027l2.659359-5.14027h5.089001l-5.31905,8.873627l5.676937,9.334049H32.789188z"/>
	<g>
		<path style="fill:#231F20;" d="M61.329704,25.0271V11.192318l-4.986794,10.97068h-1.66227l-5.063362-10.97068V25.0271h-1.943253
			V6.819424h1.943253l5.932945,12.914265l5.77948-12.914265h1.943245V25.0271H61.329704z"/>
		<path style="fill:#231F20;" d="M79.153854,25.0271l-1.45752-4.11721h-7.953102l-1.45752,4.11721h-2.071426l6.699997-18.207676
			h1.636635L81.225273,25.0271H79.153854z M73.757904,9.606956l-3.426407,9.615368h6.8022L73.757904,9.606956z"/>
		<path style="fill:#231F20;" d="M94.445824,23.083519c-1.278412,1.380947-2.991943,2.097057-4.85862,2.097057
			c-1.790108,0-3.426735-0.664841-4.654205-1.892311c-1.713203-1.713535-1.713203-3.503643-1.713203-7.364838
			c0-3.861526,0-5.651634,1.713203-7.364834c1.22747-1.227474,2.838463-1.892311,4.654205-1.892311
			c3.478004,0,5.830414,2.250198,6.367409,5.446888h-1.943245c-0.511703-2.301468-2.148331-3.708054-4.424164-3.708054
			c-1.201836,0-2.352737,0.485729-3.145416,1.304047c-1.150574,1.176533-1.278412,2.404007-1.278412,6.214264
			c0,3.810261,0.127838,5.063366,1.278412,6.239571c0.792679,0.818314,1.943581,1.27874,3.145416,1.27874
			c1.329681,0,2.608421-0.536999,3.45237-1.560059c0.741409-0.894886,1.022728-1.892311,1.022728-3.298893v-1.380947h-4.475098
			v-1.713203h6.418678v2.889736C96.005882,20.475098,95.571091,21.88168,94.445824,23.083519z"/>
		<path style="fill:#231F20;" d="M110.88903,25.0271l-1.45752-4.11721h-7.953102l-1.45752,4.11721h-2.071426l6.699997-18.207676
			h1.636627l6.674362,18.207676H110.88903z M105.493073,9.606956l-3.426399,9.615368h6.8022L105.493073,9.606956z"/>
		<path style="fill:#231F20;" d="M114.724915,25.0271v-1.841373l9.104004-14.627132h-8.745773v-1.73917h10.944702v1.636631
			l-9.180237,14.832211h9.180237V25.0271H114.724915z"/>
		<path style="fill:#231F20;" d="M130.120102,25.0271V6.819424h1.943237V25.0271H130.120102z"/>
		<path style="fill:#231F20;" d="M148.941345,25.0271l-9.666641-14.60183V25.0271h-1.943253V6.819424h1.841049l9.666306,14.550892
			V6.819424h1.943573V25.0271H148.941345z"/>
		<path style="fill:#231F20;" d="M156.050827,25.0271V6.819424h11.302933v1.73917h-9.35968v6.418678h7.978729v1.738838h-7.978729
			v6.572155h9.35968V25.0271H156.050827z"/>
	</g>
</g>
</svg>
