<?xml version="1.0" encoding="utf-8"?>
<!-- Generator: Adobe Illustrator 19.0.1, SVG Export Plug-In . SVG Version: 6.00 Build 0)  -->
<svg version="1.1" id="Layer_1" xmlns="http://www.w3.org/2000/svg" xmlns:xlink="http://www.w3.org/1999/xlink" x="0px" y="0px"
	 viewBox="0 0 160 210" style="enable-background:new 0 0 160 210;" xml:space="preserve">
<g>
	<path style="fill:#FE4C61;" d="M6.000031-0.000061h149.999908c2.20929,0,4.000122,1.791016,4.000122,4.000122v201.999878
		c0,2.20929-1.790833,4.000122-4.000122,4.000122H6.000031c-3.313751,0-6.000092-2.68634-6.000092-6.000122V6.000031
		C-0.000061,2.686279,2.686279-0.000061,6.000031-0.000061"/>
	<path style="fill:#FE4C61;" d="M88,59.999939h-2l0,0c0,0.551575,0.448486,1,1,1S88,60.551514,88,59.999939L88,59.999939"/>
	<path style="fill:#FE4C61;" d="M90.999939,59.999939H89l0,0c0,0.551575,0.448608,1,1,1
		C90.551514,60.999939,90.999939,60.551514,90.999939,59.999939L90.999939,59.999939"/>
	<path style="fill:#FE4C61;" d="M93.999939,59.999939h-2l0,0c0,0.551575,0.448669,1,1,1
		C93.551453,60.999939,93.999939,60.551514,93.999939,59.999939L93.999939,59.999939"/>
	<path style="fill:#C13A4A;" d="M123.999939,106V93.999939H136V106H123.999939 M137,92.999939h-14.000061v14H137V92.999939"/>
	<path style="fill:#982E3A;" d="M129.999939,100.000061L129.999939,100.000061L133,103L129.999939,100.000061 M126.999939,97.000061
		l3,3L126.999939,97.000061"/>
	<polyline style="fill:#982E3A;" points="133,97.000061 129.999939,100.000061 126.999939,103 129.999939,100.000061 133,97.000061 
			"/>
	<polyline style="fill:#982E3A;" points="113.000061,100.000061 116.000061,103 113.000061,100.000061 	"/>
	<polyline style="fill:#982E3A;" points="116.000061,97.000061 113.000061,100.000061 116.000061,97.000061 	"/>
	<polyline style="fill:#C13A4A;" points="120,92.999939 113.000061,92.999939 113.000061,93.999939 119,93.999939 119,106 
		113.000061,106 113.000061,106.999939 120,106.999939 120,92.999939 	"/>
	<polyline style="fill:#C13A4A;" points="137,67.000061 113.000061,67.000061 113.000061,68.000061 136,68.000061 136,89 
		113.000061,89 113.000061,90 137,90 137,67.000061 	"/>
	<path style="fill:#982E3A;" d="M140.999939,57h-27.999878v5.999939h27.999878v48h-27.999878v2.000122h27.999878
		c1.100037,0,2-0.900085,2-2.000122V59C142.999939,57.899902,142.099976,57,140.999939,57"/>
	<path style="fill:#CB3D4E;" d="M160.000061,194.000061c0,2.209106-1.790833,3.999939-4.000122,3.999939H10v12.000061H6.000031
		c-3.313751,0-6.000092-2.68634-6.000092-6.000122V198v5.999939c0,3.313782,2.68634,6.000122,6.000092,6.000122h149.999908
		c2.20929,0,4.000122-1.791016,4.000122-4.000122V194.000061"/>
	<path style="fill:#401318;" d="M10-0.000061H6.000031c-3.313751,0-6.000092,2.68634-6.000092,6.000092V198H10V-0.000061"/>
	<path style="fill:#330F14;" d="M10,198H-0.000061v5.999939c0,3.313782,2.68634,6.000122,6.000092,6.000122H10V198"/>
	<path style="fill:#FFFFFF;" d="M152.463135,204c0-1.538879,0.584351-2.937927,1.536804-4H6c-2.209106,0-4,1.790833-4,4
		c0,2.209106,1.790894,4,4,4h148C153.047485,206.937988,152.463135,205.53894,152.463135,204z"/>
	<path style="fill:#D9D9D9;" d="M6,202h146.822632c0.265503-0.74292,0.660706-1.423889,1.177307-2H6c-2.209106,0-4,1.790833-4,4
		c0,0.347412,0.058167,0.678589,0.141418,1C2.587524,203.27771,4.138306,202,6,202z"/>
	<g>
		<defs>
			<polyline id="SVGID_1_" points="126.387695,131.541504 27.096161,131.541504 27.096161,143.800293 126.387695,143.800293 
				126.387695,131.541504 			"/>
		</defs>
		<clipPath id="SVGID_2_">
			<use xlink:href="#SVGID_1_"  style="overflow:visible;"/>
		</clipPath>
		<rect x="27.096161" y="131.541504" style="clip-path:url(#SVGID_2_);fill:#FE4C61;" width="99.291534" height="12.258789"/>
		<g style="clip-path:url(#SVGID_2_);">
			<path style="fill:#330F13;" d="M27.097656,131.945312h5.699219v1.339844H28.625v2.484375h3.628906v1.332031H28.625v2.558594
				h4.277344V141h-5.804688V131.945312z"/>
			<path style="fill:#330F13;" d="M33.56543,134.632812h1.132812V133.75c0-1.445312,0.824219-2.222656,2.269531-2.222656
				c0.429688,0,0.816406,0.070312,1.191406,0.15625l-0.171875,1.1875c-0.242188-0.042969-0.511719-0.089844-0.78125-0.089844
				c-0.816406,0-1.027344,0.421875-1.027344,1.238281v0.613281h1.253906v1.253906h-1.253906V141h-1.480469v-5.113281H33.56543
				V134.632812z M37.889648,135.886719v-1.253906h1.132812V133.75c0-1.445312,0.824219-2.222656,2.269531-2.222656
				c0.429688,0,0.816406,0.070312,1.191406,0.15625l-0.171875,1.1875c-0.242188-0.042969-0.511719-0.089844-0.78125-0.089844
				c-0.816406,0-1.027344,0.421875-1.027344,1.238281v0.613281h1.621094v1.253906H40.50293V141h-1.480469v-5.113281H37.889648z"/>
			<path style="fill:#330F13;" d="M45.90918,141.128906c-1.800781,0-3.277344-1.148438-3.277344-3.273438
				c0-2.066406,1.410156-3.351562,3.1875-3.351562c1.851562,0,3.003906,1.386719,3.003906,3.203125
				c0,0.203125-0.015625,0.421875-0.03125,0.546875h-4.675781c0.105469,1.039062,0.828125,1.667969,1.886719,1.667969
				c0.632812,0,1.257812-0.226562,1.738281-0.589844L48.40918,140.25C47.78418,140.800781,46.870117,141.128906,45.90918,141.128906
				z M47.381836,137.25c-0.074219-0.832031-0.605469-1.527344-1.566406-1.527344c-0.898438,0-1.546875,0.609375-1.679688,1.527344
				H47.381836z"/>
			<path style="fill:#330F13;" d="M55.289062,140.351562c-0.644531,0.488281-1.457031,0.777344-2.3125,0.777344
				c-1.664062,0-3.292969-1.09375-3.292969-3.273438c0-2.085938,1.492188-3.351562,3.3125-3.351562
				c0.796875,0,1.621094,0.246094,2.207031,0.691406l-0.621094,1.035156c-0.417969-0.273438-0.957031-0.4375-1.464844-0.4375
				c-1.125,0-1.953125,0.8125-1.953125,2.019531c0,1.203125,0.816406,2.023438,1.9375,2.023438
				c0.511719,0,1.058594-0.171875,1.476562-0.460938L55.289062,140.351562z"/>
			<path style="fill:#330F13;" d="M55.740234,134.632812h1.117188v-1.957031l1.472656-0.273438v2.230469h1.554688v1.253906
				h-1.554688v2.546875c0,1.125,0.519531,1.324219,1.382812,1.496094l-0.175781,1.199219
				c-1.320312,0-2.679688-0.582031-2.679688-2.257812v-2.984375h-1.117188V134.632812z"/>
			<path style="fill:#330F13;" d="M60.823242,132.59375c0-0.507812,0.414062-0.921875,0.925781-0.921875
				c0.507812,0,0.921875,0.414062,0.921875,0.921875c0,0.511719-0.414062,0.925781-0.921875,0.925781
				C61.237305,133.519531,60.823242,133.105469,60.823242,132.59375z M61.006836,134.632812h1.476562V141h-1.476562V134.632812z"/>
			<path style="fill:#330F13;" d="M66.732422,139.421875l1.695312-4.789062h1.496094L67.427734,141h-1.484375l-2.40625-6.367188
				h1.59375L66.732422,139.421875z"/>
			<path style="fill:#330F13;" d="M73.62793,141.128906c-1.800781,0-3.277344-1.148438-3.277344-3.273438
				c0-2.066406,1.410156-3.351562,3.1875-3.351562c1.851562,0,3.003906,1.386719,3.003906,3.203125
				c0,0.203125-0.015625,0.421875-0.03125,0.546875h-4.675781c0.105469,1.039062,0.828125,1.667969,1.886719,1.667969
				c0.632812,0,1.257812-0.226562,1.738281-0.589844L76.12793,140.25C75.50293,140.800781,74.588867,141.128906,73.62793,141.128906
				z M75.100586,137.25c-0.074219-0.832031-0.605469-1.527344-1.566406-1.527344c-0.898438,0-1.546875,0.609375-1.679688,1.527344
				H75.100586z"/>
			<path style="fill:#330F13;" d="M81.241211,131.945312h1.53125v7.714844h4.039062V141h-5.570312V131.945312z"/>
			<path style="fill:#330F13;" d="M93.226562,141.125c-0.804688,0-1.53125-0.285156-1.589844-0.945312
				c-0.429688,0.664062-1.25,0.949219-2.039062,0.949219c-1.234375,0-2.269531-0.703125-2.269531-1.964844
				c0-1.242188,0.996094-2.089844,2.765625-2.089844c0.515625,0,1.039062,0.074219,1.421875,0.152344v-0.324219
				c0-0.855469-0.613281-1.179688-1.453125-1.179688c-0.640625,0-1.316406,0.1875-1.824219,0.464844l-0.449219-0.992188
				c0.703125-0.503906,1.675781-0.691406,2.527344-0.691406c1.703125,0,2.65625,0.746094,2.65625,2.238281v2.398438
				c0,0.5,0.097656,0.742188,0.429688,0.921875L93.226562,141.125z M90.253906,138.132812
				c-1.039062,0-1.503906,0.351562-1.503906,0.941406c0,0.636719,0.53125,0.882812,1.074219,0.882812
				c0.777344,0,1.691406-0.507812,1.691406-1.285156v-0.402344C91.203125,138.203125,90.71875,138.132812,90.253906,138.132812z"/>
			<path style="fill:#330F13;" d="M99.041016,141v-3.789062c0-0.84375-0.464844-1.386719-1.316406-1.386719
				c-0.933594,0-1.507812,0.664062-1.507812,1.605469V141h-1.484375v-6.367188h1.214844l0.125,0.867188
				c0.480469-0.664062,1.238281-0.996094,2.09375-0.996094c1.546875,0,2.351562,1.0625,2.351562,2.625V141H99.041016z"/>
			<path style="fill:#330F13;" d="M106.830078,140.089844c-0.488281,0.691406-1.269531,1.039062-2.128906,1.039062
				c-1.683594,0-2.941406-1.324219-2.941406-3.3125c0-1.8125,1.0625-3.3125,2.941406-3.3125
				c0.78125,0,1.515625,0.269531,1.988281,0.886719v-3.589844l1.480469-0.273438V141h-1.214844L106.830078,140.089844z
				 M106.736328,137.796875c0-1.140625-0.671875-1.988281-1.746094-1.988281c-1.050781,0-1.746094,0.808594-1.746094,2.007812
				c0,1.242188,0.742188,2.019531,1.769531,2.019531C106.169922,139.835938,106.736328,138.851562,106.736328,137.796875z"/>
			<path style="fill:#330F13;" d="M109.662109,132.59375c0-0.507812,0.414062-0.921875,0.925781-0.921875
				c0.507812,0,0.921875,0.414062,0.921875,0.921875c0,0.511719-0.414062,0.925781-0.921875,0.925781
				C110.076172,133.519531,109.662109,133.105469,109.662109,132.59375z M109.845703,134.632812h1.476562V141h-1.476562V134.632812z
				"/>
			<path style="fill:#330F13;" d="M117.310547,141v-3.789062c0-0.84375-0.464844-1.386719-1.316406-1.386719
				c-0.933594,0-1.507812,0.664062-1.507812,1.605469V141h-1.484375v-6.367188h1.214844l0.125,0.867188
				c0.480469-0.664062,1.238281-0.996094,2.09375-0.996094c1.546875,0,2.351562,1.0625,2.351562,2.625V141H117.310547z"/>
			<path style="fill:#330F13;" d="M126.427734,140.679688c0,2.007812-1.351562,3.125-3.285156,3.125
				c-1.046875,0-1.964844-0.332031-2.695312-0.964844l0.6875-0.9375c0.519531,0.390625,1.195312,0.621094,1.882812,0.621094
				c1.105469,0,1.933594-0.589844,1.933594-2.042969v-0.457031c-0.464844,0.621094-1.25,0.902344-2.035156,0.902344
				c-1.738281,0-2.878906-1.339844-2.878906-3.179688c0-2.011719,1.34375-3.242188,2.957031-3.242188
				c0.832031,0,1.632812,0.328125,2.078125,1.015625l0.121094-0.886719h1.234375V140.679688z M124.978516,137.71875
				c0-1.082031-0.628906-1.917969-1.714844-1.917969c-1.082031,0-1.746094,0.832031-1.746094,1.941406
				c0,1.113281,0.671875,1.90625,1.742188,1.90625C124.373047,139.648438,124.978516,138.78125,124.978516,137.71875z"/>
		</g>
	</g>
	<g>
		<defs>
			<polyline id="SVGID_3_" points="138.588928,149.685486 27.096161,149.685486 27.096161,161.800781 138.588928,161.800781 
				138.588928,149.685486 			"/>
		</defs>
		<clipPath id="SVGID_4_">
			<use xlink:href="#SVGID_3_"  style="overflow:visible;"/>
		</clipPath>
		<rect x="27.096161" y="149.685486" style="clip-path:url(#SVGID_4_);fill:#FE4C61;" width="111.492767" height="12.115295"/>
		<g style="clip-path:url(#SVGID_4_);">
			<path style="fill:#330F13;" d="M28.609375,159h-1.511719v-9.054688h3.3125c2.015625,0,3.125,1.257812,3.125,2.914062
				c0,1.710938-1.1875,2.984375-3.113281,2.984375h-1.8125V159z M30.214844,154.507812
				c1.140625,0,1.792969-0.617188,1.792969-1.628906c0-1.023438-0.671875-1.597656-1.792969-1.597656h-1.605469v3.226562H30.214844z
				"/>
			<path style="fill:#330F13;" d="M39.951172,159.125c-0.804688,0-1.53125-0.285156-1.589844-0.945312
				c-0.429688,0.664062-1.25,0.949219-2.039062,0.949219c-1.234375,0-2.269531-0.703125-2.269531-1.964844
				c0-1.242188,0.996094-2.089844,2.765625-2.089844c0.515625,0,1.039062,0.074219,1.421875,0.152344v-0.324219
				c0-0.855469-0.613281-1.179688-1.453125-1.179688c-0.640625,0-1.316406,0.1875-1.824219,0.464844l-0.449219-0.992188
				c0.703125-0.503906,1.675781-0.691406,2.527344-0.691406c1.703125,0,2.65625,0.746094,2.65625,2.238281v2.398438
				c0,0.5,0.097656,0.742188,0.429688,0.921875L39.951172,159.125z M36.978516,156.132812
				c-1.039062,0-1.503906,0.351562-1.503906,0.941406c0,0.636719,0.53125,0.882812,1.074219,0.882812
				c0.777344,0,1.691406-0.507812,1.691406-1.285156v-0.402344C37.927734,156.203125,37.443359,156.132812,36.978516,156.132812z"/>
			<path style="fill:#330F13;" d="M47.499023,158.679688c0,2.007812-1.351562,3.125-3.285156,3.125
				c-1.046875,0-1.964844-0.332031-2.695312-0.964844l0.6875-0.9375c0.519531,0.390625,1.195312,0.621094,1.882812,0.621094
				c1.105469,0,1.933594-0.589844,1.933594-2.042969v-0.457031c-0.464844,0.621094-1.25,0.902344-2.035156,0.902344
				c-1.738281,0-2.878906-1.339844-2.878906-3.179688c0-2.011719,1.34375-3.242188,2.957031-3.242188
				c0.832031,0,1.632812,0.328125,2.078125,1.015625l0.121094-0.886719h1.234375V158.679688z M46.049805,155.71875
				c0-1.082031-0.628906-1.917969-1.714844-1.917969c-1.082031,0-1.746094,0.832031-1.746094,1.941406
				c0,1.113281,0.671875,1.90625,1.742188,1.90625C45.444336,157.648438,46.049805,156.78125,46.049805,155.71875z"/>
			<path style="fill:#330F13;" d="M52.081055,159.128906c-1.800781,0-3.277344-1.148438-3.277344-3.273438
				c0-2.066406,1.410156-3.351562,3.1875-3.351562c1.851562,0,3.003906,1.386719,3.003906,3.203125
				c0,0.203125-0.015625,0.421875-0.03125,0.546875h-4.675781c0.105469,1.039062,0.828125,1.667969,1.886719,1.667969
				c0.632812,0,1.257812-0.226562,1.738281-0.589844L54.581055,158.25
				C53.956055,158.800781,53.041992,159.128906,52.081055,159.128906z M53.553711,155.25
				c-0.074219-0.832031-0.605469-1.527344-1.566406-1.527344c-0.898438,0-1.546875,0.609375-1.679688,1.527344H53.553711z"/>
			<path style="fill:#330F13;" d="M58.164062,157.921875c0.570312,0,1.136719-0.179688,1.136719-0.707031
				c0-1.261719-3.328125-0.390625-3.328125-2.75c0-1.34375,1.074219-1.960938,2.371094-1.960938
				c0.859375,0,1.632812,0.273438,2.222656,0.734375l-0.554688,0.921875c-0.480469-0.304688-1.082031-0.480469-1.574219-0.480469
				c-0.527344,0-1.019531,0.203125-1.019531,0.683594c0,1.25,3.351562,0.445312,3.351562,2.789062
				c0,1.351562-1.113281,1.976562-2.523438,1.976562c-1.050781,0-1.734375-0.351562-2.503906-0.9375l0.660156-0.890625
				C56.949219,157.675781,57.496094,157.921875,58.164062,157.921875z"/>
			<path style="fill:#330F13;" d="M61.983398,155.003906h12.34375v1.113281h-12.34375V155.003906z"/>
			<path style="fill:#330F13;" d="M81.173828,156.726562h-3.574219L76.818359,159h-1.578125l3.289062-9.054688h1.765625
				L83.626953,159h-1.660156L81.173828,156.726562z M80.740234,155.441406l-1.363281-3.894531l-1.347656,3.894531H80.740234z"/>
			<path style="fill:#330F13;" d="M90.188477,157.757812c0.945312,0,1.765625-0.359375,1.765625-1.226562
				c0-2.054688-4.726562-0.773438-4.726562-4.019531c0-1.753906,1.375-2.695312,3.09375-2.695312
				c1.082031,0,2.203125,0.371094,3.03125,1.019531l-0.679688,1.0625c-0.644531-0.46875-1.539062-0.738281-2.265625-0.738281
				c-0.898438,0-1.664062,0.410156-1.664062,1.230469c0,2.03125,4.757812,0.691406,4.757812,4.007812
				c0,1.835938-1.453125,2.730469-3.25,2.730469c-1.25,0-2.355469-0.433594-3.285156-1.179688l0.691406-1.089844
				C88.426758,157.445312,89.305664,157.757812,90.188477,157.757812z"/>
			<path style="fill:#330F13;" d="M94.021484,152.632812h1.117188v-1.957031l1.472656-0.273438v2.230469h1.554688v1.253906
				h-1.554688v2.546875c0,1.125,0.519531,1.324219,1.382812,1.496094l-0.175781,1.199219
				c-1.320312,0-2.679688-0.582031-2.679688-2.257812v-2.984375h-1.117188V152.632812z"/>
			<path style="fill:#330F13;" d="M99.288086,152.632812h1.214844l0.128906,0.972656l0.011719,0.003906
				c0.359375-0.757812,0.878906-1.105469,1.726562-1.105469c0.292969,0,0.570312,0.042969,0.839844,0.121094l-0.230469,1.363281
				c-0.230469-0.070312-0.449219-0.105469-0.683594-0.105469c-1.257812,0-1.535156,1.078125-1.535156,2.332031V159h-1.472656
				V152.632812z"/>
			<path style="fill:#330F13;" d="M109.458008,159.125c-0.804688,0-1.53125-0.285156-1.589844-0.945312
				c-0.429688,0.664062-1.25,0.949219-2.039062,0.949219c-1.234375,0-2.269531-0.703125-2.269531-1.964844
				c0-1.242188,0.996094-2.089844,2.765625-2.089844c0.515625,0,1.039062,0.074219,1.421875,0.152344v-0.324219
				c0-0.855469-0.613281-1.179688-1.453125-1.179688c-0.640625,0-1.316406,0.1875-1.824219,0.464844l-0.449219-0.992188
				c0.703125-0.503906,1.675781-0.691406,2.527344-0.691406c1.703125,0,2.65625,0.746094,2.65625,2.238281v2.398438
				c0,0.5,0.097656,0.742188,0.429688,0.921875L109.458008,159.125z M106.485352,156.132812
				c-1.039062,0-1.503906,0.351562-1.503906,0.941406c0,0.636719,0.53125,0.882812,1.074219,0.882812
				c0.777344,0,1.691406-0.507812,1.691406-1.285156v-0.402344C107.43457,156.203125,106.950195,156.132812,106.485352,156.132812z"
				/>
			<path style="fill:#330F13;" d="M110.244141,152.632812h1.117188v-1.957031l1.472656-0.273438v2.230469h1.554688v1.253906
				h-1.554688v2.546875c0,1.125,0.519531,1.324219,1.382812,1.496094l-0.175781,1.199219
				c-1.320312,0-2.679688-0.582031-2.679688-2.257812v-2.984375h-1.117188V152.632812z"/>
			<path style="fill:#330F13;" d="M118.369141,159.128906c-1.800781,0-3.277344-1.148438-3.277344-3.273438
				c0-2.066406,1.410156-3.351562,3.1875-3.351562c1.851562,0,3.003906,1.386719,3.003906,3.203125
				c0,0.203125-0.015625,0.421875-0.03125,0.546875h-4.675781c0.105469,1.039062,0.828125,1.667969,1.886719,1.667969
				c0.632812,0,1.257812-0.226562,1.738281-0.589844l0.667969,0.917969
				C120.244141,158.800781,119.330078,159.128906,118.369141,159.128906z M119.841797,155.25
				c-0.074219-0.832031-0.605469-1.527344-1.566406-1.527344c-0.898438,0-1.546875,0.609375-1.679688,1.527344H119.841797z"/>
			<path style="fill:#330F13;" d="M128.549805,158.679688c0,2.007812-1.351562,3.125-3.285156,3.125
				c-1.046875,0-1.964844-0.332031-2.695312-0.964844l0.6875-0.9375c0.519531,0.390625,1.195312,0.621094,1.882812,0.621094
				c1.105469,0,1.933594-0.589844,1.933594-2.042969v-0.457031c-0.464844,0.621094-1.25,0.902344-2.035156,0.902344
				c-1.738281,0-2.878906-1.339844-2.878906-3.179688c0-2.011719,1.34375-3.242188,2.957031-3.242188
				c0.832031,0,1.632812,0.328125,2.078125,1.015625l0.121094-0.886719h1.234375V158.679688z M127.100586,155.71875
				c0-1.082031-0.628906-1.917969-1.714844-1.917969c-1.082031,0-1.746094,0.832031-1.746094,1.941406
				c0,1.113281,0.671875,1.90625,1.742188,1.90625C126.495117,157.648438,127.100586,156.78125,127.100586,155.71875z"/>
			<path style="fill:#330F13;" d="M130.038086,150.59375c0-0.507812,0.414062-0.921875,0.925781-0.921875
				c0.507812,0,0.921875,0.414062,0.921875,0.921875c0,0.511719-0.414062,0.925781-0.921875,0.925781
				C130.452148,151.519531,130.038086,151.105469,130.038086,150.59375z M130.22168,152.632812h1.476562V159h-1.476562V152.632812z"
				/>
			<path style="fill:#330F13;" d="M138.619141,158.351562c-0.644531,0.488281-1.457031,0.777344-2.3125,0.777344
				c-1.664062,0-3.292969-1.09375-3.292969-3.273438c0-2.085938,1.492188-3.351562,3.3125-3.351562
				c0.796875,0,1.621094,0.246094,2.207031,0.691406l-0.621094,1.035156c-0.417969-0.273438-0.957031-0.4375-1.464844-0.4375
				c-1.125,0-1.953125,0.8125-1.953125,2.019531c0,1.203125,0.816406,2.023438,1.9375,2.023438
				c0.511719,0,1.058594-0.171875,1.476562-0.460938L138.619141,158.351562z"/>
		</g>
	</g>
	<g>
		<defs>
			<polyline id="SVGID_5_" points="91.495544,167.541992 27.096161,167.541992 27.096161,177.128906 91.495544,177.128906 
				91.495544,167.541992 			"/>
		</defs>
		<clipPath id="SVGID_6_">
			<use xlink:href="#SVGID_5_"  style="overflow:visible;"/>
		</clipPath>
		<rect x="27.096161" y="167.541992" style="clip-path:url(#SVGID_6_);fill:#FE4C61;" width="64.399384" height="9.586914"/>
		<g style="clip-path:url(#SVGID_6_);">
			<path style="fill:#330F13;" d="M28.625,177h-1.527344v-9.054688h5.738281v1.339844H28.625v2.667969h3.515625v1.332031H28.625V177
				z"/>
			<path style="fill:#330F13;" d="M33.222656,173.820312c0-1.976562,1.433594-3.316406,3.304688-3.316406
				c1.859375,0,3.296875,1.320312,3.296875,3.296875c0,1.980469-1.449219,3.328125-3.3125,3.328125
				C34.652344,177.128906,33.222656,175.792969,33.222656,173.820312z M38.332031,173.808594c0-1.171875-0.773438-2-1.808594-2
				s-1.820312,0.824219-1.820312,2.007812c0,1.171875,0.773438,2.019531,1.808594,2.019531
				C37.539062,175.835938,38.332031,174.988281,38.332031,173.808594z"/>
			<path style="fill:#330F13;" d="M46.782227,177h-1.21875l-0.117188-0.84375c-0.480469,0.6875-1.222656,0.972656-2.039062,0.972656
				c-1.578125,0-2.355469-1.054688-2.355469-2.636719v-3.859375h1.480469v3.789062c0,0.855469,0.429688,1.378906,1.296875,1.378906
				c0.953125,0,1.472656-0.640625,1.472656-1.605469v-3.5625h1.480469V177z"/>
			<path style="fill:#330F13;" d="M52.762695,177v-3.789062c0-0.84375-0.464844-1.386719-1.316406-1.386719
				c-0.933594,0-1.507812,0.664062-1.507812,1.605469V177h-1.484375v-6.367188h1.214844l0.125,0.867188
				c0.480469-0.664062,1.238281-0.996094,2.09375-0.996094c1.546875,0,2.351562,1.0625,2.351562,2.625V177H52.762695z"/>
			<path style="fill:#330F13;" d="M60.552734,176.089844c-0.488281,0.691406-1.269531,1.039062-2.128906,1.039062
				c-1.683594,0-2.941406-1.324219-2.941406-3.3125c0-1.8125,1.0625-3.3125,2.941406-3.3125
				c0.78125,0,1.515625,0.269531,1.988281,0.886719v-3.589844l1.480469-0.273438V177h-1.214844L60.552734,176.089844z
				 M60.458984,173.796875c0-1.140625-0.671875-1.988281-1.746094-1.988281c-1.050781,0-1.746094,0.808594-1.746094,2.007812
				c0,1.242188,0.742188,2.019531,1.769531,2.019531C59.892578,175.835938,60.458984,174.851562,60.458984,173.796875z"/>
			<path style="fill:#330F13;" d="M68.994141,177.125c-0.804688,0-1.53125-0.285156-1.589844-0.945312
				c-0.429688,0.664062-1.25,0.949219-2.039062,0.949219c-1.234375,0-2.269531-0.703125-2.269531-1.964844
				c0-1.242188,0.996094-2.089844,2.765625-2.089844c0.515625,0,1.039062,0.074219,1.421875,0.152344v-0.324219
				c0-0.855469-0.613281-1.179688-1.453125-1.179688c-0.640625,0-1.316406,0.1875-1.824219,0.464844l-0.449219-0.992188
				c0.703125-0.503906,1.675781-0.691406,2.527344-0.691406c1.703125,0,2.65625,0.746094,2.65625,2.238281v2.398438
				c0,0.5,0.097656,0.742188,0.429688,0.921875L68.994141,177.125z M66.021484,174.132812
				c-1.039062,0-1.503906,0.351562-1.503906,0.941406c0,0.636719,0.53125,0.882812,1.074219,0.882812
				c0.777344,0,1.691406-0.507812,1.691406-1.285156v-0.402344C66.970703,174.203125,66.486328,174.132812,66.021484,174.132812z"/>
			<path style="fill:#330F13;" d="M69.793945,170.632812h1.117188v-1.957031l1.472656-0.273438v2.230469h1.554688v1.253906
				h-1.554688v2.546875c0,1.125,0.519531,1.324219,1.382812,1.496094l-0.175781,1.199219
				c-1.320312,0-2.679688-0.582031-2.679688-2.257812v-2.984375h-1.117188V170.632812z"/>
			<path style="fill:#330F13;" d="M74.876953,168.59375c0-0.507812,0.414062-0.921875,0.925781-0.921875
				c0.507812,0,0.921875,0.414062,0.921875,0.921875c0,0.511719-0.414062,0.925781-0.921875,0.925781
				C75.291016,169.519531,74.876953,169.105469,74.876953,168.59375z M75.060547,170.632812h1.476562V177h-1.476562V170.632812z"/>
			<path style="fill:#330F13;" d="M77.844727,173.820312c0-1.976562,1.433594-3.316406,3.304688-3.316406
				c1.859375,0,3.296875,1.320312,3.296875,3.296875c0,1.980469-1.449219,3.328125-3.3125,3.328125
				C79.274414,177.128906,77.844727,175.792969,77.844727,173.820312z M82.954102,173.808594c0-1.171875-0.773438-2-1.808594-2
				s-1.820312,0.824219-1.820312,2.007812c0,1.171875,0.773438,2.019531,1.808594,2.019531
				C82.161133,175.835938,82.954102,174.988281,82.954102,173.808594z"/>
			<path style="fill:#330F13;" d="M90.051758,177v-3.789062c0-0.84375-0.464844-1.386719-1.316406-1.386719
				c-0.933594,0-1.507812,0.664062-1.507812,1.605469V177h-1.484375v-6.367188h1.214844l0.125,0.867188
				c0.480469-0.664062,1.238281-0.996094,2.09375-0.996094c1.546875,0,2.351562,1.0625,2.351562,2.625V177H90.051758z"/>
		</g>
	</g>
	<path d="M70.922852,23.509277l-0.09256,0.061707c-0.354828,0.879333-1.064453,1.820374-1.666077,1.820374
		c-0.231415,0-0.339386-0.107971-0.354797-0.370239c0-0.401123,0.262238-0.879333,0.555328-1.388428
		c0.339386-0.601624,0.740479-1.295837,0.725067-1.990051c-0.015442-0.493591-0.293121-1.018127-0.802185-1.187805h-0.015442
		c-1.172394-0.354797-2.190552,0.524475-2.915619,1.311279l-0.061707,0.030823l-0.046265-0.015442v-0.138855
		c0.308533-0.910156,1.172394-2.869324,2.252258-4.24231c0.154266-0.38562-0.84845-0.431915-1.033569-0.38562
		c-0.647919,0.169678-1.0336,0.894714-1.326691,1.434631c-1.002716,1.959229-1.619781,4.088074-1.866608,6.263245
		c-0.030853,0.293091-0.061707,0.601624-0.061707,0.910156c0.015411,0.894714,0.617065,0.94104,0.802185,0.94104
		s0.339386-0.077148,0.354797-0.09259l0.046295-0.077148c0-2.082581,1.835754-4.612549,2.992737-4.62793
		c0.138855,0,0.231415,0.046265,0.231415,0.262207c0,0.323975-0.246826,0.786743-0.509094,1.280396
		c-0.354797,0.647949-0.75589,1.388428-0.740448,2.082642c0.015411,0.833008,0.524506,1.295837,1.403809,1.280396
		c1.434662-0.030823,2.653381-1.619812,2.637939-2.576233C71.401062,23.771545,71.215942,23.540161,70.922852,23.509277z"/>
	<path d="M29.147644,27.535645c-1.943756,0.030823-3.11618-0.894775-3.147034-2.468262
		c-0.030853-1.511841,1.095306-2.637939,2.668793-2.653381c0.75592-0.015381,1.203278,0.339417,1.218719,0.94104
		c0,0.215942-0.09256,0.370239-0.09256,0.385681l-0.077148,0.046265l-0.077118-0.030823
		c-0.030853-0.030884-0.246826-0.216003-0.771332-0.200562c-0.910187,0.015381-1.465515,0.555359-1.450104,1.41925
		c0.015442,0.84845,0.694183,1.357544,1.835754,1.32666c1.450104-0.030823,2.529968-0.925598,2.499115-2.082581
		c-0.015411-1.002747-0.771332-1.388428-1.573517-1.804932c-0.817596-0.416504-1.743195-0.894714-1.774048-2.144287
		c-0.030853-1.388367,1.218689-2.421936,2.946472-2.437378c1.51181-0.030884,2.591675,0.725037,2.607086,1.835754
		c0.015442,1.12616-0.817596,1.218689-1.064423,1.218689c-0.077148,0-0.154266,0-0.246826-0.015442l-0.077148-0.046265v-0.09259
		c0,0,0.108002-0.231384,0.108002-0.617004c-0.015442-0.678772-0.555359-1.095337-1.403809-1.079895
		c-0.894745,0.015442-1.434692,0.447388-1.434692,1.12616c0.015442,0.709595,0.632507,1.033569,1.357544,1.403809
		c0.879333,0.447388,1.974609,1.002747,1.990021,2.514526C33.251129,25.992981,31.492493,27.489319,29.147644,27.535645z"/>
	<path d="M43.586914,25.206177c-0.539917,0.694214-1.558075,1.280457-2.344818,1.295837
		c-0.925598,0.015442-1.450104-0.47821-1.465546-1.372925c-0.015411-0.617065,0.231415-1.203308,0.493652-1.820374
		c0.293121-0.694214,0.586212-1.41925,0.586212-2.298584l0.077148-0.092529c0,0,0.262238-0.061707,0.447357-0.077148
		c0.524506-0.015381,0.84845,0.308533,0.863892,0.848511c0.015442,0.617004-0.277679,1.280396-0.570801,1.912842
		c-0.231384,0.524536-0.462769,1.03363-0.447357,1.40387c0,0.246826,0.09256,0.339355,0.354797,0.339355
		c1.141571-0.015442,2.622528-2.45282,2.699677-4.411987l0.061707-0.09259c0.030853-0.015381,0.169678-0.061707,0.354797-0.061707
		c0.555359-0.015381,0.894745,0.308533,0.894745,0.863892c0.015411,1.141602-0.987305,4.226868-1.264984,5.19873
		c-0.231415,0.771362-0.478241,1.480957-1.095276,2.113464c-0.586212,0.601624-1.434692,0.925598-2.360291,0.94104
		c-1.033569,0.015381-1.789459-0.524536-1.804901-1.311279c-0.015442-0.539917,0.262268-1.018127,0.771332-1.357544
		c0.323944-0.216003,0.75589-0.323975,1.234131-0.339355c0.262238,0,0.539917,0.030823,0.817596,0.092529
		c0.215973,0.046265,0.601654,0.293091,0.293121,0.524536c-0.09256,0.061707-0.215973,0.092529-0.323975,0.092529
		c-0.462799,0.030823-1.372955,0.169678-1.372955,0.786743c0,0.231384,0.154266,0.401123,0.57077,0.401123
		c0.863892-0.015442,1.527252-0.617065,1.866638-1.372986C43.232117,26.656311,43.540649,25.252502,43.586914,25.206177z"/>
	<path d="M55.326569,26.887695c-1.357544,0.030884-2.144318-0.817627-2.175171-2.298584
		c-0.030853-1.928284,1.280426-4.103455,3.224182-4.134277c0.971863-0.015442,1.588928,0.509033,1.60434,1.388367
		c0.015442,0.678772-0.293091,2.329407-3.316711,3.177856l-0.061707,0.046326L54.58609,25.14447
		c0.107971,0.385681,0.401093,0.555359,0.879303,0.555359c1.388397-0.030823,2.607086-1.311218,2.992767-1.928284l0.077118-0.046326
		c0.215973,0.030884,0.431946,0.200562,0.431946,0.555359C58.998077,25.237061,57.301147,26.856873,55.326569,26.887695z
		 M56.19046,21.642639c-0.725067,0.015442-1.480957,1.018188-1.650665,2.206055l0.030853,0.092529l0.061707,0.015442h0.030853
		c1.218719-0.447388,1.974609-1.172424,1.959198-1.866638C56.622406,21.766113,56.483551,21.627258,56.19046,21.642639z"/>
	<path d="M72.141541,26.579163h-0.123413c-0.231415-0.030823-0.431946-0.077148-0.586212-0.262207
		c-0.138855-0.154297-0.215973-0.339417-0.215973-0.555359c0-0.524536,0.447357-0.987305,0.94101-1.002747
		c0.462799-0.015442,0.771332,0.27771,0.802185,0.75592c0.015411,0.323914-0.077118,0.617065-0.262238,0.817627
		C72.558044,26.486633,72.357513,26.579163,72.141541,26.579163z M72.666046,24.188049
		c-0.370239,0-0.817627-0.169678-0.833038-1.095276c-0.030853-1.357544,0.509064-3.9646,1.203278-5.167908
		c0.293091-0.509094,0.647919-0.617065,0.894714-0.632507c0.18512,0,0.416534,0.077148,0.555359,0.246826
		c0.154266,0.200562,0.061707,0.401123,0,0.555359l-0.030853,0.077148c-0.246826,0.57074-0.447357,1.095276-0.632477,1.588928
		c-0.370239,1.049011-0.802185,2.869324-1.018158,4.041748l-0.046265,0.27771L72.666046,24.188049z"/>
	<path d="M37.154053,26.286072c-0.339386,0.385681-1.049011,0.94104-1.959198,0.956421
		c-1.095276,0.015442-1.835754-0.75592-1.851196-1.98999c-0.015411-0.709656,0.154266-1.434692,0.478241-2.0672
		c0.370239-0.740479,0.971863-1.342102,1.774048-1.820312c0.231415-0.138855,1.0336-0.570801,1.851196-0.586243
		c0.401093,0,0.75589,0.092529,1.018158,0.293091c0.66333,0.509094,0.524506,1.234131,0.308533,1.943787
		c-0.108002,0.38562-0.215973,0.786743-0.323975,1.172363c-0.169678,0.601685-0.555359,1.88208,0.493652,1.866638
		c1.157013-0.015442,1.110718-1.60437,1.434692-2.468262l0.154266,0.447388c0.123413,0.015442,0.47821,0.077148,0.493652,0.601624
		c0.015411,0.863892-1.079865,2.54541-2.607117,2.576233C37.60141,27.227112,37.262024,26.594604,37.154053,26.286072z
		 M37.431732,22.074646c-0.354828-0.200562-1.157013,0.308533-1.403839,0.493591
		c-0.416504,0.323975-0.740479,0.75592-0.987305,1.21875c-0.215973,0.447327-0.339386,0.940979-0.323944,1.434631
		c0.015411,0.617065,0.231384,0.663391,0.462799,0.663391c0.647919-0.015442,1.342102-0.586243,1.666077-1.141602
		c0.246826-0.431946,0.431915-0.894714,0.586182-1.372925C37.50885,23.092773,37.801971,22.259705,37.431732,22.074646z"/>
	<path d="M53.64505,24.727966c-0.293091,0.617065-1.048981,0.987305-1.619781,0.987305
		c0.09256-0.431946,0.246826-0.910156,0.339386-1.342102c0.200562-0.940979,0.462799-1.866577,0.771332-2.776794
		c0.339386-1.064392,0.802185-2.097961,1.388397-3.054443c0.061707-0.107971,0.123413-0.200562,0.200531-0.308533
		c0.123413-0.401062-0.879303-0.370239-1.064423-0.308533c-0.431946,0.138855-0.709625,0.555359-0.910156,0.94104
		c-0.354828,0.694153-0.555359,1.527222-0.802185,2.2677c-0.370239,1.110657-1.141571,2.807617-2.853943,2.838501
		c-1.851166,0.030823,0.570801-2.853943,0.539948-4.766846c-0.015442-0.956421-1.049011-1.60437-1.851196-0.725037
		c-0.154266,0.18512-0.030853,0.246826,0.09256,0.231384c0.462799-0.061707,0.354797,0.509094,0.323975,0.66333
		c-0.262268,1.573547-2.529968,4.381165-0.555359,5.769592c0.833008,0.586182,2.992737,0.030823,3.548096-0.802185
		c-0.077118,0.462769-0.215973,0.94104-0.323944,1.403809c-3.239594,0.061707-4.674255,1.079834-4.658844,2.622498
		c0.015442,1.018188,1.0336,1.434692,1.851196,1.41925c1.388397-0.030823,2.853912-0.75592,3.424713-2.067139
		c0.154266-0.354858,0.277679-0.725037,0.385651-1.110718c1.141571-0.015442,1.974609-0.586243,2.113434-1.234131
		L53.64505,24.727966z M48.106903,28.692627c-0.370239,0-0.57077-0.138855-0.57077-0.401062
		c-0.015442-0.632507,0.57077-1.450134,3.11618-1.619812C50.359192,27.859558,49.526154,28.661743,48.106903,28.692627z"/>
	<path d="M61.75943,25.854126c-0.339386,0.385681-1.048981,0.94104-1.959167,0.956421
		c-1.095276,0.015442-1.835754-0.755859-1.851196-1.98999c-0.015411-0.709656,0.154266-1.434692,0.478241-2.0672
		c0.370239-0.740479,0.971863-1.342102,1.774048-1.820312c0.231415-0.138855,1.033569-0.570801,1.851196-0.586243
		c0.401093,0,0.75589,0.09259,1.018158,0.293091c0.66333,0.509094,0.524506,1.234131,0.308533,1.943787
		c-0.108002,0.385681-0.215973,0.786743-0.323975,1.172424c-0.169678,0.601624-0.555359,1.882019,0.493652,1.866577
		c1.157013-0.015381,1.110718-1.60437,1.434692-2.468262l0.154266,0.447388c0.123413,0.015442,0.47821,0.077148,0.493652,0.601624
		c0.015411,0.863892-1.079865,2.54541-2.607117,2.576233C62.206818,26.795166,61.867432,26.162659,61.75943,25.854126z
		 M62.037109,21.642639c-0.354797-0.2005-1.156982,0.308533-1.403809,0.493652
		c-0.416504,0.323975-0.740479,0.75592-0.987305,1.21875c-0.215973,0.447327-0.339386,0.940979-0.323944,1.434631
		c0.015411,0.617065,0.231384,0.663391,0.462799,0.663391c0.647919-0.015442,1.342102-0.586243,1.666046-1.141602
		c0.246826-0.431946,0.431946-0.894714,0.586212-1.372986C62.114258,22.660828,62.407349,21.843201,62.037109,21.642639z"/>
	<polyline style="fill:#661E27;" points="103,96.000061 78.999908,96.000061 78.999908,97.000061 103,97.000061 103,96.000061 	"/>
	<polyline style="fill:#661E27;" points="103,100.000061 78.999908,100.000061 78.999908,101 103,101 103,100.000061 	"/>
	<polyline style="fill:#661E27;" points="94.999939,104 78.999908,104 78.999908,105 94.999939,105 94.999939,104 	"/>
	<polyline style="fill:#661E27;" points="103,91.999939 78.999908,91.999939 78.999908,92.999939 103,92.999939 103,91.999939 	"/>
	<path style="fill:#661E27;" d="M57.999969,59v-4H104v4H57.999969 M105,54H57v5.999939h29C86,59.448608,86.448486,59,87,59
		s1,0.448608,1,0.999939h1C89,59.448608,89.448608,59,90,59c0.551514,0,0.999939,0.448608,0.999939,0.999939h1
		c0-0.551331,0.448669-0.999939,1-0.999939c0.551514,0,1,0.448608,1,0.999939H105V54"/>
	<path style="fill:#661E27;" d="M87,59c-0.551514,0-1,0.448608-1,0.999939h2C88,59.448608,87.551514,59,87,59"/>
	<path style="fill:#661E27;" d="M90,59c-0.551392,0-1,0.448608-1,0.999939h1.999939C90.999939,59.448608,90.551514,59,90,59"/>
	<path style="fill:#661E27;" d="M92.999939,59c-0.551331,0-1,0.448608-1,0.999939h2C93.999939,59.448608,93.551453,59,92.999939,59"
		/>
	<path style="fill:#661E27;" d="M57.999969,86V65.000061H104V86H57.999969 M105,63.999939H57V87h48V63.999939"/>
	<path style="fill:#661E27;" d="M57.999969,106V91.999939h16V106H57.999969 M74.999969,90.999939H57v16h17.999969V90.999939"/>
	<line x1="61" y1="95" x2="71" y2="103"/>
	<line x1="71" y1="95" x2="61" y2="103"/>
	<path d="M108.999939,43.999939H53.000031c-1.100037,0-1.999969,0.899963-1.999969,2v65
		c0,1.100037,0.899933,2.000122,1.999969,2.000122h55.999908c1.100037,0,2-0.900085,2-2.000122v-65
		C110.999939,44.899902,110.099976,43.999939,108.999939,43.999939 M60.999939,45.999939c0.551544,0,1,0.448608,1,1
		c0,0.551514-0.448456,1-1,1c-0.551331,0-0.999969-0.448486-0.999969-1
		C59.999969,46.448547,60.448608,45.999939,60.999939,45.999939 M57.999969,45.999939c0.551544,0,1,0.448608,1,1
		c0,0.551514-0.448456,1-1,1c-0.551331,0-0.999969-0.448486-0.999969-1C57,46.448547,57.448639,45.999939,57.999969,45.999939
		 M55.000031,45.999939c0.551331,0,0.999969,0.448608,0.999969,1c0,0.551514-0.448639,1-0.999969,1c-0.551544,0-1-0.448486-1-1
		C54.000031,46.448547,54.448486,45.999939,55.000031,45.999939 M108.999939,110.999939H53.000031V50.000061h55.999908V110.999939"
		/>
	<path style="fill:#661E27;" d="M86.004639,75.476135l2.934631-2.934692l0.281494-0.120544
		c0.120544,0,0.200867,0.040283,0.281311,0.120544l0.522583,0.522766l0.120544,0.281372l-0.120544,0.281311l-3.738708,3.73877
		l-0.281311,0.120483c-0.120544,0-0.20105-0.040222-0.281372-0.120483l-1.889648-1.889526l-0.120544-0.281311
		c0-0.120728,0.040222-0.20105,0.120544-0.281494l0.522766-0.522583l0.281311-0.120544
		c0.120728,0,0.20105,0.040222,0.281494,0.120544L86.004639,75.476135 M87.01886,69.000061
		c-0.070007,0-0.139893,0.001282-0.210327,0.003845c-2.733643,0.080322-4.984802,2.010071-5.628113,4.542664
		c-0.075684,0.340271-0.40271,0.600769-0.775452,0.63147c-0.281494-0.028381-0.522949-0.177002-0.6315-0.43042
		c-0.442261-0.763855-1.286591-1.286438-2.21106-1.286438c-0.924622,0-1.768951,0.522583-2.21106,1.286438
		c-0.160767,0.281311-0.442108,0.442078-0.723602,0.442078h-0.080475c-0.321564,0-0.602875-0.160767-0.723602-0.401855
		c-0.440643-0.779663-1.310242-1.302185-2.270996-1.302246c-0.17865,0-0.360321,0.018066-0.543121,0.055847
		c-1.004944,0.20105-1.768799,1.045349-1.969635,2.050293c-0.281494,1.648254,0.964691,3.055237,2.53244,3.055237
		c0.965057,0,1.768951-0.522583,2.211243-1.286255c0.160797-0.281494,0.442108-0.442322,0.723602-0.442322h0.080322
		c0.321716,0,0.603058,0.160828,0.723602,0.442322c0.442261,0.763672,1.286438,1.286255,2.21106,1.286255
		c0.924805,0,1.768951-0.522583,2.21106-1.286255c0.144714-0.253296,0.387543-0.401855,0.639618-0.430481
		c0.364258,0.030029,0.654907,0.25647,0.767334,0.63147c0.643311,2.612915,3.015137,4.542664,5.829285,4.542664
		c3.37677,0,6.070374-2.773865,6.03009-6.150818C92.999573,71.68811,90.227173,69.000061,87.01886,69.000061"/>
	<polyline style="fill:#982E3A;" points="49.000092,106 31.999908,106 31.999908,106.999939 49.000092,106.999939 49.000092,106 	
		"/>
	<polyline style="fill:#982E3A;" points="49.000092,102 31.999908,102 31.999908,103 49.000092,103 49.000092,102 	"/>
	<polyline style="fill:#982E3A;" points="49.000092,98.000061 31.999908,98.000061 31.999908,99.000061 49.000092,99.000061 
		49.000092,98.000061 	"/>
	<polyline style="fill:#982E3A;" points="49.000092,93.999939 31.999908,93.999939 31.999908,94.999939 49.000092,94.999939 
		49.000092,93.999939 	"/>
	<polyline style="fill:#C13A4A;" points="49.000092,79.999939 31.999908,79.999939 31.999908,90.999939 49.000092,90.999939 
		49.000092,90 33.000092,90 33.000092,81.000061 49.000092,81.000061 49.000092,79.999939 	"/>
	<path style="fill:#982E3A;" d="M29.999939,74c-0.551361,0-1-0.448669-1-1c0-0.551514,0.448639-1,1-1c0.551544,0,1,0.448486,1,1
		C30.999939,73.551331,30.551483,74,29.999939,74 M33.000092,74c-0.551544,0-1.000183-0.448669-1.000183-1
		c0-0.551514,0.448639-1,1.000183-1c0.551361,0,0.999969,0.448486,0.999969,1C34.000061,73.551331,33.551453,74,33.000092,74
		 M36.000061,74c-0.551544,0-1-0.448669-1-1c0-0.551514,0.448456-1,1-1c0.551331,0,0.999969,0.448486,0.999969,1
		C37.000031,73.551331,36.551392,74,36.000061,74 M49.000092,70H27.999969C26.900085,70,26,70.899963,26,72v38.999939
		c0,1.100037,0.900085,2.000122,1.999969,2.000122h21.000122v-2.000122H27.999969v-35h21.000122V70"/>
</g>
</svg>
