<?xml version="1.0" encoding="utf-8"?>
<!-- Generator: Adobe Illustrator 19.2.0, SVG Export Plug-In . SVG Version: 6.00 Build 0)  -->
<svg version="1.1" xmlns="http://www.w3.org/2000/svg" xmlns:xlink="http://www.w3.org/1999/xlink" x="0px" y="0px"
	 viewBox="0 0 24 24" style="enable-background:new 0 0 24 24;" xml:space="preserve">
<g id="Layer_1">
	<g>
		<g>
			<g>
				<path d="M12-0.000244c-6.62738,0-12,5.372559-12,12s5.37262,12,12,12c6.627441,0,12-5.372559,12-12
					S18.627441-0.000244,12-0.000244z M19.282227,15.577881c-0.056152,0.34375-0.153809,0.69043-0.287598,1.016602
					c-0.133789,0.332031-0.331543,0.662109-0.587402,0.980469c-0.25,0.306641-0.565918,0.602539-0.938965,0.879883
					c-0.369629,0.270508-0.815918,0.521484-1.328613,0.745117c-0.015625,0.015625-0.081543,0.041992-0.162598,0.071289
					l-0.04834,0.016602l-0.129883,0.011719c-0.083496,0-0.172852-0.017578-0.265137-0.052734
					c-0.236328-0.081055-0.578613-0.213867-1.017578-0.398438c-0.4375-0.183594-0.944824-0.443359-1.550293-0.796875
					c-0.583496-0.342773-1.239746-0.791016-1.952637-1.332031c-0.704102-0.535156-1.463379-1.211914-2.255371-2.013672
					c-0.530762-0.539062-1-1.069336-1.395508-1.577148c-0.392578-0.50293-0.743652-0.993164-1.043457-1.457031
					c-0.292969-0.455078-0.543457-0.885742-0.744629-1.28125C5.374023,9.996826,5.216309,9.657959,5.09668,9.372803
					C4.977051,9.08374,4.889648,8.856201,4.833984,8.695068C4.746094,8.436279,4.735352,8.39624,4.735352,8.334717
					C4.681152,8.223389,4.692383,8.082764,4.762207,7.93042c0.267578-0.639648,0.571289-1.170898,0.898926-1.570312
					c0.327637-0.396484,0.649414-0.712891,0.957031-0.94043c0.323242-0.237305,0.611328-0.396484,0.881348-0.485352
					c0.249512-0.083008,0.435547-0.137695,0.558105-0.167969c0.121094-0.036133,0.245605-0.060547,0.354004-0.06543
					c0.01709,0,0.033203,0,0.04834,0c0.119629,0,0.177246,0.005859,0.223633,0.015625
					c0.090332,0.018555,0.15625,0.041992,0.210938,0.075195l0.050293,0.030273l0.080566,0.078125
					c0.300293,0.423828,0.58252,0.825195,0.850586,1.21582l0.342773,0.526367
					c0.118164,0.183594,0.231445,0.361328,0.339355,0.538086c0.108887,0.177734,0.209473,0.352539,0.30127,0.526367
					c0.091309,0.169922,0.169434,0.325195,0.232422,0.459961c0.094727,0.172852,0.065918,0.316406,0.023926,0.40332
					c-0.022949,0.046875-0.05957,0.105469-0.11377,0.180664c-0.152832,0.228516-0.333984,0.436523-0.532715,0.610352
					c-0.195312,0.171875-0.384766,0.314453-0.568848,0.429688c-0.185059,0.116211-0.341309,0.203125-0.470703,0.263672
					C9.410156,10.063232,9.39209,10.072021,9.375,10.079834c0.020996,0.038086,0.045898,0.081055,0.075195,0.131836
					c0.090332,0.158203,0.212891,0.347656,0.369141,0.575195c0.15918,0.234375,0.348633,0.492188,0.569336,0.777344
					c0.22168,0.282227,0.470215,0.575195,0.745605,0.874023c0.261719,0.292969,0.552246,0.569336,0.866211,0.823242
					c0.318848,0.256836,0.619141,0.483398,0.904297,0.676758c0.285156,0.192383,0.529785,0.351562,0.737793,0.473633
					c0.122559,0.071289,0.217773,0.12793,0.286133,0.168945c0.086426-0.219727,0.204102-0.435547,0.335449-0.623047
					c0.144531-0.207031,0.283691-0.380859,0.414062-0.523438c0.135254-0.150391,0.255371-0.263672,0.35791-0.345703
					c0.114746-0.088867,0.171387-0.132812,0.193848-0.146484c0.087402-0.069336,0.211426-0.113281,0.338867-0.113281
					c0.076172,0,0.152344,0.015625,0.226562,0.045898c0.324219,0.144531,0.638672,0.303711,0.95166,0.478516
					c0.310059,0.172852,0.605469,0.349609,0.883789,0.529297c0.279297,0.180664,0.538086,0.354492,0.782715,0.527344
					c0.24707,0.175781,0.460449,0.335938,0.642578,0.485352c0.061523,0.057617,0.102051,0.114258,0.162109,0.216797
					C19.272949,15.204834,19.32959,15.363037,19.282227,15.577881z"/>
			</g>
		</g>
	</g>
</g>
<g id="Layer_2">
</g>
</svg>
