<?xml version="1.0" encoding="utf-8"?>
<!-- Generator: Adobe Illustrator 19.0.1, SVG Export Plug-In . SVG Version: 6.00 Build 0)  -->
<svg version="1.1" xmlns="http://www.w3.org/2000/svg" xmlns:xlink="http://www.w3.org/1999/xlink" x="0px" y="0px"
	 viewBox="0 0 240 110" style="enable-background:new 0 0 240 110;" xml:space="preserve">
<g id="Layer_1">
	<g>
		<path d="M150.571289,82.131836l12.020569-1.717468l-7.917053,7.91864C143.485352,100.832031,127.460938,108,110.709961,108
			c-16.750488,0-32.775391-7.167969-43.964844-19.666992l-0.666992-0.745117l-1.490234,1.333984l0.666992,0.745117
			C76.82373,102.588867,93.391113,110,110.709961,110c17.318359,0,33.886719-7.411133,45.416992-20.292969l7.87854-7.87854
			l-1.717407,12.020142l1.980469,0.283203l2.330078-16.310547l-16.310547,2.330078L150.571289,82.131836z"/>
		<path d="M67,83v-1c0.414246,0,0.769592-0.251709,0.921387-0.61084C67.971985,81.269531,68,81.138184,68,81
			s-0.027954-0.269531-0.078552-0.38916C67.769653,80.251709,67.414246,80,67,80v-2h1c0.552307,0,1-0.447754,1-1s-0.447693-1-1-1
			h-0.978394c0.063232-0.185059,0.111877-0.376953,0.136719-0.577881c0.475403-3.841797,2.020386-8.02002,4.623779-10.913818
			C74.987671,60.945068,77,55.680908,77,51c0-8.836426-7.163452-16-16-16s-16,7.163574-16,16
			c0,4.680908,2.01239,9.945068,5.217957,13.508301c2.603333,2.893799,4.148376,7.072021,4.623718,10.913818
			C54.866516,75.623047,54.915161,75.814941,54.978394,76H54c-0.552307,0-1,0.447754-1,1s0.447693,1,1,1h1v2
			c-0.414246,0-0.769653,0.251709-0.921448,0.61084C54.027954,80.730469,54,80.861816,54,81s0.028015,0.269531,0.078613,0.38916
			C54.230408,81.748291,54.585754,82,55,82v1c0,1.656738,1.34314,3,3,3h0.183716C58.596985,87.162598,59.695679,88,61,88
			s2.403015-0.837402,2.816284-2H64C65.65686,86,67,84.656738,67,83z M65,82.5h-8V82h8V82.5z M65,80h-8v-0.5h8V80z M64.30719,76.5
			h-6.61438c-0.518616,0-0.955139-0.363098-1.01532-0.844604c-0.59613-4.770874-2.529602-9.259094-5.304626-12.313721
			C48.41272,60.083191,46.5,55.183655,46.5,50.858948C46.5,42.941284,53.0047,36.5,61,36.5c7.995361,0,14.5,6.441284,14.5,14.358948
			c0,4.324707-1.91272,9.224243-4.872803,12.482727c-2.775085,3.054626-4.708496,7.542847-5.304688,12.313721
			C65.262329,76.136902,64.825928,76.5,64.30719,76.5z"/>
		<path d="M64.916504,59.033203c-0.735352-0.118164-1.475586,0.084961-2.035156,0.560547
			C62.321289,60.070312,62,60.764648,62,61.499023V62h1v-0.500977c0-0.44043,0.192871-0.857422,0.529297-1.143555
			c0.34082-0.290039,0.777344-0.408203,1.226074-0.335938C65.464844,60.135742,66,60.817383,66,61.606445V62.5
			c0,0.275391-0.224121,0.5-0.5,0.5h-9c-0.275879,0-0.5-0.224609-0.5-0.5v-0.893555c0-0.789062,0.535156-1.470703,1.244629-1.586914
			c0.448242-0.072266,0.885254,0.045898,1.226074,0.335938C58.807129,60.641602,59,61.058594,59,61.499023V62h1v-0.500977
			c0-0.734375-0.321289-1.428711-0.881348-1.905273c-0.55957-0.475586-1.300781-0.679688-2.035156-0.560547
			C55.895996,59.226562,55,60.333008,55,61.606445V62.5c0,0.827148,0.672852,1.5,1.5,1.5H59v10h1V64h2v10h1V64h2.5
			c0.827148,0,1.5-0.672852,1.5-1.5v-0.893555C67,60.333008,66.104004,59.226562,64.916504,59.033203z"/>
		<path d="M34,53c0-0.552734-0.447754-1-1-1h-2c-0.552246,0-1,0.447266-1,1s0.447754,1,1,1h2C33.552246,54,34,53.552734,34,53z"/>
		<path d="M40,51.746094c0-0.552734-0.447754-1-1-1h-2c-0.552246,0-1,0.447266-1,1s0.447754,1,1,1h2
			C39.552246,52.746094,40,52.298828,40,51.746094z"/>
		<path d="M86,51.746094c0-0.552734-0.447754-1-1-1h-2c-0.552246,0-1,0.447266-1,1s0.447754,1,1,1h2
			C85.552246,52.746094,86,52.298828,86,51.746094z"/>
		<path d="M92,52c0-0.552734-0.447754-1-1-1h-2c-0.552246,0-1,0.447266-1,1s0.447754,1,1,1h2C91.552246,53,92,52.552734,92,52z"/>
		<path d="M34.388184,63.772461l-1.8125,0.844727c-0.500488,0.233398-0.717285,0.828125-0.483887,1.329102
			c0.169434,0.363281,0.530273,0.577148,0.906738,0.577148c0.141602,0,0.285156-0.030273,0.421875-0.09375l1.8125-0.844727
			c0.500488-0.233398,0.717285-0.828125,0.483887-1.329102C35.483887,63.755859,34.88916,63.541016,34.388184,63.772461z"/>
		<path d="M39.825684,61.236328l-1.8125,0.845703c-0.500488,0.233398-0.716797,0.828125-0.483398,1.329102
			c0.169922,0.363281,0.530273,0.577148,0.906738,0.577148c0.141602,0,0.285645-0.030273,0.422363-0.09375l1.8125-0.845703
			c0.500488-0.233398,0.716797-0.828125,0.483398-1.329102C40.921387,61.219727,40.325195,61.003906,39.825684,61.236328z"/>
		<path d="M81.751953,41.380554c0.141602,0,0.285645-0.030273,0.422363-0.09375l1.8125-0.845703
			c0.500488-0.233398,0.716797-0.828125,0.483398-1.329102c-0.233887-0.5-0.829102-0.71582-1.329102-0.483398l-1.8125,0.845703
			c-0.500488,0.233398-0.716797,0.828125-0.483398,1.329102C81.015137,41.166687,81.375488,41.380554,81.751953,41.380554z"/>
		<path d="M86.76709,36.938171c-0.500488,0.233398-0.717285,0.828125-0.483887,1.329102
			c0.169434,0.363281,0.530273,0.577148,0.906738,0.577148c0.141602,0,0.285156-0.030273,0.421875-0.09375l1.8125-0.844727
			c0.500488-0.233398,0.717285-0.828125,0.483887-1.329102c-0.23291-0.5-0.829102-0.71582-1.328613-0.483398L86.76709,36.938171z"/>
		<path d="M87.611816,63.772461c-0.5-0.231445-1.095215-0.016602-1.328613,0.483398
			c-0.233398,0.500977-0.016602,1.095703,0.483887,1.329102l1.8125,0.844727c0.136719,0.063477,0.280273,0.09375,0.421875,0.09375
			c0.376465,0,0.737305-0.213867,0.906738-0.577148c0.233398-0.500977,0.016602-1.095703-0.483887-1.329102L87.611816,63.772461z"/>
		<path d="M81.328613,63.048828l1.8125,0.845703c0.136719,0.063477,0.280762,0.09375,0.422363,0.09375
			c0.376465,0,0.736816-0.213867,0.906738-0.577148c0.233398-0.500977,0.01709-1.095703-0.483398-1.329102l-1.8125-0.845703
			c-0.5-0.232422-1.095215-0.016602-1.329102,0.483398C80.611816,62.220703,80.828125,62.81543,81.328613,63.048828z"/>
		<path d="M40.671387,39.474304l-1.8125-0.845703C38.358398,38.396179,37.763672,38.612,37.529785,39.112
			c-0.233398,0.500977-0.01709,1.095703,0.483398,1.329102l1.8125,0.845703c0.136719,0.063477,0.280762,0.09375,0.422363,0.09375
			c0.376465,0,0.736816-0.213867,0.906738-0.577148C41.388184,40.302429,41.171875,39.707703,40.671387,39.474304z"/>
		<path d="M35.23291,36.938171l-1.8125-0.844727c-0.5-0.232422-1.095215-0.016602-1.328613,0.483398
			c-0.233398,0.500977-0.016602,1.095703,0.483887,1.329102l1.8125,0.844727c0.136719,0.063477,0.280273,0.09375,0.421875,0.09375
			c0.376465,0,0.737305-0.213867,0.906738-0.577148C35.950195,37.766296,35.733398,37.17157,35.23291,36.938171z"/>
		<path d="M169.334412,69.102051c1.153076,4.545349,5.261292,7.910767,10.165344,7.910767
			c5.858948,0,10.596985-4.798523,10.498718-10.679871c-0.096375-5.76886-5.115234-10.520447-10.881226-10.313782
			c-4.7323,0.169678-8.656982,3.47467-9.781555,7.898987c-0.155029,0.609863-0.696472,1.023254-1.31604,1.074524
			c-0.47583-0.048889-0.901672-0.31488-1.144897-0.734924c-0.776123-1.34021-2.214661-2.2453-3.875427-2.2453
			c-1.660706,0-3.099243,0.90509-3.875366,2.2453c-0.268616,0.463867-0.756287,0.754822-1.292297,0.754822h-0.165833
			c-0.526794,0-1.017334-0.275635-1.278809-0.732971c-0.909058-1.590088-2.747375-2.5755-4.787598-2.179565
			c-1.765442,0.34259-3.20105,1.797058-3.523254,3.566345c-0.520325,2.857544,1.660645,5.346313,4.422913,5.346313
			c1.660767,0,3.099304-0.905029,3.875366-2.245239c0.268677-0.463867,0.756348-0.754822,1.292358-0.754822h0.164856
			c0.536011,0,1.023682,0.290955,1.292297,0.754822c0.776123,1.34021,2.214661,2.245239,3.875366,2.245239
			c1.660767,0,3.099304-0.905029,3.875427-2.245239c0.243286-0.420105,0.669189-0.686096,1.144958-0.734924
			C168.637695,68.083679,169.180176,68.494019,169.334412,69.102051z M174.059143,66.514099l0.94635-0.946411
			c0.124512-0.125977,0.296692-0.196167,0.473083-0.196167c0.175842-0.001526,0.348755,0.07019,0.473267,0.196167l1.891846,1.891296
			l5.204712-5.203369c0.124451-0.125977,0.296692-0.19635,0.473267-0.19635c0.175598,0,0.348572,0.070374,0.473083,0.19635
			l0.946228,0.944885c0.123901,0.126038,0.19635,0.297302,0.195618,0.474609c0.000732,0.175842-0.071716,0.347107-0.195618,0.471802
			l-6.624146,6.624146c-0.123779,0.124512-0.29657,0.196167-0.472351,0.196167c-0.176575,0-0.349365-0.071655-0.473145-0.196167
			l-3.312195-3.31073c-0.124512-0.125854-0.19696-0.297302-0.196228-0.474609
			C173.862915,66.811401,173.934631,66.638611,174.059143,66.514099z"/>
		<path d="M4.87793,13.866699c0.206055-0.067383,0.431641-0.118652,0.675781-0.153809
			c0.245117-0.035156,0.483398-0.058105,0.717773-0.068359c0.234375-0.010742,0.442383-0.02002,0.624023-0.026855
			c0.180664-0.006836,0.319336-0.013672,0.413086-0.020508c0.397461-0.02832,0.783203-0.008301,1.158203,0.059082
			c0.375,0.066895,0.74707,0.146484,1.118164,0.237793c0.370117,0.091797,0.737305,0.17041,1.100586,0.239258
			c0.363281,0.068359,0.731445,0.089355,1.105469,0.0625c-0.060547-0.348145-0.262695-0.645508-0.609375-0.891113
			c-0.344727-0.233398-0.774414-0.412109-1.289062-0.533691c-0.513672-0.122559-1.094727-0.205078-1.744141-0.246094
			c-0.649414-0.04248-1.30957-0.04248-1.983398-0.000977c-0.671875,0.041992-1.339844,0.109863-2.001953,0.204102
			c-0.664062,0.094238-1.272461,0.208008-1.827148,0.34082c-0.553711,0.133301-1.03125,0.279297-1.431641,0.436035
			c-0.399414,0.157715-0.675781,0.324707-0.828125,0.499512l0.005859,0.087891
			c0.014648,0.03418,0.041992,0.091309,0.083008,0.170898c0.041016,0.078125,0.074219,0.128906,0.099609,0.150879l0.035156-0.002441
			l0.036133,0.015137c0.011719-0.000977,0.029297-0.008301,0.051758-0.021484
			c0.011719-0.000977,0.029297-0.001953,0.052734-0.003906c0.021484-0.013184,0.075195-0.040527,0.161133-0.082031
			c0.084961-0.041504,0.138672-0.07373,0.160156-0.098633c0.046875-0.003418,0.125-0.008789,0.236328-0.016602
			c0.111328-0.008301,0.227539-0.019043,0.350586-0.033691c0.12207-0.014648,0.239258-0.025879,0.349609-0.033691
			c0.111328-0.007812,0.19043-0.013672,0.237305-0.01709c0.416992-0.088379,0.71582-0.085938,0.898438,0.005859
			c0.170898,0.08252,0.286133,0.256836,0.345703,0.522461s0.098633,0.606445,0.116211,1.022461
			c0.017578,0.415527,0.09375,0.906738,0.228516,1.473633c0.019531,0.280273-0.011719,0.504883-0.09375,0.675781
			c-0.094727,0.147949-0.219727,0.255859-0.373047,0.325684s-0.330078,0.114746-0.527344,0.134766
			c-0.199219,0.02002-0.402344,0.049316-0.611328,0.087402c-0.023438,0.001953-0.05957,0.024902-0.109375,0.069824
			c-0.049805,0.043457-0.073242,0.077637-0.072266,0.101074c0.015625,0.210938,0.079102,0.358398,0.19043,0.444824
			c0.098633,0.063965,0.226562,0.089844,0.384756,0.078613c0.157237-0.010742,0.326182-0.037598,0.504893-0.07959
			c0.179688-0.04248,0.353516-0.066406,0.523438-0.072754c0.169922-0.005859,0.322266,0.030273,0.458008,0.108887
			c0.133789,0.078613,0.227539,0.233398,0.279297,0.464355c0.068359,0.312988,0.123047,0.576172,0.162109,0.790039
			c0.038086,0.215332,0.066406,0.403809,0.083984,0.567383s0.03125,0.314941,0.041016,0.455566
			c0.009766,0.139648,0.029297,0.293945,0.05957,0.462891c0.029297,0.16748,0.069336,0.355957,0.118164,0.563477
			c0.049805,0.208496,0.12207,0.467773,0.214844,0.777832c-0.022461,0.025391-0.006836,0.041992,0.046875,0.049805
			s0.130859,0.008301,0.229492,0.001465c0.099609-0.007324,0.219727-0.012695,0.359375-0.016602
			c0.141602-0.004395,0.294922-0.000488,0.458984,0.01123c-0.054688-0.442383-0.101562-0.776855-0.141602-1.003418
			c-0.039062-0.226074-0.081055-0.405762-0.125-0.537109c-0.044922-0.132324-0.083008-0.24707-0.113281-0.344238
			c-0.030273-0.097656-0.066406-0.230957-0.107422-0.397461c-0.041016-0.167969-0.083984-0.399414-0.128906-0.695801
			c-0.044922-0.297363-0.097656-0.70752-0.158203-1.231445c0.832031-0.035156,1.542969-0.112305,2.133789-0.230957
			c0.59082-0.118164,1.048828-0.248047,1.373047-0.387695c0.325195-0.140625,0.515625-0.280762,0.570312-0.419434
			c0.054688-0.13916-0.038086-0.253418-0.280273-0.341309c-0.241211-0.088867-0.634766-0.131348-1.180664-0.12793
			s-1.254883,0.071289-2.125977,0.203613c-0.023438,0.001953-0.070312,0.004883-0.140625,0.010254
			c-0.070312,0.004883-0.140625,0.009766-0.210938,0.014648s-0.134766,0.009766-0.193359,0.013672
			c-0.058594,0.004395-0.097656,0.007324-0.121094,0.008789c-0.197266-0.115723-0.34082-0.310547-0.429688-0.585938
			c-0.089844-0.276367-0.152344-0.574219-0.1875-0.894531c-0.03418-0.320312-0.050781-0.633301-0.048828-0.939941
			c0.001953-0.305176-0.00293-0.54541-0.015625-0.721191c-0.011719-0.163086,0.042969-0.299316,0.164062-0.408203
			C4.506836,14.021973,4.671875,13.93457,4.87793,13.866699z"/>
		<path d="M15.964844,15.273926c-0.070312-0.077637-0.145508-0.144531-0.226562-0.203613
			c-0.079102-0.059082-0.168945-0.120605-0.267578-0.184082c-0.191406-0.04541-0.358398-0.083984-0.501953-0.11377
			c-0.142578-0.03125-0.277344-0.057129-0.402344-0.077637c-0.124023-0.020508-0.248047-0.032227-0.37207-0.035156
			c-0.123047-0.00293-0.266602,0.000977-0.430664,0.012695c-0.222656,0.015625-0.447266,0.061523-0.677734,0.136719
			c-0.229492,0.075195-0.456055,0.164551-0.676758,0.267578c-0.22169,0.104004-0.44043,0.213867-0.655273,0.329102
			c-0.21582,0.114258-0.424805,0.214844-0.630859,0.299805c-0.025391-0.021484-0.084961-0.046875-0.181641-0.075195
			c-0.095703-0.02832-0.15625-0.047852-0.180664-0.058105l-0.035156,0.002441c-0.023438,0.001953-0.035156,0-0.035156-0.005859
			c-0.000977-0.005859-0.006836-0.008789-0.018555-0.007812c-0.010742,0.000977-0.016602,0.004395-0.015625,0.010254
			c0,0.005859-0.005859,0.009277-0.017578,0.009766l-0.035156,0.002441c-0.06543,0.075195-0.109375,0.161133-0.131836,0.256836
			c-0.022461,0.094727-0.033203,0.195801-0.03125,0.301758c0.000977,0.105469,0.011719,0.207031,0.030273,0.305664
			c0.018555,0.099121,0.03125,0.189453,0.037109,0.270508c0.053711,0.430664,0.137695,0.909668,0.251953,1.436523
			c0.113281,0.525879,0.253906,1.06543,0.422852,1.617188c0.168945,0.552246,0.365234,1.09668,0.591797,1.632324
			c0.225586,0.536621,0.484375,1.02832,0.774414,1.478027c0.164062-0.011719,0.304688-0.089355,0.423828-0.232422
			c0.119141-0.143555,0.173828-0.274414,0.166016-0.390625c-0.045898-0.313477-0.120117-0.620605-0.223633-0.918457
			s-0.21582-0.598145-0.337891-0.901367c-0.120117-0.302734-0.248047-0.60498-0.380859-0.906738
			c-0.132812-0.30127-0.245117-0.605469-0.337891-0.910156c-0.091797-0.304688-0.155273-0.620117-0.19043-0.946289
			s-0.023438-0.663086,0.03418-1.007812c0.166016-0.316895,0.367188-0.541992,0.603516-0.676758
			c0.224609-0.157227,0.470703-0.25,0.738281-0.280762c0.268544-0.030762,0.550781-0.027344,0.84668,0.009277
			c0.296865,0.038086,0.584961,0.088379,0.865234,0.150879s0.548828,0.110352,0.803711,0.14502
			c0.254883,0.035156,0.475586,0.03418,0.660156-0.002441c-0.012695-0.186523-0.041992-0.337891-0.084961-0.452637
			C16.091797,15.447754,16.035156,15.351562,15.964844,15.273926z"/>
		<path d="M24.292969,16.656738c-0.154297-0.258789-0.332031-0.508301-0.538086-0.746094
			c-0.205078-0.237305-0.433594-0.444824-0.686523-0.620117c-0.253906-0.176758-0.515625-0.310059-0.786133-0.402832
			c-0.271484-0.092773-0.558594-0.128418-0.862305-0.106445c-0.573242,0.040527-1.137695,0.160156-1.693359,0.358398
			c-0.555664,0.197266-1.049805,0.477051-1.482422,0.836426c-0.433594,0.359375-0.772461,0.789062-1.018555,1.288086
			c-0.24707,0.499512-0.347656,1.070312-0.301758,1.712891c0.039062,0.549805,0.167969,1.042969,0.386719,1.47998
			c0.21875,0.436035,0.505859,0.794434,0.860352,1.075195c0.354492,0.280273,0.762695,0.48877,1.225586,0.626953
			c0.461914,0.136719,0.961914,0.187012,1.5,0.148438c0.525391-0.037109,1.03418-0.158691,1.525391-0.363281
			c0.489258-0.205566,0.921875-0.482422,1.296875-0.832031s0.662109-0.766113,0.863281-1.250488
			c0.200195-0.484375,0.279297-1.024902,0.237305-1.620605c-0.018555-0.256836-0.072266-0.520996-0.162109-0.790527
			S24.445312,16.916016,24.292969,16.656738z M23.56543,19.202637c-0.154297,0.29834-0.355469,0.57666-0.600586,0.835449
			c-0.24707,0.257812-0.506836,0.481445-0.78125,0.671875c-0.274414,0.189941-0.551758,0.338379-0.832031,0.446777
			c-0.280273,0.10791-0.520508,0.157715-0.720703,0.147949c-0.374023,0.026855-0.729492-0.021484-1.067383-0.14502
			c-0.336914-0.12207-0.635742-0.29834-0.891602-0.526367c-0.256836-0.228027-0.464844-0.504883-0.624023-0.828613
			c-0.157227-0.323242-0.249023-0.666016-0.274414-1.02832c-0.032227-0.444336,0.051758-0.844238,0.249023-1.19873
			c0.198242-0.354492,0.458984-0.655762,0.782227-0.901367s0.688477-0.439453,1.095703-0.580078
			c0.407227-0.140137,0.803711-0.224121,1.189453-0.251465c0.695312,0.197266,1.246094,0.424805,1.652344,0.68457
			c0.40625,0.258789,0.692383,0.538086,0.861328,0.837402c0.166992,0.299805,0.242188,0.605957,0.222656,0.917969
			C23.807617,18.597168,23.720703,18.902832,23.56543,19.202637z"/>
		<path d="M37.12207,17.279785c0.110352,0.391602,0.185547,0.709473,0.226562,0.953613
			c0.00293,0.046875,0.004883,0.154785,0.004883,0.325684c0.000977,0.169922-0.003906,0.349609-0.014648,0.538086
			c-0.009766,0.188965-0.017578,0.366211-0.024414,0.530273c-0.005859,0.165527-0.006836,0.264648-0.004883,0.299805
			l-0.009766,0.106934c0.00293,0.046875,0.006836,0.099609,0.010742,0.158203
			c0.003906,0.057617,0.005859,0.116211,0.003906,0.175293c-0.001965,0.059082-0.000977,0.106445,0.000977,0.141602
			c0.005859,0.082031,0.011719,0.157227,0.016602,0.227539s0.020508,0.133789,0.048828,0.19043
			c0.027344,0.057129,0.066406,0.103516,0.115234,0.141113c0.050781,0.037598,0.126953,0.052734,0.232422,0.04541
			c0.210938-0.015137,0.366211-0.140625,0.466797-0.376465c0.101562-0.23584,0.166016-0.505859,0.198242-0.807129
			c0.03125-0.301758,0.040039-0.595703,0.025391-0.883301c-0.014648-0.286621-0.025391-0.487793-0.03418-0.60498
			c-0.021484-0.303711-0.071289-0.634766-0.149414-0.993652c-0.079102-0.359375-0.188477-0.71875-0.332031-1.078613
			s-0.31543-0.706055-0.514648-1.038086c-0.200195-0.33252-0.431641-0.626953-0.696289-0.884766
			c-0.265625-0.257324-0.558594-0.456055-0.879894-0.598633c-0.321278-0.140625-0.681629-0.197754-1.07909-0.169434
			c-0.256836,0.018066-0.515625,0.092285-0.777344,0.22168c-0.260742,0.130371-0.513672,0.286621-0.758789,0.468262
			c-0.246094,0.182129-0.478516,0.377441-0.699219,0.587402c-0.219727,0.208984-0.411133,0.398926-0.576172,0.569824
			c-0.164062,0.169922-0.294922,0.314453-0.391602,0.433105c-0.097656,0.117676-0.151367,0.177734-0.163086,0.178711
			c-0.011719,0.000488-0.027344-0.001465-0.044922-0.005859s-0.033203-0.006348-0.044922-0.005859
			c-0.207031-0.26709-0.411133-0.498535-0.613281-0.696289c-0.202148-0.208496-0.419922-0.372559-0.651367-0.491699
			c-0.232422-0.118164-0.487305-0.203125-0.766602-0.253906c-0.280273-0.050781-0.589844-0.063965-0.928711-0.040039
			c-0.209961,0.015137-0.387695,0.033203-0.53418,0.055664c-0.144531,0.021973-0.282227,0.066895-0.412109,0.135254
			c-0.130859,0.067871-0.265625,0.163086-0.402344,0.284668c-0.138672,0.120605-0.294922,0.287598-0.467773,0.499512
			c-0.012695-0.186523-0.070312-0.335938-0.172852-0.445312c-0.102539-0.134277-0.253906-0.193848-0.453125-0.179688L25.788086,15
			c-0.009766,0.024414-0.037109,0.055664-0.082031,0.094238c-0.043945,0.038574-0.071289,0.069824-0.081055,0.094238
			c0.000977,0.023438,0.003906,0.060547,0.007812,0.113281s0.004883,0.111328,0.003906,0.17627
			c-0.001953,0.064941,0,0.126465,0.003906,0.184082c0.003906,0.058594,0.006836,0.099609,0.008789,0.123047
			c0.030273,0.420898,0.072266,0.817383,0.12793,1.189453c0.056641,0.37207,0.112305,0.740723,0.166992,1.106934
			c0.055664,0.366211,0.106445,0.753418,0.15332,1.161133c0.046875,0.408203,0.075195,0.852539,0.085938,1.333496
			c0.030273,0.091309,0.066406,0.197754,0.109375,0.318359c0.043945,0.120605,0.098633,0.227539,0.165039,0.322754
			c0.06543,0.095703,0.144531,0.172363,0.235352,0.229492c0.092773,0.058594,0.203125,0.083008,0.332031,0.07373
			c0.199219-0.01416,0.311523-0.089355,0.336914-0.226074c0.025391-0.137207,0.032227-0.287598,0.020508-0.450684
			c-0.032227-0.456055-0.09668-0.907227-0.192383-1.352539c-0.09668-0.445801-0.161133-0.901367-0.194336-1.369141
			c-0.021484-0.291992,0.00293-0.58252,0.070312-0.868652c0.068359-0.286621,0.172852-0.547363,0.314453-0.780273
			s0.331055-0.425781,0.567383-0.578125c0.236328-0.150879,0.511719-0.238281,0.827148-0.260742
			c0.40918-0.029297,0.753906,0.070312,1.03418,0.296875c0.28125,0.226074,0.524414,0.522949,0.733398,0.891113
			c0.207031,0.366699,0.388672,0.76123,0.541992,1.185059c0.15332,0.424316,0.298828,0.822266,0.4375,1.194336
			c0.137695,0.371582,0.282227,0.675781,0.43457,0.912109c0.151367,0.235352,0.333008,0.34668,0.542969,0.331543
			c0.199219-0.01416,0.320312-0.093262,0.362305-0.237793c0.041992-0.143555,0.058594-0.285645,0.048828-0.42627
			c-0.013672-0.186523-0.055664-0.366211-0.125977-0.537109c-0.070312-0.171387-0.144531-0.335938-0.219727-0.495605
			c-0.076172-0.158203-0.149414-0.321289-0.220703-0.486816c-0.069336-0.165039-0.111328-0.335449-0.123047-0.510254
			c-0.025391-0.350586,0.049805-0.690918,0.226562-1.021484c0.163086-0.340332,0.385742-0.646484,0.666016-0.918457
			c0.280273-0.273438,0.586914-0.5,0.920898-0.683105c0.333984-0.181641,0.658203-0.28418,0.973633-0.306641
			c0.350586-0.024414,0.664062,0.09375,0.942383,0.356445c0.276367,0.262207,0.512695,0.580078,0.709961,0.953613
			S37.011719,16.888184,37.12207,17.279785z"/>
		<path d="M46.238281,17.725586c0.135742,0.354492,0.300781,0.693359,0.494141,1.01416s0.418945,0.598633,0.675781,0.83252
			c0.256836,0.234863,0.546875,0.419434,0.868164,0.555664c0.320312,0.135254,0.673828,0.189941,1.05957,0.162598
			c0.046875-0.003418,0.108398-0.010742,0.183594-0.021973c0.076172-0.01123,0.125-0.017578,0.148438-0.019531l3.989258-1.146484
			c0.022461-0.013672,0.079102-0.045898,0.168945-0.099609c0.089844-0.053223,0.185547-0.125,0.285156-0.214355
			c0.098633-0.089355,0.180664-0.179688,0.244141-0.272461c0.064453-0.092773,0.094727-0.168945,0.089844-0.227539
			c-0.007824-0.116211-0.05957-0.183105-0.155273-0.199707c-0.094727-0.01709-0.188477-0.021973-0.282227-0.015137
			c-0.397461,0.027832-0.790039,0.091309-1.176758,0.189453c-0.386719,0.097656-0.772461,0.203613-1.157227,0.319336
			c-0.385742,0.115723-0.771484,0.225586-1.158203,0.32959c-0.385742,0.103027-0.777344,0.168945-1.174805,0.197266
			c-0.479492,0.033691-0.889648-0.071289-1.230469-0.318359c-0.339844-0.245605-0.618164-0.563477-0.833984-0.953613
			c-0.214844-0.390137-0.37793-0.819336-0.487305-1.287109c-0.110352-0.46875-0.178711-0.900391-0.207031-1.297852
			c-0.043945-0.620117,0.03125-1.209473,0.226562-1.77002c0.195312-0.55957,0.475586-1.079102,0.841797-1.557129
			c0.365234-0.478516,0.792969-0.908203,1.282227-1.289551c0.490234-0.381348,0.99707-0.695801,1.519531-0.944824
			c0.023438-0.001953,0.058594-0.004395,0.105469-0.007812c0.070312-0.004883,0.117188-0.008301,0.140625-0.009766
			c0.12793-0.009277,0.260742-0.003906,0.397461,0.016113c0.135742,0.019531,0.209961,0.111328,0.22168,0.274414
			c0.008789,0.128906,0,0.247559-0.02832,0.354492c-0.027344,0.10791-0.066406,0.213867-0.117188,0.317383
			c-0.051758,0.103027-0.091797,0.211914-0.119141,0.325684c-0.026367,0.11377-0.036133,0.228027-0.02832,0.345215
			c0.175781-0.012207,0.331055-0.091309,0.46875-0.236328c0.136719-0.144043,0.255859-0.317383,0.359375-0.518066
			c0.103516-0.20166,0.176758-0.40332,0.220703-0.606445c0.044922-0.202637,0.061523-0.380371,0.050781-0.531738
			c-0.018555-0.257812-0.105469-0.486328-0.259766-0.687012c-0.155273-0.200195-0.373047-0.291016-0.654297-0.270996
			c-0.490234,0.035156-0.974609,0.169434-1.451172,0.402344c-0.476562,0.246094-0.922852,0.559082-1.342773,0.941406
			s-0.796875,0.814453-1.132812,1.296387c-0.335938,0.482422-0.620117,0.984375-0.854492,1.505371
			c-0.232422,0.521973-0.40625,1.042969-0.522461,1.5625c-0.117188,0.518555-0.158203,1.012207-0.125,1.47998
			c0.022461,0.31543,0.069336,0.652344,0.142578,1.011719C45.996094,17.014648,46.100586,17.371094,46.238281,17.725586z"/>
		<path d="M56.37793,18.822266c0.354492,0.279785,0.762695,0.488281,1.225586,0.626465
			c0.461914,0.137207,0.960938,0.187012,1.499023,0.148926c0.526367-0.037598,1.03418-0.158691,1.524414-0.36377
			c0.491211-0.205078,0.923828-0.482422,1.298828-0.832031c0.375-0.349121,0.662109-0.766113,0.862305-1.250488
			c0.201172-0.484375,0.279297-1.024902,0.237305-1.620605c-0.018555-0.256836-0.072266-0.520996-0.161133-0.790527
			c-0.089844-0.269531-0.211914-0.534668-0.365234-0.793457c-0.15332-0.259277-0.333008-0.508301-0.537109-0.746094
			c-0.205078-0.237793-0.433594-0.445312-0.6875-0.620605c-0.25293-0.17627-0.515625-0.310059-0.786133-0.402832
			s-0.557617-0.12793-0.862305-0.106445c-0.572266,0.040527-1.137695,0.160156-1.692383,0.358398
			c-0.556641,0.197754-1.049805,0.477051-1.482422,0.836426c-0.433594,0.359375-0.772461,0.789062-1.018555,1.288574
			c-0.248047,0.499023-0.347656,1.069824-0.301758,1.712402c0.039062,0.549805,0.166992,1.042969,0.386719,1.47998
			C55.735352,18.182617,56.023438,18.541016,56.37793,18.822266z M56.229492,14.867676
			c0.198242-0.35498,0.457996-0.65625,0.78125-0.901855c0.324219-0.245605,0.689453-0.439453,1.095703-0.580078
			c0.407227-0.139648,0.803711-0.224121,1.189453-0.251465c0.696289,0.197266,1.246094,0.425293,1.652344,0.685059
			c0.40625,0.258789,0.693359,0.537598,0.861328,0.836914c0.167969,0.300293,0.243164,0.605957,0.223633,0.918457
			c-0.018555,0.3125-0.106445,0.618164-0.260742,0.91748c-0.155273,0.29834-0.355469,0.57666-0.602539,0.835449
			c-0.245117,0.258301-0.504883,0.481934-0.780273,0.671875c-0.274414,0.19043-0.550781,0.338379-0.831055,0.446777
			c-0.28125,0.108398-0.520508,0.157715-0.720703,0.148438c-0.374023,0.026367-0.730469-0.021973-1.068359-0.14502
			c-0.336914-0.122559-0.634766-0.298828-0.892578-0.526855c-0.255859-0.228027-0.462891-0.504883-0.62207-0.828125
			c-0.158203-0.32373-0.25-0.666504-0.275391-1.028809C55.947266,15.621582,56.03125,15.222168,56.229492,14.867676z"/>
		<path d="M64.044922,14.867676c0.064453,0.506836,0.154297,1.020508,0.267563,1.540527
			c0.113297,0.520996,0.252945,0.986816,0.416031,1.398438c0.165039,0.411621,0.367188,0.743652,0.609375,0.996094
			c0.240234,0.25293,0.525391,0.368164,0.852539,0.345215c-0.026367-0.374023-0.088867-0.745605-0.185547-1.114746
			s-0.202148-0.734863-0.31543-1.09668s-0.21875-0.724121-0.31543-1.087402s-0.157227-0.731934-0.183594-1.105957
			s0.015625-0.724609,0.12793-1.049316c0.112305-0.325195,0.277344-0.606934,0.496094-0.846191
			c0.216797-0.238281,0.479492-0.427246,0.787109-0.565918c0.307617-0.139648,0.642578-0.222168,1.004883-0.248047
			c0.385742-0.027344,0.760742,0.122559,1.124023,0.449219c0.364258,0.32666,0.683594,0.779785,0.959961,1.358887
			s0.495117,1.260742,0.65625,2.041992c0.161133,0.781738,0.220703,1.625488,0.179688,2.533203
			c0.003906,0.046875,0.026367,0.080566,0.068359,0.101074c0.042969,0.020508,0.09375,0.037598,0.15332,0.05127
			c0.060547,0.013184,0.119141,0.020996,0.178711,0.022461c0.057617,0.001953,0.098633,0.001953,0.12207,0
			c0.140625-0.009766,0.25293-0.097168,0.333984-0.262207c0.083008-0.163574,0.136719-0.353027,0.163086-0.565918
			c0.026367-0.213867,0.041016-0.425781,0.042969-0.638184c0.00293-0.210938,0.000977-0.369629-0.006836-0.475098
			c-0.021484-0.303711-0.076172-0.661133-0.164062-1.072266c-0.088867-0.410645-0.212891-0.831055-0.37207-1.259277
			c-0.15918-0.429199-0.347656-0.847656-0.564453-1.255371c-0.217773-0.407715-0.46875-0.771484-0.756836-1.091797
			c-0.286133-0.320312-0.603516-0.571777-0.951172-0.751953c-0.347656-0.181641-0.719727-0.257324-1.117188-0.229004
			c-0.304688,0.021484-0.607422,0.10791-0.907227,0.257812c-0.300781,0.150879-0.583984,0.312012-0.847656,0.48291
			c-0.263672,0.171875-0.506836,0.32959-0.732422,0.475098c-0.224609,0.145508-0.418945,0.224121-0.582031,0.23584
			c-0.058594,0.003906-0.101562-0.013672-0.12793-0.053223c-0.026367-0.039062-0.046875-0.082031-0.061523-0.12793
			c-0.015625-0.045898-0.038086-0.085449-0.070312-0.118652s-0.082031-0.047363-0.152344-0.041992
			c-0.09375,0.006348-0.177734,0.026855-0.251953,0.062012c-0.073242,0.034668-0.106445,0.104492-0.098633,0.209961
			c0.018555,0.256836,0.042969,0.610352,0.075195,1.060547S63.980469,14.361816,64.044922,14.867676z"/>
		<path d="M73.52832,17.631836c0.402344,0.294434,0.880859,0.498047,1.43457,0.611816
			c0.554688,0.112793,1.170898,0.145508,1.848633,0.097656c0.070312-0.004883,0.1875-0.013184,0.351562-0.024902
			c0.163086-0.011719,0.352539-0.033691,0.567383-0.066895c0.214844-0.032715,0.432617-0.068848,0.65332-0.10791
			c0.220703-0.039551,0.421875-0.09375,0.605469-0.165527c0.181641-0.072266,0.334961-0.159668,0.457031-0.262207
			c0.121094-0.102051,0.177734-0.217773,0.168945-0.34668c-0.000977-0.011719-0.003906-0.017578-0.009766-0.01709
			s-0.009766-0.01123-0.011719-0.034668l-0.003906-0.052734c-0.036133-0.009277-0.09668-0.033203-0.180664-0.074219
			c-0.084961-0.041016-0.145508-0.060547-0.180664-0.058105c-0.408203,0.052734-0.833008,0.100586-1.276367,0.143555
			c-0.444336,0.043457-0.887695,0.062988-1.334961,0.05957c-0.446289-0.003906-0.873047-0.044434-1.277344-0.121582
			c-0.405273-0.076172-0.767578-0.212402-1.085938-0.406738c-0.320312-0.195312-0.580078-0.461426-0.779297-0.799805
			c-0.200195-0.337891-0.320312-0.775879-0.358398-1.313965c-0.02832-0.397461,0.005859-0.790527,0.102539-1.179199
			c0.094727-0.388672,0.249023-0.743164,0.460938-1.063477c0.212891-0.320312,0.487305-0.586914,0.824219-0.79834
			c0.337891-0.212402,0.728516-0.334473,1.172852-0.365723c0.584961-0.041504,1.041992,0.111328,1.37207,0.458008
			s0.513657,0.794922,0.552734,1.344727c0.046875-0.003418,0.098633-0.062988,0.155273-0.178711
			c0.056641-0.116211,0.103516-0.245117,0.140625-0.38916c0.036133-0.143555,0.063477-0.286133,0.083008-0.428711
			C78,11.947754,78.007812,11.854004,78.004883,11.807129c-0.020508-0.292969-0.114258-0.529297-0.279297-0.710938
			c-0.166016-0.182617-0.369141-0.323242-0.612305-0.423828c-0.241211-0.100586-0.496094-0.167969-0.762695-0.202148
			c-0.266602-0.033203-0.517578-0.041992-0.750977-0.025391c-0.514648,0.036621-0.991211,0.181152-1.431641,0.436523
			c-0.44043,0.253906-0.819336,0.580078-1.137695,0.979492c-0.318359,0.398438-0.55957,0.84668-0.723633,1.345703
			c-0.164062,0.499512-0.228516,1.006836-0.191406,1.520508c0.047852,0.678711,0.195312,1.257812,0.44043,1.740234
			C72.800781,16.948242,73.125,17.336426,73.52832,17.631836z"/>
		<path d="M81.839844,16.689941c0.485352,0.370117,1.033203,0.645996,1.644531,0.825684
			c0.613281,0.180176,1.257812,0.245605,1.935547,0.197266c0.28125-0.02002,0.577148-0.064453,0.889648-0.133789
			c0.311523-0.068359,0.625-0.164062,0.939453-0.286621c0.314453-0.12207,0.609375-0.274414,0.883789-0.458984
			s0.49707-0.411133,0.665039-0.681152l-3.124023,0.432617c-0.726562,0.016113-1.339844-0.025879-1.84082-0.124512
			c-0.500977-0.100098-0.918945-0.240234-1.254883-0.422363c-0.335938-0.181641-0.597656-0.401367-0.787109-0.657715
			c-0.1875-0.256836-0.330078-0.529297-0.427734-0.815918c-0.09668-0.286621-0.162109-0.581055-0.195312-0.885254
			c-0.033203-0.302734-0.060547-0.605957-0.082031-0.909668c-0.02832-0.397461,0.009766-0.781738,0.112305-1.15332
			c0.103516-0.371582,0.260742-0.715332,0.473633-1.029785s0.478516-0.57666,0.798828-0.788086
			c0.320312-0.209961,0.683594-0.347656,1.088867-0.412109c0.256836-0.041504,0.490234-0.016602,0.702148,0.074219
			c0.211914,0.089844,0.400391,0.217773,0.564453,0.382812c0.165039,0.164062,0.292969,0.358398,0.384766,0.580078
			c0.091797,0.222656,0.146484,0.451172,0.163086,0.68457c0.015625,0.222656-0.084961,0.455566-0.302734,0.699707
			c-0.216797,0.245117-0.481445,0.46582-0.790039,0.664551c-0.308594,0.197754-0.614258,0.363281-0.916016,0.49707
			c-0.30275,0.131836-0.535156,0.20459-0.699219,0.216309c-0.283203-0.027344-0.507812-0.04541-0.672852-0.057129
			c-0.164062-0.000488-0.287109,0.01123-0.368164,0.034668c-0.080078,0.023438-0.12793,0.055176-0.141602,0.097656
			c-0.014648,0.041992-0.020508,0.092285-0.015625,0.150879c0.012695,0.1875,0.057617,0.324707,0.133789,0.413574
			c0.077148,0.088867,0.175781,0.151367,0.295898,0.189941s0.25293,0.052734,0.399414,0.04248s0.289062-0.020508,0.429688-0.030273
			c0.375-0.026855,0.772461-0.116699,1.196289-0.269531c0.423828-0.153809,0.814453-0.35791,1.172852-0.612305
			c0.357422-0.253906,0.647461-0.560059,0.869141-0.916504c0.220703-0.356445,0.317383-0.744629,0.287109-1.165527
			c-0.024414-0.350586-0.083008-0.675293-0.174805-0.974121c-0.104492-0.310547-0.254883-0.578613-0.454102-0.805176
			c-0.197266-0.227051-0.446289-0.411621-0.743164-0.555664c-0.297852-0.142578-0.641602-0.224121-1.030273-0.243652
			c-0.655273,0.046387-1.22168,0.212891-1.701172,0.499023c-0.479492,0.287598-0.875977,0.65332-1.191406,1.098633
			c-0.314453,0.445312-0.542969,0.951172-0.68457,1.519531c-0.141602,0.567871-0.191406,1.15625-0.148438,1.763672
			c0.051758,0.724609,0.229492,1.367676,0.533203,1.927246C80.960938,15.853027,81.355469,16.318848,81.839844,16.689941z"/>
		<path d="M89.925781,16.882812c0.111328,0.42627,0.238281,0.887207,0.379883,1.382812
			c0.140625,0.495117,0.292969,0.994629,0.458008,1.500488c0.166016,0.505371,0.332031,0.992188,0.500977,1.461914
			c0.168945,0.470215,0.332031,0.884277,0.493164,1.243164c0.161133,0.358398,0.3125,0.641113,0.457031,0.848633
			c0.143555,0.207031,0.273438,0.306641,0.390625,0.29834l0.105469-0.007324c0.022461-0.025391,0.076172-0.076172,0.165039-0.15332
			c0.076172-0.087891,0.125-0.148926,0.145508-0.186035l-0.001953-0.035156l0.014648-0.036133
			c-0.000977-0.023438-0.005859-0.043945-0.012695-0.061035s-0.011719-0.037598-0.013672-0.061035
			c-0.046875-0.172363-0.117188-0.449707-0.208984-0.831055s-0.194336-0.811523-0.311523-1.290039
			c-0.116211-0.479492-0.237305-0.985352-0.363281-1.516113c-0.125-0.532227-0.240234-1.038086-0.345703-1.517578
			c-0.104492-0.480469-0.200195-0.914062-0.286133-1.301758c-0.085938-0.387207-0.147461-0.673828-0.183594-0.859375
			c-0.001953-0.023438-0.020508-0.116211-0.054688-0.277832c-0.035156-0.162598-0.066422-0.350586-0.09375-0.566406
			c-0.027344-0.215332-0.056641-0.431152-0.089844-0.645508s-0.05957-0.38623-0.081055-0.514648l-0.014648-0.209961
			c-0.012695-0.175781,0.046875-0.337891,0.177734-0.488281c0.129883-0.150879,0.298828-0.288574,0.506836-0.415039
			c0.208984-0.126465,0.438477-0.236328,0.69043-0.330566s0.493164-0.17627,0.723633-0.245605
			c0.229492-0.069336,0.433594-0.121094,0.614243-0.157715c0.179703-0.036133,0.292007-0.055664,0.338882-0.059082
			c0.350586-0.024902,0.705078,0.00293,1.063477,0.08252c0.357422,0.080566,0.68457,0.20752,0.978516,0.379883
			c0.293945,0.173828,0.540039,0.399902,0.735352,0.679199C97,13.273926,97.112305,13.612305,97.140625,14.009766
			c0.019531,0.268555-0.064453,0.49707-0.251953,0.687012c-0.185547,0.188965-0.413086,0.34375-0.680664,0.462402
			c-0.266602,0.119141-0.553711,0.206543-0.862305,0.263672c-0.306641,0.057129-0.553711,0.092285-0.741211,0.105469
			c-0.256836,0.018066-0.5-0.017578-0.730469-0.105957c-0.239258-0.077637-0.481445-0.163574-0.722656-0.258301
			c-0.241211-0.09375-0.480469-0.182617-0.714844-0.266113c-0.235352-0.083496-0.475586-0.115234-0.720703-0.098145
			c0.033203,0.466797,0.164062,0.821777,0.392578,1.064453c0.228516,0.242188,0.511719,0.416504,0.847656,0.520996
			c0.336914,0.105957,0.702148,0.162109,1.095703,0.169922c0.394531,0.007324,0.77832-0.002441,1.152344-0.028809
			c0.385742-0.027344,0.760742-0.089355,1.123047-0.186035c0.363281-0.096191,0.691406-0.240234,0.982422-0.430664
			c0.292969-0.191406,0.515625-0.441895,0.669922-0.752441c0.154297-0.311035,0.214844-0.700195,0.181641-1.167969
			c-0.038086-0.537109-0.183594-1.008789-0.435547-1.413574c-0.251953-0.405273-0.575195-0.740723-0.969727-1.005859
			c-0.394531-0.265625-0.834961-0.464355-1.320312-0.59375c-0.484375-0.130371-0.978516-0.177734-1.481445-0.14209
			c-0.619141,0.043945-1.208008,0.15625-1.763672,0.337402c-0.557617,0.179688-1.039062,0.4375-1.443359,0.771484
			c-0.405273,0.333984-0.71875,0.761719-0.94043,1.282715S89.5,14.375,89.552734,15.111328
			c0.008789,0.128906,0.044922,0.349121,0.108398,0.661621C89.724609,16.086426,89.812485,16.456055,89.925781,16.882812z"/>
		<path d="M98.763672,10.439941c0.210938,0.079102,0.444336,0.130371,0.698242,0.15332
			c0.253906,0.023438,0.499023,0.026367,0.732422,0.010254c0.233398-0.016602,0.397461-0.02832,0.491211-0.035156
			c-0.010742,0.188477-0.006836,0.494141,0.011719,0.915039c0.017578,0.421875,0.047852,0.880859,0.088867,1.377441
			s0.099609,0.99707,0.176758,1.50293s0.177734,0.945312,0.304688,1.317871c0.126953,0.373047,0.279297,0.649902,0.455078,0.830566
			c0.177734,0.181641,0.395508,0.181152,0.65332-0.001953c-0.00293-0.035156-0.017578-0.198242-0.043945-0.489746
			c-0.026367-0.29248-0.060547-0.645508-0.101562-1.05957s-0.087891-0.866211-0.140625-1.355469
			c-0.051758-0.489746-0.099609-0.950684-0.141602-1.382324c-0.042969-0.432129-0.081055-0.805176-0.115234-1.119629
			c-0.03418-0.314941-0.053711-0.506836-0.058594-0.577148c0.15625-0.116699,0.338867-0.186035,0.549805-0.206543
			c0.209961-0.020996,0.422852-0.036133,0.639648-0.04541c0.21582-0.009766,0.423828-0.036133,0.619141-0.07959
			c0.197266-0.042969,0.360352-0.14502,0.490234-0.307617c-0.03125-0.267578-0.134766-0.445801-0.310547-0.533203
			c-0.177734-0.086426-0.363281-0.111816-0.561523-0.074219l-1.512695,0.036621l-0.373047-3.269043
			c-0.004883-0.070312-0.027344-0.141602-0.067383-0.215332s-0.092773-0.143555-0.15625-0.209473
			c-0.063477-0.06543-0.134766-0.119141-0.214844-0.160645c-0.078125-0.041504-0.15332-0.05957-0.223633-0.054688
			c-0.035156,0.002441-0.083984,0.011719-0.147461,0.027832c-0.064453,0.016602-0.120117,0.038086-0.171875,0.06543
			c-0.050781,0.027344-0.091797,0.06543-0.124023,0.114746c-0.032227,0.04834-0.044922,0.114258-0.039062,0.196289
			c0.041992,0.419922,0.081055,0.760742,0.117188,1.021973c0.036133,0.262695,0.068359,0.512695,0.09668,0.750977
			c0.029297,0.239258,0.041016,0.496582,0.037109,0.772461c-0.003906,0.277344-0.013672,0.633301-0.029297,1.069336
			l-1.794922,0.285156c-0.09375,0.006836-0.146484,0.054688-0.158203,0.143555
			c-0.010742,0.089355-0.014648,0.157227-0.011719,0.204102C98.44043,10.233887,98.552734,10.361328,98.763672,10.439941z"/>
		<path d="M121.989258,22.257812c0.036133,0.087891,0.083984,0.157227,0.143555,0.208984
			c0.058594,0.052734,0.141602,0.066406,0.246094,0.041016c0.798828,0.119141,1.635742,0.228516,2.509766,0.329102
			c0.874023,0.099609,1.72168,0.144531,2.541992,0.134766c0.055664,0.654297,0.107422,1.289062,0.15625,1.904297
			c0.048828,0.614258,0.103516,1.223633,0.164062,1.826172s0.128906,1.206055,0.207031,1.808594
			s0.167969,1.225586,0.270508,1.868164c0.025391,0.164062,0.051758,0.380859,0.078125,0.650391
			c0.027344,0.268555,0.077148,0.529297,0.150391,0.780273s0.178711,0.46875,0.316406,0.655273
			c0.136719,0.185547,0.322266,0.277344,0.556641,0.274414c0.058594-0.000977,0.134766-0.001953,0.228516-0.00293
			c0.09375-0.001953,0.181641-0.011719,0.263672-0.030273s0.151367-0.054688,0.209961-0.108398
			c0.057617-0.052734,0.085938-0.126953,0.084961-0.220703c-0.001953-0.140625-0.033203-0.280273-0.09375-0.420898
			c-0.05957-0.139648-0.131836-0.276367-0.21582-0.410156s-0.165039-0.273438-0.242188-0.418945
			c-0.078125-0.145508-0.129883-0.293945-0.155273-0.446289c-0.113281-0.583984-0.229492-1.209961-0.349609-1.876953
			c-0.119141-0.666016-0.227539-1.333008-0.324219-2s-0.180664-1.322266-0.25293-1.96582
			c-0.073242-0.643555-0.112305-1.234375-0.119141-1.772461c0.455078-0.146484,0.902344-0.202148,1.342773-0.166992
			c0.438477,0.035156,0.870117,0.100586,1.292969,0.194336c0.423828,0.094727,0.84668,0.191406,1.269531,0.291992
			c0.423828,0.099609,0.852539,0.158203,1.286133,0.175781c0.140625-0.001953,0.227539-0.060547,0.261719-0.177734
			c0.033203-0.118164,0.048828-0.235352,0.047852-0.352539c-0.001953-0.164062-0.15332-0.308594-0.454102-0.433594
			c-0.299805-0.125-0.706055-0.234375-1.216797-0.327148c-0.511719-0.09375-1.095703-0.167969-1.751953-0.224609
			c-0.65625-0.055664-1.336914-0.102539-2.041016-0.140625c-0.703125-0.038086-1.404297-0.064453-2.101562-0.079102
			s-1.341797-0.023438-1.93457-0.02832c-0.591797-0.003906-1.104492-0.00293-1.538086,0.001953
			c-0.433594,0.005859-0.738281,0.009766-0.914062,0.011719c0.000977,0.046875,0.004883,0.111328,0.011719,0.193359
			S121.953125,22.170898,121.989258,22.257812z"/>
		<path d="M133.147461,27.398438c-0.275391,0.484375-0.40918,1.048828-0.400391,1.693359
			c0.006836,0.550781,0.106445,1.049805,0.299805,1.499023c0.193359,0.448242,0.458984,0.823242,0.796875,1.124023
			c0.337891,0.299805,0.733398,0.532227,1.186523,0.696289c0.453125,0.165039,0.949219,0.243164,1.488281,0.236328
			c0.527344-0.006836,1.041992-0.098633,1.54393-0.274414c0.501968-0.176758,0.950211-0.427734,1.344742-0.755859
			c0.393555-0.327148,0.705078-0.726562,0.933594-1.198242s0.338867-1.006836,0.331055-1.604492
			c-0.00293-0.257812-0.041992-0.523438-0.115234-0.797852c-0.074219-0.274414-0.179688-0.545898-0.318359-0.813477
			c-0.137695-0.267578-0.302734-0.526367-0.493164-0.776367c-0.19043-0.249023-0.407227-0.469727-0.650391-0.660156
			c-0.242188-0.189453-0.496094-0.338867-0.761719-0.447266c-0.264648-0.107422-0.549805-0.160156-0.854492-0.15625
			c-0.574219,0.007812-1.144531,0.09375-1.710938,0.259766c-0.566406,0.165039-1.075195,0.415039-1.52832,0.749023
			S133.421875,26.914062,133.147461,27.398438z M134.757812,26.90332c0.337891-0.226562,0.712891-0.398438,1.12793-0.515625
			c0.415039-0.116211,0.81543-0.176758,1.202148-0.181641c0.682617,0.237305,1.21875,0.49707,1.609375,0.779297
			s0.661133,0.577148,0.811523,0.885742c0.150391,0.30957,0.207031,0.619141,0.169922,0.929688
			c-0.037109,0.311523-0.141602,0.611328-0.313477,0.901367c-0.172852,0.289062-0.388672,0.555664-0.649414,0.798828
			c-0.260742,0.244141-0.533203,0.452148-0.818359,0.625977s-0.570312,0.305664-0.856445,0.397461
			s-0.529297,0.126953-0.728531,0.106445c-0.375,0.003906-0.727524-0.064453-1.057602-0.207031
			c-0.330078-0.141602-0.616211-0.334961-0.859375-0.578125c-0.244141-0.242188-0.43457-0.530273-0.574219-0.862305
			c-0.138672-0.333008-0.210938-0.680664-0.214844-1.043945c-0.005859-0.445312,0.100586-0.838867,0.318359-1.181641
			C134.143555,27.415039,134.420898,27.129883,134.757812,26.90332z"/>
		<path d="M148.739258,25.205078c0.163086,0.390625,0.337891,0.801758,0.525391,1.232422
			c0.186523,0.431641,0.371094,0.842773,0.551758,1.232422c0.180664,0.390625,0.34668,0.743164,0.49707,1.057617
			s0.261719,0.547852,0.333984,0.699219c0.047852,0.116211,0.144531,0.314453,0.289062,0.59375
			c0.143555,0.279297,0.299805,0.579102,0.467773,0.899414c0.168945,0.320312,0.331055,0.623047,0.486328,0.908203
			c0.15625,0.285156,0.264648,0.486328,0.324219,0.602539c0.011719,0,0.046875,0.001953,0.105469,0.007812
			c0.058594,0.004883,0.099609,0.006836,0.123047,0.006836c0.186523-0.095703,0.376953-0.30957,0.572266-0.640625
			c0.195312-0.330078,0.389648-0.731445,0.582031-1.202148c0.193359-0.47168,0.371094-0.995117,0.533203-1.572266
			c0.163086-0.576172,0.307617-1.149414,0.435547-1.71875c0.12793-0.570312,0.228516-1.125977,0.303711-1.666016
			s0.116211-1.005859,0.123047-1.399414c0.006836-0.392578-0.026367-0.696289-0.099609-0.912109
			c-0.072266-0.214844-0.197266-0.298828-0.37207-0.25c-0.09375-0.033203-0.183594,0.041016-0.269531,0.222656
			c-0.085938,0.182617-0.172852,0.438477-0.262695,0.768555c-0.089844,0.329102-0.178711,0.708008-0.266602,1.136719
			c-0.088867,0.428711-0.173828,0.875977-0.255859,1.339844c-0.081055,0.463867-0.160156,0.921875-0.236328,1.374023
			s-0.15625,0.869141-0.239258,1.250977s-0.161133,0.703125-0.234375,0.961914
			c-0.072266,0.258789-0.143555,0.422852-0.212891,0.494141c-0.036133-0.069336-0.102539-0.217773-0.199219-0.445312
			s-0.216797-0.492188-0.361328-0.795898c-0.144531-0.302734-0.291992-0.620117-0.443359-0.952148
			c-0.150391-0.332031-0.294922-0.649414-0.433594-0.952148c-0.138672-0.303711-0.262695-0.56543-0.371094-0.787109
			c-0.107422-0.220703-0.179688-0.366211-0.21582-0.436523c-0.09668-0.186523-0.208008-0.451172-0.335938-0.795898
			c-0.126953-0.34375-0.272461-0.6875-0.43457-1.03125c-0.163086-0.34375-0.339844-0.643555-0.530273-0.899414
			c-0.19043-0.253906-0.397461-0.379883-0.620117-0.37793c-0.09375,0.001953-0.18457,0.017578-0.271484,0.047852
			c-0.087891,0.030273-0.130859,0.110352-0.128906,0.238281c0.001953,0.164062,0.051758,0.400391,0.149414,0.709961
			S148.576172,24.814453,148.739258,25.205078z"/>
		<path d="M157.480469,31.791992c0.459961,0.210938,0.96582,0.354492,1.517578,0.429688s1.073242,0.109375,1.56543,0.102539
			c0.09375-0.000977,0.254883-0.023438,0.482422-0.067383c0.228516-0.043945,0.473633-0.09668,0.736328-0.158203
			c0.263672-0.0625,0.538086-0.138672,0.824219-0.230469c0.285156-0.091797,0.544922-0.179688,0.77832-0.264648
			s0.422852-0.169922,0.568359-0.253906s0.217773-0.161133,0.216797-0.231445s-0.007812-0.140625-0.020508-0.209961
			c-0.012695-0.070312-0.06543-0.123047-0.160156-0.15625c-0.023438,0-0.061523,0-0.114258,0.000977
			s-0.111328-0.000977-0.175781-0.006836c-0.064453-0.004883-0.125977-0.006836-0.18457-0.005859
			s-0.099609,0.000977-0.123047,0.000977c-0.304688,0.003906-0.609375,0.025391-0.913086,0.064453
			c-0.304688,0.039062-0.611328,0.083984-0.921875,0.134766c-0.30957,0.050781-0.62207,0.095703-0.938477,0.135742
			c-0.316406,0.039062-0.637695,0.060547-0.96582,0.064453c-0.199219,0.00293-0.463867-0.017578-0.791992-0.060547
			c-0.329102-0.041992-0.652344-0.123047-0.970703-0.242188c-0.317383-0.119141-0.588867-0.273438-0.814453-0.464844
			c-0.224609-0.19043-0.338867-0.425781-0.342773-0.707031c-0.00293-0.257812,0.055664-0.484375,0.175781-0.679688
			c0.121094-0.194336,0.283203-0.363281,0.486328-0.506836s0.435547-0.266602,0.698242-0.369141
			c0.262695-0.103516,0.522461-0.185547,0.779297-0.24707c0.256836-0.0625,0.505859-0.106445,0.745117-0.132812
			c0.240234-0.026367,0.448242-0.041016,0.624023-0.042969c0.164062,0.033203,0.375977,0.085938,0.634766,0.15918
			c0.258789,0.072266,0.539062,0.204102,0.839844,0.393555c0.301758,0.189453,0.606445,0.452148,0.916016,0.788086
			c0.308594,0.335938,0.589844,0.777344,0.842773,1.325195l0.087875,0.016602c0.04689,0.010742,0.106461,0.019531,0.176773,0.024414
			s0.134766,0.009766,0.193359,0.014648c0.058594,0.005859,0.09375,0.007812,0.105469,0.007812
			c0.052734-0.469727,0.040039-0.973633-0.037109-1.511719c-0.064453-0.514648-0.191406-1.026367-0.379883-1.533203
			c-0.1875-0.507812-0.419922-0.99707-0.695312-1.467773c-0.275391-0.47168-0.59375-0.886719-0.956055-1.245117
			s-0.758789-0.655273-1.189453-0.890625c-0.430664-0.234375-0.880859-0.37207-1.350586-0.413086
			c-0.1875,0.001953-0.365234,0.030273-0.535156,0.085938c-0.168945,0.054688-0.320312,0.129883-0.454102,0.225586
			c-0.132812,0.094727-0.237305,0.219727-0.311523,0.373047s-0.110352,0.334961-0.107422,0.545898
			c0,0.011719,0.021484,0.035156,0.0625,0.069336c0.041992,0.035156,0.074219,0.063477,0.097656,0.086914
			c0.011719,0.011719,0.024414,0.023438,0.036133,0.035156c0,0.011719,0.011719,0.017578,0.035156,0.016602
			c0.105469-0.000977,0.196289-0.022461,0.271484-0.064453c0.076172-0.041992,0.154297-0.089844,0.235352-0.143555
			c0.082031-0.053711,0.166016-0.099609,0.253906-0.135742c0.086914-0.036133,0.189453-0.054688,0.306641-0.056641
			c0.292969-0.003906,0.598633,0.071289,0.916992,0.225586s0.617188,0.355469,0.895508,0.604492
			c0.27832,0.248047,0.507812,0.529297,0.6875,0.84375s0.271484,0.624023,0.275391,0.928711l0.019531,0.157227
			c0.001953,0.105469,0.001953,0.164062,0.00293,0.175781c-0.730469-0.271484-1.391602-0.439453-1.984375-0.501953
			s-1.120117-0.049805-1.582031,0.038086s-0.861328,0.230469-1.199219,0.427734
			c-0.336914,0.198242-0.615234,0.420898-0.834961,0.669922s-0.380859,0.50293-0.482422,0.762695
			c-0.102539,0.258789-0.158203,0.488281-0.166992,0.6875c0.007812,0.609375,0.163086,1.105469,0.466797,1.488281
			S157.020508,31.581055,157.480469,31.791992z"/>
		<path d="M165.069336,27.151367c0.010742,0.832031,0.035156,1.661133,0.075195,2.486328
			c0.039062,0.826172,0.123047,1.654297,0.25,2.485352c0.118164,0.021484,0.232422,0.043945,0.34375,0.06543
			c0.112305,0.022461,0.208008-0.026367,0.288086-0.144531c0.081055-0.118164,0.145508-0.341797,0.194336-0.669922
			c0.048828-0.329102,0.080078-0.835938,0.094727-1.522461c0.014648-0.685547,0.00293-1.587891-0.03418-2.707031
			c-0.038086-1.118164-0.102539-2.515625-0.194336-4.189453c-0.000977-0.070312-0.016602-0.161133-0.046875-0.271484
			c-0.03125-0.111328-0.076172-0.22168-0.136719-0.333008c-0.05957-0.110352-0.130859-0.203125-0.213867-0.27832
			s-0.177734-0.112305-0.283203-0.110352c-0.093765,0.000977-0.174805,0.019531-0.245117,0.055664
			s-0.103516,0.100586-0.102539,0.194336c0.021484,0.820312,0.027344,1.639648,0.013672,2.460938
			C165.05957,25.493164,165.058594,26.319336,165.069336,27.151367z"/>
		<path d="M167.869141,24.8125c0,0.046875,0.001953,0.134766,0.00293,0.263672
			c0.001953,0.128906,0.000977,0.263672-0.003906,0.404297c-0.003906,0.140625-0.004883,0.275391-0.00293,0.404297
			c0.000977,0.128906,0.00293,0.216797,0.00293,0.263672c0.001953,0.128906,0.010742,0.37207,0.027344,0.729492
			c0.015625,0.357422,0.041977,0.761719,0.076172,1.211914c0.035156,0.451172,0.084961,0.921875,0.150391,1.414062
			c0.064453,0.491211,0.140625,0.938477,0.227539,1.341797c0.087875,0.40332,0.188477,0.736328,0.302734,0.998047
			c0.115234,0.262695,0.248047,0.392578,0.400391,0.390625c0.199219-0.00293,0.347656-0.086914,0.445312-0.251953
			s0.145508-0.330078,0.143555-0.494141c-0.007812-0.609375-0.06543-1.194336-0.171875-1.755859
			s-0.219727-1.119141-0.337891-1.674805c-0.118164-0.554688-0.224609-1.116211-0.320312-1.683594
			c-0.094727-0.567383-0.128906-1.155273-0.101562-1.765625c-0.071289-0.116211-0.148438-0.203125-0.231445-0.260742
			s-0.182617-0.084961-0.299805-0.083984C167.920898,24.266602,167.817383,24.450195,167.869141,24.8125z"/>
		<path d="M167.109375,22.423828c0.064453,0.051758,0.15625,0.088867,0.273438,0.110352
			c0.117188,0.022461,0.264648,0.032227,0.44043,0.029297l0.087891-0.000977c0.186523-0.025391,0.273438-0.108398,0.259766-0.249023
			c-0.012695-0.117188-0.064453-0.245117-0.154297-0.384766s-0.202148-0.264648-0.338867-0.374023
			c-0.135742-0.109375-0.245117-0.158203-0.327148-0.145508c-0.128906,0.001953-0.233398,0.023438-0.31543,0.06543
			c-0.081055,0.042969-0.121094,0.133789-0.119141,0.274414c0.001953,0.1875,0.018555,0.333984,0.048828,0.439453
			C166.996094,22.292969,167.043945,22.37207,167.109375,22.423828z"/>
		<path d="M170.976562,30.698242c0.233398,0.407227,0.519531,0.754883,0.856445,1.043945
			c0.337891,0.288086,0.729477,0.429688,1.174805,0.424805c0.398438-0.005859,0.792969-0.075195,1.18457-0.208984
			c0.390625-0.133789,0.763672-0.311523,1.118164-0.532227c0.354492-0.22168,0.679688-0.477539,0.974609-0.768555
			s0.552734-0.59082,0.770508-0.897461c-0.000977-0.011719,0.019531-0.021484,0.060547-0.027344
			c0.041016-0.006836,0.073242-0.009766,0.09668-0.009766c0.09375-0.001953,0.170898,0.038086,0.230469,0.120117
			c0.05957,0.081055,0.113281,0.182617,0.162109,0.305664c0.047852,0.12207,0.09375,0.255859,0.136719,0.402344
			c0.042969,0.145508,0.088867,0.277344,0.136719,0.393555c0.048828,0.116211,0.114258,0.21875,0.197266,0.305664
			c0.083008,0.085938,0.183594,0.128906,0.300781,0.12793c0.140625-0.001953,0.27832-0.027344,0.412109-0.076172
			c0.133789-0.047852,0.200195-0.166016,0.197266-0.353516c-0.083984-0.151367-0.148438-0.411133-0.194336-0.780273
			c-0.045898-0.368164-0.094727-0.813477-0.148438-1.333984c-0.053711-0.521484-0.104492-1.091797-0.15332-1.712891
			c-0.049805-0.620117-0.113281-1.257812-0.191406-1.913086c-0.079102-0.655273-0.174805-1.301758-0.289062-1.939453
			c-0.113281-0.636719-0.255859-1.235352-0.426758-1.795898s-0.374023-1.052734-0.607422-1.477539
			c-0.234375-0.424805-0.509766-0.751953-0.829102-0.982422c-0.234375,0.061523-0.373047,0.204102-0.416992,0.426758
			c-0.043945,0.223633-0.03418,0.504883,0.02832,0.84375c0.063477,0.338867,0.165039,0.72168,0.304672,1.147461
			c0.14064,0.425781,0.278336,0.878906,0.413101,1.357422c0.134766,0.477539,0.246094,0.96582,0.333984,1.462891
			s0.112305,0.980469,0.071289,1.449219c-0.365234-0.241211-0.710938-0.462891-1.036133-0.663086
			c-0.325195-0.201172-0.637695-0.375977-0.938477-0.524414s-0.591797-0.262695-0.875-0.34082
			c-0.282227-0.078125-0.563477-0.116211-0.844727-0.112305c-0.539062,0.006836-0.991211,0.144531-1.357422,0.413086
			c-0.366211,0.267578-0.666016,0.608398-0.901367,1.022461c-0.235352,0.413086-0.405273,0.860352-0.510742,1.341797
			c-0.104507,0.482422-0.154297,0.94043-0.149414,1.374023c0.004883,0.339844,0.06543,0.737305,0.182617,1.192383
			C170.567383,29.859375,170.742188,30.291016,170.976562,30.698242z M171.47168,27.439453
			c0.088867-0.375977,0.230469-0.717773,0.425781-1.025391c0.195312-0.306641,0.444336-0.556641,0.74707-0.748047
			c0.301758-0.191406,0.658203-0.286133,1.068359-0.286133c0.410156,0.000977,0.87793,0.129883,1.402344,0.386719
			c0.525391,0.256836,1.101562,0.686523,1.729492,1.288086c0.000977,0.035156,0.001953,0.105469,0.00293,0.210938
			s0.001953,0.175781,0.00293,0.210938c0.004883,0.375-0.106445,0.765625-0.335938,1.172852s-0.523438,0.783203-0.881836,1.12793
			c-0.359375,0.344727-0.748047,0.62793-1.167969,0.849609c-0.418945,0.222656-0.81543,0.335938-1.19043,0.34082
			c-0.304688,0.003906-0.551758-0.042969-0.740234-0.139648c-0.189453-0.097656-0.352539-0.245117-0.489258-0.442383
			c-0.137695-0.197266-0.254883-0.454102-0.352539-0.769531c-0.097656-0.314453-0.208008-0.682617-0.331055-1.103516
			C171.345703,28.173828,171.381836,27.81543,171.47168,27.439453z"/>
		<path d="M181.332031,31.489258c0.459961,0.210938,0.96582,0.354492,1.517578,0.429688
			c0.551758,0.074219,1.073242,0.109375,1.56543,0.102539c0.09375-0.000977,0.254883-0.023438,0.482422-0.067383
			c0.228516-0.043945,0.473633-0.09668,0.736328-0.15918c0.263672-0.061523,0.538086-0.138672,0.824219-0.229492
			c0.285156-0.091797,0.544922-0.179688,0.77832-0.265625c0.233398-0.084961,0.422852-0.168945,0.568359-0.25293
			s0.217773-0.161133,0.216797-0.231445s-0.007812-0.140625-0.020508-0.210938c-0.012695-0.069336-0.06543-0.12207-0.160156-0.15625
			c-0.023438,0.000977-0.061523,0.000977-0.114258,0.001953s-0.111328-0.001953-0.175781-0.006836
			s-0.125977-0.006836-0.18457-0.005859c-0.058594,0-0.099609,0.000977-0.123047,0.000977
			c-0.304688,0.003906-0.609375,0.025391-0.913086,0.064453c-0.304688,0.039062-0.611328,0.083984-0.921875,0.134766
			c-0.30957,0.050781-0.62207,0.095703-0.938477,0.134766s-0.637695,0.061523-0.96582,0.06543
			c-0.199219,0.00293-0.463867-0.017578-0.791992-0.060547c-0.329102-0.042969-0.652344-0.123047-0.970703-0.242188
			c-0.317383-0.119141-0.588867-0.274414-0.814453-0.464844c-0.224609-0.19043-0.338867-0.425781-0.342773-0.707031
			c-0.00293-0.257812,0.055664-0.484375,0.175781-0.679688c0.121094-0.194336,0.283203-0.363281,0.486328-0.506836
			s0.435547-0.266602,0.698242-0.369141c0.262695-0.103516,0.522461-0.185547,0.779297-0.24707
			c0.256836-0.0625,0.505859-0.106445,0.745117-0.132812c0.240234-0.026367,0.448242-0.041016,0.624023-0.042969
			c0.164062,0.033203,0.375977,0.085938,0.634766,0.158203c0.258789,0.073242,0.539062,0.205078,0.839844,0.394531
			c0.301758,0.189453,0.606445,0.452148,0.916016,0.788086c0.308594,0.335938,0.589844,0.777344,0.842773,1.325195
			l0.087891,0.016602c0.046875,0.010742,0.106445,0.019531,0.176758,0.024414s0.134766,0.009766,0.193359,0.014648
			s0.09375,0.007812,0.105469,0.007812c0.052734-0.469727,0.040039-0.973633-0.037109-1.511719
			c-0.064453-0.514648-0.191406-1.026367-0.379883-1.533203c-0.1875-0.507812-0.419922-0.99707-0.695312-1.467773
			c-0.275391-0.47168-0.59375-0.886719-0.956055-1.245117c-0.362305-0.359375-0.758804-0.65625-1.189453-0.890625
			c-0.430664-0.234375-0.880859-0.373047-1.350586-0.413086c-0.1875,0.001953-0.365234,0.030273-0.535156,0.085938
			c-0.168945,0.054688-0.320312,0.129883-0.454102,0.224609c-0.132812,0.095703-0.237305,0.220703-0.311523,0.374023
			s-0.110352,0.334961-0.107422,0.545898c0,0.011719,0.021484,0.035156,0.0625,0.069336
			c0.041992,0.035156,0.074219,0.063477,0.097656,0.086914c0.011719,0.011719,0.024414,0.023438,0.036133,0.035156
			c0,0.011719,0.011719,0.016602,0.035156,0.016602c0.105469-0.000977,0.196289-0.022461,0.271484-0.064453
			c0.076172-0.041992,0.154297-0.089844,0.235352-0.144531c0.082031-0.053711,0.166016-0.098633,0.253906-0.134766
			c0.086914-0.036133,0.189453-0.054688,0.306641-0.056641c0.292969-0.003906,0.598633,0.071289,0.916992,0.225586
			s0.617188,0.355469,0.895508,0.604492c0.27832,0.248047,0.507812,0.529297,0.6875,0.84375s0.271484,0.623047,0.275391,0.927734
			l0.019531,0.158203c0.001953,0.105469,0.001953,0.164062,0.00293,0.175781
			c-0.730469-0.271484-1.391602-0.439453-1.984375-0.501953s-1.120117-0.049805-1.582031,0.038086
			s-0.861328,0.230469-1.199219,0.427734c-0.336914,0.198242-0.615234,0.420898-0.834961,0.669922
			s-0.380859,0.50293-0.482422,0.762695c-0.102539,0.258789-0.158203,0.488281-0.166992,0.6875
			c0.007812,0.609375,0.163086,1.105469,0.466797,1.488281S180.87207,31.27832,181.332031,31.489258z"/>
		<path d="M188.930664,25.65332c0.206055,0.09082,0.435547,0.155273,0.688477,0.193359
			c0.251953,0.037109,0.496094,0.054688,0.730469,0.051758s0.398438-0.004883,0.492188-0.005859
			c-0.021484,0.1875-0.035156,0.492188-0.041992,0.914062c-0.005859,0.422852-0.00293,0.882812,0.008789,1.380859
			c0.012695,0.49707,0.041992,1.000977,0.089844,1.510742c0.047852,0.508789,0.123047,0.953125,0.227539,1.333008
			s0.240234,0.665039,0.407227,0.856445c0.166016,0.191406,0.382812,0.203125,0.650391,0.035156
			c0-0.035156-0.004883-0.199219-0.014648-0.492188s-0.023438-0.646484-0.040039-1.0625s-0.037109-0.870117-0.061523-1.362305
			c-0.023438-0.491211-0.043945-0.954102-0.061523-1.387695c-0.016602-0.433594-0.033203-0.808594-0.048828-1.125
			c-0.016602-0.316406-0.024414-0.508789-0.025391-0.579102c0.163086-0.108398,0.349609-0.166016,0.560547-0.174805
			s0.424805-0.010742,0.641602-0.007812s0.424805-0.011719,0.623047-0.042969c0.199219-0.032227,0.368164-0.125,0.506836-0.279297
			c-0.015625-0.269531-0.108398-0.453125-0.279297-0.549805c-0.17189-0.097656-0.356445-0.133789-0.555664-0.107422
			l-1.512695-0.050781l-0.181641-3.285156c-0.000977-0.070312-0.019531-0.142578-0.055664-0.21875
			c-0.036133-0.075195-0.083984-0.148438-0.143555-0.217773s-0.12793-0.126953-0.204102-0.172852
			c-0.077148-0.045898-0.150391-0.069336-0.220703-0.068359c-0.035156,0.000977-0.084961,0.006836-0.149414,0.019531
			s-0.123047,0.03125-0.174805,0.055664c-0.052734,0.023438-0.09668,0.05957-0.130859,0.106445
			c-0.03418,0.047852-0.051758,0.112305-0.050781,0.194336c0.017578,0.421875,0.036133,0.764648,0.057617,1.027344
			c0.020508,0.263672,0.038086,0.515625,0.053711,0.754883c0.014648,0.240234,0.011719,0.498047-0.007812,0.773438
			c-0.020523,0.275391-0.050781,0.630859-0.091797,1.064453l-1.808594,0.181641
			c-0.09375,0.000977-0.149414,0.045898-0.166016,0.133789s-0.024414,0.15625-0.023438,0.203125
			C188.620117,25.428711,188.724609,25.561523,188.930664,25.65332z"/>
		<path d="M194.705078,22.073242c0.064453,0.051758,0.15625,0.088867,0.273438,0.110352
			c0.117188,0.022461,0.264648,0.032227,0.44043,0.030273l0.087891-0.001953c0.186523-0.025391,0.273438-0.108398,0.259766-0.249023
			c-0.012695-0.117188-0.064453-0.245117-0.154297-0.384766s-0.202148-0.263672-0.338867-0.374023
			c-0.135742-0.109375-0.245117-0.158203-0.327148-0.144531c-0.128906,0.000977-0.233398,0.023438-0.31543,0.06543
			c-0.081055,0.041992-0.121094,0.132812-0.119141,0.273438c0.001953,0.1875,0.018555,0.333984,0.048828,0.439453
			C194.591797,21.942383,194.639648,22.021484,194.705078,22.073242z"/>
		<path d="M195.464844,24.461914c0,0.046875,0.001953,0.134766,0.00293,0.263672
			c0.001953,0.128906,0.000977,0.263672-0.003906,0.405273c-0.003906,0.140625-0.004883,0.275391-0.00293,0.404297
			c0.000977,0.128906,0.00293,0.216797,0.00293,0.263672c0.001953,0.128906,0.010742,0.37207,0.027344,0.728516
			c0.015625,0.357422,0.041992,0.761719,0.076172,1.212891c0.035156,0.450195,0.084961,0.921875,0.150391,1.413086
			c0.064453,0.491211,0.140625,0.938477,0.227539,1.341797c0.087891,0.40332,0.188477,0.736328,0.302734,0.998047
			c0.115234,0.262695,0.248047,0.392578,0.400391,0.390625c0.199219-0.001953,0.347656-0.085938,0.445312-0.251953
			c0.097656-0.165039,0.145508-0.330078,0.143555-0.494141c-0.007812-0.609375-0.06543-1.194336-0.171875-1.755859
			c-0.106445-0.560547-0.219727-1.119141-0.337891-1.674805c-0.118164-0.554688-0.224609-1.116211-0.320312-1.683594
			c-0.094742-0.566406-0.128906-1.155273-0.101562-1.765625c-0.071289-0.116211-0.148438-0.203125-0.231445-0.260742
			s-0.182617-0.084961-0.299805-0.083984C195.516602,23.916992,195.413086,24.099609,195.464844,24.461914z"/>
		<path d="M205.359375,26.375977c-0.137695-0.267578-0.302734-0.526367-0.493164-0.776367
			c-0.19043-0.249023-0.407227-0.46875-0.650391-0.65918c-0.242188-0.19043-0.496094-0.339844-0.761719-0.447266
			c-0.264648-0.108398-0.549805-0.160156-0.854492-0.15625c-0.574219,0.006836-1.144531,0.092773-1.710938,0.258789
			c-0.566406,0.165039-1.074219,0.415039-1.527344,0.749023s-0.817383,0.743164-1.091797,1.226562
			c-0.275391,0.484375-0.40918,1.048828-0.400391,1.693359c0.006836,0.550781,0.106445,1.050781,0.299805,1.499023
			c0.193359,0.449219,0.458984,0.823242,0.796875,1.124023s0.733398,0.532227,1.186523,0.697266
			c0.452148,0.164062,0.948242,0.242188,1.487305,0.235352c0.527344-0.006836,1.041992-0.097656,1.543945-0.274414
			c0.501953-0.175781,0.950195-0.427734,1.344727-0.754883c0.393555-0.328125,0.705078-0.727539,0.933594-1.199219
			s0.338867-1.005859,0.331055-1.603516c-0.00293-0.257812-0.041992-0.524414-0.115234-0.798828
			C205.603516,26.915039,205.498047,26.643555,205.359375,26.375977z M204.486328,28.875
			c-0.172852,0.289062-0.388672,0.555664-0.649414,0.798828c-0.260742,0.244141-0.533203,0.452148-0.818359,0.625977
			s-0.570312,0.306641-0.856445,0.397461c-0.286133,0.091797-0.529297,0.126953-0.728516,0.106445
			c-0.375,0.004883-0.727539-0.064453-1.057617-0.206055c-0.329102-0.142578-0.615234-0.335938-0.858398-0.578125
			c-0.244141-0.243164-0.43457-0.53125-0.574219-0.863281c-0.138672-0.332031-0.210938-0.679688-0.214844-1.042969
			c-0.005859-0.445312,0.100586-0.839844,0.318359-1.182617c0.21875-0.342773,0.496094-0.626953,0.833008-0.854492
			c0.336914-0.226562,0.711914-0.398438,1.126953-0.514648c0.415039-0.117188,0.81543-0.177734,1.202148-0.182617
			c0.682617,0.237305,1.21875,0.49707,1.609375,0.779297s0.661133,0.578125,0.811523,0.886719s0.207031,0.618164,0.169922,0.929688
			C204.762695,28.285156,204.658203,28.585938,204.486328,28.875z"/>
		<path d="M214.167969,28.523438c-0.064453-0.415039-0.163086-0.841797-0.297852-1.279297
			c-0.134766-0.438477-0.297852-0.867188-0.491211-1.286133c-0.192383-0.419922-0.422852-0.797852-0.691422-1.133789
			c-0.267563-0.336914-0.570297-0.605469-0.905258-0.806641c-0.336914-0.200195-0.704102-0.298828-1.102539-0.293945
			c-0.304688,0.003906-0.611328,0.072266-0.920898,0.205078c-0.308594,0.133789-0.599609,0.277344-0.873047,0.433594
			c-0.273438,0.155273-0.527344,0.299805-0.759766,0.431641s-0.430664,0.198242-0.594727,0.201172
			c-0.058594,0-0.100586-0.019531-0.124023-0.060547c-0.024414-0.040039-0.041992-0.083984-0.054688-0.130859
			c-0.011719-0.046875-0.033203-0.087891-0.0625-0.12207c-0.030273-0.035156-0.080078-0.051758-0.150391-0.050781
			c-0.09375,0.000977-0.178711,0.016602-0.254883,0.046875c-0.075195,0.030273-0.112305,0.097656-0.111328,0.203125
			c0.00293,0.257812,0.007812,0.612305,0.013672,1.063477s0.026367,0.931641,0.0625,1.441406
			c0.035156,0.508789,0.094727,1.027344,0.177734,1.553711s0.194336,0.999023,0.333984,1.419922
			c0.140625,0.419922,0.323242,0.763672,0.549805,1.030273c0.225586,0.266602,0.50293,0.397461,0.831055,0.393555
			c-0.004883-0.375-0.044922-0.75-0.120117-1.124023c-0.074219-0.374023-0.158203-0.745117-0.250977-1.113281
			c-0.092773-0.367188-0.176758-0.735352-0.250977-1.103516c-0.075195-0.369141-0.115234-0.740234-0.120117-1.115234
			s0.058594-0.72168,0.189453-1.040039c0.129883-0.317383,0.311523-0.589844,0.542969-0.81543s0.504883-0.399414,0.819336-0.520508
			c0.31543-0.121094,0.654297-0.183594,1.017578-0.188477c0.386719-0.004883,0.751953,0.166016,1.09668,0.513672
			c0.34375,0.34668,0.636719,0.818359,0.878906,1.413086c0.241211,0.594727,0.419922,1.286133,0.536133,2.076172
			c0.115234,0.790039,0.125977,1.636719,0.032227,2.540039c0,0.046875,0.021484,0.082031,0.0625,0.104492
			c0.041016,0.023438,0.091797,0.042969,0.150391,0.05957c0.058594,0.017578,0.117188,0.02832,0.175781,0.033203
			s0.099609,0.007812,0.123047,0.006836c0.140625-0.000977,0.256836-0.082031,0.348633-0.241211
			s0.157227-0.344727,0.195312-0.556641c0.038086-0.210938,0.06543-0.422852,0.080078-0.633789s0.021484-0.369141,0.020508-0.474609
			C214.265625,29.298828,214.231445,28.938477,214.167969,28.523438z"/>
	</g>
	<path d="M196,44h-54c-1.65686,0-3,1.343262-3,3v36c0,1.656738,1.34314,3,3,3h12.165039l2-2h-4.619202l-2.671814,0.381836
		L148.819458,84H142c-0.551392,0-1-0.448486-1-1V51h56v32c0,0.551514-0.448608,1-1,1h-28.265747l-0.285645,2H196
		c1.65686,0,3-1.343262,3-3V47C199,45.343262,197.65686,44,196,44z M143.5,49c-0.82843,0-1.5-0.67157-1.5-1.5s0.67157-1.5,1.5-1.5
		s1.5,0.67157,1.5,1.5S144.32843,49,143.5,49z M148.5,49c-0.82843,0-1.5-0.67157-1.5-1.5s0.67157-1.5,1.5-1.5s1.5,0.67157,1.5,1.5
		S149.32843,49,148.5,49z M153.5,49c-0.82843,0-1.5-0.67157-1.5-1.5s0.67157-1.5,1.5-1.5s1.5,0.67157,1.5,1.5S154.32843,49,153.5,49
		z"/>
</g>
<g id="Layer_2">
</g>
</svg>
