<?xml version="1.0" encoding="utf-8"?>
<!-- Generator: Adobe Illustrator 19.0.1, SVG Export Plug-In . SVG Version: 6.00 Build 0)  -->
<svg version="1.1" xmlns="http://www.w3.org/2000/svg" xmlns:xlink="http://www.w3.org/1999/xlink" x="0px" y="0px"
	 viewBox="0 0 260 70" style="enable-background:new 0 0 260 70;" xml:space="preserve">
<g id="Layer_1">
	<g style="opacity:0.85;">
		<g>
			<path d="M18.400391,67.506836c-0.019531-0.103516-0.037109-0.271484-0.053223-0.500977
				c-0.01709-0.229492-0.038086-0.485352-0.063965-0.767578c-0.026367-0.28125-0.051758-0.581055-0.077148-0.900391
				c-0.025391-0.317383-0.05127-0.620117-0.077148-0.907227c-0.025879-0.286133-0.050781-0.541016-0.071777-0.766602
				c-0.022461-0.223633-0.038086-0.393555-0.04541-0.508789c-0.019531-0.103516-0.024902-0.234375-0.016113-0.390625
				c0.007324-0.15625,0-0.317383-0.022461-0.485352c-0.023438-0.166016-0.0625-0.323242-0.116699-0.470703
				c-0.054688-0.146484-0.138672-0.25293-0.251953-0.317383c-0.378906,0.202148-0.756836,0.351562-1.133301,0.448242
				c-0.376953,0.097656-0.774414,0.141602-1.189453,0.133789c-0.615234-0.010742-1.222656-0.397461-1.823242-1.158203
				c-0.041992-0.000977-0.070801,0.029297-0.087402,0.091797c-0.01709,0.0625-0.032227,0.134766-0.043457,0.217773
				c-0.012207,0.083984-0.016602,0.171875-0.012695,0.265625c0.003418,0.09375,0.004883,0.171875,0.003418,0.234375
				l-0.111328,5.217773c-0.001465,0.0625-0.020996,0.117188-0.057617,0.163086
				c-0.038086,0.045898-0.08252,0.079102-0.134766,0.098633c-0.053223,0.020508-0.108398,0.037109-0.165039,0.051758
				c-0.058105,0.014648-0.112793,0.021484-0.164551,0.020508c-0.166992-0.00293-0.27832-0.075195-0.332031-0.216797
				c-0.055176-0.141602-0.091797-0.280273-0.109863-0.416016l0.041504-2.25c0.012695-0.686523,0.053711-1.363281,0.123535-2.029297
				c0.068848-0.665039,0.110352-1.341797,0.123047-2.029297c0.003906-0.208008-0.034668-0.396484-0.114746-0.564453
				c-0.080566-0.167969-0.165527-0.333984-0.256348-0.49707s-0.173828-0.326172-0.249023-0.489258
				s-0.11084-0.34375-0.106934-0.541016c0.003906-0.21875,0.109375-0.326172,0.318359-0.322266
				c0.259766,0.004883,0.477051,0.086914,0.651855,0.24707c0.173828,0.15918,0.32666,0.348633,0.458496,0.570312
				c0.130859,0.220703,0.256836,0.46875,0.376953,0.741211C13.72998,59.75293,13.874023,60,14.041992,60.22168
				c0.16748,0.222656,0.361328,0.413086,0.583008,0.573242c0.220703,0.161133,0.498047,0.244141,0.831055,0.25
				c0.415527,0.029297,0.763184-0.029297,1.04248-0.175781c0.27832-0.145508,0.506348-0.334961,0.682617-0.566406
				c0.175781-0.230469,0.321289-0.483398,0.436035-0.757812c0.114258-0.273438,0.214844-0.527344,0.302734-0.759766
				c0.087402-0.233398,0.179688-0.419922,0.276367-0.564453c0.105957-0.143555,0.232422-0.199219,0.37793-0.165039
				c0.114746-0.018555,0.200684,0.009766,0.256348,0.083008c0.055664,0.074219,0.098633,0.166016,0.12793,0.275391
				c0.029297,0.110352,0.044922,0.216797,0.048828,0.320312c0.00293,0.104492,0.004883,0.177734,0.003906,0.21875
				c-0.007812,0.396484-0.043945,0.773438-0.106445,1.131836c-0.064453,0.358398-0.099609,0.740234-0.107422,1.146484
				c-0.009766,0.53125,0.016602,1.058594,0.080078,1.580078c0.0625,0.523438,0.138672,1.047852,0.229492,1.574219
				c0.088867,0.52832,0.167969,1.053711,0.236328,1.575195c0.068359,0.523438,0.097656,1.043945,0.088867,1.564453
				c-0.001953,0.083984-0.013672,0.151367-0.035156,0.203125c-0.022461,0.051758-0.054688,0.087891-0.095703,0.107422
				c-0.042969,0.019531-0.089844,0.029297-0.141602,0.02832c-0.052734-0.000977-0.109375-0.001953-0.171875-0.00293
				c-0.135742-0.001953-0.257812-0.020508-0.366211-0.053711C18.512695,67.774414,18.438477,67.674805,18.400391,67.506836z"/>
			<path d="M20.234863,64.664062c0.010742-0.571289,0.144531-1.068359,0.402344-1.491211s0.591797-0.776367,1.00293-1.060547
				c0.412109-0.283203,0.871094-0.492188,1.379883-0.623047c0.506836-0.131836,1.015625-0.192383,1.527344-0.182617
				c0.269531,0.004883,0.522461,0.058594,0.754883,0.162109s0.453125,0.242188,0.664062,0.417969
				c0.209961,0.175781,0.396484,0.37793,0.55957,0.604492c0.162109,0.227539,0.299805,0.461914,0.416016,0.703125
				c0.114258,0.243164,0.202148,0.486328,0.259766,0.731445c0.057617,0.24707,0.084961,0.484375,0.081055,0.711914
				c-0.009766,0.53125-0.123047,1.003906-0.338867,1.416016c-0.216797,0.413086-0.503906,0.759766-0.862305,1.039062
				c-0.359375,0.28125-0.765625,0.492188-1.214844,0.634766c-0.451172,0.142578-0.911133,0.209961-1.379883,0.201172
				c-0.479492-0.008789-0.917969-0.091797-1.31543-0.250977c-0.399414-0.158203-0.744141-0.375-1.035156-0.652344
				c-0.291016-0.275391-0.517578-0.616211-0.675781-1.020508C20.300293,65.601562,20.225098,65.154297,20.234863,64.664062z
				 M21.002441,64.553711c-0.005859,0.323242,0.046875,0.633789,0.162109,0.932617
				c0.113281,0.299805,0.275391,0.560547,0.485352,0.783203c0.208984,0.222656,0.458984,0.401367,0.748047,0.537109
				s0.599609,0.206055,0.933594,0.212891c0.176758,0.024414,0.393555-0.000977,0.650391-0.074219
				s0.513672-0.183594,0.772461-0.330078c0.256836-0.145508,0.505859-0.323242,0.744141-0.533203
				c0.238281-0.208008,0.4375-0.439453,0.598633-0.692383c0.161133-0.251953,0.261719-0.515625,0.303711-0.791016
				c0.041016-0.274414,0-0.551758-0.125-0.830078c-0.125977-0.27832-0.357422-0.547852-0.696289-0.80957
				s-0.80957-0.507812-1.40918-0.737305c-0.34375-0.006836-0.702148,0.037109-1.073242,0.128906
				c-0.37207,0.092773-0.709961,0.234375-1.015625,0.426758c-0.306641,0.192383-0.561523,0.4375-0.763672,0.736328
				C21.11377,63.8125,21.010254,64.15918,21.002441,64.553711z"/>
			<path d="M28.265137,60.499023c-0.043945-0.458984-0.099609-0.850586-0.166016-1.174805
				C28.031738,59,28.002441,58.734375,28.012207,58.526367c0.008789-0.208008,0.077148-0.368164,0.204102-0.480469
				c0.136719-0.112305,0.373047-0.185547,0.708008-0.22168c0.018555,0.104492,0.041016,0.303711,0.066406,0.594727
				c0.026367,0.292969,0.053711,0.624023,0.083984,0.993164c0.029297,0.371094,0.064453,0.757812,0.103516,1.15918
				s0.076172,0.769531,0.112305,1.103516c0.035156,0.334961,0.077148,0.606445,0.125977,0.81543
				c0.047852,0.230469,0.092773,0.335938,0.134766,0.314453c0.1875,0.003906,0.373047-0.024414,0.556641-0.083008
				c0.182617-0.05957,0.378906-0.086914,0.587891-0.083008c0.3125,0.005859,0.644531,0.041016,0.998047,0.104492
				c0.352539,0.063477,0.702148,0.15625,1.048828,0.277344s0.682617,0.276367,1.007812,0.463867
				c0.324219,0.188477,0.606445,0.404297,0.847656,0.648438c0.239258,0.244141,0.429688,0.522461,0.570312,0.837891
				c0.139648,0.31543,0.207031,0.660156,0.200195,1.035156c-0.008789,0.479492-0.133789,0.860352-0.373047,1.141602
				c-0.239258,0.283203-0.542969,0.493164-0.910156,0.631836c-0.368164,0.140625-0.765625,0.226562-1.192383,0.259766
				c-0.438477,0.03418-0.844727,0.046875-1.219727,0.040039c-0.521484-0.009766-0.951172-0.082031-1.292969-0.21875
				c-0.34082-0.136719-0.619141-0.321289-0.833984-0.554688c-0.213867-0.232422-0.375977-0.500977-0.485352-0.806641
				c-0.109375-0.303711-0.186523-0.635742-0.231445-0.996094c-0.045898-0.360352-0.075195-0.736328-0.088867-1.125977
				c-0.014648-0.391602-0.038086-0.78418-0.072266-1.181641c-0.008789-0.072266-0.032227-0.237305-0.068359-0.494141
				c-0.038086-0.254883-0.082031-0.537109-0.132812-0.845703c-0.052734-0.307617-0.09668-0.592773-0.132812-0.854492
				C28.296387,60.740234,28.273926,60.573242,28.265137,60.499023z M29.689941,64.620117
				c-0.113281,0.457031-0.091797,0.852539,0.063477,1.188477c0.155273,0.336914,0.384766,0.615234,0.688477,0.833008
				c0.302734,0.219727,0.654297,0.375,1.054688,0.464844c0.398438,0.091797,0.796875,0.112305,1.193359,0.061523
				c0.396484-0.049805,0.75293-0.166016,1.069336-0.347656c0.336914-0.191406,0.581055-0.458008,0.733398-0.798828
				c0.004883-0.28125-0.055664-0.538086-0.180664-0.769531c-0.126953-0.231445-0.291992-0.4375-0.49707-0.619141
				c-0.206055-0.179688-0.439453-0.336914-0.702148-0.472656c-0.263672-0.134766-0.533203-0.246094-0.805664-0.334961
				c-0.275391-0.088867-0.546875-0.15918-0.817383-0.210938s-0.508789-0.079102-0.716797-0.083008
				c-0.34375-0.006836-0.609375,0.087891-0.794922,0.282227C29.791504,64.007812,29.695801,64.277344,29.689941,64.620117z"/>
			<path d="M35.984863,58.813477c0.00293-0.125,0.040039-0.204102,0.114258-0.240234
				c0.073242-0.03418,0.166992-0.051758,0.282227-0.048828c0.072266-0.008789,0.167969,0.037109,0.287109,0.137695
				c0.117188,0.101562,0.214844,0.213867,0.290039,0.34082c0.076172,0.125977,0.118164,0.242188,0.126953,0.345703
				c0.006836,0.125-0.072266,0.197266-0.238281,0.214844l-0.078125-0.001953c-0.15625-0.00293-0.287109-0.014648-0.390625-0.038086
				c-0.103516-0.022461-0.18457-0.058594-0.240234-0.106445c-0.056641-0.047852-0.097656-0.119141-0.121094-0.212891
				C35.992676,59.109375,35.981934,58.979492,35.984863,58.813477z M36.710449,62.749023
				c0-0.041016,0.001953-0.119141,0.003906-0.234375c0.001953-0.114258,0.005859-0.234375,0.014648-0.359375
				c0.006836-0.125,0.011719-0.244141,0.013672-0.359375c0.00293-0.114258,0.003906-0.192383,0.004883-0.234375
				c-0.036133-0.322266,0.060547-0.483398,0.290039-0.478516c0.103516,0.001953,0.192383,0.029297,0.264648,0.083008
				c0.071289,0.053711,0.137695,0.132812,0.198242,0.238281c-0.041016,0.541016-0.027344,1.064453,0.041992,1.571289
				c0.068359,0.506836,0.147461,1.008789,0.237305,1.504883s0.174805,0.995117,0.253906,1.496094
				c0.079102,0.501953,0.114258,1.024414,0.104492,1.56543c-0.00293,0.146484-0.050781,0.291016-0.141602,0.43457
				c-0.09082,0.145508-0.225586,0.214844-0.402344,0.211914c-0.135742-0.00293-0.25-0.12207-0.344727-0.358398
				c-0.095703-0.236328-0.175781-0.53418-0.241211-0.895508c-0.066406-0.360352-0.12207-0.759766-0.166016-1.198242
				s-0.076172-0.858398-0.09375-1.258789c-0.018555-0.401367-0.03125-0.760742-0.035156-1.080078
				C36.708496,63.080078,36.70752,62.864258,36.710449,62.749023z"/>
			<path d="M39.064941,68.074219c-0.09082-0.741211-0.142578-1.479492-0.154297-2.213867
				c-0.012695-0.735352-0.012695-1.470703,0.000977-2.210938c0.013672-0.739258,0.037109-1.473633,0.072266-2.202148
				c0.03418-0.728516,0.051758-1.458008,0.055664-2.1875c0.001953-0.083008,0.03418-0.140625,0.09668-0.169922
				c0.063477-0.030273,0.135742-0.044922,0.219727-0.042969c0.09375,0.001953,0.176758,0.037109,0.248047,0.105469
				c0.071289,0.070312,0.131836,0.154297,0.183594,0.253906c0.049805,0.100586,0.086914,0.200195,0.111328,0.298828
				c0.023438,0.100586,0.036133,0.180664,0.03418,0.243164c0.035156,1.491211,0.053711,2.734375,0.056641,3.728516
				c0.001953,0.995117-0.012695,1.796875-0.043945,2.405273c-0.033203,0.609375-0.074219,1.05957-0.126953,1.349609
				c-0.051758,0.291992-0.116211,0.488281-0.19043,0.59082c-0.075195,0.103516-0.162109,0.143555-0.259766,0.120117
				C39.269043,68.120117,39.168457,68.097656,39.064941,68.074219z"/>
			<path d="M40.718262,64.041992c0.009766-0.541016,0.099609-1.057617,0.270508-1.549805
				c0.169922-0.491211,0.412109-0.922852,0.726562-1.291992s0.694336-0.661133,1.141602-0.87793
				c0.447266-0.21582,0.961914-0.318359,1.544922-0.307617c0.342773,0.048828,0.639648,0.147461,0.892578,0.297852
				c0.25293,0.151367,0.457031,0.334961,0.615234,0.550781c0.157227,0.216797,0.270508,0.46582,0.337891,0.748047
				c0.057617,0.273438,0.083984,0.564453,0.078125,0.876953c-0.006836,0.375-0.123047,0.711914-0.34668,1.009766
				c-0.224609,0.298828-0.505859,0.545898-0.842773,0.742188c-0.336914,0.197266-0.699219,0.34668-1.085938,0.449219
				c-0.387695,0.101562-0.748047,0.149414-1.081055,0.143555c-0.125-0.00293-0.25293-0.004883-0.382812-0.006836
				c-0.130859-0.00293-0.24707-0.025391-0.349609-0.069336c-0.104492-0.042969-0.185547-0.106445-0.24707-0.191406
				c-0.060547-0.083984-0.089844-0.208984-0.086914-0.375977c0.000977-0.051758,0.009766-0.095703,0.026367-0.132812
				c0.015625-0.036133,0.060547-0.061523,0.133789-0.076172c0.072266-0.013672,0.182617-0.013672,0.328125-0.000977
				c0.145508,0.023438,0.342773,0.058594,0.592773,0.104492c0.145508,0.00293,0.356445-0.041992,0.634766-0.136719
				c0.277344-0.09375,0.560547-0.216797,0.850586-0.367188c0.289062-0.151367,0.539062-0.326172,0.751953-0.525391
				c0.211914-0.199219,0.319336-0.397461,0.323242-0.595703c0.003906-0.208008-0.026367-0.415039-0.089844-0.619141
				c-0.064453-0.205078-0.163086-0.386719-0.294922-0.544922c-0.132812-0.15918-0.290039-0.287109-0.469727-0.383789
				c-0.180664-0.097656-0.386719-0.136719-0.615234-0.121094c-0.365234,0.024414-0.696289,0.118164-0.99707,0.279297
				c-0.299805,0.161133-0.556641,0.37207-0.769531,0.633789c-0.213867,0.261719-0.379883,0.553711-0.5,0.874023
				c-0.12207,0.321289-0.18457,0.65918-0.191406,1.012695c-0.004883,0.271484-0.004883,0.541992,0.000977,0.8125
				c0.004883,0.271484,0.039062,0.537109,0.102539,0.797852c0.0625,0.262695,0.166992,0.514648,0.314453,0.756836
				c0.145508,0.242188,0.360352,0.458008,0.644531,0.644531c0.283203,0.1875,0.642578,0.345703,1.077148,0.472656
				c0.43457,0.128906,0.974609,0.213867,1.620117,0.256836l2.800781-0.135742
				c-0.171875,0.226562-0.385742,0.410156-0.643555,0.550781C47.274902,67.887695,47.002441,68,46.715332,68.083008
				c-0.289062,0.083008-0.573242,0.143555-0.855469,0.178711c-0.282227,0.037109-0.547852,0.052734-0.797852,0.047852
				c-0.604492-0.010742-1.168945-0.120117-1.697266-0.328125c-0.527344-0.207031-0.991211-0.494141-1.390625-0.861328
				s-0.711914-0.810547-0.936523-1.330078C40.812012,65.269531,40.705566,64.6875,40.718262,64.041992z"/>
		</g>
	</g>
	<g style="opacity:0.85;">
		<g>
			<path d="M104.458496,66.0625c-0.010742,0-0.018555,0-0.023438,0c-0.005859-0.000977-0.013672-0.000977-0.023438-0.000977
				h-0.03125c-0.46582,0.408203-0.84082,0.724609-1.125977,0.948242c-0.286133,0.223633-0.513672,0.388672-0.681641,0.495117
				c-0.168945,0.106445-0.290039,0.166992-0.363281,0.180664c-0.073242,0.014648-0.125,0.021484-0.15625,0.020508
				c-0.396484-0.006836-0.735352-0.125-1.01709-0.354492c-0.283203-0.228516-0.51709-0.522461-0.703125-0.880859
				c-0.186523-0.356445-0.335449-0.763672-0.446289-1.21875c-0.111816-0.456055-0.194336-0.907227-0.248535-1.356445
				c-0.054199-0.448242-0.091309-0.871094-0.109375-1.267578c-0.019043-0.396484-0.025879-0.729492-0.020996-1.000977
				c0.000488-0.03125,0.00293-0.142578,0.006348-0.335938c0.003418-0.192383,0.022949-0.397461,0.058105-0.616211
				c0.035645-0.217773,0.095703-0.414062,0.183105-0.59082c0.106445-0.174805,0.244141-0.260742,0.411133-0.257812
				c0.072266,0.000977,0.123047,0.101562,0.150391,0.299805c0.027832,0.199219,0.05127,0.454102,0.072266,0.767578
				c0.019531,0.3125,0.041992,0.672852,0.065918,1.079102c0.023926,0.407227,0.049316,0.824219,0.078613,1.251953
				c0.02832,0.428711,0.072266,0.845703,0.133301,1.251953c0.05957,0.407227,0.14209,0.771484,0.245605,1.09082
				c0.103516,0.320312,0.233398,0.578125,0.39209,0.773438c0.157715,0.196289,0.351074,0.294922,0.580566,0.299805
				c0.1875,0.00293,0.368164-0.044922,0.541992-0.146484c0.173828-0.100586,0.333984-0.222656,0.483398-0.366211
				c0.148438-0.142578,0.28418-0.291992,0.407227-0.446289c0.12207-0.15332,0.231445-0.28125,0.327148-0.384766
				c0.06543-0.143555,0.112305-0.310547,0.141602-0.49707c0.029297-0.1875,0.048828-0.378906,0.057617-0.576172
				s0.012695-0.384766,0.010742-0.5625c-0.00293-0.176758-0.007812-0.328125-0.015625-0.454102
				c0.054688-0.144531,0.119141-0.244141,0.193359-0.300781c0.072266-0.055664,0.141602-0.072266,0.203125-0.050781
				c0.0625,0.022461,0.124023,0.078125,0.18457,0.166992c0.060547,0.089844,0.115234,0.208984,0.165039,0.354492
				c0.045898,0.334961,0.132812,0.706055,0.261719,1.114258c0.126953,0.408203,0.299805,0.790039,0.517578,1.142578
				c0.217773,0.353516,0.485352,0.649414,0.804688,0.889648c0.317383,0.240234,0.69043,0.365234,1.118164,0.373047
				c0.228516,0.003906,0.466797-0.039062,0.713867-0.12793c0.246094-0.088867,0.466797-0.214844,0.663086-0.378906
				c0.195312-0.162109,0.358398-0.352539,0.487305-0.569336c0.128906-0.21582,0.196289-0.449219,0.200195-0.699219
				c0.007812-0.395508-0.047852-0.78125-0.166016-1.15918c-0.118164-0.376953-0.251953-0.751953-0.401367-1.125
				c-0.149414-0.37207-0.283203-0.744141-0.401367-1.117188c-0.118164-0.371094-0.173828-0.75-0.166992-1.135742
				c0.140625-0.289062,0.291016-0.40918,0.452148-0.359375c0.160156,0.049805,0.318359,0.207031,0.476562,0.469727
				c0.15625,0.263672,0.302734,0.602539,0.442383,1.016602c0.137695,0.415039,0.258789,0.833008,0.366211,1.256836
				c0.106445,0.424805,0.185547,0.822266,0.236328,1.192383c0.049805,0.370117,0.068359,0.644531,0.054688,0.821289
				c-0.006836,0.396484-0.097656,0.769531-0.270508,1.120117c-0.173828,0.351562-0.405273,0.665039-0.696289,0.94043
				c-0.291992,0.276367-0.624023,0.495117-0.99707,0.654297c-0.373047,0.160156-0.756836,0.235352-1.152344,0.228516
				c-0.3125-0.005859-0.616211-0.105469-0.90918-0.297852c-0.292969-0.193359-0.555664-0.40625-0.785156-0.639648
				c-0.230469-0.233398-0.429688-0.446289-0.597656-0.636719C104.66748,66.160156,104.541504,66.064453,104.458496,66.0625z"/>
			<path d="M110.86084,63.805664c0.009766-0.541016,0.099609-1.058594,0.270508-1.550781
				c0.169922-0.491211,0.412109-0.921875,0.726562-1.291016c0.314453-0.370117,0.694336-0.661133,1.141602-0.87793
				c0.447266-0.21582,0.961914-0.318359,1.545898-0.307617c0.342773,0.047852,0.639648,0.147461,0.892578,0.297852
				c0.251953,0.151367,0.456055,0.334961,0.614258,0.550781c0.157227,0.216797,0.270508,0.46582,0.337891,0.748047
				c0.057617,0.272461,0.083984,0.564453,0.078125,0.876953c-0.006836,0.375-0.123047,0.711914-0.34668,1.009766
				c-0.224609,0.298828-0.505859,0.544922-0.841797,0.742188c-0.336914,0.197266-0.699219,0.34668-1.085938,0.449219
				c-0.388672,0.101562-0.749023,0.149414-1.082031,0.143555c-0.125-0.00293-0.25293-0.004883-0.382812-0.007812
				c-0.130859-0.001953-0.24707-0.024414-0.349609-0.068359c-0.104492-0.042969-0.185547-0.106445-0.24707-0.191406
				c-0.060547-0.083984-0.089844-0.209961-0.086914-0.376953c0.000977-0.051758,0.009766-0.095703,0.026367-0.131836
				c0.015625-0.036133,0.060547-0.061523,0.133789-0.076172c0.072266-0.013672,0.182617-0.013672,0.328125-0.001953
				c0.145508,0.024414,0.342773,0.05957,0.592773,0.105469c0.145508,0.001953,0.356445-0.042969,0.634766-0.137695
				c0.277344-0.092773,0.561523-0.21582,0.851562-0.367188c0.289062-0.150391,0.539062-0.326172,0.751953-0.525391
				c0.210938-0.199219,0.318359-0.397461,0.322266-0.595703c0.003906-0.208008-0.026367-0.414062-0.089844-0.619141
				c-0.063477-0.204102-0.162109-0.385742-0.293945-0.543945c-0.132812-0.15918-0.290039-0.287109-0.469727-0.383789
				c-0.180664-0.097656-0.386719-0.137695-0.615234-0.121094c-0.366211,0.024414-0.697266,0.118164-0.998047,0.27832
				c-0.299805,0.162109-0.556641,0.373047-0.769531,0.634766c-0.213867,0.261719-0.379883,0.553711-0.5,0.874023
				c-0.12207,0.321289-0.18457,0.65918-0.191406,1.012695c-0.004883,0.271484-0.004883,0.541992,0.000977,0.8125
				c0.004883,0.271484,0.039062,0.537109,0.102539,0.797852c0.0625,0.261719,0.166992,0.513672,0.314453,0.755859
				c0.145508,0.243164,0.360352,0.458008,0.644531,0.645508c0.283203,0.1875,0.642578,0.345703,1.077148,0.472656
				c0.435547,0.12793,0.975586,0.213867,1.620117,0.256836l2.800781-0.136719
				c-0.171875,0.226562-0.385742,0.410156-0.643555,0.551758c-0.258789,0.141602-0.53125,0.253906-0.818359,0.335938
				c-0.289062,0.083984-0.573242,0.143555-0.855469,0.179688c-0.282227,0.037109-0.547852,0.052734-0.796875,0.047852
				c-0.604492-0.010742-1.169922-0.120117-1.698242-0.328125c-0.527344-0.207031-0.991211-0.495117-1.390625-0.861328
				c-0.399414-0.367188-0.711914-0.810547-0.936523-1.331055C110.95459,65.033203,110.848145,64.451172,110.86084,63.805664z"/>
			<path d="M119.32666,60.647461c-0.043945-0.458984-0.099609-0.850586-0.166016-1.174805
				c-0.067383-0.324219-0.09668-0.589844-0.086914-0.797852c0.008789-0.208008,0.077148-0.368164,0.204102-0.481445
				c0.136719-0.111328,0.373047-0.185547,0.708008-0.220703c0.018555,0.104492,0.041016,0.303711,0.066406,0.594727
				c0.026367,0.292969,0.053711,0.623047,0.083984,0.993164c0.029297,0.371094,0.063477,0.757812,0.103516,1.158203
				c0.039062,0.402344,0.076172,0.770508,0.112305,1.104492c0.035156,0.334961,0.077148,0.606445,0.125977,0.81543
				c0.047852,0.230469,0.092773,0.334961,0.134766,0.314453c0.1875,0.003906,0.373047-0.024414,0.556641-0.083008
				c0.181641-0.05957,0.37793-0.086914,0.586914-0.083008c0.3125,0.005859,0.644531,0.041016,0.998047,0.104492
				c0.352539,0.063477,0.702148,0.15625,1.049805,0.276367c0.34668,0.12207,0.682617,0.276367,1.007812,0.464844
				c0.324219,0.188477,0.606445,0.404297,0.847656,0.648438c0.239258,0.244141,0.430176,0.522461,0.570801,0.837891
				c0.139648,0.31543,0.207031,0.660156,0.200195,1.035156c-0.008789,0.479492-0.133789,0.860352-0.373047,1.141602
				c-0.239746,0.283203-0.543457,0.493164-0.910645,0.631836c-0.368164,0.140625-0.765625,0.226562-1.192383,0.259766
				c-0.438477,0.03418-0.845703,0.046875-1.220703,0.040039c-0.521484-0.009766-0.951172-0.082031-1.292969-0.21875
				c-0.34082-0.136719-0.618164-0.321289-0.833008-0.554688c-0.213867-0.232422-0.375977-0.501953-0.485352-0.806641
				c-0.109375-0.303711-0.186523-0.635742-0.231445-0.996094c-0.045898-0.360352-0.075195-0.736328-0.088867-1.125977
				c-0.014648-0.391602-0.038086-0.78418-0.072266-1.181641c-0.008789-0.072266-0.032227-0.237305-0.068359-0.494141
				c-0.038086-0.254883-0.082031-0.537109-0.132812-0.845703c-0.052734-0.308594-0.09668-0.59375-0.132812-0.854492
				C119.35791,60.888672,119.335449,60.720703,119.32666,60.647461z M120.751465,64.767578
				c-0.113281,0.458008-0.091797,0.853516,0.063477,1.189453c0.155273,0.336914,0.384766,0.615234,0.6875,0.833008
				c0.302734,0.219727,0.654297,0.375,1.054688,0.464844c0.398438,0.091797,0.796875,0.111328,1.194336,0.061523
				c0.396484-0.049805,0.75293-0.166016,1.069336-0.347656c0.336914-0.191406,0.581055-0.458008,0.733398-0.799805
				c0.004883-0.28125-0.055664-0.537109-0.180664-0.768555c-0.126953-0.231445-0.291992-0.4375-0.49707-0.619141
				c-0.206055-0.179688-0.439453-0.336914-0.702148-0.472656c-0.263672-0.134766-0.533203-0.246094-0.806641-0.334961
				c-0.275391-0.088867-0.546875-0.15918-0.817383-0.210938s-0.508789-0.080078-0.716797-0.083008
				c-0.34375-0.006836-0.608398,0.087891-0.793945,0.282227C120.853027,64.15625,120.757324,64.425781,120.751465,64.767578z"/>
		</g>
	</g>
	<g style="opacity:0.85;">
		<g>
			<path d="M182.348633,67.137695c-0.019531-0.103516-0.037109-0.271484-0.052734-0.500977
				c-0.017578-0.229492-0.038086-0.485352-0.064453-0.767578c-0.026367-0.28125-0.051758-0.581055-0.077148-0.899414
				s-0.050781-0.621094-0.077148-0.908203c-0.025391-0.286133-0.049805-0.541016-0.070312-0.766602
				c-0.022461-0.223633-0.038086-0.393555-0.045898-0.508789c-0.019531-0.103516-0.024414-0.234375-0.015625-0.390625
				c0.006836-0.15625,0-0.317383-0.022461-0.485352c-0.023438-0.166016-0.0625-0.323242-0.117188-0.470703
				c-0.054688-0.146484-0.138672-0.25293-0.251953-0.317383c-0.378906,0.202148-0.756836,0.351562-1.132812,0.448242
				c-0.376953,0.097656-0.774414,0.141602-1.19043,0.133789c-0.615234-0.010742-1.222656-0.397461-1.823242-1.158203
				c-0.041992-0.000977-0.071289,0.029297-0.087891,0.091797s-0.032227,0.135742-0.042969,0.217773
				c-0.012695,0.083984-0.016602,0.171875-0.012695,0.265625c0.00293,0.09375,0.004883,0.171875,0.00293,0.234375
				l-0.111328,5.217773c-0.000977,0.0625-0.020508,0.117188-0.057617,0.163086
				c-0.038086,0.045898-0.082031,0.079102-0.134766,0.098633c-0.052734,0.020508-0.108398,0.037109-0.165039,0.051758
				c-0.057617,0.014648-0.112305,0.021484-0.164062,0.020508c-0.166992-0.00293-0.27832-0.075195-0.332031-0.216797
				c-0.055664-0.141602-0.09082-0.280273-0.109375-0.416016l0.041992-2.25c0.012695-0.686523,0.053711-1.363281,0.12207-2.029297
				c0.069336-0.665039,0.110352-1.341797,0.123047-2.029297c0.003906-0.208008-0.03418-0.396484-0.113281-0.564453
				c-0.081055-0.167969-0.166016-0.333984-0.256836-0.49707s-0.173828-0.326172-0.249023-0.489258
				S175.75,58.072266,175.753906,57.875c0.003906-0.21875,0.109375-0.326172,0.318359-0.323242
				c0.259766,0.004883,0.475586,0.086914,0.650391,0.24707c0.173828,0.15918,0.327148,0.348633,0.458984,0.570312
				c0.130859,0.220703,0.256836,0.46875,0.376953,0.741211c0.120117,0.273438,0.263672,0.520508,0.431641,0.742188
				c0.167969,0.222656,0.361328,0.413086,0.583008,0.574219c0.220703,0.160156,0.498047,0.243164,0.832031,0.249023
				c0.416016,0.029297,0.763672-0.029297,1.042969-0.175781c0.27832-0.145508,0.505859-0.334961,0.682617-0.56543
				c0.175781-0.231445,0.321289-0.484375,0.435547-0.757812s0.214844-0.52832,0.302734-0.760742
				s0.179688-0.419922,0.276367-0.564453c0.105469-0.143555,0.231445-0.199219,0.376953-0.165039
				c0.115234-0.018555,0.200195,0.009766,0.256836,0.083008c0.055664,0.074219,0.098633,0.166016,0.12793,0.275391
				c0.029297,0.110352,0.044922,0.216797,0.048828,0.320312c0.00293,0.105469,0.003906,0.178711,0.003906,0.219727
				c-0.007812,0.396484-0.043945,0.772461-0.107422,1.130859s-0.099609,0.740234-0.106445,1.146484
				c-0.009766,0.53125,0.016602,1.058594,0.080078,1.580078c0.0625,0.523438,0.138672,1.047852,0.228516,1.574219
				c0.088867,0.52832,0.168945,1.053711,0.237305,1.575195c0.068359,0.523438,0.097656,1.043945,0.087891,1.564453
				c-0.000977,0.083984-0.013672,0.151367-0.035156,0.203125c-0.022461,0.052734-0.053711,0.087891-0.095703,0.107422
				s-0.088867,0.029297-0.140625,0.02832c-0.052734-0.000977-0.109375-0.001953-0.171875-0.00293
				c-0.135742-0.001953-0.257812-0.020508-0.366211-0.053711C182.460938,67.405273,182.386719,67.305664,182.348633,67.137695z"/>
			<path d="M189.868164,65.322266c-0.242188,0.131836-0.451172,0.291992-0.625977,0.480469
				c-0.175781,0.19043-0.353516,0.369141-0.533203,0.538086c-0.181641,0.167969-0.378906,0.313477-0.594727,0.43457
				s-0.489258,0.177734-0.822266,0.171875c-0.375-0.006836-0.712891-0.092773-1.011719-0.260742
				c-0.299805-0.166992-0.563477-0.390625-0.791992-0.670898c-0.229492-0.280273-0.426758-0.595703-0.592773-0.949219
				c-0.165039-0.351562-0.298828-0.713867-0.401367-1.085938c-0.103516-0.370117-0.180664-0.736328-0.230469-1.09668
				c-0.050781-0.360352-0.073242-0.686523-0.067383-0.978516c-0.074219-0.564453-0.050781-1.00293,0.070312-1.319336
				c0.120117-0.31543,0.261719-0.515625,0.425781-0.601562c0.163086-0.084961,0.299805-0.0625,0.413086,0.070312
				c0.111328,0.132812,0.123047,0.359375,0.03418,0.679688c-0.022461,0.041992-0.039062,0.107422-0.050781,0.195312
				s-0.024414,0.178711-0.036133,0.272461c-0.012695,0.09375-0.024414,0.182617-0.036133,0.264648
				c-0.012695,0.083984-0.018555,0.140625-0.018555,0.171875c-0.003906,0.21875,0.011719,0.476562,0.047852,0.774414
				s0.095703,0.609375,0.178711,0.933594c0.082031,0.325195,0.188477,0.646484,0.318359,0.96582
				c0.128906,0.321289,0.285156,0.607422,0.46875,0.860352c0.182617,0.253906,0.394531,0.460938,0.636719,0.62207
				c0.241211,0.160156,0.508789,0.243164,0.800781,0.249023c0.1875,0.00293,0.400391-0.083984,0.644531-0.261719
				c0.242188-0.177734,0.472656-0.391602,0.691406-0.643555c0.217773-0.250977,0.405273-0.510742,0.561523-0.779297
				c0.155273-0.267578,0.235352-0.495117,0.239258-0.682617c0.001953-0.103516,0.006836-0.275391,0.017578-0.515625
				c0.008789-0.239258,0.016602-0.494141,0.021484-0.765625c0.004883-0.270508,0.006836-0.525391,0.006836-0.765625
				c-0.001953-0.239258-0.000977-0.40625,0.000977-0.5c0.064453-0.102539,0.132812-0.181641,0.208008-0.238281
				c0.073242-0.055664,0.162109-0.083008,0.266602-0.081055c0.125,0.001953,0.227539,0.087891,0.307617,0.255859
				s0.143555,0.383789,0.191406,0.644531c0.047852,0.261719,0.078125,0.542969,0.094727,0.845703
				c0.014648,0.302734,0.024414,0.59375,0.030273,0.875977c0.004883,0.28125,0.010742,0.529297,0.017578,0.741211
				c0.005859,0.213867,0.018555,0.358398,0.039062,0.430664c0.047852,0.209961,0.119141,0.446289,0.213867,0.707031
				c0.09375,0.262695,0.185547,0.517578,0.274414,0.763672c0.089844,0.24707,0.168945,0.47168,0.238281,0.676758
				c0.068359,0.204102,0.102539,0.359375,0.100586,0.462891c-0.00293,0.15625-0.049805,0.249023-0.137695,0.27832
				c-0.089844,0.029297-0.202148,0.042969-0.336914,0.041016c-0.166992-0.00293-0.288086-0.046875-0.365234-0.131836
				c-0.076172-0.084961-0.131836-0.192383-0.166016-0.323242s-0.060547-0.275391-0.078125-0.431641
				c-0.018555-0.15625-0.048828-0.318359-0.091797-0.486328c-0.043945-0.166992-0.109375-0.324219-0.195312-0.472656
				C190.158203,65.541992,190.032227,65.418945,189.868164,65.322266z"/>
			<path d="M192.500977,67.511719c-0.09082-0.741211-0.142578-1.479492-0.155273-2.213867
				c-0.012695-0.735352-0.011719-1.470703,0.001953-2.210938c0.013672-0.739258,0.037109-1.473633,0.072266-2.202148
				c0.033203-0.728516,0.051758-1.458008,0.055664-2.1875c0.000977-0.083008,0.033203-0.140625,0.09668-0.169922
				c0.063477-0.030273,0.135742-0.044922,0.219727-0.042969c0.09375,0.001953,0.175781,0.037109,0.248047,0.105469
				c0.071289,0.070312,0.131836,0.154297,0.182617,0.253906c0.049805,0.100586,0.087891,0.200195,0.112305,0.298828
				c0.023438,0.100586,0.035156,0.180664,0.03418,0.243164c0.035156,1.491211,0.053711,2.734375,0.056641,3.728516
				c0.001953,0.995117-0.012695,1.796875-0.043945,2.405273c-0.033203,0.609375-0.074219,1.05957-0.126953,1.349609
				c-0.051758,0.291992-0.116211,0.488281-0.19043,0.59082c-0.075195,0.103516-0.162109,0.143555-0.259766,0.120117
				C192.705078,67.557617,192.603516,67.535156,192.500977,67.511719z"/>
			<path d="M196.00293,62.326172c-0.083984-0.001953-0.229492-0.004883-0.4375-0.008789
				c-0.208984-0.003906-0.424805-0.025391-0.647461-0.066406c-0.224609-0.040039-0.425781-0.103516-0.606445-0.19043
				s-0.269531-0.208984-0.266602-0.365234c0.000977-0.041016,0.009766-0.100586,0.026367-0.178711
				c0.017578-0.078125,0.066406-0.116211,0.150391-0.114258l1.612305-0.111328
				c0.047852-0.383789,0.084961-0.699219,0.111328-0.943359c0.025391-0.244141,0.03418-0.473633,0.02832-0.6875
				c-0.006836-0.212891-0.015625-0.4375-0.026367-0.672852c-0.011719-0.234375-0.019531-0.539062-0.022461-0.913086
				c0.000977-0.072266,0.017578-0.129883,0.049805-0.170898s0.071289-0.071289,0.119141-0.091797
				c0.046875-0.019531,0.098633-0.03418,0.157227-0.043945c0.056641-0.008789,0.101562-0.013672,0.132812-0.013672
				c0.0625,0.000977,0.126953,0.024414,0.194336,0.066406c0.066406,0.042969,0.125,0.095703,0.176758,0.15918
				c0.050781,0.063477,0.09082,0.129883,0.121094,0.198242s0.044922,0.132812,0.042969,0.195312l0.071289,2.923828
				l1.342773,0.086914c0.177734-0.016602,0.34082,0.020508,0.490234,0.110352c0.149414,0.091797,0.227539,0.257812,0.233398,0.49707
				c-0.126953,0.133789-0.280273,0.211914-0.458008,0.233398c-0.177734,0.023438-0.362305,0.03125-0.554688,0.021484
				c-0.193359-0.008789-0.382812-0.011719-0.570312-0.010742c-0.1875,0.00293-0.355469,0.048828-0.50293,0.139648
				c-0.000977,0.0625,0.000977,0.234375,0.005859,0.515625s0.009766,0.616211,0.013672,1.000977
				c0.001953,0.384766,0.008789,0.795898,0.015625,1.233398c0.007812,0.438477,0.012695,0.842773,0.016602,1.211914
				c0.003906,0.370117,0.005859,0.686523,0.006836,0.946289c0,0.260742,0,0.40625-0.000977,0.4375
				c-0.242188,0.140625-0.43457,0.125-0.577148-0.049805c-0.143555-0.174805-0.255859-0.431641-0.336914-0.772461
				c-0.083008-0.338867-0.138672-0.737305-0.166016-1.19043c-0.02832-0.454102-0.041016-0.901367-0.038086-1.344727
				c0.00293-0.442383,0.012695-0.850586,0.030273-1.225586C195.957031,62.762695,195.978516,62.492188,196.00293,62.326172z"/>
			<path d="M199.386719,58.43457c0.00293-0.125,0.040039-0.204102,0.114258-0.240234
				c0.072266-0.035156,0.166992-0.051758,0.282227-0.049805c0.072266-0.007812,0.167969,0.038086,0.286133,0.138672
				c0.117188,0.101562,0.214844,0.213867,0.291016,0.339844c0.076172,0.126953,0.117188,0.243164,0.125977,0.34668
				c0.007812,0.125-0.071289,0.197266-0.238281,0.213867l-0.078125-0.000977c-0.15625-0.00293-0.286133-0.014648-0.389648-0.038086
				c-0.104492-0.022461-0.18457-0.058594-0.240234-0.106445c-0.056641-0.047852-0.097656-0.119141-0.121094-0.212891
				C199.394531,58.730469,199.383789,58.600586,199.386719,58.43457z M200.111328,62.370117
				c0.000977-0.041016,0.00293-0.119141,0.004883-0.234375c0.001953-0.114258,0.005859-0.234375,0.013672-0.359375
				s0.012695-0.244141,0.014648-0.359375c0.001953-0.114258,0.003906-0.192383,0.004883-0.234375
				c-0.036133-0.322266,0.060547-0.483398,0.290039-0.478516c0.103516,0.001953,0.191406,0.029297,0.263672,0.083008
				c0.071289,0.053711,0.138672,0.132812,0.199219,0.237305c-0.041016,0.541992-0.027344,1.06543,0.041016,1.572266
				c0.069336,0.506836,0.147461,1.008789,0.238281,1.504883c0.089844,0.496094,0.173828,0.994141,0.253906,1.496094
				c0.079102,0.501953,0.114258,1.024414,0.103516,1.56543c-0.001953,0.146484-0.049805,0.291016-0.140625,0.43457
				c-0.091797,0.144531-0.225586,0.214844-0.402344,0.211914c-0.135742-0.00293-0.250977-0.12207-0.344727-0.358398
				c-0.095703-0.236328-0.175781-0.535156-0.241211-0.895508c-0.067383-0.360352-0.12207-0.759766-0.166016-1.198242
				c-0.044922-0.438477-0.076172-0.858398-0.09375-1.259766c-0.019531-0.400391-0.03125-0.759766-0.035156-1.079102
				C200.110352,62.701172,200.109375,62.485352,200.111328,62.370117z"/>
			<path d="M205.886719,62.773438c0.145508,0.00293,0.301758,0.008789,0.46875,0.016602
				c0.166016,0.008789,0.321289,0.040039,0.466797,0.094727c0.144531,0.054688,0.263672,0.132812,0.355469,0.232422
				c0.091797,0.101562,0.135742,0.245117,0.132812,0.432617c-0.003906,0.21875-0.105469,0.326172-0.302734,0.322266
				c-0.229492-0.003906-0.44043-0.036133-0.631836-0.09668c-0.192383-0.060547-0.407227-0.09375-0.646484-0.098633
				c-0.302734-0.004883-0.601562,0.007812-0.898438,0.038086c-0.297852,0.032227-0.598633,0.06543-0.900391,0.100586
				c-0.303711,0.037109-0.603516,0.070312-0.901367,0.101562c-0.296875,0.03125-0.597656,0.042969-0.899414,0.038086
				c0.004883-0.25,0.06543-0.446289,0.182617-0.59082c0.117188-0.143555,0.270508-0.257812,0.459961-0.34375
				c0.189453-0.083984,0.401367-0.140625,0.636719-0.167969c0.234375-0.026367,0.476562-0.040039,0.727539-0.041016
				c0.25,0,0.494141-0.000977,0.734375-0.001953c0.238281-0.000977,0.452148-0.009766,0.640625-0.027344l0.046875,0.000977
				c0.03125,0,0.067383-0.000977,0.109375-0.005859c0.041016-0.003906,0.083008-0.006836,0.125-0.005859
				C205.833984,62.772461,205.865234,62.773438,205.886719,62.773438z"/>
			<path d="M208.124023,66.033203c0.083984-0.060547,0.160156-0.098633,0.228516-0.113281
				c0.068359-0.013672,0.143555-0.020508,0.227539-0.018555c0.09375,0.001953,0.186523,0.026367,0.280273,0.075195
				c0.092773,0.048828,0.177734,0.107422,0.253906,0.176758c0.077148,0.069336,0.15625,0.135742,0.239258,0.199219
				c0.082031,0.064453,0.169922,0.119141,0.262695,0.161133c0.268555,0.121094,0.482422,0.21875,0.642578,0.293945
				c0.160156,0.076172,0.307617,0.136719,0.442383,0.179688c0.132812,0.044922,0.289062,0.074219,0.466797,0.086914
				c0.176758,0.013672,0.405273,0.023438,0.686523,0.02832c0.21875,0.003906,0.484375,0.011719,0.796875,0.022461
				c0.3125,0.011719,0.610352-0.009766,0.892578-0.061523s0.523438-0.152344,0.724609-0.299805
				c0.199219-0.146484,0.303711-0.376953,0.30957-0.689453c0.014648-0.301758-0.060547-0.541016-0.229492-0.71582
				s-0.398438-0.311523-0.6875-0.411133c-0.291016-0.098633-0.617188-0.169922-0.981445-0.212891
				s-0.738281-0.088867-1.12207-0.138672c-0.385742-0.047852-0.762695-0.115234-1.128906-0.199219
				c-0.369141-0.084961-0.697266-0.212891-0.985352-0.385742c-0.289062-0.170898-0.519531-0.405273-0.69043-0.700195
				c-0.172852-0.293945-0.259766-0.670898-0.260742-1.129883c0.068359-0.332031,0.238281-0.607422,0.507812-0.827148
				c0.269531-0.21875,0.589844-0.384766,0.961914-0.498047c0.37207-0.112305,0.766602-0.167969,1.182617-0.166016
				c0.416016,0.00293,0.797852,0.061523,1.145508,0.177734c0.34668,0.115234,0.635742,0.295898,0.865234,0.539062
				c0.230469,0.245117,0.34668,0.543945,0.350586,0.897461c0.016602,0.209961-0.001953,0.380859-0.055664,0.514648
				c-0.055664,0.134766-0.12793,0.235352-0.216797,0.300781c-0.089844,0.067383-0.181641,0.09668-0.275391,0.088867
				c-0.09375-0.005859-0.166016-0.043945-0.216797-0.113281c-0.050781-0.068359-0.073242-0.166992-0.064453-0.297852
				c0.006836-0.129883,0.069336-0.292969,0.188477-0.489258c-0.038086-0.198242-0.155273-0.356445-0.350586-0.475586
				c-0.196289-0.117188-0.423828-0.203125-0.682617-0.253906c-0.260742-0.051758-0.538086-0.067383-0.835938-0.046875
				c-0.295898,0.020508-0.568359,0.070312-0.814453,0.148438c-0.24707,0.080078-0.447266,0.185547-0.599609,0.317383
				c-0.154297,0.132812-0.222656,0.288086-0.204102,0.46582c-0.005859,0.3125,0.081055,0.555664,0.259766,0.731445
				c0.178711,0.174805,0.414062,0.3125,0.704102,0.411133c0.289062,0.099609,0.623047,0.173828,1.00293,0.22168
				c0.378906,0.048828,0.768555,0.095703,1.169922,0.138672c0.399414,0.044922,0.787109,0.103516,1.161133,0.177734
				c0.374023,0.075195,0.708984,0.193359,1.008789,0.353516c0.299805,0.162109,0.535156,0.376953,0.708008,0.646484
				c0.171875,0.268555,0.253906,0.617188,0.246094,1.043945c-0.005859,0.323242-0.094727,0.599609-0.265625,0.831055
				s-0.385742,0.422852-0.643555,0.574219c-0.258789,0.151367-0.539062,0.261719-0.841797,0.328125
				c-0.304688,0.068359-0.59082,0.098633-0.861328,0.09375c-0.271484-0.004883-0.560547-0.011719-0.867188-0.023438
				c-0.307617-0.010742-0.620117-0.035156-0.936523-0.072266c-0.318359-0.037109-0.636719-0.091797-0.957031-0.166016
				c-0.322266-0.073242-0.620117-0.183594-0.892578-0.329102c-0.274414-0.145508-0.517578-0.330078-0.732422-0.552734
				S208.25293,66.370117,208.124023,66.033203z"/>
			<path d="M216.417969,64.591797c0.008789-0.457031,0.103516-0.900391,0.290039-1.330078
				c0.18457-0.428711,0.433594-0.806641,0.74707-1.134766c0.3125-0.328125,0.674805-0.586914,1.084961-0.777344
				s0.84375-0.28125,1.302734-0.273438c0.208008,0.003906,0.428711,0.03125,0.662109,0.083008
				c0.234375,0.050781,0.453125,0.130859,0.660156,0.238281c0.206055,0.108398,0.375977,0.249023,0.507812,0.423828
				s0.196289,0.392578,0.191406,0.652344c-0.000977,0.041992-0.015625,0.125-0.043945,0.249023
				c-0.02832,0.125-0.064453,0.249023-0.108398,0.373047s-0.095703,0.235352-0.154297,0.333008
				c-0.05957,0.098633-0.110352,0.146484-0.151367,0.146484c0.008789-0.489258-0.119141-0.901367-0.383789-1.234375
				s-0.657227-0.504883-1.177734-0.513672c-0.396484-0.007812-0.751953,0.069336-1.067383,0.230469
				s-0.580078,0.375-0.792969,0.641602c-0.214844,0.267578-0.37793,0.569336-0.494141,0.905273
				c-0.115234,0.336914-0.176758,0.682617-0.182617,1.035156c-0.008789,0.479492,0.061523,0.875977,0.211914,1.191406
				s0.359375,0.572266,0.626953,0.769531c0.266602,0.198242,0.577148,0.34668,0.929688,0.447266
				c0.351562,0.100586,0.725586,0.169922,1.121094,0.208008c0.395508,0.039062,0.791016,0.056641,1.1875,0.052734
				c0.395508-0.001953,0.775391-0.010742,1.140625-0.025391c0.03125,0.000977,0.082031,0.023438,0.155273,0.06543
				c0.071289,0.042969,0.123047,0.070312,0.154297,0.081055l-0.000977,0.046875c0,0.021484,0.001953,0.03125,0.007812,0.03125
				c0.004883,0,0.007812,0.005859,0.006836,0.015625c-0.001953,0.115234-0.061523,0.212891-0.176758,0.293945
				c-0.117188,0.082031-0.258789,0.146484-0.425781,0.195312c-0.166992,0.049805-0.350586,0.082031-0.547852,0.099609
				c-0.199219,0.017578-0.394531,0.03125-0.586914,0.043945c-0.193359,0.011719-0.363281,0.016602-0.508789,0.013672
				c-0.146484-0.00293-0.25-0.004883-0.3125-0.005859c-0.604492-0.010742-1.146484-0.087891-1.628906-0.233398
				c-0.481445-0.143555-0.889648-0.362305-1.222656-0.655273c-0.333008-0.291992-0.589844-0.661133-0.768555-1.108398
				C216.490234,65.72168,216.407227,65.196289,216.417969,64.591797z"/>
			<path d="M224.961914,68.234375c-0.22168-0.419922-0.412109-0.876953-0.569336-1.370117
				c-0.157227-0.492188-0.289062-0.990234-0.394531-1.492188s-0.1875-0.989258-0.246094-1.464844
				c-0.05957-0.474609-0.095703-0.905273-0.109375-1.291992c0.000977-0.072266-0.00293-0.15332-0.010742-0.242188
				c-0.009766-0.087891-0.010742-0.179688-0.00293-0.273438c0.006836-0.09375,0.023438-0.181641,0.051758-0.264648
				c0.026367-0.083008,0.073242-0.155273,0.136719-0.216797l0.03125,0.000977c0.009766,0,0.015625-0.001953,0.015625-0.007812
				c0-0.004883,0.004883-0.007812,0.015625-0.006836c0.009766,0,0.015625,0.00293,0.015625,0.007812
				c0,0.005859,0.009766,0.007812,0.03125,0.007812l0.03125,0.000977c0.020508,0.010742,0.071289,0.032227,0.155273,0.06543
				c0.082031,0.032227,0.133789,0.05957,0.154297,0.081055c0.188477-0.05957,0.382812-0.130859,0.583008-0.21582
				c0.198242-0.084961,0.401367-0.165039,0.605469-0.239258c0.205078-0.074219,0.411133-0.134766,0.621094-0.183594
				c0.208984-0.047852,0.412109-0.071289,0.610352-0.067383c0.145508,0.00293,0.273438,0.010742,0.382812,0.022461
				c0.109375,0.012695,0.21875,0.03418,0.327148,0.061523c0.109375,0.02832,0.225586,0.061523,0.349609,0.099609
				c0.125,0.040039,0.269531,0.085938,0.43457,0.140625c0.082031,0.064453,0.155273,0.125977,0.222656,0.18457
				c0.066406,0.058594,0.12793,0.125,0.18457,0.198242c0.054688,0.074219,0.098633,0.164062,0.12793,0.268555
				s0.041992,0.241211,0.039062,0.407227c-0.166992,0.018555-0.362305,0.000977-0.584961-0.049805
				c-0.222656-0.051758-0.456055-0.115234-0.699219-0.193359C227.228516,62.125,226.976562,62.057617,226.717773,62
				c-0.259766-0.056641-0.509766-0.082031-0.749023-0.076172c-0.240234,0.005859-0.46582,0.069336-0.675781,0.19043
				c-0.220703,0.100586-0.416992,0.285156-0.588867,0.551758c-0.078125,0.301758-0.115234,0.597656-0.109375,0.889648
				c0.003906,0.291992,0.036133,0.577148,0.09375,0.853516c0.056641,0.276367,0.131836,0.553711,0.226562,0.831055
				c0.09375,0.27832,0.182617,0.556641,0.265625,0.833984s0.15918,0.552734,0.227539,0.824219
				c0.067383,0.272461,0.109375,0.548828,0.125,0.831055c-0.001953,0.104492-0.061523,0.21582-0.177734,0.333008
				C225.238281,68.179688,225.107422,68.237305,224.961914,68.234375z"/>
			<path d="M229.163086,64.124023c0.009766-0.541016,0.099609-1.058594,0.270508-1.550781
				c0.169922-0.491211,0.412109-0.921875,0.726562-1.291016c0.314453-0.370117,0.694336-0.661133,1.141602-0.87793
				c0.447266-0.21582,0.961914-0.318359,1.545898-0.307617c0.342773,0.047852,0.639648,0.147461,0.892578,0.297852
				c0.251953,0.151367,0.456055,0.334961,0.614258,0.550781c0.157227,0.216797,0.270508,0.46582,0.337891,0.748047
				c0.057617,0.272461,0.083984,0.564453,0.078125,0.876953c-0.006836,0.375-0.123047,0.711914-0.34668,1.009766
				c-0.224609,0.298828-0.505859,0.544922-0.841797,0.742188c-0.336914,0.197266-0.699219,0.34668-1.085938,0.449219
				c-0.388672,0.101562-0.749023,0.149414-1.082031,0.143555c-0.125-0.00293-0.25293-0.004883-0.382812-0.007812
				c-0.130859-0.001953-0.24707-0.024414-0.349609-0.068359c-0.104492-0.042969-0.185547-0.106445-0.24707-0.191406
				c-0.060547-0.083984-0.089844-0.209961-0.086914-0.376953c0.000977-0.051758,0.009766-0.095703,0.026367-0.131836
				c0.015625-0.036133,0.060547-0.061523,0.133789-0.076172c0.072266-0.013672,0.182617-0.013672,0.328125-0.001953
				c0.145508,0.024414,0.342773,0.05957,0.592773,0.105469c0.145508,0.001953,0.356445-0.042969,0.634766-0.136719
				c0.277344-0.09375,0.561523-0.216797,0.851562-0.368164c0.289062-0.150391,0.539062-0.326172,0.751953-0.525391
				c0.210938-0.199219,0.318359-0.397461,0.322266-0.595703c0.003906-0.208008-0.026367-0.414062-0.089844-0.619141
				c-0.064453-0.204102-0.162109-0.385742-0.293945-0.543945c-0.132812-0.15918-0.290039-0.287109-0.469727-0.383789
				c-0.180664-0.097656-0.386719-0.137695-0.615234-0.121094c-0.366211,0.024414-0.697266,0.118164-0.998047,0.27832
				c-0.299805,0.162109-0.556641,0.373047-0.769531,0.634766c-0.213867,0.261719-0.379883,0.553711-0.5,0.874023
				c-0.12207,0.321289-0.18457,0.65918-0.191406,1.012695c-0.004883,0.271484-0.004883,0.541992,0.000977,0.8125
				c0.004883,0.271484,0.039062,0.537109,0.102539,0.797852c0.0625,0.261719,0.166992,0.514648,0.314453,0.755859
				c0.145508,0.243164,0.360352,0.458008,0.644531,0.645508c0.283203,0.1875,0.642578,0.345703,1.077148,0.472656
				c0.435547,0.12793,0.975586,0.213867,1.620117,0.256836l2.800781-0.135742
				c-0.171875,0.225586-0.385742,0.40918-0.643555,0.550781c-0.258789,0.141602-0.53125,0.253906-0.818359,0.335938
				c-0.289062,0.083984-0.573242,0.144531-0.855469,0.179688c-0.282227,0.037109-0.547852,0.052734-0.796875,0.047852
				c-0.604492-0.010742-1.169922-0.120117-1.698242-0.328125c-0.527344-0.207031-0.991211-0.495117-1.390625-0.861328
				c-0.399414-0.367188-0.711914-0.810547-0.936523-1.330078C229.256836,65.351562,229.150391,64.769531,229.163086,64.124023z"/>
			<path d="M237.412109,64.275391c0.009766-0.541016,0.099609-1.057617,0.270508-1.549805
				c0.169922-0.491211,0.412109-0.922852,0.726562-1.291992s0.694336-0.661133,1.141602-0.87793
				c0.446289-0.214844,0.960938-0.318359,1.544922-0.307617c0.342773,0.048828,0.639648,0.147461,0.892578,0.297852
				c0.25293,0.151367,0.457031,0.334961,0.615234,0.550781c0.157227,0.216797,0.270508,0.46582,0.337891,0.749023
				c0.057617,0.272461,0.083984,0.563477,0.078125,0.875977c-0.006836,0.375-0.123047,0.711914-0.34668,1.009766
				c-0.224609,0.298828-0.505859,0.545898-0.842773,0.743164c-0.336914,0.196289-0.699219,0.34668-1.085938,0.448242
				c-0.388672,0.101562-0.749023,0.149414-1.082031,0.143555c-0.125-0.001953-0.251953-0.004883-0.381836-0.006836
				c-0.130859-0.00293-0.24707-0.025391-0.349609-0.069336c-0.104492-0.042969-0.185547-0.105469-0.24707-0.191406
				c-0.060547-0.083984-0.089844-0.208984-0.086914-0.375977c0.000977-0.051758,0.009766-0.095703,0.026367-0.132812
				c0.015625-0.036133,0.060547-0.061523,0.133789-0.075195c0.072266-0.014648,0.182617-0.014648,0.328125-0.001953
				c0.145508,0.024414,0.342773,0.058594,0.591797,0.104492c0.145508,0.00293,0.356445-0.041992,0.634766-0.136719
				c0.277344-0.09375,0.561523-0.216797,0.851562-0.367188c0.289062-0.151367,0.539062-0.326172,0.751953-0.525391
				c0.211914-0.199219,0.319336-0.397461,0.323242-0.595703c0.003906-0.208008-0.026367-0.415039-0.089844-0.619141
				c-0.064453-0.204102-0.163086-0.385742-0.294922-0.544922c-0.132812-0.158203-0.290039-0.286133-0.469727-0.383789
				c-0.180664-0.09668-0.386719-0.136719-0.615234-0.121094c-0.366211,0.025391-0.697266,0.118164-0.998047,0.279297
				c-0.298828,0.161133-0.555664,0.37207-0.768555,0.633789c-0.213867,0.262695-0.379883,0.554688-0.5,0.874023
				c-0.12207,0.321289-0.18457,0.65918-0.191406,1.012695c-0.004883,0.271484-0.004883,0.541992,0.000977,0.8125
				c0.004883,0.272461,0.039062,0.537109,0.102539,0.798828c0.0625,0.261719,0.166992,0.513672,0.314453,0.755859
				c0.145508,0.243164,0.360352,0.458008,0.644531,0.644531c0.282227,0.188477,0.641602,0.345703,1.076172,0.473633
				c0.435547,0.12793,0.975586,0.212891,1.621094,0.255859l2.800781-0.135742
				c-0.171875,0.226562-0.385742,0.410156-0.643555,0.550781c-0.258789,0.141602-0.53125,0.253906-0.818359,0.336914
				c-0.289062,0.083008-0.573242,0.143555-0.855469,0.179688s-0.547852,0.051758-0.797852,0.047852
				c-0.604492-0.011719-1.169922-0.120117-1.698242-0.328125c-0.527344-0.207031-0.990234-0.495117-1.389648-0.862305
				s-0.711914-0.810547-0.936523-1.330078C237.505859,65.503906,237.399414,64.920898,237.412109,64.275391z"/>
			<path d="M245.850586,62.524414c0.001953-0.09375,0.036133-0.15332,0.105469-0.177734
				c0.067383-0.024414,0.143555-0.037109,0.227539-0.035156c0.0625,0.000977,0.105469,0.017578,0.131836,0.048828
				c0.024414,0.032227,0.041992,0.069336,0.052734,0.110352c0.008789,0.042969,0.023438,0.082031,0.043945,0.118164
				c0.020508,0.038086,0.055664,0.055664,0.108398,0.056641c0.145508,0.00293,0.324219-0.050781,0.535156-0.162109
				c0.209961-0.110352,0.438477-0.230469,0.686523-0.362305c0.246094-0.129883,0.509766-0.25,0.788086-0.360352
				c0.277344-0.109375,0.551758-0.162109,0.823242-0.157227c0.353516,0.006836,0.677734,0.104492,0.97168,0.291992
				c0.292969,0.1875,0.554688,0.43457,0.782227,0.741211c0.228516,0.306641,0.422852,0.648438,0.583008,1.026367
				c0.15918,0.37793,0.292969,0.763672,0.400391,1.15625c0.107422,0.391602,0.183594,0.774414,0.229492,1.144531
				c0.044922,0.371094,0.06543,0.691406,0.060547,0.961914c-0.001953,0.09375-0.012695,0.234375-0.03125,0.421875
				c-0.019531,0.1875-0.048828,0.374023-0.088867,0.560547c-0.040039,0.1875-0.102539,0.350586-0.188477,0.489258
				c-0.086914,0.138672-0.191406,0.207031-0.316406,0.205078c-0.021484,0-0.057617-0.00293-0.109375-0.009766
				c-0.052734-0.005859-0.104492-0.017578-0.155273-0.03418c-0.052734-0.016602-0.09668-0.035156-0.131836-0.056641
				c-0.037109-0.021484-0.053711-0.052734-0.052734-0.094727c0.108398-0.800781,0.12207-1.553711,0.041016-2.257812
				c-0.081055-0.705078-0.220703-1.324219-0.417969-1.859375c-0.199219-0.535156-0.446289-0.961914-0.742188-1.279297
				c-0.296875-0.318359-0.616211-0.480469-0.959961-0.487305c-0.323242-0.005859-0.625977,0.041992-0.90918,0.139648
				c-0.283203,0.099609-0.53125,0.246094-0.743164,0.439453c-0.212891,0.194336-0.380859,0.430664-0.504883,0.709961
				c-0.125977,0.279297-0.19043,0.585938-0.197266,0.918945c-0.005859,0.333984,0.019531,0.663086,0.076172,0.993164
				c0.055664,0.329102,0.120117,0.658203,0.192383,0.987305c0.072266,0.330078,0.136719,0.662109,0.192383,0.996094
				c0.056641,0.335938,0.082031,0.668945,0.075195,1.001953c-0.291016-0.004883-0.53418-0.128906-0.727539-0.373047
				c-0.193359-0.242188-0.34668-0.552734-0.458984-0.930664c-0.113281-0.376953-0.199219-0.800781-0.258789-1.270508
				s-0.097656-0.931641-0.114258-1.384766c-0.018555-0.453125-0.023438-0.879883-0.015625-1.28125
				C245.84082,63.069336,245.84668,62.753906,245.850586,62.524414z"/>
		</g>
	</g>
	<g>
		<path d="M39,0H21c-2.209167,0-4,1.790833-4,4v40c0,2.209106,1.790833,4,4,4h18c2.209167,0,4-1.790894,4-4V4
			C43,1.790833,41.209167,0,39,0z M41,43H19V5h22V43z"/>
	</g>
	<path d="M140,4H86c-1.65686,0-3,1.343262-3,3v36c0,1.656738,1.34314,3,3,3h54c1.65686,0,3-1.343262,3-3V7
		C143,5.343262,141.65686,4,140,4z M97.5,6C98.32843,6,99,6.67157,99,7.5S98.32843,9,97.5,9S96,8.32843,96,7.5S96.67157,6,97.5,6z
		 M92.5,6C93.32843,6,94,6.67157,94,7.5S93.32843,9,92.5,9S91,8.32843,91,7.5S91.67157,6,92.5,6z M87.5,6
		C88.32843,6,89,6.67157,89,7.5S88.32843,9,87.5,9S86,8.32843,86,7.5S86.67157,6,87.5,6z M141,43c0,0.551514-0.448608,1-1,1H86
		c-0.551392,0-1-0.448486-1-1V11h56V43z"/>
	<g>
		<g>
			<rect x="211" y="38" style="opacity:0.1;" width="10" height="1"/>
			<g>
				<g>
					<path d="M196.09375,14.520813C195.125244,14.150879,191.848633,14,188,14s-7.125244,0.150879-8.09375,0.520813
						C179,14.867004,179,15.386597,179,16.247498v27.505005c0,0.860901,0,1.380493,0.90625,1.726624
						C180.874756,45.84906,184.151367,46,188,46s7.125244-0.15094,8.09375-0.520874C197,45.132996,197,44.613403,197,43.752502
						V16.247498C197,15.386597,197,14.867004,196.09375,14.520813z M195,43h-14V17h14V43z"/>
				</g>
			</g>
			<g>
				<g>
					<path d="M246,16h-10c-1.65686,0-3,1.343145-3,3v24c0,1.656853,1.34314,3,3,3h10c1.65686,0,3-1.343147,3-3V19
						C249,17.343145,247.65686,16,246,16z M247,43h-12V19h12V43z"/>
				</g>
			</g>
			<g>
				<g>
					<path d="M240,5v14h2V4c0-1.104569-0.895432-2-2-2h-47c-1.104568,0-2,0.895431-2,2v11.018616
						c0.350281,0.006348,1.684448,0.014587,2,0.024841V5H240z"/>
				</g>
				<g>
					<path d="M227,42v-1c0-0.552307-0.447693-1-1-1h-5v-2h12v-4h-36v4h14v2h-5c-0.552307,0-1,0.447693-1,1v1H227z"/>
				</g>
			</g>
		</g>
	</g>
</g>
<g id="Layer_2">
</g>
</svg>
