<?xml version="1.0" encoding="utf-8"?>
<!-- Generator: Adobe Illustrator 19.0.1, SVG Export Plug-In . SVG Version: 6.00 Build 0)  -->
<svg version="1.1" xmlns="http://www.w3.org/2000/svg" xmlns:xlink="http://www.w3.org/1999/xlink" x="0px" y="0px"
	 viewBox="0 0 200 114" style="enable-background:new 0 0 200 114;" xml:space="preserve">
<g id="Layer_1">
	<g>
		<path style="fill:#010101;" d="M14.337774,15.890625c-0.381836-0.331055-0.788086-0.62793-1.217773-0.891602
			s-0.830078-0.481445-1.200195-0.654297c-0.371094-0.173828-0.673828-0.307617-0.910156-0.40332
			c-0.235352-0.094727-0.354492-0.154297-0.356445-0.177734c-0.009766-0.139648,0.041016-0.292969,0.15332-0.459961
			c0.111328-0.166016,0.238281-0.357422,0.381836-0.573242c0.142578-0.21582,0.267578-0.456055,0.37207-0.72168
			c0.103516-0.266602,0.145508-0.551758,0.124023-0.855469c-0.020508-0.280273-0.114258-0.526367-0.28125-0.737305
			c-0.168945-0.223633-0.381836-0.419922-0.641602-0.589844c-0.257812-0.168945-0.547852-0.316406-0.868164-0.439453
			c-0.320312-0.125-0.643555-0.222656-0.97168-0.291992C8.593634,9.023438,8.28211,8.974609,7.985235,8.948242
			c-0.294922-0.025391-0.547852-0.03125-0.758789-0.016602c-0.09375,0.006836-0.27832,0.038086-0.556641,0.092773
			s-0.59375,0.124023-0.946289,0.208008C5.371954,9.316406,5.005743,9.415039,4.62586,9.530273
			C4.246954,9.645508,3.899298,9.764648,3.585821,9.886719C3.271368,10.008789,3.011603,10.129883,2.809454,10.25
			c-0.203125,0.120117-0.299805,0.238281-0.291992,0.355469l0.037109,0.526367
			c0.023438-0.001953,0.046875-0.00293,0.069336-0.004883c0.035156-0.013672,0.063477-0.022461,0.086914-0.023438
			c0.103516-0.042969,0.240234-0.09668,0.412109-0.162109s0.344727-0.136719,0.522461-0.213867
			c0.175781-0.076172,0.341797-0.152344,0.49414-0.228516c0.15332-0.075195,0.275391-0.145508,0.363281-0.210938l0.035156-0.00293
			l0.035156-0.001953l0.017578-0.000977c0.31543-0.022461,0.595703,0.145508,0.837891,0.504883
			c0.243164,0.358398,0.480469,0.894531,0.713867,1.605469c0.232422,0.711914,0.46875,1.59668,0.707031,2.655273
			c0.240234,1.057617,0.508779,2.275391,0.806641,3.651367c0.024414,0.186523,0.004883,0.323242-0.05957,0.410156
			s-0.144531,0.157227-0.240234,0.210938c-0.09668,0.053711-0.192383,0.110352-0.287109,0.169922
			c-0.095703,0.05957-0.163086,0.155273-0.201172,0.288086c-0.014648,0.117188,0.046875,0.237305,0.18457,0.356445
			s0.294922,0.231445,0.473633,0.336914c0.176758,0.103516,0.348633,0.192383,0.511719,0.262695
			c0.164062,0.071289,0.257812,0.111328,0.282227,0.121094c0.473633,0.071289,0.883789,0.12793,1.227539,0.167969
			c0.34375,0.041016,0.666016,0.071289,0.966797,0.089844c0.300781,0.019531,0.601562,0.02832,0.900391,0.024414
			s0.641602-0.018555,1.027344-0.045898s0.783203-0.099609,1.191406-0.216797c0.40918-0.117188,0.776367-0.28418,1.101562-0.500977
			s0.583984-0.49707,0.777344-0.838867c0.192383-0.34375,0.272461-0.759766,0.237305-1.250977
			c-0.033203-0.467773-0.181641-0.900391-0.444336-1.298828S14.71961,16.22168,14.337774,15.890625z M14.38172,19.121094
			c-0.134766,0.244141-0.327148,0.4375-0.576172,0.579102c-0.248047,0.140625-0.540039,0.237305-0.876953,0.291016
			c-0.336914,0.052734-0.681641,0.092773-1.032227,0.117188c-0.115234,0.019531-0.291016,0.038086-0.524414,0.054688
			c-0.234375,0.016602-0.492188,0.014648-0.775391-0.006836c-0.28418-0.020508-0.568359-0.05957-0.854492-0.116211
			c-0.285156-0.054688-0.533203-0.140625-0.740234-0.254883c-0.208008-0.114258-0.34668-0.257812-0.417969-0.428711
			s-0.039062-0.379883,0.095703-0.624023c-0.040039-0.561523-0.136719-1.188477-0.291016-1.881836
			c-0.155284-0.693359-0.337891-1.401367-0.546875-2.120117c-0.209961-0.719727-0.427734-1.429688-0.654297-2.129883
			c-0.225586-0.700195-0.429688-1.344727-0.612305-1.930664c0.242188-0.227539,0.536133-0.390625,0.881836-0.485352
			s0.681641-0.154297,1.008789-0.177734c0.222656-0.015625,0.461914,0.00293,0.717773,0.055664
			c0.256836,0.051758,0.498047,0.140625,0.724609,0.265625c0.225586,0.125,0.416992,0.28125,0.570312,0.470703
			c0.154297,0.188477,0.241211,0.411133,0.259766,0.667969c0.022461,0.31543-0.027344,0.572266-0.149414,0.768555
			c-0.120117,0.197266-0.282227,0.363281-0.483398,0.501953C9.903204,12.875,9.68836,12.983398,9.457891,13.064453
			c-0.228516,0.081055-0.443359,0.158203-0.643555,0.231445s-0.365234,0.152344-0.494141,0.237305
			c-0.128906,0.085938-0.188477,0.192383-0.179688,0.321289c0.017578,0.245117,0.177734,0.445312,0.483398,0.600586
			c0.303711,0.15332,0.689453,0.293945,1.157227,0.419922c0.466797,0.125,0.969727,0.259766,1.508789,0.40332
			c0.539062,0.144531,1.041992,0.333984,1.511719,0.572266c0.46875,0.236328,0.866211,0.53418,1.191406,0.892578
			c0.325195,0.359375,0.507812,0.825195,0.547852,1.397461C14.570196,18.549805,14.516485,18.875977,14.38172,19.121094z"/>
		<path style="fill:#010101;" d="M23.692266,19.201172c0.036133,0.173828,0.079102,0.332031,0.130859,0.475586
			c0.051758,0.142578,0.123047,0.257812,0.217773,0.345703c0.094727,0.086914,0.235352,0.123047,0.421875,0.110352
			c0.152344-0.010742,0.276367-0.036133,0.374023-0.079102c0.09668-0.041992,0.138672-0.150391,0.126953-0.326172
			c-0.008789-0.116211-0.061523-0.286133-0.160156-0.507812c-0.098633-0.222656-0.208984-0.467773-0.333984-0.734375
			c-0.125-0.267578-0.25293-0.543945-0.384766-0.827148c-0.131836-0.28418-0.235352-0.541992-0.310547-0.771484
			c-0.029297-0.080078-0.058594-0.239258-0.086914-0.478516c-0.02832-0.238281-0.05957-0.516602-0.09375-0.831055
			c-0.033203-0.314453-0.074219-0.640625-0.12207-0.977539c-0.046875-0.336914-0.110352-0.649414-0.189453-0.938477
			c-0.080078-0.288086-0.172852-0.521484-0.279297-0.702148s-0.230469-0.265625-0.371094-0.255859
			c-0.116211,0.008789-0.213867,0.047852-0.291016,0.118164c-0.077148,0.069336-0.146484,0.165039-0.208008,0.287109
			c0.006836,0.105469,0.023438,0.291992,0.047852,0.560547c0.025391,0.268555,0.048828,0.554688,0.070312,0.858398
			s0.039062,0.59082,0.051758,0.860352c0.013672,0.268555,0.024414,0.461914,0.032227,0.579102
			c0.015625,0.209961-0.051758,0.472656-0.200195,0.790039c-0.147461,0.31543-0.331055,0.625-0.549805,0.927734
			c-0.219727,0.304688-0.457031,0.567383-0.710938,0.791016s-0.487305,0.34375-0.697266,0.358398
			c-0.327148,0.023438-0.634766-0.042969-0.921875-0.199219c-0.286133-0.155273-0.544922-0.367188-0.775391-0.632812
			c-0.230469-0.264648-0.43457-0.570312-0.612305-0.916992c-0.176758-0.345703-0.328125-0.696289-0.453125-1.051758
			c-0.124023-0.354492-0.222656-0.697266-0.292969-1.027344c-0.070312-0.329102-0.114258-0.617188-0.131836-0.863281
			c-0.001953-0.035156-0.000977-0.099609,0.003906-0.193359c0.004883-0.094727,0.009766-0.195312,0.013672-0.300781
			c0.004883-0.105469,0.008789-0.208984,0.013672-0.30957s0.017578-0.173828,0.037109-0.222656
			c0.068359-0.369141,0.032227-0.62207-0.106445-0.758789c-0.139648-0.137695-0.295898-0.149414-0.469727-0.037109
			s-0.313477,0.350586-0.416992,0.71582c-0.102539,0.366211-0.084961,0.861328,0.052734,1.485352
			c0.023438,0.328125,0.081055,0.691406,0.174805,1.089844c0.092773,0.399414,0.21582,0.800781,0.368164,1.207031
			c0.151367,0.40625,0.337891,0.798828,0.558594,1.176758s0.473633,0.711914,0.758789,1.003906
			c0.285156,0.291016,0.602539,0.514648,0.955078,0.671875c0.351562,0.157227,0.737305,0.220703,1.158203,0.19043
			c0.374023-0.026367,0.676758-0.118164,0.90625-0.274414c0.229492-0.158203,0.4375-0.34082,0.62207-0.546875
			c0.185547-0.208008,0.366211-0.425781,0.543945-0.65625c0.176758-0.229492,0.395508-0.430664,0.65332-0.600586
			c0.194336,0.091797,0.34668,0.21582,0.458008,0.373047c0.111328,0.155273,0.199219,0.326172,0.265625,0.508789
			C23.605352,18.848633,23.656134,19.027344,23.692266,19.201172z"/>
		<path style="fill:#010101;" d="M31.599493,18.630859c-0.311523,0.086914-0.642578,0.140625-0.993164,0.15918
			c-0.351562,0.018555-0.649414,0.037109-0.895508,0.054688c-0.31543,0.022461-0.572266,0.035156-0.772461,0.037109
			c-0.199219,0.001953-0.376953-0.014648-0.532227-0.050781s-0.326172-0.088867-0.513672-0.157227
			c-0.186523-0.068359-0.436523-0.157227-0.749023-0.264648c-0.109375-0.038086-0.212891-0.089844-0.310547-0.15332
			c-0.098633-0.063477-0.195312-0.130859-0.288086-0.200195s-0.193359-0.126953-0.302734-0.171875
			c-0.109375-0.045898-0.21582-0.064453-0.321289-0.056641c-0.09375,0.005859-0.177734,0.021484-0.251953,0.043945
			c-0.075195,0.023438-0.15625,0.073242-0.245117,0.150391c0.178711,0.363281,0.398438,0.658203,0.662109,0.885742
			c0.262695,0.228516,0.554688,0.410156,0.875977,0.546875c0.320312,0.134766,0.665039,0.228516,1.033203,0.279297
			c0.367188,0.049805,0.730469,0.080078,1.089844,0.088867c0.358398,0.009766,0.710938,0.005859,1.055664-0.012695
			c0.34668-0.018555,0.670898-0.039062,0.974609-0.060547s0.62207-0.084961,0.95508-0.19043
			c0.333984-0.106445,0.637695-0.256836,0.911133-0.452148c0.273438-0.196289,0.495117-0.431641,0.663086-0.708984
			c0.168945-0.275391,0.240234-0.594727,0.214844-0.957031c-0.03418-0.479492-0.161133-0.861328-0.381836-1.144531
			c-0.21875-0.285156-0.505859-0.501953-0.856445-0.654297c-0.351562-0.150391-0.740236-0.25-1.166994-0.295898
			c-0.425781-0.044922-0.865234-0.073242-1.318359-0.082031s-0.894531-0.022461-1.324219-0.039062
			s-0.8125-0.064453-1.147461-0.146484c-0.333984-0.083008-0.610352-0.211914-0.829102-0.390625
			c-0.217773-0.179688-0.339844-0.443359-0.364258-0.793945c-0.038086-0.196289,0.022461-0.37793,0.180664-0.541992
			c0.15918-0.163086,0.37207-0.302734,0.641602-0.416016c0.267578-0.111328,0.566406-0.195312,0.897461-0.248047
			s0.645508-0.063477,0.941406-0.03125s0.558594,0.103516,0.791016,0.216797c0.230469,0.113281,0.37793,0.27832,0.44043,0.498047
			c-0.113281,0.230469-0.167969,0.419922-0.163086,0.56543c0.003906,0.147461,0.039062,0.256836,0.102539,0.328125
			c0.064453,0.071289,0.149414,0.107422,0.253906,0.105469c0.105469-0.001953,0.206055-0.043945,0.299805-0.126953
			s0.165039-0.202148,0.212891-0.359375c0.046875-0.155273,0.050781-0.349609,0.011719-0.581055
			c-0.040039-0.397461-0.202148-0.720703-0.483398-0.97168c-0.282227-0.249023-0.624023-0.421875-1.024414-0.516602
			c-0.400391-0.095703-0.833008-0.124023-1.300781-0.084961c-0.466797,0.039062-0.90332,0.140625-1.308594,0.305664
			c-0.405273,0.163086-0.748047,0.381836-1.02832,0.65332c-0.280273,0.273438-0.442383,0.598633-0.486328,0.977539
			c0.047852,0.514648,0.183594,0.926758,0.40625,1.240234c0.220703,0.313477,0.501953,0.551758,0.84375,0.71582
			c0.339844,0.163086,0.720703,0.274414,1.142578,0.333008c0.420898,0.057617,0.849609,0.094727,1.28418,0.111328
			c0.436523,0.016602,0.860352,0.030273,1.272461,0.041992c0.412109,0.012695,0.785156,0.058594,1.120117,0.140625
			c0.333984,0.082031,0.605471,0.211914,0.811525,0.391602c0.207031,0.178711,0.317383,0.439453,0.329102,0.779297
			c0.025391,0.350586-0.067383,0.618164-0.27832,0.803711C32.170784,18.408203,31.911016,18.543945,31.599493,18.630859z"/>
		<path style="fill:#010101;" d="M35.113167,12.029297c0.003906,0.046875,0.009766,0.134766,0.018555,0.263672
			c0.009766,0.12793,0.015625,0.262695,0.020508,0.40332c0.003906,0.140625,0.010742,0.275391,0.019531,0.404297
			c0.008789,0.12793,0.015625,0.21582,0.018555,0.262695c0.008789,0.128906,0.032227,0.370117,0.069336,0.726562
			c0.037109,0.355469,0.085938,0.756836,0.147461,1.205078c0.060547,0.448242,0.138672,0.916016,0.231445,1.402344
			c0.09375,0.486328,0.194336,0.928711,0.305664,1.326172c0.110352,0.397461,0.230469,0.723633,0.360352,0.978516
			c0.128906,0.255859,0.270508,0.37793,0.422852,0.367188c0.198242-0.014648,0.341797-0.107422,0.428711-0.277344
			c0.087891-0.170898,0.125977-0.337891,0.114258-0.501953c-0.042969-0.607422-0.133789-1.188477-0.273438-1.742188
			c-0.138683-0.554688-0.283203-1.105469-0.43457-1.652344c-0.150391-0.547852-0.289062-1.101562-0.416992-1.662109
			s-0.196289-1.146484-0.204102-1.756836c-0.078125-0.112305-0.160156-0.194336-0.246094-0.24707
			c-0.085938-0.051758-0.1875-0.074219-0.303711-0.06543C35.133675,11.481445,35.040901,11.669922,35.113167,12.029297z"/>
		<path style="fill:#010101;" d="M34.215706,9.686523c0.068359,0.048828,0.162109,0.080078,0.280273,0.095703
			c0.118164,0.014648,0.265625,0.016602,0.44043,0.003906L35.0243,9.779297c0.185547-0.036133,0.267578-0.125,0.245117-0.263672
			c-0.019531-0.116211-0.077148-0.241211-0.175781-0.375c-0.097656-0.133789-0.217773-0.251953-0.359375-0.353516
			c-0.142578-0.101562-0.254883-0.143555-0.334961-0.125977c-0.128906,0.008789-0.232422,0.037109-0.311523,0.083984
			c-0.078125,0.046875-0.113281,0.140625-0.103516,0.280273c0.013672,0.1875,0.038086,0.332031,0.075195,0.435547
			C34.095589,9.563477,34.147346,9.639648,34.215706,9.686523z"/>
		<path style="fill:#010101;" d="M37.8993,14.90625c0.06543,0.506836,0.154297,1.020508,0.267578,1.540039
			c0.113281,0.521484,0.25293,0.987305,0.416016,1.399414c0.165039,0.411133,0.368164,0.743164,0.609375,0.996094
			s0.525391,0.368164,0.852539,0.344727c-0.026367-0.374023-0.088867-0.746094-0.185547-1.115234
			c-0.09668-0.368164-0.201172-0.734375-0.31543-1.095703c-0.113281-0.362305-0.21875-0.724609-0.31543-1.087891
			c-0.095703-0.363281-0.157227-0.731445-0.183594-1.105469s0.016602-0.724609,0.12793-1.049805
			c0.112305-0.325195,0.277344-0.606445,0.496094-0.845703c0.216797-0.238281,0.479492-0.427734,0.788086-0.566406
			c0.306641-0.139648,0.641602-0.222656,1.003906-0.248047c0.385742-0.027344,0.760742,0.123047,1.124023,0.449219
			c0.364258,0.326172,0.68457,0.780273,0.959961,1.359375c0.276367,0.579102,0.495117,1.259766,0.65625,2.041992
			c0.161133,0.78125,0.220703,1.625,0.179688,2.533203c0.003906,0.046875,0.026367,0.080078,0.069336,0.100586
			c0.041992,0.020508,0.092773,0.038086,0.152344,0.050781c0.060547,0.013672,0.119141,0.021484,0.178711,0.023438
			c0.058594,0.000977,0.098633,0.000977,0.12207,0c0.140625-0.009766,0.25293-0.097656,0.334961-0.262695
			c0.082031-0.164062,0.135742-0.352539,0.162109-0.56543c0.026367-0.213867,0.041016-0.425781,0.042969-0.638672
			c0.00293-0.210938,0.000977-0.370117-0.006836-0.475586c-0.021484-0.303711-0.076172-0.661133-0.164062-1.071289
			c-0.088867-0.411133-0.212891-0.831055-0.371094-1.259766c-0.160156-0.429688-0.348633-0.847656-0.56543-1.255859
			c-0.217773-0.407227-0.46875-0.771484-0.755859-1.09082c-0.287109-0.320312-0.604492-0.572266-0.952148-0.75293
			s-0.719727-0.256836-1.117188-0.228516c-0.303711,0.021484-0.607422,0.107422-0.907227,0.257812
			c-0.300781,0.150391-0.583008,0.3125-0.847656,0.483398c-0.263672,0.171875-0.506836,0.329102-0.732422,0.474609
			c-0.224609,0.145508-0.418945,0.223633-0.582031,0.235352c-0.058594,0.004883-0.101562-0.012695-0.12793-0.052734
			c-0.026367-0.039062-0.046875-0.082031-0.061523-0.12793c-0.015625-0.045898-0.038086-0.085938-0.070312-0.118164
			c-0.03125-0.033203-0.082031-0.047852-0.152344-0.042969c-0.09375,0.006836-0.177734,0.027344-0.250977,0.0625
			c-0.074219,0.03418-0.107422,0.104492-0.099609,0.209961c0.018555,0.256836,0.042969,0.610352,0.075195,1.060547
			S37.834846,14.400391,37.8993,14.90625z"/>
		<path style="fill:#010101;" d="M47.628792,17.300781c0.485352,0.370117,1.033203,0.646484,1.645508,0.825195
			c0.612305,0.180664,1.256836,0.246094,1.93457,0.197266c0.280273-0.019531,0.577148-0.064453,0.889648-0.132812
			c0.311523-0.068359,0.625-0.165039,0.939453-0.287109s0.609375-0.274414,0.883789-0.458984s0.49707-0.411133,0.665039-0.681641
			l-3.124023,0.432617c-0.726562,0.016602-1.339844-0.025391-1.84082-0.124023
			c-0.500977-0.100586-0.918945-0.240234-1.254883-0.422852c-0.335938-0.180664-0.597656-0.401367-0.787109-0.657227
			c-0.1875-0.256836-0.330078-0.529297-0.427734-0.81543c-0.09668-0.287109-0.162109-0.582031-0.195312-0.885742
			c-0.033203-0.302734-0.060547-0.606445-0.082031-0.910156c-0.02832-0.397461,0.009766-0.78125,0.112305-1.15332
			c0.103516-0.371094,0.260742-0.714844,0.473633-1.029297s0.478516-0.577148,0.797852-0.788086
			c0.320312-0.209961,0.68457-0.347656,1.089844-0.412109c0.256836-0.041016,0.490234-0.016602,0.702148,0.074219
			c0.211914,0.089844,0.400391,0.217773,0.564453,0.382812c0.165039,0.164062,0.292969,0.358398,0.384766,0.580078
			c0.091797,0.222656,0.146484,0.451172,0.163086,0.68457c0.015625,0.222656-0.084961,0.455078-0.302734,0.699219
			c-0.216797,0.245117-0.481445,0.466797-0.790039,0.665039c-0.308594,0.197266-0.614258,0.363281-0.916016,0.49707
			c-0.302734,0.131836-0.535156,0.204102-0.699219,0.21582c-0.283203-0.026367-0.507812-0.044922-0.672852-0.056641
			c-0.164062,0-0.287109,0.010742-0.368164,0.03418c-0.080078,0.023438-0.12793,0.055664-0.142578,0.097656
			c-0.013672,0.042969-0.019531,0.092773-0.014648,0.151367c0.012695,0.1875,0.056641,0.325195,0.133789,0.414062
			c0.077148,0.087891,0.175781,0.151367,0.295898,0.189453c0.120117,0.039062,0.253906,0.052734,0.400391,0.041992
			c0.144531-0.009766,0.289062-0.020508,0.427734-0.030273c0.375-0.026367,0.773438-0.116211,1.197266-0.269531
			s0.814453-0.357422,1.172852-0.612305c0.357422-0.253906,0.647461-0.55957,0.869141-0.916016s0.317383-0.745117,0.287109-1.166016
			c-0.024414-0.350586-0.083008-0.674805-0.174805-0.973633c-0.104492-0.310547-0.254883-0.579102-0.453125-0.804688
			c-0.198242-0.227539-0.447266-0.412109-0.744141-0.556641c-0.297852-0.142578-0.641602-0.223633-1.030273-0.243164
			c-0.655285,0.045898-1.22168,0.212891-1.701172,0.499023c-0.479492,0.287109-0.875977,0.65332-1.191406,1.098633
			c-0.314453,0.445312-0.542969,0.951172-0.68457,1.519531c-0.141602,0.567383-0.191406,1.15625-0.148438,1.763672
			c0.051758,0.724609,0.229492,1.367188,0.533203,1.926758C46.749886,16.463867,47.144417,16.929688,47.628792,17.300781z"/>
		<path style="fill:#010101;" d="M61.494026,16.510742c-0.310547,0.086914-0.641602,0.139648-0.992188,0.158203
			c-0.351562,0.019531-0.649414,0.037109-0.895508,0.054688c-0.31543,0.022461-0.572266,0.035156-0.772461,0.037109
			c-0.199219,0.00293-0.376953-0.013672-0.532227-0.049805s-0.326172-0.088867-0.513672-0.157227
			c-0.1875-0.069336-0.436523-0.157227-0.75-0.264648c-0.108398-0.039062-0.211914-0.089844-0.30957-0.154297
			c-0.098633-0.063477-0.195312-0.129883-0.288086-0.200195c-0.092773-0.069336-0.193359-0.126953-0.302734-0.171875
			s-0.21582-0.064453-0.321289-0.056641c-0.09375,0.006836-0.177734,0.021484-0.251953,0.044922
			c-0.075195,0.022461-0.157227,0.072266-0.245117,0.149414c0.178711,0.363281,0.398438,0.65918,0.662109,0.886719
			c0.262695,0.228516,0.554688,0.410156,0.875977,0.545898s0.665039,0.228516,1.032227,0.279297
			c0.368164,0.050781,0.731445,0.081055,1.09082,0.089844c0.358398,0.009766,0.710938,0.004883,1.055664-0.013672
			c0.345703-0.018555,0.670898-0.038086,0.974609-0.05957c0.303711-0.022461,0.62207-0.085938,0.955078-0.191406
			c0.333984-0.105469,0.636719-0.256836,0.911133-0.452148c0.273438-0.195312,0.495117-0.431641,0.663086-0.708008
			c0.168945-0.276367,0.239258-0.595703,0.213867-0.958008c-0.03418-0.479492-0.160156-0.860352-0.380859-1.144531
			c-0.219727-0.285156-0.505859-0.501953-0.856445-0.65332c-0.351562-0.151367-0.740234-0.25-1.166992-0.296875
			c-0.425781-0.044922-0.866226-0.072266-1.318359-0.082031c-0.452148-0.008789-0.894531-0.021484-1.324219-0.038086
			c-0.430664-0.016602-0.8125-0.06543-1.147461-0.147461c-0.333984-0.082031-0.611328-0.211914-0.829102-0.390625
			s-0.339844-0.443359-0.364258-0.793945c-0.038086-0.196289,0.022461-0.376953,0.180664-0.541992
			c0.15918-0.163086,0.37207-0.301758,0.641602-0.415039c0.267578-0.112305,0.566406-0.195312,0.897461-0.248047
			c0.331055-0.053711,0.644531-0.063477,0.941406-0.03125c0.295898,0.03125,0.558594,0.103516,0.791016,0.21582
			c0.230469,0.113281,0.37793,0.279297,0.44043,0.498047c-0.113281,0.231445-0.167969,0.419922-0.163086,0.566406
			s0.039062,0.255859,0.102539,0.327148c0.064453,0.072266,0.149414,0.107422,0.253906,0.105469
			c0.105469-0.000977,0.206055-0.043945,0.299805-0.126953c0.09375-0.082031,0.165039-0.202148,0.212891-0.358398
			c0.047852-0.155273,0.051758-0.350586,0.010742-0.582031c-0.039062-0.396484-0.201172-0.719727-0.482422-0.970703
			c-0.282227-0.25-0.624023-0.421875-1.024414-0.517578c-0.400391-0.094727-0.833008-0.123047-1.299805-0.083984
			C57.701057,9.648438,57.264534,9.75,56.859261,9.914062c-0.405273,0.163086-0.748047,0.381836-1.02832,0.654297
			s-0.442383,0.598633-0.486328,0.977539c0.047852,0.513672,0.183594,0.925781,0.40625,1.240234
			c0.220703,0.3125,0.501953,0.550781,0.84375,0.71582c0.339844,0.163086,0.720703,0.274414,1.142578,0.333008
			c0.420898,0.057617,0.848633,0.094727,1.28418,0.110352c0.436523,0.016602,0.860352,0.030273,1.272461,0.042969
			C60.70594,14,61.078987,14.045898,61.413948,14.12793c0.333984,0.083008,0.605469,0.212891,0.811523,0.392578
			c0.207031,0.178711,0.317383,0.438477,0.329102,0.77832c0.025391,0.350586-0.067383,0.618164-0.27832,0.803711
			C62.066292,16.287109,61.806526,16.423828,61.494026,16.510742z"/>
		<path style="fill:#010101;" d="M70.735237,15.855469c-0.310547,0.085938-0.642578,0.139648-0.993164,0.158203
			c-0.351562,0.019531-0.649414,0.037109-0.894531,0.054688c-0.316406,0.022461-0.573242,0.035156-0.772461,0.037109
			c-0.200195,0.00293-0.376953-0.014648-0.533203-0.050781c-0.155273-0.036133-0.326172-0.088867-0.513672-0.15625
			c-0.185547-0.069336-0.436523-0.158203-0.75-0.265625c-0.108398-0.038086-0.210938-0.089844-0.30957-0.15332
			s-0.195312-0.129883-0.287109-0.200195c-0.09375-0.069336-0.194336-0.126953-0.303711-0.171875
			c-0.108398-0.044922-0.21582-0.064453-0.321289-0.056641c-0.09375,0.006836-0.176758,0.021484-0.251953,0.043945
			c-0.075195,0.023438-0.157227,0.073242-0.245117,0.150391c0.178711,0.363281,0.399414,0.658203,0.662109,0.885742
			c0.262695,0.229492,0.555664,0.410156,0.875977,0.546875c0.321289,0.134766,0.665039,0.228516,1.032227,0.279297
			c0.368164,0.049805,0.731445,0.080078,1.09082,0.088867c0.358398,0.009766,0.711914,0.005859,1.056641-0.012695
			s0.669922-0.039062,0.973633-0.060547s0.623047-0.084961,0.956055-0.19043s0.635742-0.256836,0.910156-0.452148
			c0.273438-0.196289,0.495117-0.431641,0.663086-0.708008c0.168945-0.276367,0.240234-0.595703,0.214844-0.958008
			c-0.03418-0.479492-0.161133-0.861328-0.381836-1.144531c-0.219727-0.285156-0.504898-0.501953-0.855469-0.654297
			c-0.352539-0.150391-0.741211-0.249023-1.167969-0.295898c-0.424805-0.044922-0.865234-0.073242-1.318359-0.082031
			c-0.452148-0.008789-0.894531-0.021484-1.324219-0.038086c-0.430664-0.016602-0.8125-0.06543-1.147461-0.147461
			c-0.333984-0.083008-0.610352-0.211914-0.829102-0.390625c-0.217773-0.178711-0.339844-0.443359-0.364258-0.793945
			c-0.038086-0.196289,0.022461-0.37793,0.180664-0.541992c0.15918-0.163086,0.37207-0.301758,0.641602-0.415039
			c0.267578-0.112305,0.566406-0.195312,0.897461-0.249023c0.331055-0.052734,0.645508-0.063477,0.941406-0.03125
			s0.55957,0.103516,0.791016,0.216797c0.230469,0.113281,0.37793,0.27832,0.44043,0.498047
			c-0.113281,0.230469-0.167969,0.419922-0.163086,0.566406s0.039062,0.255859,0.102539,0.327148
			c0.064453,0.072266,0.149414,0.107422,0.254883,0.105469c0.104492-0.001953,0.205078-0.043945,0.298828-0.126953
			c0.094727-0.082031,0.165039-0.202148,0.212891-0.358398s0.051758-0.350586,0.010742-0.582031
			c-0.039062-0.396484-0.201172-0.719727-0.482437-0.970703c-0.282211-0.25-0.623032-0.421875-1.023422-0.517578
			s-0.833984-0.123047-1.300781-0.083984c-0.467773,0.039062-0.904297,0.140625-1.30957,0.304688
			c-0.405273,0.163086-0.748047,0.381836-1.02832,0.65332c-0.280273,0.273438-0.442383,0.598633-0.485352,0.978516
			c0.047852,0.513672,0.182617,0.925781,0.405273,1.240234c0.220703,0.3125,0.50293,0.550781,0.84375,0.714844
			c0.339844,0.164062,0.720703,0.275391,1.142578,0.333008c0.420898,0.057617,0.849609,0.095703,1.285156,0.111328
			c0.435547,0.016602,0.859375,0.030273,1.271484,0.041992c0.412109,0.012695,0.785156,0.058594,1.120117,0.140625
			s0.605469,0.211914,0.811523,0.391602c0.207031,0.178711,0.317383,0.439453,0.329102,0.779297
			c0.025391,0.350586-0.067383,0.618164-0.277344,0.803711C71.306526,15.631836,71.046761,15.768555,70.735237,15.855469z"/>
		<path style="fill:#010101;" d="M28.050665,37.791992c0.338867-0.100586,0.675781-0.204102,1.008789-0.30957
			c0.333984-0.106445,0.669922-0.208984,1.009766-0.30957c0.338867-0.100586,0.671875-0.162109,0.999023-0.185547
			c0.023438-0.001953,0.091797-0.003906,0.203125-0.005859c0.110352-0.001953,0.18457-0.003906,0.219727-0.006836
			c0.011719,0.164062,0.03125,0.359375,0.058594,0.585938c0.02832,0.227539,0.084961,0.443359,0.169922,0.649414
			c0.084961,0.205078,0.199219,0.379883,0.345705,0.521484c0.145508,0.142578,0.339844,0.205078,0.585938,0.1875
			c0.069336-0.004883,0.147461-0.030273,0.232422-0.078125c0.084961-0.046875,0.15918-0.105469,0.224598-0.174805
			c0.066418-0.068359,0.116222-0.142578,0.152355-0.22168c0.035156-0.079102,0.039062-0.15918,0.009766-0.238281
			c-0.025391-0.021484-0.069336-0.056641-0.131836-0.105469c-0.061523-0.048828-0.124023-0.097656-0.185547-0.145508
			c-0.0625-0.048828-0.124023-0.094727-0.186523-0.136719c-0.061523-0.041992-0.105469-0.074219-0.130859-0.09668
			l-0.310547-4.383789c-0.006836-0.09375-0.042969-0.19043-0.108398-0.291016c-0.06543-0.101562-0.142578-0.1875-0.229494-0.256836
			c-0.087891-0.070312-0.185547-0.12793-0.293945-0.173828c-0.109375-0.044922-0.210938-0.064453-0.303711-0.057617
			c-0.420898,0.030273-0.828125,0.09375-1.219727,0.192383c-0.392578,0.098633-0.793945,0.162109-1.203125,0.191406
			c-0.128906,0.008789-0.251953-0.00293-0.37207-0.035156c-0.120117-0.033203-0.240234-0.06543-0.359375-0.098633
			c-0.120117-0.032227-0.240234-0.06543-0.359375-0.09668c-0.120117-0.033203-0.239258-0.044922-0.355469-0.037109
			c-0.117188,0.008789-0.183594,0.063477-0.200195,0.163086c-0.016602,0.101562-0.020508,0.199219-0.014648,0.292969
			c0.005859,0.081055,0.029297,0.165039,0.071289,0.25c0.041016,0.085938,0.099609,0.164062,0.175781,0.234375
			c0.074219,0.071289,0.152344,0.126953,0.231445,0.168945c0.079102,0.041016,0.166016,0.058594,0.258789,0.051758
			l3.208984-0.227539c0.100586,0.085938,0.162109,0.206055,0.18457,0.357422c0.03418,0.149414,0.053711,0.259766,0.058594,0.330078
			c0.041016,0.572266-0.068359,1.026367-0.326172,1.362305c-0.258789,0.335938-0.605469,0.592773-1.038086,0.770508
			c-0.433594,0.176758-0.921875,0.299805-1.463867,0.367188c-0.541016,0.068359-1.069336,0.120117-1.583984,0.157227
			c-0.280273,0.019531-0.569336-0.003906-0.867188-0.071289c-0.298828-0.067383-0.577148-0.175781-0.833984-0.328125
			c-0.257812-0.151367-0.477539-0.351562-0.660156-0.59668c-0.180664-0.245117-0.28418-0.532227-0.306641-0.859375
			c-0.033203-0.467773,0.025391-0.929688,0.173828-1.386719c0.150391-0.457031,0.366211-0.889648,0.648438-1.296875
			c0.283203-0.408203,0.614258-0.787109,0.995117-1.136719c0.379883-0.350586,0.786133-0.658203,1.219727-0.923828
			s0.879883-0.476562,1.339844-0.632812c0.458984-0.15625,0.897461-0.248047,1.318359-0.27832
			c0.164062-0.010742,0.328125-0.004883,0.495117,0.017578c0.166992,0.023438,0.327148,0.055664,0.483398,0.097656
			c0.154297,0.041992,0.310547,0.078125,0.46582,0.108398c0.154297,0.030273,0.313477,0.040039,0.476564,0.02832
			c-0.016602-0.234375-0.07715-0.438477-0.183596-0.613281c-0.106445-0.173828-0.240234-0.314453-0.400391-0.420898
			c-0.160156-0.105469-0.350586-0.183594-0.571289-0.232422s-0.447266-0.053711-0.679688-0.013672
			c-0.452148,0.079102-0.936523,0.216797-1.450195,0.411133c-0.515625,0.195312-1.027344,0.442383-1.53418,0.744141
			c-0.507812,0.299805-0.991211,0.645508-1.450195,1.036133c-0.459961,0.390625-0.862305,0.8125-1.206055,1.265625
			c-0.34375,0.454102-0.609375,0.927734-0.797852,1.422852c-0.1875,0.495117-0.263672,1-0.227539,1.514648
			c0.035156,0.491211,0.143555,0.938477,0.325195,1.342773c0.180664,0.40332,0.422852,0.748047,0.724609,1.032227
			c0.301758,0.283203,0.657227,0.496094,1.067383,0.637695c0.40918,0.140625,0.859375,0.194336,1.350586,0.15918
			C27.360235,37.955078,27.711798,37.891602,28.050665,37.791992z"/>
		<path style="fill:#010101;" d="M34.785042,36.582031c0.354492,0.28125,0.762695,0.490234,1.225586,0.62793
			c0.460938,0.136719,0.960938,0.186523,1.499023,0.148438c0.525391-0.037109,1.03418-0.158203,1.525391-0.363281
			c0.490234-0.205078,0.922852-0.482422,1.296875-0.833008c0.375-0.349609,0.662109-0.766602,0.863281-1.25
			c0.200195-0.484375,0.280273-1.024414,0.237305-1.620117c-0.017578-0.257812-0.072266-0.521484-0.162109-0.791016
			s-0.209961-0.53418-0.364258-0.792969c-0.15332-0.259766-0.332031-0.508789-0.538086-0.746094
			c-0.204102-0.239258-0.433594-0.445312-0.686523-0.621094s-0.515625-0.310547-0.786133-0.402344
			c-0.270508-0.092773-0.558594-0.12793-0.862305-0.106445c-0.572266,0.040039-1.136719,0.160156-1.693359,0.358398
			c-0.554688,0.197266-1.049805,0.475586-1.482422,0.835938c-0.431641,0.360352-0.771484,0.789062-1.018555,1.289062
			c-0.246094,0.498047-0.347656,1.069336-0.301758,1.711914c0.039062,0.549805,0.167969,1.041992,0.387695,1.479492
			C34.14344,35.943359,34.429573,36.301758,34.785042,36.582031z M34.636604,32.628906
			c0.198242-0.356445,0.458984-0.65625,0.78125-0.902344c0.323242-0.246094,0.688477-0.439453,1.095703-0.580078
			s0.803711-0.224609,1.189453-0.251953c0.695312,0.198242,1.246094,0.425781,1.652344,0.68457
			c0.40625,0.259766,0.692383,0.539062,0.861328,0.837891c0.167969,0.299805,0.242188,0.606445,0.223633,0.918945
			s-0.105469,0.618164-0.261719,0.916016c-0.154297,0.299805-0.355469,0.578125-0.600586,0.835938
			c-0.246094,0.258789-0.506836,0.482422-0.78125,0.672852c-0.273438,0.189453-0.550781,0.338867-0.832031,0.446289
			c-0.279297,0.108398-0.519531,0.157227-0.720703,0.148438c-0.374023,0.026367-0.729492-0.021484-1.067383-0.144531
			c-0.336914-0.124023-0.633789-0.298828-0.891602-0.527344c-0.256836-0.228516-0.464844-0.504883-0.62207-0.828125
			c-0.158203-0.323242-0.250977-0.666016-0.276367-1.02832C34.355354,33.382812,34.438362,32.983398,34.636604,32.628906z"/>
		<path style="fill:#010101;" d="M44.565315,28.134766c-0.12793,0.103516-0.224609,0.233398-0.289062,0.390625
			c-0.066406,0.157227-0.09082,0.34082-0.076172,0.551758c0.000977,0.011719,0.023438,0.03418,0.066406,0.066406
			c0.043945,0.032227,0.078125,0.058594,0.102539,0.081055c0.012695,0.010742,0.025391,0.020508,0.038086,0.03125
			c0.000977,0.011719,0.012695,0.016602,0.036133,0.015625c0.104492-0.007812,0.194336-0.035156,0.267578-0.080078
			c0.073242-0.046875,0.147449-0.098633,0.226562-0.157227c0.078125-0.058594,0.160156-0.108398,0.245117-0.150391
			c0.083984-0.041016,0.185547-0.066406,0.302734-0.074219c0.291992-0.020508,0.601562,0.037109,0.927734,0.172852
			c0.328125,0.134766,0.637695,0.318359,0.929688,0.549805c0.291992,0.232422,0.538086,0.5,0.735352,0.802734
			c0.198242,0.303711,0.307617,0.606445,0.329102,0.911133l0.029297,0.15625c0.006836,0.105469,0.011719,0.164062,0.011719,0.175781
			c-0.744141-0.229492-1.415039-0.358398-2.009766-0.386719c-0.595703-0.02832-1.120117,0.014648-1.576172,0.129883
			c-0.457031,0.114258-0.847656,0.28125-1.171875,0.49707c-0.326172,0.217773-0.59082,0.456055-0.795898,0.716797
			c-0.204102,0.261719-0.350586,0.524414-0.4375,0.789062c-0.085938,0.265625-0.128906,0.49707-0.125977,0.697266
			c0.042969,0.607422,0.226562,1.09375,0.552734,1.458008c0.325195,0.365234,0.723633,0.638672,1.195312,0.822266
			c0.470703,0.18457,0.983398,0.297852,1.539062,0.34082c0.554688,0.042969,1.078125,0.046875,1.569336,0.011719
			c0.09375-0.006836,0.251953-0.038086,0.477539-0.095703c0.224609-0.056641,0.466797-0.124023,0.726562-0.200195
			c0.257812-0.077148,0.527344-0.169922,0.808594-0.27832c0.279297-0.108398,0.533192-0.210938,0.761719-0.30957
			c0.227539-0.098633,0.411133-0.194336,0.551758-0.286133c0.141602-0.091797,0.208984-0.172852,0.204102-0.243164
			s-0.015625-0.140625-0.032227-0.208984c-0.016602-0.069336-0.073242-0.118164-0.169922-0.146484
			c-0.023438,0.000977-0.061523,0.003906-0.114258,0.007812s-0.110352,0.004883-0.175781,0.003906
			c-0.064453-0.001953-0.125977,0-0.18457,0.003906s-0.099609,0.006836-0.12207,0.008789
			c-0.304688,0.021484-0.607422,0.060547-0.908203,0.117188c-0.301758,0.056641-0.606445,0.119141-0.912109,0.188477
			c-0.306641,0.067383-0.616211,0.130859-0.929688,0.188477s-0.633789,0.097656-0.960938,0.121094
			c-0.198242,0.014648-0.462891,0.009766-0.793945-0.014648c-0.330078-0.023438-0.657227-0.083984-0.981445-0.185547
			c-0.325195-0.100586-0.605469-0.238281-0.84082-0.416016c-0.236328-0.176758-0.363281-0.40625-0.382812-0.686523
			c-0.018555-0.256836,0.026367-0.486328,0.135742-0.6875C43.453987,33.333008,43.605354,33.155273,43.79969,33
			s0.420898-0.291016,0.675781-0.40918c0.255859-0.118164,0.510742-0.21582,0.763672-0.291992s0.499023-0.134766,0.736328-0.175781
			c0.239258-0.040039,0.445312-0.066406,0.621094-0.079102c0.165039,0.023438,0.379883,0.064453,0.642578,0.121094
			c0.261719,0.058594,0.549805,0.173828,0.861328,0.344727c0.311523,0.171875,0.630859,0.416016,0.958984,0.733398
			c0.329102,0.318359,0.634766,0.742188,0.918945,1.274414l0.088867,0.011719
			c0.047852,0.008789,0.107422,0.012695,0.177734,0.013672c0.069336,0.000977,0.134766,0.00293,0.193359,0.003906
			c0.05957,0.001953,0.094727,0.00293,0.106445,0.001953c0.025391-0.472656-0.016602-0.974609-0.125-1.506836
			c-0.094727-0.510742-0.250977-1.013672-0.467773-1.508789c-0.217773-0.496094-0.477539-0.970703-0.779297-1.425781
			c-0.302734-0.453125-0.645508-0.849609-1.027344-1.186523s-0.794922-0.610352-1.239258-0.819336
			c-0.443359-0.208984-0.901367-0.321289-1.37207-0.334961c-0.186523,0.013672-0.363281,0.052734-0.52832,0.117188
			C44.839729,27.948242,44.693245,28.032227,44.565315,28.134766z"/>
		<path style="fill:#010101;" d="M51.604378,33.707031c0.086914,0.822266,0.21875,1.642578,0.394531,2.464844
			c0.118164,0.014648,0.23436,0.030273,0.347656,0.045898c0.112305,0.015625,0.205078-0.038086,0.279297-0.160156
			c0.073242-0.123047,0.124023-0.350586,0.15332-0.681641c0.030273-0.330078,0.032227-0.838867,0.006836-1.524414
			s-0.088867-1.585938-0.191406-2.700195s-0.248047-2.504883-0.4375-4.171875
			c-0.004883-0.070312-0.025391-0.160156-0.063477-0.268555c-0.036133-0.108398-0.087891-0.216797-0.154297-0.324219
			c-0.066406-0.106445-0.143555-0.195312-0.230469-0.265625s-0.182617-0.101562-0.288086-0.09375
			c-0.09375,0.005859-0.173828,0.029297-0.242188,0.070312c-0.067383,0.040039-0.097656,0.106445-0.091797,0.200195
			c0.070312,0.817383,0.12207,1.636719,0.157227,2.455078c0.03418,0.820312,0.081055,1.645508,0.139648,2.475586
			C51.443245,32.058594,51.516487,32.884766,51.604378,33.707031z"/>
		<path style="fill:#010101;" d="M53.620003,29.713867c0.048828,0.512695,0.183594,0.925781,0.405273,1.239258
			c0.222656,0.313477,0.50293,0.551758,0.84375,0.714844c0.34082,0.165039,0.72168,0.276367,1.142578,0.333008
			c0.420898,0.058594,0.849609,0.09668,1.286133,0.112305c0.435532,0.016602,0.859375,0.030273,1.271484,0.041016
			c0.412109,0.012695,0.785156,0.05957,1.120117,0.141602s0.604492,0.212891,0.811523,0.392578
			c0.207031,0.177734,0.316406,0.438477,0.328125,0.77832c0.025391,0.350586-0.066406,0.618164-0.277344,0.803711
			c-0.209961,0.18457-0.470703,0.321289-0.78125,0.408203c-0.311523,0.085938-0.642578,0.139648-0.993164,0.158203
			c-0.350586,0.019531-0.650391,0.037109-0.895508,0.054688c-0.31543,0.022461-0.572266,0.035156-0.772461,0.037109
			c-0.199219,0.00293-0.376953-0.014648-0.532227-0.050781s-0.326172-0.087891-0.512695-0.157227
			c-0.1875-0.068359-0.4375-0.157227-0.75-0.263672c-0.109375-0.040039-0.212891-0.091797-0.311523-0.154297
			c-0.097656-0.063477-0.193359-0.129883-0.287109-0.200195c-0.092773-0.070312-0.193359-0.126953-0.302734-0.171875
			s-0.216797-0.064453-0.321289-0.056641c-0.09375,0.006836-0.177734,0.021484-0.25293,0.043945
			c-0.074219,0.023438-0.155273,0.073242-0.244141,0.149414c0.178711,0.363281,0.398438,0.65918,0.661133,0.886719
			c0.263672,0.228516,0.555664,0.410156,0.875977,0.545898c0.321289,0.135742,0.666016,0.229492,1.03418,0.280273
			c0.367188,0.048828,0.730469,0.079102,1.089844,0.088867c0.358398,0.010742,0.710938,0.005859,1.055664-0.012695
			c0.345703-0.018555,0.669922-0.039062,0.974609-0.060547c0.303711-0.021484,0.62207-0.084961,0.955078-0.191406
			c0.333008-0.104492,0.637695-0.255859,0.911133-0.452148c0.273438-0.195312,0.494141-0.431641,0.663086-0.707031
			c0.167953-0.276367,0.239258-0.59668,0.213867-0.958984c-0.03418-0.478516-0.161133-0.860352-0.380859-1.144531
			s-0.504883-0.500977-0.856445-0.65332c-0.351562-0.150391-0.740234-0.249023-1.166992-0.295898
			c-0.425781-0.045898-0.865234-0.073242-1.318359-0.082031c-0.452148-0.008789-0.893555-0.021484-1.324219-0.038086
			c-0.429688-0.016602-0.8125-0.066406-1.146484-0.147461c-0.334961-0.082031-0.612305-0.212891-0.830078-0.390625
			c-0.21875-0.178711-0.339844-0.443359-0.364258-0.793945c-0.038086-0.197266,0.022461-0.37793,0.181641-0.541992
			c0.15918-0.163086,0.37207-0.301758,0.639648-0.415039c0.268555-0.113281,0.568359-0.195312,0.899414-0.249023
			c0.330078-0.052734,0.643555-0.0625,0.939453-0.03125c0.296875,0.03125,0.560547,0.103516,0.791016,0.216797
			c0.231445,0.112305,0.378906,0.27832,0.44043,0.49707c-0.112305,0.231445-0.166016,0.419922-0.162109,0.567383
			c0.004883,0.146484,0.039062,0.254883,0.102539,0.327148c0.064453,0.072266,0.148438,0.107422,0.253906,0.105469
			c0.106445-0.001953,0.206055-0.043945,0.299805-0.126953s0.165039-0.202148,0.212891-0.358398
			c0.047852-0.157227,0.051758-0.350586,0.011719-0.582031c-0.040039-0.396484-0.201172-0.720703-0.483398-0.970703
			s-0.624023-0.422852-1.023438-0.517578c-0.400391-0.095703-0.834961-0.123047-1.301758-0.083984
			s-0.90332,0.140625-1.308594,0.304688c-0.405273,0.163086-0.748047,0.381836-1.02832,0.65332
			C53.825081,29.007812,53.663948,29.333984,53.620003,29.713867z"/>
		<path style="fill:#010101;" d="M147.583008,6.594112c0.069336,0.515625,0.178711,1.029297,0.324219,1.539062
			c0.147461,0.508789,0.34082,0.964844,0.583008,1.370117c0.243164,0.405273,0.541992,0.740234,0.899414,1.004883
			c0.357422,0.266602,0.788086,0.416016,1.291016,0.451172c0.280273,0.019531,0.557617-0.008789,0.833984-0.082031
			c0.274414-0.075195,0.545898-0.174805,0.813477-0.296875c0.266602-0.12207,0.525391-0.256836,0.776367-0.40332
			c0.250977-0.147461,0.484375-0.28418,0.698242-0.410156s0.40625-0.227539,0.576172-0.303711s0.3125-0.110352,0.429688-0.102539
			c0.140625,0.009766,0.251953,0.088867,0.335938,0.234375c0.083984,0.147461,0.161133,0.308594,0.230469,0.483398
			c0.070312,0.175781,0.15918,0.336914,0.266602,0.485352c0.106445,0.149414,0.277344,0.231445,0.510742,0.248047
			c0.210938,0.014648,0.34082-0.074219,0.388672-0.264648s0.041992-0.4375-0.018555-0.741211
			c-0.061523-0.303711-0.157227-0.65918-0.287109-1.068359c-0.129883-0.408203-0.256836-0.828125-0.378906-1.259766
			c-0.123047-0.431641-0.231445-0.861328-0.324219-1.291016c-0.09375-0.429688-0.134766-0.820312-0.12207-1.170898
			c0.044922-0.479492,0.064453-0.932617,0.05957-1.362305c-0.005859-0.428711-0.038086-0.801758-0.098633-1.116211
			c-0.060547-0.31543-0.137695-0.55957-0.231445-0.729492c-0.092773-0.171875-0.188477-0.246094-0.28418-0.223633
			c-0.095703,0.023438-0.195312,0.163086-0.301758,0.419922s-0.195312,0.652344-0.267578,1.188477
			c-0.026367,0.374023-0.02832,0.702148-0.006836,0.986328c0.021484,0.283203,0.054688,0.561523,0.100586,0.835938
			c0.045898,0.272461,0.100586,0.576172,0.165039,0.90918c0.06543,0.333984,0.12207,0.749023,0.169922,1.245117l-0.004883,0.070312
			c-0.026367,0.374023-0.182617,0.724609-0.469727,1.050781c-0.287109,0.327148-0.626953,0.608398-1.019531,0.845703
			c-0.391602,0.237305-0.80957,0.411133-1.251953,0.521484c-0.442383,0.109375-0.826172,0.141602-1.151367,0.095703
			c-0.431641-0.053711-0.790039-0.207031-1.079102-0.462891c-0.287109-0.254883-0.527344-0.561523-0.719727-0.922852
			c-0.191406-0.359375-0.34082-0.753906-0.445312-1.18457c-0.105469-0.430664-0.178711-0.861328-0.219727-1.292969
			c-0.039062-0.431641-0.057617-0.84668-0.053711-1.246094c0.004883-0.399414,0.017578-0.75,0.038086-1.053711
			c0.00293-0.035156,0.009766-0.140625,0.022461-0.31543c0.011719-0.175781,0.036133-0.356445,0.072266-0.541992
			c0.037109-0.18457,0.083984-0.355469,0.141602-0.509766c0.056641-0.154297,0.138672-0.228516,0.244141-0.220703
			c0.15918-0.083008,0.276367-0.180664,0.354492-0.291992c0.079102-0.112305,0.115234-0.21875,0.111328-0.318359
			c-0.004883-0.100586-0.040039-0.188477-0.105469-0.263672s-0.162109-0.117188-0.291016-0.125977
			c-0.199219-0.013672-0.37207,0.033203-0.520508,0.140625s-0.275391,0.24707-0.381836,0.422852
			c-0.106445,0.173828-0.191406,0.374023-0.25293,0.598633c-0.0625,0.224609-0.110352,0.444336-0.142578,0.660156
			c-0.033203,0.214844-0.058594,0.413086-0.077148,0.592773c-0.018555,0.181641-0.03125,0.324219-0.038086,0.429688
			c-0.025391,0.362305-0.03125,0.78125-0.017578,1.258789C147.47168,5.582394,147.512695,6.078487,147.583008,6.594112z"/>
		<path style="fill:#010101;" d="M158.535156,10.897823c0.297852,0.178711,0.625977,0.319336,0.983398,0.420898
			c0.356445,0.100586,0.711914,0.181641,1.066406,0.240234c0.353516,0.060547,0.704102,0.105469,1.048828,0.134766
			c0.34375,0.030273,0.667969,0.055664,0.97168,0.077148c0.304688,0.020508,0.628906,0.001953,0.973633-0.055664
			c0.34375-0.058594,0.666016-0.165039,0.964844-0.320312c0.298828-0.15625,0.549805-0.358398,0.755859-0.609375
			c0.205078-0.249023,0.320312-0.554688,0.345703-0.917969c0.033203-0.478516-0.040039-0.875-0.216797-1.1875
			c-0.178711-0.311523-0.430664-0.566406-0.757812-0.765625c-0.326172-0.198242-0.697266-0.350586-1.113281-0.456055
			s-0.84668-0.194336-1.293945-0.265625c-0.448242-0.072266-0.882812-0.147461-1.306641-0.223633
			s-0.794922-0.178711-1.115234-0.306641c-0.319336-0.12793-0.576172-0.295898-0.766602-0.501953
			c-0.191406-0.208008-0.274414-0.486328-0.25-0.836914c-0.009766-0.201172,0.076172-0.37207,0.254883-0.510742
			c0.180664-0.140625,0.411133-0.248047,0.693359-0.322266c0.280273-0.074219,0.588867-0.115234,0.923828-0.121094
			s0.647461,0.027344,0.935547,0.100586c0.289062,0.073242,0.540039,0.181641,0.75293,0.325195
			c0.213867,0.143555,0.334961,0.329102,0.366211,0.553711c-0.143555,0.213867-0.222656,0.392578-0.239258,0.539062
			c-0.015625,0.145508,0.00293,0.257812,0.054688,0.338867c0.053711,0.080078,0.132812,0.126953,0.238281,0.139648
			c0.104492,0.013672,0.208984-0.014648,0.313477-0.083984c0.105469-0.069336,0.192383-0.177734,0.260742-0.325195
			c0.068359-0.148438,0.099609-0.339844,0.092773-0.576172c0.015625-0.397461-0.097656-0.740234-0.342773-1.027344
			c-0.244141-0.288086-0.557617-0.505859-0.94043-0.65625c-0.383789-0.150391-0.808594-0.237305-1.277344-0.263672
			c-0.467773-0.027344-0.914062,0.011719-1.338867,0.117188c-0.423828,0.106445-0.793945,0.273438-1.109375,0.504883
			c-0.31543,0.230469-0.521484,0.530273-0.618164,0.899414c-0.023438,0.515625,0.052734,0.943359,0.227539,1.28418
			c0.176758,0.34082,0.421875,0.617188,0.735352,0.827148c0.31543,0.209961,0.676758,0.37207,1.085938,0.489258
			c0.40918,0.116211,0.828125,0.212891,1.257812,0.290039c0.428711,0.077148,0.845703,0.150391,1.251953,0.21875
			c0.40625,0.069336,0.770508,0.167969,1.09082,0.296875c0.319336,0.12793,0.569336,0.294922,0.749023,0.500977
			c0.178711,0.206055,0.250977,0.478516,0.21582,0.817383c-0.024414,0.350586-0.15332,0.602539-0.386719,0.756836
			c-0.234375,0.15332-0.511719,0.251953-0.831055,0.293945c-0.320312,0.042969-0.655273,0.048828-1.006836,0.018555
			c-0.349609-0.030273-0.647461-0.053711-0.892578-0.070312c-0.316406-0.022461-0.573242-0.045898-0.770508-0.071289
			c-0.198242-0.025391-0.37207-0.067383-0.519531-0.125c-0.149414-0.056641-0.311523-0.132812-0.487305-0.226562
			c-0.174805-0.094727-0.410156-0.216797-0.705078-0.367188c-0.102539-0.054688-0.198242-0.119141-0.286133-0.195312
			c-0.088867-0.077148-0.174805-0.15625-0.256836-0.239258c-0.082031-0.082031-0.173828-0.152344-0.275391-0.211914
			c-0.102539-0.060547-0.205078-0.09375-0.310547-0.101562c-0.09375-0.005859-0.178711-0.00293-0.256836,0.008789
			c-0.076172,0.012695-0.164062,0.050781-0.262695,0.114258c0.125977,0.384766,0.302734,0.708008,0.532227,0.970703
			C157.97168,10.497433,158.235352,10.718136,158.535156,10.897823z"/>
		<path style="fill:#010101;" d="M167.901367,10.860714c0.428711,0.435547,0.932617,0.785156,1.514648,1.048828
			c0.580078,0.263672,1.208984,0.417969,1.887695,0.46582c0.280273,0.019531,0.580078,0.016602,0.899414-0.008789
			c0.318359-0.023438,0.641602-0.075195,0.969727-0.152344c0.329102-0.077148,0.642578-0.186523,0.94043-0.331055
			c0.296875-0.143555,0.548828-0.337891,0.753906-0.581055l-3.15332-0.008789
			c-0.722656-0.084961-1.325195-0.212891-1.805664-0.380859c-0.482422-0.167969-0.876953-0.366211-1.183594-0.592773
			c-0.308594-0.227539-0.537125-0.481445-0.688477-0.761719c-0.149414-0.28125-0.253906-0.569336-0.30957-0.867188
			s-0.078125-0.598633-0.068359-0.90332s0.024414-0.609375,0.045898-0.914062
			c0.027344-0.396484,0.117188-0.772461,0.271484-1.125977s0.357422-0.670898,0.612305-0.952148
			c0.254883-0.282227,0.555664-0.504883,0.901367-0.669922c0.34668-0.163086,0.725586-0.248047,1.136719-0.254883
			c0.258789-0.005859,0.487305,0.051758,0.683594,0.170898c0.198242,0.120117,0.366211,0.271484,0.505859,0.458008
			c0.140625,0.185547,0.239258,0.395508,0.299805,0.62793c0.060547,0.234375,0.083008,0.467773,0.066406,0.702148
			c-0.015625,0.22168-0.148438,0.4375-0.397461,0.650391c-0.25,0.210938-0.541992,0.393555-0.875,0.545898
			c-0.334961,0.15332-0.660156,0.275391-0.977539,0.364258c-0.317383,0.089844-0.558594,0.128906-0.72168,0.117188
			c-0.277344-0.066406-0.49707-0.116211-0.65918-0.151367c-0.162109-0.023438-0.285156-0.02832-0.369141-0.016602
			c-0.082031,0.011719-0.133789,0.037109-0.154297,0.077148s-0.032227,0.088867-0.037109,0.147461
			c-0.012695,0.186523,0.012695,0.330078,0.076172,0.428711c0.063477,0.097656,0.152344,0.173828,0.265625,0.229492
			c0.114258,0.054688,0.243164,0.086914,0.389648,0.097656c0.146484,0.009766,0.289062,0.019531,0.429688,0.029297
			c0.374023,0.026367,0.782227-0.006836,1.223633-0.100586c0.44043-0.091797,0.856445-0.239258,1.246094-0.44043
			c0.389648-0.203125,0.71875-0.464844,0.989258-0.786133c0.268555-0.322266,0.417969-0.694336,0.447266-1.114258
			c0.024414-0.351562,0.011719-0.681641-0.037109-0.989258c-0.060547-0.321289-0.172852-0.609375-0.336914-0.861328
			c-0.165039-0.251953-0.384766-0.469727-0.65918-0.65332c-0.275391-0.183594-0.604492-0.3125-0.987305-0.385742
			c-0.654297-0.045898-1.239258,0.040039-1.75293,0.256836s-0.958008,0.523438-1.333008,0.920898
			c-0.374023,0.396484-0.670898,0.867188-0.890625,1.40918c-0.219727,0.542969-0.350586,1.117188-0.393555,1.725586
			c-0.049805,0.724609,0.036133,1.386719,0.258789,1.982422C167.148438,9.910519,167.474609,10.426144,167.901367,10.860714z"/>
		<path style="fill:#010101;" d="M176.277344,9.514034c0.089844,0.570312,0.208984,1.135742,0.357422,1.699219
			c0.148438,0.5625,0.335938,1.085938,0.560547,1.571289c0.164062,0.011719,0.314453-0.045898,0.452148-0.170898
			c0.138672-0.125977,0.211914-0.24707,0.219727-0.363281c-0.000977-0.317383-0.032227-0.630859-0.09375-0.94043
			c-0.060547-0.30957-0.129883-0.623047-0.207031-0.94043c-0.078125-0.316406-0.162109-0.632812-0.250977-0.950195
			c-0.089844-0.318359-0.15918-0.633789-0.208008-0.948242s-0.067383-0.636719-0.056641-0.964844
			c0.011703-0.328125,0.069336-0.65918,0.174805-0.992188c0.208984-0.290039,0.439453-0.486328,0.693359-0.586914
			c0.243164-0.123047,0.5-0.181641,0.769531-0.174805s0.548828,0.049805,0.836914,0.128906s0.566406,0.167969,0.835938,0.269531
			c0.269531,0.100586,0.527344,0.186523,0.775391,0.256836c0.24707,0.070312,0.464844,0.099609,0.654297,0.088867
			c0.012695-0.1875,0.005859-0.34082-0.021484-0.458984c-0.026367-0.120117-0.069336-0.222656-0.126953-0.30957
			c-0.05957-0.084961-0.124023-0.163086-0.196289-0.233398c-0.071289-0.069336-0.151367-0.142578-0.239258-0.219727
			c-0.183594-0.070312-0.34375-0.131836-0.481445-0.182617s-0.265625-0.094727-0.386719-0.132812
			s-0.243164-0.066406-0.364258-0.086914c-0.12207-0.020508-0.265625-0.036133-0.428711-0.047852
			c-0.222656-0.015625-0.452148-0.001953-0.689453,0.041016c-0.238281,0.041992-0.473633,0.099609-0.708984,0.170898
			c-0.233398,0.071289-0.464844,0.149414-0.694336,0.233398s-0.451172,0.15332-0.666992,0.208984
			c-0.020508-0.025391-0.077148-0.058594-0.167969-0.099609c-0.091797-0.041016-0.148438-0.068359-0.170898-0.082031
			l-0.035156-0.001953c-0.022461-0.001953-0.03418-0.005859-0.03418-0.011719
			c0.000977-0.005859-0.004883-0.008789-0.016602-0.009766s-0.017578,0.001953-0.018555,0.007812
			c0,0.005859-0.005859,0.007812-0.017578,0.006836l-0.035156-0.001953c-0.075195,0.064453-0.130859,0.142578-0.166992,0.234375
			s-0.060562,0.19043-0.073242,0.293945c-0.013672,0.105469-0.017578,0.208008-0.012695,0.308594
			c0.004883,0.099609,0.004883,0.19043-0.000977,0.272461c-0.006836,0.43457,0.009766,0.920898,0.048828,1.457031
			C176.124023,8.390011,176.187485,8.944698,176.277344,9.514034z"/>
		<path style="fill:#010101;" d="M139.352539,27.783566c0.039062,0.115234,0.09375,0.217773,0.163086,0.310547
			c0.070312,0.09375,0.164062,0.144531,0.28125,0.152344c0.12793,0.008789,0.236328-0.030273,0.325195-0.119141
			c0.087891-0.087891,0.157227-0.193359,0.206055-0.319336c0.049805-0.126953,0.088867-0.251953,0.115234-0.379883
			s0.041992-0.231445,0.047852-0.313477c0.025391-0.362305,0.013672-0.707031-0.03418-1.03418
			c-0.046875-0.326172-0.057617-0.675781-0.032227-1.049805c0.005859-0.082031,0.014648-0.202148,0.025391-0.359375
			c0.010742-0.158203,0.036133-0.305664,0.075195-0.444336c0.038086-0.138672,0.09668-0.257812,0.173828-0.358398
			c0.078125-0.100586,0.192383-0.145508,0.34375-0.134766c0.082031,0.005859,0.183594,0.119141,0.303711,0.337891
			c0.119141,0.220703,0.261719,0.50293,0.424805,0.849609c0.164062,0.34668,0.364258,0.71582,0.601562,1.108398
			c0.237305,0.391602,0.516602,0.766602,0.837891,1.123047c0.322266,0.357422,0.695312,0.657227,1.119141,0.897461
			c0.422852,0.241211,0.90918,0.379883,1.458984,0.418945c0.50293,0.03418,0.966797-0.017578,1.393555-0.158203
			c0.426758-0.141602,0.801758-0.355469,1.121094-0.644531s0.575195-0.636719,0.767578-1.040039
			c0.193359-0.40332,0.306641-0.856445,0.341797-1.359375c0.013672-0.199219,0-0.469727-0.041016-0.8125
			c-0.041016-0.34375-0.105469-0.717773-0.195312-1.124023c-0.088867-0.405273-0.195312-0.81543-0.320312-1.228516
			c-0.123047-0.414062-0.261719-0.791992-0.414062-1.130859c-0.152344-0.339844-0.317383-0.621094-0.496094-0.845703
			c-0.178711-0.222656-0.361328-0.341797-0.548828-0.354492c-0.163086-0.011719-0.265625,0.02832-0.307617,0.120117
			c-0.041016,0.089844-0.067383,0.217773-0.079102,0.381836c-0.029297,0.420898,0.03418,0.818359,0.19043,1.193359
			s0.327148,0.750977,0.511719,1.12793c0.185547,0.376953,0.354492,0.767578,0.508789,1.171875s0.214844,0.833984,0.183594,1.290039
			c-0.024414,0.350586-0.09082,0.669922-0.199219,0.956055c-0.107422,0.285156-0.256836,0.530273-0.447266,0.735352
			c-0.189453,0.203125-0.426758,0.357422-0.709961,0.461914c-0.283203,0.102539-0.606445,0.141602-0.96875,0.117188
			c-0.608398-0.03125-1.148438-0.206055-1.620117-0.527344c-0.470703-0.320312-0.888672-0.730469-1.25293-1.232422
			c-0.364258-0.500977-0.677734-1.0625-0.94043-1.685547c-0.261719-0.623047-0.482422-1.24707-0.663086-1.870117
			c-0.179688-0.624023-0.328125-1.233398-0.445312-1.828125c-0.117188-0.59668-0.208008-1.106445-0.271484-1.53418
			l-0.175781-0.012695c-0.023453-0.000977-0.06543,0.007812-0.125977,0.027344
			c-0.070312,0.018555-0.142578,0.030273-0.212891,0.037109c-0.071289,0.006836-0.139648,0.016602-0.206055,0.029297
			c-0.064453,0.013672-0.109375,0.025391-0.133789,0.035156l-0.005859,0.087891
			c-0.020508,0.291992-0.007812,0.581055,0.036118,0.866211c0.044937,0.28418,0.056656,0.579102,0.036148,0.883789
			c-0.038086,0.537109-0.092773,1.079102-0.166992,1.626953c-0.072266,0.53418-0.152344,1.072266-0.243164,1.613281
			c-0.09082,0.539062-0.172852,1.083008-0.246094,1.629883s-0.128906,1.095703-0.166992,1.645508
			c-0.005859,0.081055-0.003906,0.183594,0.004883,0.307617S139.313477,27.669308,139.352539,27.783566z"/>
		<path style="fill:#010101;" d="M155.651367,20.308956c-0.274414-0.182617-0.603516-0.311523-0.987305-0.385742
			c-0.654297-0.044922-1.238281,0.041016-1.75293,0.256836c-0.513672,0.216797-0.958008,0.524414-1.332031,0.919922
			c-0.374023,0.397461-0.671875,0.867188-0.890625,1.410156c-0.220703,0.541992-0.350586,1.118164-0.393555,1.726562
			c-0.049805,0.724609,0.035156,1.384766,0.258789,1.982422c0.222656,0.59668,0.547852,1.112305,0.975586,1.547852
			c0.428711,0.43457,0.931641,0.78418,1.513672,1.047852c0.580078,0.263672,1.209961,0.418945,1.887695,0.46582
			c0.28125,0.019531,0.580078,0.016602,0.899414-0.007812c0.318359-0.025391,0.641602-0.076172,0.970703-0.152344
			c0.328125-0.077148,0.641602-0.188477,0.939453-0.331055c0.297852-0.144531,0.548828-0.337891,0.753906-0.583008
			l-3.154297-0.006836c-0.72168-0.085938-1.323242-0.212891-1.804688-0.381836
			c-0.482422-0.167969-0.876953-0.366211-1.183594-0.592773c-0.307617-0.227539-0.537109-0.480469-0.6875-0.761719
			c-0.151367-0.280273-0.254883-0.569336-0.30957-0.867188c-0.055664-0.297852-0.079102-0.598633-0.069336-0.90332
			c0.009766-0.305664,0.024414-0.609375,0.045898-0.913086c0.027344-0.397461,0.118164-0.772461,0.272461-1.125977
			c0.15332-0.353516,0.357422-0.671875,0.611328-0.954102c0.255859-0.28125,0.555664-0.504883,0.901367-0.667969
			c0.34668-0.164062,0.724609-0.249023,1.136719-0.255859c0.259766-0.004883,0.487305,0.051758,0.684555,0.170898
			c0.197281,0.119141,0.366226,0.272461,0.504898,0.458008c0.140625,0.185547,0.240234,0.394531,0.299805,0.628906
			c0.060547,0.232422,0.083008,0.466797,0.066406,0.700195c-0.015625,0.222656-0.148438,0.439453-0.397461,0.650391
			c-0.249023,0.211914-0.541992,0.394531-0.875,0.547852c-0.333984,0.15332-0.65918,0.273438-0.977539,0.363281
			c-0.317383,0.089844-0.557617,0.128906-0.72168,0.118164c-0.276367-0.066406-0.49707-0.117188-0.658203-0.152344
			c-0.163086-0.022461-0.286133-0.02832-0.369141-0.016602s-0.134766,0.038086-0.155273,0.078125
			c-0.020508,0.038086-0.032227,0.087891-0.037109,0.146484c-0.012695,0.1875,0.012695,0.329102,0.076172,0.427734
			c0.064453,0.098633,0.15332,0.175781,0.265625,0.230469c0.114258,0.054688,0.244141,0.086914,0.389648,0.09668
			c0.146484,0.010742,0.290039,0.020508,0.429688,0.030273c0.374023,0.025391,0.782227-0.006836,1.223633-0.099609
			c0.44043-0.092773,0.856445-0.240234,1.246094-0.442383c0.389648-0.201172,0.719727-0.463867,0.988281-0.786133
			c0.269531-0.321289,0.418945-0.693359,0.448242-1.114258c0.024414-0.350586,0.011719-0.679688-0.037109-0.988281
			c-0.060547-0.322266-0.171875-0.608398-0.336914-0.860352C156.146484,20.710323,155.925781,20.49255,155.651367,20.308956z"/>
		<path style="fill:#010101;" d="M164.910156,20.952511c-0.274414-0.182617-0.603516-0.311523-0.986328-0.385742
			c-0.655273-0.044922-1.239258,0.041016-1.753906,0.256836c-0.513672,0.216797-0.958008,0.524414-1.332031,0.919922
			c-0.374023,0.397461-0.671875,0.867188-0.890625,1.410156c-0.220703,0.541992-0.350586,1.118164-0.393555,1.726562
			c-0.049805,0.724609,0.035156,1.384766,0.258774,1.982422c0.222672,0.59668,0.547867,1.112305,0.975601,1.547852
			c0.428711,0.43457,0.932617,0.78418,1.513672,1.047852c0.581055,0.262695,1.209961,0.418945,1.887695,0.46582
			c0.28125,0.019531,0.580078,0.016602,0.899414-0.007812c0.318359-0.025391,0.642578-0.076172,0.970703-0.152344
			c0.328125-0.077148,0.641602-0.188477,0.939453-0.331055c0.297852-0.144531,0.548828-0.337891,0.753906-0.583008
			l-3.15332-0.006836c-0.722656-0.085938-1.324219-0.212891-1.805664-0.381836
			c-0.482422-0.167969-0.876953-0.366211-1.183594-0.592773c-0.307617-0.227539-0.537109-0.480469-0.6875-0.761719
			c-0.151367-0.280273-0.253906-0.569336-0.30957-0.867188s-0.079102-0.598633-0.069336-0.90332
			c0.009766-0.305664,0.024414-0.609375,0.045898-0.913086c0.027344-0.397461,0.118164-0.772461,0.272461-1.125977
			c0.15332-0.353516,0.357422-0.671875,0.611328-0.954102c0.255859-0.28125,0.555664-0.504883,0.901367-0.667969
			c0.34668-0.164062,0.724609-0.249023,1.136719-0.255859c0.259766-0.004883,0.487305,0.051758,0.68457,0.170898
			s0.366196,0.272461,0.504883,0.458008c0.140625,0.185547,0.240234,0.395508,0.300781,0.628906
			c0.05957,0.232422,0.082031,0.466797,0.06543,0.700195c-0.015625,0.222656-0.147461,0.439453-0.397461,0.650391
			c-0.249023,0.211914-0.541992,0.394531-0.875,0.547852c-0.333984,0.15332-0.65918,0.273438-0.976562,0.363281
			c-0.318359,0.089844-0.558594,0.129883-0.722656,0.118164c-0.276367-0.066406-0.496094-0.117188-0.658218-0.152344
			c-0.163071-0.022461-0.286118-0.02832-0.369125-0.016602s-0.134766,0.038086-0.155273,0.078125
			c-0.020508,0.038086-0.032227,0.087891-0.037109,0.146484c-0.012695,0.1875,0.012695,0.329102,0.076172,0.427734
			c0.064453,0.098633,0.15332,0.175781,0.265625,0.230469c0.114258,0.053711,0.244141,0.086914,0.389648,0.09668
			c0.146484,0.010742,0.290039,0.020508,0.429688,0.030273c0.374023,0.026367,0.782227-0.006836,1.223633-0.099609
			c0.44043-0.092773,0.856445-0.239258,1.246094-0.442383c0.389648-0.201172,0.719727-0.463867,0.988281-0.786133
			c0.269531-0.321289,0.418945-0.693359,0.448242-1.114258c0.024414-0.350586,0.011719-0.679688-0.037109-0.988281
			c-0.05957-0.322266-0.171875-0.608398-0.336914-0.860352C165.405273,21.353878,165.18457,21.136105,164.910156,20.952511z"/>
		<path style="fill:#010101;" d="M175.092773,19.959347c0.105469,0.436523,0.206055,0.898438,0.300781,1.386719
			c0.094727,0.489258,0.166992,0.984375,0.212891,1.486328c0.047852,0.50293,0.032227,0.986328-0.047852,1.451172
			c-0.344727-0.271484-0.670898-0.519531-0.978516-0.74707c-0.306641-0.226562-0.604492-0.426758-0.891602-0.598633
			c-0.288086-0.173828-0.568359-0.310547-0.844727-0.411133c-0.274414-0.101562-0.551758-0.162109-0.833008-0.181641
			c-0.537109-0.037109-0.999023,0.0625-1.385742,0.299805s-0.714844,0.551758-0.982422,0.944336
			s-0.473633,0.825195-0.618164,1.296875s-0.231445,0.923828-0.261719,1.356445
			c-0.023438,0.338867,0.004883,0.740234,0.083008,1.204102c0.080078,0.463867,0.219727,0.908203,0.418945,1.333008
			s0.456055,0.794922,0.768555,1.110352s0.691406,0.488281,1.135742,0.519531
			c0.397461,0.027344,0.795898-0.009766,1.197266-0.111328c0.400391-0.100586,0.786133-0.24707,1.157227-0.438477
			c0.37207-0.192383,0.717773-0.419922,1.035156-0.685547c0.317383-0.266602,0.598633-0.542969,0.841797-0.832031
			c0.000977-0.011719,0.022461-0.018555,0.063477-0.021484s0.074219-0.003906,0.097656-0.001953
			c0.092773,0.005859,0.166016,0.052734,0.21875,0.137695c0.052734,0.085938,0.098633,0.192383,0.136719,0.318359
			c0.038086,0.125,0.072266,0.263672,0.102539,0.413086c0.03125,0.147461,0.066406,0.283203,0.104492,0.40332
			c0.039062,0.119141,0.09668,0.226562,0.171875,0.320312c0.075195,0.092773,0.171875,0.143555,0.289062,0.152344
			c0.139648,0.009766,0.279297-0.003906,0.416992-0.041992c0.136719-0.037109,0.212891-0.150391,0.225586-0.336914
			c-0.071289-0.157227-0.114258-0.421875-0.129883-0.792969c-0.014648-0.371094-0.02832-0.818359-0.039062-1.341797
			s-0.014648-1.095703-0.012695-1.71875c0.001953-0.62207-0.008789-1.263672-0.033203-1.922852
			s-0.067383-1.311523-0.128906-1.956055c-0.060547-0.644531-0.15332-1.25293-0.27832-1.826172
			c-0.124023-0.571289-0.286133-1.079102-0.484375-1.521484c-0.198242-0.443359-0.447266-0.791992-0.746094-1.047852
			c-0.238281,0.041992-0.387695,0.172852-0.450195,0.391602s-0.076172,0.5-0.041016,0.842773
			S174.989258,19.5238,175.092773,19.959347z M175.397461,25.840206c-0.006836,0.105469-0.011719,0.174805-0.014648,0.209961
			c-0.025391,0.374023-0.168945,0.754883-0.431641,1.141602c-0.260742,0.386719-0.584961,0.738281-0.970703,1.051758
			c-0.386719,0.313477-0.797852,0.564453-1.233398,0.751953c-0.436523,0.186523-0.84082,0.266602-1.214844,0.241211
			c-0.303711-0.021484-0.545898-0.087891-0.726562-0.201172c-0.179688-0.112305-0.330078-0.271484-0.451172-0.480469
			c-0.120117-0.207031-0.21582-0.473633-0.288086-0.794922c-0.071289-0.322266-0.150391-0.697266-0.238281-1.126953
			c0.011719-0.339844,0.077148-0.693359,0.197266-1.060547c0.118164-0.367188,0.289062-0.697266,0.508789-0.987305
			s0.488281-0.518555,0.805664-0.683594c0.316406-0.166992,0.678711-0.231445,1.087891-0.197266s0.864258,0.200195,1.366211,0.5
			c0.501953,0.298828,1.041992,0.774414,1.618164,1.424805C175.410156,25.664425,175.405273,25.734737,175.397461,25.840206z"/>
		<path style="fill:#010101;" d="M186.231445,28.170284c-0.177734-0.311523-0.429688-0.568359-0.757812-0.766602
			c-0.326172-0.199219-0.697266-0.351562-1.113281-0.456055c-0.416016-0.105469-0.84668-0.194336-1.294922-0.266602
			c-0.446289-0.072266-0.880859-0.146484-1.304688-0.222656s-0.794922-0.178711-1.116211-0.306641
			c-0.319336-0.12793-0.575195-0.294922-0.766602-0.50293c-0.190445-0.206055-0.274414-0.486328-0.25-0.835938
			c-0.009766-0.200195,0.076172-0.371094,0.255859-0.511719c0.179688-0.139648,0.411133-0.24707,0.692383-0.322266
			c0.280273-0.073242,0.589844-0.113281,0.924805-0.120117c0.334961-0.005859,0.646484,0.027344,0.93457,0.100586
			c0.289062,0.073242,0.540039,0.180664,0.753906,0.325195c0.212891,0.144531,0.334961,0.329102,0.366211,0.554688
			c-0.143555,0.212891-0.224609,0.392578-0.240234,0.538086s0.00293,0.258789,0.055664,0.338867
			c0.053711,0.079102,0.131836,0.125977,0.237305,0.139648c0.104492,0.012695,0.209961-0.015625,0.313477-0.084961
			c0.105469-0.067383,0.192383-0.176758,0.260742-0.325195c0.069336-0.147461,0.100586-0.338867,0.09375-0.574219
			c0.015625-0.398438-0.098633-0.741211-0.342773-1.02832c-0.245117-0.287109-0.558594-0.505859-0.941406-0.655273
			c-0.383789-0.150391-0.80957-0.239258-1.277344-0.265625c-0.466797-0.026367-0.913086,0.012695-1.337891,0.119141
			c-0.423828,0.104492-0.793945,0.273438-1.110352,0.503906c-0.31543,0.230469-0.521484,0.530273-0.617188,0.899414
			c-0.023438,0.515625,0.051758,0.944336,0.227539,1.285156s0.421875,0.616211,0.735352,0.826172
			c0.314453,0.208984,0.675781,0.373047,1.084961,0.489258c0.40918,0.117188,0.828125,0.212891,1.257812,0.290039
			c0.428711,0.077148,0.84668,0.149414,1.25293,0.219727c0.40625,0.069336,0.769531,0.167969,1.089844,0.294922
			c0.319336,0.128906,0.570312,0.295898,0.749023,0.501953c0.179688,0.207031,0.251953,0.478516,0.216797,0.816406
			c-0.024414,0.350586-0.15332,0.603516-0.387695,0.756836c-0.234375,0.155273-0.510742,0.25293-0.831055,0.295898
			c-0.320312,0.041016-0.655273,0.047852-1.005859,0.017578c-0.349609-0.030273-0.648438-0.053711-0.893555-0.071289
			c-0.31543-0.021484-0.573242-0.045898-0.770508-0.071289c-0.198242-0.025391-0.371094-0.06543-0.520508-0.123047
			c-0.147461-0.057617-0.310547-0.133789-0.485352-0.228516c-0.175781-0.094727-0.410156-0.21582-0.706055-0.366211
			c-0.101562-0.053711-0.197266-0.119141-0.286133-0.196289c-0.088867-0.076172-0.173828-0.155273-0.255859-0.237305
			c-0.083008-0.082031-0.174805-0.15332-0.277344-0.213867c-0.100586-0.05957-0.204102-0.092773-0.30957-0.099609
			c-0.09375-0.006836-0.178711-0.003906-0.255859,0.007812s-0.165039,0.049805-0.263672,0.114258
			c0.125977,0.383789,0.303711,0.708008,0.532227,0.970703c0.227539,0.262695,0.492188,0.483398,0.791016,0.662109
			c0.297852,0.179688,0.625977,0.320312,0.983398,0.420898c0.357422,0.101562,0.712891,0.181641,1.067383,0.242188
			c0.353516,0.05957,0.703125,0.104492,1.046875,0.134766c0.344727,0.029297,0.669922,0.054688,0.973633,0.076172
			s0.62793,0.00293,0.972656-0.055664s0.666992-0.165039,0.964844-0.321289c0.298828-0.154297,0.550781-0.357422,0.755859-0.607422
			c0.206055-0.250977,0.321289-0.556641,0.34668-0.918945C186.482422,28.877316,186.40918,28.481808,186.231445,28.170284z"/>
		<path style="fill:#010101;" d="M25,73v3c0,1.099976,0.899963,2,2,2h28c1.099976,0,2-0.900024,2-2v-3h-4v2h-3v-2H32v2h-3v-2H25z"/>
		<path style="fill:#010101;" d="M57,58c0-1.100037-0.900024-2-2-2h-8v-3c0-1.100037-0.900024-2-2-2h-8c-1.100037,0-2,0.899963-2,2
			v3h-8c-1.100037,0-2,0.899963-2,2v13h32V58z M45,56h-8v-3h8V56z"/>
		<path style="fill:#010101;" d="M178.025635,82H138.12561c-1,0-1.899963,0.700012-2.099976,1.700012
			C135.825623,85,136.825623,86,138.025635,86h18c0,0.899963,0.399963,1.700012,1,2.200012V92c0,1.099976-0.900024,2-2,2
			c0,0-31.5-3.299988-49.800049-3.900024c-0.699951,0-1.299988-0.399963-1.699951-1c-0.700012-1.200012-2-2.099976-3.5-2.099976
			s-2.800049,0.799988-3.5,2.099976c-0.300049,0.600037-1,1-1.700012,1C76.425598,90.700012,45.025635,94,45.025635,94
			c-1.100037,0-2-0.900024-2-2v-3.799988c0.599976-0.5,1-1.300049,1-2.200012h17.899963c1,0,1.900024-0.700012,2.100037-1.700012
			C64.225586,83,63.225586,82,62.025635,82H22.12561c-1,0-1.900024,0.700012-2.099976,1.700012
			C19.825623,85,20.825623,86,22.025635,86h16c0,0.899963,0.399963,1.700012,1,2.200012V92c0,3.299988,2.699951,6,6,6l45.799988-2
			c0.799988,0,1.5,0,2.299988,0.200012l2.835266,0.698547L92.825623,99.25c-0.5,0.399963-0.799988,1-0.799988,1.599976v4
			c0,1.700012-1.300049,3-3,3H85.62561c-2.099976,0.200012-3.599976,2.099976-3.599976,4.200012v0.799988c0,0.600037,0.399963,1,1,1
			h34c0.599976,0,1-0.399963,1-1v-0.799988c0-2.099976-1.5-4-3.600037-4.200012h-3.399963c-1.700012,0-3-1.299988-3-3v-4
			c0-0.599976-0.300049-1.200012-0.800049-1.599976l-3.135254-2.35144l2.835266-0.698547
			C107.62561,96,108.425598,95.899963,109.225647,96l45.799988,2c3.299988,0,6-2.700012,6-6v-3.799988
			c0.599976-0.5,1-1.300049,1-2.200012h15.899963c1,0,1.900024-0.700012,2.100037-1.700012
			C180.225586,83.099976,179.225586,82,178.025635,82z"/>
		<path style="fill:#010101;" d="M164.425598,57.75c0.599976,0,1.200012-0.5,1.200012-1.200012
			c0-0.299988,0.399963-0.299988,0.5-0.299988c0.099976,0,0.200012,0.099976,0.299988,0.099976
			c0.100037,0,0.100037,0,0.100037,0.200012c0,0.599976,0.5,1.200012,1.199951,1.200012
			c0.600037,0,1.200012-0.600037,1.299988-1.200012c0-0.799988-0.399963-1.599976-1-2.099976
			c-0.5-0.5-1.199951-0.700012-1.899963-0.700012c-1.599976,0-2.900024,1.200012-2.900024,2.799988
			C163.225586,57.149963,163.725586,57.75,164.425598,57.75z"/>
		<path style="fill:#010101;" d="M149.62561,57.75c0.599976,0,1.200012-0.5,1.200012-1.200012
			c0-0.299988,0.399963-0.299988,0.5-0.299988c0.099976,0,0.199951,0.099976,0.299988,0.099976
			c0.099976,0,0.099976,0,0.099976,0.200012c0,0.599976,0.5,1.200012,1.200012,1.200012s1.200012-0.600037,1.299988-1.200012
			c0-0.799988-0.399963-1.599976-1-2.099976c-0.5-0.5-1.200012-0.700012-1.899963-0.700012
			c-1.600037,0-2.900024,1.200012-2.900024,2.799988C148.425598,57.149963,148.925598,57.75,149.62561,57.75z"/>
		<path style="fill:#010101;" d="M159.025635,65.349976c2,0,4.099976-1.400024,3.899963-3.700012
			c0-0.599976-0.5-1.200012-1.200012-1.200012c-0.599976,0-1.199951,0.5-1.199951,1.200012c0,1-1,1.299988-1.600037,1.299988
			c-0.400024,0-0.799988-0.199951-1.099976-0.399963s-0.400024-0.600037-0.400024-1c0-0.600037-0.5-1.200012-1.200012-1.200012
			c-0.599976,0-1.199951,0.5-1.199951,1.200012c0,1.200012,0.5,2.200012,1.299988,2.899963
			C157.025635,65.049988,158.025635,65.349976,159.025635,65.349976z"/>
		<path style="fill:#010101;" d="M159,41c-10.493408,0-19,8.506531-19,19c0,10.493408,8.506592,19,19,19s19-8.506592,19-19
			C178,49.506531,169.493408,41,159,41z M159,76c-8.822449,0-16-7.177551-16-16s7.177551-16,16-16s16,7.177551,16,16
			S167.822449,76,159,76z"/>
	</g>
</g>
<g id="Layer_2">
</g>
</svg>
