<?xml version="1.0" encoding="utf-8"?>
<!-- Generator: Adobe Illustrator 19.2.0, SVG Export Plug-In . SVG Version: 6.00 Build 0)  -->
<svg version="1.1" xmlns="http://www.w3.org/2000/svg" xmlns:xlink="http://www.w3.org/1999/xlink" x="0px" y="0px"
	 viewBox="0 0 412 314" style="enable-background:new 0 0 412 314;" xml:space="preserve">
<g id="Layer_1">
	<path style="fill:#655700;" d="M2,291V11c0-2.209139,1.790861-4,4-4h400c2.209137,0,4,1.790861,4,4v280c0,2.209137-1.790863,4-4,4
		H6C3.790861,295,2,293.209137,2,291z"/>
	<rect x="6" y="11" style="fill:#FAC1E6;" width="400" height="280"/>
	<rect x="29" y="105.349609" style="fill:none;" width="178.429688" height="108.306641"/>
	<text transform="matrix(1 0 0 1 29 123.999512)"><tspan x="0" y="0" style="font-family:'Aspira-Medium'; font-size:22px;">It’s the experi</tspan><tspan x="133.047852" y="0" style="font-family:'Aspira-Medium'; font-size:22px;">-</tspan><tspan x="0" y="28" style="font-family:'Aspira-Medium'; font-size:22px;">ence that makes </tspan><tspan x="0" y="56" style="font-family:'Aspira-Medium'; font-size:22px;">the product, not </tspan><tspan x="0" y="84" style="font-family:'Aspira-Medium'; font-size:22px;">the features.</tspan></text>
	<text transform="matrix(1 0 0 1 29 246)"><tspan x="0" y="0" style="font-family:'Aspira-Medium'; font-size:13px;">Putting experience first</tspan><tspan x="0" y="18" style="font-family:'Aspira-Medium'; font-size:13px;">from the MVP on up.</tspan></text>
	<path style="fill:#1A1600;" d="M408,0H4C1.790861,0,0,1.790861,0,4v7c0,0.552285,0.447715,1,1,1h410c0.552277,0,1-0.447715,1-1V4
		C412,1.790861,410.209137,0,408,0z"/>
	<rect x="2" y="12" style="opacity:0.2;" width="408" height="2"/>
	<line style="fill:none;stroke:#655700;stroke-width:2;stroke-miterlimit:10;" x1="207" y1="303" x2="207" y2="295"/>
	<g style="opacity:0.8;">
		<path d="M207,304c2.205627,0,4,1.794434,4,4s-1.794373,4-4,4s-4-1.794434-4-4S204.794373,304,207,304 M207,302
			c-3.308594,0-6,2.691406-6,6s2.691406,6,6,6s6-2.691406,6-6S210.308594,302,207,302L207,302z"/>
	</g>
	<rect x="206" y="295" style="opacity:0.5;" width="2" height="2"/>
	<g style="opacity:0.8;">
		<g>
			<g>
				<path d="M104.466003,76.620247c-0.077744,0-0.129578,0.051819-0.155487,0.103668
					c-0.596046,1.477158-1.788147,3.058006-2.798836,3.058006c-0.388725,0-0.570137-0.181396-0.596039-0.621971
					c0-0.67379,0.440559-1.47715,0.932938-2.332367c0.570137-1.010696,1.243919-2.17688,1.218018-3.343063
					c-0.025909-0.829269-0.492401-1.710396-1.347595-1.995453h-0.025909c-1.969543-0.596062-3.679955,0.881119-4.897972,2.202789
					c-0.025909,0.025909-0.077744,0.051819-0.103668,0.051819c-0.025909,0-0.051834,0-0.077744-0.025909
					c-0.077736-0.051819-0.025909-0.155487,0-0.233246c0.518303-1.528999,1.969551-4.820213,3.783607-7.126671
					c0.259155-0.647881-1.425331-0.725632-1.736313-0.647881c-1.08844,0.285065-1.73632,1.503098-2.228699,2.410126
					c-1.684486,3.291214-2.721092,6.867523-3.135735,10.521553c-0.051826,0.492393-0.103661,1.010696-0.103661,1.528999
					c0.025909,1.50309,1.036606,1.580818,1.347588,1.580818c0.310989,0,0.570137-0.129578,0.596046-0.155487
					c0.051834-0.025909,0.077744-0.077759,0.077744-0.12957c0-3.49855,3.083908-7.748642,5.02755-7.774551
					c0.233238,0,0.388725,0.077759,0.388725,0.440544c0,0.544212-0.414635,1.321671-0.855194,2.15097
					c-0.596046,1.088425-1.269852,2.332367-1.243927,3.49855c0.025909,1.399422,0.881119,2.17688,2.358276,2.15097
					c2.410103-0.051819,4.457405-2.721092,4.43148-4.32782C105.269363,77.060829,104.958382,76.672096,104.466003,76.620247z"/>
				<path d="M34.287731,83.384132c-3.265312,0.051819-5.234865-1.50309-5.286692-4.146423
					c-0.051834-2.539703,1.839979-4.431488,4.48332-4.457397c1.26984-0.025909,2.021381,0.570122,2.047298,1.580818
					c0,0.362816-0.155495,0.621971-0.155495,0.647881c-0.025917,0.051819-0.077744,0.077759-0.129574,0.077759l0,0
					c-0.051834,0-0.103661-0.025909-0.129578-0.051819c-0.051834-0.051819-0.414642-0.362816-1.295757-0.336914
					c-1.528996,0.025909-2.461941,0.932945-2.436026,2.384186c0.025917,1.425331,1.166182,2.280548,3.083902,2.228699
					c2.436024-0.051819,4.250088-1.554909,4.198261-3.49855c-0.025917-1.684486-1.295757-2.332359-2.643349-3.032059
					c-1.373501-0.699699-2.928413-1.50309-2.980244-3.602211c-0.051834-2.332367,2.047295-4.068672,4.949799-4.094612
					c2.53968-0.051819,4.353745,1.218002,4.379658,3.083908c0.025917,1.891823-1.373497,2.04731-1.788143,2.04731
					c-0.129578,0-0.259151,0-0.414642-0.025909c-0.051834,0-0.103661-0.025909-0.129578-0.077759
					c-0.025917-0.051819-0.025917-0.103668,0-0.155487c0,0,0.181408-0.388725,0.181408-1.036606
					c-0.025917-1.140274-0.932945-1.839973-2.35828-1.814064c-1.503075,0.025909-2.410107,0.751549-2.410107,1.891823
					c0.025917,1.192093,1.062523,1.736305,2.280529,2.358276c1.477169,0.751541,3.317139,1.684486,3.343056,4.224182
					C41.181168,80.792618,38.226841,83.306374,34.287731,83.384132z"/>
				<path d="M58.544327,79.470917c-0.907028,1.166183-2.617432,2.15097-3.939106,2.17688
					c-1.554913,0.025909-2.436024-0.80336-2.461941-2.306458c-0.025917-1.036606,0.388725-2.021393,0.829288-3.057999
					c0.492386-1.166183,0.984772-2.384186,0.984772-3.861366c0-0.077759,0.051834-0.129578,0.129578-0.155487
					c0,0,0.440559-0.103661,0.751537-0.12957c0.881115-0.025909,1.425335,0.518303,1.451248,1.425331
					c0.025917,1.036606-0.466469,2.15097-0.958862,3.213486c-0.388729,0.881126-0.777454,1.736305-0.751537,2.358276
					c0,0.414635,0.155491,0.570122,0.596043,0.570122c1.917721-0.025909,4.405579-4.120522,4.535156-7.411736
					c0-0.077759,0.051834-0.12957,0.103657-0.155479c0.051834-0.025909,0.285069-0.103668,0.596046-0.103668
					c0.932949-0.025909,1.503078,0.518303,1.503078,1.451241c0.025917,1.917732-1.658569,7.100761-2.12505,8.733398
					c-0.388725,1.295761-0.803371,2.487846-1.839977,3.550362c-0.984772,1.010704-2.410107,1.554916-3.965015,1.580826
					c-1.73632,0.025902-3.006161-0.881126-3.032078-2.202789c-0.025917-0.907036,0.440559-1.710396,1.295757-2.280548
					c0.54422-0.362823,1.26984-0.544212,2.073215-0.570122c0.440559,0,0.907028,0.051819,1.373497,0.155479
					c0.362812,0.077759,1.010693,0.492401,0.49239,0.881126c-0.155495,0.103668-0.362812,0.155487-0.54422,0.155487
					c-0.777458,0.051811-2.30645,0.285057-2.30645,1.321663c0,0.388725,0.259151,0.67379,0.958866,0.67379
					c1.451248-0.025909,2.565598-1.036606,3.135735-2.306458C57.94828,81.906952,58.466587,79.548676,58.544327,79.470917z"/>
				<path d="M78.26577,82.295677c-2.280533,0.051819-3.602203-1.373512-3.654037-3.861366
					c-0.051834-3.239395,2.150955-6.893425,5.416267-6.945274c1.632652-0.025909,2.669258,0.855209,2.695175,2.332367
					c0.025917,1.140266-0.492386,3.913177-5.571762,5.338516c-0.051834,0-0.077744,0.051819-0.103661,0.077759
					c-0.025917,0.025909-0.025917,0.077759-0.025917,0.12957c0.181412,0.647881,0.673798,0.932945,1.477173,0.932945
					c2.332359-0.051819,4.379662-2.202789,5.027534-3.239395c0.025917-0.051819,0.077744-0.077759,0.129578-0.077759
					c0.362808,0.051819,0.725624,0.336906,0.725624,0.932938C84.433578,79.522766,81.582909,82.243858,78.26577,82.295677z
					 M79.717018,73.48452c-1.21801,0.025909-2.487854,1.710396-2.772926,3.705879c0,0.051819,0.025917,0.103668,0.051834,0.155487
					c0.025917,0.025909,0.077744,0.025909,0.103661,0.025909s0.025917,0,0.051834,0
					c2.047295-0.751549,3.317139-1.969543,3.291229-3.135727C80.442642,73.691856,80.209404,73.458611,79.717018,73.48452z"/>
				<path d="M106.51329,81.777374c-0.077744,0-0.129578,0-0.207314,0c-0.388733-0.051819-0.725624-0.129578-0.984779-0.440544
					c-0.233238-0.259155-0.362816-0.570122-0.362816-0.932938c0-0.881126,0.751549-1.658577,1.580818-1.684486
					c0.777458-0.025909,1.295761,0.466484,1.347595,1.269844c0.025909,0.544212-0.129578,1.036613-0.440567,1.37352
					C107.213005,81.621887,106.876114,81.777374,106.51329,81.777374z M107.394417,77.760521
					c-0.621971,0-1.373505-0.285057-1.399429-1.839966c-0.051834-2.280548,0.855202-6.660187,2.021378-8.68158
					c0.492401-0.855217,1.08844-1.036606,1.503082-1.062515c0.310982,0,0.699707,0.12957,0.932938,0.414635
					c0.259148,0.336906,0.103668,0.67379,0,0.932938c-0.025909,0.051819-0.051834,0.077759-0.051834,0.129578
					c-0.414635,0.958847-0.751549,1.839966-1.062515,2.669273c-0.621971,1.762245-1.347595,4.820213-1.710396,6.789764
					c-0.025909,0.103661-0.077744,0.466484-0.077744,0.466484C107.549896,77.70871,107.472153,77.760521,107.394417,77.760521z"/>
				<path d="M47.737701,81.284981c-0.570137,0.647881-1.76223,1.580818-3.291229,1.606728
					c-1.839977,0.025909-3.083904-1.269852-3.109821-3.343063c-0.025917-1.192093,0.259151-2.410126,0.803371-3.472641
					c0.621964-1.243935,1.632652-2.254601,2.980244-3.057999c0.388729-0.233246,1.73632-0.958847,3.109821-0.984787
					c0.673798,0,1.26984,0.155479,1.710403,0.492393c1.114349,0.855209,0.881111,2.073212,0.518303,3.265305
					c-0.181412,0.647881-0.362812,1.321663-0.54422,1.969543c-0.285069,1.010696-0.932949,3.161636,0.829288,3.135727
					c1.943638-0.025909,1.865894-2.695183,2.410107-4.146423c0.025917-0.051819,0.181408,0.751549,0.259151,0.751549
					c0.207317,0.025902,0.803371,0.12957,0.829288,1.010696c0.025917,1.451241-1.81406,4.276001-4.379662,4.32782
					C48.489246,82.865829,47.919109,81.803284,47.737701,81.284981z M48.204178,74.210159
					c-0.596046-0.336906-1.943638,0.518303-2.35828,0.829269c-0.699715,0.544212-1.243927,1.269852-1.658569,2.04731
					c-0.362812,0.751541-0.570137,1.580818-0.54422,2.410118c0.025917,1.036606,0.388725,1.114365,0.777454,1.114365
					c1.08844-0.025909,2.254623-0.984787,2.798836-1.917725c0.414642-0.725639,0.72562-1.503098,0.984772-2.306458
					C48.333755,75.920555,48.826141,74.521126,48.204178,74.210159z"/>
				<path d="M75.441017,78.667557c-0.492386,1.036606-1.76223,1.658577-2.721092,1.658577
					c0.155495-0.725639,0.414642-1.529007,0.570137-2.254608c0.336891-1.580818,0.777458-3.135727,1.295761-4.664734
					c0.570137-1.788147,1.347588-3.524452,2.332359-5.13121c0.103661-0.181396,0.207321-0.336914,0.336899-0.518303
					c0.207314-0.67379-1.477165-0.621971-1.788147-0.518303c-0.725624,0.233238-1.192101,0.932938-1.528992,1.580818
					c-0.596046,1.166183-0.932945,2.565605-1.347595,3.809517c-0.621956,1.865875-1.917717,4.716545-4.794304,4.768394
					c-3.109818,0.051819,0.958862-4.794304,0.907036-8.00779c-0.025917-1.606728-1.76223-2.695183-3.109825-1.218002
					c-0.259148,0.310966-0.051834,0.414635,0.155495,0.388725c0.777458-0.103668,0.596046,0.855217,0.54422,1.114365
					c-0.440559,2.643333-4.250088,7.359917-0.932945,9.692284c1.399414,0.984787,5.027534,0.051811,5.960487-1.34758
					c-0.129578,0.777458-0.362816,1.580818-0.54422,2.358276c-5.442184,0.103668-7.852295,1.814056-7.826385,4.405579
					c0.025917,1.710388,1.73632,2.410118,3.109818,2.384178c2.332367-0.051819,4.794312-1.269852,5.753174-3.472633
					c0.259148-0.596062,0.466469-1.218002,0.647881-1.865883c1.917717-0.025909,3.317139-0.984787,3.550377-2.073212
					L75.441017,78.667557z M66.137466,85.327774c-0.621964,0-0.958862-0.233246-0.958862-0.67379
					c-0.025917-1.062515,0.958862-2.436035,5.234863-2.721092C69.921082,83.928345,68.521667,85.275925,66.137466,85.327774z"/>
				<path d="M89.072388,80.559372c-0.570137,0.647881-1.76223,1.580818-3.291229,1.606728
					c-1.839973,0.025909-3.0839-1.269844-3.109818-3.343063c-0.025917-1.192085,0.259148-2.410118,0.803368-3.472633
					c0.621964-1.243942,1.632652-2.254608,2.980247-3.058006c0.388725-0.233238,1.73632-0.958847,3.109818-0.984787
					c0.673798,0,1.269844,0.155487,1.710403,0.492393c1.114349,0.855217,0.881111,2.073212,0.518303,3.265305
					c-0.181412,0.647881-0.362808,1.321671-0.54422,1.969551c-0.285065,1.010696-0.932945,3.161636,0.829292,3.135727
					c1.943642-0.025909,1.865883-2.695183,2.41011-4.146431c0.025909-0.051819,0.181412,0.751549,0.259155,0.751549
					c0.207314,0.025909,0.80336,0.129578,0.829285,1.010696c0.025909,1.451241-1.814056,4.276001-4.379662,4.32782
					C89.823936,82.14019,89.253799,81.077675,89.072388,80.559372z M89.538864,73.48452
					c-0.596046-0.336906-1.943634,0.518303-2.358276,0.829277c-0.699715,0.544212-1.243927,1.269844-1.658569,2.047302
					c-0.362816,0.751549-0.570137,1.580818-0.54422,2.410126c0.025917,1.036606,0.388725,1.114365,0.777451,1.114365
					c1.08844-0.025909,2.254623-0.984795,2.798836-1.917732c0.414642-0.725639,0.725624-1.50309,0.984772-2.306458
					C89.668442,75.194916,90.160828,73.821434,89.538864,73.48452z"/>
			</g>
		</g>
	</g>
	<rect x="6" y="289" style="opacity:0.2;" width="400" height="2"/>
	<g>
		<path d="M318.566742,147.029373c0.947327,0,1.894745-0.789474,1.894745-1.89476c0-0.473663,0.631531-0.473663,0.78949-0.473663
			c0.157837,0,0.315796,0.157852,0.473663,0.157852c0.157928,0,0.157928,0,0.157928,0.315811
			c0,0.947327,0.78949,1.89476,1.894684,1.89476c0.947418,0,1.894745-0.947433,2.052612-1.89476
			c0-1.263138-0.631531-2.526276-1.578949-3.31575c-0.78949-0.789474-1.894684-1.105286-2.999939-1.105286
			c-2.526276,0-4.57901,1.89476-4.57901,4.421036C316.671967,146.08194,317.461456,147.029373,318.566742,147.029373z"/>
		<path d="M295.198334,147.029373c0.947327,0,1.894745-0.789474,1.894745-1.89476c0-0.473663,0.631531-0.473663,0.78949-0.473663
			c0.157837,0,0.315704,0.157852,0.473663,0.157852c0.157837,0,0.157837,0,0.157837,0.315811
			c0,0.947327,0.78949,1.89476,1.894775,1.89476s1.894745-0.947433,2.052612-1.89476c0-1.263138-0.631531-2.526276-1.578949-3.31575
			c-0.78949-0.789474-1.894745-1.105286-2.999939-1.105286c-2.526367,0-4.578979,1.89476-4.578979,4.421036
			C293.303589,146.08194,294.093048,147.029373,295.198334,147.029373z"/>
		<path d="M310.040466,159.029327c3.157898,0,6.473663-2.210556,6.157837-5.842117c0-0.947327-0.789459-1.89476-1.894745-1.89476
			c-0.947327,0-1.894653,0.789474-1.894653,1.89476c0,1.578949-1.578949,2.052612-2.526367,2.052612
			c-0.631622,0-1.263153-0.31572-1.736816-0.631531c-0.473663-0.315796-0.631622-0.947418-0.631622-1.578934
			c0-0.947433-0.789459-1.89476-1.894745-1.89476c-0.947327,0-1.894653,0.789474-1.894653,1.89476
			c0,1.894745,0.789459,3.473694,2.052612,4.578888C306.882568,158.555664,308.461517,159.029327,310.040466,159.029327z"/>
		<path d="M310,120.582001c-16.568542,0-30,13.431366-30,30c0,16.568542,13.431458,30,30,30s30-13.431458,30-30
			C340,134.013367,326.568542,120.582001,310,120.582001z M310,175.845154c-13.930176,0-25.263153-11.332977-25.263153-25.263153
			S296.069824,125.31884,310,125.31884s25.263153,11.332985,25.263153,25.263161S323.930176,175.845154,310,175.845154z"/>
	</g>
	<path d="M282.388672,107c-4.066864,0-5.437592,3.60891-5.437592,3.60891S275.581665,107,271.513489,107
		C267.448853,107,265,110.875336,265,114.069946c0,5.352806,11.95108,13.512054,11.95108,13.512054
		s11.95108-8.156693,11.95108-13.511101C288.902161,110.875336,286.45459,107,282.388672,107z"/>
</g>
<g id="Layer_2">
</g>
</svg>
