<?xml version="1.0" encoding="utf-8"?>
<!-- Generator: Adobe Illustrator 19.2.0, SVG Export Plug-In . SVG Version: 6.00 Build 0)  -->
<svg version="1.1" xmlns="http://www.w3.org/2000/svg" xmlns:xlink="http://www.w3.org/1999/xlink" x="0px" y="0px"
	 viewBox="0 0 160 210" style="enable-background:new 0 0 160 210;" xml:space="preserve">
<g id="Layer_1">
	<path style="fill:#4D2D00;" d="M6,9h148c3.313705,0,6,2.686292,6,6v189c0,3.313705-2.686295,6-6,6H6c-3.313709,0-6-2.686295-6-6V15
		C0,11.686292,2.686291,9,6,9z"/>
	<path style="fill:#804B00;" d="M6,8h148c3.313705,0,6,2.686292,6,6v189c0,3.313705-2.686295,6-6,6H6c-3.313709,0-6-2.686295-6-6V14
		C0,10.686292,2.686291,8,6,8z"/>
	<path style="fill:#734300;" d="M8,202V22c0-0.552284,0.447715-1,1-1h142c0.552292,0,1,0.447716,1,1v180c0,0.552292-0.447708,1-1,1
		H9C8.447715,203,8,202.552292,8,202z"/>
	<path style="fill:#FCFCFC;" d="M8,201V21c0-0.552284,0.447715-1,1-1h142c0.552292,0,1,0.447716,1,1v180c0,0.552292-0.447708,1-1,1
		H9C8.447715,202,8,201.552292,8,201z"/>
	<rect x="35" y="14" style="opacity:0.75;fill:#4D2D00;" width="90" height="1"/>
	<path style="opacity:0.5;fill:#CCCCCC;" d="M8,200V20c0-0.552284,0.447715-1,1-1h142c0.552292,0,1,0.447716,1,1v180
		c0,0.552292-0.447708,1-1,1H9C8.447715,201,8,200.552292,8,200z"/>
	<path style="fill:#FFFFFF;" d="M8,199V19c0-0.552284,0.447715-1,1-1h142c0.552292,0,1,0.447716,1,1v180c0,0.552292-0.447708,1-1,1
		H9C8.447715,200,8,199.552292,8,199z"/>
	<path style="opacity:0.5;fill:#CCCCCC;" d="M8,198V18c0-0.552284,0.447715-1,1-1h142c0.552292,0,1,0.447716,1,1v180
		c0,0.552292-0.447708,1-1,1H9C8.447715,199,8,198.552292,8,198z"/>
	<path style="fill:#FCFCFC;" d="M8,197V17c0-0.552284,0.447715-1,1-1h142c0.552292,0,1,0.447716,1,1v180c0,0.552292-0.447708,1-1,1
		H9C8.447715,198,8,197.552292,8,197z"/>
	<rect x="15" y="23" style="fill:#F2F2F2;" width="130" height="98"/>
	<path style="fill:#A6A6A6;" d="M145,23h-4v1h4V23L145,23z M137,23h-4v1h4V23L137,23z M129,23h-4v1h4V23L129,23z M121,23h-4v1h4V23
		L121,23z M113,23h-4v1h4V23L113,23z M105,23h-4v1h4V23L105,23z M97,23h-4v1h4V23L97,23z M89,23h-4v1h4V23L89,23z M81,23h-4v1h4V23
		L81,23z M73,23h-4v1h4V23L73,23z M65,23h-4v1h4V23L65,23z M57,23h-4v1h4V23L57,23z M49,23h-4v1h4V23L49,23z M41,23h-4v1h4V23L41,23
		z M33,23h-4v1h4V23L33,23z M25,23h-4v1h4V23L25,23z M17,23h-2v1l0,0c0,0.5,0,1,0,1h1v-1h1V23L17,23z M16,29h-1v4h1V29L16,29z
		 M16,37h-1v4h1V37L16,37z M16,45h-1v4h1V45L16,45z M16,53h-1v4h1V53L16,53z M16,61h-1v4h1V61L16,61z M16,69h-1v4h1V69L16,69z
		 M16,77h-1v4h1V77L16,77z M16,85h-1v4h1V85L16,85z M16,93h-1v4h1V93L16,93z M16,101h-1v4h1V101L16,101z M16,109h-1v4h1V109L16,109z
		 M16,117h-1v4h1V117L16,117z M23,120h-4v1h4V120L23,120z M31,120h-4v1h4V120L31,120z M39,120h-4v1h4V120L39,120z M47,120h-4v1h4
		V120L47,120z M55,120h-4v1h4V120L55,120z M63,120h-4v1h4V120L63,120z M71,120h-4v1h4V120L71,120z M79,120h-4v1h4V120L79,120z
		 M87,120h-4v1h4V120L87,120z M95,120h-4v1h4V120L95,120z M103,120h-4v1h4V120L103,120z M111,120h-4v1h4V120L111,120z M119,120h-4v1
		h4V120L119,120z M127,120h-4v1h4V120L127,120z M135,120h-4v1h4V120L135,120z M143,120h-4v1h4V120L143,120z M145,115h-1v4h1V115
		L145,115z M145,107h-1v4h1V107L145,107z M145,99h-1v4h1V99L145,99z M145,91h-1v4h1V91L145,91z M145,83h-1v4h1V83L145,83z M145,75
		h-1v4h1V75L145,75z M145,67h-1v4h1V67L145,67z M145,59h-1v4h1V59L145,59z M145,51h-1v4h1V51L145,51z M145,43h-1v4h1V43L145,43z
		 M145,35h-1v4h1V35L145,35z M145,27h-1v4h1V27L145,27z"/>
	<path style="opacity:0.1;fill:#A6A6A6;" d="M120.062988,16l-1.666504,5H40.603516l-1.666504-5h-7.378601l3.088074,9.265137
		C35.192383,26.900879,36.717285,28,38.441406,28h82.117188c1.724121,0,3.249023-1.099121,3.794922-2.735352L127.441589,16
		H120.062988z"/>
	<path style="fill:#A6A6A6;" d="M124.225128,11H115V7c0-1.656854-1.343147-3-3-3H90.999992C89.895432,4,89,3.104571,89,2.000004V2
		c0-1.104569-0.895432-2-2-2H71c-1.104568,0-2,0.895431-2,2v0.000004C69,3.104571,68.104568,4,67.000008,4H47
		c-1.656853,0-3,1.343146-3,3v4h-9.225159c-1.365089,0-2.32901,1.337369-1.897331,2.632407l3.666691,11.000077
		C36.816425,25.449152,37.580685,26,38.441528,26h82.116943c0.860878,0,1.625175-0.550875,1.897408-1.367579l3.666618-10.999975
		C126.554176,12.337387,125.59024,11,124.225128,11z M79,3c1.104614,0,2,0.895386,2,2c0,1.104553-0.895386,2-2,2
		c-1.104553,0-2-0.895447-2-2C77,3.895386,77.895447,3,79,3z M119.837708,23H39.162292l-3-9h86.675415L119.837708,23z"/>
	<path style="fill:#B3B3B3;" d="M81.221436,7C80.672302,7.609558,79.88501,8,79,8s-1.672302-0.390442-2.221436-1H44v2h32.027466
		C76.860229,9.620117,77.881897,10,79,10s2.139771-0.379883,2.972534-1H115V7H81.221436z"/>
	
		<rect x="74.967743" y="87.064529" style="opacity:0.2;fill:#333333;enable-background:new    ;" width="9.580639" height="5.370971"/>
	<path style="fill:#333333;" d="M80,45.25808c-8.564522,0-15.483871,6.919357-15.483871,15.483871
		c0,4.548386,1.935486,9.629028,5.032257,13.064514C72.064522,76.612915,73.564507,80.629051,74,84.354851
		c0,0.193542,0.048393,0.387085,0.145157,0.58065h-0.967743c-0.532257,0-0.967743,0.435478-0.967743,0.967743
		c0,0.532257,0.435486,0.967735,0.967743,0.967735h0.967743v1.935486c-0.387093,0-0.725807,0.241936-0.870964,0.58065
		c-0.048386,0.096779-0.096779,0.241936-0.096779,0.387093s0.048393,0.241936,0.096779,0.387093
		c0.145157,0.338715,0.483871,0.58065,0.870964,0.58065v0.967743c0,1.596764,1.306458,2.903221,2.903229,2.903221h0.193542
		c0.387093,1.1129,1.451614,1.935486,2.709679,1.935486c1.258072,0,2.322578-0.822586,2.709686-1.935486h0.193542
		c1.596771,0,2.903229-1.306458,2.903229-2.903221v-0.967743c0.387085,0,0.725807-0.241936,0.870956-0.58065
		c0.048393-0.096779,0.096786-0.241936,0.096786-0.387093s-0.048393-0.241936-0.096786-0.387093
		c-0.145149-0.338715-0.483871-0.58065-0.870956-0.58065v-1.935486h0.967743c0.532257,0,0.967735-0.435478,0.967735-0.967735
		c0-0.532265-0.435478-0.967743-0.967735-0.967743h-0.967743c0.048386-0.19355,0.096779-0.387093,0.145149-0.58065
		c0.483871-3.725815,1.935486-7.741936,4.451622-10.548386c3.096771-3.435486,5.032257-8.564514,5.032257-13.064514
		C95.483871,52.177437,88.564522,45.25808,80,45.25808z M83.870964,91.225822h-7.741928v-0.483871h7.741928V91.225822z
		 M76.129036,88.806465v-0.483871h7.741928v0.483871H76.129036z M89.338707,72.693573
		c-2.709686,2.951614-4.548386,7.30645-5.129036,11.903229c-0.048393,0.483864-0.483871,0.822586-0.967743,0.822586H76.85482
		c-0.483864,0-0.91935-0.338722-0.967735-0.822586c-0.58065-4.596779-2.467751-8.951614-5.129036-11.903229
		c-2.854836-3.145164-4.693558-7.8871-4.693558-12.096779c0-7.645161,6.290321-13.887093,14.032257-13.887093
		s14.032257,6.241932,14.032257,13.887093C94.032257,64.806465,92.193558,69.548401,89.338707,72.693573z"/>
	<path style="fill:#333333;" d="M83.774185,68.532272c-0.725807-0.096771-1.451607,0.096779-1.983871,0.532265
		c-0.532265,0.483871-0.870964,1.112907-0.870964,1.838715v0.483864h0.967743v-0.483864
		c0-0.435486,0.19355-0.822586,0.532265-1.112907c0.338715-0.290329,0.774193-0.3871,1.209679-0.338707
		c0.677414,0.096771,1.209671,0.774193,1.209671,1.548386v0.870956c0,0.290329-0.193542,0.483871-0.483871,0.483871h-8.709671
		c-0.290329,0-0.483871-0.193542-0.483871-0.483871v-0.870964c0-0.7742,0.532257-1.403221,1.209671-1.548386
		c0.435486-0.048393,0.870964,0.048386,1.209679,0.338707s0.532265,0.677414,0.532265,1.112907v0.483871h0.967743v-0.483871
		c0-0.725807-0.290329-1.403229-0.870964-1.838715c-0.532265-0.483871-1.258064-0.677414-1.983871-0.532257
		c-1.161293,0.193542-2.032265,1.258064-2.032265,2.467743v0.870964c0,0.822594,0.629028,1.451614,1.451614,1.451614h2.41935
		v9.677422h0.967743v-9.677422h1.935486v9.677422h0.967743v-9.677422h2.41935c0.822586,0,1.451614-0.629021,1.451614-1.451614
		v-0.870964C85.80645,69.790337,84.935493,68.725822,83.774185,68.532272z"/>
	<path style="fill:#333333;" d="M53.870968,62.677433c0-0.532261-0.435482-0.967739-0.967743-0.967739h-1.935482
		C50.435482,61.709694,50,62.145172,50,62.677433s0.435482,0.967743,0.967743,0.967743h1.935482
		C53.435486,63.645176,53.870968,63.209694,53.870968,62.677433z"/>
	<path style="fill:#333333;" d="M59.677418,61.467758c0-0.532261-0.435478-0.967743-0.967739-0.967743h-1.935486
		c-0.532261,0-0.967743,0.435482-0.967743,0.967743s0.435482,0.967739,0.967743,0.967739h1.935486
		C59.24194,62.435497,59.677418,62.000019,59.677418,61.467758z"/>
	<path style="fill:#333333;" d="M103.225807,60.500015h-1.935486c-0.532257,0-0.967743,0.435482-0.967743,0.967743
		s0.435486,0.967739,0.967743,0.967739h1.935486c0.532257,0,0.967743-0.435478,0.967743-0.967739
		S103.758064,60.500015,103.225807,60.500015z"/>
	<path style="fill:#333333;" d="M109.032257,60.741951h-1.935486c-0.532257,0-0.967735,0.435482-0.967735,0.967743
		s0.435478,0.967739,0.967735,0.967739h1.935486c0.532265,0,0.967743-0.435478,0.967743-0.967739
		S109.564522,60.741951,109.032257,60.741951z"/>
	<path style="fill:#333333;" d="M54.25806,73.080658l-1.74194,0.822586c-0.483871,0.241936-0.677418,0.822586-0.483871,1.306458
		c0.145157,0.338715,0.532261,0.58065,0.87096,0.58065c0.145157,0,0.290325-0.048386,0.387093-0.096779l1.74194-0.822586
		c0.483868-0.241936,0.677414-0.822586,0.483868-1.306458C55.322582,73.080658,54.741928,72.887115,54.25806,73.080658z"/>
	<path style="fill:#333333;" d="M59.532265,70.661308l-1.74194,0.822578c-0.483871,0.241936-0.677418,0.822578-0.483871,1.30645
		c0.145157,0.338715,0.532261,0.58065,0.870964,0.58065c0.145153,0,0.290325-0.048393,0.387089-0.096779l1.74194-0.822586
		c0.483871-0.241936,0.677418-0.822578,0.483871-1.30645C60.548382,70.612915,60.016136,70.419373,59.532265,70.661308z"/>
	<path style="fill:#333333;" d="M100.080643,51.45163c0.145157,0,0.290329-0.048389,0.387093-0.096771l1.741936-0.822582
		c0.483871-0.241936,0.677422-0.822578,0.483871-1.30645c-0.241936-0.483871-0.822586-0.677414-1.306458-0.483871
		l-1.741936,0.822582c-0.483871,0.241936-0.677414,0.822578-0.483871,1.30645
		C99.354836,51.209694,99.741928,51.45163,100.080643,51.45163z"/>
	<path style="fill:#333333;" d="M105.354836,48.983883c0.145157,0,0.290329-0.048389,0.387093-0.096771l1.741936-0.822578
		c0.483871-0.241936,0.677414-0.822578,0.483871-1.30645c-0.241936-0.483871-0.822586-0.677418-1.306458-0.483871
		l-1.741936,0.822578c-0.483871,0.241936-0.677422,0.822578-0.483871,1.30645
		C104.629028,48.79034,104.967743,48.983883,105.354836,48.983883z"/>
	<path style="fill:#333333;" d="M107.483864,73.903244l-1.741936-0.822586c-0.483871-0.241936-1.064522,0-1.306458,0.483871
		s0,1.064522,0.483871,1.306458l1.741936,0.822586c0.145157,0.048393,0.290329,0.096779,0.387093,0.096779
		c0.387093,0,0.725807-0.193542,0.870964-0.58065C108.209671,74.725815,107.967735,74.14518,107.483864,73.903244z"/>
	<path style="fill:#333333;" d="M102.258064,71.483887l-1.741936-0.822578c-0.483871-0.241936-1.064522,0-1.306458,0.483871
		c-0.241936,0.483864,0,1.064522,0.483871,1.306458l1.741936,0.822586c0.145157,0.048386,0.290329,0.096779,0.387093,0.096779
		c0.387093,0,0.725807-0.19355,0.870956-0.58065C102.935478,72.258072,102.741936,71.677437,102.258064,71.483887z"/>
	<path style="fill:#333333;" d="M60.306446,49.564529l-1.74194-0.822582c-0.483871-0.241932-1.064522,0-1.306458,0.483871
		s0,1.064514,0.483871,1.30645l1.74194,0.822582c0.145153,0.048389,0.290325,0.096771,0.387089,0.096771
		c0.387093,0,0.725807-0.193546,0.870964-0.580643C61.032253,50.387115,60.790318,49.806465,60.306446,49.564529z"/>
	<path style="fill:#333333;" d="M55.080647,47.145172l-1.74194-0.822578c-0.483871-0.241936-1.064522,0-1.306458,0.483871
		s0,1.064514,0.483871,1.30645l1.74194,0.822578c0.145153,0.048389,0.290325,0.096775,0.387089,0.096775
		c0.387093,0,0.725807-0.193546,0.87096-0.580647C55.75806,47.919369,55.564518,47.338726,55.080647,47.145172z"/>
	<path style="fill:#333333;" d="M24.158081,164.548828h-1.807617v-11.14209h2.038086l5.176758,8.229004l-0.029297-8.229004h1.792969
		v11.14209h-2.061523l-5.138672-8.162109L24.158081,164.548828z"/>
	<path style="fill:#333333;" d="M37.1073,164.707031c-2.21582,0-4.033203-1.413086-4.033203-4.027832
		c0-2.542969,1.735352-4.124023,3.921875-4.124023c2.27832,0,3.696289,1.706055,3.696289,3.941406
		c0,0.25-0.018555,0.519043-0.038086,0.672852h-5.75293c0.128906,1.27832,1.018555,2.052246,2.321289,2.052246
		c0.77832,0,1.547852-0.278809,2.138672-0.725586l0.822266,1.129395C39.41394,164.302734,38.28894,164.707031,37.1073,164.707031z
		 M38.918823,159.934082c-0.09082-1.023926-0.745117-1.879395-1.926758-1.879395c-1.105469,0-1.904297,0.75-2.067383,1.879395
		H38.918823z"/>
	<path style="fill:#333333;" d="M43.214722,156.713867l1.654297,5.705078l1.663086-5.705078h1.773438l1.691406,5.705078
		l1.759766-5.705078h1.831055l-2.71582,7.834961h-1.788086l-1.691406-5.715332l-1.682617,5.715332H43.91687l-2.676758-7.834961
		H43.214722z"/>
	<path style="fill:#333333;" d="M60.642456,164.548828h-1.860352v-11.14209h4.076172
		c2.479492,0,3.844727,1.547852,3.844727,3.585938c0,2.10498-1.460938,3.671875-3.831055,3.671875h-2.229492V164.548828z
		 M62.617065,159.020996c1.404297,0,2.207031-0.759766,2.207031-2.004395c0-1.259277-0.827148-1.96582-2.207031-1.96582h-1.974609
		v3.970215H62.617065z"/>
	<path style="fill:#333333;" d="M68.147339,156.713867h1.495117l0.158203,1.196777l0.014648,0.004883
		c0.442383-0.932617,1.081055-1.360352,2.124023-1.360352c0.360352,0,0.702148,0.052734,1.033203,0.148926l-0.283203,1.677246
		c-0.283203-0.086426-0.552734-0.129395-0.84082-0.129395c-1.547852,0-1.889648,1.32666-1.889648,2.869141v3.427734h-1.811523
		V156.713867z"/>
	<path style="fill:#333333;" d="M73.378784,160.635742c0-2.432129,1.764648-4.080566,4.066406-4.080566
		c2.288086,0,4.056641,1.624512,4.056641,4.056641c0,2.437012-1.783203,4.095215-4.075195,4.095215
		C75.13855,164.707031,73.378784,163.062988,73.378784,160.635742z M79.665894,160.621582
		c0-1.441895-0.951172-2.460938-2.225586-2.460938c-1.273438,0-2.239258,1.01416-2.239258,2.470215
		c0,1.441895,0.951172,2.485352,2.225586,2.485352C78.690308,163.116211,79.665894,162.072754,79.665894,160.621582z"/>
	<path style="fill:#333333;" d="M88.902222,163.428223c-0.600586,0.851074-1.561523,1.278809-2.619141,1.278809
		c-2.072266,0-3.619141-1.629395-3.619141-4.076172c0-2.22998,1.306641-4.075684,3.619141-4.075684
		c0.960938,0,1.864258,0.331543,2.446289,1.09082v-4.416992l1.821289-0.336426v11.65625h-1.494141L88.902222,163.428223z
		 M88.786987,160.606934c0-1.40332-0.827148-2.446289-2.148438-2.446289c-1.292969,0-2.148438,0.994629-2.148438,2.470215
		c0,1.528809,0.913086,2.485352,2.176758,2.485352C88.089722,163.116211,88.786987,161.904785,88.786987,160.606934z"/>
	<path style="fill:#333333;" d="M99.575073,164.548828H98.07605l-0.144531-1.038574
		c-0.59082,0.845215-1.504883,1.196777-2.508789,1.196777c-1.942383,0-2.898438-1.297852-2.898438-3.244629v-4.748535h1.821289
		v4.662109c0,1.052734,0.529297,1.696777,1.595703,1.696777c1.172852,0,1.8125-0.788086,1.8125-1.975586v-4.383301h1.821289
		V164.548828z"/>
	<path style="fill:#333333;" d="M108.085815,163.750488c-0.793945,0.601074-1.792969,0.956543-2.845703,0.956543
		c-2.047852,0-4.051758-1.345703-4.051758-4.027832c0-2.566895,1.835938-4.124023,4.075195-4.124023
		c0.981445,0,1.995117,0.302734,2.71582,0.850586l-0.763672,1.273926c-0.514648-0.336426-1.177734-0.538574-1.802734-0.538574
		c-1.383789,0-2.40332,1-2.40332,2.485352c0,1.47998,1.004883,2.489746,2.383789,2.489746
		c0.629883,0,1.302734-0.211914,1.817383-0.567383L108.085815,163.750488z"/>
	<path style="fill:#333333;" d="M108.642456,156.713867h1.375v-2.408203l1.811523-0.336426v2.744629h1.913086v1.542969h-1.913086
		v3.133789c0,1.384277,0.639648,1.629395,1.702148,1.84082l-0.216797,1.475586c-1.624023,0-3.296875-0.716309-3.296875-2.77832
		v-3.671875h-1.375V156.713867z"/>
	<path style="fill:#333333;" d="M30.247925,183.952148c-0.84082,0.485352-1.831055,0.754883-2.908203,0.754883
		c-3.258789,0-5.695312-2.456055-5.695312-5.734375c0-3.316406,2.494141-5.724609,5.714844-5.724609
		s5.681641,2.413086,5.681641,5.710938c0,1.551758-0.548828,2.916992-1.466797,3.931641l0.730469,0.796875l-1.321289,1.077148
		L30.247925,183.952148z M31.113159,178.977539c0-2.354492-1.595703-4.061523-3.773438-4.061523
		c-2.181641,0-3.782227,1.707031-3.782227,4.061523c0,2.345703,1.59082,4.066406,3.782227,4.066406
		c0.629883,0,1.211914-0.143555,1.720703-0.40332l-1.864258-2.067383l1.273438-1.095703l1.869141,2.051758
		C30.828979,180.847656,31.113159,179.967773,31.113159,178.977539z"/>
	<path style="fill:#333333;" d="M41.661987,184.548828h-1.5l-0.144531-1.039062
		c-0.59082,0.845703-1.503906,1.197266-2.508789,1.197266c-1.941406,0-2.898438-1.297852-2.898438-3.244141v-4.749023h1.822266
		v4.662109c0,1.052734,0.52832,1.696289,1.595703,1.696289c1.172852,0,1.811523-0.787109,1.811523-1.974609v-4.383789h1.822266
		V184.548828z"/>
	<path style="fill:#333333;" d="M47.307495,184.707031c-2.21582,0-4.032227-1.413086-4.032227-4.027344
		c0-2.542969,1.735352-4.125,3.921875-4.125c2.27832,0,3.696289,1.707031,3.696289,3.941406
		c0,0.25-0.019531,0.519531-0.038086,0.673828H45.10144c0.129883,1.277344,1.018555,2.051758,2.321289,2.051758
		c0.779297,0,1.547852-0.27832,2.139648-0.725586l0.821289,1.128906
		C49.615112,184.302734,48.490112,184.707031,47.307495,184.707031z M49.119995,179.933594
		c-0.091797-1.023438-0.745117-1.878906-1.927734-1.878906c-1.105469,0-1.90332,0.75-2.066406,1.878906H49.119995z"/>
	<path style="fill:#333333;" d="M54.7948,183.22168c0.702148,0,1.398438-0.22168,1.398438-0.870117
		c0-1.552734-4.094727-0.480469-4.094727-3.383789c0-1.65332,1.321289-2.413086,2.916992-2.413086
		c1.057617,0,2.009766,0.336914,2.735352,0.904297l-0.682617,1.134766c-0.59082-0.375-1.331055-0.591797-1.936523-0.591797
		c-0.649414,0-1.254883,0.25-1.254883,0.84082c0,1.538086,4.124023,0.547852,4.124023,3.432617
		c0,1.662109-1.370117,2.431641-3.105469,2.431641c-1.292969,0-2.133789-0.432617-3.081055-1.154297l0.8125-1.095703
		C53.299683,182.918945,53.972534,183.22168,54.7948,183.22168z"/>
	<path style="fill:#333333;" d="M58.765503,176.713867h1.375v-2.408203l1.811523-0.336914v2.745117h1.913086v1.542969h-1.913086
		v3.133789c0,1.384766,0.639648,1.628906,1.702148,1.84082l-0.216797,1.475586c-1.624023,0-3.296875-0.716797-3.296875-2.77832
		v-3.671875h-1.375V176.713867z"/>
	<path style="fill:#333333;" d="M65.021362,174.205078c0-0.625,0.509766-1.134766,1.139648-1.134766
		c0.624023,0,1.133789,0.509766,1.133789,1.134766c0,0.628906-0.509766,1.138672-1.133789,1.138672
		C65.531128,175.34375,65.021362,174.833984,65.021362,174.205078z M65.246948,176.713867h1.817383v7.834961h-1.817383V176.713867z"
		/>
	<path style="fill:#333333;" d="M68.673706,180.635742c0-2.432617,1.764648-4.081055,4.066406-4.081055
		c2.288086,0,4.056641,1.625,4.056641,4.056641c0,2.4375-1.783203,4.095703-4.075195,4.095703
		C70.433472,184.707031,68.673706,183.0625,68.673706,180.635742z M74.960815,180.621094
		c0-1.441406-0.951172-2.460938-2.225586-2.460938c-1.273438,0-2.239258,1.014648-2.239258,2.470703
		c0,1.441406,0.951172,2.485352,2.225586,2.485352C73.985229,183.116211,74.960815,182.072266,74.960815,180.621094z"/>
	<path style="fill:#333333;" d="M83.697144,184.548828v-4.662109c0-1.039062-0.571289-1.707031-1.619141-1.707031
		c-1.149414,0-1.855469,0.816406-1.855469,1.975586v4.393555h-1.827148v-7.834961h1.495117l0.154297,1.067383
		c0.59082-0.817383,1.523438-1.226562,2.576172-1.226562c1.90332,0,2.893555,1.307617,2.893555,3.230469v4.763672H83.697144z"/>
	<path style="fill:#333333;" d="M92.784058,184.548828v-4.662109c0-1.039062-0.571289-1.707031-1.619141-1.707031
		c-1.149414,0-1.855469,0.816406-1.855469,1.975586v4.393555H87.4823v-7.834961h1.495117l0.154297,1.067383
		c0.59082-0.817383,1.523438-1.226562,2.576172-1.226562c1.90332,0,2.893555,1.307617,2.893555,3.230469v4.763672H92.784058z"/>
	<path style="fill:#333333;" d="M103.251831,184.702148c-0.990234,0-1.884766-0.350586-1.956055-1.163086
		c-0.529297,0.816406-1.538086,1.167969-2.509766,1.167969c-1.518555,0-2.791992-0.865234-2.791992-2.417969
		c0-1.52832,1.225586-2.571289,3.40332-2.571289c0.633789,0,1.27832,0.09082,1.749023,0.1875v-0.399414
		c0-1.052734-0.754883-1.451172-1.788086-1.451172c-0.788086,0-1.620117,0.230469-2.244141,0.572266l-0.552734-1.220703
		c0.865234-0.621094,2.061523-0.851562,3.109375-0.851562c2.095703,0,3.268555,0.917969,3.268555,2.753906v2.951172
		c0,0.615234,0.120117,0.914062,0.52832,1.134766L103.251831,184.702148z M99.593628,181.020508
		c-1.27832,0-1.850586,0.432617-1.850586,1.158203c0,0.78418,0.654297,1.086914,1.322266,1.086914
		c0.956055,0,2.081055-0.625,2.081055-1.582031v-0.495117C100.761597,181.107422,100.165894,181.020508,99.593628,181.020508z"/>
	<path style="fill:#333333;" d="M104.884644,174.205078c0-0.625,0.509766-1.134766,1.139648-1.134766
		c0.624023,0,1.133789,0.509766,1.133789,1.134766c0,0.628906-0.509766,1.138672-1.133789,1.138672
		C105.394409,175.34375,104.884644,174.833984,104.884644,174.205078z M105.110229,176.713867h1.817383v7.834961h-1.817383
		V176.713867z"/>
	<path style="fill:#333333;" d="M108.998901,176.713867h1.495117l0.158203,1.196289l0.014648,0.005859
		c0.442383-0.933594,1.081055-1.361328,2.124023-1.361328c0.360352,0,0.702148,0.052734,1.033203,0.149414l-0.283203,1.676758
		c-0.283203-0.085938-0.552734-0.128906-0.84082-0.128906c-1.547852,0-1.889648,1.326172-1.889648,2.869141v3.427734h-1.811523
		V176.713867z"/>
	<path style="fill:#333333;" d="M118.273315,184.707031c-2.21582,0-4.033203-1.413086-4.033203-4.027344
		c0-2.542969,1.735352-4.125,3.921875-4.125c2.27832,0,3.696289,1.707031,3.696289,3.941406
		c0,0.25-0.018555,0.519531-0.038086,0.673828h-5.75293c0.128906,1.277344,1.018555,2.051758,2.321289,2.051758
		c0.77832,0,1.547852-0.27832,2.138672-0.725586l0.822266,1.128906
		C120.579956,184.302734,119.454956,184.707031,118.273315,184.707031z M120.084839,179.933594
		c-0.09082-1.023438-0.745117-1.878906-1.926758-1.878906c-1.105469,0-1.904297,0.75-2.067383,1.878906H120.084839z"/>
	<path style="fill:#828282;" d="M79,4c0.760498,0,1.446899,0.292114,1.975647,0.758484C80.855103,3.769104,80.021851,3,79,3
		c-1.02179,0-1.855103,0.769104-1.975647,1.758484C77.553101,4.292114,78.239502,4,79,4z"/>
	<polygon style="fill:#8C8C8C;" points="113,12 46,12 44,11 115,11 	"/>
	<path style="fill:#333333;" d="M65.922836,139.057678c-0.04628,0-0.077133,0.030853-0.092552,0.061707
		c-0.354813,0.879318-1.064438,1.820343-1.666069,1.820343c-0.2314,0-0.33939-0.107971-0.354813-0.370239
		c0-0.401077,0.262253-0.879303,0.555351-1.388382c0.339386-0.601639,0.740479-1.295837,0.725052-1.990036
		c-0.015419-0.493652-0.293106-1.018158-0.802185-1.187836h-0.015419c-1.172417-0.354828-2.190578,0.524506-2.91563,1.311249
		c-0.015423,0.015427-0.046276,0.030853-0.06171,0.030853c-0.015423,0-0.030853,0-0.046276-0.015427
		c-0.04628-0.030838-0.015423-0.09256,0-0.13884c0.308533-0.910172,1.172417-2.869339,2.252277-4.24231
		c0.154266-0.385666-0.848461-0.431961-1.033585-0.385666c-0.647919,0.169693-1.033581,0.894745-1.326679,1.434677
		c-1.002731,1.959167-1.619793,4.088043-1.866615,6.263184c-0.030853,0.293121-0.06171,0.601654-0.06171,0.910172
		c0.015423,0.89476,0.617065,0.941025,0.802185,0.941025s0.339386-0.077133,0.354809-0.09256
		c0.030857-0.015411,0.04628-0.04628,0.04628-0.077133c0-2.082581,1.835766-4.612549,2.99276-4.627975
		c0.138844,0,0.2314,0.046295,0.2314,0.262253c0,0.323944-0.246822,0.786743-0.509075,1.280411
		c-0.354809,0.647903-0.755909,1.388397-0.740475,2.082581c0.015423,0.833054,0.524506,1.295837,1.403816,1.280426
		c1.434673-0.030853,2.65337-1.619797,2.637943-2.576233C66.401062,139.319946,66.215935,139.088547,65.922836,139.057678z"/>
	<path style="fill:#333333;" d="M24.147642,143.08403c-1.943752,0.030853-3.116173-0.894745-3.147024-2.468246
		c-0.030853-1.51181,1.095289-2.637939,2.668798-2.653366c0.755901-0.015427,1.203272,0.339371,1.218699,0.94101
		c0,0.215988-0.09256,0.370255-0.09256,0.385666c-0.015427,0.030853-0.046278,0.046295-0.077133,0.046295l0,0
		c-0.030855,0-0.061705-0.015427-0.077133-0.030853c-0.030855-0.030838-0.246826-0.215973-0.771328-0.200546
		c-0.910168,0.015427-1.465527,0.555359-1.450098,1.419235c0.015427,0.848465,0.694195,1.357544,1.835762,1.326691
		c1.450098-0.030853,2.529959-0.925598,2.499109-2.082596c-0.015429-1.002731-0.77133-1.388397-1.573515-1.804901
		c-0.817606-0.416519-1.743202-0.894745-1.774057-2.144302c-0.030855-1.388397,1.2187-2.421967,2.94648-2.437408
		c1.511803-0.030838,2.591663,0.725037,2.607092,1.83577c0.015427,1.126144-0.817608,1.218704-1.064434,1.218704
		c-0.077133,0-0.154266,0-0.246826-0.015427c-0.030855,0-0.061705-0.015427-0.077133-0.04628
		c-0.015427-0.030853-0.015427-0.061722,0-0.09256c0,0,0.107988-0.2314,0.107988-0.617065
		c-0.015427-0.678772-0.555357-1.095276-1.40382-1.079865c-0.894741,0.015427-1.434671,0.447372-1.434671,1.12616
		c0.015429,0.70961,0.632492,1.033569,1.357538,1.403809c0.879318,0.447372,1.974602,1.002731,1.990028,2.514542
		C28.251114,141.541382,26.492485,143.03775,24.147642,143.08403z"/>
	<path style="fill:#333333;" d="M38.586926,140.754608c-0.539928,0.694199-1.558086,1.280411-2.344841,1.295837
		c-0.925594,0.015427-1.4501-0.478226-1.465527-1.372971c-0.015427-0.617065,0.2314-1.203278,0.493652-1.820343
		c0.293106-0.694199,0.586208-1.419235,0.586208-2.298569c0-0.046295,0.030857-0.077133,0.077133-0.09256
		c0,0,0.262253-0.061707,0.447369-0.077133c0.524506-0.015427,0.848465,0.308533,0.863892,0.848465
		c0.015427,0.617065-0.277676,1.280411-0.570786,1.912903c-0.2314,0.524506-0.462799,1.033569-0.447369,1.403809
		c0,0.246826,0.09256,0.339386,0.354809,0.339386c1.141563-0.015427,2.622517-2.452835,2.69965-4.412003
		c0-0.046295,0.030857-0.077133,0.061707-0.09256c0.030857-0.015427,0.169693-0.061707,0.354809-0.061707
		c0.555359-0.015427,0.894741,0.308533,0.894741,0.863892c0.015427,1.141571-0.987301,4.226883-1.26498,5.198746
		c-0.2314,0.771332-0.478226,1.480942-1.095291,2.113434c-0.586208,0.601639-1.434669,0.925598-2.360264,0.941025
		c-1.033585,0.015411-1.789486-0.524521-1.804913-1.311264c-0.015427-0.539932,0.262253-1.018158,0.771328-1.357544
		c0.323959-0.215988,0.755901-0.323959,1.234127-0.339386c0.262253,0,0.539932,0.030853,0.817608,0.09256
		c0.215973,0.04628,0.601635,0.293106,0.293102,0.524506c-0.09256,0.061707-0.215969,0.09256-0.323956,0.09256
		c-0.462799,0.030838-1.372967,0.169693-1.372967,0.786743c0,0.2314,0.154266,0.401093,0.570786,0.401093
		c0.863888-0.015427,1.527229-0.617065,1.866619-1.372971C38.232117,142.204712,38.540649,140.800888,38.586926,140.754608z"/>
	<path style="fill:#333333;" d="M50.326557,142.436111c-1.357536,0.030838-2.144291-0.817627-2.175148-2.298569
		c-0.030853-1.928329,1.280403-4.10347,3.224155-4.134338c0.971874-0.015411,1.588936,0.509094,1.604362,1.388397
		c0.01543,0.678772-0.293102,2.329407-3.316715,3.177872c-0.030853,0-0.046276,0.030853-0.061703,0.046295
		c-0.01543,0.015411-0.01543,0.04628-0.01543,0.077133c0.10799,0.385651,0.401093,0.555344,0.879318,0.555344
		c1.388393-0.030838,2.607094-1.311264,2.992756-1.928314c0.01543-0.030853,0.04628-0.046295,0.077133-0.046295
		c0.215973,0.030853,0.431942,0.200562,0.431942,0.555359C53.998085,140.785477,52.301159,142.405258,50.326557,142.436111z
		 M51.190449,137.191071c-0.725052,0.015427-1.480953,1.018143-1.650646,2.206009c0,0.030838,0.015427,0.061707,0.030853,0.09256
		c0.01543,0.015411,0.04628,0.015411,0.061707,0.015411s0.015427,0,0.030857,0
		c1.218697-0.447372,1.974598-1.172409,1.959175-1.866608C51.622391,137.314484,51.483551,137.175644,51.190449,137.191071z"/>
	<path style="fill:#333333;" d="M67.141533,142.127579c-0.04628,0-0.077133,0-0.123413,0
		c-0.2314-0.030853-0.431938-0.077133-0.586205-0.262253c-0.138847-0.154266-0.215981-0.339371-0.215981-0.555344
		c0-0.524506,0.44738-0.987305,0.941017-1.002731c0.462799-0.015427,0.771332,0.277679,0.802185,0.755905
		c0.015427,0.323959-0.077133,0.617065-0.262253,0.817612C67.558052,142.035019,67.357506,142.127579,67.141533,142.127579z
		 M67.666039,139.73645c-0.370239,0-0.817604-0.169678-0.833038-1.095276c-0.030853-1.357544,0.509079-3.96463,1.20327-5.167908
		c0.293114-0.509094,0.647919-0.617065,0.894745-0.632492c0.18512,0,0.416519,0.077133,0.555351,0.246826
		c0.154266,0.200546,0.061707,0.401093,0,0.555359c-0.015427,0.030838-0.030853,0.04628-0.030853,0.077133
		c-0.246826,0.57077-0.44738,1.095276-0.632492,1.588943c-0.370239,1.049011-0.802177,2.869339-1.01815,4.041748
		c-0.015419,0.061722-0.046272,0.277695-0.046272,0.277695C67.758598,139.705612,67.712318,139.73645,67.666039,139.73645z"/>
	<path style="fill:#333333;" d="M32.154037,141.834473c-0.339386,0.385651-1.049006,0.94101-1.959177,0.956436
		c-1.095289,0.015427-1.835764-0.755905-1.851191-1.990036c-0.015429-0.709625,0.154266-1.434677,0.478226-2.067169
		c0.370237-0.740479,0.971872-1.342102,1.774057-1.820343c0.231398-0.13884,1.033583-0.57077,1.851191-0.586212
		c0.401093,0,0.755901,0.092545,1.018154,0.293106c0.663342,0.509079,0.524502,1.234131,0.308533,1.943741
		c-0.10799,0.385666-0.215973,0.786758-0.323959,1.172424c-0.169693,0.601639-0.555359,1.882034,0.493652,1.866608
		c1.156994-0.015427,1.110714-1.60437,1.434669-2.468246c0.015427-0.030853,0.10799,0.447372,0.154266,0.447372
		c0.123409,0.015427,0.478226,0.077133,0.493652,0.601639c0.015427,0.863892-1.079861,2.54538-2.60709,2.576233
		C32.601414,142.775497,32.262028,142.143005,32.154037,141.834473z M32.431721,137.623016
		c-0.354809-0.200546-1.156996,0.308533-1.403822,0.493652c-0.416519,0.323944-0.740473,0.755905-0.987299,1.218704
		c-0.215973,0.447372-0.339388,0.94101-0.323959,1.434677c0.015427,0.617065,0.231398,0.663345,0.462797,0.663345
		c0.647919-0.015427,1.342113-0.586212,1.666069-1.141571c0.246828-0.431946,0.431944-0.894745,0.586206-1.372971
		C32.508854,138.641174,32.801956,137.808136,32.431721,137.623016z"/>
	<path style="fill:#333333;" d="M48.645061,140.276382c-0.293102,0.617065-1.049004,0.987305-1.619789,0.987305
		c0.09256-0.431946,0.246826-0.910172,0.339386-1.342102c0.200542-0.941025,0.462795-1.866608,0.771328-2.776779
		c0.339386-1.064438,0.802185-2.098022,1.388393-3.054474c0.061707-0.107986,0.123409-0.200562,0.200542-0.308533
		c0.123413-0.401093-0.879318-0.370239-1.064434-0.308533c-0.431942,0.13884-0.709621,0.555344-0.910168,0.94101
		c-0.354809,0.694199-0.555355,1.527237-0.802181,2.2677c-0.370239,1.110718-1.141567,2.807632-2.85392,2.838501
		c-1.851189,0.030853,0.570786-2.853912,0.539932-4.766815c-0.01543-0.956436-1.049007-1.60437-1.851192-0.725052
		c-0.154266,0.18512-0.030853,0.246826,0.09256,0.2314c0.462799-0.061707,0.354813,0.509094,0.323959,0.663361
		c-0.262253,1.573502-2.529957,4.381149-0.555355,5.769547c0.833035,0.586212,2.992756,0.030838,3.548111-0.802185
		c-0.077129,0.462799-0.215969,0.941025-0.323956,1.403824c-3.239586,0.061707-4.674255,1.079865-4.658833,2.622513
		c0.015427,1.018158,1.033585,1.434692,1.851189,1.41925c1.388393-0.030853,2.85392-0.75592,3.424706-2.067169
		c0.154266-0.354828,0.277676-0.725052,0.385666-1.110718c1.141563-0.015411,1.974598-0.586212,2.113441-1.234116
		L48.645061,140.276382z M43.106915,144.241028c-0.370239,0-0.570786-0.13884-0.570786-0.401093
		c-0.015427-0.632477,0.570786-1.450104,3.116173-1.619781C45.359196,143.40799,44.526161,144.210159,43.106915,144.241028z"/>
	<path style="fill:#333333;" d="M56.759441,141.402527c-0.339386,0.385666-1.049004,0.941025-1.959179,0.956451
		c-1.095287,0.015411-1.835762-0.755905-1.851189-1.990036c-0.015427-0.709625,0.154266-1.434677,0.478226-2.067169
		c0.370235-0.740479,0.971874-1.342102,1.774055-1.820343c0.2314-0.13884,1.033585-0.57077,1.851192-0.586212
		c0.401093,0,0.755901,0.092545,1.018154,0.293106c0.663342,0.509079,0.524502,1.234131,0.308533,1.943741
		c-0.10799,0.385666-0.215973,0.786758-0.323959,1.172424c-0.169693,0.601639-0.555359,1.882034,0.493652,1.866608
		c1.156998-0.015427,1.11071-1.60437,1.434673-2.468246c0.015423-0.030853,0.10799,0.447372,0.154266,0.447372
		c0.123413,0.015411,0.478222,0.077133,0.493652,0.601639c0.015423,0.863876-1.079861,2.54538-2.60709,2.576233
		C57.206818,142.343552,56.867432,141.71106,56.759441,141.402527z M57.037125,137.191071
		c-0.354809-0.200562-1.156994,0.308533-1.40382,0.493637c-0.416519,0.323959-0.740475,0.755905-0.987301,1.218704
		c-0.215973,0.447372-0.339386,0.941025-0.323959,1.434677c0.015427,0.617065,0.2314,0.663361,0.462795,0.663361
		c0.647919-0.015427,1.342117-0.586227,1.666073-1.141571c0.246826-0.431961,0.431942-0.89476,0.586208-1.372971
		C57.114258,138.209213,57.40736,137.391617,57.037125,137.191071z"/>
	<path style="fill:#333333;" d="M52,27h-6c-0.552284,0-1-0.447716-1-1v-3c0-0.552284,0.447716-1,1-1h6c0.552284,0,1,0.447716,1,1v3
		C53,26.552284,52.552284,27,52,27z"/>
	<path style="fill:#1F1F1F;" d="M52,25h-6c-0.552246,0-1-0.447754-1-1v2c0,0.552246,0.447754,1,1,1h6c0.552246,0,1-0.447754,1-1v-2
		C53,24.552246,52.552246,25,52,25z"/>
	<path style="fill:#333333;" d="M113,27h-6c-0.552284,0-1-0.447716-1-1v-3c0-0.552284,0.447716-1,1-1h6c0.552284,0,1,0.447716,1,1v3
		C114,26.552284,113.552284,27,113,27z"/>
	<path style="fill:#1F1F1F;" d="M113,25h-6c-0.552246,0-1-0.447754-1-1v2c0,0.552246,0.447754,1,1,1h6c0.552246,0,1-0.447754,1-1v-2
		C114,24.552246,113.552246,25,113,25z"/>
</g>
<g id="Layer_2">
</g>
</svg>
