<?xml version="1.0" encoding="utf-8"?>
<!-- Generator: Adobe Illustrator 19.0.1, SVG Export Plug-In . SVG Version: 6.00 Build 0)  -->
<svg version="1.1" xmlns="http://www.w3.org/2000/svg" xmlns:xlink="http://www.w3.org/1999/xlink" x="0px" y="0px"
	 viewBox="0 0 42 44" style="enable-background:new 0 0 42 44;" xml:space="preserve">
<g id="Layer_1">
	<g>
		<g>
			<path d="M33.999939,11V0h-34v39c0,2.761414,2.238525,5,5,5h32c2.761475,0,5-2.238586,5-5V11H33.999939z M4.999939,42
				c-1.654297,0-3-1.345703-3-3V2h30v37c0,1.13092,0.389648,2.162354,1.022705,3H4.999939z M39.999939,39c0,1.65686-1.34314,3-3,3
				s-3-1.34314-3-3V13h6V39z"/>
			<rect x="5.999939" y="6" width="10" height="14"/>
			<rect x="17.999939" y="6" width="10" height="2"/>
			<rect x="17.999939" y="10" width="10" height="2"/>
			<rect x="17.999939" y="14" width="10" height="2"/>
			<rect x="17.999939" y="18" width="10" height="2"/>
			<rect x="5.999939" y="22" width="22" height="2"/>
			<rect x="5.999939" y="26" width="22" height="2"/>
			<rect x="5.999939" y="30" width="22" height="2"/>
			<rect x="5.999939" y="34" width="22" height="2"/>
		</g>
	</g>
</g>
<g id="Layer_2">
</g>
</svg>
