<?xml version="1.0" encoding="utf-8"?>
<!-- Generator: Adobe Illustrator 19.0.1, SVG Export Plug-In . SVG Version: 6.00 Build 0)  -->
<svg version="1.1" xmlns="http://www.w3.org/2000/svg" xmlns:xlink="http://www.w3.org/1999/xlink" x="0px" y="0px"
	 viewBox="0 0 46 44" style="enable-background:new 0 0 46 44;" xml:space="preserve">
<g id="Layer_1">
	<g>
		<g>
			<g>
				<rect x="17" width="12" height="1"/>
				<rect x="6.000061" y="7" width="15" height="19"/>
				<rect x="25.000061" y="9" width="15" height="2"/>
				<rect x="25.000061" y="17" width="15" height="2"/>
				<rect x="25.000061" y="13" width="15" height="2"/>
				<rect x="25.000061" y="21" width="15" height="2"/>
			</g>
			<path d="M44,1H2C0.895416,1,0,1.895416,0,3v27c0,1.104553,0.895416,2,2,2h42c1.104584,0,2-0.895447,2-2V3
				C46,1.895416,45.104584,1,44,1z M44.000061,30h-42V3h42V30z"/>
			<polygon points="12.500061,35 33.500061,35 34.500061,38 11.500061,38 			"/>
			<polygon points="11.983612,30.5 6.942627,44 9.500061,44 14.5,30.5 			"/>
			<polygon points="34.016388,30.5 31.500153,30.5 36.500061,44 39.057373,44 			"/>
		</g>
	</g>
</g>
<g id="Layer_2">
</g>
</svg>
