<?xml version="1.0" encoding="utf-8"?>
<!-- Generator: Adobe Illustrator 19.0.1, SVG Export Plug-In . SVG Version: 6.00 Build 0)  -->
<svg version="1.1" xmlns="http://www.w3.org/2000/svg" xmlns:xlink="http://www.w3.org/1999/xlink" x="0px" y="0px"
	 viewBox="0 0 48 44" style="enable-background:new 0 0 48 44;" xml:space="preserve">
<g id="Layer_1">
	<g>
		<g>
			<rect x="6" y="17" width="14" height="2"/>
			<rect x="11" y="13" width="9" height="2"/>
			<rect x="6" y="25" width="14" height="2"/>
			<rect x="6" y="21" width="14" height="2"/>
			<rect x="6" y="29" width="14" height="2"/>
			<path d="M46,3H30c-2.276215,0-4.363922,0.802399-6,2.137268C22.363922,3.802399,20.276215,3,18,3H2C0.895416,3,0,3.895416,0,5v33
				c0,1.104553,0.895416,2,2,2h16c2.45105,0,4.619965,1.181763,5.988525,3h0.022949C25.380035,41.181763,27.54895,40,30,40h16
				c1.104584,0,2-0.895447,2-2V5C48,3.895416,47.104584,3,46,3z M24,40.137268C22.363922,38.802399,20.276215,38,18,38H2V5h16
				c2.33136,0,4.408173,1.068573,5.783112,2.73761C23.927551,7.912933,24,8.137421,24,8.364563V40.137268z M43,31H29v-2h14V31z
				 M43,27H29v-2h14V27z M43,23H29v-2h14V23z M43,19H29v-2h14V19z M43,15H29v-2h14V15z"/>
		</g>
	</g>
</g>
<g id="Layer_2">
</g>
</svg>
