<?xml version="1.0" encoding="utf-8"?>
<!-- Generator: Adobe Illustrator 19.2.0, SVG Export Plug-In . SVG Version: 6.00 Build 0)  -->
<svg version="1.1" xmlns="http://www.w3.org/2000/svg" xmlns:xlink="http://www.w3.org/1999/xlink" x="0px" y="0px"
	 viewBox="0 0 40 40" style="enable-background:new 0 0 40 40;" xml:space="preserve">
<g id="Layer_1">
	<path style="fill-rule:evenodd;clip-rule:evenodd;" d="M20-0.000969c-11.046021,0-20,8.955017-20,20.000977
		c0,11.044983,8.953979,19.999023,20,19.999023s20-8.954041,20-19.999023C40,8.954048,31.046021-0.000969,20-0.000969z
		 M21.5,31.499031h-0.091858c-0.206604,0.581299-0.755981,1-1.408142,1s-1.201477-0.418701-1.408142-1H18.5
		c-0.82843,0-1.5-0.671631-1.5-1.5h6C23,30.8274,22.32843,31.499031,21.5,31.499031z M23,28.999031h-6
		c-0.276123,0-0.5-0.223877-0.5-0.5c0-0.276184,0.223877-0.5,0.5-0.5h6c0.276123,0,0.5,0.223816,0.5,0.5
		C23.5,28.775154,23.276123,28.999031,23,28.999031z M23.5,26.999031h-7c-0.276123,0-0.5-0.223877-0.5-0.5
		c0-0.276184,0.223877-0.5,0.5-0.5h7c0.276123,0,0.5,0.223816,0.5,0.5C24,26.775154,23.776123,26.999031,23.5,26.999031z
		 M24.863586,20.669111c-1.143921,1.011395-1.344116,2.583925-1.660583,4.32992h-6.405579
		c-0.316467-1.748074-0.555969-3.277548-1.661011-4.32992C14,19.586868,12,17.700724,12,14.782815
		c0-4.298802,3.581726-7.783784,8-7.783784s8,3.484982,8,7.783784C28,17.700724,25.812489,19.830112,24.863586,20.669111z"/>
</g>
<g id="Layer_2">
</g>
</svg>
