<?xml version="1.0" encoding="utf-8"?>
<!-- Generator: Adobe Illustrator 19.0.1, SVG Export Plug-In . SVG Version: 6.00 Build 0)  -->
<svg version="1.1" xmlns="http://www.w3.org/2000/svg" xmlns:xlink="http://www.w3.org/1999/xlink" x="0px" y="0px"
	 viewBox="0 0 60 60" style="enable-background:new 0 0 60 60;" xml:space="preserve">
<g id="Layer_1">
	<path d="M30,3.000031c14.887848,0,27,12.112793,27,27.001465c0,14.887054-12.112152,26.998535-27,26.998535S3,44.88855,3,30.001495
		C3,15.112823,15.112152,3.000031,30,3.000031 M30,0.000031c-16.569031,0-30,13.43251-30,30.001465
		C0,46.56897,13.430969,60.000031,30,60.000031S60,46.56897,60,30.001495C60,13.432541,46.569031,0.000031,30,0.000031L30,0.000031z
		"/>
	<g>
		<path style="fill-rule:evenodd;clip-rule:evenodd;" d="M32.25,46.75h-0.137787c-0.309906,0.871948-1.133972,1.5-2.112213,1.5
			s-1.802216-0.628052-2.112213-1.5H27.75c-1.242645,0-2.25-1.007446-2.25-2.25h9C34.5,45.742554,33.492645,46.75,32.25,46.75z
			 M34.5,43h-9c-0.414185,0-0.75-0.335815-0.75-0.75c0-0.414276,0.335815-0.75,0.75-0.75h9c0.414185,0,0.75,0.335724,0.75,0.75
			C35.25,42.664185,34.914185,43,34.5,43z M35.25,40h-10.5C24.335815,40,24,39.664185,24,39.25c0-0.414276,0.335815-0.75,0.75-0.75
			h10.5c0.414185,0,0.75,0.335724,0.75,0.75C36,39.664185,35.664185,40,35.25,40z M37.29538,30.505121
			C35.579498,32.022213,35.279205,34.381008,34.804504,37h-9.608368c-0.474701-2.622108-0.833954-4.916321-2.491516-6.494879
			C21,28.881758,18,26.05254,18,21.675676C18,15.227473,23.372589,10,30,10s12,5.227473,12,11.675676
			C42,26.05254,38.718731,29.246622,37.29538,30.505121z"/>
	</g>
	<path style="opacity:0.5;fill:#FFFFFF;" d="M33.416504,25.033203c-0.735352-0.118164-1.475586,0.084961-2.035156,0.560547
		C30.821289,26.070312,30.5,26.764648,30.5,27.499023V28h1v-0.500977c0-0.44043,0.192871-0.857422,0.529297-1.143555
		c0.34082-0.290039,0.777344-0.408203,1.226074-0.335938C33.964844,26.135742,34.5,26.817383,34.5,27.606445V28.5
		c0,0.275391-0.224121,0.5-0.5,0.5h-8c-0.275879,0-0.5-0.224609-0.5-0.5v-0.893555c0-0.789062,0.535156-1.470703,1.244629-1.586914
		c0.448242-0.072266,0.885254,0.045898,1.226074,0.335938C28.307129,26.641602,28.5,27.058594,28.5,27.499023V28h1v-0.500977
		c0-0.734375-0.321289-1.428711-0.881348-1.905273c-0.55957-0.475586-1.300781-0.679688-2.035156-0.560547
		C25.395996,25.226562,24.5,26.333008,24.5,27.606445V28.5c0,0.827148,0.672852,1.5,1.5,1.5h2v5.000061h1V30h2v5.000061h1V30h2
		c0.827148,0,1.5-0.672852,1.5-1.5v-0.893555C35.5,26.333008,34.604004,25.226562,33.416504,25.033203z"/>
</g>
<g id="Layer_2">
</g>
</svg>
