<?xml version="1.0" encoding="utf-8"?>
<!-- Generator: Adobe Illustrator 19.0.1, SVG Export Plug-In . SVG Version: 6.00 Build 0)  -->
<svg version="1.1" xmlns="http://www.w3.org/2000/svg" xmlns:xlink="http://www.w3.org/1999/xlink" x="0px" y="0px"
	 viewBox="0 0 60 60" style="enable-background:new 0 0 60 60;" xml:space="preserve">
<g id="Layer_1">
	<path d="M30,3.000031c14.887848,0,27,12.112152,27,27s-12.112152,27-27,27s-27-12.112152-27-27S15.112152,3.000031,30,3.000031
		 M30,0.000031c-16.569031,0-30,13.430969-30,30c0,16.568939,13.430969,30,30,30s30-13.431061,30-30
		C60,13.431,46.569031,0.000031,30,0.000031L30,0.000031z"/>
	<g>
	</g>
	<path style="fill-rule:evenodd;clip-rule:evenodd;" d="M47.758484,21.461914
		c-0.08551-0.503906-0.712463-0.694458-1.073975-0.333008l-2.757019,2.75708c-2.676025,2.67749-5.344482,0.776855-7.078491-0.957031
		c-1.735474-1.735596-3.63446-4.402466-0.957031-7.080078l2.743591-2.744873c0.365906-0.365967,0.166443-1.001953-0.345093-1.077026
		c-2.641479-0.386963-5.867981,0.199585-8.036926,2.36853c-2.969971,2.969971-3.203979,6.095947-2.080566,8.939941
		c0.595581,1.505981,0.07959,3.228027-1.140015,4.291504L13.376953,39.527954c-1.829956,1.596069-1.925964,4.408569-0.2099,6.125977
		l0.00592,0.004517c1.630554,1.63208,4.273499,1.638062,5.913025,0.016602l13.263-13.123535
		c1.107056-1.094971,2.753967-1.341064,4.197021-0.753052c2.857483,1.16394,6.139526,1.07251,9.160522-1.946899
		C47.886047,27.67041,48.220459,24.17395,47.758484,21.461914z M17.629517,43.944092
		c-0.738037,0.737793-1.939514,0.737793-2.679016,0c-0.737976-0.739624-0.737976-1.941162,0-2.679077
		c0.739502-0.739624,1.940979-0.739624,2.679016,0C18.369019,42.00293,18.369019,43.204468,17.629517,43.944092z
		 M30.480469,30.71875l-10.379883,9.510742c-0.162598,0.147461-0.37207,0.228516-0.591309,0.228516
		c-0.242188,0-0.476562-0.102539-0.642578-0.280273c-0.327637-0.358398-0.303223-0.912109,0.049805-1.238281l10.379883-9.510742
		c0.163574-0.147461,0.37207-0.227539,0.589844-0.227539c0.241699,0,0.475586,0.100586,0.641602,0.276367
		C30.85791,29.838867,30.833496,30.392578,30.480469,30.71875z"/>
</g>
<g id="Layer_2">
</g>
</svg>
