<?xml version="1.0" encoding="utf-8"?>
<!-- Generator: Adobe Illustrator 19.0.1, SVG Export Plug-In . SVG Version: 6.00 Build 0)  -->
<svg version="1.1" xmlns="http://www.w3.org/2000/svg" xmlns:xlink="http://www.w3.org/1999/xlink" x="0px" y="0px"
	 viewBox="0 0 40 40" style="enable-background:new 0 0 40 40;" xml:space="preserve">
<g id="Layer_1">
	<g>
		<path style="fill-rule:evenodd;clip-rule:evenodd;" d="M20,0.000008c-11.045715,0-20,8.954285-20,20
			c0,11.045654,8.954285,20,20,20s20-8.954346,20-20C40,8.954292,31.045715,0.000008,20,0.000008z M8.883972,12.959602
			c-0.511963-0.510986-0.511963-1.339966,0-1.854004l2.348022-2.350952c0.512024-0.512024,1.341003-0.511047,1.853027,0
			l1.854004,1.853943l-4.204041,4.203003L8.883972,12.959602z M22.690002,27.7696L11.661987,15.738594l4.203979-4.203979
			l11.028015,12.031982l2.971985,7.176025L22.690002,27.7696z"/>
		<polygon style="fill-rule:evenodd;clip-rule:evenodd;" points="23.614441,26.836128 27.82666,28.641365 26.046509,24.479317 		"/>
	</g>
</g>
<g id="Layer_2">
</g>
</svg>
