<?xml version="1.0" encoding="utf-8"?>
<!-- Generator: Adobe Illustrator 19.0.1, SVG Export Plug-In . SVG Version: 6.00 Build 0)  -->
<svg version="1.1" xmlns="http://www.w3.org/2000/svg" xmlns:xlink="http://www.w3.org/1999/xlink" x="0px" y="0px"
	 viewBox="0 0 40 40" style="enable-background:new 0 0 40 40;" xml:space="preserve">
<g id="Layer_1">
	<g>
		<g>
			<g>
				<defs>
					<path id="SVGID_1_" d="M9.966995,27.510008c-0.492004,0.491999-0.492004,1.292999,0,1.785999
						c0.492996,0.492001,1.293999,0.492001,1.785995,0c0.493004-0.493,0.493004-1.294001,0-1.785999
						C11.260994,27.017008,10.459991,27.017008,9.966995,27.510008"/>
				</defs>
				<use xlink:href="#SVGID_1_"  style="overflow:visible;fill-rule:evenodd;clip-rule:evenodd;"/>
				<clipPath id="SVGID_2_">
					<use xlink:href="#SVGID_1_"  style="overflow:visible;"/>
				</clipPath>
			</g>
		</g>
		<path style="fill-rule:evenodd;clip-rule:evenodd;" d="M20,0.000008c-11.046021,0-20,8.953979-20,20
			c0,11.045959,8.953979,20,20,20s20-8.954041,20-20C40,8.953987,31.046021,0.000008,20,0.000008z M30.471008,19.901009
			c-2.013977,2.013-4.202026,2.073975-6.106995,1.297974c-0.962036-0.391968-2.059998-0.227966-2.798035,0.502014l-8.84198,8.749023
			c-1.093018,1.080994-2.85498,1.076965-3.942017-0.011047l-0.003967-0.002991
			c-1.144042-1.144958-1.080017-3.019958,0.139954-4.083984l9.104004-7.934021
			c0.813049-0.708984,1.157043-1.856995,0.76001-2.860962c-0.748962-1.895996-0.592957-3.980042,1.387024-5.960022
			c1.445984-1.445984,3.596985-1.836975,5.357971-1.578979c0.341003,0.049988,0.473999,0.473999,0.230042,0.717957
			l-1.829041,1.830017c-1.784973,1.785034-0.518982,3.562988,0.638,4.720032c1.156006,1.155945,2.934998,2.422974,4.718994,0.638
			l1.838013-1.838013c0.241028-0.241028,0.658997-0.114014,0.716003,0.221985
			C32.146973,16.115974,31.924011,18.446968,30.471008,19.901009z"/>
		<g>
			<path d="M13.006104,26.63868c-0.067383,0-0.134766-0.027344-0.18457-0.081055
				c-0.092773-0.101562-0.085938-0.259766,0.015625-0.353516l6.918945-6.338867
				c0.101562-0.091797,0.258789-0.084961,0.353516,0.015625c0.092773,0.101562,0.085938,0.259766-0.015625,0.353516
				l-6.918945,6.338867C13.127197,26.617195,13.06665,26.63868,13.006104,26.63868z"/>
		</g>
	</g>
</g>
<g id="Layer_2">
</g>
</svg>
