<?xml version="1.0" encoding="utf-8"?>
<!-- Generator: Adobe Illustrator 19.0.1, SVG Export Plug-In . SVG Version: 6.00 Build 0)  -->
<svg version="1.1" xmlns="http://www.w3.org/2000/svg" xmlns:xlink="http://www.w3.org/1999/xlink" x="0px" y="0px"
	 viewBox="0 0 36 36" style="enable-background:new 0 0 36 36;" xml:space="preserve">
<g id="Layer_1">
	<g>
		<g>
			<path d="M29.366211,11.731445c-0.574707,0.859863-1.285156,1.605469-2.111816,2.217285
				c0.005371,0.152344,0.008301,0.305176,0.008301,0.458984c0,6.124023-4.660156,12.458496-12.458496,12.458496
				c-2.383789,0-4.70459-0.680664-6.711914-1.967285l0.131348-0.367188c0.329102,0.038574,0.664062,0.058594,1.003906,0.058594
				c1.737305,0,3.38623-0.512207,4.800293-1.487305c-1.697266-0.238281-3.132324-1.42627-3.664551-3.087891l-0.102539-0.320801
				l0.330566,0.063477c0.257324,0.048828,0.51709,0.07373,0.772949,0.07373c0.088379,0,0.176758-0.002441,0.264648-0.008301
				c-1.654785-0.686035-2.785645-2.322266-2.785645-4.16748v-0.339844l0.297852,0.11084
				c0.367676,0.204102,0.766602,0.350586,1.178711,0.434082c-0.912598-0.84668-1.441406-2.039062-1.441406-3.306641
				c0-0.797363,0.211426-1.581055,0.61084-2.266602l0.145508-0.249512l0.182129,0.223633
				c2.101074,2.577148,5.178711,4.175781,8.478027,4.413086c-0.04248-0.250977-0.064453-0.507812-0.064453-0.766602
				c0-2.48584,2.022949-4.508789,4.508789-4.508789c1.20459,0,2.368652,0.488281,3.212402,1.343262
				c0.905273-0.19043,1.768066-0.526367,2.565918-0.999512l0.452637-0.268555l-0.160156,0.501465
				c-0.245605,0.768555-0.692871,1.452148-1.290527,1.985352c0.549805-0.120605,1.085449-0.296387,1.599609-0.523926
				L29.75,11.157227L29.366211,11.731445z"/>
		</g>
	</g>
</g>
<g id="Layer_2">
</g>
</svg>
