<?xml version="1.0" encoding="utf-8"?>
<!-- Generator: Adobe Illustrator 19.0.1, SVG Export Plug-In . SVG Version: 6.00 Build 0)  -->
<svg version="1.1" xmlns="http://www.w3.org/2000/svg" xmlns:xlink="http://www.w3.org/1999/xlink" x="0px" y="0px"
	 viewBox="0 0 40 40" style="enable-background:new 0 0 40 40;" xml:space="preserve">
<g id="Layer_1">
	<g>
		<rect x="23" y="14.000008" style="opacity:0.95;" width="3" height="2"/>
		<rect x="27" y="23.000008" style="opacity:0.95;" width="3" height="2"/>
		<rect x="27" y="20.000008" style="opacity:0.95;" width="3" height="2"/>
		<path style="opacity:0.95;" d="M22,25.000008V24.86451c-0.026184,0.047119-0.060181,0.088867-0.08728,0.135498H22z"/>
		<rect x="27" y="14.000008" style="opacity:0.95;" width="3" height="2"/>
		<path style="opacity:0.95;" d="M22,17.13575v-0.135742h-0.082458C21.944153,17.045906,21.974304,17.089363,22,17.13575z"/>
		<rect x="27" y="17.000008" style="opacity:0.95;" width="3" height="2"/>
		<path style="opacity:0.95;" d="M15,15.000008v6h6C21,17.691414,18.308594,15.000008,15,15.000008z"/>
		<path style="opacity:0.95;" d="M20,0.000008c-11.027832,0-20,8.97168-20,20s8.972168,20,20,20s20-8.97168,20-20
			S31.027832,0.000008,20,0.000008z M31,26.000008h-9.781433c-1.467102,1.821777-3.702759,3-6.218567,3c-4.411133,0-8-3.588867-8-8
			c0-4.071777,3.060059-7.435791,7-7.93042v-1.06958h17V26.000008z"/>
		<path style="opacity:0.95;" d="M21.235046,16.000008H22v-2h-3.159424C19.762085,14.509041,20.57959,15.184334,21.235046,16.000008
			z"/>
		<rect x="23" y="23.000008" style="opacity:0.95;" width="3" height="2"/>
		<rect x="23" y="20.000008" style="opacity:0.95;" width="3" height="2"/>
		<rect x="23" y="17.000008" style="opacity:0.95;" width="3" height="2"/>
	</g>
</g>
<g id="Layer_2">
</g>
</svg>
