<?xml version="1.0" encoding="utf-8"?>
<!-- Generator: Adobe Illustrator 19.2.0, SVG Export Plug-In . SVG Version: 6.00 Build 0)  -->
<svg version="1.1" xmlns="http://www.w3.org/2000/svg" xmlns:xlink="http://www.w3.org/1999/xlink" x="0px" y="0px"
	 viewBox="0 0 40 40" style="enable-background:new 0 0 40 40;" xml:space="preserve">
<g id="Layer_1">
	<g>
		<path d="M15.966248,18.372314c1.447998,0,2.619812-0.614258,2.619812-2.058838c0-1.445312-1.171082-2.578613-2.618164-2.578613
			c-1.444458,0-2.618164,1.133301-2.618164,2.578613C13.349731,17.758057,14.52179,18.372314,15.966248,18.372314z"/>
		<path d="M20.178833,20.842285c-5.593689,0-7.978821-2.25415-7.978821,0.539062c0,2.796387,3.572571,6.163086,7.978821,6.163086
			c4.407104,0,7.980591-3.259766,7.980591-6.053467C28.159424,18.696289,25.908691,20.842285,20.178833,20.842285z
			 M20.178833,26.716064c-1.085449,0-2.113647-0.249268-3.049927-0.637451c0.14563-0.659668,0.999023-1.177002,2.076782-1.177002
			c0.3573,0,0.67749,0.071045,0.973145,0.167725c0.295654-0.09668,0.616089-0.167725,0.973328-0.167725
			c1.08374,0,1.942139,0.520996,2.079224,1.1875C22.295776,26.470215,21.265991,26.716064,20.178833,26.716064z"/>
		<path d="M24.344238,18.372314c1.446228,0,2.618286-0.614258,2.618286-2.058838c0-1.445312-1.171082-2.578613-2.61731-2.578613
			c-1.444458,0-2.61731,1.133301-2.61731,2.578613C21.727905,17.758057,22.89978,18.372314,24.344238,18.372314z"/>
		<path d="M20,0C8.97168,0,0,8.97168,0,20s8.97168,20,20,20s20-8.97168,20-20S31.02832,0,20,0z M20,31.840332
			c-6.617004,0-12-5.383057-12-12s5.382996-12,12-12s12,5.383057,12,12S26.617004,31.840332,20,31.840332z"/>
	</g>
</g>
<g id="Layer_2">
</g>
</svg>
