<?xml version="1.0" encoding="utf-8"?>
<!-- Generator: Adobe Illustrator 19.2.0, SVG Export Plug-In . SVG Version: 6.00 Build 0)  -->
<svg version="1.1" xmlns="http://www.w3.org/2000/svg" xmlns:xlink="http://www.w3.org/1999/xlink" x="0px" y="0px"
	 viewBox="0 0 40 40" style="enable-background:new 0 0 40 40;" xml:space="preserve">
<g id="Layer_1">
	<g>
		<path d="M13,15.000008h1c1.100037,0,2,0.900146,2,2v7h13v-10H13V15.000008z"/>
		<rect x="10" y="17.000008" width="4" height="8"/>
		<path d="M20,0.000008c-11.02832,0-20,8.97168-20,20s8.97168,20,20,20s20-8.97168,20-20S31.02832,0.000008,20,0.000008z
			 M31,24.000008c0,1.100098-0.899963,2-2,2H16c-0.090637,0-0.177307-0.015137-0.264832-0.026855
			C15.391296,26.581795,14.745483,27.000008,14,27.000008h-4c-1.099976,0-2-0.899902-2-2v-8c0-1.099854,0.900024-2,2-2h1v-1
			c0-1.099854,0.900024-2,2-2h16c1.100037,0,2,0.900146,2,2V24.000008z"/>
	</g>
</g>
<g id="Layer_2">
</g>
</svg>
