<?xml version="1.0" encoding="utf-8"?>
<!-- Generator: Adobe Illustrator 19.0.1, SVG Export Plug-In . SVG Version: 6.00 Build 0)  -->
<svg version="1.1" xmlns="http://www.w3.org/2000/svg" xmlns:xlink="http://www.w3.org/1999/xlink" x="0px" y="0px"
	 viewBox="0 0 40 40" style="enable-background:new 0 0 40 40;" xml:space="preserve">
<g id="Layer_1">
	<path style="opacity:0.95;" d="M20,0C8.972168,0,0,8.97168,0,20s8.972168,20,20,20s20-8.97168,20-20S31.027832,0,20,0z
		 M27,26.999756c-3.269287,0-6.008057-2.24353-6.776733-5.273743c-0.102844-0.405273-0.464478-0.678894-0.876465-0.712952
		c-0.3172,0.032532-0.601135,0.209839-0.763306,0.489868C18.066101,22.396423,17.107117,22.999756,16,22.999756
		s-2.066101-0.603333-2.583496-1.496826c-0.179077-0.309204-0.504211-0.503174-0.861572-0.503174h-0.109863
		c-0.357361,0-0.682495,0.19397-0.861572,0.503174C11.066101,22.396423,10.107117,22.999756,9,22.999756
		c-1.841492,0-3.29541-1.659119-2.948547-3.564087c0.214783-1.179565,1.171814-2.14917,2.348816-2.377563
		c1.360046-0.263916,2.585571,0.393005,3.19165,1.453003c0.174316,0.304932,0.501282,0.488647,0.852478,0.488647h0.110535
		c0.357361,0,0.682495-0.19397,0.861572-0.503174C13.933899,17.603088,14.892883,16.999756,16,16.999756
		s2.066101,0.603333,2.583496,1.496826c0.16217,0.280029,0.446106,0.457336,0.763306,0.489868
		c0.413086-0.034241,0.773926-0.309692,0.877319-0.716248c0.749695-2.949524,3.366089-5.152771,6.520874-5.265869
		c3.843933-0.137817,7.189758,3.029846,7.254028,6.875671C34.064514,23.800781,30.905884,26.999756,27,26.999756z"/>
	<polygon points="23.726562,20.278093 24.357422,19.723406 25.54248,20.984148 25.895996,21.337664 29.719238,17.515398 
		30.273926,18.145281 25.896484,22.447039 	"/>
</g>
<g id="Layer_2">
</g>
</svg>
