<?xml version="1.0" standalone="no"?>
<!DOCTYPE svg PUBLIC "-//W3C//DTD SVG 1.1//EN" "http://www.w3.org/Graphics/SVG/1.1/DTD/svg11.dtd">
<svg xmlns="http://www.w3.org/2000/svg"><metadata>This SVG WebFont was generated by YouWorkForThem.
</metadata><defs><font horiz-adv-x="1632" id="ywftsvg"><font-face ascent="1592" bbox="-69 -441 2076 1948" cap-height="1424" descent="-456" font-family="" font-stretch="normal" font-weight="400" panose-1="0 0 0 0 0 0 0 0 0 0" underline-position="0" underline-thickness="0" unicode-range="U+0020-FB04" units-per-em="2048" x-height="1002"/><missing-glyph d="M151 0v1447h1002v-1447h-1002zM251 197l341 527l-341 526v-1053zM311 103h682l-341 527zM652 817l341 527h-682zM1053 197v1053l-341 -526z" horiz-adv-x="1303"/><glyph d="M151 0v1447h1002v-1447h-1002zM251 197l341 527l-341 526v-1053zM311 103h682l-341 527zM652 817l341 527h-682zM1053 197v1053l-341 -526z" glyph-name=".notdef" horiz-adv-x="1303"/><glyph glyph-name="glyph1" horiz-adv-x="0"/><glyph glyph-name="glyph2" horiz-adv-x="682"/><glyph glyph-name="space" horiz-adv-x="537" unicode=" "/><glyph d="M272 -20q-46 0 -79 33t-33 79t33 78.5t79 32.5t78.5 -32.5t32.5 -78.5t-32.5 -79t-78.5 -33zM206 394l-20 1030h170l-20 -1030h-130z" glyph-name="exclam" horiz-adv-x="542" unicode="!"/><glyph d="M492 1490q38 0 66 -24.5t28 -56.5t-55 -406h-76q-56 382 -54 391q0 43 26.5 69.5t64.5 26.5zM208 1490q38 0 65.5 -25t27.5 -57t-55 -405h-76q-56 382 -54 391q0 43 27 69.5t65 26.5z" glyph-name="quotedbl" horiz-adv-x="701" unicode="&quot;"/><glyph d="M79 428v118h216l46 335h-209v117h226l59 426h121l-59 -426h273l59 426h121l-59 -426h183v-117h-199l-47 -335h190v-118h-206l-59 -428h-121l59 428h-274l-59 -428h-121l59 428h-199zM462 881l-46 -335h273l47 335h-274z" glyph-name="numbersign" horiz-adv-x="1136" unicode="#"/><glyph d="M552 1265q-112 0 -197.5 -64.5t-85.5 -174.5q0 -133 103 -180t197 -75q93 -27 123.5 -36t83 -29.5t113 -58.5t99 -105.5t38.5 -161.5q0 -185 -118.5 -283t-296.5 -114v-194h-134v194q-221 18 -403 157l72 113q180 -134 395 -134q155 0 242.5 67t87.5 166t-61 157.5 t-261 116.5t-278.5 107t-117 117t-38.5 164q0 159 102.5 261.5t272.5 122.5v195h134v-193q215 -19 376 -137l-72 -111q-156 113 -376 113z" glyph-name="dollar" horiz-adv-x="1107" unicode="$"/><glyph d="M382 596q-146 0 -227 107t-81 309t81 312.5t227 110.5t226.5 -110.5t80.5 -310.5t-80.5 -309t-226.5 -109zM382 713q86 0 131.5 77.5t45.5 223.5t-45.5 224.5t-131.5 78.5t-131.5 -78t-45.5 -225t45.5 -224t131.5 -77zM1278 -10q-146 0 -227.5 107t-81.5 309t81.5 312 t227.5 110t226.5 -110t80.5 -311t-80.5 -309t-226.5 -108zM1276 106q86 0 132 77.5t46 224t-45 225t-131 78.5t-132 -78.5t-46 -224.5t45 -224t131 -78zM337 -41l850 1506h135l-850 -1506h-135z" glyph-name="percent" horiz-adv-x="1659" unicode="%"/><glyph d="M530 -20q-175 0 -290 113.5t-115 280.5q0 198 119.5 293t170.5 130l-14 15q-63 71 -105.5 157.5t-42.5 158.5q0 136 90 226.5t225 90.5q88 0 160.5 -41.5t112 -112t39.5 -136.5t-19.5 -128t-78 -122t-153.5 -128l330 -372q88 117 137 232l130 -52q-66 -155 -169 -290 l262 -295h-201l-161 182q-204 -202 -427 -202zM570 1314q-74 0 -125 -50t-51 -120q0 -110 144 -265q122 86 162 144.5t40 126.5q0 67 -48 115.5t-122 48.5zM535 123q160 0 326 167l-355 402q-137 -97 -182.5 -169.5t-45.5 -165.5q0 -94 74.5 -164t182.5 -70z" glyph-name="ampersand" horiz-adv-x="1300" unicode="&amp;"/><glyph d="M300 1406q0 -34 -54 -403h-76q-54 364 -54 399t26.5 61.5t64.5 26.5t65.5 -25t27.5 -59z" glyph-name="quotesingle" horiz-adv-x="415" unicode="'"/><glyph d="M248 571q0 -591 253 -848l-87 -72q-182 170 -250 408t-68 685t318 744l87 -73q-253 -253 -253 -844z" glyph-name="parenleft" horiz-adv-x="557" unicode="("/><glyph d="M310 567q0 591 -253 848l87 73q317 -296 317 -918.5t-317 -918.5l-87 72q253 253 253 844z" glyph-name="parenright" horiz-adv-x="557" unicode=")"/><glyph d="M888 1142v-108h-302l150 -263l-96 -54l-150 259l-148 -260l-98 56l150 262h-302v108h302l-151 261l99 57l148 -260l150 260l97 -56l-151 -262h302z" glyph-name="asterisk" horiz-adv-x="979" unicode="*"/><glyph d="M504 100v431h-425v137h425v428h143v-428h427v-137h-427v-431h-143z" glyph-name="plus" horiz-adv-x="1152" unicode="+"/><glyph d="M197 -61q0 40 -31.5 76t-31.5 79q0 44 30.5 76.5t82.5 32.5t82 -43t30 -109q0 -105 -70 -199.5t-169 -123.5l-32 79q109 57 109 132z" glyph-name="comma" horiz-adv-x="491" unicode=","/><glyph d="M134 476v130h525v-130h-525z" glyph-name="hyphen" horiz-adv-x="793" unicode="-"/><glyph d="M232 -20q-46 0 -78 33t-32 79t32.5 78.5t78.5 32.5t79 -32.5t33 -78.5t-33.5 -79t-79.5 -33z" glyph-name="period" horiz-adv-x="466" unicode="."/><glyph d="M69 -164l578 1638h140l-578 -1638h-140z" glyph-name="slash" horiz-adv-x="853" unicode="/"/><glyph d="M624 -20q-244 0 -378.5 182t-134.5 524t135.5 529t378.5 187t377.5 -186t134.5 -527t-134.5 -525t-378.5 -184zM624.5 120q172.5 0 263.5 146t91 422t-91.5 424.5t-263.5 148.5t-264 -147.5t-92 -424.5t92 -423t264.5 -146z" glyph-name="zero" horiz-adv-x="1247" unicode="0"/><glyph d="M589 139h290v-139h-759v139h315v961q-137 -27 -308 -27v122q117 0 223 50t124 144h115v-1250z" glyph-name="one" horiz-adv-x="935" unicode="1"/><glyph d="M976 139v-139h-890v109q66 178 180.5 284.5t241.5 206.5t209 183t82 206q0 124 -79 197.5t-213 73.5q-181 0 -307 -137l-96 89q68 88 173 139t231 51t226.5 -48t159.5 -140.5t59 -220.5t-67 -227.5t-143.5 -162t-167 -132.5t-170.5 -147t-119 -185h690z" glyph-name="two" horiz-adv-x="1076" unicode="2"/><glyph d="M471 1259q-136 0 -271 -93l-80 106q155 130 351 130t319.5 -95.5t123.5 -257.5q0 -213 -233 -313q120 -34 202 -125t82 -230q0 -93 -40 -169.5t-143.5 -154t-300.5 -77.5q-240 0 -410 167l90 98q152 -124 316 -124q127 0 230.5 70t103.5 197q0 160 -109.5 209t-163.5 59 t-183 9v133q117 0 199 16t142 74.5t60 149.5q0 162 -114 191.5t-171 29.5z" glyph-name="three" horiz-adv-x="1069" unicode="3"/><glyph d="M884 0h-150v316h-685v125l697 948h138v-940h206v-133h-206v-316zM734 449v700l-518 -700h518z" glyph-name="four" horiz-adv-x="1159" unicode="4"/><glyph d="M932 1246h-560l-72 -424q171 86 341.5 43.5t263.5 -148t93 -275.5q0 -211 -143.5 -336.5t-354.5 -125.5q-128 0 -237.5 48t-185.5 128l85 101q144 -136 334 -136q105 0 185.5 43t122 115.5t41.5 164.5t-67.5 195t-266.5 103q-130 0 -266 -78l-105 83l108 635h684v-136z " glyph-name="five" horiz-adv-x="1089" unicode="5"/><glyph d="M609 860q183 0 312.5 -116.5t129.5 -314.5q0 -130 -60 -232.5t-168 -159.5t-225 -57t-231 43t-187.5 194.5t-73.5 365.5q0 422 208 620.5t460 198.5q57 0 105 -12l-20 -130q-35 4 -72 4q-139 0 -253 -70t-185.5 -198t-86.5 -295l1 -1q123 160 346 160zM898 427 q0 135 -86 215t-224 80t-228.5 -81t-90.5 -208t85.5 -220t225.5 -93q141 0 229.5 86t88.5 221z" glyph-name="six" horiz-adv-x="1120" unicode="6"/><glyph d="M59 1244v138h932v-119q-460 -609 -593 -1263h-163q135 680 566 1244h-742z" glyph-name="seven" horiz-adv-x="1019" unicode="7"/><glyph d="M179 1045q0 101 50 182.5t139.5 128t201.5 46.5t202 -46t140 -127.5t50 -175.5q0 -196 -155 -289q116 -56 176 -150t60 -212t-61.5 -215t-169.5 -152t-224 -55q-222 0 -355.5 121.5t-133.5 298.5q0 115 60.5 211.5t173.5 152.5q-154 96 -154 281zM887 402 q0 122 -86.5 202.5t-230.5 80.5t-230 -81.5t-86 -203.5q0 -85 66.5 -183.5t252.5 -98.5q136 0 225 81t89 203zM572 819q108 0 174 63.5t66 159.5t-67.5 158.5t-174 62.5t-173 -62.5t-66.5 -160.5t66.5 -159.5t174.5 -61.5z" glyph-name="eight" horiz-adv-x="1142" unicode="8"/><glyph d="M511 522q-183 0 -312.5 116.5t-129.5 314.5q0 130 60 232.5t168.5 159.5t224.5 57t230.5 -43t188 -194.5t73.5 -365.5q0 -277 -116 -487t-272 -271t-246 -61t-139 12l20 130q35 -4 73 -4q139 0 252.5 69.5t185 198t86.5 295.5h-1q-122 -159 -346 -159zM222 955 q0 -135 86 -215t224 -80t228.5 81t90.5 208t-85.5 220t-225.5 93q-141 0 -229.5 -86t-88.5 -221z" glyph-name="nine" horiz-adv-x="1120" unicode="9"/><glyph d="M244 -20q-46 0 -78 33t-32 79t32 78.5t78 32.5t79.5 -32.5t33.5 -78.5t-33.5 -79t-79.5 -33zM244 726q-46 0 -78 32.5t-32 79t32 79t78 32.5t79.5 -32.5t33.5 -78.5t-33.5 -79t-79.5 -33z" glyph-name="colon" horiz-adv-x="490" unicode=":"/><glyph d="M218 -61q0 40 -31.5 76t-31.5 79q0 44 30.5 76.5t82.5 32.5t82 -43t30 -109q0 -104 -70.5 -199t-169.5 -124l-32 79q110 58 110 132zM153 837.5q0 46.5 32.5 79t79 32.5t79 -32.5t32.5 -79t-32.5 -79t-79 -32.5t-79 32.5t-32.5 79z" glyph-name="semicolon" horiz-adv-x="524" unicode=";"/><glyph d="M70 665l980 458v-150l-809 -375l809 -375v-149l-980 457v134z" glyph-name="less" horiz-adv-x="1182" unicode="&lt;"/><glyph d="M140 320v137h995v-137h-995zM140 740v137h995v-137h-995z" glyph-name="equal" horiz-adv-x="1275" unicode="="/><glyph d="M941 598l-809 375v150l980 -458v-134l-980 -457v149z" glyph-name="greater" horiz-adv-x="1182" unicode=">"/><glyph d="M471 1299q-184 0 -308 -133l-98 91q69 87 174 137.5t215 50.5q201 0 331 -100.5t130 -287.5q0 -177 -37 -205l-200 -152q-164 -125 -167 -306h-136q3 253 98 330t150 118.5t94 87t39 143.5t-79.5 162t-205.5 64zM332 92q0 46 33 78.5t79 32.5t78.5 -32.5t32.5 -78.5 t-32.5 -79t-78.5 -33t-79 33t-33 79z" glyph-name="question" horiz-adv-x="994" unicode="?"/><glyph d="M1122 351q0 -151 97 -151q63 0 116 54.5t83 147t30 208.5t-39 221t-151.5 224t-372.5 119q-144 0 -267 -54.5t-254.5 -202.5t-131.5 -452q0 -187 72.5 -332t209 -227t302.5 -82t292 51l29 -114q-138 -58 -306 -58t-305 56.5t-231.5 156t-147 239.5t-52.5 278t24.5 244 t94.5 247t250 257.5t419 116.5q154 0 285 -51t222 -141t143 -216.5t52 -272.5t-48.5 -268.5t-137.5 -196t-193 -73.5t-156 53t-54 148h-1q-105 -195 -283 -195q-179 0 -213 120.5t-34 192.5t33 185.5t156.5 217t302.5 103.5q118 0 239 -47q-74 -403 -74 -506zM613 404 q0 -188 127 -188q58 0 128.5 58t122.5 237q29 104 43 255q-44 13 -91 13q-94 0 -171 -56t-118 -143.5t-41 -175.5z" glyph-name="at" horiz-adv-x="1697" unicode="@"/><glyph d="M1132 0l-148 396h-641l-146 -396h-161l537 1424h185l544 -1424h-170zM393 532h541l-272 725z" glyph-name="A" horiz-adv-x="1333" unicode="A"/><glyph d="M194 1424h463q260 0 344.5 -126t84.5 -239t-49.5 -190.5t-130.5 -117.5q125 -31 203.5 -124.5t78.5 -222.5t-56 -218.5t-155.5 -137.5t-226.5 -48h-556v1424zM691 664h-341v-524h362q139 0 227 63.5t88 195.5q0 88 -62.5 176.5t-273.5 88.5zM622 1285h-272v-486h292 q121 0 204 62t83 187q0 179 -119 208t-188 29z" glyph-name="B" horiz-adv-x="1276" unicode="B"/><glyph d="M1266 120q-190 -140 -474 -140q-138 0 -270.5 56t-226 152t-148 231t-54.5 289t56 290.5t151.5 234.5t230.5 155t271 57q268 0 463 -144l-73 -113q-168 115 -370 115q-119 0 -224.5 -45t-181 -123.5t-119 -189.5t-43.5 -237t42.5 -234t117 -185.5t178.5 -122t214 -44.5 q224 0 387 113z" glyph-name="C" horiz-adv-x="1318" unicode="C"/><glyph d="M672 0h-478v1424h480q321 0 501.5 -200.5t180.5 -510.5t-131.5 -457t-262 -201.5t-290.5 -54.5zM352 140h281q272 0 418.5 146.5t146.5 425.5q0 424 -214 498t-343 74h-289v-1144z" glyph-name="D" horiz-adv-x="1454" unicode="D"/><glyph d="M194 0v1424h859v-139h-702v-497h611v-140h-611v-509h720v-139h-877z" glyph-name="E" horiz-adv-x="1154" unicode="E"/><glyph d="M351 619v-619h-157v1424h867v-139h-710v-527h589v-139h-589z" glyph-name="F" horiz-adv-x="1128" unicode="F"/><glyph d="M822 1303q-121 0 -227.5 -45.5t-180.5 -124.5t-117 -189t-43 -232t41 -231t112 -188.5t173 -126t210 -46.5q208 0 346.5 123.5t142.5 340.5h-413v134h579q0 -357 -171 -547.5t-468 -190.5q-257 0 -485 174t-228 566q0 138 55 276t150.5 236.5t229.5 155.5t272 57 q272 0 465 -144l-73 -113q-165 115 -370 115z" glyph-name="G" horiz-adv-x="1501" unicode="G"/><glyph d="M194 0v1424h158v-636h787v636h158v-1424h-158v649h-787v-649h-158z" glyph-name="H" horiz-adv-x="1491" unicode="H"/><glyph d="M194 0v1424h158v-1424h-158z" glyph-name="I" horiz-adv-x="546" unicode="I"/><glyph d="M653 437v987h156v-1021q0 -221 -131.5 -322t-267.5 -101q-270 0 -382 196l107 78q93 -129 231 -129t212.5 79.5t74.5 232.5z" glyph-name="J" horiz-adv-x="989" unicode="J"/><glyph d="M352 682v-682h-158v1424h158v-592h46l568 592h195l-635 -662l700 -762h-203l-627 682h-44z" glyph-name="K" horiz-adv-x="1203" unicode="K"/><glyph d="M194 0v1424h158v-1285h678v-139h-836z" glyph-name="L" horiz-adv-x="1056" unicode="L"/><glyph d="M225 1424h191l521 -1031l515 1031h187l58 -1424h-160l-47 1193l-499 -1004h-116l-507 1004l-47 -1193h-153z" glyph-name="M" horiz-adv-x="1864" unicode="M"/><glyph d="M194 0v1424h181l788 -1197l-2 1197h150v-1424h-182l-786 1193l2 -1193h-151z" glyph-name="N" horiz-adv-x="1504" unicode="N"/><glyph d="M93 714q0 154 56.5 290.5t153 232.5t231 152t260.5 56t220 -25.5t215.5 -95.5t215.5 -236t94 -396q0 -229 -174.5 -470.5t-563.5 -241.5q-137 0 -272 56.5t-230 153.5t-150.5 233.5t-55.5 290.5zM816 121q290 0 426 193.5t136 398.5q0 125 -43 234.5t-117 187.5t-178 123 t-223.5 45t-224 -45t-179 -123.5t-117 -188t-42.5 -255.5t72.5 -281t201 -212t288.5 -77z" glyph-name="O" unicode="O"/><glyph d="M350 525v-525h-156v1424h506q225 0 347 -126t122 -317q0 -130 -55.5 -232.5t-162.5 -163t-249 -60.5h-352zM350 666h315q165 0 255.5 83t90.5 230t-90.5 226t-255.5 79h-315v-618z" glyph-name="P" horiz-adv-x="1232" unicode="P"/><glyph d="M1378 713q0 125 -43 234.5t-117 187.5t-178 123t-223.5 45t-224 -45t-179 -123.5t-117 -188t-42.5 -255.5t72.5 -281t201 -212t292.5 -77t295 84l-273 310l112 96l276 -308q148 167 148 410zM816 -20q-152 0 -287 56.5t-230 153.5t-150.5 233.5t-55.5 290.5t56.5 290.5 t153 232.5t231 152t260.5 56t220 -25.5t215.5 -95.5t215.5 -236t94 -347q0 -341 -207 -552l91 -102l-118 -96l-91 103q-178 -114 -398 -114z" glyph-name="Q" unicode="Q"/><glyph d="M194 0v1424h500q218 0 343.5 -120t125.5 -291t-88.5 -283t-241.5 -149l352 -581h-185l-335 566h-315v-566h-156zM350 707h309q163 0 254 74.5t91 214.5t-93 214t-252 74h-309v-577z" glyph-name="R" horiz-adv-x="1267" unicode="R"/><glyph d="M114 1050q0 87 36 163.5t132 154t322 77.5t423 -143l-73 -113q-76 55 -174.5 85.5t-188.5 30.5t-161 -28t-115 -84.5t-44 -116.5t12.5 -94.5t52.5 -74.5t126.5 -72t168 -54.5t125.5 -37.5t68.5 -27t60.5 -31.5t78 -59.5t66.5 -99.5t24.5 -149.5t-39.5 -168t-143.5 -153 t-315 -75q-269 0 -483 164l73 115q185 -137 399 -137t282.5 85t68.5 179t-76.5 148.5t-171 84t-145 44t-94 29.5t-67.5 27t-60 31.5t-76.5 57t-66 96.5t-25.5 146z" glyph-name="S" horiz-adv-x="1139" unicode="S"/><glyph d="M1124 1424v-140h-462v-1284h-159v1284h-462v140h1083z" glyph-name="T" horiz-adv-x="1165" unicode="T"/><glyph d="M1116 503v921h155v-920q0 -156 -69 -275.5t-193.5 -184t-285.5 -64.5t-285 64.5t-192 183.5t-68 275v921h158v-921q0 -115 50 -202t138.5 -133t201.5 -46q174 0 282 104.5t108 276.5z" glyph-name="U" horiz-adv-x="1448" unicode="U"/><glyph d="M219 1424l407 -1207l406 1207h162l-492 -1424h-160l-492 1424h169z" glyph-name="V" horiz-adv-x="1243" unicode="V"/><glyph d="M54 1424h168l367 -1200l311 1012h156l315 -1014l368 1202h162l-454 -1424h-163l-311 992l-306 -992h-163z" glyph-name="W" horiz-adv-x="1952" unicode="W"/><glyph d="M10 0l517 735l-483 689h190l390 -561l398 561h183l-489 -682l512 -742h-188l-421 613l-426 -613h-183z" glyph-name="X" horiz-adv-x="1243" unicode="X"/><glyph d="M724 0h-157v600l-510 824h184l409 -671l422 671h174l-522 -826v-598z" glyph-name="Y" horiz-adv-x="1295" unicode="Y"/><glyph d="M1085 141v-141h-1022v121l811 1164h-784v139h983v-124l-810 -1159h822z" glyph-name="Z" horiz-adv-x="1155" unicode="Z"/><glyph d="M329 1356v-1570h215v-121h-355v1809h357v-118h-217z" glyph-name="bracketleft" horiz-adv-x="611" unicode="["/><glyph d="M645 -164l-579 1638h140l578 -1638h-139z" glyph-name="backslash" horiz-adv-x="853" unicode="\"/><glyph d="M66 1356v118h357v-1809h-356v121h216v1570h-217z" glyph-name="bracketright" horiz-adv-x="611" unicode="]"/><glyph d="M581 1424l337 -754h-143l-270 598l-272 -598h-143l338 754h153z" glyph-name="asciicircum" horiz-adv-x="1008" unicode="^"/><glyph d="M133 -288v103h1039v-103h-1039z" glyph-name="underscore" horiz-adv-x="1305" unicode="_"/><glyph d="M237 1162l-240 297h191l181 -297h-132z" glyph-name="grave" horiz-adv-x="424" unicode="`"/><glyph d="M510 1022q422 0 422 -339v-426q0 -71 13.5 -108t49.5 -55l-18 -114q-77 0 -132.5 42.5t-55.5 130.5l-1 1q-47 -76 -148.5 -125t-199.5 -49q-171 0 -272.5 75.5t-101.5 220.5t113 233t327 88q118 0 274 -30v82q0 240 -275 240q-160 0 -304 -74l-50 110q147 97 359 97z M502 474q-135 0 -210.5 -50t-75.5 -141q0 -129 87 -151.5t139 -22.5t114 19t111.5 52t81 81.5t31.5 102.5v81q-143 29 -278 29z" glyph-name="a" horiz-adv-x="1089" unicode="a"/><glyph d="M151 0v1459l153 31v-641h1q58 84 149.5 128.5t194.5 44.5t190 -36.5t152.5 -102.5t104 -166.5t38.5 -210.5t-38.5 -232t-160.5 -208t-276 -86q-228 0 -362 185l-16 -165h-130zM639 117q151 0 245.5 104.5t94.5 276.5t-94.5 279t-244.5 107t-245.5 -103.5t-95.5 -275.5 q0 -232 119 -310t221 -78z" glyph-name="b" horiz-adv-x="1220" unicode="b"/><glyph d="M86 495q0 119 41 219t151 204t330 104q177 0 312 -89l-67 -112q-115 64 -231 64t-200.5 -47.5t-133 -136t-48.5 -202.5t48.5 -201.5t132 -133.5t201.5 -46t233 69l77 -105q-147 -102 -321 -102t-349.5 113t-175.5 402z" glyph-name="c" horiz-adv-x="983" unicode="c"/><glyph d="M87 495q0 246 140.5 386.5t339.5 140.5q108 0 199.5 -44.5t149.5 -128.5h1v610l153 31v-1490h-130l-16 165q-134 -185 -362 -185q-154 0 -314.5 113t-160.5 402zM582 117q102 0 221 78t119 310q0 172 -95 275.5t-245 103.5t-245 -107t-95 -279t94.5 -276.5t245.5 -104.5z " glyph-name="d" horiz-adv-x="1220" unicode="d"/><glyph d="M86 493q0 241 142.5 385t353.5 144t339.5 -143.5t128.5 -354.5q0 -39 -5 -72h-804q12 -157 108.5 -247.5t254.5 -90.5t295 96l72 -101q-154 -129 -376 -129q-266 0 -387.5 159t-121.5 354zM352.5 798q-92.5 -89 -107.5 -227h651q-6 129 -88 222.5t-222 93.5 q-141 0 -233.5 -89z" glyph-name="e" horiz-adv-x="1118" unicode="e"/><glyph d="M34 868v134h188v161q0 157 88.5 242t247.5 85q69 0 142 -17l-19 -127q-66 10 -102 10q-114 0 -158.5 -53t-44.5 -174v-127h270v-134h-270v-868h-154v868h-188z" glyph-name="f" horiz-adv-x="666" unicode="f"/><glyph d="M1069 1002v-965q0 -229 -139.5 -353.5t-361.5 -124.5t-392 134l76 103q141 -99 307 -99q275 0 316 148t41 227v115h-1q-57 -84 -151 -129.5t-186 -45.5t-196 31t-199 155.5t-95 318.5q0 286 163 395.5t294 109.5q254 0 375 -183l16 163h133zM919 516q0 164 -94 266 t-245 102q-101 0 -219 -73t-118 -294q0 -161 94 -264.5t245 -103.5q152 0 244.5 101.5t92.5 265.5z" glyph-name="g" horiz-adv-x="1219" unicode="g"/><glyph d="M661 1022q185 0 289 -112t104 -304v-606h-153v571q0 144 -68 227.5t-202 83.5q-92 0 -166.5 -38t-117.5 -108.5t-43 -159.5v-576h-153v1459l153 31v-637h1q121 169 356 169z" glyph-name="h" horiz-adv-x="1192" unicode="h"/><glyph d="M227 1222q-45 0 -76.5 31.5t-31.5 76.5t31.5 76.5t76.5 31.5t76.5 -31.5t31.5 -76.5t-31.5 -76.5t-76.5 -31.5zM151 0v1002h153v-1002h-153z" glyph-name="i" horiz-adv-x="454" unicode="i"/><glyph d="M227 1222q-45 0 -76.5 31.5t-31.5 76.5t31.5 76.5t76.5 31.5t76.5 -31.5t31.5 -76.5t-31.5 -76.5t-76.5 -31.5zM150 -43v1045h154v-1114q0 -225 -131.5 -276t-195.5 -53l-19 128q101 25 146.5 78.5t45.5 191.5z" glyph-name="j" horiz-adv-x="454" unicode="j"/><glyph d="M304 476v-476h-153v1459l153 31v-877h44l384 389h197l-448 -455l484 -547h-195l-422 476h-44z" glyph-name="k" horiz-adv-x="961" unicode="k"/><glyph d="M147 197v1262l153 31v-1221q0 -72 14 -110.5t53 -56.5l-20 -122q-86 0 -143 55.5t-57 161.5z" glyph-name="l" horiz-adv-x="465" unicode="l"/><glyph d="M615 1022q110 0 195 -53.5t123 -151.5q57 99 149 152t194 53q190 0 277 -114.5t87 -301.5v-606h-154v586q0 186 -75 241t-156 55q-132 1 -208 -90.5t-76 -230.5v-561h-153v586q0 296 -232 296q-87 0 -185 -66t-98 -255v-561h-153v1002h130l16 -156q110 176 319 176z" glyph-name="m" horiz-adv-x="1778" unicode="m"/><glyph d="M655 1022q184 0 285.5 -112t101.5 -304v-606h-153v586q0 138 -68.5 217t-204.5 79t-224 -89t-88 -228v-565h-154v1002h130l17 -158q127 178 358 178z" glyph-name="n" horiz-adv-x="1180" unicode="n"/><glyph d="M596 -20q-108 0 -202.5 38.5t-162.5 106t-107 164.5t-39 211t39.5 211.5t108 165t163.5 106.5t203 39t202 -38t162.5 -105t108 -164t39.5 -211t-40 -212t-109 -166.5t-163.5 -107t-202.5 -38.5zM595 117q154 0 257 108.5t103 276.5t-101 275t-256 107t-256.5 -107.5 t-101.5 -275.5q0 -111 46 -199t127 -136.5t182 -48.5z" glyph-name="o" horiz-adv-x="1195" unicode="o"/><glyph d="M297 836q134 186 367 186q232 0 350.5 -158t118.5 -358q0 -244 -139.5 -385t-339.5 -141q-108 0 -199.5 44.5t-149.5 127.5h-1v-562l-154 -31v1443h130zM978 504q0 172 -94.5 276t-245.5 104q-102 0 -221 -77t-119 -311q0 -172 95 -275t245 -103t245 107t95 279z" glyph-name="p" horiz-adv-x="1221" unicode="p"/><glyph d="M562 1022q231 0 362 -186l17 166h130v-1412l-154 -31v593h-1q-58 -84 -149.5 -128t-194.5 -44q-205 0 -344.5 141t-139.5 385q0 288 160.5 402t313.5 114zM582 118q150 0 245.5 103t95.5 275q0 111 -41 199t-119 138.5t-180 50.5q-151 0 -245.5 -104t-94.5 -276 t94.5 -279t244.5 -107z" glyph-name="q" horiz-adv-x="1220" unicode="q"/><glyph d="M595 1022q64 0 120 -16l-24 -141q-52 15 -107 15t-124 -29t-113 -127.5t-44 -226.5v-497h-153v1002h130l17 -163h2q98 183 296 183z" glyph-name="r" horiz-adv-x="721" unicode="r"/><glyph d="M139 207q141 -94 297 -94t187.5 59.5t31.5 95.5t-18.5 65t-50.5 47.5t-73 33t-86.5 27t-117.5 36t-137.5 82.5t-65.5 174q0 208 141 248.5t214 40.5q179 0 318 -95l-64 -105q-112 69 -244 69q-83 0 -148.5 -34t-65.5 -109q0 -74 57 -112.5t116.5 -53.5t102 -29 t102.5 -35.5t116.5 -81t56.5 -146.5q0 -161 -107.5 -235.5t-284.5 -74.5t-351 126z" glyph-name="s" horiz-adv-x="885" unicode="s"/><glyph d="M29 868v134h187v319l153 31v-350h265v-134h-265v-486q0 -128 48.5 -188.5t180.5 -86.5l-19 -127q-185 7 -274 103.5t-89 228.5v556h-187z" glyph-name="t" horiz-adv-x="664" unicode="t"/><glyph d="M1019 1002v-1002h-130l-16 154q-122 -175 -349 -174q-185 0 -285.5 112t-100.5 304v606h154v-587q0 -139 65.5 -217t201.5 -78t221.5 88.5t85.5 228.5v565h153z" glyph-name="u" horiz-adv-x="1169" unicode="u"/><glyph d="M218 1002l309 -832l323 832h157l-405 -1002h-160l-391 1002h167z" glyph-name="v" horiz-adv-x="1050" unicode="v"/><glyph d="M54 1002h167l271 -815l266 815h159l262 -815l283 815h156l-363 -1002h-157l-264 816l-268 -816h-157z" glyph-name="w" horiz-adv-x="1668" unicode="w"/><glyph d="M20 0l382 517l-353 485h185l260 -365l262 365h174l-347 -477l392 -525h-187l-296 406l-295 -406h-177z" glyph-name="x" horiz-adv-x="988" unicode="x"/><glyph d="M228 -441q-80 0 -138 21l21 128q91 -20 164.5 8t125.5 153l51 126l-399 1007h168l312 -821l325 821h159l-502 -1229q-42 -104 -124.5 -159t-162.5 -55z" glyph-name="y" horiz-adv-x="1058" unicode="y"/><glyph d="M909 132v-132h-840v120l628 750h-601v132h809v-116l-633 -754h637z" glyph-name="z" horiz-adv-x="988" unicode="z"/><glyph d="M367 1062v-111q0 -148 -16.5 -200t-41 -102.5t-92.5 -78.5q97 -46 123.5 -156.5t26.5 -226.5v-110q0 -200 63 -246t114 -55l-12 -111q-119 18 -173 58.5t-93 106.5t-39 217q0 236 -33 340.5t-129 126.5v112q96 21 129 125.5t33 335.5t94.5 300t210.5 87l12 -111 q-177 -31 -177 -301z" glyph-name="braceleft" horiz-adv-x="616" unicode="{"/><glyph d="M187 -421v1891h134v-1891h-134z" glyph-name="bar" horiz-adv-x="508" unicode="|"/><glyph d="M249 77v110q0 221 51 290.5t99 92.5q-70 29 -102.5 98t-40 139t-7.5 144v111q0 199 -63.5 245.5t-114.5 55.5l13 111q184 -28 244 -128t60 -253q0 -237 34 -341.5t129 -125.5v-112q-95 -22 -129 -127t-34 -335t-93.5 -299.5t-210.5 -87.5l-13 111q103 18 140.5 99.5 t37.5 201.5z" glyph-name="braceright" horiz-adv-x="615" unicode="}"/><glyph d="M859 624q63 0 97.5 43.5t50.5 133.5h138q-15 -153 -85.5 -233.5t-180.5 -80.5t-181.5 46t-139.5 92t-131 46t-97 -43t-50 -133h-139q15 154 85.5 234t181.5 80t182 -46.5t138.5 -92.5t130.5 -46z" glyph-name="asciitilde" horiz-adv-x="1274" unicode="~"/><glyph d="M252 869q-46 0 -79.5 33t-33.5 79t33.5 79t79.5 33t78.5 -33.5t32.5 -79.5t-32.5 -78.5t-78.5 -32.5zM167 -352l19 1030h131l19 -1030h-169z" glyph-name="exclamdown" horiz-adv-x="502" unicode="¡"/><glyph d="M654 -9h-127v186q-179 26 -304.5 157t-125.5 349t122 356t308 166v187h127v-181q159 -9 277 -88l-67 -112q-114 64 -230 64t-201 -47.5t-133.5 -135.5t-48.5 -188q0 -189 105.5 -292.5t249.5 -103.5t260 69l77 -105q-131 -90 -289 -101v-180z" glyph-name="cent" horiz-adv-x="1039" unicode="¢"/><glyph d="M106 603v131h164q-24 134 -24 222t33.5 197t143 179t253.5 70t228.5 -63.5t122.5 -133.5l-106 -78q-86 130 -235 130t-217 -86.5t-68 -220.5q0 -75 26 -216h259v-131h-238q8 -71 8 -121t-12 -118t-40.5 -120.5t-69.5 -106.5h683v-137h-911v122q80 50 138 153.5t58 220.5 q-1 44 -10 107h-186z" glyph-name="sterling" horiz-adv-x="1122" unicode="£"/><glyph d="M624 255q-142 0 -255 84l-143 -145l-92 94l144 141q-84 115 -83 256q0 141 85 253l-146 143l92 93l146 -146q116 84 256 84t254 -82l144 143l94 -92l-145 -141q88 -116 88 -258t-87 -255l144 -139l-94 -94l-143 145q-117 -84 -259 -84zM623 388q81 0 150 38t110.5 106 t41.5 150q0 122 -87.5 209.5t-209.5 87.5t-210.5 -86t-88.5 -208q0 -79 38.5 -147.5t106.5 -109t149 -40.5z" glyph-name="currency" horiz-adv-x="1253" unicode="¤"/><glyph d="M641 449h291v-115h-291v-334h-154v334h-280v115h280v132l-4 7h-276v115h216l-357 679h162l337 -650l351 650h161l-369 -679h224v-115h-287l-4 -9v-130z" glyph-name="yen" horiz-adv-x="1141" unicode="¥"/><glyph d="M145 -311v653h135v-653h-135zM145 708v652h135v-652h-135z" glyph-name="brokenbar" horiz-adv-x="424" unicode="¦"/><glyph d="M559 1319q-185 0 -221.5 -73t-36.5 -124t35 -95.5t90 -73t180 -74.5t223.5 -103.5t98.5 -195.5q0 -168 -194 -280q164 -86 164 -248t-125.5 -253.5t-304.5 -91.5q-180 0 -351 123l72 97q139 -93 262 -93t207.5 48t84.5 142t-71 144t-162.5 83.5t-179.5 67t-163 96.5 t-75 171q0 171 221 276q-167 91 -167 266q0 174 136.5 245.5t289.5 71.5q154 0 291 -93l-60 -101q-115 68 -244 68zM782 556q0 70 -58.5 113.5t-161.5 82.5l-140 52q-83 -40 -118 -68t-51 -58t-16 -83q0 -52 47.5 -93t157.5 -84l172 -67q168 85 168 205z" glyph-name="section" horiz-adv-x="1018" unicode="§"/><glyph d="M215 1197q-41 0 -70 28.5t-29 69.5t29 70t70 29t69.5 -28.5t28.5 -70t-28.5 -70t-69.5 -28.5zM551 1197q-41 0 -69.5 28.5t-28.5 69.5t28.5 70t69.5 29t69.5 -28.5t28.5 -70t-28.5 -70t-69.5 -28.5z" glyph-name="dieresis" horiz-adv-x="765" unicode="¨"/><glyph d="M839 262q-186 0 -281.5 130t-95.5 312q0 234 117 346t251 112t240.5 -65.5t122.5 -192.5h-116q-11 73 -77 114.5t-150 41.5q-122 0 -194 -91t-72 -255t69.5 -254.5t187.5 -90.5q88 0 155 48.5t81 128.5h116q-12 -127 -112 -205.5t-242 -78.5zM97 740q0 126 57.5 261 t155.5 232t233.5 154.5t286 57.5t286.5 -57.5t233.5 -154.5t155 -233t57.5 -286t-57.5 -286.5t-155 -234.5t-233.5 -155.5t-262 -57.5t-221 26t-175 73t-147.5 115t-114.5 148.5t-73 176t-26 221.5zM1452 712q0 130 -48.5 247.5t-131.5 201t-198.5 132t-243.5 48.5 t-243.5 -48.5t-198.5 -132t-131.5 -200t-48.5 -247t48.5 -248t131.5 -201t198 -132.5t244 -49t244 49t198 132.5t131.5 200.5t48.5 247z" glyph-name="copyright" horiz-adv-x="1659" unicode="©"/><glyph d="M562 809q-80 -91 -224 -91t-192 68t-48 132q0 98 75.5 157t219.5 59q76 0 160 -16v38q0 142 -160 142q-99 0 -202 -52l-40 90q101 69 243 69q283 0 283 -227v-272q0 -42 8.5 -64t32.5 -34l-14 -90q-53 0 -92 23t-50 68zM402 1034q-180 0 -180 -112q0 -51 36 -75t87 -24 t97.5 19t78.5 54.5t32 78.5v43q-87 16 -151 16z" glyph-name="ordfeminine" horiz-adv-x="834" unicode="ª"/><glyph d="M376 118l-285 402l285 404h151l-259 -404l259 -402h-151zM747 118l-284 402l284 404h151l-259 -404l259 -402h-151z" glyph-name="guillemotleft" horiz-adv-x="999" unicode="«"/><glyph d="M975 205v449h-845v137h996v-586h-151z" glyph-name="logicalnot" horiz-adv-x="1271" unicode="¬"/><glyph d="M134 476v130h525v-130h-525z" glyph-name="uni00AD" horiz-adv-x="793" unicode="­"/><glyph d="M768 1110q0 -117 -109 -147l114 -231h-103l-105 218h-101v-218h-92v531h189q207 0 207 -153zM550 533q-94 0 -178.5 36t-145.5 96.5t-96.5 145t-35.5 178.5t35.5 178.5t96.5 145t145.5 96.5t178.5 36t178.5 -36t145.5 -96.5t96.5 -145t35.5 -178.5t-35.5 -178.5 t-96.5 -145t-145.5 -96.5t-178.5 -36zM550.5 618q101.5 0 185.5 48.5t132.5 133.5t48.5 188.5t-48.5 188t-132.5 133.5t-185.5 49t-185.5 -49t-133 -134.5t-49 -187.5t49 -187.5t133 -134t185.5 -48.5zM554 1029q123 0 123 79q0 42 -30.5 59t-95.5 17h-87v-155h90z" glyph-name="registered" horiz-adv-x="1099" unicode="®"/><glyph d="M136 1234v115h569v-115h-569z" glyph-name="macron" horiz-adv-x="841" unicode="¯"/><glyph d="M95 1158q0 78 38 144t104.5 104.5t144.5 38.5q119 0 203 -84.5t84 -203.5t-83.5 -202.5t-203.5 -83.5t-203.5 84t-83.5 203zM382.5 977q75.5 0 128 52.5t52.5 128t-52.5 128.5t-128 53t-128.5 -53t-53 -128.5t53 -128t128.5 -52.5z" glyph-name="degree" horiz-adv-x="763" unicode="°"/><glyph d="M558 290v377h-424v134h424v372h147v-372h424v-134h-424v-377h-147zM134 23v137h995v-137h-995z" glyph-name="plusminus" horiz-adv-x="1263" unicode="±"/><glyph d="M315 1663q114 0 189.5 -67t75.5 -169t-51.5 -165.5t-110.5 -110.5t-113 -92t-84 -106h372v-116h-536v82q38 104 102.5 166.5t134 118t114.5 99t45 107.5t-38 100t-115 36t-157 -87l-82 77q97 127 254 127z" glyph-name="uni00B2" horiz-adv-x="658" unicode="²"/><glyph d="M453 1273q133 -61 133 -203q0 -72 -62.5 -157.5t-215.5 -85.5t-264 112l75 84q95 -79 180 -79t122 45.5t37 92.5t-38 81.5t-79 40.5t-135 9v112q80 0 124 9t71 36.5t27 75.5t-39 74.5t-102 26.5t-150 -61l-66 89q104 91 222 91t191 -60t73 -164t-104 -169z" glyph-name="uni00B3" horiz-adv-x="650" unicode="³"/><glyph d="M56 1162l181 297h191l-240 -297h-132z" glyph-name="acute" horiz-adv-x="425" unicode="´"/><glyph d="M823 207q-85 -227 -308 -227q-111 0 -203 105v-506h-133v1423h133v-636q0 -154 74 -206t153 -52t173.5 84t94.5 346v464h135v-652q0 -33 0.5 -49.5t1 -44.5t3 -43t11.5 -61.5t74 -69.5v-102q-150 0 -176 95t-32 132h-1z" glyph-name="uni00B5" horiz-adv-x="1151" unicode="µ"/><glyph d="M661 1314v-1637h-126v928q-143 2 -249.5 55t-163 147.5t-56.5 218.5q0 189 132.5 293.5t361.5 104.5h517v-1747h-125v1637h-291z" glyph-name="paragraph" horiz-adv-x="1290" unicode="¶"/><glyph d="M244 473q-46 0 -79.5 32.5t-33.5 78.5t33.5 79t79.5 33t78.5 -33t32.5 -79t-32.5 -78.5t-78.5 -32.5z" glyph-name="periodcentered" horiz-adv-x="486" unicode="·"/><glyph d="M380 -246q0 -60 -44.5 -112.5t-150.5 -52.5q-105 0 -168 35l30 78q59 -28 107 -28q104 0 105 69q0 69 -73.5 82t-97.5 13l96 162h107l-69 -106q67 -5 112.5 -42.5t45.5 -97.5z" glyph-name="cedilla" horiz-adv-x="435" unicode="¸"/><glyph d="M399 953h178v-116h-497v116h194v506q-87 -15 -190 -16v101q109 0 158 37.5t58 74.5h99v-703z" glyph-name="uni00B9" horiz-adv-x="615" unicode="¹"/><glyph d="M434 718q-96 0 -173 43t-121.5 122t-44.5 166q0 166 98.5 261t243.5 95q96 0 173.5 -42.5t122.5 -120.5t45 -178t-45.5 -179.5t-124 -123t-174.5 -43.5zM434 828q92 0 154.5 66.5t62.5 168.5t-61.5 167t-153.5 65t-153 -65.5t-61 -167.5t60 -168t152 -66z" glyph-name="ordmasculine" horiz-adv-x="872" unicode="º"/><glyph d="M101 118l260 402l-259 404h151l285 -404l-285 -402h-152zM474 118l258 402l-258 404h150l285 -404l-285 -402h-150z" glyph-name="guillemotright" horiz-adv-x="1000" unicode="»"/><glyph d="M419 722h179v-116h-497v116h194v506q-93 -15 -191 -16v100q109 0 158.5 38t57.5 75h99v-703zM1451 0h-125v178h-383v94l399 546h110v-527h115v-113h-116v-178zM391 -41l848 1506h136l-850 -1506h-134zM1326 291v319l-235 -319h235z" glyph-name="onequarter" horiz-adv-x="1638" unicode="¼"/><glyph d="M1385 826q114 0 189.5 -67t75.5 -183t-74.5 -184.5t-110.5 -97t-90.5 -73.5t-84.5 -106h373v-116h-536v82q40 109 108 173t133 116t110 96t45 107q0 62 -38.5 98.5t-101.5 36.5q-92 0 -171 -87l-81 77q96 128 254 128zM414 722h178v-116h-497v116h194v506 q-93 -15 -190 -16v100q108 0 157.5 38t58.5 75h99v-703zM385 -41l849 1506h135l-849 -1506h-135z" glyph-name="onehalf" horiz-adv-x="1739" unicode="½"/><glyph d="M484 1042q132 -62 132 -204q0 -72 -62 -157t-216 -85t-265 112l75 84q95 -79 181 -79t122.5 45t36.5 92t-38 82.5t-80 41.5t-134 8v112q80 0 124 9t71 36t27 75t-39 75t-100 27t-152 -61l-66 89q104 90 222 90t191 -60t73 -164t-103 -168zM1274 0v178h-383v94l399 546 h110v-527h116v-113h-116v-178h-126zM1188 1465h136l-850 -1506h-134zM1274 291v319l-235 -319h235z" glyph-name="threequarters" horiz-adv-x="1587" unicode="¾"/><glyph d="M516 -227q185 0 308 134l98 -91q-69 -87 -174 -137.5t-215 -50.5q-204 0 -332.5 100t-128.5 287q0 175 100 252.5t153 118t101 109.5t50 183h136q-3 -251 -97.5 -328.5t-151.5 -121t-95 -88.5t-38 -142t80 -161t206 -64zM432 980q0 46 32.5 79.5t79 33.5t79 -33.5 t32.5 -79.5t-32.5 -78.5t-79 -32.5t-79 32.5t-32.5 78.5z" glyph-name="questiondown" horiz-adv-x="978" unicode="¿"/><glyph d="M1132 0l-148 396h-641l-146 -396h-161l537 1424h185l544 -1424h-170zM575 1569l-257 239h205l193 -239h-141zM393 532h541l-272 725z" glyph-name="Agrave" horiz-adv-x="1333" unicode="À"/><glyph d="M1132 0l-148 396h-641l-146 -396h-161l537 1424h185l544 -1424h-170zM630 1564l193 240h205l-257 -240h-141zM393 532h541l-272 725z" glyph-name="Aacute" horiz-adv-x="1333" unicode="Á"/><glyph d="M1132 0l-148 396h-641l-146 -396h-161l537 1424h185l544 -1424h-170zM742 1804l216 -240h-141l-140 161l-144 -161h-137l211 240h135zM393 532h541l-272 725z" glyph-name="Acircumflex" horiz-adv-x="1333" unicode="Â"/><glyph d="M764 1683q51 0 66 95h99q-10 -99 -52 -150t-99 -51t-85.5 25t-53.5 50t-51 25q-50 0 -66 -95h-100q10 98 52 149.5t104 51.5t108 -50t78 -50zM984 396h-641l-146 -396h-161l537 1424h185l544 -1424h-170zM934 532l-272 725l-269 -725h541z" glyph-name="Atilde" horiz-adv-x="1333" unicode="Ã"/><glyph d="M509.5 1577q-41.5 0 -70.5 28.5t-29 69.5t29 70t70.5 29t69.5 -28.5t28 -70.5t-28 -70t-69.5 -28zM846 1577q-42 0 -70.5 28.5t-28.5 69.5t28.5 70t70 29t70 -28.5t28.5 -70.5t-28 -70t-70 -28zM1132 0l-148 396h-641l-146 -396h-161l537 1424h185l544 -1424h-170z M393 532h541l-272 725z" glyph-name="Adieresis" horiz-adv-x="1333" unicode="Ä"/><glyph d="M676 1546q-84 0 -143 59t-59 143t59 142t143 58t142 -59t58 -142t-58 -142t-142 -59zM676 1630q48 0 82 34t34 82.5t-34 83t-82 34.5t-82.5 -34.5t-34.5 -83t34.5 -82.5t82.5 -34zM1132 0l-148 396h-641l-146 -396h-161l537 1424h185l544 -1424h-170zM393 532h541 l-272 725z" glyph-name="Aring" horiz-adv-x="1333" unicode="Å"/><glyph d="M1096 1285v-497h611v-140h-611v-509h719v-139h-876v372h-527l-210 -372h-175l815 1424h955v-139h-701zM939 508v777h-12l-440 -777h452z" glyph-name="AE" horiz-adv-x="1898" unicode="Æ"/><glyph d="M821 1303q-119 0 -224 -45t-181 -123.5t-119.5 -189.5t-43.5 -237t43 -234t117 -185.5t178.5 -122t214.5 -44.5q226 0 386 113l74 -115q-175 -129 -433 -140l-62 -98q67 -4 112 -41t45 -91q0 -93 -64 -133t-150 -40q-87 0 -149 36l29 78q60 -28 108 -28q104 0 104 67 q0 72 -72.5 84t-97.5 12l93 158q-138 13 -256 74t-201 155.5t-131 222t-48 276.5t56 286t151.5 235t229.5 155t270 57q270 0 464 -144l-73 -113q-168 115 -370 115z" glyph-name="Ccedilla" horiz-adv-x="1317" unicode="Ç"/><glyph d="M194 0v1424h859v-139h-702v-497h611v-140h-611v-509h720v-139h-877zM579 1569l-256 239h204l193 -239h-141z" glyph-name="Egrave" horiz-adv-x="1154" unicode="È"/><glyph d="M194 0v1424h859v-139h-702v-497h611v-140h-611v-509h720v-139h-877zM535 1564l193 240h205l-257 -240h-141z" glyph-name="Eacute" horiz-adv-x="1154" unicode="É"/><glyph d="M194 0v1424h859v-139h-702v-497h611v-140h-611v-509h720v-139h-877zM697 1804l216 -240h-141l-140 161l-144 -161h-137l211 240h135z" glyph-name="Ecircumflex" horiz-adv-x="1154" unicode="Ê"/><glyph d="M462 1579q-42 0 -70 28.5t-28 69.5t29 70t70 29t69 -28.5t28 -70.5t-28 -70t-70 -28zM798 1579q-42 0 -70 28.5t-28 69.5t29 70t70.5 29t69.5 -28.5t28 -70.5t-28.5 -70t-70.5 -28zM194 0v1424h859v-139h-702v-497h611v-140h-611v-509h720v-139h-877z" glyph-name="Edieresis" horiz-adv-x="1154" unicode="Ë"/><glyph d="M214 1569l-257 239h205l193 -239h-141zM194 0v1424h158v-1424h-158z" glyph-name="Igrave" horiz-adv-x="546" unicode="Ì"/><glyph d="M194 0v1424h158v-1424h-158zM202 1564l193 240h205l-257 -240h-141z" glyph-name="Iacute" horiz-adv-x="546" unicode="Í"/><glyph d="M339 1804l216 -240h-141l-141 161l-143 -161h-137l211 240h135zM194 0v1424h158v-1424h-158z" glyph-name="Icircumflex" horiz-adv-x="546" unicode="Î"/><glyph d="M106 1579q-41 0 -70.5 28.5t-29.5 69.5t29.5 70t70.5 29t69 -28.5t28 -70.5t-28 -70t-69 -28zM442 1579q-41 0 -70 28.5t-29 69.5t29 70t70 29t69 -28.5t28 -70.5t-28 -70t-69 -28zM194 0v1424h158v-1424h-158z" glyph-name="Idieresis" horiz-adv-x="546" unicode="Ï"/><glyph d="M208 775v649h480q386 0 534 -233t148 -480q0 -246 -117 -427.5t-277.5 -232.5t-289.5 -51h-478v642h-143v133h143zM366 1284v-509h280v-133h-280v-502h281q272 0 418.5 146.5t146.5 425.5q0 424 -214 498t-343 74h-289z" glyph-name="Eth" horiz-adv-x="1468" unicode="Ð"/><glyph d="M850 1683q51 0 66 95h99q-10 -99 -52 -150t-99 -51t-85.5 25t-53.5 50t-51 25q-51 0 -67 -95h-99q10 98 52 149.5t99 51.5t85.5 -25t52.5 -50t53 -25zM194 0v1424h181l788 -1197l-2 1197h150v-1424h-182l-786 1193l2 -1193h-151z" glyph-name="Ntilde" horiz-adv-x="1504" unicode="Ñ"/><glyph d="M93 714q0 154 56.5 290.5t153 232.5t231 152t260.5 56t220 -25.5t215.5 -95.5t215.5 -236t94 -396q0 -229 -174.5 -470.5t-563.5 -241.5q-137 0 -272 56.5t-230 153.5t-150.5 233.5t-55.5 290.5zM816 121q290 0 426 193.5t136 398.5q0 125 -43 234.5t-117 187.5t-178 123 t-223.5 45t-224 -45t-179 -123.5t-117 -188t-42.5 -255.5t72.5 -281t201 -212t288.5 -77zM772 1577l-256 239h204l194 -239h-142z" glyph-name="Ograve" unicode="Ò"/><glyph d="M93 714q0 154 56.5 290.5t153 232.5t231 152t260.5 56t220 -25.5t215.5 -95.5t215.5 -236t94 -396q0 -229 -174.5 -470.5t-563.5 -241.5q-137 0 -272 56.5t-230 153.5t-150.5 233.5t-55.5 290.5zM816 121q290 0 426 193.5t136 398.5q0 125 -43 234.5t-117 187.5t-178 123 t-223.5 45t-224 -45t-179 -123.5t-117 -188t-42.5 -255.5t72.5 -281t201 -212t288.5 -77zM733 1573l194 240h204l-257 -240h-141z" glyph-name="Oacute" unicode="Ó"/><glyph d="M93 714q0 154 56.5 290.5t153 232.5t231 152t260.5 56t220 -25.5t215.5 -95.5t215.5 -236t94 -396q0 -229 -174.5 -470.5t-563.5 -241.5q-137 0 -272 56.5t-230 153.5t-150.5 233.5t-55.5 290.5zM816 121q290 0 426 193.5t136 398.5q0 125 -43 234.5t-117 187.5t-178 123 t-223.5 45t-224 -45t-179 -123.5t-117 -188t-42.5 -255.5t72.5 -281t201 -212t288.5 -77zM882 1813l215 -240h-140l-142 160l-142 -160h-138l211 240h136z" glyph-name="Ocircumflex" unicode="Ô"/><glyph d="M904 1689q51 0 67 95h99q-10 -99 -52 -150t-99 -51t-85.5 25t-53.5 50t-51 25q-52 0 -67 -95h-100q10 98 52.5 149.5t99.5 51.5t85.5 -25t52.5 -50t52 -25zM93 714q0 154 56.5 290.5t153 232.5t231 152t260.5 56t220 -25.5t215.5 -95.5t215.5 -236t94 -396 q0 -229 -174.5 -470.5t-563.5 -241.5q-137 0 -272 56.5t-230 153.5t-150.5 233.5t-55.5 290.5zM1378 726q0 112 -43 221.5t-117 187.5t-178 123t-223.5 45t-224 -45t-179 -123.5t-117 -188t-42.5 -255.5t72.5 -281t201 -212t288.5 -77q290 0 426 193.5t136 411.5z" glyph-name="Otilde" unicode="Õ"/><glyph d="M649 1585q-41 0 -70 28.5t-29 70t29 70.5t70 29t69.5 -29t28.5 -70.5t-28.5 -70t-69.5 -28.5zM93 714q0 154 56.5 290.5t153 232.5t231 152t260.5 56t220 -25.5t215.5 -95.5t215.5 -236t94 -396q0 -229 -174.5 -470.5t-563.5 -241.5q-137 0 -272 56.5t-230 153.5 t-150.5 233.5t-55.5 290.5zM816 121q290 0 426 193.5t136 398.5q0 125 -43 234.5t-117 187.5t-178 123t-223.5 45t-224 -45t-179 -123.5t-117 -188t-42.5 -255.5t72.5 -281t201 -212t288.5 -77zM985 1585q-41 0 -69.5 28.5t-28.5 70t28.5 70.5t69.5 29t69.5 -29t28.5 -70.5 t-28.5 -70t-69.5 -28.5z" glyph-name="Odieresis" unicode="Ö"/><glyph d="M202 153l-98 98l347 347l-347 347l100 98l347 -346l345 346l96 -97l-344 -346l347 -347l-99 -100l-347 348z" glyph-name="multiply" horiz-adv-x="1098" unicode="×"/><glyph d="M1539 715q0 -155 -55 -291.5t-151 -233.5t-230.5 -153.5t-286.5 -56.5q-230 0 -411 122l-151 -186l-100 82l151 187q-101 100 -156.5 235.5t-55.5 291.5t56.5 292.5t153 232.5t231 152t285.5 56q228 0 409 -122l151 186l101 -82l-152 -186q211 -211 211 -526zM816 121 q119 0 224 45t221.5 169.5t116.5 370.5q0 247 -147 415l-733 -904q140 -96 318 -96zM817 1303q-292 0 -427.5 -193t-135.5 -418t147 -388l733 903q-139 96 -317 96z" glyph-name="Oslash" unicode="Ø"/><glyph d="M1116 503v921h155v-920q0 -156 -69 -275.5t-193.5 -184t-285.5 -64.5t-285 64.5t-192 183.5t-68 275v921h158v-921q0 -115 50 -202t138.5 -133t201.5 -46q174 0 282 104.5t108 276.5zM433 1811h205l193 -239h-141z" glyph-name="Ugrave" horiz-adv-x="1448" unicode="Ù"/><glyph d="M1116 503v921h155v-920q0 -156 -69 -275.5t-193.5 -184t-285.5 -64.5t-285 64.5t-192 183.5t-68 275v921h158v-921q0 -115 50 -202t138.5 -133t201.5 -46q174 0 282 104.5t108 276.5zM823 1807h204l-256 -240h-142z" glyph-name="Uacute" horiz-adv-x="1448" unicode="Ú"/><glyph d="M1116 503v921h155v-920q0 -156 -69 -275.5t-193.5 -184t-285.5 -64.5t-285 64.5t-192 183.5t-68 275v921h158v-921q0 -115 50 -202t138.5 -133t201.5 -46q174 0 282 104.5t108 276.5zM1016 1568h-140l-141 160l-143 -160h-138l211 240h136z" glyph-name="Ucircumflex" horiz-adv-x="1448" unicode="Û"/><glyph d="M1116 503v921h155v-920q0 -156 -69 -275.5t-193.5 -184t-285.5 -64.5t-285 64.5t-192 183.5t-68 275v921h158v-921q0 -115 50 -202t138.5 -133t201.5 -46q174 0 282 104.5t108 276.5zM458 1680.5q0 41.5 29 70t70 28.5t69 -28.5t28 -70t-28 -70t-69 -28.5t-70 28.5 t-29 70zM794 1680.5q0 41.5 29 70t70 28.5t69.5 -28.5t28.5 -70t-28.5 -70t-69.5 -28.5t-70 28.5t-29 70z" glyph-name="Udieresis" horiz-adv-x="1448" unicode="Ü"/><glyph d="M724 0h-157v600l-510 824h184l409 -671l422 671h174l-522 -826v-598zM571 1558l194 240h205l-257 -240h-142z" glyph-name="Yacute" horiz-adv-x="1295" unicode="Ý"/><glyph d="M350 1424v-269h351q127 0 229 -55t160 -152.5t58 -203.5q0 -199 -127 -322t-319 -123h-352v-299h-156v1424h156zM350 441h301q179 0 259.5 84.5t80.5 203.5q0 173 -114 229.5t-232 56.5h-295v-574z" glyph-name="Thorn" horiz-adv-x="1208" unicode="Þ"/><glyph d="M302 1053v-1053h-151v1079q0 199 122 305t297 106q116 0 209.5 -46t146 -127t52.5 -181q0 -133 -101.5 -225.5t-101.5 -141.5q0 -50 47 -81.5t104 -65t116.5 -101t59.5 -180.5t-52 -194t-142 -124t-190 -43t-152 17t-90 31l20 129q201 -70 328.5 -7t127.5 181t-132 192.5 t-161.5 107t-41.5 63t-12 66.5t12 67t31 54t42.5 43.5t78.5 68.5t55 112q0 108 -65.5 177.5t-184.5 69.5t-195.5 -74.5t-76.5 -224.5z" glyph-name="germandbls" horiz-adv-x="1177" unicode="ß"/><glyph d="M510 1022q422 0 422 -339v-426q0 -71 13.5 -108t49.5 -55l-18 -114q-77 0 -132.5 42.5t-55.5 130.5l-1 1q-47 -76 -148.5 -125t-199.5 -49q-171 0 -272.5 75.5t-101.5 220.5t113 233t327 88q118 0 274 -30v82q0 240 -275 240q-160 0 -304 -74l-50 110q147 97 359 97z M566 474q-72 0 -98 -1.5t-57.5 -7t-76 -19.5t-81.5 -54.5t-37 -97.5q0 -104 66 -144.5t139 -40.5t135 19t111.5 52t81 81.5t31.5 102.5v81q-142 29 -214 29zM243 1446h192l181 -297h-132z" glyph-name="agrave" horiz-adv-x="1089" unicode="à"/><glyph d="M510 1022q422 0 422 -339v-426q0 -71 13.5 -108t49.5 -55l-18 -114q-77 0 -132.5 42.5t-55.5 130.5l-1 1q-47 -76 -148.5 -125t-199.5 -49q-171 0 -272.5 75.5t-101.5 220.5t113 233t327 88q118 0 274 -30v82q0 240 -275 240q-160 0 -304 -74l-50 110q147 97 359 97z M566 474q-72 0 -98 -1.5t-57.5 -7t-76 -19.5t-81.5 -54.5t-37 -97.5q0 -104 66 -144.5t139 -40.5t135 19t111.5 52t81 81.5t31.5 102.5v81q-142 29 -214 29zM637 1446h191l-240 -297h-132z" glyph-name="aacute" horiz-adv-x="1089" unicode="á"/><glyph d="M510 1022q422 0 422 -339v-426q0 -71 13.5 -108t49.5 -55l-18 -114q-77 0 -132.5 42.5t-55.5 130.5l-1 1q-47 -76 -148.5 -125t-199.5 -49q-171 0 -272.5 75.5t-101.5 220.5t113 233t327 88q118 0 274 -30v82q0 240 -275 240q-160 0 -304 -74l-50 110q147 97 359 97z M566 474q-72 0 -98 -1.5t-57.5 -7t-76 -19.5t-81.5 -54.5t-37 -97.5q0 -104 66 -144.5t139 -40.5t135 19t111.5 52t81 81.5t31.5 102.5v81q-142 29 -214 29zM806 1149h-131l-132 199l-133 -199h-129l198 297h126z" glyph-name="acircumflex" horiz-adv-x="1089" unicode="â"/><glyph d="M510 1022q422 0 422 -339v-426q0 -71 13.5 -108t49.5 -55l-18 -114q-77 0 -132.5 42.5t-55.5 130.5l-1 1q-47 -76 -148.5 -125t-199.5 -49q-171 0 -272.5 75.5t-101.5 220.5t113 233t327 88q118 0 274 -30v82q0 240 -275 240q-160 0 -304 -74l-50 110q147 97 359 97z M639 1285q51 0 66 99h99q-10 -103 -52 -156.5t-100 -53.5t-85.5 26t-51.5 52.5t-52 26.5q-51 0 -67 -100h-99q10 103 52 156.5t100 53.5t85.5 -26t52 -52t52.5 -26zM216 294q0 -185 226 -185q118 0 196.5 52t110 100.5t31.5 102.5v81q-142 29 -214 29t-98 -1.5t-57.5 -7 t-76 -19.5t-81.5 -54.5t-37 -97.5z" glyph-name="atilde" horiz-adv-x="1089" unicode="ã"/><glyph d="M510 1022q422 0 422 -339v-426q0 -71 13.5 -108t49.5 -55l-18 -114q-77 0 -132.5 42.5t-55.5 130.5l-1 1q-47 -76 -148.5 -125t-199.5 -49q-171 0 -272.5 75.5t-101.5 220.5t113 233t327 88q118 0 274 -30v82q0 240 -275 240q-160 0 -304 -74l-50 110q147 97 359 97z M566 474q-72 0 -98 -1.5t-57.5 -7t-76 -19.5t-81.5 -54.5t-37 -97.5q0 -104 66 -144.5t139 -40.5t135 19t111.5 52t81 81.5t31.5 102.5v81q-142 29 -214 29zM277 1270q0 41 28.5 70t70 29t69.5 -28.5t28 -70.5t-28 -70t-69.5 -28t-70 28.5t-28.5 69.5zM613 1270 q0 41 28.5 70t70 29t69.5 -28.5t28 -70.5t-28 -70t-69.5 -28t-70 28.5t-28.5 69.5z" glyph-name="adieresis" horiz-adv-x="1089" unicode="ä"/><glyph d="M510 1022q422 0 422 -339v-426q0 -71 13.5 -108t49.5 -55l-18 -114q-77 0 -132.5 42.5t-55.5 130.5l-1 1q-47 -76 -148.5 -125t-199.5 -49q-171 0 -272.5 75.5t-101.5 220.5t113 233t327 88q118 0 274 -30v82q0 240 -275 240q-160 0 -304 -74l-50 110q147 97 359 97z M566 474q-72 0 -98 -1.5t-57.5 -7t-76 -19.5t-81.5 -54.5t-37 -97.5q0 -104 66 -144.5t139 -40.5t135 19t111.5 52t81 81.5t31.5 102.5v81q-142 29 -214 29zM342 1338q0 84 59 142.5t142.5 58.5t142 -59t58.5 -142t-58.5 -142t-142 -59t-142.5 58.5t-59 142.5zM660 1337.5 q0 48.5 -34 83t-82.5 34.5t-83 -34.5t-34.5 -83t34.5 -82.5t83 -34t82.5 34t34 82.5z" glyph-name="aring" horiz-adv-x="1089" unicode="å"/><glyph d="M414 -20q-153 0 -250.5 78t-97.5 221t113 230.5t328 87.5q118 0 274 -30v82q0 240 -275 240q-160 0 -304 -74l-50 110q146 97 373 97q284 0 369 -178q139 178 365 178q225 0 353 -143t128 -355q0 -44 -4 -72h-804q12 -157 108 -247.5t254 -90.5t296 96l73 -100 q-156 -130 -378 -130q-133 0 -243 53.5t-176 153.5q-58 -94 -178.5 -150.5t-273.5 -56.5zM781 364v81q-143 29 -278 29t-210.5 -50t-75.5 -141q0 -129 87.5 -151.5t139.5 -22.5t113 19t111 52t81.5 81.5t31.5 102.5zM1042.5 798q-92.5 -89 -107.5 -227h652q-6 128 -88.5 222 t-222.5 94q-141 0 -233.5 -89z" glyph-name="ae" horiz-adv-x="1808" unicode="æ"/><glyph d="M737 -243q0 -95 -63.5 -133.5t-149.5 -38.5t-149 35l29 78q116 -53 164 -24t48 59q0 57 -57.5 78.5t-112.5 21.5l89 151q-185 20 -317 152t-132 359q0 119 41 219t151 204t330 104q177 0 312 -89l-67 -112q-115 64 -231 64t-200.5 -47.5t-133 -136t-48.5 -202.5 t48.5 -201.5t132 -133.5t201.5 -46t233 69l77 -105q-132 -90 -294 -101l-58 -92q68 -5 112.5 -41.5t44.5 -90.5z" glyph-name="ccedilla" horiz-adv-x="983" unicode="ç"/><glyph d="M86 493q0 241 142.5 385t353.5 144t339.5 -143.5t128.5 -354.5q0 -39 -5 -72h-804q12 -157 108.5 -247.5t254.5 -90.5t295 96l72 -101q-154 -129 -376 -129q-266 0 -387.5 159t-121.5 354zM352.5 798q-92.5 -89 -107.5 -227h651q-6 129 -88 222.5t-222 93.5 q-141 0 -233.5 -89zM323 1446h191l181 -297h-132z" glyph-name="egrave" horiz-adv-x="1118" unicode="è"/><glyph d="M86 493q0 241 142.5 385t353.5 144t339.5 -143.5t128.5 -354.5q0 -39 -5 -72h-804q12 -157 108.5 -247.5t254.5 -90.5t295 96l72 -101q-154 -129 -376 -129q-266 0 -387.5 159t-121.5 354zM352.5 798q-92.5 -89 -107.5 -227h651q-6 129 -88 222.5t-222 93.5 q-141 0 -233.5 -89zM691 1446h191l-241 -297h-131z" glyph-name="eacute" horiz-adv-x="1118" unicode="é"/><glyph d="M86 493q0 241 142.5 385t353.5 144t339.5 -143.5t128.5 -354.5q0 -39 -5 -72h-804q12 -157 108.5 -247.5t254.5 -90.5t295 96l72 -101q-154 -129 -376 -129q-266 0 -387.5 159t-121.5 354zM850 1149h-131l-132 199l-133 -199h-130l198 297h127zM352.5 798 q-92.5 -89 -107.5 -227h651q-6 129 -88 222.5t-222 93.5q-141 0 -233.5 -89z" glyph-name="ecircumflex" horiz-adv-x="1118" unicode="ê"/><glyph d="M86 493q0 241 142.5 385t353.5 144t339.5 -143.5t128.5 -354.5q0 -39 -5 -72h-804q12 -157 108.5 -247.5t254.5 -90.5t295 96l72 -101q-154 -129 -376 -129q-266 0 -387.5 159t-121.5 354zM331 1270q0 41 29 70t70 29t69.5 -28.5t28.5 -70.5t-28.5 -70t-69.5 -28 t-70 28.5t-29 69.5zM668 1270q0 41 28.5 70t69.5 29t70 -28.5t29 -70.5t-29 -70t-70 -28t-69.5 28.5t-28.5 69.5zM352.5 798q-92.5 -89 -107.5 -227h651q-6 129 -88 222.5t-222 93.5q-141 0 -233.5 -89z" glyph-name="edieresis" horiz-adv-x="1118" unicode="ë"/><glyph d="M171 1148l-240 297h191l181 -297h-132zM151 0v1002h153v-1002h-153z" glyph-name="igrave" horiz-adv-x="454" unicode="ì"/><glyph d="M151 0v1002h153v-1002h-153zM157 1148l181 297h191l-240 -297h-132z" glyph-name="iacute" horiz-adv-x="454" unicode="í"/><glyph d="M289 1446l202 -297h-132l-131 199l-133 -199h-130l198 297h126zM151 0v1002h153v-1002h-153z" glyph-name="icircumflex" horiz-adv-x="454" unicode="î"/><glyph d="M60 1169q-41 0 -70 28.5t-29 70t29 70.5t70 29t69.5 -29t28.5 -70.5t-28.5 -70t-69.5 -28.5zM396 1169q-41 0 -69.5 28.5t-28.5 70t28.5 70.5t69.5 29t70 -29t29 -70t-29 -70t-70 -29zM151 0v1002h153v-1002h-153z" glyph-name="idieresis" horiz-adv-x="454" unicode="ï"/><glyph d="M1040 486q0 -110 -36 -207t-134 -198t-308 -101t-341 132.5t-131 348.5t130.5 350t320.5 134q146 0 244 -84l2 1q-63 162 -216 321l-188 -105l-75 89l178 98q-75 68 -181 141l106 66q96 -51 197 -140l177 97l76 -86l-169 -93q348 -368 348 -764zM559 114q146 0 238 98.5 t92 247.5t-88.5 250.5t-238.5 101.5q-100 0 -212 -74t-112 -279t112 -275t209 -70z" glyph-name="eth" horiz-adv-x="1129" unicode="ð"/><glyph d="M655 1022q184 0 285.5 -112t101.5 -304v-606h-153v586q0 138 -68.5 217t-204.5 79t-224 -89t-88 -228v-565h-154v1002h130l17 -158q127 178 358 178zM693 1285q51 0 66 99h99q-10 -103 -52 -156t-100 -53t-85 26t-51.5 52t-52.5 26q-51 1 -67 -99h-99q10 103 52 156 t101 53t85.5 -26t51.5 -52t52 -26z" glyph-name="ntilde" horiz-adv-x="1180" unicode="ñ"/><glyph d="M596 -20q-108 0 -202.5 38.5t-162.5 106t-107 164.5t-39 211t39.5 211.5t108 165t163.5 106.5t203 39t202 -38t162.5 -105t108 -164t39.5 -211t-40 -212t-109 -166.5t-163.5 -107t-202.5 -38.5zM595 117q154 0 257 108.5t103 276.5t-101 275t-256 107t-256.5 -107.5 t-101.5 -275.5q0 -111 46 -199t127 -136.5t182 -48.5zM570 1149l-241 297h191l181 -297h-131z" glyph-name="ograve" horiz-adv-x="1195" unicode="ò"/><glyph d="M596 -20q-108 0 -202.5 38.5t-162.5 106t-107 164.5t-39 211t39.5 211.5t108 165t163.5 106.5t203 39t202 -38t162.5 -105t108 -164t39.5 -211t-40 -212t-109 -166.5t-163.5 -107t-202.5 -38.5zM595 117q154 0 257 108.5t103 276.5t-101 275t-256 107t-256.5 -107.5 t-101.5 -275.5q0 -111 46 -199t127 -136.5t182 -48.5zM503 1149l181 297h191l-240 -297h-132z" glyph-name="oacute" horiz-adv-x="1195" unicode="ó"/><glyph d="M596 -20q-108 0 -202.5 38.5t-162.5 106t-107 164.5t-39 211t39.5 211.5t108 165t163.5 106.5t203 39t202 -38t162.5 -105t108 -164t39.5 -211t-40 -212t-109 -166.5t-163.5 -107t-202.5 -38.5zM595 117q154 0 257 108.5t103 276.5t-101 275t-256 107t-256.5 -107.5 t-101.5 -275.5q0 -111 46 -199t127 -136.5t182 -48.5zM659 1446l201 -297h-131l-132 199l-133 -199h-129l197 297h127z" glyph-name="ocircumflex" horiz-adv-x="1195" unicode="ô"/><glyph d="M686 1285q52 0 67 99h98q-10 -103 -52 -156.5t-104 -53.5t-109.5 52.5t-75.5 52.5q-50 0 -66 -100h-100q10 103 52.5 156.5t98.5 53.5t85.5 -26t53 -52t52.5 -26zM85 500q0 114 39.5 211.5t108 165t163.5 106.5t203 39t202 -38t162.5 -105t108 -164t39.5 -211t-40 -212 t-148 -205t-327 -107t-365 144.5t-146 375.5zM955 502q0 168 -101 275t-256 107t-256.5 -107.5t-101.5 -275.5q0 -111 46 -199t127 -136.5t182 -48.5q154 0 257 108.5t103 276.5z" glyph-name="otilde" horiz-adv-x="1195" unicode="õ"/><glyph d="M430 1172q-42 0 -70.5 28.5t-28.5 69.5t28.5 70t70.5 29t69.5 -28.5t27.5 -70.5t-27.5 -70t-69.5 -28zM596 -20q-108 0 -202.5 38.5t-162.5 106t-107 164.5t-39 211t39.5 211.5t108 165t163.5 106.5t203 39t202 -38t162.5 -105t108 -164t39.5 -211t-40 -212t-109 -166.5 t-163.5 -107t-202.5 -38.5zM595 117q154 0 257 108.5t103 276.5t-101 275t-256 107t-256.5 -107.5t-101.5 -275.5q0 -111 46 -199t127 -136.5t182 -48.5zM766 1172q-42 0 -70.5 28.5t-28.5 69.5t29 70t70 29t69.5 -28.5t28.5 -70.5t-28 -70t-70 -28z" glyph-name="odieresis" horiz-adv-x="1195" unicode="ö"/><glyph d="M624 61q-46 0 -79 32.5t-33 79t33 79t79 32.5t79.5 -32.5t33.5 -79t-33.5 -79t-79.5 -32.5zM624 912q-46 0 -79 33t-33 79t33 79t79 33t79.5 -32t33.5 -79t-33.5 -80t-79.5 -33zM127 530v137h995v-137h-995z" glyph-name="divide" horiz-adv-x="1249" unicode="÷"/><glyph d="M951 890q160 -147 160 -382t-148 -381.5t-368 -146.5q-143 0 -260 65l-101 -138l-90 68l100 137q-159 149 -159 384t147.5 380.5t366.5 145.5q144 0 261 -67l102 139l89 -68zM598 117q98 0 180.5 49t129.5 137.5t47 199.5q0 158 -93 264l-442 -605q80 -45 178 -45z M598 884q-155 0 -256.5 -107.5t-101.5 -271.5t93 -272l442 606q-80 45 -177 45z" glyph-name="oslash" horiz-adv-x="1195" unicode="ø"/><glyph d="M1019 1002v-1002h-130l-16 154q-122 -175 -349 -174q-185 0 -285.5 112t-100.5 304v606h154v-587q0 -139 65.5 -217t201.5 -78t221.5 88.5t85.5 228.5v565h153zM546 1150l-240 297h191l181 -297h-132z" glyph-name="ugrave" horiz-adv-x="1169" unicode="ù"/><glyph d="M1019 1002v-1002h-130l-16 154q-122 -175 -349 -174q-185 0 -285.5 112t-100.5 304v606h154v-587q0 -139 65.5 -217t201.5 -78t221.5 88.5t85.5 228.5v565h153zM489 1150l181 297h191l-240 -297h-132z" glyph-name="uacute" horiz-adv-x="1169" unicode="ú"/><glyph d="M1019 1002v-1002h-130l-16 154q-122 -175 -349 -174q-185 0 -285.5 112t-100.5 304v606h154v-587q0 -139 65.5 -217t201.5 -78t221.5 88.5t85.5 228.5v565h153zM651 1447l202 -297h-132l-131 199l-133 -199h-129l197 297h126z" glyph-name="ucircumflex" horiz-adv-x="1169" unicode="û"/><glyph d="M1019 1002v-1002h-130l-16 154q-122 -175 -349 -174q-185 0 -285.5 112t-100.5 304v606h154v-587q0 -139 65.5 -217t201.5 -78t221.5 88.5t85.5 228.5v565h153zM412 1171q-42 0 -71 28.5t-29 70t29 70t71 28.5t69.5 -28.5t27.5 -70t-27.5 -70t-69.5 -28.5zM748 1171 q-42 0 -70.5 28.5t-28.5 70.5t29 70t70 28t69 -28.5t28 -70t-27.5 -70t-69.5 -28.5z" glyph-name="udieresis" horiz-adv-x="1169" unicode="ü"/><glyph d="M228 -441q-80 0 -138 21l21 128q91 -20 164.5 8t125.5 153l51 126l-399 1007h168l312 -821l325 821h159l-502 -1229q-42 -104 -124.5 -159t-162.5 -55zM469 1167l181 297h191l-240 -297h-132z" glyph-name="yacute" horiz-adv-x="1058" unicode="ý"/><glyph d="M304 849h1q58 84 149.5 128.5t183.5 44.5t164.5 -22.5t132.5 -67t104.5 -106.5t69.5 -145.5t25 -179.5t-36 -217t-160 -212.5t-284 -91.5q-108 0 -199.5 44t-149.5 128h-1v-562l-153 -31v1900l153 31v-641zM978 501q0 171 -94.5 277t-246.5 106t-245.5 -107t-93.5 -279 t94.5 -276t245.5 -104t245.5 106t94.5 277z" glyph-name="thorn" horiz-adv-x="1220" unicode="þ"/><glyph d="M228 -441q-80 0 -138 21l21 128q91 -20 164.5 8t125.5 153l51 126l-399 1007h168l312 -821l325 821h159l-502 -1229q-42 -104 -124.5 -159t-162.5 -55zM387 1188q-41 0 -70 29t-29 70t29 70t70 29t69.5 -29t28.5 -70.5t-28.5 -70t-69.5 -28.5zM723 1188q-41 0 -69.5 29 t-28.5 70t28.5 70t69.5 29t69.5 -29t28.5 -70.5t-28.5 -70t-69.5 -28.5z" glyph-name="ydieresis" horiz-adv-x="1058" unicode="ÿ"/><glyph d="M2050 1424v-139h-700v-497h611v-140h-611v-509h719v-139h-876v81q-170 -101 -378 -101q-152 0 -286.5 56.5t-229.5 153.5t-150.5 233.5t-55.5 290.5t56.5 290.5t153 232.5t230.5 152t285 56q206 0 375 -101v80h857zM816 1303q-119 0 -223.5 -45t-178.5 -123t-117 -187.5 t-43 -235.5t42.5 -234.5t116.5 -187.5t179 -124t224 -45q223 0 377 144v894q-154 144 -377 144z" glyph-name="OE" horiz-adv-x="2153" unicode="Œ"/><glyph d="M610 -20q-122 0 -216.5 38.5t-162.5 106t-107 164.5t-39 211t39.5 211.5t147.5 204t327 106.5q139 0 253 -62.5t179 -172.5q65 112 173.5 173.5t245.5 61.5t245 -66.5t165 -179t57 -252.5q0 -47 -5 -72h-803q12 -157 107.5 -247.5t253.5 -90.5t297 96l72 -100 q-156 -130 -377 -130q-141 0 -256 60.5t-179 172.5q-67 -109 -181 -171t-236 -62zM955 502q0 168 -101 275t-256 107t-256.5 -107.5t-101.5 -275.5q0 -111 46 -199t127 -136.5t182 -48.5q154 0 257 108.5t103 276.5zM1219.5 798q-92.5 -89 -107.5 -227h652q-6 128 -88.5 222 t-222.5 94q-141 0 -233.5 -89z" glyph-name="oe" horiz-adv-x="1985" unicode="œ"/><glyph d="M497 1572q-41 0 -70 29t-29 70t29 70t70 29t69.5 -28.5t28.5 -70.5t-28.5 -70.5t-69.5 -28.5zM834 1572q-42 0 -70.5 29t-28.5 70t28.5 70t69.5 29t70 -28t29 -70t-28 -71t-70 -29zM724 0h-157v600l-510 824h184l409 -671l422 671h174l-522 -826v-598z" glyph-name="Ydieresis" horiz-adv-x="1295" unicode="Ÿ"/><glyph d="M391 1459l202 -297h-132l-131 198l-133 -198h-129l197 297h126z" glyph-name="circumflex" horiz-adv-x="660" unicode="ˆ"/><glyph d="M447 1306q51 0 66 99h99q-10 -103 -52 -156t-100 -53t-85.5 26t-52 52t-51.5 26q-51 1 -66 -99h-101q10 103 52.5 156t100.5 53t85.5 -26t52.5 -52t52 -26z" glyph-name="tilde" horiz-adv-x="716" unicode="˜"/><glyph d="M134 481v121h987v-121h-987z" glyph-name="endash" horiz-adv-x="1255" unicode="–"/><glyph d="M134 481v121h1942v-121h-1942z" glyph-name="emdash" horiz-adv-x="2209" unicode="—"/><glyph d="M258 1289q0 -37 30 -72t30 -76q0 -40 -29.5 -71t-78.5 -31t-77.5 40.5t-28.5 122.5t66.5 171t161.5 117l30 -76q-104 -55 -104 -125z" glyph-name="quoteleft" horiz-adv-x="454" unicode="‘"/><glyph d="M178.5 1313.5q-29.5 33.5 -29.5 74.5t29.5 71.5t77.5 30.5t77.5 -40t29.5 -122t-67 -171.5t-161 -117.5l-31 76q77 40 90.5 70.5t13.5 62.5t-29.5 65.5z" glyph-name="quoteright" horiz-adv-x="455" unicode="’"/><glyph d="M197 -58q0 39 -30 72t-30 75t29 73t78 31t78 -41t29 -103q0 -100 -66.5 -189.5t-160.5 -118.5l-31 76q104 55 104 125z" glyph-name="quotesinglbase" horiz-adv-x="486" unicode="‚"/><glyph d="M258 1289q0 -37 30 -72t30 -76q0 -40 -29.5 -71t-78.5 -31t-77.5 40.5t-28.5 122.5t66.5 171t161.5 117l30 -76q-104 -55 -104 -125zM562 1289q0 -37 30 -72t30 -76q0 -40 -29 -71t-79 -31t-78 40.5t-28 122.5t66.5 171t160.5 117l30 -76q-103 -51 -103 -125z" glyph-name="quotedblleft" horiz-adv-x="757" unicode="“"/><glyph d="M178.5 1313.5q-29.5 33.5 -29.5 74.5t29.5 71.5t77.5 30.5t77.5 -40t29.5 -122t-67 -171.5t-161 -117.5l-31 76q77 40 90.5 70.5t13.5 62.5t-29.5 65.5zM512 1239q0 39 -30 73.5t-30 75.5t29.5 71.5t78.5 30.5t77.5 -40t28.5 -122t-66.5 -171.5t-160.5 -117.5l-30 76 q103 55 103 124z" glyph-name="quotedblright" horiz-adv-x="759" unicode="”"/><glyph d="M197 -58q0 39 -30 72t-30 75t29 73t78 31t78 -41t29 -103q0 -100 -66.5 -189.5t-160.5 -118.5l-31 76q104 55 104 125zM500 -58q0 40 -29.5 72.5t-29.5 74.5t29.5 73t78.5 31t77 -41t28 -103q0 -100 -66.5 -190t-160.5 -118l-30 76q103 51 103 125z" glyph-name="quotedblbase" horiz-adv-x="789" unicode="„"/><glyph d="M478.5 346q-68.5 0 -131.5 26.5t-108 72t-71.5 108t-26.5 131.5t26.5 131.5t71.5 107.5t108 72t131.5 27t131.5 -27t108 -72t72 -107.5t27 -131.5t-27 -131.5t-72 -108t-108 -72t-131.5 -26.5z" glyph-name="bullet" horiz-adv-x="957" unicode="•"/><glyph d="M232 -20q-46 0 -78 33t-32 79t32.5 78.5t78.5 32.5t79 -32.5t33 -78.5t-33.5 -79t-79.5 -33zM888 -20q-46 0 -78.5 33t-32.5 79t32.5 78.5t78.5 32.5t79 -32.5t33 -78.5t-33 -79t-79 -33zM1544 -20q-46 0 -79 33t-33 79t33 78.5t79 32.5t79 -32.5t33 -78.5t-33 -79 t-79 -33z" glyph-name="ellipsis" horiz-adv-x="1777" unicode="…"/><glyph d="M376 118l-285 402l285 404h150l-259 -404l260 -402h-151z" glyph-name="guilsinglleft" horiz-adv-x="627" unicode="‹"/><glyph d="M101 118l260 402l-259 404h151l285 -404l-285 -402h-152z" glyph-name="guilsinglright" horiz-adv-x="628" unicode="›"/><glyph d="M814 1257q-150 0 -261.5 -100t-158.5 -264h580l-34 -111h-569q-7 -58 -4 -154h527l-33 -110h-477q41 -175 154 -284.5t268 -109.5t290 103l71 -111q-75 -65 -174 -100.5t-203 -35.5q-211 0 -365 149.5t-199 388.5h-156l33 110h110q-2 28 -2 66t5 88h-137l33 111h123 q52 226 206.5 367.5t359.5 141.5q206 0 365 -138l-70 -111q-132 104 -282 104z" glyph-name="Euro" horiz-adv-x="1268" unicode="€"/><glyph d="M866 1424h178l289 -676l284 676h176v-857h-115v721h-1l-309 -721h-77l-308 721h-1v-721h-116v857zM739 1424v-100h-277v-757h-114v757h-278v100h669z" glyph-name="trademark" horiz-adv-x="1957" unicode="™"/><glyph d="M34 868v134h188v161q0 157 88.5 242t247.5 85q49 0 107 -10l-19 -129q-39 6 -68 5q-112 0 -157 -53.5t-45 -173.5v-127h270v-134h-270v-868h-154v868h-188zM785 1330q0 45 32 76.5t76.5 31.5t76.5 -31.5t32 -76.5t-32 -76.5t-76.5 -31.5t-76.5 31.5t-32 76.5zM817 1002 h153v-1002h-153v1002z" glyph-name="uniFB01" horiz-adv-x="1120" unicode="ﬁ"/><glyph d="M34 868v134h188v161q0 157 88.5 242t247.5 85q49 0 107 -10l-19 -129q-39 6 -68 5q-112 0 -157 -53.5t-45 -173.5v-127h270v-134h-270v-868h-154v868h-188zM966 269q0 -72 14 -110.5t53 -56.5l-20 -122q-86 0 -142.5 55t-56.5 162v1262l152 31v-1221z" glyph-name="uniFB02" horiz-adv-x="1131" unicode="ﬂ"/><glyph d="M34 868v134h188v161q0 157 88.5 242t247.5 85q69 0 142 -17l-19 -127q-66 10 -102 10q-114 0 -158.5 -53t-44.5 -174v-127h206v-134h-206v-868h-154v868h-188zM844 868h-188v134h188v161q0 157 88 242t247 85q49 0 107 -10l-19 -129q-39 6 -69 5q-112 0 -156.5 -53.5 t-44.5 -173.5v-127h270v-134h-270v-868h-153v868zM1406 1330q0 45 31.5 76.5t76.5 31.5t76.5 -31.5t31.5 -76.5t-31.5 -76.5t-76.5 -31.5t-76.5 31.5t-31.5 76.5zM1437 1002h154v-1002h-154v1002z" glyph-name="uniFB03" horiz-adv-x="1740" unicode="ﬃ"/><glyph d="M34 868v134h188v161q0 157 88.5 242t247.5 85q70 0 142 -17l-19 -127q-65 10 -102 10q-114 0 -158.5 -53t-44.5 -174v-127h206v-134h-206v-868h-154v868h-188zM844 868h-188v134h188v161q0 157 88 242t247 85q49 0 108 -10l-20 -129q-39 6 -68 5q-112 0 -157 -53.5 t-45 -173.5v-127h270v-134h-270v-868h-153v868zM1587 269q0 -72 14 -110.5t53 -56.5l-20 -122q-86 0 -143 55t-57 162v1262l153 31v-1221z" glyph-name="uniFB04" horiz-adv-x="1751" unicode="ﬄ"/></font>
</defs>
</svg>
