<svg width="200" height="100" viewBox="0 0 200 100" xmlns="http://www.w3.org/2000/svg"><title>aardvark</title>,<g fill="#000" fill-rule="evenodd"><path d="M39.84 63.434l-1.646.123c-2.097 0-4.03-.452-5.592-1.89-1.933-1.81-1.768-3.702-1.768-6.128V54.18l-1.316.617c-1.028.493-2.344 1.11-2.344 2.466 0 1.44 1.028 2.673 2.508 2.673.288 0 .535-.042.823-.083l-1.768 3.577-2.097.123c-1.398 0-3.208-.246-4.4-.986-1.645-.986-2.714-2.92-2.714-4.81 0-7.607 11.308-5.1 11.308-8.553 0-1.275-1.604-1.727-2.632-1.727-1.686 0-3.66.575-5.18 1.357l1.93-4.688c1.688-.453 3.415-.577 5.183-.577 1.932 0 4.112.37 5.715 1.563 2.056 1.562 2.262 3.948 2.262 6.332v3.29c0 2.755-.123 5.017 3.413 5.1l-1.686 3.576z"/><path d="M61.21 63.434l-1.645.123c-2.097 0-4.03-.452-5.592-1.89-1.932-1.81-1.768-3.702-1.768-6.128V54.18l-1.316.617c-1.03.493-2.345 1.11-2.345 2.466 0 1.44 1.028 2.673 2.508 2.673.288 0 .535-.042.823-.083l-1.768 3.577-2.097.123c-1.397 0-3.206-.246-4.4-.986-1.644-.986-2.713-2.92-2.713-4.81 0-7.607 11.308-5.1 11.308-8.553 0-1.275-1.604-1.727-2.632-1.727-1.685 0-3.66.575-5.18 1.357l1.93-4.688c1.688-.453 3.414-.577 5.183-.577 1.933 0 4.112.37 5.715 1.563 2.058 1.562 2.263 3.948 2.263 6.332v3.29c0 2.755-.123 5.017 3.413 5.1l-1.686 3.576zM71.767 46.493c.616-1.89 2.344-2.92 4.44-2.92l1.522.124v5.016c-.7-.164-1.44-.328-2.14-.328-1.232 0-2.384.452-3.247 1.397-.7.782-.576 1.48-.576 2.51V58.5c0 1.892-.124 3.125 1.398 4.4v.123h-9.91V62.9c1.52-1.275 1.398-2.467 1.398-4.4v-9.87c0-1.89.123-3.124-1.398-4.4v-.122h5.757c.946 0 1.85-.165 2.63-.617h.125v3.003zM92.854 51.468c0-.863.04-1.686-.494-2.508-.493-.78-1.315-1.193-2.22-1.193-2.878 0-3.413 3.33-3.413 5.593 0 1.604.247 3.413 1.316 4.688.74.904 1.974 1.52 3.166 1.52h.575l-1.932 3.496c-.535.247-1.11.247-1.686.247-5.305 0-9.047-4.522-9.047-9.662 0-5.263 3.454-10.115 9.087-10.115 1.646 0 3.167.492 4.647 1.398v-4.44c-.123-1.933.04-3.125-1.48-4.4v-.124h4.975c1.357 0 2.384 0 3.494-.658h.124V57.02c0 2.385 0 4.235 1.81 5.88v.123h-8.924V51.468zM115.83 48.92c.33-.823.742-1.77.742-2.674 0-.904-.33-1.48-.946-2.015v-.122h5.88L113.9 64.01c-.824-.082-1.646-.494-2.345-.905-3.083-1.644-3.495-2.467-4.687-5.633l-3.413-9.128c-.618-1.646-1.07-2.92-2.344-4.113v-.122h5.1c1.03 0 2.056.083 2.795-.617h.124l4.317 11.967 2.384-6.538zM140.675 63.434l-1.646.123c-2.097 0-4.03-.452-5.593-1.89-1.933-1.81-1.768-3.702-1.768-6.128V54.18l-1.317.617c-1.028.493-2.344 1.11-2.344 2.466 0 1.44 1.027 2.673 2.508 2.673.288 0 .534-.042.822-.083l-1.768 3.577-2.097.123c-1.398 0-3.207-.246-4.4-.986-1.645-.986-2.713-2.92-2.713-4.81 0-7.607 11.307-5.1 11.307-8.553 0-1.275-1.605-1.727-2.633-1.727-1.685 0-3.66.575-5.18 1.357l1.932-4.688c1.685-.453 3.412-.577 5.18-.577 1.933 0 4.112.37 5.716 1.563 2.056 1.562 2.262 3.948 2.262 6.332v3.29c0 2.755-.124 5.017 3.413 5.1l-1.685 3.576zM151.23 46.493c.618-1.89 2.345-2.92 4.442-2.92l1.52.124v5.016c-.697-.164-1.438-.328-2.137-.328-1.233 0-2.385.452-3.248 1.397-.7.782-.577 1.48-.577 2.51V58.5c0 1.892-.123 3.125 1.4 4.4v.123h-9.91V62.9c1.52-1.275 1.396-2.467 1.396-4.4v-9.87c0-1.89.125-3.124-1.397-4.4v-.122h5.755c.946 0 1.852-.165 2.632-.617h.123v3.003zM165.904 52.25l3.29-3.783c.576-.658 1.274-1.234 1.274-2.138 0-.947-.78-1.77-1.522-2.1v-.122h9.5v.123l-6.374 7.074 5.427 8.47c.78 1.234 1.563 2.427 2.755 3.126v.123c-2.343 0-4.73.205-7.073.205-1.89 0-2.632-1.233-3.495-2.713l-3.783-6.25v4.194c0 1.932-.083 3.124 1.44 4.44v.123h-9.993V62.9c1.563-1.316 1.4-2.508 1.44-4.44V40.49c-.04-1.892.123-3.085-1.44-4.4v-.124h5.716c.987 0 1.892-.205 2.715-.658h.124V52.25z"/></g></svg>