<svg width="200" height="100" viewBox="0 0 200 100" xmlns="http://www.w3.org/2000/svg"><title>aims</title>,<g fill="#000" fill-rule="evenodd"><path d="M128.66 9.888c-4.55-4.29-9.98-7.128-15.564-9.748h-1.577c.102 3.037-1.856 5.513-2.306 8.4 1.258.59 2.512 1.184 3.774 1.764 6.064 2.788 10.704 7.096 14.447 12.617 2.404 3.547 4.347 7.208 5.557 11.285 2.26-.62 4.496-1.364 6.79-1.825 1.772-.356 1.97-1.09 1.446-2.684-2.52-7.668-6.686-14.257-12.57-19.808zM103.136 26.786zM125.835 36.41c-1.338.367-1.748.018-2.23-1.213-2.33-5.93-5.255-11.433-11.372-14.435-.584-.287-.93-1.036-1.5-1.373-1.472-.867-4.048-1.054-4.172-2.694-.142-1.894 1.072-3.934 1.88-5.834.285-.674.467-1.262.38-1.96-23.637-7.03-45.767 6.966-48.526 31.324-2.606 23.006 16.86 42.33 39.963 40.255 22.38-2.01 37.98-23.376 32.354-45.788-2.392.036-4.532 1.098-6.775 1.717zm-19.828 33.456c-8.494 2.73-16.513 1.85-24.383-3.126-9.75-6.164-15.577-20.414-10.616-32.564 4.214-10.32 11.82-16.44 23.044-17.858 3.34-.422 6.597.057 9.87.7 1.794.352 2.027 1.025 1.367 2.658-.22.542-.418 1.092-.604 1.647-.556 1.658-.998 3.362-1.515 5.035 2.64 1.134 5.08 2.51 7.075 4.33.287.26.564.533.83.813.27.285.532.577.78.882.46.56.885 1.155 1.265 1.794.34.573.647 1.18.917 1.82.134.323.26.653.375.992.81 2.378 1.976 2.184 3.833 1.658 6.43-1.82 5.863-2.747 6.285 4.363.658 11.083-6.277 22.92-18.523 26.856z"/><path d="M103.13 26.34l-.01.032.043.008-.033-.04zM113.04 40.095c-2.253.644-4.51 1.27-6.766 1.904-.318-2.98-1.993-5.03-4.564-6.385-1.122-.592-1.48-1.247-1.002-2.475.867-2.232 1.615-4.51 2.41-6.768-.242-.046-.494-.068-.723-.152-8.63-3.148-18.942 2.04-22.49 10.343-3.526 8.255-.146 18.986 7.853 23.222 6.34 3.36 12.8 3.48 18.928-.38 6.496-4.093 9.15-10.207 8.544-17.828-.134-1.683-.85-1.866-2.19-1.482zm-6.803 1.964c-.366 5.958-2.547 9.553-6.802 10.625-3.574.9-7.604-.262-9.695-2.987-2.39-3.117-2.688-7.58-.718-10.785 1.985-3.23 5.61-4.76 9.484-4.245 1.62.216 1.282 1.016.96 1.968-.628 1.858-1.257 3.715-1.91 5.564-.59 1.67-.046 2.37 1.686 1.903 2.345-.634 4.665-1.358 6.995-2.044 0-.018.003-.034.004-.052l.04.038-.043.013zM48.96 85.672l-5.392 14.205h3.605l1.077-3.047h4.76l1.038 3.047h3.702l-5.332-14.205h-3.46zm.264 8.393l1.432-4.02 1.385 4.02h-2.816zM79.84 85.714h3.545V99.92H79.84zM114.373 94.565l-3.037-8.893h-4.7v14.205h3.352V91.45l2.955 8.427h2.7l2.954-8.51v8.51h3.352l-.002-14.205h-4.703l-2.872 8.893zM155.566 93.52c-.345-.518-.76-.94-1.237-1.25-.47-.308-.95-.535-1.427-.676-.457-.135-.824-.23-1.078-.28-.857-.218-1.552-.395-2.083-.536-.517-.137-.922-.273-1.207-.407-.314-.144-.44-.274-.492-.358-.076-.123-.115-.296-.115-.514 0-.242.05-.438.148-.583.11-.164.245-.296.414-.404.173-.11.36-.186.576-.23.57-.122 1.165-.08 1.652.018.288.06.533.154.75.29.205.13.368.306.495.536.128.234.205.54.227.907l.016.246h3.433v-.26c0-.834-.164-1.556-.485-2.147-.32-.59-.756-1.08-1.3-1.46-.54-.376-1.16-.65-1.85-.817-1.265-.306-2.675-.357-4.044.01-.643.175-1.227.447-1.735.807-.518.365-.94.828-1.258 1.375-.324.555-.487 1.215-.487 1.96 0 .668.13 1.25.386 1.726.254.472.592.87 1.004 1.187.403.307.865.56 1.375.756.5.19 1.015.35 1.52.476.505.14 1.002.27 1.493.385.477.113.905.244 1.27.39.35.14.636.314.847.52.186.18.277.413.277.713 0 .286-.07.51-.212.69-.155.193-.345.34-.58.453-.245.117-.51.196-.79.237-.71.104-1.326.08-1.916-.072-.34-.087-.635-.22-.883-.4-.24-.172-.436-.402-.583-.684-.146-.278-.22-.63-.22-1.046v-.262h-3.446l-.002.258c-.013.882.152 1.66.492 2.31.337.646.8 1.187 1.375 1.604.57.413 1.233.72 1.973.913.73.19 1.492.286 2.268.286.96 0 1.816-.113 2.548-.336.74-.226 1.372-.548 1.877-.958.51-.413.9-.913 1.162-1.486.257-.568.388-1.19.388-1.85 0-.816-.18-1.5-.534-2.033z"/></g></svg>