<svg width="200" height="100" viewBox="0 0 200 100" xmlns="http://www.w3.org/2000/svg"><title>attachmentsme</title>,<g fill="#000" fill-rule="evenodd"><path d="M190.277 54.36c-.215-.165-.44-.25-.672-.25-.217 0-.535.076-.807.426l-.736.904-.69.77c-.223.25-.452.48-.697.698-.4.372-.822.735-1.26 1.076-.424.332-.868.636-1.266.873-.343.156-.7.295-1.068.414-.21.07-.425.105-.634.105-.092 0-.184-.008-.277-.02-.027-.006-.054-.008-.082-.008-.21 0-.42-.08-.635-.252-.09-.112-.145-.237-.18-.38-.048-.22-.085-.425-.112-.622.005-.52.087-1.068.24-1.63l.075-.094.46-.118c.155-.05.308-.097.46-.135.186-.044.365-.097.538-.156.547-.172 1.083-.366 1.6-.58.53-.222 1.055-.5 1.575-.836.292-.207.598-.444.904-.706.33-.285.62-.606.856-.952.238-.348.423-.722.552-1.107.15-.447.15-.93 0-1.46-.225-.674-.697-1.143-1.362-1.352-.372-.117-.748-.177-1.115-.177-.203 0-.405.02-.61.056-.52.097-1.013.294-1.466.584-.415.268-.807.572-1.16.895-.856.765-1.584 1.672-2.17 2.7-.457.798-.816 1.632-1.08 2.492l-.188.237c-.36.415-.72.817-1.08 1.204-.36.388-.734.777-1.1 1.143-.302.275-.626.55-.96.818-.283.225-.567.367-.847.427-.024.004-.046.008-.068.01-.01-.082-.002-.16.025-.24.073-.217.137-.427.193-.616.187-.59.407-1.173.65-1.73.252-.573.505-1.16.764-1.76l.714-1.79c.28-.697.422-1.413.422-2.13 0-.282-.045-.564-.135-.835-.097-.296-.267-.565-.532-.827-.278-.24-.608-.39-.984-.45-.186-.027-.376-.044-.56-.044-.124 0-.25.008-.365.02-.647.065-1.26.268-1.818.606-.516.31-1.005.662-1.438 1.04-.667.55-1.292 1.16-1.858 1.81l-.136.16c.04-.54.01-1.086-.087-1.624-.107-.59-.366-1.1-.774-1.51-.41-.408-.925-.614-1.535-.614-.05 0-.098.002-.185.006-.565.068-1.086.253-1.55.552-.418.267-.812.57-1.15.883-.403.332-.78.698-1.12 1.09-.022-.25-.066-.49-.136-.725-.113-.37-.317-.71-.625-1.018-.384-.353-.806-.533-1.254-.533-.15 0-.303.02-.455.064-.475.13-.916.348-1.262.612-.552.337-1.048.748-1.475 1.22-.394.438-.79.88-1.19 1.34l-1.418 1.668-.357.398c-.293.292-.39.676-.275 1.076.12.427.453.7.91.757.025.004.05.006.072.006.374 0 .602-.15.728-.276.086-.086.167-.183.24-.287l.523-.605 1.446-1.652c.234-.234.452-.467.657-.7.188-.215.39-.43.573-.615.188-.16.378-.317.568-.467.165-.13.343-.24.53-.335.022-.01.043-.022.063-.03.05.08.082.208.047.42-.068.403-.14.75-.224 1.054-.106.453-.24.896-.398 1.317-.165.438-.345.877-.538 1.32-.244.57-.51 1.15-.786 1.718-.28.577-.563 1.162-.843 1.75l-.542 1.127c-.278.556-.097.974.037 1.174.02.03.045.058.073.087.297.296.593.36.79.36.197 0 .494-.064.792-.36.015-.015.03-.03.042-.05.147-.18.266-.383.357-.602.066-.157.127-.305.18-.438l.565-1.05 1.376-2.38c.5-.803 1.024-1.598 1.56-2.37.526-.756 1.12-1.465 1.787-2.133.2-.226.43-.443.685-.646.24-.195.497-.352.733-.462.28-.11.433-.125.5-.125.05 0 .07.008.062.017.082.222.135.437.156.63.052.56.02 1.13-.096 1.704-.122.613-.267 1.214-.436 1.803-.08.327-.17.647-.265.96-.094.31-.196.617-.31.93-.04.122-.097.242-.17.354-.1.158-.193.31-.297.484l-.452.866c-.24.424-.426.853-.55 1.28-.077.198-.115.397-.115.587 0 .198.06.49.338.77.28.28.57.338.762.338.264 0 .52-.105.73-.294.208-.165.375-.373.495-.615.078-.153.154-.294.252-.46.146-.292.28-.592.4-.887.114-.286.228-.586.348-.915.054-.162.107-.32.163-.47.043-.116.097-.233.152-.323l.457-.708.506-.757c.15-.228.32-.45.524-.683.36-.472.728-.936 1.102-1.394.364-.445.755-.877 1.143-1.267.346-.32.712-.635 1.086-.943.34-.276.73-.518 1.176-.73.052-.025.16-.07.36-.128.143-.04.28-.06.407-.06.057 0 .11.005.155.017 0 .005 0 .01.002.016.02.15.01.292-.028.43-.054.205-.11.407-.168.608-.075.277-.165.543-.267.786-.113.27-.228.55-.34.826-.25.612-.513 1.22-.79 1.83-.285.633-.547 1.287-.774 1.938-.15.42-.284.92-.4 1.487-.15.73.016 1.38.465 1.863.245.29.536.478.86.564.188.05.387.075.588.075.1 0 .202-.006.302-.02.28-.028.564-.095.844-.195.283-.1.534-.22.705-.338.63-.36 1.215-.807 1.74-1.334.178-.178.35-.357.524-.538.057.223.13.444.23.656.238.513.58.923 1.015 1.22.425.288.91.468 1.45.533.2.024.397.037.595.037.83 0 1.645-.218 2.418-.65.88-.49 1.68-1.033 2.394-1.63.34-.313.66-.62.96-.917l.923-.924 1.026-1.154c.13-.165.26-.36.384-.58.252-.435.154-.925-.273-1.292zm-6.502-2.163c.277-.303.607-.595.98-.863.324-.237.666-.372 1.08-.423.068-.01.134-.018.2-.018.132 0 .262.025.38.048 0 0 .013.043.005.122-.062.302-.25.612-.564.927-.555.58-1.24 1.042-2.043 1.372-.41.17-.82.324-1.234.464.358-.6.758-1.146 1.195-1.63zM151.27 54.552c-.2-.144-.41-.218-.626-.218-.214 0-.528.074-.823.457-.6.86-1.34 1.694-2.2 2.475-.5.444-1.026.862-1.578 1.243-.152.104-.31.207-.47.3.037-.163.066-.327.09-.493.083-.637.127-1.258.125-1.83.03-.703.014-1.413-.042-2.11-.052-.65-.066-1.316-.04-1.945.026-.298.054-.582.08-.854.022-.208.074-.41.167-.62.02-.052.05-.094.094-.132.176-.155.308-.343.377-.52.23-.46.103-.952-.33-1.277-.194-.146-.4-.22-.614-.22-.2 0-.492.067-.772.386l-.483.564c-.63.714-1.252 1.44-1.848 2.156-2.402 2.895-4.602 5.383-5.042 5.907-.41.487-.876.914-1.426 1.3-.126.106-.29.203-.49.292-.202.09-.407.153-.61.186-.06.01-.12.016-.18.016-.09 0-.175-.012-.26-.04-.06-.02-.11-.12-.146-.21-.123-.27-.167-.55-.136-.865.04-.408.088-.8.138-1.158.106-.56.237-1.126.387-1.684.145-.548.317-1.1.504-1.637l.662-1.82.312-.826c.03-.063.07-.163.163-.465h2.792c.34 0 .647-.152.868-.428.25-.315.29-.708.12-1.046-.17-.394-.528-.62-.982-.62l-.08.002c-.237.013-.05.02-.208.02h-1.632c.11-.276.22-.544.327-.81.206-.508.42-1.026.647-1.563l.603-1.534.188-.374c.124-.252.163-.522.118-.737-.057-.522-.394-.866-.902-.927-.05-.006-.096-.01-.144-.01-.432 0-.785.25-.935.653-.332.803-.67 1.603-1.015 2.406-.344.796-.71 1.583-1.094 2.35l-.26.545h-2.222c-.162 0-.313.01-.46.025-.337.04-.608.253-.722.545-.178.354-.154.737.064 1.045.203.295.527.457.91.457h1.233c-.305.493-.618.977-.935 1.447-.496.737-1.02 1.482-1.564 2.216-.12.126-.228.27-.33.428-.18.24-.367.485-.565.75-.36.485-.706.922-1.014 1.282-.352.38-.714.747-1.072 1.092-.335.322-.715.617-1.144.886-.017.01-.096.06-.326.16-.16.067-.324.12-.483.154-.037.008-.072.014-.105.018.002-.093.018-.183.046-.273.074-.22.14-.43.198-.643.08-.283.17-.55.27-.793.116-.268.23-.546.335-.815.28-.647.562-1.285.842-1.916.287-.65.552-1.33.788-2.04.056-.2.12-.434.19-.706.08-.302.13-.61.147-.92.02-.345-.028-.675-.138-.986-.12-.336-.32-.627-.61-.875-.42-.336-.908-.507-1.446-.507-.17 0-.35.017-.53.053-.637.124-1.187.316-1.625.566-.6.33-1.162.723-1.666 1.17-.426.378-.84.783-1.233 1.216.01-.11.014-.22.014-.333 0-.306-.035-.612-.112-.956-.19-.603-.56-1.047-1.073-1.283-.277-.128-.565-.194-.857-.194-.24 0-.484.045-.727.13-.444.16-.85.37-1.2.627-.325.236-.654.504-.98.802-.348.318-.685.647-1 .974-.31.33-.622.66-.963 1.034l-2.094 2.762-.69.77c-.223.25-.452.48-.697.698-.4.372-.823.735-1.26 1.076-.423.332-.868.636-1.267.873-.34.156-.697.295-1.066.414-.21.07-.425.105-.634.105-.092 0-.185-.008-.277-.02-.03-.006-.055-.008-.083-.008-.212 0-.422-.08-.637-.252-.088-.112-.145-.237-.18-.38-.047-.22-.085-.425-.11-.622.003-.52.086-1.068.238-1.63l.075-.094.46-.118c.155-.05.31-.097.46-.135.186-.044.366-.097.538-.156.548-.172 1.085-.366 1.6-.58.533-.222 1.056-.5 1.575-.836.293-.207.598-.444.905-.706.33-.285.62-.606.855-.952.238-.348.424-.722.553-1.107.15-.447.15-.93 0-1.46-.225-.674-.697-1.143-1.362-1.352-.372-.117-.748-.177-1.115-.177-.202 0-.405.02-.61.056-.52.097-1.012.294-1.464.584-.415.268-.808.572-1.163.895-.853.765-1.582 1.672-2.17 2.7-.455.798-.813 1.632-1.076 2.492l-.19.237c-.36.415-.72.817-1.08 1.204-.36.388-.732.777-1.1 1.143-.3.275-.625.55-.96.818-.28.225-.566.367-.845.427-.024.004-.046.008-.07.01-.01-.082 0-.16.026-.24.073-.217.137-.427.193-.616.19-.59.407-1.173.65-1.73.254-.573.506-1.16.765-1.76l.714-1.79c.28-.697.42-1.413.42-2.13 0-.282-.045-.564-.136-.835-.097-.296-.266-.565-.53-.827-.28-.24-.61-.39-.984-.45-.19-.027-.378-.044-.562-.044-.123 0-.25.008-.365.02-.647.065-1.258.268-1.818.606-.516.31-1.004.662-1.438 1.04-.666.55-1.29 1.16-1.857 1.81-.045.054-.092.106-.136.16.04-.54.01-1.086-.088-1.624-.104-.59-.364-1.1-.772-1.51-.41-.408-.926-.614-1.535-.614-.05 0-.1.002-.187.006-.565.068-1.086.253-1.55.552-.417.267-.812.57-1.15.883-.403.332-.778.698-1.12 1.09-.02-.25-.066-.49-.136-.725-.112-.37-.316-.71-.625-1.018-.383-.353-.804-.533-1.252-.533-.15 0-.305.02-.457.064-.475.13-.915.348-1.262.612-.55.337-1.047.748-1.474 1.22-.395.438-.79.88-1.188 1.34 0 0-3.292 3.885-3.916 4.645-.59.72-1.246 1.393-1.952 1.997-.093.065-.223.165-.39.304-.13.11-.274.204-.43.28-.02.012-.043.023-.065.033-.002-.126.02-.256.064-.4.095-.3.185-.573.267-.818.13-.396.284-.79.456-1.168.177-.396.36-.8.555-1.215l.62-1.344c.26-.568.47-1.16.616-1.76.154-.634.193-1.236.114-1.79-.093-.653-.45-1.184-1.08-1.59-.43-.26-.89-.39-1.368-.39-.295 0-.598.05-.903.148-.707.225-1.328.542-1.833.926-.387.275-.76.575-1.116.9.084-.117.173-.23.267-.342l2.115-2.405c.797-.934 1.593-1.89 2.367-2.845.787-.97 1.512-2 2.155-3.063.304-.5.616-1.044.926-1.62.357-.664.503-1.364.438-2.08-.072-.827-.462-1.45-1.13-1.805-.314-.164-.642-.247-.977-.247-.377 0-.762.106-1.133.31-.553.292-1.02.715-1.388 1.262-.326.48-.63.965-.928 1.472l-1.46 2.92c-.47 1.05-.93 2.1-1.387 3.15-.457 1.05-.906 2.1-1.348 3.152-.134.317-.273.622-.418.914-.136.267-.3.526-.48.748-.19.217-.37.42-.546.607-.19.205-.378.43-.527.632-.413.467-.818.92-1.216 1.358-.404.447-.807.915-1.2 1.393l-.002.004c-.768.812-1.563 1.63-2.377 2.428-.85.84-1.82 1.5-2.88 1.962-.48.213-1.027.39-1.608.523-.248.05-.508.074-.77.074-.222 0-.42-.04-.61-.124-.246-.105-.39-.257-.466-.497-.108-.335-.15-.658-.124-.997.025-.446.1-.893.22-1.33.116-.43.28-.85.497-1.256.522-1.043 1.218-2.05 2.057-2.966l.716-.717c.192-.194.42-.35.718-.488.146-.083.298-.14.464-.17l.07.03c.088.086.15.213.182.382.03.15.06.294.09.426.045.205.205.57.77.73.027.01.053.015.08.02.08.01.157.016.225.016.39 0 .617-.17.738-.316.15-.18.24-.415.267-.7.02-.23-.002-.462-.063-.69-.047-.17-.088-.305-.118-.4-.19-.564-.527-1.008-1.006-1.316-.387-.246-.823-.372-1.29-.372-.114 0-.23.008-.39.03-.68.136-1.3.444-1.84.917-.472.415-.92.83-1.354 1.266-.78.87-1.484 1.87-2.096 2.973-.108.196-.206.395-.298.59l-1.446 1.69c-.483.563-1.002 1.125-1.568 1.693-.176.198-.366.39-.567.564l-.653.573c-.13.106-.272.2-.428.277-.154.077-.322.14-.522.19-.035.01-.067.014-.1.014-.04 0-.082-.01-.13-.024-.07-.026-.082-.05-.103-.09-.086-.155-.122-.317-.113-.5.01-.257.042-.495.096-.74.05-.308.12-.61.21-.898.094-.307.194-.61.313-.942.044-.152.098-.286.16-.398.08-.15.16-.303.243-.464.108-.164.21-.33.308-.496.103-.177.2-.353.277-.508.307-.56.593-1.104.858-1.633.266-.532.524-1.077.776-1.635.01-.02.016-.038.023-.058.02-.06.062-.144.124-.256.104-.19.183-.384.235-.58.067-.238.076-.47.028-.69-.042-.187-.184-.526-.638-.676-.184-.074-.35-.118-.514-.14-.1-.013-.208-.03-.377-.063-.272-.03-.55-.048-.822-.048-.498 0-1.002.053-1.495.16-.745.16-1.463.404-2.132.724-.553.265-1.086.58-1.582.946-.484.355-.947.74-1.367 1.13-.545.49-1.054 1.02-1.51 1.575-.385.47-.72.98-1.002 1.512-.017.017-.038.032-.055.053l-1.094 1.305c-.443.555-.886 1.093-1.33 1.618-.41.49-.878.918-1.43 1.307-.125.105-.29.204-.49.292-.204.09-.41.153-.613.187-.06.01-.12.015-.18.015-.092 0-.178-.012-.263-.04-.06-.02-.11-.122-.146-.21-.123-.268-.168-.553-.137-.87.042-.408.09-.803.14-1.16.107-.562.237-1.132.387-1.694.147-.548.32-1.103.508-1.642l.664-1.828.313-.83c.03-.063.073-.165.162-.468h2.812c.34 0 .65-.154.87-.428.253-.317.293-.712.122-1.05-.17-.396-.53-.625-.987-.625l-.082.002c-.235.013-.432.02-.59.02h-1.26c.11-.275.22-.546.328-.81.206-.513.42-1.033.648-1.572l.607-1.54.188-.38c.127-.25.166-.524.12-.74-.057-.52-.396-.868-.906-.928-.05-.006-.096-.01-.143-.01-.433 0-.788.253-.94.657-.332.804-.672 1.61-1.02 2.413-.343.8-.71 1.59-1.097 2.362l-.26.546H30.16l.327-.807c.207-.514.423-1.034.65-1.573l.606-1.54.188-.38c.127-.25.165-.524.12-.74-.058-.52-.396-.868-.906-.928-.05-.006-.097-.01-.142-.01-.436 0-.79.253-.94.657-.334.804-.674 1.61-1.02 2.413-.346.8-.715 1.59-1.1 2.362l-.26.546h-2.23c-.163 0-.315.01-.462.025-.34.04-.61.255-.725.55-.18.355-.155.74.063 1.048.206.297.53.46.915.46h1.236c-.307.494-.622.98-.94 1.455-1.474 2.205-3.055 3.99-3.055 3.99-.483.56-1.003 1.123-1.568 1.69-.177.2-.367.392-.566.566l-.653.573c-.128.106-.272.2-.426.277-.153.077-.32.14-.52.19-.035.01-.068.014-.1.014-.04 0-.083-.01-.13-.024-.07-.026-.082-.05-.103-.09-.087-.155-.123-.317-.114-.5.01-.257.042-.495.096-.74.05-.308.12-.61.21-.898.093-.307.193-.61.313-.942.043-.152.096-.286.157-.398.082-.15.162-.303.244-.464.108-.164.21-.33.307-.496.104-.177.2-.353.278-.508.307-.56.593-1.104.858-1.633.265-.532.524-1.077.776-1.635.01-.02.015-.038.022-.058.02-.06.062-.144.124-.256.105-.19.183-.384.235-.58.067-.238.076-.47.028-.69-.04-.187-.183-.526-.637-.676-.184-.074-.35-.118-.514-.14-.1-.013-.21-.03-.378-.063-.274-.03-.55-.048-.822-.048-.5 0-1.002.053-1.496.16-.744.16-1.463.404-2.132.724-.553.265-1.087.58-1.583.946-.483.355-.948.74-1.37 1.13-.544.49-1.053 1.02-1.507 1.575-.47.573-.87 1.202-1.182 1.854-.258.492-.485 1.003-.673 1.52-.197.55-.314 1.12-.344 1.728 0 .506.088 1.005.263 1.48.195.532.544.963 1.034 1.277.474.31 1 .465 1.568.465.126 0 .254-.008.384-.023.638-.077 1.226-.24 1.782-.502.59-.325 1.152-.738 1.67-1.222.1-.098.2-.194.296-.29.006.062.012.124.02.186.094.77.55 1.35 1.297 1.67.362.173.73.26 1.098.26.307 0 .615-.062.917-.183.564-.23 1.07-.533 1.487-.892.57-.456 1.108-.965 1.598-1.51l1.412-1.58c.196-.225.393-.458.59-.696.18-.22.378-.436.582-.64.012-.013.023-.03.035-.04-.04.18-.083.358-.122.54-.09.416-.15.852-.178 1.292-.03.458-.016.918.046 1.374.068.48.242.92.516 1.315.302.435.735.732 1.27.873.3.09.603.136.9.136.375 0 .747-.073 1.11-.216.58-.23 1.106-.533 1.57-.902.615-.5 1.172-1.055 1.654-1.656.457-.565.92-1.125 1.358-1.644.16-.158.31-.334.45-.522.11-.144.223-.278.344-.398.02-.02.037-.04.053-.062.015-.022.025-.043.04-.063.04-.043.083-.086.12-.127-.045.198-.09.398-.134.6-.09.416-.15.852-.18 1.292-.03.458-.013.918.047 1.374.068.48.24.92.516 1.315.302.435.734.732 1.27.873.3.09.603.136.9.136.375 0 .747-.073 1.11-.216.58-.23 1.106-.533 1.57-.902.466-.378.9-.79 1.29-1.228.042.18.09.36.155.534.195.532.543.963 1.033 1.277.475.31 1.002.465 1.57.465.124 0 .252-.008.383-.023.64-.077 1.228-.24 1.782-.502.59-.325 1.152-.738 1.67-1.222l.298-.29c.005.062.01.124.02.186.093.77.547 1.35 1.296 1.67.36.173.73.26 1.097.26.308 0 .616-.062.916-.183.565-.23 1.07-.533 1.488-.892.57-.456 1.11-.965 1.6-1.51l.396-.446c.014.152.034.302.062.453.107.55.356 1.057.746 1.52.503.573 1.11.91 1.808 1 .273.036.552.057.827.057.33 0 .665-.027.997-.08 1.328-.215 2.55-.708 3.634-1.467 1.034-.726 2.01-1.528 2.91-2.4l1.427-1.502-.665 1.692c-.138.357-.274.705-.412 1.05-.138.346-.277.7-.408 1.043-.1.23-.174.478-.223.74-.092.497.15.918.6 1.087.166.07.32.11.472.11.348 0 .643-.202.785-.532.087-.202.173-.418.254-.637l.495-1.24c.155-.387.34-.768.556-1.15.697-1.336 1.512-2.586 2.423-3.712.747-.93 1.555-1.767 2.397-2.477.288-.236.588-.462.895-.677.245-.17.51-.273.826-.318.124-.022.233-.035.333-.035.175 0 .227.037.227.037.098.22.113.52.04.893-.088.458-.237.935-.44 1.418-.223.53-.39.932-.494 1.192l-.91 2.07c-.32.725-.556 1.493-.704 2.3-.105.737.058 1.39.486 1.944.327.422.78.645 1.307.645.244 0 .508-.046.797-.146.737-.278 1.463-.776 2.154-1.48.64-.655 1.218-1.284 1.708-1.857.31-.336.553-.61.737-.82.183-.21 2.01-2.36 2.01-2.36l1.444-1.65c.234-.235.453-.468.657-.702.19-.214.39-.43.573-.614.19-.16.38-.317.57-.467.164-.13.342-.24.53-.335.02-.01.042-.022.062-.03.05.08.083.208.046.42-.065.403-.14.75-.222 1.054-.106.453-.24.896-.4 1.317-.163.438-.343.877-.536 1.32-.244.57-.51 1.15-.785 1.718-.282.577-.563 1.162-.843 1.75l-.542 1.127c-.28.556-.098.974.037 1.174.02.03.044.058.07.087.298.296.595.36.793.36.195 0 .492-.064.79-.36.015-.015.03-.03.043-.05.147-.18.265-.383.356-.602.067-.157.127-.305.18-.438l.565-1.05 1.378-2.38c.498-.803 1.023-1.598 1.56-2.37.526-.756 1.12-1.465 1.785-2.133.2-.226.432-.443.686-.646.242-.195.497-.352.734-.462.278-.11.432-.125.5-.125.05 0 .068.008.06.017.083.222.135.437.156.63.052.56.02 1.13-.096 1.704-.122.613-.267 1.214-.435 1.803-.082.327-.17.647-.266.96-.095.31-.198.617-.31.93-.043.122-.1.242-.172.354-.1.158-.193.31-.297.484l-.452.866c-.242.424-.426.853-.55 1.28-.076.198-.114.397-.114.587 0 .198.06.49.337.77.283.28.57.338.763.338.265 0 .52-.105.73-.294.208-.165.374-.373.495-.615.08-.153.155-.294.252-.46.147-.292.28-.592.4-.887.114-.286.228-.586.348-.915.054-.162.107-.32.162-.47.043-.116.1-.233.153-.323l.457-.708.506-.757c.15-.228.32-.45.524-.683.36-.472.728-.936 1.102-1.394.364-.445.755-.877 1.142-1.267.347-.32.713-.635 1.087-.943.34-.276.732-.518 1.177-.73.054-.025.16-.07.36-.128.144-.04.28-.06.408-.06.057 0 .11.005.154.017v.016c.022.15.012.292-.026.43-.054.205-.11.407-.167.608-.076.277-.167.543-.268.786-.115.27-.23.55-.342.826-.248.612-.512 1.22-.79 1.83-.285.633-.547 1.287-.774 1.938-.15.42-.284.92-.4 1.487-.15.73.015 1.38.465 1.863.243.29.534.478.858.564.19.05.387.075.59.075.098 0 .2-.006.3-.02.28-.028.564-.095.844-.195.283-.1.533-.22.705-.338.63-.36 1.215-.807 1.742-1.334.175-.178.35-.357.522-.538.057.223.13.444.228.656.24.513.582.923 1.017 1.22.426.288.913.468 1.452.533.2.024.396.037.592.037.832 0 1.646-.218 2.418-.65.882-.49 1.68-1.033 2.395-1.63.34-.313 1.095-.95 1.798-1.78l2.203-2.768c.28-.342.69-.815 1.12-1.286.42-.462.865-.9 1.316-1.298.33-.28.665-.54.995-.77.08-.03.16-.058.253-.082 0 .044 0 .085-.008.124-.007.037-.01.075-.01.113 0 .317-.037.623-.112.92-.106.45-.24.888-.397 1.296-.167.434-.336.86-.5 1.268-.305.72-.634 1.442-.978 2.142-.35.72-.71 1.44-1.085 2.193l-.326.736c-.184.367-.143.656-.074.834.065.177.222.416.588.562.14.056.285.084.43.084.147 0 .29-.028.428-.083.254-.1.45-.265.574-.48.178-.242.338-.502.47-.773.12-.234.244-.46.387-.687.443-.778.907-1.54 1.377-2.275.47-.732.975-1.467 1.498-2.186.52-.71 1.09-1.41 1.693-2.085.57-.632 1.236-1.15 2.018-1.555.117-.07.247-.135.387-.193.127-.054.256-.09.38-.11.04-.01.08-.02.118-.036.057-.022.165-.053.367-.066.036 0 .043.007.035.02-.012.145-.03.28-.055.406-.075.41-.22.885-.438 1.427-.222.605-.464 1.21-.724 1.8-.27.61-.533 1.226-.778 1.83-.147.32-.278.633-.393.94-.127.327-.22.668-.276.974-.06.248-.108.506-.14.768-.036.313-.018.617.058.915.198.76.7 1.233 1.41 1.337.187.03.375.042.557.042.375 0 .742-.057 1.114-.174.63-.22 1.21-.553 1.728-.992.468-.397.91-.804 1.32-1.214.38-.378.75-.79 1.098-1.23.337-.423.662-.83.98-1.235.056-.073.126-.156.196-.237-.03.125-.06.25-.085.377-.09.416-.148.85-.178 1.288-.03.455-.014.914.047 1.37.067.475.24.915.512 1.306.3.434.733.73 1.265.87.3.09.602.135.897.135.372 0 .744-.073 1.104-.215.577-.227 1.103-.53 1.566-.9.18-.146.355-.3.527-.456.39.333.806.63 1.244.88.548.31 1.14.544 1.764.69.5.116 1.003.175 1.495.175.768 0 1.537-.14 2.283-.42 1.18-.442 2.255-1.038 3.19-1.776.476-.366.933-.757 1.355-1.167.414-.4.823-.83 1.218-1.28.197-.225.373-.437.53-.636.15-.193.31-.4.495-.646.332-.498.23-1.05-.263-1.408zm-43.047-2.355c.277-.303.607-.595.98-.863.324-.237.666-.372 1.082-.423.066-.01.132-.018.2-.018.13 0 .26.025.377.048 0 0 .014.043.005.122-.063.302-.248.612-.562.927-.556.58-1.243 1.042-2.044 1.372-.41.17-.82.324-1.233.464.36-.6.76-1.146 1.196-1.63zM74.91 42.89c.245-.544.504-1.09.776-1.635.263-.527.558-1.035.875-1.51.15-.227.33-.455.53-.68.148-.166.314-.273.51-.326l.01-.004c.034.06.05.123.05.194 0 .365-.11.72-.33 1.09-.28.458-.53.883-.748 1.263-.725 1.207-1.536 2.353-2.41 3.402l-.292.35c.32-.718.664-1.432 1.03-2.146zM17.727 53.91l-.386.817c-.05.124-.106.246-.167.37-.05.1-.12.205-.238.358-.294.455-.615.92-.952 1.38-.326.442-.676.85-1.04 1.216-.31.31-.645.6-.992.854-.314.235-.677.413-1.058.526-.192.048-.41.084-.644.11-.045.003-.09.006-.133.006-.12 0-.227-.02-.305-.047-.1-.045-.14-.095-.164-.136-.074-.12-.13-.254-.167-.386-.09-.353-.088-.71.002-1.094.1-.43.23-.83.38-1.184.256-.588.582-1.148.97-1.664.39-.52.827-1.012 1.31-1.468.395-.395.817-.77 1.253-1.113.424-.334.9-.634 1.412-.89.505-.253 1.058-.446 1.643-.573.272-.06.546-.096.82-.11l-.182.324c-.205.37-.418.748-.642 1.136-.144.263-.278.53-.394.793-.114.252-.228.524-.326.775zm16.935-1.594c-.496.74-1.024 1.487-1.57 2.222-.055.06-.108.127-.16.196-.053.04-.102.09-.145.144l-1.096 1.305c-.443.555-.886 1.093-1.328 1.618-.41.49-.88.918-1.432 1.307-.126.105-.29.204-.49.292-.205.09-.41.153-.612.187-.063.01-.122.015-.182.015-.09 0-.176-.012-.26-.04-.062-.02-.11-.122-.148-.21-.124-.268-.17-.553-.137-.87.042-.408.09-.803.14-1.16.106-.562.238-1.132.387-1.694.148-.548.32-1.103.507-1.642l.665-1.828.312-.83c.032-.063.074-.165.164-.468H35.6c-.306.495-.62.982-.94 1.456zm14.516 1.594l-.387.817c-.052.124-.107.246-.168.37-.05.1-.12.205-.237.358-.295.455-.615.92-.954 1.38-.324.442-.673.85-1.038 1.216-.31.31-.646.6-.992.854-.315.235-.68.413-1.06.526-.19.048-.408.084-.643.11-.046.003-.09.006-.133.006-.12 0-.228-.02-.304-.047-.102-.045-.142-.095-.164-.136-.074-.12-.13-.254-.168-.386-.09-.353-.087-.71.003-1.094.1-.43.23-.83.383-1.184.255-.588.58-1.148.966-1.664.39-.52.828-1.012 1.31-1.468.396-.395.818-.77 1.254-1.113.423-.334.898-.634 1.41-.89.507-.253 1.06-.446 1.645-.573.27-.06.545-.096.817-.11l-.18.324c-.205.37-.418.748-.64 1.136-.146.263-.28.53-.396.793-.113.252-.227.524-.324.775zm94.52 3.566c-.035.437-.127.87-.27 1.272-.11.286-.26.537-.443.744-.15.168-.353.277-.61.332-.053.01-.1.017-.15.017-.02 0-.042 0-.064-.004-.108-.012-.22-.03-.342-.054l-.438-.084c-.11-.02-.217-.05-.357-.104-.457-.147-.91-.38-1.366-.708-.113-.075-.223-.158-.328-.246.37-.458 1.95-2.424 4.316-4.995.006.16.016.315.03.47.053.654.08 1.303.08 1.933 0 .473-.02.953-.06 1.425zM152.99 61.71c-.404 0-.765-.152-1.05-.44-.286-.282-.436-.66-.436-1.086 0-.398.15-.76.437-1.047.285-.288.647-.44 1.05-.44.423 0 .8.152 1.087.437.287.29.438.652.438 1.05 0 .426-.15.803-.437 1.088-.288.288-.663.437-1.09.437z"/></g></svg>