<svg width="200" height="100" viewBox="0 0 200 100" xmlns="http://www.w3.org/2000/svg"><title>b5media</title>,<g fill="#000" fill-rule="evenodd"><path d="M24.075 43.934v5.24c-.917-1.165-1.876-1.642-2.114-1.775-.935-.524-1.337-1.34 0-2.142.388-.235 1.45-.55 2.115-1.324zm11.494-10.61V59.46c.778.22 1.53.385 2.232.51V32.875c-.725.1-1.482.242-2.233.45zm-6.743 3.892v18.467c.607.58 1.273 1.136 1.99 1.637V35.625c-.737.51-1.398 1.046-1.99 1.59zm4.764-3.187c-.49.228-.95.474-1.392.728v23.41c.408.22.825.42 1.26.593.244.097.487.185.73.27V33.778c-.202.077-.403.16-.597.252zm5.594-1.303V60.18c1.768.22 2.96-.057 2.96-.057V32.69s-1.253-.09-2.96.037zm-13.728 8.677v10.068c.492.816 1.16 1.78 1.992 2.752V38.64c-.854.98-1.505 1.932-1.992 2.764zM49.55 43.49c1.5-1.563 3.617-2.66 5.59-2.67 4.422-.028 7.5 2.873 7.906 7.997.487 6.17-1.99 12.025-10.962 12.39-2.02.083-5.615-.356-6.866-.515l.098-28.403h4.238l-.004 11.2zm1.908 14.333c5.55-.035 7.608-3.847 6.822-8.924-.53-3.44-1.63-4.29-3.95-4.182-2.92.135-4.74 3.437-4.776 5.037v8.08l1.904-.012zM79.024 44.702c-.107 0-6.134.043-9.06.043l.04 5.855c1.432.093 3.252.322 4.383.593 1.13.27 1.75.57 2.528 1.054 1.223.757 1.77 1.56 2.236 2.612.472 1.074.843 2.442.758 4.424-.052 1.265-.602 2.94-1.39 4.09-.788 1.15-2.54 2.626-3.92 3.287-1.032.49-2.95 1.053-4.512 1.223-1.412.153-4.866-.252-4.97-.252l.04-3.667s3.483.402 4.808.212c1.32-.196 1.718-.333 2.568-.718 1-.464 2.532-1.81 2.532-4.637 0-1.936-1.183-3.033-2.32-3.794-.987-.658-3.454-.928-4.72-.968-.177 0-2.422.083-2.53.083l.084-13.61 13.488.04-.042 4.132zM83.06 46.207c0-2.022.058-3.657-.025-5.242h4.362v2.223c1.486-1.528 3.562-2.93 6.898-2.93 1.82 0 3.773.683 4.637 2.944l.216.323c.313-.295 1.636-1.534 2.504-2.03 1.284-.733 3.795-1.41 5.66-1.073 3.182.58 4.957 1.198 4.955 8.403v11.32h-4.336v-10.8c0-3.722-.287-5.08-2.723-5.08-2.103 0-3.184.795-4.3 2.194-.778.972-.846 2.187-.91 4.044l-.056 9.64h-4.25V48.588c0-3.05-.452-4.53-3.21-4.53-2.226 0-3.734 1.443-4.527 3.15-.233.504-.556 1.643-.556 2.595v10.343h-4.38l.042-13.938zM118.952 51.215c.083 4.678 2.44 6.278 6.064 6.278 2.596 0 4.205-.525 5.524-1.082l.572 2.877c-1.28.555-3.68 1.744-6.853 1.744-6.103 0-9.638-4.435-9.638-10.18 0-5.79 3.587-10.35 9.4-10.35 6.51 0 8.2 5.512 8.2 9.04 0 .71-.04 1.228-.126 1.624l-13.144.05zm8.665-3.357c0-1.734-.65-4.224-3.9-4.224-2.816 0-4.15 1.806-4.438 4.224h8.337zM152.218 32.083s.042 26.753.166 28.062h-4.742v-1.457s-2.763 2.413-6.507 2.343c-4.823-.09-7.166-4.084-7.166-9.91-.042-6.422 4.866-10.63 8.953-10.62 3.09.01 4.72.292 4.72.292l-.07-8.71h4.645zm-4.563 17.696c.08-1.816 0-4.803-.124-5.28 0 0-1.067-.692-3.787-.648-2.962.047-5.213 2.194-5.394 7.024-.152 3.92 1.383 6.242 3.116 6.672 2.358.593 4.33-.975 5.155-2.455.752-1.34.955-3.5 1.035-5.314zM158.506 38.11c-1.513 0-2.707-1.338-2.707-2.49 0-1.23 1.24-2.49 2.6-2.49 1.317 0 2.538 1.19 2.522 2.417-.032 2.348-2.416 2.564-2.416 2.564zm-2.384 22.035v-19.18h4.386v19.18h-4.386zM179.79 56.305c0 1.664-.097 2.53.108 3.84h-4.16l-.328-2.44h-.122c-1.072 1.504-2.94 3.326-5.786 3.326-4.037 0-6.418-3.206-6.418-5.98 0-4.638 4.29-7.177 11.996-7.135v-.396c0-1.59-.196-3.926-4.277-3.886-1.897 0-4.338.605-5.74 1.518l-.217-3.142c1.65-.992 4.31-1.624 6.824-1.624 6.14 0 8.12 2.435 8.12 6.28v9.64zm-4.874-4.98c-3.958-.08-7.577.754-7.577 3.896 0 1.518 2.162 2.492 3.354 2.385 1.622-.148 3.417-1.52 4.006-3.143.433-1.188.216-3.137.216-3.137z"/></g></svg>