<svg width="200" height="100" viewBox="0 0 200 100" xmlns="http://www.w3.org/2000/svg"><title>bedsidemanor</title>,<g fill="#000" fill-rule="evenodd"><path d="M16.26 83.566c2.2-.127 2.354-.204 2.482-.384.18-.256.307-.717.307-4.76v-6.554c0-4.044-.13-4.505-.308-4.76-.128-.18-.282-.257-2.483-.385v-.768c1.023.05 2.302.102 4.683.102 1.23 0 1.87-.102 3.276-.102 2.227 0 5.478.92 5.478 4.095 0 1.87-1.383 3.43-3.943 4.045v.05c3.405.41 5.146 2.407 5.146 4.967 0 2.765-2.406 5.222-6.194 5.222-2.1 0-3.38-.102-4.326-.102-1.255 0-2.97.05-4.12.102v-.768zm4.888-9.522c2.662 0 6.4-.154 6.4-3.738 0-2.43-1.793-3.583-4.43-3.583-1.663 0-1.842.102-1.868 1.56l-.102 5.76zm.076 7.705c.026 1.457.46 1.663 2.304 1.663 2.125 0 5.07-.64 5.07-4.02 0-3.532-2.817-4.58-5.786-4.58-1 0-1.33.05-1.664.076l.076 6.86zM43.39 82.707c-.98 1.16-2.3 1.934-4.21 1.934-2.708 0-4.71-2.183-4.71-5.278 0-2.64 1.956-5.142 4.87-5.142 2.457 0 4.004 1.775 4.004 3.595v.41c-.41-.07-2.162-.09-3.118-.09h-1.91c-1.116 0-1.912.02-2.163.09-.022.16-.045.34-.045.66 0 2.525 1.843 4.528 4.005 4.528 1.137 0 1.865-.32 2.798-1.16l.48.454zm-4.187-7.804c-1.593 0-2.98 1.547-2.98 2.434 0 .16.112.25.454.25l2.457-.136c2.116-.136 2.298-.226 2.298-.682 0-1.114-.955-1.865-2.23-1.865zM54.948 84.346c-.046-.365-.137-.842-.25-1.14-.73.753-1.912 1.298-3.482 1.298-3.96 0-4.62-3.185-4.62-4.596 0-3.026 2.185-5.415 5.462-5.415.59 0 1.888.114 2.64.41v-2.73c0-2.367-.046-3.164-.297-3.55-.135-.205-.385-.32-1.34-.32v-.545c1-.182 2.183-.614 2.82-1h.615c-.16 2.957-.16 4.458-.16 7.6v8.054c0 .84.137.955.934 1.07l.522.067v.477c-.865.045-1.934.16-2.298.477l-.546-.158zm-3.004-9.307c-2.07 0-3.572 1.774-3.572 4.095 0 2.707 1.865 4.414 3.55 4.414 1.456 0 2.39-.66 2.753-1.138.068-1.025.16-1.753.16-3.027 0-2.252-.115-4.346-2.89-4.346zM60.818 81.433h.865c.227 1.774 1.32 2.526 2.41 2.526 1.117 0 1.958-.844 1.958-1.753 0-.66-.5-1.183-1.25-1.57l-2.116-1.07c-1.297-.66-1.866-1.456-1.866-2.617 0-1.547 1.275-2.73 3.413-2.73.957 0 1.82.16 2.595.41l.137 2.252h-.75c-.343-1.41-1.23-1.98-2.186-1.98-1.07 0-1.843.57-1.843 1.343 0 .614.114.956 1.252 1.57l2.343 1.206c.933.502 1.64 1.253 1.64 2.664 0 1.615-1.23 2.957-3.756 2.957-.842 0-1.98-.204-2.753-.68l-.092-2.527zM70.42 83.686l.796-.09c.637-.07.82-.32.865-.66.07-.457.092-1.275.092-3.665 0-2.615-.045-3.07-.114-3.275-.182-.524-.796-.592-1.297-.592v-.546c1.64-.136 2.254-.318 2.823-1.388h.477c-.18 1.25-.25 3.912-.25 5.8 0 2.39 0 3.323.07 3.8.044.32.25.457.886.525l.796.09v.638c-.887-.045-1.73-.09-2.593-.09-.866 0-1.708.045-2.55.09v-.637zm2.844-15.382c.546 0 .933.41.933 1 0 .73-.66 1.39-1.388 1.39-.592 0-.957-.433-.957-.956 0-1.07.91-1.434 1.41-1.434zM87.053 84.346c-.046-.365-.137-.842-.25-1.14-.73.753-1.912 1.298-3.482 1.298-3.958 0-4.618-3.185-4.618-4.596 0-3.026 2.184-5.415 5.46-5.415.592 0 1.89.114 2.64.41v-2.73c0-2.367-.045-3.164-.295-3.55-.137-.205-.387-.32-1.343-.32v-.545c1-.182 2.184-.614 2.82-1h.616c-.16 2.957-.16 4.458-.16 7.6v8.054c0 .84.137.955.934 1.07l.523.067v.477c-.865.045-1.934.16-2.298.477l-.547-.158zM84.05 75.04c-2.07 0-3.573 1.774-3.573 4.095 0 2.707 1.866 4.414 3.55 4.414 1.456 0 2.39-.66 2.753-1.138.068-1.025.16-1.753.16-3.027 0-2.252-.115-4.346-2.89-4.346zM101.66 82.707c-.978 1.16-2.297 1.934-4.21 1.934-2.707 0-4.71-2.183-4.71-5.278 0-2.64 1.958-5.142 4.87-5.142 2.458 0 4.005 1.775 4.005 3.595v.41c-.41-.07-2.16-.09-3.117-.09h-1.91c-1.116 0-1.913.02-2.163.09-.023.16-.046.34-.046.66 0 2.525 1.843 4.528 4.004 4.528 1.138 0 1.866-.32 2.8-1.16l.477.454zm-4.186-7.804c-1.593 0-2.98 1.547-2.98 2.434 0 .16.113.25.455.25l2.456-.136c2.116-.136 2.298-.226 2.298-.682 0-1.114-.956-1.865-2.23-1.865zM127.602 83.566c1.74-.102 2.28-.18 2.407-.46.23-.513.178-2.79.178-4.122 0-2.918-.103-8.652-.282-10.674h-.05c-1.128 2.918-4.097 10.982-4.737 13.31-.436.282-1.178 1.614-1.357 2.612h-.46c-.718-2.56-5.428-13.26-6.4-15.436h-.052c-.28 3.354-.664 8.525-.664 12.39 0 1.817.05 2.02.588 2.15.563.128 1.1.18 1.843.23v.768c-1.05-.05-1.97-.102-3.302-.102-1.126 0-1.92.05-2.61.102v-.768c1.586-.102 1.79-.204 1.944-.538.256-.537 1.33-13.95 1.33-15.512 0-.64-.153-.768-1.996-.793h-.46v-.768c.716.05 1.46.102 2.175.102.844 0 1.688-.05 2.533-.102 1.127 3.302 4.685 12.338 5.99 14.565 2.048-4.787 4.505-11.596 5.4-14.565.64.05 1.256.102 2.177.102.717 0 1.562-.05 2.586-.102v.768l-1.152.05c-1.127.052-1.203.103-1.203 1.998 0 .205.308 13.798.692 14.386.154.23.41.334 2.073.41v.768c-1.152-.05-2.457-.102-3.763-.102-1.15 0-2.304.05-3.43.102v-.768zM143.763 77.2c0-1.774-.59-2.16-1.365-2.16-.91 0-2.116.477-2.116 1.91 0 1.252-.888 1.457-1.274 1.457-.433 0-.637-.182-.637-.546 0-1.547 2.89-3.64 4.847-3.64 1.183 0 2.32.478 2.32 2.525 0 1.798-.067 3.62-.067 5.416 0 .934.09 1.298.477 1.298.296 0 .637-.205.91-.683l.137.57c-.273.636-1.047 1.296-1.638 1.296-.614 0-1.093-.272-1.593-1.682-1.547 1.32-2.594 1.683-3.458 1.683-1.343 0-2.026-.932-2.026-2.024 0-1.524 1.455-2.775 5.483-4.3V77.2zm0 1.73c-2.366.956-3.71 2.003-3.71 3.3 0 .682.525 1.183 1.32 1.183.843 0 1.866-.524 2.208-1.206.07-.137.183-.75.183-1.23V78.93zM153.705 74.903c.502-.32 1.366-.683 2.458-.683 1.957 0 3.208.956 3.208 3.573 0 1.183-.135 3.913-.135 4.823 0 .774.045.91.66.98l.728.09v.637c-.592-.045-1.32-.09-2.208-.09-1.023 0-1.82.045-2.502.09v-.637l1.137-.137c.546-.07.683-.25.683-3.778 0-.614-.023-1.73-.114-2.616-.137-1.343-1.252-1.844-2.185-1.844-1.07 0-1.91.5-2.753 1.092v6.098c0 .728.045 1.025.66 1.093l.955.09v.638c-.728-.023-1.593-.09-2.435-.09-1.023 0-1.75.067-2.457.09v-.637l.98-.09c.613-.07.658-.366.658-1.094V76.86c0-.706-.227-.933-1.297-1.116v-.546c1.138-.068 1.798-.523 2.276-1.41h.523v2.14h.023l1.137-1.025zM168.996 74.22c3.572 0 5.12 2.57 5.12 5.05 0 2.572-1.935 5.37-5.234 5.37-3.3 0-5.12-2.798-5.12-5.255 0-2.935 2.32-5.165 5.234-5.165zm3.208 5.893c-.068-2.89-1.16-5.096-3.436-5.21-1.843 0-3.094 1.888-3.094 4.05 0 2.275 1.205 5.006 3.64 5.006 2.64 0 2.89-2.71 2.89-3.847zM177.37 83.686l.955-.09c.614-.07.66-.366.66-1.094V76.86c0-.706-.228-.933-1.298-1.116v-.546c1.138-.068 1.798-.523 2.276-1.41h.524v2.14c1.09-1.025 2.16-1.708 2.866-1.708 1.047 0 1.388 1.25 1.388 1.593 0 .41-.18.774-.75.774-1.25 0-1.092-1.138-1.683-1.138-.183 0-.865.43-1.684 1.16v5.983c0 .706.09.934 1.092 1.002l1.115.09v.638c-.91-.045-1.82-.09-2.73-.09-.91 0-1.82.045-2.73.09v-.637zM99.382 14.924c-12.83 0-23.23 10.4-23.23 23.228 0 1.66.178 3.278.51 4.84.642-2.153 1.81-4.247 3.498-6.26 2.5-2.99 5.807-5.44 9.83-7.284 4.022-1.843 8.067-2.777 12.02-2.777 2.903 0 5.404.48 7.435 1.42 2.62-1.372 3.294-1.532 3.572-1.532.193 0 .4.116.4.442 0 .294-.3.542-.946.778-.848.34-1.552.653-2.095.932 1.788 1.18 2.694 2.798 2.694 4.816 0 1.637-.62 3.072-1.84 4.263-1.134 1.13-2.683 1.965-4.608 2.484 1.497.44 2.702 1.142 3.586 2.093 1.026 1.102 1.547 2.446 1.547 3.994 0 2.157-.882 4.118-2.62 5.83-1.74 1.71-3.846 2.575-6.26 2.575-1.635 0-2.963-.44-3.95-1.308-.992-.874-1.495-2.02-1.495-3.403 0-1.942.95-3.56 2.824-4.81 1.357-.917 2.504-1.38 3.41-1.38.102 0 .44.037.44.526 0 .137 0 .2-1.535.988-1.144.543-2.035 1.145-2.655 1.793-.92.976-1.388 2.12-1.388 3.4 0 1.693 1.078 2.516 3.297 2.516 1.565 0 3.122-.836 4.628-2.486 1.513-1.655 2.28-3.465 2.28-5.38 0-1.228-.33-2.243-.98-3.018-.645-.772-1.533-1.234-2.64-1.373-.952.26-1.772.394-2.365.394-.62 0-.96-.31-.96-.873 0-.438.242-.96 1.398-.96.505 0 1.05.087 1.62.26 1.363-.008 2.573-.628 3.545-1.853.985-1.238 1.485-2.766 1.485-4.544 0-1.207-.463-2.315-1.374-3.295-2.057 1.294-4.542 4.158-7.386 8.517-3.847 5.892-6.384 9.553-7.543 10.883-3.124 3.588-6.39 5.407-9.706 5.407-.24 0-.47-.013-.7-.028 4.19 4.107 9.926 6.643 16.258 6.643 12.827 0 23.226-10.4 23.226-23.228 0-12.828-10.4-23.228-23.226-23.228z"/><path d="M84.727 53.694c2.37 0 4.856-1.585 7.39-4.712.262-.29 2.644-3.733 7.086-10.24 2.963-4.368 5.762-7.546 8.325-9.453-1.587-1.065-3.648-1.605-6.13-1.605-6.135 0-11.468 2.045-15.85 6.08-4.15 3.825-6.253 8.238-6.253 13.116 0 2.122.498 3.808 1.482 5.012.972 1.196 2.302 1.802 3.95 1.802z"/></g></svg>