<svg width="200" height="100" viewBox="0 0 200 100" xmlns="http://www.w3.org/2000/svg"><title>bibliocommons</title>,<g fill="#000" fill-rule="evenodd"><path d="M27.208 50.154c4.117 0 6.933 2.12 6.933 5.57 0 1.727-.817 2.907-1.937 3.604 2.513.938 3.876 3.058 3.876 5.51 0 3.875-3.03 6.51-7.056 6.51H21.97l-.152-.152v-20.89l.152-.152h5.238zM25.33 58.33h1.878c2.028 0 2.937-.758 2.937-2.424 0-1.453-.91-2.21-2.937-2.21H25.33v4.633zm0 9.475h3.573c1.968 0 3.21-1.03 3.21-2.967 0-1.847-1.242-2.967-3.21-2.967H25.33v5.935zM57.608 50.154l.15.15v20.892l-.15.15h-3.21l-.15-.15v-20.89l.15-.152h3.21zM81.317 50.154c4.118 0 6.934 2.12 6.934 5.57 0 1.727-.817 2.907-1.937 3.604 2.513.938 3.875 3.058 3.875 5.51 0 3.875-3.027 6.51-7.054 6.51H76.08l-.152-.152v-20.89l.15-.152h5.24zM79.44 58.33h1.877c2.03 0 2.937-.758 2.937-2.424 0-1.453-.908-2.21-2.937-2.21H79.44v4.633zm0 9.475h3.573c1.968 0 3.21-1.03 3.21-2.967 0-1.847-1.242-2.967-3.21-2.967H79.44v5.935zM111.664 50.154l.12.12v17.53h9.115l.12.152v3.27l-.12.12h-12.506l-.12-.12V50.274l.12-.12h3.27zM142.185 50.154l.152.15v20.892l-.152.15h-3.21l-.15-.15v-20.89l.15-.152h3.21zM181.26 60.296c0 6.146-5.027 11.05-11.204 11.05-6.206 0-11.202-4.904-11.202-11.05 0-6.146 4.996-11.05 11.202-11.05 6.177 0 11.203 4.904 11.203 11.05zm-18.41 0c0 4.118 3.21 7.358 7.206 7.358 3.997 0 7.206-3.24 7.206-7.358 0-4.117-3.21-7.357-7.206-7.357-3.996 0-7.206 3.24-7.206 7.356zM18.543 61.702c-1.107-.908-2.478-1.404-3.88-1.404-2.743 0-5.006 2.246-5.006 5.02 0 2.776 2.263 5.022 5.005 5.022 1.403 0 2.774-.496 3.88-1.404l.083.082v1.09c-1.073.777-2.394 1.24-3.963 1.24-3.386 0-6.11-2.726-6.11-6.03 0-3.302 2.724-6.028 6.11-6.028 1.57 0 2.89.463 3.963 1.24v1.09l-.082.082zM51.494 65.32c0 3.32-2.74 6.027-6.11 6.027S39.27 68.64 39.27 65.32c0-3.32 2.742-6.03 6.11-6.03 3.37 0 6.112 2.71 6.112 6.03zm-11.115 0c0 2.774 2.262 5.02 5.003 5.02 2.76 0 5.02-2.246 5.02-5.02 0-2.776-2.26-5.022-5.02-5.022-2.74 0-5.004 2.246-5.004 5.02zM62.583 59.786l.165.082 4.443 5.517 4.427-5.517.165-.082h.76l.083.082v11.397l-.083.082h-.81l-.082-.082V61.223l-4.377 5.483h-.165l-4.393-5.483v10.042l-.083.082h-.81l-.082-.082V59.868l.083-.082h.76zM93.91 59.786l.166.082 4.442 5.517 4.427-5.517.165-.082h.76l.082.082v11.397l-.082.082h-.81l-.082-.082V61.223L98.6 66.706h-.164l-4.394-5.483v10.042l-.082.082h-.81l-.082-.082V59.868l.083-.082h.76zM135.29 65.32c0 3.32-2.742 6.027-6.112 6.027s-6.11-2.708-6.11-6.028c0-3.32 2.74-6.03 6.11-6.03s6.11 2.71 6.11 6.03zm-11.116 0c0 2.774 2.263 5.02 5.004 5.02 2.76 0 5.02-2.246 5.02-5.02 0-2.776-2.26-5.022-5.02-5.022-2.74 0-5.004 2.246-5.004 5.02zM146.946 59.786l.165.082 7.466 9.96v-9.96l.083-.082h.808l.083.082v11.397l-.082.082h-.86l-.164-.082-7.482-9.96v9.96l-.083.082h-.81l-.082-.082V59.868l.082-.082h.876zM190.082 61.503c-.53-.743-1.124-1.205-2.048-1.205-.99 0-1.784.776-1.784 1.8 0 2.197 5.5 2.164 5.5 5.698 0 1.966-1.586 3.55-3.55 3.55-1.653 0-2.892-.907-3.47-2.393l.694-.513h.166c.495 1.24 1.453 1.9 2.61 1.9 1.386 0 2.443-1.107 2.443-2.544 0-2.642-5.483-2.576-5.483-5.698 0-1.552 1.27-2.808 2.874-2.808 1.32 0 2.312.744 2.89 1.735l-.677.478h-.165zM66 30h1.895v25.998H66zM69 30h.473v25.998H69zM65 30h.473v25.998H65zM74 30h1.895v17.618H74zM72 30h.406v25.998H72zM55 30h.406v17.618H55zM51 30h.406v25.998H51zM60 30h.406v25.998H60zM62 30h1.895v25.998H62zM58 30h1.895v17.618H58zM52 30h1.894v17.618H52zM88 30h.473v17.618H88zM92 30h.473v25.998H92zM88.892 29.912V47.53h1.692v8.38h.203V29.912h-1.895zM76 30h1.895v17.618H76zM96 30h1.895v25.998H96zM94 30h.406v25.998H94zM79 30h.406v17.618H79zM85 30h1.895v17.618H85zM82 30h.406v17.618H82zM83 30h.406v17.618H83zM30 30h1.894v17.618H30zM14 30h1.895v25.998H14zM17 30h.406v25.998H17zM18.384 29.912V55.91h1.728v-8.38h.166V29.912h-1.894zM24 30h1.895v17.618H24zM21 30h.406v17.618H21zM27 30h.406v17.618H27zM8 30h.978v25.998H8zM10 30h.406v25.998H10zM12 30h.473v25.998H12zM40 30h.406v25.998H40zM44 30h.406v25.998H44zM41 30h1.894v25.998H41zM28 30h.406v17.618H28zM45 30h.406v25.998H45zM48 30h1.895v25.998H48zM32 30h.406v17.618H32zM99 30h1.895v25.998H99zM35 30h.473v17.618H35zM36.384 29.912V47.53h.796v8.38h1.098V29.912h-1.894zM169 30h1.895v17.618H169zM162 30h.406v17.618H162zM163 30h1.894v17.618H163zM159 30h1.895v17.618H159zM171 30h.406v17.618H171zM166 30h.406v17.618H166zM155 30h.406v25.998H155zM150.596 29.912V55.91h.686V29.912h-.686zM152 30h1.894v25.998H152zM157 30h.473v17.618H157zM173 30h.406v17.618H173zM174 30h1.894v17.618H174zM186 30h1.894v25.998H186zM190 30h1.36v25.998H190zM188 30h.406v25.998H188zM181 30h1.895v17.618H181zM184 30h.406v25.998H184zM177 30h.406v17.618H177zM180 30h.473v17.618H180zM147 30h1.895v25.998H147z"/><path d="M114 30h.473v25.998H114zM123 30h1.895v25.998H123zM117 30h.406v25.998H117zM102 30h.406v25.998H102zM122 30h.473v25.998H122zM119 30h1.895v25.998H119zM145 30h.406v25.998H145zM110 30h1.895v17.618H110zM103 30h.473v25.998H103zM105.674 29.912V55.91H106v-8.38h.08V29.912h-.406zM108 30h1.895v17.618H108zM113 30h.406v17.618H113zM141 30h.406v17.618H141zM138 30h1.895v17.618H138zM142.687 29.912V47.53h1.852v8.38h.04V29.912h-1.893zM136 30h.406v25.998H136zM131 30h.406v25.998H131zM128 30h.406v25.998H128zM130 30h.406v25.998H130zM133 30h1.895v25.998H133zM126 30h.473v25.998H126z"/></g></svg>