<svg width="200" height="100" viewBox="0 0 200 100" xmlns="http://www.w3.org/2000/svg"><title>birthwaves</title>,<g fill="#000" fill-rule="evenodd"><path d="M17.31 49.975v-.05c2.672-.557 4.373-1.77 4.373-4.202 0-3.263-3.037-4.452-7.44-4.452h-5.74v17.663h5.65c4.31 0 8.076-.91 8.076-4.706 0-2.48-2.036-4.05-4.92-4.252zm-5.77-6.63h3.188c1.762 0 3.918.533 3.918 2.633 0 2.606-2.49 2.833-5.435 2.833h-1.67v-5.464zm2.278 13.514H11.54v-5.974h1.974c2.61 0 5.496.38 5.496 3.113 0 2.378-2.46 2.86-5.192 2.86zM26.5 41h3.036v17.662H26.5zM44.495 50.127v-.05c2.46-.354 4.373-1.873 4.373-4.025 0-4.225-4.04-4.78-8.23-4.78h-5.192v17.66h3.036V51.09h1.823c1.61 0 2.61 0 3.552 1.722l3.25 6.123h3.46L46.56 51.9c-.668-1.09-1.123-1.47-2.065-1.773zm-3.43-1.265H38.48v-5.365h2.916c2.793 0 4.25 1.013 4.25 2.607 0 1.695-1.7 2.758-4.584 2.758zM50.763 43.497h6.59v15.436h3.036V43.497h6.59V41.27H50.762v2.227zM82.996 48.66H72.854v-7.39h-3.037v17.663h3.037v-8.047h10.142v8.047h3.036V41.27h-3.036v7.39zM114.756 41c-.858 0-1.822.285-2.573.75.358 1.25.43 2.608.43 4.108 0 4.93-4.324 11.646-7.18 11.646-1.61 0-1.894-1.643-1.18-4.93l2.5-11.252-3.072.214c-1.177 4.5-2.213 8.825-4.285 11.968-1.465 2.214-3.144 4-4.573 4-.93 0-1.608-.82-1.108-2.893l3.144-13.43-.18-.18-6.393 1-.18.857 2.18.18c.786.07.822.463.536 1.715l-2.25 9.752c-.785 3.393.537 4.86 2.537 4.86 2.965 0 6.145-3.073 8.288-7.36l.072.07c-.25 1.286-.572 2.824-.572 3.823 0 1.964.857 3.466 3 3.466 2.966 0 5.646-2.75 7.967-6.145 2.36-3.43 3.966-7.324 4.002-9.432 0-1.465-.822-2.786-1.108-2.786zM130.72 57.504c-.713 0-.678-.82-.357-1.964l3.788-14.255h-3l-.18.464c-.607-.428-1.643-.75-2.608-.75-8.502 0-12.575 9.395-12.575 14.11 0 2.145 1 4.253 3.43 4.253 3.823 0 7.145-4.43 9.217-8.075h.072l-1.215 4.072c-.75 2.537-.356 4.003 1.573 4.003 2.715 0 4.716-2.43 5.93-5.144l-.857-.502c-.644 1.25-2.214 3.786-3.215 3.786zm-3.93-5.43c-2 3.037-4.178 5.43-5.893 5.43-1.18 0-1.573-1.107-1.573-2.5 0-3.93 3.5-12.753 9.11-12.753.86 0 1.644.286 2.18.786-.643 2.644-1.93 6.18-3.823 9.04zM152.11 41c-.855 0-1.855.285-2.606.75.358 1.25.428 2.608.428 4.466-.286 4.894-4.894 11.396-7.823 11.288-.894 0-1.538-.785-1.145-2.5l3.108-13.825-.177-.18-6.324 1-.215.857 2.215.18c.823.07.787.535.536 1.715l-2.18 9.93c-.713 3.25.43 4.68 2.467 4.68 3.07 0 6.18-2.858 8.644-6.18 2.428-3.287 4.143-7.18 4.18-9.396 0-1.393-.823-2.786-1.11-2.786zM167.326 48.002c1.25-1.25 1.5-2.43 1.5-3.43 0-1.893-1.5-3.572-4.428-3.572-3.216 0-5.86 1.644-7.825 4.073-1.893 2.32-2.965 5.43-2.965 8.43 0 5.002 3.25 5.86 5.322 5.86 2.61 0 5.753-1.144 8.182-5.11l-.822-.714c-1.286 1.68-3.215 4.072-5.894 4.072-2.502 0-3.252-2.144-3.252-4.966 0-.178 0-.322.036-.57 6.002-1.217 8.61-2.646 10.146-4.074zm-3.93-5.75c1.25 0 2.072.855 2.072 2.106 0 2.502-2.178 5.216-8.216 6.5.606-4.32 3.287-8.607 6.145-8.607zM177.467 41c-3.643 0-5.787 2.36-5.787 5.252 0 1.857 1.285 3.5 3.144 5 1.536 1.216 2.465 2.787 2.465 4.18 0 1.68-1.073 2.68-2.574 2.68-1.32 0-2.643-1.107-3.215-3-.213-.68-.535-1.073-1.14-1.073-1.073 0-1.86.963-1.86 1.93 0 1.534 1.965 3.393 5.36 3.393 3.858 0 6.18-2.466 6.18-5.396 0-1.964-.894-3.5-3.287-5.465-2.144-1.75-2.536-2.93-2.536-3.93 0-1.143.892-2.32 2.213-2.32 1.18 0 2.108.784 2.86 2.464.18.428.464.714 1 .714.713 0 1.714-.537 1.714-1.644 0-1.107-1.358-2.786-4.537-2.786zM190.79 41.74l-.83 2.175-.844-2.176h-.913v3.22h.59v-2.463h.014l.906 2.464h.48l.907-2.463h.015v2.464h.59v-3.22h-.916zM184.872 42.282h.99v2.68h.59v-2.68h.992v-.543h-2.572v.542z"/></g></svg>