<svg width="200" height="100" viewBox="0 0 200 100" xmlns="http://www.w3.org/2000/svg"><title>blogto</title>,<g fill="#000" fill-rule="evenodd"><path d="M157.915 30.16c-3.415-4.225-8.37-6.366-14.725-6.366-6.044 0-10.817 1.94-14.206 5.76v-1.82l-.002-.027c-.11-1.432-1.03-3.063-3.29-3.343l-.046-.006H98.458l-.045.006c-2.683.332-3.33 2.505-3.298 3.606l-.01 1.584c-.022 1.075.622 3.242 3.29 3.58l.05.007h8.517v14.562c-4.865-.615-6.378 1.475-6.537 1.72-1.37-1.106-3.58-1.815-5.452-1.815-5.77 0-8.76 3.575-8.76 7.19 0 2.502 1.454 4.09 3.29 5.48-.982.28-3.46 1.788-3.46 3.775 0 2.223 2.264 2.74 3.29 3.336v.08c-1.923 0-4.017 1.23-4.017 3.812 0 3.258 3.93 4.926 9.913 4.926 7.092 0 10.296-3.178 10.296-6.117 0-8.263-14.612-3.735-14.612-7.072 0-1.19 1.837-1.27 4.144-1.27 5.555 0 8.375-2.78 8.375-6.674 0-1.588-.513-2.78-1.196-3.654.05-.03.1-.055.152-.08 1.162-.52 3.244-.4 4.572-.25v16.902l.013.067c.17.95.97 3.162 4.663 3.162h.78c4.022 0 4.617-2.64 4.703-3.446l.006-.04V33.14h8.535l.048-.005c.338-.042.642-.12.922-.217-2.124 3.873-3.202 8.866-3.202 14.903 0 7.586 1.695 13.53 5.038 17.664 3.413 4.223 8.367 6.365 14.724 6.365 6.356 0 11.31-2.143 14.725-6.366 3.34-4.135 5.037-10.078 5.037-17.663 0-7.584-1.696-13.526-5.037-17.66zM93.947 68.26c5.128 0 6.71 1.43 6.71 2.383 0 .715-1.155 2.304-4.573 2.304-4.444 0-5.896-.716-5.896-2.305 0-.874.854-2.383 3.76-2.383zm.983-10.17c-2.265 0-3.846-1.508-3.846-3.415s1.58-3.416 3.846-3.416c2.008 0 3.632 1.51 3.632 3.417 0 1.907-1.624 3.416-3.632 3.416zm48.26 4.974c-2.63 0-4.65-.75-6.174-2.293-2.347-2.374-3.498-6.728-3.424-12.943v-.01c0-10.4 3.05-15.243 9.598-15.243 6.55 0 9.6 4.844 9.6 15.244 0 10.402-3.05 15.246-9.6 15.246zM48.816 47.607c-1.795 0-4.316.993-5.384 2.304h-.086v-7.49l-.005.007s.052-2.29-2.307-2.447h-.708c-1.754.116-2.176 1.412-2.277 2.07V66.58c.106.688.563 2.077 2.534 2.077h1.61l.6-2.225c1.88 1.707 3.63 2.62 6.024 2.62 5.896 0 8.887-4.845 8.887-11.28 0-5.084-3.162-10.168-8.887-10.168zM47.45 65.084c-2.266 0-2.992-1.032-4.104-1.827v-9.93c1.07-.914 2.393-1.748 4.103-1.748 3.16 0 4.955 2.382 4.955 6.752 0 4.37-1.794 6.752-4.956 6.752zM62.05 39.98h-.734c-1.713.114-2.155 1.35-2.268 2.022v24.645c.11.656.537 1.855 2.16 2.012h.95c1.796-.176 2.128-1.623 2.188-2.2V42.19c-.06-.59-.404-2.085-2.295-2.21zM75.446 47.607c-6.024 0-9.656 4.17-9.656 10.725 0 6.553 3.632 10.724 9.656 10.724 6.025 0 9.657-4.17 9.657-10.724s-3.632-10.725-9.657-10.725zm0 17.477c-2.948 0-4.358-2.145-4.358-6.752 0-4.61 1.41-6.753 4.358-6.753 2.95 0 4.36 2.143 4.36 6.752 0 4.607-1.41 6.752-4.36 6.752z"/></g></svg>