<svg width="200" height="100" viewBox="0 0 200 100" xmlns="http://www.w3.org/2000/svg"><title>brainpark</title>,<g fill="#000" fill-rule="evenodd"><path d="M36.183 45.4c-2.762 0-4.47 1.178-5.933 2.6V36.24h-5.566v1.54c0 .496.403.898.895.898h1.865v24.397h1.747l.854-1.83c1.505 1.262 3.496 2.114 5.69 2.114 5.12 0 8.695-4.023 8.695-8.98 0-5.363-3.737-8.98-8.247-8.98zm-.61 15.52c-2.234 0-3.98-.893-5.323-1.95V50.44c1.422-1.462 3.212-2.6 5.445-2.6 3.372 0 5.85 2.64 5.85 6.583 0 3.9-2.64 6.5-5.97 6.5zM55.704 45.4c-1.87 0-3.942 1.87-5.284 4.266v-3.942h-5.443v1.582c0 .495.4.897.896.897h1.866v12.393h-1.867c-.495 0-.896.4-.896.896v1.542h8.816v-1.542c0-.495-.4-.896-.897-.896h-2.354V51.94c.855-1.747 2.44-3.29 3.74-3.656.283.772 1.014 1.463 2.07 1.463 1.1 0 1.953-.975 1.953-2.072 0-1.18-.895-2.276-2.6-2.276zM74.835 60.554h-1.91V51.17c0-1.463-.404-2.764-1.3-3.74-1.14-1.26-3.006-2.03-5.565-2.03-4.147 0-6.42 2.03-6.42 4.02 0 1.058.73 1.87 1.784 1.87 1.102 0 1.83-.77 1.83-1.787 0-.365-.12-.73-.243-1.016.57-.364 1.303-.73 2.684-.73 1.747 0 3.005.527 3.778 1.38.49.61.772 1.464.772 2.438v2.398c-.894-.326-3.127-.813-4.997-.813-3.86 0-6.667 2.073-6.667 5.242 0 2.966 2.4 4.957 5.733 4.957 2.356 0 4.59-1.14 6.013-2.52v2.194h5.405v-1.582c0-.496-.403-.898-.895-.898zm-4.59-1.867c-1.34 1.34-3.128 2.397-5.202 2.397-2.357 0-3.62-1.22-3.62-2.886 0-1.788 1.386-3.087 4.148-3.087 1.665 0 3.375.326 4.674.692v2.885zM84.792 60.554h-1.865l-.046.042h-.117V45.724h-5.73v1.582c0 .495.403.897.898.897h2.03v12.393h-.12l-.043-.042H77.93c-.494 0-.897.402-.897.898v1.582h8.655v-1.582c0-.496-.4-.898-.896-.898zM106.2 60.554h-1.866V51.25c0-1.422-.283-2.64-.854-3.617-.853-1.38-2.355-2.234-4.59-2.234-2.48 0-4.877 1.625-6.503 3.535v-3.21h-5.445v1.58c0 .496.403.898.898.898h1.867v12.35H87.84c-.495 0-.898.403-.898.9v1.58h8.29v-1.58c0-.497-.404-.9-.896-.9H92.51v-9.506C94.055 49.34 96.046 48 98.2 48c1.422 0 2.4.487 2.885 1.503.325.61.448 1.38.448 2.315v8.736h-1.825c-.495 0-.898.402-.898.898v1.582h8.29v-1.582c0-.496-.4-.898-.898-.898z"/><path d="M143.268 60.554h-1.866l-.04.037v-9.42c0-1.463-.405-2.764-1.302-3.74-1.136-1.26-3.006-2.03-5.567-2.03-4.144 0-6.42 2.03-6.42 4.02 0 1.058.73 1.87 1.788 1.87 1.1 0 1.83-.77 1.83-1.787 0-.365-.12-.73-.244-1.016.57-.364 1.3-.73 2.684-.73 1.747 0 3.006.527 3.777 1.38.488.61.773 1.464.773 2.438v2.398c-.895-.326-3.128-.813-4.998-.813-3.862 0-6.664 2.073-6.664 5.242 0 2.966 2.398 4.957 5.73 4.957 2.355 0 4.592-1.14 6.014-2.52v2.157l-.04.037h5.444v-1.582c0-.496-.403-.898-.898-.898zm-4.588-1.867c-1.34 1.34-3.128 2.397-5.202 2.397-2.357 0-3.617-1.22-3.617-2.886 0-1.788 1.385-3.087 4.147-3.087 1.664 0 3.373.326 4.673.692v2.885zM117.354 45.4c-2.6 0-4.348 1.178-5.81 2.803v-2.48h-5.487v1.583c0 .495.402.897.895.897h1.868v20.315h-1.868c-.493 0-.895.402-.895.897v1.583h8.9v-1.583c0-.495-.4-.897-.9-.897h-2.432v-7.15c1.423 1.22 3.33 1.99 5.363 1.99 5.16 0 8.532-4.184 8.532-9.06 0-5.322-3.616-8.9-8.166-8.9zm-.53 15.48c-2.233 0-3.9-.813-5.2-1.91V50.44c1.424-1.462 3.088-2.56 5.323-2.56 3.25 0 5.688 2.56 5.646 6.46-.04 3.78-2.395 6.543-5.77 6.543zm41.555-13.205c0-1.18-.894-2.276-2.6-2.276-1.87 0-3.94 1.87-5.284 4.266v-3.942h-5.445v1.582c0 .495.402.897.9.897h1.866v12.35h-1.867c-.498 0-.9.403-.9.9v1.58h8.82v-1.58c0-.497-.402-.9-.897-.9h-1.865l-.046.043h-.443V51.94c.853-1.747 2.437-3.29 3.74-3.656.282.772 1.013 1.463 2.07 1.463 1.097 0 1.95-.975 1.95-2.072zm17.04.528c.493 0 .896-.402.896-.897v-1.582h-9.794v1.582c0 .495.4.897.897.897h2.335l-7.09 6.136v-18.1h-5.567v1.583c0 .495.4.896.898.896h1.862v21.834h-1.862c-.498 0-.898.402-.898.898v1.582h8.37v-1.582c0-.496-.404-.898-.897-.898h-1.906V57.02l3.086-2.6 4.11 6.134h-1.245c-.494 0-.897.402-.897.898v1.582h8.598v-1.582c0-.496-.403-.898-.895-.898h-2.3l-5.338-7.68 5.446-4.67h2.193zM85.28 32.75c-.742-1.882-2.23-3.45-4.187-3.796-1.526-.27-2.88.876-3.808 1.917-.5.563-.86 1.086-1.098 1.59-2.01 1.572-4.143 4.45-2.984 6.435.633 1.08 1.414 1.723 2.285 2.074 1.605 2.06 4.713 2.895 7.254.63 1.512.217 3.072-.17 4.462-1.458 2.19-2.028-.02-5.668-1.923-7.39zm-8.288 7.415c-.204-.016-.39-.05-.572-.094-.665-.8-.957-1.888-.578-3.112.016.213.074.403.18.56.736 1.095 1.702 1.985 2.76 2.547-.59.092-1.18.14-1.79.1zm6.275-1.612c-.028.068-.057.126-.086.193-.376.32-.835.568-1.37.714-.087-.034-.19-.052-.31-.02-.144.036-.287.07-.43.11-.177-.014-.37-.044-.572-.093-1.155-.863-2.094-2.128-2.762-3.235-.08-.133-.148-.267-.214-.402.797-2.182 2.746-4.386 5.18-2.99 2.144 1.227 1.268 3.878.565 5.723zm-.41-7.296c-1.365-.504-2.824-.53-4.282-.07.304-.286.65-.546 1.03-.77 1.3-.768 2.413-.143 3.252.84zm-4.58 10.027c.75-.072 1.518-.232 2.28-.425.165.088.33.174.5.25-.9.42-1.89.445-2.78.174zm5.47-.816c.33-.46.626-.972.872-1.525.04-.047.082-.084.12-.134.723-.923 1.047-2.083 1.063-3.282.075.126.157.248.226.376 1.282 2.354.258 4.35-2.283 4.564z"/></g></svg>