<svg width="200" height="100" viewBox="0 0 200 100" xmlns="http://www.w3.org/2000/svg"><title>brownies</title>,<g fill="#000" fill-rule="evenodd"><path d="M57.67 34.182c2.036-1.126 3.26-1.745 3.674-1.855 1.046-.304 1.72-.344 2.02-.124.166.11.248.248.248.412 0 .33-.384.745-1.155 1.238-.302.194-.852.552-1.65 1.074 1.9.688 3.52 2.01 4.87 3.963.52.742.782 1.75.782 3.015 0 1.87-.4 3.316-1.197 4.332-1.02 1.295-2.325 2.34-3.92 3.138.937.908 1.567 1.748 1.898 2.517.386.88.578 1.858.578 2.93 0 1.79-.52 3.825-1.568 6.11-.74 1.68-2.076 3.07-4.002 4.17-1.927 1.1-3.85 1.65-5.777 1.65-1.43 0-2.626-.344-3.588-1.034-1.76-1.268-2.833-2.702-3.218-4.302-2.09 2.588-4.252 4.295-6.48 5.12-1.182.44-2.696.66-4.54.66-1.292 0-2.585-.276-3.877-.826-1.404-.604-2.45-1.39-3.137-2.35-1.073-1.49-1.61-3-1.61-4.54 0-2.176.855-3.866 2.56-5.078.687-.495 1.43-.742 2.23-.742.878 0 1.628.296 2.246.885.62.592.93 1.3.93 2.127 0 1.045-.387 1.815-1.156 2.31-1.402.908-2.105 1.76-2.105 2.558 0 .33.123.675.372 1.032.412.634 1.113.95 2.104.95.772 0 1.582-.235 2.436-.7 1.594-.882 2.998-2.134 4.208-3.758.742-1.018 1.94-3.012 3.59-5.985 1.954-3.493 3.73-6.45 5.323-8.87 2.064-3.165 4.1-5.723 6.108-7.676-.77-.166-1.556-.247-2.35-.247-1.844 0-3.647.385-5.408 1.154-2.724 1.158-4.73 2.45-6.024 3.88-1.128 1.24-1.87 2.766-2.228 4.58-.084.414-.125.814-.125 1.198 0 1.76.826 2.873 2.476 3.342.88.247 1.32.66 1.32 1.238 0 .825-.398 1.376-1.196 1.65-.22.083-.467.124-.744.124-1.126 0-2.076-.522-2.845-1.568-.88-1.21-1.32-2.57-1.32-4.085 0-.825.26-2.244.785-4.25.52-1.928 2.143-3.92 4.867-5.985 3.33-2.475 6.934-3.713 10.812-3.713 1.787 0 3.384.11 4.787.33zm.208 3.26c-.606.607-1.225 1.306-1.857 2.106-.88 1.1-1.775 3.067-2.682 5.9-1.265 3.77-2.297 6.52-3.094 8.25 1.017-.466 1.788-.768 2.31-.907.25-.052.467-.08.66-.08.607 0 .907.29.907.866 0 .577-.438.95-1.317 1.114-1.074.192-2.298.936-3.673 2.228-.854.8-1.278 1.802-1.278 3.012 0 .662.192 1.17.577 1.528.877.826 1.786 1.238 2.722 1.238 1.043 0 2.145-.593 3.3-1.774.578-.605 1.155-1.513 1.733-2.724.687-1.54 1.032-2.972 1.032-4.293 0-.302-.027-.603-.084-.906-.192-1.378-.62-2.23-1.277-2.56 0-.027-.62-.137-1.858-.33-.77 0-1.154-.427-1.154-1.278 0-.88.55-1.418 1.65-1.61.88-.028 1.762-.07 2.64-.124 1.76-.22 2.984-1.706 3.672-4.457.083-.33.124-.673.124-1.03 0-1.57-.604-2.737-1.815-3.508-.36-.22-.77-.44-1.237-.66zM70.846 47.84c-.523-.432-.784-.966-.784-1.603 0-.522.17-1.123.51-1.804.568-1.09 1.397-1.635 2.486-1.635.408 0 .755.114 1.04.34.28.23.423.58.423 1.058 0 .478-.134 1.002-.406 1.57.59.34 1.475.317 2.655-.068.997-.337 1.7-.506 2.11-.506.612 0 .975.26 1.088.783.046.18.07.363.07.543 0 .386-.115.812-.34 1.276-.23.466-.456.913-.682 1.345-.75 1.587-1.59 3.425-2.52 5.512-.263.748-.263 1.203 0 1.362.386 0 .726-.193 1.022-.58.545-.498 1.226-1.157 2.043-1.974.227-.318.534-.477.92-.477.227 0 .386.07.476.205.182.182.274.34.274.476 0 .16-.205.49-.614.988-2.18 2.635-4.415 4.51-6.707 5.62-.637.32-1.25.48-1.84.48-.86 0-1.548-.308-2.06-.92-.51-.614-.73-1.25-.664-1.908.16-1.43 1.318-3.496 3.473-6.2.84-1.044 1.26-1.86 1.26-2.452 0-.568-.49-.852-1.465-.852-2.45 3.202-4.198 5.313-5.243 6.333-.386.387-.783.442-1.192.17-.18-.09-.272-.237-.272-.442 0-.203.092-.385.272-.544.977-1.09 1.737-1.976 2.283-2.656.93-1.182 1.723-2.328 2.383-3.44z"/><path d="M95.323 52.983c.363.136.545.318.545.545 0 .25-.182.58-.545.987-1.157 1.545-2.496 2.372-4.016 2.485-.5.046-.92-.02-1.26-.203-1.998 2.636-4.222 3.954-6.673 3.954-1.158 0-2.078-.373-2.758-1.124-.68-.748-1.022-1.76-1.022-3.032 0-.545.07-1.113.205-1.704-.09.09-.206.136-.34.136-.457 0-.682-.228-.682-.683 0-.225.09-.442.27-.647 1.114-1.407 2.317-2.793 3.61-4.158 1.997-2.16 3.768-3.59 5.31-4.294.864-.41 1.704-.614 2.522-.614 1.542 0 2.575.785 3.097 2.352.113.34.17.74.17 1.193 0 1.523-.567 3.408-1.7 5.66.27.157.407.475.407.953.77-.182 1.384-.67 1.84-1.464.338-.34.68-.454 1.02-.34zm-9.634 4.324c.157.07.316.102.477.102.725 0 1.372-.648 1.938-1.94-.295-.523-.44-1.056-.44-1.6 0-.32.055-.615.17-.887.295-.75 1.032-1.02 2.212-.816.886-1.703 1.328-2.974 1.328-3.814 0-.635-.307-.953-.92-.953-.91 0-2.133 1.42-3.676 4.255-1.182 2.134-1.772 3.62-1.772 4.46 0 .59.227.99.68 1.192z"/><path d="M109.945 55.852c-.307-.68-.438-1.52-.393-2.52.07-1.474.668-3.142 1.8-5.003 1.246-2.044 2.48-3.065 3.704-3.065.566 0 1.02.238 1.36.714.34.476.475 1.008.406 1.598-.203 2.085-1.267 4.49-3.19 7.21.044.18.282.27.713.27.27 0 .758-.475 1.46-1.43.34-.452.703-.68 1.087-.68.475 0 .713.23.713.683 0 .205-.204.546-.612 1.024-.68.84-1.203 1.396-1.566 1.67-.886.703-1.85 1.056-2.894 1.056-.454 0-.85-.07-1.19-.21-.728.953-1.568 1.783-2.522 2.486-1.043.796-1.95 1.192-2.722 1.192-1.362 0-2.212-.828-2.553-2.486-1.998 1.544-3.608 2.315-4.834 2.315-.93 0-1.668-.277-2.212-.833-.546-.557-.818-1.255-.818-2.095 0-.704.193-1.406.58-2.112.725-1.293 1.61-2.995 2.655-5.106-2.52 3.02-3.94 4.527-4.256 4.527-.477 0-.715-.228-.715-.683 0-.41.27-.887.816-1.433 1.545-1.797 3.485-3.96 5.824-6.484.884-.797 1.815-1.195 2.79-1.195.82 0 1.385.25 1.703.75.18.274.273.57.273.888 0 .296-.238.977-.715 2.046-.5 1.137-1.578 3.217-3.235 6.242-.18.318-.273.66-.273 1.023 0 .592.238.887.712.887.383 0 .902-.25 1.557-.748 0-.114.03-.284.086-.51.056-.227.085-.398.085-.51.364-1.908 1.16-3.668 2.388-5.278.41-.546.955-.817 1.638-.817.93 0 1.398.51 1.398 1.53 0 .797-.397 1.82-1.192 3.068-.658 1.023-1.385 1.91-2.18 2.658.023 1.16.49 1.74 1.397 1.74.816 0 1.793-.795 2.928-2.384z"/><path d="M115.834 55.264c-.273 0-.408-.09-.408-.273 0-.18.112-.452.34-.816 1.18-1.453 2.644-3.326 4.392-5.62 1.68-2.59 2.815-3.816 3.404-3.68.41.09.823.353 1.243.783.42.432.675.852.766 1.26.2.888.2 1.683 0 2.387-.113.41-.533 1.147-1.26 2.215.795-.773 1.533-1.464 2.214-2.077 1.612-1.476 2.803-2.44 3.575-2.894.498-.32 1.008-.636 1.53-.955.523-.318.976-.477 1.362-.477.614 0 1.203.387 1.77 1.158.09.135.137.306.137.51 0 .546-.534 1.84-1.6 3.882-1.5 2.86-2.248 4.54-2.248 5.04 0 .226.09.34.273.34.59 0 1.498-.533 2.723-1.6.023-.024.272-.318.75-.886.316-.385.577-.58.78-.58.32 0 .478.24.478.717 0 .408-.278.918-.834 1.532-.555.614-1.514 1.5-2.876 2.656-1.543 1.318-2.593 2.096-3.15 2.335-.556.238-1.14.357-1.753.357-1.316 0-2.053-.512-2.212-1.533-.16-1 .874-3.577 3.098-7.732.092-.16.136-.295.136-.41 0-.112-.08-.17-.238-.17-.386 0-.8.223-1.243.665-.442.443-1.288 1.39-2.535 2.84-1.43 1.658-2.418 2.87-2.962 3.642-.547.773-1.227 1.448-2.044 2.026-.817.58-1.53.867-2.145.867-.817 0-1.224-.42-1.224-1.26 0-.384.18-.873.543-1.462.568-.93.863-1.43.886-1.497.41-.84 1.407-2.837 2.996-5.99-2.656 3.132-4.21 4.698-4.664 4.698z"/><path d="M134.945 54.822c-.5-.318-.613-.692-.34-1.123.453-.523 1.394-1.68 2.825-3.472.727-1.067 1.464-2.134 2.214-3.2.84-1.18 1.485-1.826 1.94-1.94.612-.16.975-.238 1.088-.238.205 0 .422.136.647.407.998 1.182 1.5 2.032 1.5 2.554 0 .613-.467 1.942-1.398 3.983-.863 1.906-1.293 3.13-1.293 3.676 0 .248.1.373.304.373.25 0 .818-.464 1.704-1.396 1.088-1.157 1.838-1.737 2.247-1.737.476 0 .714.217.714.647 0 .23-.126.558-.376.99-.59.998-1.872 2.282-3.847 3.848-2.133 1.704-3.71 2.556-4.733 2.556-.68 0-1.236-.272-1.667-.816-.34-.432-.51-.852-.51-1.26 0-.84.214-1.784.646-2.828.228-.568 1.01-2.226 2.35-4.974-.91 1.136-1.942 2.36-3.1 3.678-.204.158-.51.248-.918.272zm13.96-17.746c.406.295.61.818.61 1.568 0 1.136-.373 2.13-1.123 2.983-.75.853-1.656 1.28-2.723 1.28-.66 0-1.215-.166-1.67-.495-.453-.33-.68-.892-.68-1.69 0-.976.363-1.94 1.09-2.896.68-.886 1.543-1.33 2.587-1.33.725 0 1.36.194 1.907.58z"/><path d="M151.314 56.047c-.113 1.25.34 1.884 1.362 1.907.637.023 1.44-.25 2.418-.817.884-.545 1.657-1.157 2.315-1.838.86-.932 1.446-1.494 1.753-1.686.305-.194.493-.29.56-.29.183 0 .41.092.682.272.113.09.17.204.17.34 0 .5-.794 1.486-2.383 2.96-2.928 2.7-5.606 4.05-8.035 4.05-.75 0-1.407-.158-1.974-.476-.772-.43-1.374-1.1-1.804-2.008-.365-.748-.502-1.383-.41-1.905.09-.568.16-.942.204-1.123.136-.364.385-.692.748-.987-.59.59-1.01.886-1.26.886-.204 0-.39-.103-.56-.307-.17-.203-.256-.408-.256-.612 0-.272.226-.568.68-.886.25-.18 1.006-1.02 2.265-2.517 1.26-1.497 2.55-2.733 3.865-3.71 1.86-1.405 3.52-2.108 4.97-2.108.953 0 1.713.284 2.28.85.636.635.955 1.316.955 2.043 0 1.09-.68 2.36-2.042 3.81-1.884 1.998-4.052 3.38-6.504 4.152zm2.316-3.437c.364 0 1.135-.625 2.315-1.874.703-.75 1.056-1.53 1.056-2.35 0-.362-.136-.543-.408-.543-.43 0-1.203.738-2.315 2.213-.772.93-1.158 1.634-1.158 2.11 0 .295.17.444.51.444z"/><path d="M170.576 54.414c.453-.205.885-.534 1.293-.988.272-.317.59-.478.953-.478.476 0 .714.228.714.68 0 .206-.205.548-.613 1.024-.703.84-1.61 1.35-2.724 1.53-.612 1.703-1.588 2.94-2.928 3.712-.907.522-1.838.783-2.79.783-2.158 0-3.542-.555-4.154-1.668-.387-.682-.58-1.363-.58-2.044 0-1.134.444-1.917 1.33-2.35.726-.34 1.463-.51 2.21-.51.433 0 1.24.08 2.42.24.112-.567.146-1.567.102-2.998-.025-1.27.067-2.247.27-2.928-.657.386-1.69 1.387-3.098 2.997-1.815 2.09-2.78 3.19-2.893 3.302-.41.408-.817.475-1.227.204-.39-.272-.39-.625 0-1.057 1.067-1.248 2.85-3.28 5.345-6.097 1.02-1.088 2.134-1.974 3.337-2.656 1.203-.68 2.235-1.022 3.098-1.022 1.52 0 2.28.65 2.28 1.944 0 .478-.192.897-.578 1.26-.386.364-.794.547-1.226.547-.114 0-.227-.012-.34-.035-.68-.18-1.148-.148-1.397.102-.248.25-.374.535-.374.852 0 .318.135.94.408 1.872.045.113.293.737.748 1.87.272.684.41 1.32.41 1.91zm-5.38 1.565c-1.52-.183-2.383-.205-2.588-.07-.363.23-.545.5-.545.818 0 .41.217.727.648.953.16.07.318.105.477.105.75 0 1.42-.602 2.01-1.806zM166.767 35.235c.407.386.612.93.612 1.632 0 1.18-.477 2.415-1.432 3.708-.68.907-1.566 1.678-2.654 2.313-.93.545-1.67.817-2.214.817-.545 0-.817-.24-.817-.715 0-.203.08-.36.238-.476.296-.16.853-.5 1.67-1.02.408-.273.612-.59.612-.952 0-.272-.165-.66-.493-1.158-.33-.5-.494-1.01-.494-1.53 0-.816.272-1.576.817-2.28.545-.702 1.293-1.053 2.247-1.053.77 0 1.406.24 1.907.715z"/></g></svg>