<svg width="200" height="100" viewBox="0 0 200 100" xmlns="http://www.w3.org/2000/svg"><title>changecamp</title>,<g fill="#000" fill-rule="evenodd"><path d="M27.366 74.765v2.138c0 3.786-1.783 5.676-5.35 5.676H19.13c-3.567 0-5.35-1.89-5.35-5.677v-22.05c0-3.785 1.783-5.678 5.35-5.678h2.886c3.567 0 5.35 1.893 5.35 5.677v3.768H22.9v-3.442c0-1.303-.67-1.954-2-1.954h-.884c-1.18 0-1.77.65-1.77 1.954v21.4c0 1.302.59 1.954 1.77 1.954h1.115c1.18 0 1.77-.652 1.77-1.954v-1.813h4.466zM53.697 82.58H49.23V54.895c0-3.813 1.785-5.72 5.353-5.72h3.35c3.566 0 5.35 1.907 5.35 5.72V82.58h-4.466V70.343h-5.12V82.58zm5.12-16.285V55.178c0-1.303-.653-1.954-1.956-1.954h-1.21c-1.3 0-1.953.65-1.953 1.954v11.117h5.12zM76.495 65.32V49.175h4.465V82.58h-4.465v-6.653L71.7 60.713V82.58h-4.464V49.174H71.7l4.795 16.145zM92.032 70.344v-4.05h6.794V82.58h-8.748c-3.443 0-5.163-1.876-5.163-5.63V54.896c0-3.813 1.72-5.72 5.163-5.72h3.07c3.785 0 5.678 1.937 5.678 5.814v3.63H94.36v-2.978c0-1.61-.636-2.418-1.908-2.418h-1.116c-1.304 0-1.956.807-1.956 2.418v20.47c0 1.615.652 2.42 1.956 2.42h3.024v-8.188h-2.328zM102.453 82.58V49.174h11.073v4.05h-6.605v10.14h5.862v4.047h-5.86v11.12h6.604v4.047h-11.073zM130.09 74.765v2.138c0 3.786-1.785 5.676-5.35 5.676h-2.885c-3.568 0-5.35-1.89-5.35-5.677v-22.05c0-3.785 1.782-5.678 5.35-5.678h2.884c3.565 0 5.35 1.893 5.35 5.677v3.768h-4.466v-3.442c0-1.303-.668-1.954-2.002-1.954h-.885c-1.177 0-1.767.65-1.767 1.954v21.4c0 1.302.59 1.954 1.767 1.954h1.117c1.18 0 1.77-.652 1.77-1.954v-1.813h4.467zM137.812 82.58h-4.468V54.895c0-3.813 1.785-5.72 5.35-5.72h3.352c3.566 0 5.35 1.907 5.35 5.72V82.58h-4.465V70.343h-5.118V82.58zm5.12-16.285V55.178c0-1.303-.653-1.954-1.956-1.954h-1.21c-1.302 0-1.954.65-1.954 1.954v11.117h5.12zM160.422 68.81l4.14-19.635h4.932V82.58h-4.465l.463-21.867-3.35 15.82H158.7l-3.35-15.82.466 21.866h-4.466V49.174h4.93l4.142 19.634zM173.682 49.175h8.14c3.598 0 5.397 1.908 5.397 5.72v9.913c0 3.783-1.782 5.676-5.35 5.676h-3.723V82.58h-4.465V49.174zm4.465 17.26h2.84c1.178 0 1.766-.65 1.766-1.95v-9.307c0-1.303-.666-1.954-2-1.954h-2.606v13.21zM41.13 39.94s1.142-3.78-.713-8.773c-1.51-4.062-5.92-7.847-5.92-7.847s-.358 6.134 1.283 9.844c1.64 3.708 5.35 6.776 5.35 6.776zM41.202 40.297s-2.546-1.327-6.42-.795c-3.15.434-6.544 2.882-6.544 2.882s4.358 1.136 7.276.56c2.918-.573 5.688-2.647 5.688-2.647zM38.3 38.608s-1.69-2.963-5.84-4.887c-3.374-1.563-8.234-1.244-8.234-1.244s3.594 3.923 6.827 5.197c3.232 1.275 7.247.935 7.247.935zM35.517 33.543s-1.103-2.966-3.812-4.895c-2.207-1.57-5.385-1.246-5.385-1.246s2.35 3.928 4.46 5.204c2.114 1.28 4.737.937 4.737.937zM42.882 39.94s-1.14-3.78.714-8.773c1.508-4.062 5.92-7.847 5.92-7.847s.357 6.134-1.284 9.844c-1.64 3.708-5.35 6.776-5.35 6.776zM42.81 40.297s2.472-1.462 6.368-1.138c3.17.263 6.69 2.526 6.69 2.526s-4.293 1.368-7.235.95c-2.943-.417-5.823-2.34-5.823-2.34zM41.76 32.08s-1.122-2.644-.285-6.463c.683-3.108 3.77-8.196 3.77-8.196s.406 6.336-.397 9.2c-.803 2.862-3.09 5.46-3.09 5.46zM40.14 28.536s-1.412-1.293-1.962-3.843c-.45-2.074.014-6.017.014-6.017s2.003 3.73 2.31 5.69c.307 1.96-.36 4.17-.36 4.17zM45.712 38.608s1.69-2.963 5.838-4.887c3.376-1.563 8.237-1.244 8.237-1.244s-3.594 3.923-6.827 5.197c-3.233 1.275-7.248.935-7.248.935zM48.495 33.543s1.104-2.966 3.814-4.895c2.206-1.57 5.382-1.246 5.382-1.246s-2.35 3.928-4.463 5.204c-2.113 1.28-4.735.937-4.735.937zM46.613 43.068c-.125-.022-.805-.308-.805-.308s-1.07 1.653-1.373 1.48c-.372-.214.175-1.988.175-1.988-1.083-.432-1.78-1.013-2.6-1.743 0 0-.722.67-1.098.85-.085.04.78 1.098.44 1.406-.704.637-1.906-.465-1.906-.465l-.588.364c.97.773 1.19.9 1.63 1.63.18.295.274.598.323.845v18.226h-5.49v-14.19h-4.466v33.403h4.467V67.41h5.49V82.58h4.468V45.15c.2-.814.958-1.538 1.335-2.084z"/></g></svg>