<svg width="200" height="100" viewBox="0 0 200 100" xmlns="http://www.w3.org/2000/svg"><title>chocofinder</title>,<g fill="#000" fill-rule="evenodd"><path d="M69.823 19.708v9.604h-4.62c-.484-1.246-1.327-2.773-2.09-3.376-1.93-1.487-2.934-1.808-4.702-1.808-4.902 0-8.117 3.697-8.117 9.283 0 5.305 3.135 8.962 7.676 8.962 3.776 0 6.59-2.612 7.593-7.113l5.385 2.57c-2.01 7.354-8.117 9.524-13.502 9.524-11.653 0-14.788-8.077-14.788-14.024 0-8.318 5.827-14.064 14.346-14.064 3.335 0 5.947.803 8.198 2.57V19.71h4.62zM71.633 42.613h2.934V24.088h-2.934v-4.38h9.082v9.805c2.29-1.528 3.496-1.97 5.385-1.97 3.938 0 5.907 2.733 5.907 5.948v9.123h2.772v4.38h-8.922V34.817c0-1.648-.562-2.29-1.928-2.29-1.005 0-1.85.32-3.215 1.165v8.92h2.773v4.38H71.633v-4.38zM105.148 47.435c-5.625 0-9.965-3.657-9.965-9.966 0-6.67 4.822-9.927 9.965-9.927 5.546 0 10.007 3.537 10.007 9.926 0 5.986-4.06 9.965-10.007 9.965zm0-15.19c-2.41 0-3.737 1.93-3.737 5.345 0 3.214 1.408 5.143 3.738 5.143 2.412 0 3.778-1.93 3.778-5.264 0-3.296-1.366-5.225-3.778-5.225zM135.49 35.7h-4.18c-.965-2.09-2.572-3.174-4.66-3.174-2.734 0-4.462 1.93-4.462 4.903 0 3.294 1.608 5.303 4.3 5.303 1.89 0 3.737-1.165 4.822-3.134l4.702 2.088c-1.688 3.778-4.823 5.747-9.203 5.747-6.55 0-10.85-3.938-10.85-9.966 0-5.627 4.058-9.766 9.604-9.766 2.09 0 3.777.563 5.746 1.85v-1.57h4.18v7.717zM146.782 47.435c-5.626 0-9.966-3.657-9.966-9.966 0-6.67 4.822-9.927 9.966-9.927 5.545 0 10.006 3.537 10.006 9.926 0 5.986-4.06 9.965-10.006 9.965zm0-15.19c-2.41 0-3.737 1.93-3.737 5.345 0 3.214 1.406 5.143 3.737 5.143 2.41 0 3.777-1.93 3.777-5.264 0-3.296-1.367-5.225-3.778-5.225zM40.166 75.45h3.898V57.41h-3.898v-4.62H64.6v8.398h-5.225v-3.778h-8.198v6.31h5.907v4.62h-5.907v7.113h4.18v4.622h-15.19v-4.62zM64.72 61.065h8.922v14.627h2.773v4.38H64.72v-4.38h2.773V65.445H64.72v-4.38zm9.243-5.425c0 1.85-1.487 3.335-3.335 3.335-1.848 0-3.295-1.486-3.295-3.335 0-1.848 1.447-3.295 3.295-3.295 1.848 0 3.335 1.447 3.335 3.295zM76.656 61.065h9.082v1.768c1.97-1.446 3.536-2.05 5.465-2.05 2.532 0 5.786 1.367 5.786 6.47v8.44h2.772v4.38h-8.92V68.016c0-1.527-.644-2.13-1.77-2.13-1.044 0-2.21.442-3.334 1.246v8.56h2.532v4.38H76.656v-4.38h2.934V65.444h-2.934v-4.38zM122.67 80.072h-9.083v-2.25c-1.848 1.808-3.456 2.53-5.505 2.53-4.66 0-8.198-4.258-8.198-9.884 0-5.545 3.577-9.845 8.238-9.845 2.13 0 4.06.924 5.465 2.53v-5.986h-2.933v-4.38h9.08v22.905h2.935v4.38zm-12.86-14.466c-2.29 0-3.697 1.888-3.697 4.983 0 3.053 1.446 5.062 3.737 5.062 1.89 0 3.818-1.487 3.818-5.184 0-2.853-1.447-4.862-3.858-4.862zM142.964 75.853c-1.97 3.054-5.184 4.66-9.323 4.66-6.59 0-10.728-3.696-10.728-9.603 0-5.947 4.3-10.287 10.247-10.287 5.705 0 10.286 4.38 9.804 11.21H129.06c.04 2.17 1.205 4.743 4.66 4.743 1.61 0 2.653-.522 4.422-2.21l4.822 1.487zm-5.988-7.394c-.32-2.412-1.808-3.86-4.018-3.86s-3.537 1.247-3.898 3.86h7.916zM156.91 80.072h-13.382v-4.38h3.536V65.445h-3.215v-4.38h8.72v4.822h.08c1.125-3.295 3.496-5.103 6.63-5.103h.884v5.746h-.723c-4.902 0-6.228 3.295-6.228 7.153v2.01h3.697v4.38z"/></g></svg>