<svg width="200" height="100" viewBox="0 0 200 100" xmlns="http://www.w3.org/2000/svg"><title>communitylend</title>,<g fill="#000" fill-rule="evenodd"><path d="M30.802 67.348c6.61.65 12.49-4.172 13.144-10.778.653-6.604-4.172-12.492-10.777-13.143-6.61-.652-12.49 4.175-13.144 10.78-.648 6.6 4.173 12.487 10.776 13.14m1.97-19.933c4.406.435 7.625 4.36 7.187 8.763-.437 4.4-4.358 7.62-8.76 7.183-4.402-.434-7.62-4.356-7.19-8.76.437-4.4 4.36-7.618 8.763-7.186"/><path d="M17.39 62.07c8.803.87 16.646-5.564 17.52-14.37.867-8.808-5.565-16.654-14.373-17.522-8.806-.87-16.648 5.566-17.52 14.373-.87 8.807 5.566 16.652 14.373 17.52m2.623-26.576c5.872.58 10.158 5.813 9.578 11.682-.578 5.87-5.807 10.158-11.68 9.58-5.87-.58-10.16-5.81-9.578-11.68.58-5.872 5.81-10.162 11.68-9.582"/><path d="M24.93 69.857c4.853.48 9.173-3.063 9.652-7.913.478-4.852-3.067-9.173-7.916-9.653-4.852-.482-9.175 3.066-9.653 7.918-.477 4.85 3.063 9.17 7.918 9.65m1.434-14.498c3.155.308 5.458 3.123 5.15 6.28-.313 3.155-3.125 5.462-6.282 5.148-3.155-.31-5.464-3.122-5.15-6.277.312-3.154 3.123-5.464 6.282-5.15"/><path d="M31.2 63.36c-.045-.004-.086-.014-.126-.02-.66 1.536-1.963 2.71-3.54 3.207 1.022.412 2.12.685 3.268.8.387.036.764.055 1.143.054 1.196-1.156 2.07-2.66 2.456-4.373-1.005.322-2.09.442-3.2.333m-11.19-8.944c-.123 1.555.047 3.06.48 4.468.637-1.552 1.927-2.73 3.496-3.257-.01-.337-.006-.68.025-1.028.083-.8.28-1.555.57-2.263-1.72.244-3.298.98-4.57 2.08"/><path d="M23.98 55.553c-1.198.64-2.533 1.06-3.932 1.203.21 1.86.85 3.603 1.828 5.124 1.405-.258 2.756-.698 4.014-1.305-1.165-1.37-1.873-3.127-1.91-5.022M34.91 47.7c.13-1.363.092-2.702-.104-3.993-.534-.13-1.08-.228-1.637-.28-1.313-.13-2.594-.04-3.814.234.267 1.122.357 2.302.235 3.516-.016.198-.044.393-.073.59 1.02-.33 2.122-.463 3.256-.352.74.072 1.445.253 2.11.51.01-.075.02-.15.027-.225M56.62 45.805c1.958 0 3.08.374 3.873.704v2.354c-1.255-.507-2.223-.748-3.72-.748-3.147 0-4.423 2.135-4.423 6.207 0 4.07 1.276 6.205 4.423 6.205 1.497 0 2.465-.242 3.72-.748v2.355c-.792.33-1.915.704-3.873.704-4.887 0-6.8-3.104-6.8-8.517 0-5.415 1.913-8.518 6.8-8.518M62.12 57.073c0-3.39.968-5.766 4.886-5.766 3.917 0 4.885 2.377 4.885 5.766 0 3.39-.967 5.766-4.884 5.766-3.918 0-4.886-2.378-4.886-5.767m7.284 0c0-2.355-.308-3.697-2.398-3.697-2.092 0-2.4 1.342-2.4 3.697s.308 3.698 2.4 3.698c2.09 0 2.398-1.342 2.398-3.697M86.304 54.806c0-1.035-.594-1.408-1.562-1.408-1.078 0-1.805.33-2.377.682.045.396.066.77.066 1.21v7.285h-2.464v-7.77c0-1.034-.572-1.407-1.562-1.407-1.013 0-1.74.308-2.31.638v8.54h-2.467V51.57h1.453l.397.88c.924-.725 2.244-1.143 3.323-1.143 1.474 0 2.355.418 2.817 1.1.99-.704 2.31-1.1 3.52-1.1 2.6 0 3.633 1.408 3.633 3.5v7.768h-2.466v-7.77zM103.688 54.806c0-1.035-.594-1.408-1.562-1.408-1.08 0-1.806.33-2.378.682.044.396.066.77.066 1.21v7.285H97.35v-7.77c0-1.034-.573-1.407-1.564-1.407-1.012 0-1.738.308-2.31.638v8.54H91.01V51.57h1.453l.396.88c.924-.725 2.244-1.143 3.322-1.143 1.476 0 2.357.418 2.82 1.1.99-.704 2.31-1.1 3.52-1.1 2.596 0 3.63 1.408 3.63 3.5v7.768h-2.464v-7.77zM110.66 51.57v7.55c0 1.122.573 1.63 1.74 1.63 1.144 0 1.937-.31 2.53-.64v-8.54h2.465v11.005h-1.452l-.397-.88c-1.12.77-2.376 1.144-3.565 1.144-2.794 0-3.785-1.387-3.785-3.5v-7.77h2.466zM126.417 62.575v-7.55c0-1.12-.573-1.627-1.74-1.627-1.144 0-1.935.308-2.53.638v8.54h-2.465V51.57h1.452l.397.88c1.123-.77 2.377-1.143 3.567-1.143 2.794 0 3.785 1.386 3.785 3.5v7.768h-2.465zM132.29 46.707c.88 0 1.607.726 1.607 1.607 0 .88-.726 1.606-1.606 1.606-.88 0-1.607-.726-1.607-1.606 0-.88.727-1.607 1.608-1.607m-1.232 13.16v-8.296h2.465v8.276c0 .616.22.837.924.837v2.002s-.22.044-.483.044c-2.003 0-2.906-.97-2.906-2.862M142.325 62.685c-.373.088-.99.154-1.365.154-2.442 0-3.873-1.057-3.873-3.434v-5.744h-2.003v-1.52l2.003-.57v-2.62l2.465-.705v3.324h3.104v2.092h-3.104v5.458c0 1.1.55 1.63 1.805 1.63.374 0 .704-.045.968-.09v2.025zM146.175 51.57l2.486 7.858 2.49-7.857h2.728l-6.294 16.507h-2.752l2.73-5.876-4.116-10.63h2.73zM158.014 60.308h7.174v2.267h-9.64V46.068h2.466v14.24zM170.93 51.307c3.874 0 4.49 2.553 4.49 5.59 0 .374-.022.726-.045 1.08h-6.844c.045 1.65.64 2.728 2.884 2.728 1.387 0 2.53-.242 3.5-.66v2.112c-1.254.528-2.686.682-3.874.682-3.675 0-4.996-2.2-4.996-5.767 0-3.543 1.3-5.766 4.887-5.766m-2.4 4.952h4.403c0-1.498-.088-2.818-2.002-2.818-1.804 0-2.31 1.166-2.4 2.817M184.002 62.575v-7.55c0-1.12-.573-1.627-1.74-1.627-1.144 0-1.936.308-2.53.638v8.54h-2.466V51.57h1.453l.395.88c1.123-.77 2.377-1.143 3.566-1.143 2.796 0 3.786 1.386 3.786 3.5v7.768h-2.464zM195.598 52.165V46.07h2.464v16.505h-1.452l-.395-.88c-.97.704-2.092 1.144-3.567 1.144-3.213 0-4.4-2.157-4.4-5.767 0-3.587 1.187-5.766 4.4-5.766 1.1 0 2.157.352 2.95.858m-4.864 4.908c0 2.047.33 3.676 2.487 3.676 1.167 0 1.937-.398 2.378-.64v-6.074c-.44-.243-1.21-.638-2.377-.638-2.156 0-2.486 1.65-2.486 3.675"/><path d="M20.047 56.756c.084.726.235 1.435.442 2.124.637-1.548 1.927-2.73 3.498-3.253-.002-.026-.004-.05-.002-.074-1.204.64-2.54 1.06-3.94 1.203"/></g></svg>