<svg width="200" height="100" viewBox="0 0 200 100" xmlns="http://www.w3.org/2000/svg"><title>cornerbeat</title>,<g fill="#000" fill-rule="evenodd"><path d="M43.985 43.206c.7 0 1.35-.147 1.95-.44.602-.294 1.134-.692 1.595-1.196.46-.503.824-1.09 1.09-1.762.266-.67.4-1.384.4-2.14h7.047c0 1.68-.293 3.273-.88 4.783-.588 1.51-1.455 2.868-2.602 4.07-1.147 1.203-2.454 2.126-3.922 2.77-1.47.643-3.028.964-4.678.964h-.042c-1.65 0-3.203-.32-4.657-.965-1.454-.644-2.768-1.567-3.943-2.77-1.09-1.174-1.937-2.496-2.538-3.964-.6-1.468-.916-3.013-.944-4.636v-6.46c.03-1.678.336-3.258.924-4.74.587-1.483 1.44-2.812 2.56-3.986 1.174-1.202 2.488-2.125 3.942-2.77 1.454-.642 3.006-.964 4.657-.964h.042c1.65 0 3.21.322 4.678.965 1.468.644 2.775 1.567 3.922 2.77 1.147 1.202 2.014 2.558 2.6 4.068.59 1.51.882 3.104.882 4.783H49.02c0-.756-.134-1.47-.4-2.14-.266-.67-.63-1.258-1.09-1.762-.46-.503-.993-.902-1.594-1.196-.602-.293-1.252-.44-1.95-.44-.7 0-1.358.147-1.973.44-.615.294-1.153.693-1.615 1.196-.46.504-.825 1.09-1.09 1.762-.267.67-.4 1.384-.4 2.14v6.083c0 .754.133 1.467.4 2.138.265.67.63 1.26 1.09 1.762.462.504 1 .902 1.615 1.196.615.293 1.273.44 1.972.44zM80.65 42.493c-.587 1.483-1.44 2.81-2.56 3.985-1.146 1.232-2.453 2.168-3.92 2.81-1.47.645-3.03.966-4.68.966h-.04c-1.623 0-3.168-.32-4.636-.965-1.47-.644-2.79-1.567-3.965-2.77-1.092-1.174-1.938-2.502-2.54-3.985-.6-1.482-.915-3.063-.943-4.74v-7.3c.14-1.482.51-2.88 1.112-4.196.6-1.315 1.39-2.503 2.37-3.566 1.174-1.202 2.488-2.125 3.943-2.77C66.247 19.323 67.8 19 69.45 19h.04c1.65 0 3.21.322 4.68.965 1.467.644 2.774 1.567 3.92 2.77 1.008 1.062 1.805 2.25 2.393 3.564.587 1.314.95 2.713 1.09 4.195V37.795c-.028 1.65-.335 3.216-.923 4.698zM95.753 50.212L90.3 38.382h-.085v11.83h-7.048V19H92.69c1.343 0 2.608.252 3.797.755 1.19.504 2.224 1.196 3.105 2.077.88.88 1.573 1.91 2.076 3.083.504 1.175.756 2.433.756 3.776 0 1.903-.49 3.616-1.47 5.14-.978 1.525-2.264 2.692-3.858 3.503l5.915 12.88h-7.257zM127.05 19v31.212h-7.133l-8.81-17.452v17.452h-7.048V19h7.173L120 36.41V19h7.05zM135.355 26.048v5.034h8.894v7.048h-8.895v5.034h12.082v7.048h-19.13V19h19.13v7.048h-12.082zM161.742 50.212l-5.453-11.83h-.086v11.83h-7.047V19h9.523c1.342 0 2.607.252 3.796.755 1.19.504 2.224 1.196 3.105 2.077.882.88 1.574 1.91 2.078 3.083.503 1.175.755 2.433.755 3.776 0 1.903-.49 3.616-1.47 5.14-.978 1.525-2.264 2.692-3.86 3.503L169 50.213h-7.258zM91.433 68.1c1.342.698 2.42 1.698 3.23 2.998.81 1.3 1.217 2.748 1.217 4.342 0 1.147-.217 2.223-.65 3.23-.434 1.007-1.022 1.882-1.762 2.622-.742.742-1.616 1.33-2.622 1.763-1.007.433-2.084.65-3.23.65H77.84V52.492H87.616c1.146 0 2.223.217 3.23.65 1.006.435 1.88 1.022 2.622 1.763.74.74 1.328 1.615 1.76 2.622.435 1.007.652 2.084.652 3.23 0 1.594-.406 3.042-1.217 4.342-.81 1.3-1.888 2.3-3.23 3zM104.606 59.498v5.035h8.894v7.047h-8.894v5.035h12.082v7.048h-19.13V52.45h19.13V59.5h-12.082zM134.77 71.58h-5.79l-4.196 12.083h-7.593l10.825-31.212h7.72l10.822 31.213h-7.592L134.77 71.58zM168.498 59.498h-7.09v24.165h-7.05V59.498h-7.088V52.45h21.228V59.5z"/></g></svg>