<svg width="200" height="100" viewBox="0 0 200 100" xmlns="http://www.w3.org/2000/svg"><title>curatescience</title>,<g fill="#000" fill-rule="evenodd"><path d="M46.868 47.892c-1.152 1.185-3.555 3.093-8.196 3.093-6.68 0-11.914-4.41-11.914-11.716 0-7.34 5.3-11.718 11.914-11.718 4.674 0 7.208 1.94 7.8 2.567l-1.645 4.41c-.428-.56-2.863-2.37-5.858-2.37-3.852 0-6.814 2.567-6.814 7.01s3.094 6.977 6.813 6.977c2.83 0 4.87-1.12 6.12-2.402l1.778 4.147zM64.215 50.59h-5.07l-.03-1.842c-.693.987-2.404 2.205-4.74 2.205-2.338 0-3.82-.823-4.642-1.91-.79-1.118-1.185-2.533-1.185-4.87v-9.81h5.266v9.085c0 1.876.527 3.16 2.403 3.16s2.732-1.48 2.732-3.62v-8.624h5.265V50.59zM77.875 39.203h-.23c-.296-.165-.987-.395-1.91-.395-1.184 0-2.04.658-2.434 1.185-.394.527-.822 1.58-.822 3.39v7.208h-5.266V34.365h5.266l-.033 2.305h.066c.922-1.778 2.272-2.602 4.016-2.602 1.086 0 1.646.296 1.646.296l-.297 4.84zM94.333 50.59h-5.035l-.1-1.71c-.69.69-2.007 2.073-4.64 2.073-2.863 0-5.89-1.547-5.89-5.168 0-3.62 3.323-4.838 6.318-4.97l4.08-.164v-.36c0-1.713-1.216-2.602-3.323-2.602-2.074 0-4.147.922-4.97 1.45l-1.382-3.424c1.383-.692 3.918-1.646 6.945-1.646 3.03 0 4.773.692 6.057 1.876 1.25 1.185 1.94 2.765 1.94 5.497v9.15zM89.1 43.45l-2.6.165c-1.612.066-2.567.757-2.567 1.975 0 1.25 1.02 2.008 2.468 2.008 1.417 0 2.37-.922 2.7-1.482v-2.666zM106.776 38.38h-3.588v5.826c0 1.382.198 1.71.46 2.007.23.264.56.395 1.252.395.823 0 1.58-.295 1.58-.295l.263 4.113c-.395.1-1.843.527-3.752.527-1.875 0-3.126-.56-3.95-1.515-.822-.954-1.15-2.303-1.15-4.772V38.38h-2.305v-3.983h2.304v-4.41h5.298v4.41h3.588v3.983zM124.583 43.745H113.03c.23 2.337 2.008 3.39 4.147 3.39 2.107 0 3.95-.922 4.87-1.547l2.075 2.73c-.527.397-2.666 2.635-7.702 2.635-5.003 0-8.656-3.094-8.656-8.46 0-5.364 3.95-8.425 8.755-8.425 4.804 0 8.128 3.193 8.128 7.932 0 .79-.065 1.745-.065 1.745zm-4.838-2.995c-.034-1.48-1.12-3.26-3.325-3.26-2.172 0-3.29 1.713-3.357 3.26h6.682zM41.952 76.76c-1.613 1.285-3.72 1.877-6.155 1.877-3.292 0-6.22-1.71-8.064-3.423l2.633-3.884c1.646 1.712 4.18 2.864 5.925 2.864 1.712 0 3.028-.823 3.028-2.337 0-1.546-1.678-2.14-2.665-2.502-.988-.362-2.7-.954-3.456-1.283-.56-.263-1.712-.69-2.7-1.645-.987-.922-1.776-2.24-1.776-4.378 0-2.173 1.054-3.885 2.37-4.97 1.284-1.087 3.357-1.81 5.99-1.81s5.662 1.25 7.21 2.796l-2.272 3.72c-1.317-1.317-3.358-2.305-5.07-2.305-1.71 0-2.96.66-2.96 2.042 0 1.382 1.283 1.91 2.303 2.304.988.395 2.667.987 3.39 1.283.626.23 2.14.823 3.16 1.843.955.954 1.778 2.337 1.778 4.377 0 2.173-1.02 4.148-2.666 5.43zM60.91 76.662c-.163.132-1.875 1.942-6.187 1.942-4.443 0-8.557-3.028-8.557-8.425 0-5.432 4.18-8.46 8.623-8.46 4.146 0 6.023 1.712 6.023 1.712l-1.153 3.982c-.46-.362-1.91-1.448-4.18-1.448-2.238 0-4.015 1.547-4.015 4.114 0 2.566 1.613 4.18 4.08 4.18 2.47 0 4.115-1.58 4.115-1.58l1.25 3.982zM65.355 60.14c-1.777 0-2.995-1.086-2.995-2.732 0-1.613 1.218-2.73 2.995-2.73 1.778 0 2.996 1.117 2.996 2.73 0 1.646-1.217 2.732-2.995 2.732zm2.633 18.102h-5.266V62.016h5.266v16.226zM86.914 71.396H75.362c.23 2.337 2.008 3.39 4.147 3.39 2.105 0 3.948-.922 4.87-1.547l2.074 2.73c-.527.396-2.666 2.634-7.702 2.634-5.003 0-8.656-3.093-8.656-8.458 0-5.366 3.95-8.426 8.755-8.426 4.806 0 8.13 3.192 8.13 7.93 0 .79-.066 1.746-.066 1.746zM82.076 68.4c-.033-1.48-1.12-3.257-3.324-3.257-2.172 0-3.292 1.71-3.357 3.258h6.68zM105.183 78.242h-5.266v-8.46c0-2.137-.33-3.75-2.502-3.75-2.27 0-2.896 1.843-2.896 4.18v8.03h-5.267V62.016h5.266l-.034 2.337h.066c.888-1.45 2.37-2.633 4.706-2.633 4.707 0 5.925 3.028 5.925 6.944v9.578zM121.87 76.662c-.163.132-1.875 1.942-6.187 1.942-4.443 0-8.557-3.028-8.557-8.425 0-5.432 4.18-8.46 8.623-8.46 4.146 0 6.022 1.712 6.022 1.712l-1.152 3.982c-.46-.362-1.91-1.448-4.18-1.448-2.238 0-4.015 1.547-4.015 4.114 0 2.566 1.613 4.18 4.08 4.18 2.47 0 4.115-1.58 4.115-1.58l1.25 3.982zM139.48 71.396h-11.55c.23 2.337 2.007 3.39 4.146 3.39 2.106 0 3.95-.922 4.87-1.547l2.075 2.73c-.526.396-2.666 2.634-7.7 2.634-5.004 0-8.657-3.093-8.657-8.458 0-5.366 3.95-8.426 8.754-8.426 4.806 0 8.13 3.192 8.13 7.93 0 .79-.066 1.746-.066 1.746zm-4.837-2.995c-.033-1.48-1.12-3.257-3.324-3.257-2.174 0-3.293 1.71-3.36 3.258h6.683zM153.323 20.945c-8.29 0-17.86 1.177-19.483 13.52h24.37c.51-1.234 1.666-2.328 3.013-2.328 1.816 0 3.292 1.3 3.292 3.115 0 1.815-1.476 3.474-3.292 3.474-1.347 0-2.503-1.792-3.013-1.792h-14.016c.094 1.234.64 4.206 6.256 4.74.56-1.02 1.63-1.855 2.873-1.855 1.816 0 3.292 1.407 3.292 3.222 0 1.816-1.476 3.258-3.292 3.258-1.35 0-2.513-.565-3.02-1.732-7.713-.726-8.847-5.165-8.95-7.634h-7.746c-.006 0 .202.157.202.387 0 13.48 10.11 16.188 19.985 16.188v6.583s19.514-2.802 19.514-22.863c0-13.48-10.897-16.282-19.987-16.282z"/></g></svg>