<svg width="200" height="100" viewBox="0 0 200 100" xmlns="http://www.w3.org/2000/svg"><title>dundee</title>,<g fill="#000" fill-rule="evenodd"><path d="M66.662 28.465c33.432 0 61.503 9.035 69.328 21.242l-.01-34.758C123.914 6.116 100.22.11 72.966.11l-7.714-.14v28.5c.47-.004.938-.007 1.41-.007zM101.802 81.14H136l-.006-17.618c-4.832 7.546-17.4 13.88-34.192 17.618zM65.266 91.878c0-1.162-.273-1.417-1.368-1.4v-.43c.418 0 1.656-.064 2.26-.096.78-.032 1.514-.032 2.06-.032 2.176 0 3.745.43 4.624 1.4.893.988 1.24 2.2 1.24 3.393 0 2.34-1.485 5.238-5.705 5.238h-4.48v-.43c1.225 0 1.37-.222 1.37-1.288v-6.354zm1.6 6.48c0 1.004.13 1.147 1.065 1.147 1.73 0 2.622-.414 3.285-1.146.878-.972 1.123-2.31 1.123-3.424 0-1.147-.23-2.437-1.11-3.408-.72-.796-1.627-1.162-3.312-1.162-.244 0-.69 0-1.05.032v7.96zM77.077 90.047h4.09v.43c-1.066 0-1.267.255-1.267 1.37v4.283c0 2.118 1.28 3.09 3.082 3.09 1.598 0 3.096-.765 3.096-3.122v-4.25c0-1.243-.216-1.37-1.382-1.37v-.43h3.485v.43c-1.094 0-1.31.254-1.31 1.37v4.425c0 2.5-1.742 3.933-4.364 3.933-2.736 0-4.205-1.45-4.205-4.044v-4.475c0-.97-.23-1.21-1.223-1.21v-.43zM92.73 91.847v6.114c0 1.243.144 1.64 1.44 1.56v.43h-3.442v-.43c1.037.033 1.21-.333 1.21-1.368v-7.165c-.346-.335-.663-.462-1.21-.51v-.43h2.607l6.423 7.5v-5.7c0-1.195-.172-1.386-1.425-1.37v-.43h3.485v.43c-.965 0-1.267.19-1.267 1.4v8.17h-.777l-7.043-8.2zM106.044 91.878c0-1.162-.273-1.417-1.368-1.4v-.43c.418 0 1.656-.064 2.26-.096.78-.032 1.513-.032 2.06-.032 2.176 0 3.745.43 4.624 1.4.893.988 1.24 2.2 1.24 3.393 0 2.34-1.485 5.238-5.705 5.238h-4.48v-.43c1.225 0 1.37-.222 1.37-1.288v-6.354zm1.6 6.48c0 1.004.128 1.147 1.065 1.147 1.727 0 2.62-.414 3.282-1.146.88-.972 1.124-2.31 1.124-3.424 0-1.147-.23-2.437-1.11-3.408-.72-.796-1.627-1.162-3.312-1.162-.245 0-.69 0-1.05.032v7.96zM117.653 99.95v-.43c1.167 0 1.455-.206 1.455-1.097V91.56c0-1.05-.476-1.083-1.455-1.083v-.43h7.36l.13 2.39h-.39l-.072-.336c-.287-1.304-.517-1.336-1.44-1.336h-2.534v3.71h2.233c.834 0 .992-.112 1.08-1.21h.388v3.2h-.39c-.1-1.13-.287-1.274-1.08-1.274h-2.232v2.898c0 .987.116 1.147.85 1.147h1.6c1.453 0 1.74-.223 2.13-1.784h.39l-.217 2.5h-7.807zM128.685 99.95v-.43c1.167 0 1.455-.206 1.455-1.097V91.56c0-1.05-.475-1.083-1.455-1.083v-.43h7.36l.13 2.39h-.39l-.07-.336c-.29-1.304-.52-1.336-1.44-1.336h-2.536v3.71h2.23c.836 0 .995-.112 1.08-1.21h.39v3.2h-.39c-.1-1.13-.287-1.274-1.08-1.274h-2.23v2.898c0 .987.114 1.147.848 1.147h1.6c1.454 0 1.742-.223 2.13-1.784h.39l-.216 2.5h-7.807z"/><path d="M65.252 81.136c.47.008.937.02 1.41.02 25.284 0 45.78-10.97 45.78-24.682 0-13.71-20.496-24.682-45.78-24.682-.473 0-.94.012-1.41.02v49.324z"/></g></svg>