<svg width="200" height="100" viewBox="0 0 200 100" xmlns="http://www.w3.org/2000/svg"><title>familyhomemedical</title>,<g fill="#000" fill-rule="evenodd"><path d="M41.772 33.924c2.375-1.653 3.932-4.4 3.932-7.512 0-5.054-4.097-9.15-9.15-9.15-5.055 0-9.152 4.096-9.152 9.15 0 3.037 1.485 5.72 3.762 7.385h-.07s-7.116 9.013-5.868 43.54c0 0 1.156.95 3.075 1.956-.463-20.21 2.85-27.952 3.927-29.92-1.41-1.255-2.31-3.123-2.31-5.212 0-3.78 2.932-6.844 6.548-6.844s6.547 3.065 6.547 6.845c0 2.12-.923 4.016-2.37 5.272 1.046 1.902 4.392 9.655 3.874 30.265 1.074-.6 2.15-1.35 3.22-2.296 1.248-34.524-5.775-43.474-5.775-43.474l-.188-.002z"/><path d="M39.224 59.953c1.162-.808 1.925-2.148 1.925-3.67 0-2.468-2.002-4.47-4.47-4.47-2.47 0-4.47 2.002-4.47 4.47 0 1.487.733 2.795 1.85 3.608h-.048s-3.475 4.403-2.866 21.267c0 0 5.72 4.704 10.996.032.61-16.865-2.82-21.236-2.82-21.236h-.098zM59.574 46.91h5.508v-.9h-5.508v-5.307h6.108v-.9h-7.187v13.964h1.08V46.91zM74.478 52.988v-.82c-.686.546-1.123.82-1.31.82-.146 0-.22-.157-.22-.47V46.79c0-.78-.27-1.375-.81-1.784-.54-.41-1.225-.615-2.058-.615-.94 0-1.93.328-2.97.98v1.01c1.007-.78 1.944-1.17 2.81-1.17 1.36 0 2.04.627 2.04 1.88v1.17c-1.72.086-3.043.418-3.97.994-.925.577-1.39 1.365-1.39 2.364 0 .647.24 1.196.72 1.65.48.453 1.067.68 1.76.68.953 0 1.913-.38 2.88-1.14.04.46.103.764.19.915.086.15.242.224.47.224.392 0 1.012-.32 1.858-.96zm-2.52-1.04c-.865.793-1.718 1.19-2.558 1.19-.52 0-.953-.147-1.3-.44-.346-.293-.52-.653-.52-1.08 0-.76.415-1.385 1.245-1.873.83-.49 1.875-.712 3.134-.666v2.868zM87.523 46.206c.42.57.63 1.35.63 2.343v5.217h.98V48.12c0-1.127-.294-2.03-.88-2.71-.587-.68-1.356-1.02-2.31-1.02-1.266 0-2.332.737-3.198 2.21-.573-1.473-1.563-2.21-2.97-2.21-1.205 0-2.18.6-2.928 1.8h-.04v-1.62h-.98v9.197h.98V47.32c.78-1.313 1.703-1.97 2.77-1.97.732 0 1.316.276 1.753.825.436.55.655 1.335.655 2.355v5.237h.99V47.5c.446-.753.88-1.3 1.3-1.64.42-.34.912-.51 1.48-.51.758 0 1.348.285 1.768.856zM91.5 45h.99v9.196h-.99zM91.5 40h.99v1.68h-.99zM95.5 40h.99v13.964h-.99zM105.542 44.57l-3.178 6.422-3.337-6.42H98l3.874 7.408-3.215 6.495h1.003l6.882-13.904h-1.003zM68.28 66.312h-7.846v-6.037h-2V74.24h2V68.16h7.847v6.077h2V60.274h-2v6.037zM77.507 65.023c-1.413 0-2.588.45-3.524 1.344-.936.897-1.404 2.018-1.404 3.364 0 1.334.462 2.446 1.388 3.334.927.89 2.08 1.335 3.46 1.335 1.425 0 2.608-.44 3.548-1.316.94-.875 1.41-1.977 1.41-3.303 0-1.365-.464-2.5-1.39-3.402-.927-.903-2.09-1.355-3.49-1.355zm2.174 6.833c-.57.563-1.3.844-2.193.844-.9 0-1.636-.278-2.21-.835-.572-.556-.86-1.274-.86-2.154 0-.885.28-1.615.84-2.188.56-.573 1.277-.86 2.15-.86.9 0 1.646.287 2.24.86.592.573.89 1.296.89 2.17 0 .88-.287 1.6-.856 2.164zM94.62 64.843c-1.06 0-2.076.56-3.05 1.68-.638-1.107-1.54-1.66-2.708-1.66-.886 0-1.792.463-2.72 1.39v-1.21h-1.818v9.196h1.82V67.56c.406-.44.767-.747 1.084-.92.316-.173.665-.26 1.045-.26.68 0 1.156.202 1.43.605.272.404.41 1.115.41 2.134v5.12h1.828V67.56c.654-.76 1.357-1.14 2.11-1.14.587 0 1.037.203 1.35.61.313.406.47.993.47 1.76v5.447h1.82v-5.43c0-1.338-.29-2.334-.866-2.987-.577-.654-1.31-.98-2.204-.98zM104.016 64.863c-1.266 0-2.295.44-3.088 1.315-.793.876-1.19 2.014-1.19 3.413 0 .934.188 1.755.564 2.466.377.708.88 1.274 1.505 1.693.627.42 1.446.63 2.46.63.74 0 1.383-.08 1.933-.24.55-.16 1.105-.427 1.665-.8v-1.78c-1.013.747-2.12 1.12-3.32 1.12-.86 0-1.56-.26-2.104-.78-.542-.52-.836-1.22-.883-2.1h6.468v-.23c0-1.432-.363-2.575-1.09-3.428-.726-.853-1.7-1.28-2.92-1.28zm-2.42 3.848c.128-.725.4-1.285.815-1.678.418-.393.953-.59 1.606-.59.653 0 1.173.197 1.56.59.386.393.603.953.65 1.68h-4.63zM122.39 66.76l-5.34-6.485h-1.078V74.24h1.08V61.853l5.33 6.528 5.315-6.528V74.24h1.09V60.274h-1.094l-5.304 6.485zM139.482 69.3c0-1.365-.393-2.446-1.18-3.242-.786-.796-1.75-1.195-2.888-1.195-1.213 0-2.22.442-3.02 1.324-.8.884-1.2 1.998-1.2 3.344 0 1.42.435 2.59 1.3 3.51.867.92 1.963 1.38 3.29 1.38 1.306 0 2.485-.407 3.538-1.22v-1.11c-1.113.913-2.252 1.37-3.418 1.37-1 0-1.866-.357-2.6-1.07-.732-.713-1.1-1.583-1.1-2.61 0-.16.01-.32.03-.48h7.248zm-6.023-2.773c.55-.47 1.2-.704 1.954-.704 1.592 0 2.562.896 2.91 2.688h-5.96c.18-.852.545-1.512 1.095-1.983zM148.39 65.603c-.968-.494-1.874-.74-2.72-.74-1.333 0-2.442.453-3.325 1.36-.883.906-1.324 2.042-1.324 3.408 0 1.347.45 2.482 1.345 3.405.897.923 1.998 1.384 3.305 1.384.973 0 1.88-.3 2.72-.9v.72h.988V60.274h-.99v5.328zm0 7.017c-.8.56-1.627.84-2.48.84-1.1 0-2.016-.37-2.75-1.11-.732-.74-1.1-1.666-1.1-2.78 0-1.092.344-1.99 1.03-2.692.687-.703 1.56-1.055 2.62-1.055.906 0 1.8.286 2.68.86v5.937zM152.5 60h.99v1.68h-.99zM152.5 65h.99v9.196h-.99zM157.33 72.435c-.644-.683-.965-1.604-.965-2.764 0-1.14.32-2.065.964-2.778.642-.713 1.478-1.07 2.504-1.07.713 0 1.51.194 2.39.58v-1.09c-.914-.3-1.727-.45-2.44-.45-1.3 0-2.368.46-3.204 1.376-.837.916-1.254 2.097-1.254 3.543 0 1.387.414 2.507 1.244 3.36.83.853 1.918 1.28 3.264 1.28.786 0 1.64-.158 2.56-.47v-1.02c-.867.353-1.694.53-2.48.53-1.08 0-1.942-.342-2.585-1.025zM170.09 72.99v-5.728c0-.78-.27-1.375-.81-1.784-.54-.41-1.226-.615-2.06-.615-.94 0-1.928.326-2.968.98v1.01c1.006-.78 1.943-1.17 2.81-1.17 1.36 0 2.038.626 2.038 1.88v1.168c-1.72.088-3.042.42-3.968.995-.926.578-1.39 1.365-1.39 2.365 0 .646.24 1.196.72 1.65.48.453 1.066.68 1.76.68.952 0 1.912-.38 2.878-1.14.04.46.104.764.19.915.087.15.243.224.47.224.393 0 1.013-.32 1.86-.96v-.82c-.687.546-1.124.82-1.31.82-.147 0-.22-.157-.22-.47zm-.99-.57c-.866.793-1.72 1.19-2.56 1.19-.52 0-.952-.147-1.298-.44-.347-.294-.52-.653-.52-1.08 0-.76.414-1.385 1.244-1.874.83-.49 1.875-.712 3.134-.665v2.87zM173.5 60h.99v13.964h-.99z"/></g></svg>