<svg width="200" height="100" viewBox="0 0 200 100" xmlns="http://www.w3.org/2000/svg"><title>flixel</title>,<g fill="#000" fill-rule="evenodd"><path d="M154.796-.455c-7.578 1.157-24.3 6.29-29.282 8.925-.658.097-1.616.146-2.864.146-1.838 0-3.314-.06-4.76-.157-3.01-.2-5.637.095-8.307 1.39-3.4 1.647-6.065 4.34-7.324 7.392-.007.013-.38.98-.535 1.42-.742 2.122-1.667 4.76-5.042 7.307-1.605.912-3.07 2.07-4.4 3.413l-.586.252-.702.3-22.656 9.782c.535.286 1.074.57 1.618.852l.436.224c.428.222.858.442 1.29.66l.392.2c1.153.577 2.32 1.145 3.498 1.698l.1.046c.58.272 1.16.54 1.746.804.034.016 1.395.667 1.43.68 4.546 1.932 2.155.98 4.346 1.766.267.096-.573 2.214-1.046 4.406-.782 3.908-1.14 7.61-1.14 10.605 0 4.67 1.8 10.243 2.666 12.95l.02.062 1.19 2.35 5.612 10.99c.747-3.4.95-7.464.177-12.665 2.48-1.74 21.99-15.452 25.392-31.1 2.805-12.9 6.938-26.07 11.38-30.833l.003-.003c3.075-2.432 21.61-11.45 27.564-12.653.33-.068.547-.383.488-.712-.06-.33-.374-.55-.706-.5zm-39.06 14.91c-.167.115-.324.24-.478.366-.07-.07-.137-.144-.198-.23-.564-.81-.362-1.923.452-2.486.815-.562 1.932-.36 2.497.45.172.25.265.53.298.812-.897.18-1.773.537-2.573 1.09z"/><path d="M90.995 29.935l.702-.3-40.82-.546c3.144 2.138 6.655 4.402 10.44 6.655l29.678-5.81z" opacity=".35"/><path d="M68.34 39.717c-2.423-1.298-4.772-2.63-7.024-3.972l-5.324 1.046c2.646 1.426 5.632 2.932 8.89 4.415l3.457-1.488z" opacity=".45"/><path d="M61.316 35.745c2.252 1.34 4.6 2.674 7.023 3.972l22.655-9.782-29.68 5.81z" opacity=".65"/><path d="M87.156 96.547l.54 3.396c.044.278.27.49.553.517.052.004.104.003.155-.005.22-.035.408-.183.486-.397.22-.595.442-1.185.665-1.777.326-.86.652-1.725.963-2.606l-1.208-3.712c-.63 1.643-1.372 3.144-2.154 4.585z" opacity=".25"/><path d="M83.697 74.73v.038l3.46 21.78c.78-1.442 1.523-2.943 2.153-4.586l-5.613-17.23z" opacity=".65"/><path d="M90.498 88.012c-.312 1.42-.718 2.725-1.188 3.95l1.208 3.712c.546-1.544 1.044-3.143 1.41-4.862l-1.43-2.8z" opacity=".45"/><path d="M83.697 74.73l5.613 17.232c.47-1.225.876-2.53 1.188-3.95l-6.8-13.34v.06z" opacity=".8"/><path d="M93.51 50.193c-.08-.118-.183-.194-.346-.245-.163-.05-1.215-.266-1.847-.458-7.984-2.42-15.81-5.94-22.978-9.773l-3.46 1.488c8.134 3.694 17.95 7.228 28.397 8.953.08.013.156.023.234.035z"/><path d="M90.675 75.347c.287 1.94.44 3.72.48 5.368v.05l.007.36v.067c.002.117.003.235.003.352v.055c0 .507-.012 1.002-.034 1.485v.052l-.016.286-.006.12c-.005.088-.01.174-.017.26-.002.047-.006.096-.01.145-.005.08-.01.16-.017.24l-.014.156-.02.23-.016.166-.023.216c-.005.06-.012.122-.02.182-.01.1-.022.196-.033.293-.01.088-.022.175-.033.26l-.022.165-.03.21-.025.165-.03.208c-.01.053-.02.106-.028.16l-.036.21c-.01.05-.017.1-.026.15l-.04.216c-.01.046-.017.094-.027.14-.014.08-.03.158-.045.236l-.023.116-.074.346 1.43 2.8c.88-4.158.972-9.044-.968-15.665l-.285.2z" opacity=".65"/><path d="M50.877 29.09l-5.85-.09v.01c-.25.014-.47.18-.526.435-.05.23.055.46.242.583v.002c2.015 1.36 5.95 3.9 11.25 6.76l5.324-1.045c-3.784-2.253-7.295-4.517-10.44-6.656z" opacity=".25"/></g></svg>