<svg xmlns="http://www.w3.org/2000/svg" viewBox="-155 207 200 100"><title>aardvark</title><path d="M-105.835 231.272v4.746c-1.568.154-2.352.234-3.92.4v-4.745c1.568-.166 2.352-.247 3.92-.4zm2.644 9.88c1.267-1.302 1.9-1.953 3.17-3.248v-9.966c-1.348-1.085-2.022-1.625-3.37-2.7-4.067.397-8.127.826-12.188 1.286v26.927c2.328-.273 3.493-.403 5.823-.65v-10.547l.542-.057c1.357 3.378 2.713 6.756 4.067 10.135 2.495-.24 3.743-.355 6.24-.566-1.426-3.538-2.855-7.075-4.285-10.61zM-87.31 245.094v-4.728c2.622-.163 3.932-.237 6.555-.367v-5.835c-2.622.13-3.933.203-6.554.366v-4.728c3.045-.19 4.567-.273 7.613-.417v-5.817c-4.482.21-8.962.482-13.437.812v26.926c4.508-.33 9.02-.602 13.535-.816v-5.818c-3.083.146-4.626.23-7.71.422zM-58.522 230.763v-4.774c-1.352-1.188-2.028-1.778-3.38-2.957-3.47.045-5.205.08-8.674.184-1.366 1.242-2.05 1.865-3.414 3.117v10.37c1.365 1.153 2.048 1.732 3.414 2.893 2.487-.073 3.732-.102 6.22-.146v4.73c-1.52.026-2.28.042-3.8.08v-2.093c-2.334.058-3.5.093-5.834.178v4.924c1.365 1.144 2.048 1.72 3.414 2.874 3.47-.103 5.203-.14 8.673-.184 1.353-1.213 2.03-1.818 3.38-3.022v-10.386c-1.35-1.193-2.027-1.788-3.378-2.973-2.504.03-3.755.055-6.257.117v-4.73c1.52-.036 2.28-.053 3.8-.08v1.946c2.334-.04 3.5-.055 5.835-.07zM5.22 234.315v-4.773c-1.347-1.355-2.02-2.03-3.366-3.376-3.454-.384-5.18-.562-8.64-.89-1.362 1.074-2.043 1.613-3.405 2.695v10.373c1.36 1.32 2.042 1.984 3.404 3.314 2.48.234 3.72.36 6.197.625v4.727c-1.513-.163-2.27-.24-3.785-.39v-2.094c-2.326-.23-3.49-.34-5.816-.544v4.924c1.36 1.314 2.042 1.974 3.404 3.298 3.46.327 5.186.504 8.64.89 1.346-1.047 2.02-1.567 3.365-2.604v-10.386c-1.346-1.36-2.02-2.04-3.364-3.39-2.49-.28-3.738-.41-6.23-.658v-4.728c1.514.15 2.27.228 3.785.39v1.945c2.326.248 3.487.377 5.81.652zM-42.017 223.163v10.545c-1.758-.045-2.637-.064-4.396-.095v-10.545c-2.333-.04-3.5-.055-5.834-.068v26.927c2.334.013 3.5.028 5.834.067v-10.546c1.76.03 2.638.05 4.396.094v10.546c2.334.06 3.5.097 5.834.184v-26.927c-2.333-.087-3.5-.122-5.834-.182zM-24.11 245.043v-4.728c2.62.16 3.932.247 6.552.44v-5.836c-2.62-.193-3.93-.28-6.552-.44v-4.728c3.043.184 4.565.288 7.606.517v-5.818c-4.475-.338-8.953-.616-13.435-.837v26.927c4.516.222 9.028.502 13.535.844v-5.818c-3.08-.233-4.622-.338-7.705-.525zM10.154 227.16v5.816c1.893.242 2.84.368 4.73.628v21.11c2.324.32 3.487.485 5.808.83v-21.11c1.888.282 2.832.427 4.72.726v-5.817c-5.076-.804-10.162-1.532-15.258-2.184zM-121.16 233.155v-5.85c-4.484.577-8.96 1.214-13.43 1.908v27.08c2.334-.363 3.5-.538 5.837-.874v-10.607c2.613-.376 3.92-.555 6.537-.897v-5.868c-2.617.342-3.924.522-6.537.898v-4.757c3.035-.437 4.554-.644 7.594-1.035zM2.007 269.182v-5.113c-1.443-1.306-2.165-1.945-3.61-3.202h-9.264c-1.456 1.21-2.183 1.807-3.64 2.983l.024 10.305c1.46 1.27 2.19 1.915 3.647 3.23 2.654.184 3.98.284 6.63.496l.006 4.912c-1.618-.168-2.427-.248-4.047-.402l-.003-2.134c-2.487-.213-3.732-.313-6.222-.498l.012 4.89c1.46 1.324 2.188 1.998 3.645 3.37 3.696.424 5.543.658 9.23 1.172 1.437-1.057 2.155-1.593 3.592-2.683v-11.125c-1.44-1.395-2.16-2.078-3.6-3.422-2.668-.145-4.003-.213-6.672-.34l-.007-4.822c1.622.043 2.433.064 4.055.11 0 .81.002 1.215.003 2.023 2.49.095 3.733.145 6.22.252zM-93.595 268.76l.01-4.757c-1.47-1.172-2.205-1.767-3.676-2.973-3.852.003-5.777.006-9.628.01-1.474 1.258-2.21 1.9-3.684 3.207-.003 7.447-.003 14.894-.007 22.34 1.445 1.09 2.167 1.624 3.61 2.68 3.857-.526 5.787-.765 9.652-1.19 1.473-1.364 2.21-2.03 3.685-3.346l.03-13.26c-3.663.146-5.495.228-9.155.408l-.01 5.998c1.16-.09 1.738-.132 2.898-.216-.004 1.922-.005 2.882-.01 4.803-1.776.164-2.665.25-4.44.43l.02-15.834c1.78-.052 2.67-.075 4.45-.122l-.004 2.024c2.503-.087 3.755-.127 6.26-.202zM-75.84 266.304c-.012 4.764-.022 9.53-.03 14.293-1.894.08-2.84.123-4.734.22.01-4.816.02-9.634.034-14.45 1.89-.028 2.837-.04 4.73-.063zm2.613-5.436h-9.953c-1.446 1.144-2.17 1.722-3.615 2.893l-.05 20.143c1.44 1.044 2.162 1.563 3.603 2.597 3.984-.29 5.977-.41 9.966-.596 1.465-1.18 2.196-1.76 3.66-2.914.01-6.45.02-12.897.032-19.347-1.458-1.103-2.186-1.658-3.643-2.775zM-51.883 266.252c0 4.66.002 9.323.005 13.985-1.896-.013-2.844-.014-4.74-.01.002-4.66 0-9.318.003-13.977 1.893-.002 2.84-.002 4.732.002zm2.6-5.32h-9.952c-1.444 1.1-2.167 1.65-3.612 2.757-.006 6.396-.01 12.795-.017 19.192 1.446 1.07 2.17 1.605 3.616 2.684 3.992-.043 5.988-.04 9.98.022 1.463-1.072 2.194-1.604 3.656-2.67l-.02-19.226c-1.462-1.108-2.192-1.66-3.65-2.76zM-31.965 280.705l-.032-14.37c1.822.022 2.732.036 4.553.064.01 4.846.022 9.693.036 14.54-1.822-.102-2.734-.15-4.557-.235zm7.075-19.837h-14.753l.01 5.384c.553.004.83.006 1.384.012.006 4.73.016 9.458.026 14.188-.554-.02-.833-.03-1.387-.046.003 2.154.005 3.23.01 5.384.553.022.83.033 1.385.057.12.005.18.01.3.014 4.37.22 8.726.488 13.088.804 1.464-1.036 2.194-1.557 3.657-2.607l-.05-20.26c-1.468-1.187-2.202-1.772-3.67-2.93z"/></svg>