<svg width="200" height="100" viewBox="0 0 200 100" xmlns="http://www.w3.org/2000/svg"><title>healthcarehumanfactors</title>,<g fill="#000" fill-rule="evenodd"><path d="M43.684 35.202c-.312 2.198-1.05 3.657-.455 6.784 1.01 5.306 4.482 5.108 4.583 10.762 0 .09.076.16.166.16.067 0 .125-.04.147-.098 1.767-2.703 2.887-6.176 3.005-10.083.12-5.517-2.277-10.218-6.332-13.532-.043-.028-.056-.084-.028-.127.028-.042.083-.056.128-.028 6.1 4.023 9.047 10.606 7.61 17.598-.922 4.563-3.256 8.283-6.606 10.37-1.5.932-2.402 1.276-4.035 1.695-.107.03-.108.19.01.235.28.126.537.255.778.387.1.054.185.054.275-.016 2.695-1.695 6.177-3.065 9.846-3.53 1.248-.157 3.876-.62 3.557-2.46-.18-.73-.25-1.352-.432-2.076-.19-.718.51-.982.865-1.274.383-.592.064-1.038-.47-1.408-.178-.122-.15-.244-.06-.263.598-.043 1.083-.51.954-.96-.238-.602-1.066-1.57-.334-2.53.4-.526.52-.635 1.254-.81.692-.17.993-.973.63-1.445-1.32-1.67-2.334-2.868-3.63-4.524-.61-1.213.998-2.86-.458-4.366-3.63-3.76-8.375-6.895-14.977-7.644-.118 0-.216.1-.216.218.242 1.508 1.327 2.544 2.344 3.492 1.496 1.395 2.164 3.462 1.876 5.472"/><path d="M56.26 64.788c.058-.104 0-.248-.1-.305-1.43-.545-2.867-.125-4.197.283-1.957.596-4.082.14-5.68-1.11-1.745-1.373-2.64-2.74-5.646-3.788-5.1-1.78-6.664 1.327-11.61-1.41-.08-.044-.178-.02-.224.06-.032.06-.024.13.014.18 1.456 2.88 3.904 5.588 7.228 7.643 4.717 2.863 9.99 3.14 14.885 1.283.045-.023.1-.003.125.04.022.044.006.1-.04.124-6.535 3.27-13.71 2.534-19.045-2.207-3.49-3.08-5.543-6.963-5.672-10.905-.06-1.766.093-2.718.545-4.347.027-.103-.112-.184-.21-.103-.25.178-.49.336-.727.478-.092.06-.135.135-.12.247-.015 4.14-.746 9.067-2.654 13.455-.26.6-.017 1.325.364 1.732.528.565 1.003.408 1.64.75.598.2.843 1.056 1.003 1.466.314.37.672.366.892.267.048-.026.12-.01.12-.01.03.172.096.514.415.766.193.096 1.168-.217 1.477.302.444.706-.01 1.922.913 2.248 1.323.03 3.025-.614 4.548-.386 1.614.277 2.69 1.555 4.298 2.063 1.15.334 2.202.485 3.32.29 4.968-1.166 10.193-3.848 14.136-9.105"/><path d="M14.28 59.702c.06.1.212.126.315.068 1.186-.967 1.54-2.42 1.855-3.778.458-1.994 1.915-3.606 3.797-4.36 2.064-.83 3.695-.922 6.104-3 4.092-3.53 2.184-6.437 7.027-9.352.08-.044.106-.146.06-.223-.034-.057-.1-.087-.162-.078-3.223-.18-6.788.585-10.23 2.437-4.84 2.655-7.714 7.08-8.556 12.25-.004.052-.047.09-.098.09-.05-.003-.088-.048-.087-.098.434-7.298 4.66-13.14 11.436-15.39 4.414-1.485 8.802-1.32 12.28.536 1.56.834 2.31 1.442 3.49 2.647.078.074.217-.003.196-.13-.03-.303-.044-.59-.053-.868-.005-.11-.047-.186-.15-.23-2.82-1.487-5.745-3.818-7.984-6.765-.763-1.007-2.323-2.754-3.912-1.85-.65.378-.784.552-1.322 1.22-.468.578-1.436.344-1.8.08-.703-.036-1.262.57-1.157 1.212.027.18-.137.253-.2.183-.335-.496-1.406-.598-1.76-.008-.053.423-.554 1.487-1.31 1.007-.868-.676-1.804-.645-2.224.103-.723 1.456-.718 1.742-2.314 4.346-.886 1.12-3.646 2.12-4.156 3.624-1.283 4.973-1.593 10.103.913 16.325M73.59 48.02c0 1.035.11 1.695.338 1.974.225.28.76.418 1.604.418v.43H70.01v-.43c.83 0 1.362-.14 1.596-.428.23-.287.347-.94.347-1.964v-6.65c0-1.023-.112-1.675-.336-1.953-.225-.28-.762-.42-1.607-.42v-.43h5.522v.43c-.844 0-1.38.14-1.604.42-.227.278-.338.93-.338 1.953v2.58h6.956v-2.58c0-1.023-.11-1.675-.337-1.953-.224-.28-.77-.42-1.63-.42v-.43h5.546v.43c-.86 0-1.402.14-1.627.42-.226.278-.338.93-.338 1.953v6.65c0 1.035.112 1.695.337 1.974.224.28.766.418 1.626.418v.43H78.58v-.43c.846 0 1.386-.14 1.62-.428.23-.287.346-.94.346-1.964v-3.315H73.59v3.315zM89.344 50.33c.34 0 .728-.09 1.165-.275.437-.184.797-.405 1.083-.665l.37.452c-.37.395-.838.718-1.404.97-.566.253-1.143.38-1.727.38-1.106 0-2.013-.36-2.72-1.083-.71-.722-1.068-1.614-1.068-2.673 0-1.06.382-1.948 1.15-2.663.76-.714 1.642-1.072 2.638-1.072.79 0 1.47.25 2.034.744.567.494.852 1.093.852 1.796 0 .205-.037.43-.107.672h-4.93c-.014.11-.023.217-.03.32-.007.1-.012.22-.012.355 0 .845.225 1.514.666 2.004.446.492 1.123.737 2.038.737zm.858-4.17c.04-.123.06-.258.06-.406 0-.324-.128-.61-.387-.86-.26-.25-.64-.373-1.146-.373-.438 0-.83.15-1.18.445-.343.297-.594.694-.746 1.194h3.398zM99.47 51.108c-.844 0-1.32-.41-1.432-1.227-.475.425-.916.735-1.326.933-.414.197-.816.295-1.208.295-.514 0-.946-.152-1.296-.456-.352-.307-.527-.724-.527-1.254 0-.8.39-1.428 1.176-1.873.786-.448 1.845-.788 3.182-1.02 0-.804-.09-1.363-.267-1.677-.176-.314-.544-.47-1.104-.47-.272 0-.535.088-.785.262-.252.175-.378.41-.378.707 0 .203-.07.37-.206.507-.136.135-.3.2-.49.2-.205 0-.376-.065-.512-.2-.138-.137-.204-.307-.204-.51 0-.472.258-.86.778-1.166.518-.303 1.125-.456 1.82-.456.995 0 1.712.22 2.148.658.437.437.655 1.148.655 2.134v3.098c0 .533.157.8.47.8.083 0 .18-.033.287-.104.11-.068.204-.15.286-.244l.285.43c-.392.423-.843.634-1.348.634zm-1.432-3.97c-1.882.434-2.823 1.105-2.823 2.014 0 .312.094.563.287.753.19.188.414.282.675.282.257 0 .52-.06.788-.182.264-.12.622-.386 1.073-.792V47.14zM101.536 50.842v-.43c.682 0 1.122-.145 1.32-.44.198-.29.298-.942.298-1.952v-6.466c0-1.023-.097-1.677-.287-1.963-.19-.285-.635-.43-1.33-.43v-.43l3.068-.515v9.805c0 1.023.096 1.677.285 1.964.193.287.635.428 1.33.428v.43h-4.684zM106.998 44.766v-.494c.586-.123 1.017-.394 1.29-.813.272-.42.448-.98.53-1.68h.698v2.27h1.778v.716h-1.778v4.12c0 .99.306 1.487.92 1.487.38 0 .824-.24 1.33-.716l.348.348c-.3.355-.647.64-1.033.86-.39.216-.76.326-1.115.326-.586 0-1.052-.19-1.392-.57-.34-.38-.51-.96-.51-1.733v-4.12h-1.065zM118.025 50.842v-.43c.655 0 1.06-.132 1.22-.396.154-.265.234-.93.234-1.988v-1.182c0-.693-.127-1.23-.38-1.61-.253-.38-.645-.572-1.176-.572-.544 0-1.053.196-1.514.588-.463.39-.696.87-.696 1.437v1.33c0 1.064.07 1.73.214 1.995.143.264.503.397 1.076.397v.43h-4.357v-.43c.68 0 1.12-.145 1.32-.44.196-.29.294-.942.294-1.952v-6.466c0-1.023-.093-1.677-.285-1.963-.192-.285-.634-.43-1.328-.43v-.43l3.067-.515v6.94c.354-.415.754-.76 1.198-1.04.44-.274.937-.413 1.48-.413.903 0 1.547.265 1.937.792.387.53.58 1.26.58 2.195v1.304c0 1.034.097 1.695.29 1.985.188.288.637.432 1.346.432v.43h-4.52zM125.166 47.62c0 .843.208 1.505.624 1.988.415.483 1.035.723 1.852.723.354 0 .723-.075 1.103-.228.38-.154.745-.385 1.085-.69l.348.445c-.383.403-.843.728-1.38.97-.542.24-1.095.364-1.668.364-1.106 0-1.986-.332-2.64-1-.655-.665-.982-1.522-.982-2.57 0-1.13.378-2.063 1.135-2.805.757-.74 1.586-1.113 2.487-1.113.79 0 1.394.145 1.81.43.416.286.623.634.623 1.044 0 .204-.07.402-.214.593-.143.19-.372.285-.685.285-.233 0-.424-.075-.574-.225-.148-.15-.224-.347-.224-.592 0-.314-.07-.54-.205-.676-.134-.136-.312-.204-.53-.204-.545 0-1.01.31-1.39.928-.383.618-.574 1.395-.574 2.334M137.135 51.108c-.844 0-1.32-.41-1.434-1.227-.47.425-.915.735-1.327.933-.41.197-.813.295-1.205.295-.512 0-.947-.152-1.297-.456-.352-.307-.527-.724-.527-1.254 0-.8.393-1.428 1.18-1.873.78-.448 1.842-.788 3.178-1.02 0-.804-.087-1.363-.264-1.677-.178-.314-.545-.47-1.104-.47-.274 0-.536.088-.79.262-.25.175-.377.41-.377.707 0 .203-.07.37-.205.507-.137.135-.3.2-.49.2-.205 0-.376-.065-.51-.2-.14-.137-.206-.307-.206-.51 0-.472.257-.86.777-1.166.52-.303 1.127-.456 1.82-.456.997 0 1.712.22 2.148.658.44.437.657 1.148.657 2.134v3.098c0 .533.155.8.47.8.08 0 .178-.033.286-.104.11-.068.205-.15.287-.244l.286.43c-.394.423-.845.634-1.348.634zm-1.434-3.97c-1.882.434-2.823 1.105-2.823 2.014 0 .312.096.563.288.753.19.188.414.282.675.282.26 0 .52-.06.787-.182.266-.12.626-.386 1.074-.792V47.14zM145.398 45.932c-.19 0-.358-.07-.502-.214-.14-.143-.212-.317-.212-.52 0-.45-.218-.677-.657-.677-.313 0-.653.215-1.022.642-.37.43-.553 1.01-.553 1.745v1.12c0 1.02.096 1.673.29 1.958.19.286.632.427 1.328.427v.43h-4.687v-.43c.682 0 1.123-.145 1.32-.44.2-.29.297-.944.297-1.952v-1.023c0-1.023-.097-1.674-.296-1.954-.198-.28-.64-.42-1.32-.42v-.43l2.72-.49c.056.107.124.363.207.767.08.402.126.63.142.686.205-.405.514-.746.922-1.03.41-.28.82-.424 1.228-.424.518 0 .916.134 1.196.4.28.264.42.554.42.87 0 .272-.062.5-.184.684-.123.185-.335.276-.636.276M151.925 50.33c.34 0 .73-.09 1.166-.275.436-.184.798-.405 1.086-.665l.368.452c-.368.395-.836.718-1.4.97-.57.253-1.143.38-1.73.38-1.106 0-2.01-.36-2.72-1.083-.71-.722-1.064-1.614-1.064-2.673 0-1.06.38-1.948 1.144-2.663.766-.714 1.644-1.072 2.64-1.072.792 0 1.47.25 2.036.744.566.494.848 1.093.848 1.796 0 .205-.034.43-.1.672h-4.932c-.014.11-.024.217-.03.32-.01.1-.012.22-.012.355 0 .845.223 1.514.665 2.004.442.492 1.122.737 2.035.737zm.86-4.17c.04-.123.06-.258.06-.406 0-.324-.128-.61-.387-.86-.26-.25-.64-.373-1.146-.373-.44 0-.83.15-1.177.445-.348.297-.595.694-.746 1.194h3.396zM73.59 64.898c0 1.037.11 1.694.338 1.973.225.283.76.422 1.604.422v.43H70.01v-.43c.83 0 1.362-.143 1.596-.43.23-.286.347-.94.347-1.964V58.25c0-1.024-.112-1.673-.336-1.955-.225-.28-.762-.42-1.607-.42v-.43h5.522v.43c-.844 0-1.38.14-1.604.42-.227.282-.338.93-.338 1.955v2.576h6.956V58.25c0-1.024-.11-1.673-.337-1.955-.224-.28-.77-.42-1.63-.42v-.43h5.546v.43c-.86 0-1.402.14-1.627.42-.226.282-.338.93-.338 1.955v6.648c0 1.037.112 1.694.337 1.973.224.283.766.422 1.626.422v.43H78.58v-.43c.846 0 1.386-.143 1.62-.43.23-.286.346-.94.346-1.964v-3.315H73.59v3.315zM91.613 68.07c-.04-.097-.094-.293-.164-.594-.07-.3-.122-.54-.16-.717-.318.328-.713.627-1.19.9-.478.272-.974.41-1.493.41-.886 0-1.533-.28-1.934-.834-.4-.556-.604-1.296-.604-2.217v-1.28c0-1.018-.096-1.67-.286-1.954-.192-.285-.633-.428-1.33-.428v-.428h3.07v3.976c0 .706.12 1.247.366 1.62.247.374.642.562 1.187.562.464 0 .947-.194 1.454-.58.505-.385.76-.864.76-1.432v-1.34c0-1.018-.1-1.665-.29-1.95-.192-.285-.64-.428-1.35-.428v-.428h3.068v3.787c0 1.013.097 1.662.286 1.945.192.283.642.426 1.35.426v.448l-2.74.533zM103.192 64.907c0 1.088.07 1.757.204 2.008.137.25.498.377 1.086.377v.43h-4.01v-.43c.573 0 .93-.128 1.075-.387.142-.26.212-.925.212-1.998v-1.184c0-.705-.116-1.246-.346-1.62-.232-.373-.608-.56-1.127-.56-.437 0-.895.193-1.38.58-.485.388-.726.874-.726 1.46v1.324c0 1.06.07 1.723.206 1.987.135.265.49.398 1.065.398v.43h-4.338v-.43c.682 0 1.123-.147 1.32-.437.198-.29.296-.938.296-1.94V63.9c0-1.014-.098-1.66-.295-1.94-.198-.276-.64-.415-1.32-.415v-.44l2.72-.522c.053.11.122.365.205.768.082.404.128.63.143.686.34-.417.73-.763 1.166-1.04.437-.275.934-.413 1.493-.413.6 0 1.075.133 1.422.396.35.262.597.635.747 1.12.272-.39.675-.74 1.207-1.05.532-.31 1.084-.465 1.656-.465.86 0 1.467.268 1.822.796.353.53.532 1.28.532 2.243v1.286c0 1.02.093 1.672.287 1.957.19.286.632.43 1.33.43v.43h-4.34v-.43c.56 0 .914-.13 1.054-.388.144-.26.216-.925.216-1.998v-1.184c0-.692-.112-1.23-.337-1.61-.226-.38-.6-.57-1.116-.57-.424 0-.883.197-1.38.59-.498.395-.748.878-.748 1.45v1.324zM116.41 67.987c-.844 0-1.32-.41-1.434-1.228-.47.422-.914.733-1.327.93-.41.2-.815.297-1.206.297-.515 0-.947-.152-1.296-.457-.352-.307-.53-.723-.53-1.252 0-.803.395-1.428 1.18-1.875.784-.448 1.843-.787 3.178-1.018 0-.804-.086-1.363-.264-1.678-.178-.315-.545-.472-1.105-.472-.274 0-.537.09-.788.264-.253.174-.38.41-.38.706 0 .202-.068.37-.206.506-.134.134-.297.202-.49.202-.203 0-.373-.068-.51-.204-.138-.135-.204-.303-.204-.507 0-.473.257-.86.777-1.166.52-.303 1.126-.456 1.82-.456.996 0 1.71.22 2.15.658.435.44.654 1.15.654 2.134v3.1c0 .533.157.8.47.8.084 0 .177-.036.287-.105.11-.07.203-.15.286-.243l.286.43c-.395.423-.845.633-1.35.633zm-1.434-3.97c-1.88.435-2.822 1.105-2.822 2.013 0 .314.095.562.285.752.192.19.416.285.677.285.257 0 .52-.06.787-.183.266-.122.624-.387 1.072-.794v-2.072zM124.57 60.58c.888 0 1.555.277 2 .827.44.552.663 1.29.663 2.212v1.286c0 1.02.094 1.672.286 1.957.19.286.634.43 1.33.43v.43h-4.686v-.43c.67 0 1.105-.144 1.31-.43.203-.285.305-.936.305-1.956v-1.184c0-.692-.134-1.23-.4-1.61-.265-.38-.697-.57-1.298-.57-.587 0-1.125.204-1.617.612-.49.406-.737.882-.737 1.427v1.325c0 1.06.078 1.723.236 1.987.157.265.556.398 1.2.398v.43h-4.504v-.43c.682 0 1.122-.147 1.32-.437.197-.29.296-.938.296-1.94V63.9c0-1.014-.1-1.66-.295-1.938-.198-.278-.638-.417-1.32-.417v-.44l2.72-.522c.057.11.123.365.206.768l.142.686c.34-.43.74-.78 1.2-1.05.455-.267 1.003-.403 1.643-.403M138.362 60.848h1.02c1.025 0 1.676-.112 1.956-.338.28-.225.418-.768.418-1.626h.432v4.685h-.432c0-.862-.138-1.403-.418-1.628-.28-.225-.93-.34-1.955-.34h-1.02V64.9c0 1.037.11 1.694.337 1.973.224.283.76.422 1.603.422v.43h-5.52v-.43c.83 0 1.362-.143 1.594-.43.23-.286.35-.94.35-1.964V58.25c0-1.024-.117-1.673-.342-1.955-.223-.28-.758-.42-1.603-.42v-.43h9.676l.163 2.702h-.427l-.103-.41c-.15-.6-.362-1.005-.635-1.216-.273-.21-.846-.317-1.717-.317h-3.376v4.645zM150.105 67.987c-.845 0-1.32-.41-1.433-1.228-.472.422-.916.733-1.326.93-.413.2-.815.297-1.206.297-.514 0-.946-.152-1.298-.457-.353-.307-.527-.723-.527-1.252 0-.803.39-1.428 1.177-1.875.784-.448 1.844-.787 3.18-1.018 0-.804-.088-1.363-.266-1.678-.18-.315-.546-.472-1.105-.472-.27 0-.534.09-.785.264-.252.174-.38.41-.38.706 0 .202-.067.37-.205.506-.135.134-.3.202-.49.202-.204 0-.375-.068-.512-.204-.137-.135-.204-.303-.204-.507 0-.473.26-.86.778-1.166.518-.303 1.125-.456 1.82-.456.995 0 1.71.22 2.148.658.437.44.655 1.15.655 2.134v3.1c0 .533.158.8.47.8.082 0 .177-.036.287-.105.11-.07.206-.15.286-.243l.288.43c-.396.423-.846.633-1.35.633zm-1.433-3.97c-1.88.435-2.823 1.105-2.823 2.013 0 .314.095.562.285.752.19.19.416.285.676.285.26 0 .52-.06.79-.183.264-.122.623-.387 1.072-.794v-2.072zM154.216 64.498c0 .844.21 1.505.625 1.988.416.482 1.035.724 1.852.724.354 0 .723-.077 1.107-.23.38-.154.742-.383 1.08-.69l.35.444c-.384.406-.844.728-1.382.97-.537.243-1.095.365-1.667.365-1.106 0-1.986-.334-2.637-1.002-.657-.665-.983-1.522-.983-2.57 0-1.128.378-2.063 1.134-2.805.757-.742 1.588-1.112 2.487-1.112.79 0 1.395.144 1.81.43.417.288.626.634.626 1.044 0 .205-.073.403-.217.593-.144.192-.37.286-.686.286-.232 0-.422-.074-.573-.225-.146-.15-.224-.347-.224-.593 0-.313-.07-.538-.204-.674-.136-.135-.312-.205-.53-.205-.547 0-1.01.31-1.393.93-.383.618-.574 1.395-.574 2.333M159.986 61.644v-.494c.588-.123 1.017-.395 1.29-.813.27-.418.448-.98.53-1.678h.696v2.27h1.78v.714h-1.78v4.12c0 .99.31 1.487.92 1.487.382 0 .825-.236 1.33-.715l.35.348c-.303.354-.646.642-1.033.86-.392.217-.763.326-1.118.326-.586 0-1.05-.192-1.39-.57-.34-.384-.51-.96-.51-1.737v-4.12h-1.066zM169.746 68.07c-1.147 0-2.122-.367-2.926-1.102-.806-.735-1.208-1.62-1.208-2.652 0-1.034.405-1.916 1.218-2.642.81-.73 1.783-1.093 2.916-1.093 1.144 0 2.12.362 2.924 1.082.805.72 1.207 1.607 1.207 2.654 0 1.032-.402 1.917-1.207 2.652-.803.735-1.78 1.1-2.924 1.1m0-6.71c-.807 0-1.42.275-1.844.827-.423.55-.633 1.26-.633 2.13 0 .87.21 1.58.632 2.13.423.552 1.037.827 1.844.827.805 0 1.418-.28 1.84-.838.423-.556.635-1.263.635-2.118 0-.857-.208-1.564-.625-2.123-.415-.555-1.032-.835-1.85-.835M181.24 62.81c-.19 0-.356-.07-.5-.213-.14-.142-.214-.318-.214-.523 0-.45-.217-.674-.654-.674-.315 0-.656.213-1.023.642-.37.428-.555 1.01-.555 1.744v1.12c0 1.02.096 1.672.288 1.957.19.286.633.43 1.33.43v.43h-4.686v-.43c.682 0 1.123-.148 1.32-.44.2-.293.297-.945.297-1.955v-1.023c0-1.022-.098-1.674-.297-1.954-.197-.278-.638-.418-1.32-.418v-.43l2.72-.49c.057.107.124.363.206.766.084.404.128.63.142.686.204-.404.513-.745.92-1.028.41-.285.82-.425 1.23-.425.52 0 .917.134 1.196.4.278.266.42.556.42.87 0 .272-.06.502-.182.686-.124.182-.337.275-.637.275M186.183 68.07c-.298 0-.615-.07-.946-.216-.333-.142-.664-.29-.988-.44-.165 0-.244.218-.244.655h-.434v-2.987h.434c0 .53.2 1.046.608 1.544.406.5.948.746 1.626.746.326 0 .597-.1.815-.306.216-.203.325-.448.325-.734 0-.243-.1-.465-.297-.662-.2-.196-.482-.39-.848-.58l-1.125-.612c-.478-.246-.828-.55-1.044-.92-.22-.366-.328-.74-.328-1.12 0-.544.21-.99.623-1.335.418-.348.907-.522 1.463-.522.33 0 .635.047.923.14l.777.31c.096 0 .142-.15.142-.45h.43v2.374h-.43c0-.463-.147-.865-.45-1.207-.298-.34-.7-.512-1.207-.512-.695 0-1.043.294-1.043.88 0 .216.093.413.278.59.184.178.507.394.97.652l.983.53c.94.532 1.412 1.185 1.412 1.96 0 .65-.236 1.186-.705 1.6-.466.416-1.04.622-1.72.622"/></g></svg>