<?xml version="1.0" encoding="utf-8"?>
<!-- Generator: Adobe Illustrator 19.2.0, SVG Export Plug-In . SVG Version: 6.00 Build 0)  -->
<svg version="1.1" id="Layer_1" xmlns="http://www.w3.org/2000/svg" xmlns:xlink="http://www.w3.org/1999/xlink" x="0px" y="0px"
	 viewBox="0 0 200 100" style="enable-background:new 0 0 200 100;" xml:space="preserve">
<title>hms</title>
<path d="M57.580002,7.5L57.5,7.644V92.638c0.027-0.010002,0.054001-0.010002,0.080002-0.025002
	C99.707001,71.906998,142.244995,77.681,142.244995,77.681V7.5H57.580002z M78.688004,59.459999
	c0.178001-4.799999,0.178001-9.598,0.178001-14.396c0-2.932999-1.244003-4.354-3.510002-4.354
	c-0.532997,0-1.510002,0.132999-2.400002,0.709999c-0.132004,2.09,0.044998,14.707001,0.311996,18.040001h-5.375999
	c0.222-2,0.265999-6.931999,0.265999-12.085999c-0.043999-6.529999-0.222-16.972-0.709999-19.638h5.463997
	c-0.043999,0.709999-0.087997,1.555-0.087997,2.622v8.175001c1.865997-1.200001,3.153999-1.91,4.797997-1.91
	c3.110001,0,5.954002,3.02,5.954002,7.330002c0,5.110001,0,11.239998,0.444,15.506001h-5.332001L78.688004,59.459999z
	 M111.744003,59.459999c0.178001-2.534,0.178001-5.02,0.178001-7.554001v-7.775997c0-2-0.622002-3.329998-2.444-3.329998
	c-1.955002,0-3.153999,1.687-3.776001,2.442001v8.130001c0,3.954998,0.133003,6.264999,0.265999,8.087002h-5.375999
	c0.044998-1.778,0.222-3.244999,0.222-7.953999V44.97501c0-3.200001-0.709999-4.176998-2.353996-4.176998
	c-2.265999,0-3.333,1.419998-3.865997,2.397999v7.997002c0,2.755001,0.044998,5.509998,0.178001,8.264h-5.332008
	c0.223-1.911999,0.266998-4.487999,0.266998-6.487999c0-5.242001,0.089996-10.574001-0.666-15.728001h4.754997
	c0.444,1.021999,0.487999,1.821999,0.487999,2.487999h0.089996c1.686996-2.132,3.375999-3.110001,5.508003-3.110001
	c2.223,0,4.043999,1.200001,5.066002,3.200001c0.845001-0.978001,2.844002-3.200001,6.132004-3.200001
	c4.620003,0,5.730003,3.82,5.730003,7.641998c0,5.064999,0,11.02,0.267998,15.195h-5.332001L111.744003,59.459999z
	 M127.384003,60.079998c-2.222,0-3.955002-0.709999-5.777-1.375999V52.66c1.199997,1.244999,4,3.867001,6.887001,3.867001
	c1.910004,0,3.020004-1.110001,3.020004-2.622002c0-3.91-9.596001-3.509998-9.596001-9.774002
	c0-3.641998,3.332001-7.507999,10.086006-7.507999c0.488007,0,1.733002,0.044998,2.177002,0.178001l0.311996,4.709999
	c-1.690002-0.799999-3.287994-1.067001-4.932007-1.067001c-1.955002,0-2.931999,1.154999-2.931999,2.176998
	c0,3.200001,9.596001,2.932999,9.596001,9.862999c0,3.91-3.464996,7.598-8.839996,7.598L127.384003,60.079998z"/>
</svg>
