<svg width="200" height="100" viewBox="0 0 200 100" xmlns="http://www.w3.org/2000/svg"><title>hohoto</title>,<g fill="#000" fill-rule="evenodd"><path d="M46.455 58.636c-.477 0-.864.387-.864.864s-.386.864-.863.864-.863-.387-.863-.864V33.59H33.5V44.82h-8.636V33.59H14.5v26.774h.06c.426 3.407 3.326 6.045 6.85 6.045 3.815 0 6.908-3.094 6.908-6.91 0-.477-.386-.864-.863-.864s-.864.387-.864.864-.386.864-.863.864-.863-.387-.863-.864v-6.045H33.5V59.5c0 3.816 3.093 6.91 6.91 6.91 3.815 0 6.908-3.094 6.908-6.91 0-.477-.386-.864-.863-.864zM104.318 58.636c-.477 0-.863.387-.863.864s-.387.864-.864.864c-.476 0-.863-.387-.863-.864V33.59H91.364V44.82h-8.637V33.59H72.364v26.774h.06c.425 3.407 3.326 6.045 6.85 6.045 3.815 0 6.908-3.094 6.908-6.91 0-.477-.387-.864-.864-.864s-.863.387-.863.864-.387.864-.864.864c-.476 0-.863-.387-.863-.864v-6.045h8.637V59.5c0 3.816 3.093 6.91 6.91 6.91 3.815 0 6.908-3.094 6.908-6.91 0-.477-.387-.864-.864-.864z"/><path d="M57.682 33.59c-7.155 0-12.955 5.8-12.955 12.955S50.527 59.5 57.682 59.5c7.154 0 12.954-5.8 12.954-12.955 0-7.154-5.8-12.954-12.954-12.954zm0 18.137c-2.857 0-5.182-2.325-5.182-5.182 0-2.856 2.325-5.18 5.182-5.18s5.182 2.324 5.182 5.18c0 2.857-2.325 5.182-5.182 5.182zM115.545 33.59c-7.154 0-12.954 5.8-12.954 12.955s5.8 12.955 12.955 12.955S128.5 53.7 128.5 46.545c0-7.154-5.8-12.954-12.955-12.954zm0 18.137c-2.857 0-5.18-2.325-5.18-5.182 0-2.856 2.323-5.18 5.18-5.18 2.858 0 5.182 2.324 5.182 5.18 0 2.857-2.324 5.182-5.182 5.182zM156.136 33.59H128.5v8.637h8.636V59.5c0 3.816 3.094 6.91 6.91 6.91 3.815 0 6.91-3.094 6.91-6.91 0-.477-.388-.864-.865-.864-.476 0-.863.387-.863.864s-.386.864-.863.864-.864-.387-.864-.864V42.227h8.636V33.59z"/><path d="M169.09 33.59c-9.062 0-16.408 7.348-16.408 16.41 0 9.062 7.346 16.41 16.41 16.41 9.06 0 16.408-7.348 16.408-16.41 0-9.062-7.347-16.41-16.41-16.41zm0 24.183c-4.292 0-7.772-3.48-7.772-7.773 0-4.293 3.48-7.773 7.773-7.773 4.294 0 7.774 3.48 7.774 7.773 0 4.293-3.48 7.773-7.773 7.773z"/></g></svg>