<svg width="200" height="100" viewBox="0 0 200 100" xmlns="http://www.w3.org/2000/svg"><title>homepointers</title>,<g fill="#000" fill-rule="evenodd"><path d="M32.366 52.465c-.49.79-1.103 1.47-1.84 2.05-.52.418-1.142.752-1.87 1-.728.25-1.47.405-2.228.465-.12.02-.235.03-.344.03h-.314c-1.177 0-2.23-.3-3.156-.898-.927-.598-1.39-1.604-1.39-3.02 0-.58.084-1.153.253-1.72.17-.57.354-1.132.553-1.69.06-.16.12-.325.18-.494.06-.17.12-.334.18-.494h-3.32L16.346 55.5H8.57c.36-1.016.712-2.027 1.062-3.035.35-1.006.692-2.02 1.032-3.036.34-.998.683-2.005 1.032-3.022.348-1.017.703-2.034 1.062-3.05.02-.04.034-.076.044-.106.01-.03.015-.065.015-.105.06-.16.115-.33.165-.508.05-.18.084-.37.105-.57.02-.08.034-.17.044-.27.01-.098.017-.198.017-.298 0-.378-.09-.698-.27-.957-.18-.26-.508-.39-.987-.39-.837 0-1.625.38-2.363 1.138C8.79 42.05 8.28 42.888 8 43.805c-.058.2-.103.4-.133.598-.03.2-.045.4-.045.6 0 .557.144 1.05.434 1.48.288.428.762.723 1.42.882-.298.538-.642.953-1.03 1.24-.39.29-.784.476-1.183.555-.08 0-.154.005-.224.015-.07.01-.146.015-.226.015-.738-.02-1.4-.324-1.988-.913-.59-.588-.903-1.41-.943-2.468-.08-1.915.752-3.565 2.498-4.95 1.746-1.387 3.675-2.25 5.79-2.588.298-.06.602-.1.91-.12.31-.02.614-.03.913-.03 1.057 0 2.04.17 2.947.508.907.34 1.66.888 2.258 1.646.34.44.584.872.733 1.3.15.43.226.873.226 1.332 0 .46-.066.923-.195 1.39-.13.47-.274.953-.433 1.452h3.32l2.304-6.7h7.598c-.358 1.056-.722 2.118-1.09 3.185-.37 1.067-.734 2.13-1.093 3.185-.36 1.058-.723 2.12-1.092 3.186-.37 1.068-.733 2.14-1.09 3.216-.062.14-.117.284-.166.434-.05.15-.075.284-.075.404 0 .1.034.18.105.24.07.06.184.09.344.09.1 0 .195-.012.285-.03.09-.02.184-.06.284-.12.3-.14.592-.364.88-.673.29-.31.555-.634.794-.973.18-.26.334-.51.464-.748.13-.24.234-.448.314-.628l.06-.12.06-.12c.02-.04.04-.084.06-.134.02-.05.04-.094.06-.135l1.615.747c-.38.818-.813 1.62-1.3 2.408z"/><path d="M50.507 51.18c-.16.328-.34.662-.538 1-.38.66-.844 1.263-1.392 1.81-.55.55-1.192.824-1.93.824-.3 0-.583-.045-.852-.135-.27-.09-.524-.205-.763-.346-.778.64-1.69 1.137-2.737 1.497-1.047.36-2.12.57-3.216.63h-.538c-1.037 0-2.034-.157-2.99-.465-.96-.31-1.796-.772-2.514-1.39-.578-.52-.997-1.073-1.256-1.662-.26-.587-.39-1.18-.39-1.778 0-.938.28-1.836.84-2.693.557-.858 1.295-1.586 2.212-2.184.798-.518 1.695-.927 2.692-1.226.997-.3 2.024-.45 3.08-.45.16 0 .315.006.465.016.15.01.305.015.465.015.857.08 1.694.264 2.512.553.818.29 1.536.723 2.154 1.3.54.48.948 1.024 1.227 1.632.28.608.42 1.242.42 1.9 0 .24-.02.478-.06.717-.04.24-.1.48-.18.718.28-.04.523-.115.733-.224.21-.11.413-.285.613-.525.12-.12.24-.273.36-.463s.248-.404.387-.643l1.616.716c-.12.24-.26.524-.42.853zm-8.45-4.668c-.21-.27-.474-.404-.793-.404-.2 0-.42.056-.658.165-.24.11-.478.265-.718.464-.1.08-.194.17-.284.27-.09.1-.185.2-.284.298-.46.54-.828 1.152-1.107 1.84-.28.688-.478 1.39-.598 2.11l-.06.702c-.02.23-.03.454-.03.673 0 .12.005.27.015.448.01.18.035.36.075.54.06.338.164.642.314.91.148.27.383.405.702.405.498 0 .942-.175 1.33-.523.39-.35.704-.743.943-1.182.06-.1.12-.194.18-.285.06-.09.11-.183.15-.283-.32-.22-.564-.493-.734-.823-.168-.33-.253-.683-.253-1.06v-.21c.06-.6.284-1.162.673-1.69.39-.53.882-.874 1.48-1.033-.02-.618-.134-1.062-.343-1.332z"/><path d="M72.762 54.17c-1.037 1.068-2.493 1.6-4.367 1.6-.14 0-.284-.004-.434-.014-.148-.01-.303-.025-.462-.046-.46-.06-.903-.174-1.33-.343-.43-.17-.784-.444-1.063-.823-.2-.28-.34-.563-.42-.853-.08-.288-.12-.59-.12-.91 0-.14.006-.274.017-.404.01-.13.024-.265.044-.404.06-.34.145-.674.255-1.002.11-.33.225-.644.344-.942.02-.06.06-.17.12-.33s.13-.34.21-.538c.02-.08.05-.17.09-.27.04-.1.07-.2.09-.3.04-.158.074-.313.104-.462.03-.15.045-.284.045-.404 0-.16-.035-.294-.105-.404-.07-.11-.185-.164-.344-.164-.36 0-.698.164-1.017.493-.32.328-.598.683-.837 1.06-.12.22-.23.436-.33.645-.1.21-.18.393-.24.552-.16.46-.318.924-.478 1.39-.16.47-.32.934-.478 1.392-.18.48-.35.953-.51 1.42-.16.47-.318.933-.478 1.39h-5.922c.22-.597.434-1.195.643-1.794.21-.598.424-1.206.643-1.824.2-.598.404-1.197.613-1.795.21-.598.414-1.197.613-1.795.04-.12.07-.234.09-.344.02-.11.03-.204.03-.284 0-.2-.045-.34-.134-.418-.09-.08-.215-.12-.375-.12-.1 0-.204.014-.314.045-.11.03-.214.076-.314.135-.12.06-.235.134-.344.224-.11.09-.215.194-.314.314-.3.34-.624.822-.973 1.45-.35.628-.724 1.47-1.122 2.528-.26.758-.47 1.367-.63 1.825-.118.4-.238.778-.357 1.137l-.24.717H47.07l3.62-10.498h5.593l-.24.658c.46-.28.973-.513 1.542-.703.568-.19 1.14-.304 1.72-.344h.36c.278 0 .562.02.85.06.29.04.564.11.824.21.418.14.797.354 1.136.642.34.29.58.664.72 1.122.597-.638 1.27-1.126 2.018-1.466.747-.338 1.52-.507 2.318-.507.3 0 .598.025.897.075.3.05.598.124.898.224.777.26 1.365.678 1.765 1.256.398.58.597 1.227.597 1.945 0 .24-.02.478-.06.717-.04.24-.11.49-.21.75-.04.12-.098.288-.178.508-.08.218-.16.448-.24.687l-.06.18-.06.18c-.08.28-.154.542-.223.792-.07.25-.105.454-.105.613v.075c0 .03.01.064.03.105.018.02.053.03.103.03h.195c.1 0 .2-.015.3-.045.1-.03.198-.076.298-.135.28-.16.558-.39.838-.69.28-.297.528-.607.747-.925.2-.28.376-.543.525-.793.15-.25.264-.463.344-.643l1.495.716c-.738 1.517-1.626 2.808-2.663 3.875z"/><path d="M87.42 52.99c-.62.816-1.477 1.485-2.573 2.003-.658.3-1.352.518-2.08.658-.727.14-1.47.21-2.228.21h-.36c-.12 0-.23-.01-.33-.03-.478-.02-.946-.074-1.405-.164-.46-.09-.907-.204-1.346-.344-1.157-.4-2.11-1.007-2.857-1.825-.748-.817-1.122-1.784-1.122-2.9 0-.28.026-.564.076-.854.05-.288.124-.583.224-.882.4-1.196 1.206-2.128 2.423-2.796 1.216-.668 2.513-1.092 3.89-1.272.298-.04.592-.07.88-.09.29-.02.574-.03.853-.03.42 0 .828.02 1.227.06.4.04.767.11 1.107.21.06.02.114.035.164.045.05.01.105.025.165.045.577.16 1.12.438 1.63.837.507.398.77.937.792 1.615.04 1.077-.41 1.924-1.346 2.543-.938.618-1.965 1.066-3.08 1.346-.62.16-1.218.27-1.796.328-.58.06-1.077.08-1.496.06.1.718.374 1.272.823 1.66.45.39 1.042.584 1.78.584 1.495 0 2.752-.42 3.77-1.256 1.016-.838 1.813-1.895 2.392-3.17l1.495.687c-.5.997-1.058 1.904-1.676 2.722zm-4.07-6.82c-.18-.14-.438-.22-.777-.24-.738-.02-1.375.26-1.914.837-.54.578-.95 1.217-1.228 1.914-.1.24-.18.48-.24.72s-.11.46-.148.657c.24-.02.488-.05.748-.09.258-.04.518-.1.777-.18.757-.198 1.45-.527 2.078-.986.628-.458.952-1.096.972-1.914 0-.34-.09-.578-.27-.717z"/><path d="M103.062 54.186c-1.037 1.057-2.47 1.585-4.305 1.585-.122 0-.245-.004-.374-.014-.13-.01-.256-.016-.375-.016-.5-.06-.977-.174-1.436-.343-.46-.17-.838-.454-1.137-.853-.198-.28-.338-.568-.42-.867-.078-.3-.118-.608-.118-.927v-.24c0-.08.01-.17.03-.27.04-.358.115-.722.225-1.09.108-.37.223-.723.344-1.063.02-.04.034-.074.045-.104.01-.03.024-.065.046-.105.02-.06.06-.154.12-.284.058-.13.118-.274.18-.434.038-.1.074-.194.103-.284.03-.09.063-.185.104-.285.04-.138.07-.278.09-.417.02-.14.03-.27.03-.39 0-.16-.035-.288-.106-.388-.07-.1-.184-.15-.344-.15-.4 0-.788.23-1.167.688-.378.46-.707.968-.986 1.526-.198.378-.373.747-.522 1.106-.15.358-.255.638-.314.838-.32.917-.644 1.83-.973 2.736-.327.908-.64 1.82-.94 2.737-.082.18-.15.364-.21.554-.06.19-.12.375-.18.555-.26.737-.514 1.47-.763 2.198-.25.727-.504 1.46-.762 2.2l-5.594.028c.42-1.156.823-2.302 1.212-3.438.39-1.137.773-2.274 1.152-3.41.2-.54.393-1.093.583-1.66.19-.57.384-1.142.584-1.72.6-1.695 1.192-3.396 1.78-5.1.588-1.706 1.18-3.406 1.78-5.1h5.564L94.72 45.66c.455-.24.98-.45 1.57-.628.586-.18 1.18-.29 1.778-.33h.329c.578 0 1.137.096 1.675.285.538.19.997.504 1.375.942.26.278.444.582.555.912.108.33.164.663.164 1.002 0 .2-.015.393-.045.583-.03.19-.084.384-.163.584-.06.2-.125.404-.195.614-.07.21-.145.424-.223.643-.023.06-.046.125-.078.194-.03.07-.053.146-.074.225-.04.14-.085.28-.134.42-.05.14-.096.278-.134.418-.02.04-.04.08-.062.12-.02.04-.038.09-.06.15-.018.04-.033.085-.044.133-.01.05-.025.106-.045.165-.02.062-.035.12-.045.18-.01.06-.015.12-.015.18 0 .1.025.185.074.254.05.07.145.105.285.105.1 0 .193-.01.284-.03.09-.02.183-.06.283-.12.28-.12.554-.315.822-.584.27-.27.503-.543.703-.822.16-.22.3-.428.42-.628.118-.2.21-.37.27-.51.018-.04.037-.078.058-.118.02-.04.042-.08.06-.12l.06-.12c.02-.04.03-.08.03-.12l1.526.688c-.738 1.516-1.626 2.802-2.664 3.86z"/><path d="M122.836 51.18c-.16.328-.34.662-.538 1-.38.66-.843 1.263-1.39 1.81-.55.55-1.194.824-1.93.824-.3 0-.583-.045-.853-.135-.27-.09-.523-.205-.763-.346-.778.64-1.69 1.137-2.737 1.497-1.047.36-2.12.57-3.215.63H110.87c-1.036 0-2.033-.157-2.99-.465-.958-.31-1.795-.772-2.513-1.39-.578-.52-.997-1.073-1.256-1.662-.26-.587-.388-1.18-.388-1.778 0-.938.28-1.836.837-2.693.558-.858 1.296-1.586 2.213-2.184.798-.518 1.694-.927 2.692-1.226.997-.3 2.024-.45 3.08-.45.16 0 .315.006.465.016.15.01.304.015.464.015.857.08 1.694.264 2.512.553.818.29 1.535.723 2.154 1.3.538.48.946 1.024 1.226 1.632.28.608.42 1.242.42 1.9 0 .24-.02.478-.06.717-.04.24-.1.48-.18.718.28-.04.523-.115.733-.224.208-.11.412-.285.612-.525.12-.12.24-.273.36-.463.118-.19.248-.404.388-.643l1.615.716c-.12.24-.26.524-.42.853zm-8.45-4.668c-.21-.27-.474-.404-.792-.404-.2 0-.42.056-.66.165-.238.11-.477.265-.716.464-.1.08-.195.17-.285.27-.09.1-.184.2-.284.298-.46.54-.83 1.152-1.108 1.84-.28.688-.478 1.39-.6 2.11l-.058.702c-.02.23-.03.454-.03.673 0 .12.004.27.015.448.01.18.033.36.073.54.06.338.165.642.315.91.15.27.384.405.702.405.5 0 .943-.175 1.332-.523.39-.35.703-.743.942-1.182.06-.1.12-.194.18-.285.06-.09.11-.183.15-.283-.32-.22-.564-.493-.733-.823-.17-.33-.254-.683-.254-1.06v-.21c.06-.6.284-1.162.673-1.69.388-.53.88-.874 1.48-1.033-.02-.618-.134-1.062-.345-1.332z"/><path d="M131.435 50.57c-.05.09-.104.183-.163.284-.32.64-.67 1.26-1.048 1.86-.378.6-.837 1.14-1.375 1.62-.5.44-1.084.778-1.75 1.018-.67.24-1.363.38-2.08.42h-.27c-.298 0-.598-.02-.897-.062-.3-.04-.588-.11-.868-.21-.757-.258-1.296-.663-1.615-1.213-.32-.55-.478-1.156-.478-1.815 0-.22.015-.445.044-.675.03-.23.075-.466.135-.706.04-.118.076-.233.106-.343.03-.11.064-.225.105-.345.32-.92.633-1.835.942-2.745.31-.91.624-1.825.943-2.745h5.862c-.12.36-.244.725-.373 1.096-.13.37-.255.735-.374 1.095-.26.72-.514 1.445-.763 2.175-.25.73-.494 1.466-.733 2.206-.06.14-.11.285-.15.435-.04.15-.06.285-.06.404 0 .12.045.22.136.3.09.08.243.11.463.09.16 0 .36-.065.598-.195.24-.13.49-.315.75-.555.36-.36.652-.74.88-1.142.23-.4.446-.82.645-1.26.08.04.164.08.254.12.09.04.174.08.253.12.16.08.324.155.495.226.168.07.343.154.522.254-.04.1-.085.195-.135.285zm-1.958-7.408c-.32.25-.66.434-1.017.553-.08.02-.15.036-.21.046-.06.01-.12.026-.18.045l-.493.06c-.17.02-.334.03-.493.03-.44 0-.878-.055-1.317-.165-.44-.11-.828-.294-1.167-.553-.26-.2-.463-.433-.613-.703-.148-.27-.224-.543-.224-.822 0-.16.03-.32.09-.48.06-.158.14-.308.24-.448.278-.36.642-.628 1.09-.807.45-.18.914-.29 1.392-.33h.329c.22 0 .438.015.658.046.22.03.428.074.628.134l.18.06c.06.02.11.04.15.06.418.18.802.43 1.15.748.35.32.524.708.524 1.166 0 .06-.005.126-.015.196-.01.07-.026.145-.045.224-.12.38-.34.693-.658.942z"/><path d="M145.435 54.17c-1.047 1.068-2.488 1.6-4.322 1.6-.12 0-.24-.004-.36-.014s-.238-.016-.36-.016c-.497-.06-.976-.178-1.434-.358-.46-.18-.84-.468-1.138-.868-.2-.278-.343-.573-.434-.882-.09-.31-.134-.623-.134-.943 0-.16.01-.32.03-.48.02-.158.04-.308.06-.447.06-.32.144-.64.254-.958.11-.318.214-.618.314-.898.02-.06.06-.16.12-.298l.208-.48c.02-.1.046-.195.076-.284.03-.09.065-.185.104-.284.04-.16.076-.314.105-.464.03-.15.045-.285.045-.404 0-.16-.035-.294-.104-.404-.07-.11-.185-.165-.345-.165-.198 0-.428.096-.687.285-.26.19-.558.513-.897.972-.478.68-.887 1.412-1.226 2.2-.34.787-.658 1.59-.958 2.407-.12.377-.24.75-.36 1.12-.118.37-.238.733-.358 1.093-.02.04-.04.085-.06.133-.02.05-.04.106-.06.165h-5.563c.6-1.753 1.197-3.503 1.796-5.248.598-1.745 1.206-3.495 1.824-5.25h5.564l-.06.18-.06.18c-.04.08-.07.148-.09.208l-.06.18c.46-.26.973-.484 1.54-.673.57-.19 1.153-.314 1.75-.374.1-.02.2-.03.3-.03h.3c.578 0 1.13.094 1.66.284.528.19.992.504 1.39.942.26.28.45.588.57.926.12.34.18.688.18 1.048 0 .08-.007.17-.016.27-.01.1-.026.19-.045.268-.02.1-.04.194-.06.284-.02.09-.05.185-.09.285-.06.2-.13.405-.21.614-.08.21-.15.424-.208.643-.08.2-.16.404-.24.613-.08.21-.15.424-.21.643-.02.04-.04.09-.06.15-.02.06-.04.13-.06.21-.02.04-.04.084-.058.134-.02.05-.03.104-.03.165-.02.04-.035.09-.046.148-.008.06-.014.11-.014.15 0 .1.03.185.09.254.06.07.16.105.3.105.12 0 .234-.02.343-.06.11-.04.224-.09.344-.15.24-.16.482-.363.732-.613s.474-.504.674-.763c.16-.2.298-.398.418-.598.12-.2.21-.38.27-.54.02-.038.038-.08.06-.118.02-.04.04-.09.06-.15 0-.04.01-.08.03-.12.018-.04.038-.08.058-.12l1.497.718c-.72 1.517-1.6 2.808-2.648 3.875z"/><path d="M156.174 50.58c-.05.09-.095.185-.135.285-.32.64-.67 1.256-1.048 1.854-.38.597-.837 1.136-1.376 1.614-.5.44-1.092.79-1.78 1.048s-1.48.39-2.377.39h-.181c-.56-.02-1.093-.132-1.6-.33-.51-.2-.925-.54-1.243-1.017-.2-.3-.344-.62-.434-.958-.09-.34-.134-.687-.134-1.046 0-.1.003-.194.014-.284.01-.09.024-.184.045-.284.038-.28.093-.558.163-.837.07-.28.145-.55.225-.808.12-.32.233-.64.344-.957.11-.32.213-.65.313-.988.1-.318.204-.638.315-.957.11-.32.224-.638.343-.957h-1.286l.51-1.436h1.285c.1-.3.2-.593.3-.883.1-.29.21-.583.328-.883.1-.28.2-.563.3-.852.1-.29.2-.584.298-.883.658-.1 1.317-.194 1.975-.284.658-.09 1.316-.184 1.974-.284.32-.04.647-.085.987-.135.34-.05.668-.095.988-.135-.12.36-.245.718-.374 1.077-.13.358-.254.718-.375 1.076-.12.36-.244.723-.374 1.092-.13.37-.255.733-.375 1.092h1.616l-.537 1.436h-1.586c-.14.42-.284.843-.433 1.27-.15.43-.296.864-.435 1.302-.16.44-.31.874-.45 1.302-.138.43-.288.852-.448 1.27-.04.14-.074.275-.105.405-.03.13-.044.244-.044.344 0 .18.04.305.12.375.078.07.19.104.328.104.12 0 .256-.03.405-.09.15-.06.304-.14.464-.24.078-.06.164-.12.253-.18.09-.058.174-.128.254-.208.38-.34.69-.718.928-1.137.24-.42.458-.847.658-1.286l1.526.716c-.042.1-.086.195-.136.285z"/><path d="M168.392 52.99c-.62.816-1.476 1.485-2.573 2.003-.66.3-1.353.518-2.08.658-.728.14-1.47.21-2.228.21h-.36c-.12 0-.228-.01-.328-.03-.48-.02-.947-.074-1.406-.164-.46-.09-.908-.204-1.347-.344-1.155-.4-2.107-1.007-2.855-1.825-.748-.817-1.122-1.784-1.122-2.9 0-.28.025-.564.075-.854.05-.288.125-.583.225-.882.398-1.196 1.206-2.128 2.422-2.796 1.217-.668 2.514-1.092 3.89-1.272.298-.04.593-.07.882-.09.29-.02.572-.03.852-.03.418 0 .827.02 1.225.06.4.04.768.11 1.107.21.06.02.115.035.165.045.05.01.104.025.164.045.58.16 1.123.438 1.632.837.508.398.772.937.793 1.615.04 1.077-.41 1.924-1.347 2.543-.937.618-1.964 1.066-3.08 1.346-.62.16-1.217.27-1.796.328-.578.06-1.077.08-1.495.06.1.718.374 1.272.822 1.66.448.39 1.042.584 1.78.584 1.494 0 2.75-.42 3.768-1.256 1.017-.838 1.814-1.895 2.393-3.17l1.497.687c-.5.997-1.058 1.904-1.675 2.722zm-4.068-6.82c-.18-.14-.44-.22-.778-.24-.738-.02-1.376.26-1.915.837-.537.578-.946 1.217-1.225 1.914-.1.24-.18.48-.24.72s-.11.46-.15.657c.24-.02.49-.05.75-.09.257-.04.518-.1.777-.18.758-.198 1.45-.527 2.08-.986.627-.458.95-1.096.97-1.914 0-.34-.09-.578-.268-.717z"/><path d="M185.77 46.737v.33c0 .737-.224 1.32-.672 1.75-.45.428-.943.642-1.48.642h-.091c-.42 0-.817-.14-1.197-.42-.378-.28-.648-.728-.807-1.346-.06-.18-.134-.314-.224-.404-.09-.09-.196-.124-.315-.105-.2 0-.424.115-.674.344-.248.23-.512.543-.79.942-.48.618-.89 1.306-1.228 2.063-.34.76-.638 1.526-.896 2.304-.12.338-.23.668-.33.986-.1.32-.21.64-.33.958l-.118.358-.12.36h-5.535l2.484-6.94c.04-.08.06-.15.06-.21v-.15c0-.218-.086-.363-.255-.433-.17-.07-.364-.096-.583-.076-.52.06-.98.3-1.377.718-.4.418-.728.867-.987 1.347-.06.1-.12.208-.18.327-.06.12-.11.23-.15.33l-1.495-.6c.52-1.355 1.283-2.576 2.29-3.663 1.006-1.087 2.268-1.67 3.783-1.75.14-.02.285-.03.435-.03.148 0 .302.01.463.03.66.04 1.292.204 1.9.493.61.29 1.092.723 1.45 1.3.44-.317.904-.617 1.392-.896.488-.278.992-.497 1.51-.657.24-.08.474-.135.704-.165.228-.03.453-.045.673-.045.297 0 .59.04.88.12.29.08.564.2.824.36.258.18.463.398.613.657.15.26.254.53.314.808.04.12.06.24.06.36zM193.997 54.05c-1.176.868-2.473 1.37-3.888 1.512-.18.02-.356.034-.525.044-.17.01-.334.015-.493.015-.2 0-.41-.004-.63-.014-.218-.01-.438-.035-.657-.075-.578-.06-1.14-.198-1.69-.418-.55-.22-1.022-.537-1.42-.956-.28-.34-.485-.698-.613-1.078-.13-.378-.195-.767-.195-1.166 0-.22.015-.438.045-.658.03-.22.074-.44.135-.658.14-.52.418-.922.837-1.21.42-.29.877-.425 1.376-.405H186.58c.038 0 .084.006.134.016s.104.025.165.044l2.66-3.71 5.654-1.435c.06 1.057.124 2.12.194 3.186.07 1.068.145 2.13.224 3.187.1 1.655-.44 2.917-1.615 3.784zm-5.713-4.022c.12.16.204.333.254.523.05.19.075.385.075.584 0 .2-.03.39-.09.568-.06.18-.15.35-.27.51-.198.298-.468.533-.807.702-.34.17-.688.255-1.047.255h-.151c-.02 0-.045-.007-.075-.016-.03-.01-.055-.016-.074-.016.14.2.32.374.538.524.22.15.46.224.72.224.816 0 1.47-.22 1.958-.658.488-.44.732-1.087.732-1.944.02-.618.03-1.23.03-1.84v-1.81l-1.794 2.394z"/></g></svg>