<svg width="200" height="100" viewBox="0 0 200 100" xmlns="http://www.w3.org/2000/svg"><title>ifmatoronto</title>,<g fill="#000" fill-rule="evenodd"><path d="M34.576 24.95h-.916v1.604h3.207l-2.29-1.603zM154.66 26.554l-2.852-1.603h-1.188l.87 1.604h3.17zM73.42 24.95h-.788v1.604h2.75L73.42 24.95zM95.327 26.554l-2.3-1.603h-.858l.58 1.604h2.577zM120.306 24.95h-1.002v1.604h3.508l-2.506-1.603zM34 31h8.02v1.604H34zM94.905 32.488h5.28l-.64-1.604h-5.222l.582 1.604zM119 31h8.02v1.604H119zM52 31h28.87v1.604H52zM157.53 30.884h-3.686l.872 1.604h3.734l-.92-1.604zM144.644 30.884l-.82 1.604h1.622l-.802-1.604zM109.382 32.488h1.42v-1.604h-.857l-.563 1.604zM86.812 30.884h-.066v1.604h.728l-.662-1.604zM93.74 29.28h5.163l-.128-.32-1.84-1.283H93.16l.58 1.604zM76.758 27.677h-4.126V28.8h-21.01v.48h27.1l-1.964-1.603zM38.47 27.677h-4.81v1.604h7.103l-2.292-1.603zM152.972 29.28h3.637l-.92-1.603h-3.59l.872 1.604zM124.566 27.677h-5.262v1.604h7.768l-2.506-1.603zM34 34h8.02v1.604H34zM87.936 33.61h-1.19v1.605h1.852l-.662-1.604zM68.142 35.215H80.49V33.61H51.623v1.444h16.52v.16zM160.014 35.215l-.92-1.604h-3.768l.87 1.605h3.818zM146.007 33.61h-2.757l-.82 1.605h4.38l-.803-1.604zM108.425 35.215h2.378V33.61h-1.815l-.563 1.605zM119 34h8.02v1.604H119zM95.894 35.215h5.382l-.64-1.604H95.31l.582 1.605zM68.142 38.262h6.086l-1.77-1.604h-4.316v1.604zM147.53 36.658h-5.837l-.738 1.444 7.217-.16-.64-1.284zM157.853 38.262h3.91l-.92-1.604h-3.86l.87 1.604zM97 38.262h4.458l.524-1.283-.128-.322h-5.436L97 38.262zM89.192 36.658h-2.446v1.604h3.107l-.66-1.604zM119 37h8.02v1.604H119zM107.355 38.262h3.448v-1.604h-2.885l-.563 1.604zM34 37h8.02v1.604H34zM75.82 39.706H51.62v1.603h25.966l-1.77-1.604zM100.867 39.706h-3.343l.582 1.603h2.105l.657-1.604zM159.508 41.31h4.003l-.92-1.604h-3.953l.87 1.603zM34 40h8.02v1.604H34zM90.448 39.706h-3.702v1.603h4.363l-.662-1.604zM106.284 41.31h4.52v-1.604h-3.956l-.564 1.603zM119 40h8.02v1.604H119zM161.077 44.196h4.09l-.92-1.604h-4.042l.872 1.604zM91.638 42.592h-4.892v1.604H92.3l-.662-1.604zM119 43h8.02v1.604H119zM105.27 44.196h5.533v-1.604h-4.97l-.562 1.604zM99.686 42.592H98.57l.525 1.444.59-1.444zM34 43h8.02v1.604H34zM59.642 44.036h18.123v-1.444H51.622v1.604h8.02v-.16zM169.492 51.734H155.71l2.234 1.604h12.47l-.922-1.604zM127.323 52.697l.845.64h15.956l.78-1.603h-32.819l2.177 1.604h13.03l.03-.64zM81.586 53.338h13.82v-1.604H79.21l2.378 1.604zM28.207 53.338H41.68v-1.604H26.602l1.604 1.604zM97.01 51.734l1.66 1.604h11.414l.72-1.604H97.01zM59.642 51.734h-16.52l1.88 1.604h14.64v-1.604zM34 49h8.02v1.604H34zM103.075 50.45h7.728v-1.603h-7.166l-.562 1.604zM127.323 48.847h-8.02v1.604h6.505l1.515-1.603zM52 49h8.02v1.604H52zM164.476 50.45h4.28l-.92-1.603h-4.232l.872 1.604zM135.543 48.847l-.824 1.604h10.808l.078-.16h8.5l-.695-1.443h-17.867zM94.217 48.847h-7.47v1.604h8.13l-.66-1.603zM104.144 47.404h6.66V45.8h-6.096l-.564 1.604zM152.022 45.96l-15.076.16-.66 1.284h16.43l-.694-1.443zM34 46h8.02v1.604H34zM92.96 45.8h-6.214v1.604h6.876l-.66-1.604zM119 46h8.02v1.604H119zM52 46h8.02v1.604H52zM162.82 47.404h4.188l-.92-1.604h-4.14l.872 1.604zM161.965 56.225h10.104l-.737-1.283h-11.155l1.787 1.283zM31.094 56.225H41.68v-1.283H29.81l1.284 1.283zM59.642 56.385v-1.443h-12.76l1.693 1.443h11.067zM143.344 54.942h-13.062l1.692 1.283h10.745l.624-1.283zM95.407 54.942H83.964l2.14 1.443h9.303v-1.443zM101.822 56.385h6.897l.646-1.443h-9.037l1.492 1.443zM127.162 56.225l.058-1.283h-10.78l1.74 1.283h8.982zM28.177 63.327h4.282V75.86h1.838V63.328H38.6v-1.545H28.178v1.545zM54.89 61.552c-3.76 0-6.517 2.924-6.517 7.395 0 4.26 2.59 7.144 6.33 7.144h.02c3.572 0 6.518-2.59 6.518-7.415 0-4.178-2.485-7.123-6.35-7.123zm-.083 13.056h-.02c-2.863 0-4.492-2.736-4.492-5.702 0-3.05 1.504-5.87 4.533-5.87 3.03 0 4.49 2.924 4.49 5.723 0 3.195-1.628 5.848-4.51 5.848zM79.242 69.156v-.063c1.463-.5 2.653-1.734 2.653-3.572 0-1.106-.417-2.067-1.107-2.673-.877-.794-2.152-1.17-4.094-1.17-1.232 0-2.57.126-3.49.314v13.87h1.82v-6.1h1.712c1.65.064 2.423.796 2.84 2.738.376 1.755.69 2.945.92 3.363h1.88c-.272-.542-.606-1.9-1.066-3.863-.355-1.462-1.002-2.465-2.068-2.84zm-2.36-.773h-1.86v-5.118c.314-.084.92-.167 1.797-.167 1.92 0 3.237.794 3.237 2.61 0 1.61-1.232 2.675-3.175 2.675zM99.73 61.552c-3.76 0-6.517 2.924-6.517 7.395 0 4.26 2.59 7.144 6.33 7.144h.02c3.573 0 6.518-2.59 6.518-7.415 0-4.178-2.485-7.123-6.35-7.123zm-.083 13.056h-.02c-2.863 0-4.492-2.736-4.492-5.702 0-3.05 1.504-5.87 4.533-5.87 3.03 0 4.49 2.924 4.49 5.723 0 3.195-1.628 5.848-4.51 5.848zM126.902 67.694c0 2.172.042 3.885.21 5.765l-.064.02c-.647-1.44-1.483-2.924-2.506-4.574l-4.492-7.124h-2.005v14.08h1.713v-6.017c0-2.34-.02-4.032-.125-5.807l.063-.02c.69 1.524 1.63 3.132 2.61 4.7l4.47 7.143h1.84V61.783H126.9v5.912zM139.786 63.327h4.282V75.86h1.838V63.328h4.304v-1.545h-10.424v1.545zM166.5 61.552c-3.76 0-6.518 2.924-6.518 7.395 0 4.26 2.59 7.144 6.33 7.144h.02c3.572 0 6.517-2.59 6.517-7.415 0-4.178-2.487-7.123-6.35-7.123zm-.085 13.056h-.02c-2.862 0-4.49-2.736-4.49-5.702 0-3.05 1.503-5.87 4.53-5.87 3.03 0 4.493 2.924 4.493 5.723 0 3.195-1.63 5.848-4.513 5.848z"/></g></svg>