<?xml version="1.0" encoding="utf-8"?>
<!-- Generator: Adobe Illustrator 19.2.0, SVG Export Plug-In . SVG Version: 6.00 Build 0)  -->
<svg version="1.1" id="Layer_1" xmlns="http://www.w3.org/2000/svg" xmlns:xlink="http://www.w3.org/1999/xlink" x="0px" y="0px"
	 viewBox="0 0 90 50" style="enable-background:new 0 0 90 50;" xml:space="preserve">
<g>
	<path d="M3,4h5.771999v27.433001H3V4z M3,33.619999h5.771999v5.757999H3V33.619999z M22.5,14.025
		c-2.122,0-3.853001,1.385-5.195,2.77h-0.093v-2.372h-5.74v24.954998h5.74V19.732c0.389999-0.503,1.138-0.954,1.917999-0.954
		c1,0,1.638,0.6,1.638,2.496v18.103998h5.74V19.184999C26.507999,15.905,25.215,14.025,22.5,14.025z M38.678001,15.807h-0.110001
		c-0.686001-0.944-1.933998-1.79-3.619999-1.79c-4.195,0-6.130001,4.567999-6.130001,12.82
		c0,8.157999,1.482,12.937002,5.632,12.937002c2.277,0,3.23-1.092999,4.368-2.389999h0.094002v1.985001H44.402V4H38.68v11.807
		H38.678001z M38.678001,34.792c-0.312,0.450001-0.904999,0.803001-1.747002,0.803001c-1.683998,0-1.98-1.146999-1.98-8.799999
		c0-7.857,0.452-8.897999,2.136002-8.897999c0.734001,0,1.341999,0.344,1.591999,0.792999V34.792H38.678001z M47.349998,4H53.077
		v5.732h-5.727001V4z M47.349998,14.423H53.077v24.954998h-5.727001V14.423z M66.274002,15.198
		c-1.434998-1.03-2.73-1.18-3.869999-1.18c-4.57,0-7.237,3.754999-7.237,7.767c0,2.865999,0.592999,5.318001,3.026001,6.993
		c-1.84,1.084999-3.275002,2.424999-3.275002,4.762001c0,2.046001,1.638,3.290001,3.416,3.792v0.097
		c-2.184002,0.845001-4.415001,1.824001-4.415001,4.575001c0,1.580002,1.887001,4.806999,8.485001,4.806999
		c6.710003,0,8.987003-3.528,8.987003-7.063999c0-8.394001-11.716-5.803001-11.716-8.845001
		c0-0.493999,0.110001-0.889999,0.546001-1.136999c0.654999,0.194,1.34,0.247,2.043999,0.247c4.506996,0,7.347-3.757,7.347-8.077
		c0-2.055-0.5-3.615999-1.699997-5.105999c0.5-0.396999,1.247002-0.643,1.747002-0.643
		c0.389999,0,1.185997,0.096001,1.732002,0.299999v-5.052999c-2.184998,0.246-4.166,1.79-5.118004,3.764L66.274002,15.198z
		 M62.266003,38.318001c0.591999,0.054001,4.368,0.645,4.368,2.214001c0,1.527-1.449997,2.408001-4.026001,2.408001
		c-3.026001,0-3.916-0.740002-3.916-1.966c0-1.764,2.683998-2.504002,3.574001-2.654999V38.318001z M62.406002,26.458
		c-1.389999,0-2.075001-1.355999-2.075001-4.417c0-3.110001,0.687-4.469999,2.075001-4.469999
		c1.341999,0,2.044003,1.360001,2.044003,4.469999c0,3.062-0.702999,4.42-2.044998,4.42L62.406002,26.458z M79.410004,14.025
		C74.948006,14.025,71.5,17.465,71.5,26.9c0,9.444002,3.447998,12.873999,7.910004,12.873999
		c4.445999,0,7.910004-3.43,7.910004-12.874001C87.320007,17.464996,83.85601,14.024998,79.410004,14.025z M79.410004,35.595001
		c-1.342003,0-1.793999-1.094002-1.793999-8.695c0-7.6,0.452003-8.695,1.793999-8.695s1.778,1.094,1.778,8.695
		C81.188004,34.5,80.752007,35.595001,79.410004,35.595001z"/>
</g>
</svg>
