<svg xmlns="http://www.w3.org/2000/svg" viewBox="0 0 200 100"><title>aardvark</title><path d="M178.567 42.464v.806h.887v2.25h.986v-2.25h.885v-.806M183.855 42.464l-.53 1.91-.532-1.91H181.6v3.057h.89V44.49l-.023-.475-.04-.45h.008l.548 1.958h.685l.544-1.958h.01l-.05.553-.014.474v.93h.886v-3.056M136.956 56.497h5.378l-1.286 5.397h-5.377M161.214 54.145c-1.45 5.07-5.26 8.02-10.488 8.02-5.835 0-8.513-3.89-7.126-10.166 1.393-6.302 5.81-10.166 11.492-10.166 5.28 0 7.764 2.816 7.016 7.805h-5.582c.255-1.958-.556-2.977-2.424-2.977-2.3 0-3.828 1.77-4.616 5.336-.776 3.513.058 5.336 2.407 5.336 1.794 0 3.155-1.126 3.79-3.19h5.53zM169.69 42.464h5.955l2.147 19.43h-5.83l-.118-2.568h-5.83l-1.28 2.568h-5.777l10.733-19.43zm1.986 12.782l-.346-6.73-3.344 6.73h3.69zM45.373 42.464L36.176 58.43l-3.65-8.804 8.55-7.162h-7.24l-7.037 6.432 1.44-6.432h-6.188l-5.008 19.43h6.842l1.387-6.19 1.897-1.594 3.01 7.784h10.134l1.333-2.567h6.187l.156 2.567h6.186l-2.482-19.43h-6.32zm-1.678 12.782l3.482-6.727.436 6.726h-3.918zM70.896 42.464l-2.485 11.81-3.946-11.81h-5.918l-4.356 19.43h5.92l2.47-11.754 3.96 11.754h5.946l4.356-19.43M83.22 47.304l-.638 2.846h7.863l-.997 4.458h-7.866l-.573 2.556h9.674l-1.06 4.73H73.707l4.355-19.43h32.65l-1.088 4.855h-5.485l-3.267 14.574H94.63L97.9 47.32M111.704 42.464l-4.397 19.43h6.38l4.648-19.43M138.817 42.464h-6.864l-3.94 4.918-1.49-4.918h-7.03l3.992 9.323-8.94 10.107h7.19l4.125-5.27 1.764 5.27h7.054l-4.248-10.107"/></svg>