<svg width="200" height="100" viewBox="0 0 200 100" xmlns="http://www.w3.org/2000/svg"><title>kipu</title>,<g fill="#000" fill-rule="evenodd"><path d="M86.45 30.832c3.488 0 5.41-2.58 5.41-5.332 0-2.758-1.862-4.555-4.63-4.555-2.828 0-5.412 1.918-5.412 5.573 0 2.577 1.926 4.314 4.63 4.314z"/><path d="M153.58 51.63c-1.204 2.993-4.452 6.59-7.338 6.59-1.443 0-1.926-.78-1.926-1.62 0-3.236 4.39-9.228 4.39-15.22 0-3.715-2.585-5.092-5.17-5.092-1.626 0-2.646.596-2.646.596-.06 7.61-5.476 20.555-10.29 20.555-.783 0-1.142-.66-1.142-1.438 0-3.236 4.573-9.53 4.573-14.38 0-3.78-2.465-5.097-5.112-5.097-1.5 0-3.127.6-3.127.6.19 4.448-1.39 6.532-3.88 13.692-.287.757-1.856 5.595-7.156 6.795 2.61-3.9 3.46-8.2 3.46-12.277 0-5.632-2.71-9.888-8.543-9.888-5.777 0-8 4.493-8 4.493 0-3.355-3.126-4.432-5.115-4.432-1.926 0-3.188.957-3.188.957 0 5.754-.91 11.004-2.167 15.762-1.506 2.855-4.093 5.994-6.675 5.994-.724 0-1.264-.3-1.264-1.26 0-2.994 4.51-10.007 4.51-15.82 0-3.654-2.523-5.035-5.168-5.035-1.506 0-3.43.66-3.43.66.037 6.133-2.043 11.286-3.543 16.024-.698 2.213-4.71 6.028-9.573 6.028-2.164 0-3.187-1.138-3.91-3.294 4.75-1.62 10.947-5.154 10.947-11.986 0-3.295-1.802-5.75-5.048-6.71.55-.61 3.364-4.135 3.364-9.114 0-3.895-2.524-6.17-6.914-6.17-14.018 0-20.575 30.562-20.575 38.653 0 3.715 2.347 5.093 4.454 5.093 1.624 0 3.007-.6 3.007-.6.058-2.695.843-6.95 2.044-9.827.96 5.334 4.214 11.147 11.19 11.147 3.97 0 7.4-1.343 9.898-3.252.84 2.172 2.996 3.372 6.22 3.372 2.323 0 4.51-.61 6.42-1.575-1.74 4.804-3.17 8.875-3.17 12.243 0 2.038 1.325 3.295 3.547 3.295 6.2 0 7.944-12.706 10.833-25.23 1.262-5.452 4.386-12.346 9.198-12.346 1.57 0 2.59 1.322 2.59 3.3 0 4.61-3.066 13.3-8.002 13.3-2.345 0-2.523-1.076-2.523-1.076s-1.756.778-1.93 3.534c-.136 2.3 1.39 3.46 4.1 3.963 6.235 1.163 16.583-1.966 18.983-4.483.725 3.315 3.33 4.8 5.484 4.842 7.16.14 9.93-4.8 9.93-4.8.185 2.517 1.688 5.034 6.62 5.034 7.46 0 13.476-6.29 13.476-10.486 0-3.06-1.383-3.896-2.708-4.015zM62.625 29.634c.308 0 .604.42.604.838 0 4.495-5.293 9.23-7.638 11.087.78-2.398 4.932-11.925 7.033-11.925zM55.41 50.308c1.685-3.115 4.51-6.59 7.46-6.59 1.26 0 1.687.537 1.687 1.196 0 2.82-4.697 5.216-9.147 5.394z"/><path d="M86.45 29.916c3.488 0 5.41-2.58 5.41-5.332 0-2.758-1.862-4.555-4.63-4.555-2.828 0-5.412 1.917-5.412 5.572 0 2.577 1.926 4.314 4.63 4.314z"/><path d="M153.58 50.713c-1.204 2.994-4.452 6.592-7.338 6.592-1.443 0-1.926-.782-1.926-1.62 0-3.237 4.39-9.23 4.39-15.22 0-3.716-2.585-5.093-5.17-5.093-1.626 0-2.646.596-2.646.596-.06 7.61-5.476 20.555-10.29 20.555-.783 0-1.142-.658-1.142-1.437 0-3.236 4.573-9.53 4.573-14.38 0-3.78-2.465-5.097-5.112-5.097-1.5 0-3.127.6-3.127.6.19 4.447-1.39 6.53-3.88 13.69-.287.758-1.856 5.596-7.156 6.796 2.61-3.9 3.46-8.2 3.46-12.277 0-5.633-2.71-9.89-8.543-9.89-5.777 0-8 4.494-8 4.494 0-3.355-3.126-4.432-5.115-4.432-1.926 0-3.188.957-3.188.957 0 5.753-.91 11.003-2.167 15.76-1.506 2.856-4.093 5.995-6.675 5.995-.724 0-1.264-.3-1.264-1.26 0-2.995 4.51-10.008 4.51-15.82 0-3.655-2.523-5.036-5.168-5.036-1.506 0-3.43.66-3.43.66.037 6.132-2.043 11.285-3.543 16.023-.698 2.214-4.71 6.03-9.573 6.03-2.164 0-3.187-1.14-3.91-3.295 4.75-1.62 10.947-5.154 10.947-11.986 0-3.295-1.802-5.75-5.048-6.71.55-.61 3.364-4.135 3.364-9.114 0-3.895-2.524-6.17-6.914-6.17-14.018 0-20.575 30.562-20.575 38.653 0 3.716 2.347 5.094 4.454 5.094 1.624 0 3.007-.6 3.007-.6.058-2.695.843-6.95 2.044-9.827.96 5.334 4.214 11.147 11.19 11.147 3.97 0 7.4-1.343 9.898-3.252.84 2.172 2.996 3.372 6.22 3.372 2.323 0 4.51-.61 6.42-1.575-1.74 4.803-3.17 8.874-3.17 12.242 0 2.038 1.325 3.295 3.547 3.295 6.2 0 7.944-12.706 10.833-25.23 1.262-5.452 4.386-12.346 9.198-12.346 1.57 0 2.59 1.323 2.59 3.3 0 4.612-3.066 13.3-8.002 13.3-2.345 0-2.523-1.075-2.523-1.075s-1.756.777-1.93 3.533c-.136 2.3 1.39 3.46 4.1 3.963 6.235 1.164 16.583-1.965 18.983-4.482.725 3.315 3.33 4.8 5.484 4.842 7.16.14 9.93-4.8 9.93-4.8.185 2.517 1.688 5.034 6.62 5.034 7.46 0 13.476-6.29 13.476-10.486 0-3.06-1.383-3.896-2.708-4.015zM62.625 28.72c.308 0 .604.42.604.837 0 4.495-5.293 9.23-7.638 11.087.78-2.398 4.932-11.925 7.033-11.925zM55.41 49.39c1.685-3.115 4.51-6.59 7.46-6.59 1.26 0 1.687.537 1.687 1.196 0 2.82-4.697 5.216-9.147 5.394z"/></g></svg>