<svg width="200" height="100" viewBox="0 0 200 100" xmlns="http://www.w3.org/2000/svg"><title>kiwanis</title>,<g fill="#000" fill-rule="evenodd"><path d="M169.46 32.064c-6.448-6.414-16.226-11.82-28.277-15.63-10.165-3.217-21.636-5.16-33.538-5.754-1.845-.6-4.066-.446-5.627-.178-.686-.01-1.368-.036-2.057-.036h-.087c-1.74-.82-3.992-.468-5.828.123-18.528.7-35.773 4.67-49.066 11.375C30.11 29.465 21.92 39.5 21.92 50.218c0 6.317 2.953 12.595 8.54 18.153 6.45 6.415 16.227 11.82 28.278 15.633 12.34 3.903 26.594 5.966 41.22 5.966.402 0 .8-.02 1.2-.022.95.193 1.977.134 2.972-.053 13.155-.354 25.888-2.362 37.05-5.892 12.052-3.813 21.83-9.218 28.28-15.632C175.046 62.814 178 56.536 178 50.22c0-6.32-2.953-12.596-8.54-18.154zm-1.103 1.098c5.19 5.162 7.903 10.702 8.075 16.474h-21.065c-.123-6.223-2.226-12.228-6.147-17.662h17.89c.428.392.845.788 1.247 1.188zM125.84 76.448c.027-.088.06-.216.104-.38.315-1.182 1.152-4.326 3.537-6.75.39-.395.717-.58 1.033-.58.26 0 .71.122.848.935.064 1.13.016 3.888-1.646 6.193-.56.78-1.988 2.593-3.094 2.593-.06 0-.117-.006-.172-.015-.255-.044-.47-.19-.603-.408-.277-.455-.157-1.115-.006-1.59zm-3.208 5.754c-.644.547-2.258 1.818-3.34 1.818-.17 0-.322-.03-.457-.088-.235-.102-.408-.293-.487-.536-.16-.508.115-1.123.375-1.55.05-.08.113-.195.193-.342.593-1.076 2.165-3.934 5.067-5.723.787-.485 1.316-.312 1.51-.103.188.2.263.493.233.895-.213 1.115-.927 3.787-3.094 5.63zm-22.67 1.95c-18.942 0-34.35-15.308-34.35-34.123 0-18.817 15.408-34.125 34.35-34.125 18.94 0 34.35 15.308 34.35 34.124 0 18.814-15.41 34.12-34.35 34.12zM64.71 38.57c.017.093.047.223.085.387.3 1.306 1 4.364.02 7.61-.08.265-.322 1.074-.988 1.074-.3 0-.576-.17-.843-.52-.584-.975-1.83-3.446-1.436-6.247.145-1.023.598-3.44 1.69-3.79.09-.03.183-.044.274-.044.277 0 .948.15 1.2 1.53zm.16-6.572c.386-.96 1.408-3.197 2.552-3.277h.01c.31 0 .527.097.696.277.358.38.396 1.034.364 1.515-.006.093-.008.225-.01.392-.022 1.224-.08 4.473-1.813 7.392-.21.355-.548.828-1.043.828-.365 0-.657-.245-.867-.726-.33-1.085-.945-3.776.112-6.402zm-3.475 23.544c.17-.172.386-.262.625-.262.555 0 1.054.49 1.374.9.057.073.145.173.254.3.802.932 2.932 3.406 3.585 6.735.113.58.066.97-.148 1.227-.145.175-.358.27-.602.27-.183 0-.383-.05-.613-.158-.973-.593-3.233-2.204-4.197-4.872-.35-.973-1.083-3.323-.278-4.14zm-.93-5.254c-.107-1.026-.25-3.477.727-4.077.585-.36 1.316.05 1.786 1.09.04.087.1.207.176.358.604 1.196 2.02 3.995 1.85 7.372-.052 1.075-.508 1.3-.88 1.3-.24 0-.49-.107-.762-.325-.8-.808-2.604-2.908-2.896-5.717zm2.865-14.7c-3.053 1.944-2.698 7.492-2.413 9.13-1.202 1.26-1.43 3.136-1.273 4.916h-13.53c.13-6.237 2.366-12.256 6.53-17.662h11.45c-.5 1.48-.714 2.9-.765 3.615zm-3.53 15.21c.258 1.454.704 2.723.98 3.35-1.81 3.133 1.107 7.895 2.128 9.217-.492 1.73.25 3.563 1.28 5.094H52.647c-4.163-5.405-6.398-11.424-6.53-17.66h13.686zm4.048 13.776c.166-.28.445-.432.783-.432.477 0 .976.31 1.31.572.073.057.183.136.32.233 1.095.778 3.658 2.604 5.09 5.67.173.367.37.9.11 1.304-.104.163-.32.358-.746.358-.108 0-.23-.012-.362-.038-1.085-.344-3.663-1.37-5.238-3.724-.575-.86-1.85-2.962-1.267-3.944zm4.547 8.17c.2-.662 1.02-.832 2.066-.36.084.04.208.088.364.15 1.145.453 4.185 1.66 6.32 4.303.27.335.606.835.393 1.304-.143.314-.47.485-.973.508l-.027.002-.026-.002c-1.085-.075-3.835-.457-5.937-2.373-.765-.698-2.51-2.44-2.18-3.533zm7.66 5.953c.194 0 .412.02.646.064.092.016.225.035.394.057 1.333.187 4.457.618 7.162 2.673.342.26.788.667.694 1.174-.063.338-.34.58-.823.723-.466.084-1.13.17-1.935.17-1.646 0-3.183-.363-4.445-1.05-.91-.494-3.022-1.768-2.965-2.907.02-.437.366-.904 1.27-.904zm-1.95-55.108c-.028.09-.064.22-.107.384-.346 1.292-1.158 4.32-3.537 6.734-.39.394-.717.577-1.033.577-.257 0-.71-.12-.848-.93-.06-1.133-.008-3.89 1.65-6.187.562-.777 1.99-2.587 3.094-2.587.06 0 .116.005.17.014.256.044.47.19.605.407.28.454.158 1.114.007 1.588zm3.215-5.75c.74-.628 2.782-2.16 3.79-1.722.236.102.41.293.487.536.16.507-.117 1.12-.378 1.546-.048.08-.113.196-.194.344-.647 1.174-2.164 3.922-5.062 5.704-.376.232-.674.34-.938.34-.29 0-.47-.13-.57-.238-.187-.2-.263-.492-.232-.894.213-1.113.928-3.778 3.096-5.616zm58.473 25.855c.24 0 .49.106.76.324.802.807 2.607 2.9 2.902 5.712.108 1.026.253 3.476-.722 4.075-.143.09-.298.134-.46.134-.5 0-.973-.434-1.326-1.22-.04-.086-.1-.205-.176-.354-.606-1.195-2.025-3.992-1.86-7.37.052-1.074.508-1.3.88-1.3zm-3.115-6.888c-.114-.58-.068-.97.146-1.227.254-.306.68-.363 1.215-.113.975.593 3.236 2.203 4.203 4.868.352.973 1.085 3.324.282 4.142-.17.173-.387.263-.626.263-.553 0-1.054-.487-1.375-.897-.06-.075-.146-.176-.256-.304-.88-1.018-2.934-3.404-3.59-6.733zm6.45 9.076c1.825-3.134-1.11-7.878-2.134-9.2.46-1.583-.12-3.257-1.006-4.712h11.287c4.162 5.406 6.398 11.425 6.53 17.662h-13.62c-.245-1.62-.753-3.065-1.056-3.75zm-3.06-10.43c-.166.28-.445.435-.785.435-.48 0-.978-.312-1.312-.573-.073-.057-.183-.135-.32-.233-1.098-.78-3.668-2.607-5.105-5.68-.172-.367-.37-.9-.11-1.305.13-.207.448-.45 1.108-.322 1.088.344 3.67 1.37 5.252 3.727.576.862 1.853 2.97 1.27 3.952zm-4.56-8.175c-.122.404-.483.643-.97.643-.314 0-.684-.093-1.096-.278-.088-.04-.214-.09-.373-.152-1.25-.496-4.18-1.66-6.315-4.297-.27-.335-.607-.835-.394-1.305.143-.313.47-.484.974-.507 1.137.075 3.89.454 5.992 2.367.767.698 2.514 2.44 2.183 3.53zm-7.667-5.944c-.194 0-.41-.02-.644-.064-.095-.016-.23-.035-.397-.058-1.335-.184-4.46-.614-7.165-2.666-.344-.26-.79-.666-.697-1.173.063-.34.34-.583.823-.726.47-.085 1.14-.17 1.946-.17 1.643 0 3.177.36 4.436 1.044.912.493 3.026 1.764 2.97 2.904-.022.44-.37.908-1.273.908zm7.603 48.18c.007-.093.008-.226.01-.394.025-1.34.08-4.472 1.808-7.39.21-.357.548-.83 1.043-.83.252 0 .606.125.867.725.332 1.084.95 3.776-.106 6.4-.384.96-1.403 3.197-2.547 3.28l-.067.003c-.247 0-.47-.096-.64-.278-.36-.38-.397-1.033-.367-1.516zm3.777-8.067c-.017-.094-.047-.226-.085-.39-.3-1.304-1-4.357-.027-7.594.08-.266.325-1.074.99-1.074.298 0 .573.17.84.518.585.974 1.83 3.44 1.44 6.235-.143 1.02-.593 3.433-1.683 3.785-.09.03-.185.045-.276.045-.276 0-.945-.15-1.197-1.526zm1.375 2.993c3.06-1.943 2.697-7.496 2.41-9.137 1.112-1.164 1.39-2.854 1.3-4.506h13.5c-.136 6.386-2.49 12.396-6.543 17.66h-11.572c.6-1.618.85-3.237.905-4.017zm4.112-46.53c10.298 3.257 18.883 7.682 25.07 12.897h-17.434c-1.027-1.315-2.163-2.594-3.407-3.83-5.036-5.01-11.724-9.166-19.343-12.02-1.367-.512-2.767-.98-4.19-1.408 6.776.99 13.272 2.453 19.303 4.36zm-15.663-1.5c7.412 2.777 13.91 6.81 18.79 11.664.892.89 1.726 1.8 2.505 2.733h-11.154c-.922-1.198-1.934-2.14-2.482-2.573.12-3.603-4.68-6.46-6.2-7.157-.753-3.526-6.085-5.126-7.73-5.44-.286-.6-.71-1.1-1.222-1.52 2.576.63 5.085 1.39 7.493 2.294zm-11.365-3.23c1.005.264 3.366.998 3.586 2.12.05.25-.01.5-.167.7-.327.422-.992.545-1.492.574-.094.005-.228.02-.398.037-.486.05-1.3.135-2.27.135-1.974 0-3.77-.345-5.338-1.022-.398-.172-.93-.46-.96-.976-.02-.343.19-.646.625-.9.825-.363 2.412-.935 4.295-.935.735 0 1.45.09 2.12.266zm-9.394-2.195h.126c1.04.018 3.506.17 3.99 1.204.11.232.112.488.008.722-.217.486-.833.764-1.312.91-.09.03-.216.074-.375.13-1.005.36-3.097 1.11-5.628 1.11-.672 0-1.333-.055-1.967-.162-.427-.072-1.013-.226-1.166-.718-.104-.33.028-.672.39-1.02.88-.68 3.142-2.176 5.934-2.176zm-9.333.072c.89-.2 1.756-.312 2.44-.312.87 0 1.435.176 1.727.537.162.2.224.45.18.702-.096.523-.628.938-1.057 1.194-.08.05-.194.124-.336.218-1.125.74-3.757 2.475-7.157 2.715-.093.006-.182.01-.262.01-.197 0-.802 0-1.054-.454-.163-.293-.113-.65.147-1.063.71-.887 2.594-2.92 5.372-3.547zm-5.996 1.313c.36 0 .65.082.862.243.205.156.327.383.344.638.033.532-.384 1.06-.74 1.41-.065.065-.155.162-.267.285-.835.9-3.048 3.294-6.295 4.336-.285.092-.522.136-.725.136-.398 0-.61-.174-.716-.322-.18-.246-.197-.573-.056-.997.475-1.03 1.813-3.45 4.358-4.717.61-.305 2.15-1.013 3.233-1.013zm-6.792 2.704c-3.577-.54-7.046 3.838-7.925 5.25-3.59.347-5.858 5.392-6.37 6.97-1.566.53-2.62 1.96-3.318 3.513H53.58c.78-.932 1.613-1.844 2.507-2.733 4.88-4.854 11.377-8.887 18.788-11.663 2.824-1.058 5.79-1.92 8.836-2.603-.684.494-1.227.96-1.542 1.267zm-22.956 2.835c6.007-1.9 12.475-3.358 19.222-4.348-6.477 1.956-12.43 4.805-17.56 8.463-3.705 2.644-6.822 5.6-9.31 8.783H34.143c6.188-5.215 14.773-9.64 25.07-12.898zm-27.646 15.25c.403-.4.818-.796 1.248-1.188H50.69c-3.892 5.4-6.008 11.412-6.133 17.662H23.492c.17-5.772 2.885-11.312 8.074-16.474zm0 34.112c-5.19-5.163-7.903-10.703-8.074-16.474h21.064c.123 6.223 2.225 12.228 6.147 17.66h-17.89c-.43-.39-.844-.786-1.247-1.186zm27.646 15.25c-10.297-3.26-18.882-7.683-25.07-12.898h17.435c1.027 1.314 2.163 2.593 3.406 3.83 5.036 5.01 11.724 9.165 19.343 12.02 1.367.51 2.767.98 4.19 1.408-6.776-.99-13.272-2.453-19.304-4.36zm15.663 1.498c-7.41-2.777-13.908-6.81-18.788-11.665-.894-.89-1.728-1.8-2.506-2.73h11.49c.818.98 1.653 1.744 2.132 2.124-.16 3.622 4.672 6.523 6.198 7.223.765 3.513 6.097 5.15 7.738 5.465.444.91 1.207 1.58 2.104 2.082-2.883-.666-5.688-1.495-8.367-2.498zm11.34 2.836c-1.006-.265-3.366-1.003-3.583-2.12-.05-.25.01-.5.168-.702.328-.42.992-.542 1.492-.57.093-.005.226-.02.394-.037.483-.05 1.29-.134 2.257-.134 1.977 0 3.776.344 5.345 1.025.397.173.928.462.958.977.02.344-.19.645-.626.897-.823.362-2.408.93-4.284.93-.737 0-1.45-.09-2.122-.266zm9.395 2.202h-.134c-1.038-.02-3.504-.173-3.986-1.205-.108-.233-.11-.49-.007-.722.217-.485.833-.763 1.312-.91.09-.028.217-.074.376-.13 1.005-.358 3.094-1.103 5.617-1.103.674 0 1.337.055 1.973.163.428.073 1.013.227 1.166.72.102.328-.03.67-.39 1.02-.882.676-3.14 2.167-5.926 2.167zm9.388-.066c-.89.202-1.76.314-2.442.314-.87 0-1.432-.175-1.723-.536-.162-.2-.225-.45-.18-.7.094-.524.626-.94 1.054-1.196.082-.048.195-.123.337-.217 1.123-.742 3.753-2.477 7.15-2.72.094-.008.183-.01.263-.01.198 0 .802 0 1.055.452.163.292.114.65-.145 1.06-.71.89-2.594 2.924-5.37 3.552zm5.992-1.312c-.36 0-.65-.082-.86-.242-.207-.157-.328-.383-.345-.64-.035-.53.383-1.06.738-1.41.066-.067.156-.164.27-.287.832-.904 3.047-3.302 6.295-4.35.842-.272 1.28-.038 1.442.184.18.247.198.573.06 1-.477 1.03-1.813 3.454-4.36 4.726-.613.307-2.155 1.02-3.24 1.02zm6.734-2.725c3.6.595 7.002-3.818 7.886-5.24 3.646-.268 5.95-5.392 6.466-6.984 1.425-.486 2.422-1.718 3.115-3.107h11.142c-6.842 8.194-17.886 14.413-31.002 17.19 1.086-.693 1.955-1.43 2.394-1.86zm3.654 1.935c1.435-.43 2.843-.902 4.22-1.417 7.618-2.854 14.306-7.01 19.34-12.02 1.245-1.236 2.38-2.515 3.408-3.83h17.468c-9.79 8.257-25.624 14.522-44.436 17.267zm45.76-18.43H149.22c3.92-5.434 6.024-11.44 6.147-17.662h21.064c-.192 6.386-3.537 12.396-9.29 17.66z"/><path d="M83.22 35.456c-3.443 3.886-5.533 8.987-5.533 14.57 0 5.214 1.82 10.005 4.865 13.78 2.22 1.752 2.57.363 2.57-.826V36.413c0-1.586-1.065-1.717-1.9-.957zM86.637 33.27c-.513-.153-1.108.002-1.163.66-.033.395.73 1.055.73 1.648v28.37c0 1.452-.796 1.055-.83 1.847-.038.923 1.063.715 1.33.626.298-.097.697-.724.697-1.58V35.38c0-1.055-.1-1.913-.763-2.11zM99.037 48.1l-4.524 3.832v13.215c0 2.776 4.19 6.938 7.584 6.79.864.016 1.4-.012 3.068-.41 1.188-.433 5.18-1.886 2.518-7.04-.133.132-8.646-16.388-8.646-16.388zM94.512 40.555l10.17-8.45c1.595-1.32 1.9-2.742-.88-3.88-1.246-.216-2.53-.33-3.84-.33-1.728-.016-5.45 1.57-5.45 5.398v7.262z"/><path d="M108.496 30.68c.12-.636.088-.966-.532-1.088-.332-.067-.83.23-.83.692 0 .46-.398 1.516-.93 1.91L93.458 42.94v-9.822c.046-1.984.897-3.23 1.494-3.79.163-.152.226-.38.134-.594-.2-.46-.824-.222-1.394.23-.83.66-1.428 2.44-1.428 3.89v12.59l14.872-12.458c.532-.395 1.23-1.614 1.362-2.307z"/><path d="M99.96 17.188c-18.263 0-33.07 14.703-33.07 32.84 0 18.137 14.807 32.84 33.07 32.84 18.265 0 33.072-14.703 33.072-32.84 0-18.137-14.807-32.84-33.07-32.84zm23.14 12.044c.424.465.585 1.038.758 1.228.02.022.053.044.078.058.105.06.22.1.302.19.347.38-.05 1.39-.397 1.703-.254.23-.615.246-.82.02-.397-.437.086-1.45-.51-2.104-.238-.26-.52-.316-.733-.124-.71.637 1.736 2.657.083 4.142-.987.886-2.498.616-3.654-.653-.635-.697-1.194-1.707-1.167-2.103.01-.356.41-1.036.8-1.386.25-.223.474-.246.64-.062.264.29.006.842-.085 1.153-.102.414.085.988.452 1.39.302.33.648.442.84.27.475-.426-.546-1.52-.548-2.698-.004-.613.215-1.18.577-1.506.908-.815 2.388-.607 3.383.486zm.385 20.797c0 12.905-10.533 23.368-23.524 23.368-12.99 0-23.52-10.463-23.52-23.37 0-12.907 10.53-23.37 23.52-23.37 12.992 0 23.525 10.463 23.525 23.37zm-7.714-23.233c.81-1.098.92-1.347.76-1.757-.112-.282-.116-.39-.014-.53.35-.475 1.713.445 2.053.692.858.623 1.19 1.136.96 1.45-.09.123-.207.168-.362.138l-.197-.024c-.315-.053-.567.176-1.403 1.312-.074.1-.147.2-.207.297l-.69.97c-.417.583-.45.724-.275 1.05.115.214.118.357.015.495-.395.537-1.614-.336-2.024-.634-.873-.634-1.175-1.077-.95-1.384.108-.146.205-.18.47-.154.326.024.466-.086 1.02-.804l.692-.91.153-.207zm-9.47-1.26c.095-.23.295-.26.503-.29.32-.043.557-.438 1.16-1.888.338-.81.557-1.533.556-1.852.02-.352-.522-.565-.372-.925.18-.43.63-.42 1.754.043.513.21.613.294.8.668l1.368 2.755c.122.256.23.414.31.447.16.066.306-.06.44-.385.3-.72.313-.922.094-1.166-.177-.196-.218-.347-.15-.514.17-.404.517-.416 1.42-.044.998.41 1.262.674 1.097 1.068-.083.203-.24.283-.503.288-.364.004-.54.23-.922 1.144l-.586 1.405-.346.826c-.487 1.167-.78 1.5-1.16 1.343-.23-.094-.32-.327-.42-.533l-1.614-3.34c-.105-.22-.228-.37-.343-.42-.177-.072-.364.13-.566.612-.333.8-.354 1.027-.13 1.284.17.193.2.318.125.495-.16.387-.696.403-1.563.047-.743-.306-1.102-.71-.952-1.07zm-8.64-.997c.41-.102.536-.235.985-1.047l.772-1.377c.57-1.003.725-1.39.774-1.892.075-.794.438-1.146 1.125-1.092.495.038.914.33 1.218.84.33.54.72 1.417 1.18 2.634l.738 1.944c.134.363.195.435.422.49.216.046.33.17.317.35-.038.463-.557.603-1.796.506-.62-.05-1.266-.138-1.567-.21-.29-.08-.486-.276-.47-.494.018-.218.09-.278.374-.352.148-.035.23-.114.24-.22.02-.244-.123-.38-.474-.426-.313-.054-.626-.097-.94-.122-.868-.07-.997-.012-1.03.414-.022.265.568.197.537.595-.03.37-.483.515-1.388.444-1.048-.082-1.41-.254-1.378-.633.015-.197.098-.276.363-.35zm-8.754-3.573c1.184-.305 1.598-.274 1.71.157.058.22-.112.402-.056.614.033.13.966 1.614 1.206 1.552.12-.03.197-.227.24-.592l.053-.552c0-.04-.002-.08-.01-.106-.004-.02-.02-.044-.048-.076l-.21-.28c-.3-.423-.717-.207-.833-.648-.097-.367.454-.715 1.574-1.004 1.156-.3 1.706-.274 1.803.094.076.294-.3.44-.228.716.083.32.485.69.7.947.374.442.45.5.578.468.13-.034.173-.172.21-.672l.058-.682c.015-.21.01-.345-.013-.428-.036-.138-.087-.184-.248-.19-.26-.013-.45-.14-.5-.333-.095-.358.237-.6 1.126-.83.685-.176 1.076-.08 1.17.278.042.166.002.274-.183.548-.138.192-.147.234-.216.8l-.24 2.29-.197 1.55c-.14 1.047-.242 1.26-.64 1.362-.37.096-.61.01-.855-.32l-1.448-1.87c-.164-.214-.19-.237-.283-.213-.12.03-.143.096-.235.797l-.224 1.676c-.078.608-.193.775-.618.885-.38.097-.605-.01-.91-.423l-2.77-3.787c-.186-.256-.227-.304-.32-.32-.243-.055-.45-.13-.52-.396-.102-.395.386-.757 1.376-1.013zM84.41 23.12c.906-.55 1.512-.66 1.717-.326.08.13.077.254-.01.385l-.098.17c-.17.27-.053.59.685 1.792.065.105.13.21.198.303l.64 1.007c.382.604.5.688.872.652.243-.024.377.03.466.175.35.568-.928 1.354-1.362 1.617-.924.56-1.452.67-1.65.344-.096-.154-.092-.257.034-.49.148-.29.098-.46-.36-1.242l-.58-.985-.136-.22c-.714-1.162-.903-1.36-1.346-1.37-.306-.003-.408-.042-.498-.188-.31-.504 1.067-1.406 1.427-1.624zm-8.4 7.13c.23-.28.427-.503.637-.71.71-.706 1.117-.867 1.43-.558.086.087.134.215.12.336-.02.397.1.6.392.888.202.202.33.25.412.168.115-.114.116-.275.007-1.095-.028-.203-.068-.324-.136-.39-.12-.123-.318-.116-.44-.237-.324-.323-.127-.76.72-1.6.785-.78 1.158-.933 1.47-.624.208.208.195.478-.056.726-.46.457-.406.43-.413.84-.008.316-.11.98.127 1.217.115.114.25.154.596.175l2.673.198c.468.034.522.034.766-.06.346-.142.542-.12.738.074.223.222.168.53-.15.847L83.65 31.69c-.17.167-.264.18-.77.106-.333-.06-1.99-.283-2.215-.062-.12.12-.06.33.163.55.236.237.42.31.63.264.29-.06.425-.033.56.1.284.284.033.76-.84 1.628-.908.9-1.288 1.087-1.585.79-.122-.12-.15-.268-.1-.49.067-.336-.21-.733-1.258-1.775-.757-.753-1.035-1.002-1.38-1.237-.514-.35-.765.072-1.056-.217-.264-.262-.204-.59.21-1.095zm-7.362 20.86c-.048-.966.11-1.43.494-1.447.182-.01.27.038.414.236.185.24.36.273 1.27.246l1.148-.04.258-.01c1.37-.068 1.634-.133 1.857-.478.15-.24.233-.303.406-.312.592-.03.723 1.44.742 1.817.047.95-.148 1.473-.54 1.492-.153.008-.26-.047-.335-.172l-.103-.15c-.157-.25-.494-.292-1.91-.223-.124.005-.25.012-.363.027l-1.196.075c-.716.044-.847.102-.995.41-.095.2-.207.283-.38.29-.668.034-.744-1.308-.767-1.762zm1.67 9.378c-.058-.215.077-.41.184-.6l1.744-3.038c.114-.2.166-.372.136-.48-.045-.164-.317-.18-.824-.042-.84.226-1.036.34-1.11.645-.058.227-.142.32-.326.37-.406.11-.733-.253-.955-1.06-.19-.693-.074-1.176.304-1.28.24-.062.383.057.527.187.223.197.68.135 2.204-.277.85-.23 1.56-.49 1.817-.675.296-.187.15-.688.527-.79.452-.122.71.198.996 1.246.13.478.123.595-.07.94l-1.416 2.533c-.135.232-.198.4-.178.474.04.15.227.18.57.086.755-.204.924-.312.992-.604.055-.237.15-.35.327-.4.425-.113.638.12.868.962.255.932.198 1.266-.217 1.378-.212.057-.368-.007-.526-.185-.218-.25-.504-.245-1.463.014l-1.477.4-.866.234c-1.228.332-1.667.318-1.765-.036zm4.24 5.947c.033.338-.006.46-.204.575-.39.225-.84-.126-1.415-1.1-.684-1.16-.807-1.803-.394-2.043.248-.143.432.037.59.173.188.168.404.122 1.082-.232l.993-.518c.253-.137.538-.293.844-.47.677-.393.816-.534.716-.704-.174-.295-1.212.05-1.525-.48-.157-.268-.04-.593.3-.79.495-.288 1.772-.474 2.063.02.14.236.1.397.358.833l1.118 1.897c.12.206.204.307.422.507.055.057.115.12.145.173.298.503-.518 1.433-.997 1.71-.38.222-.742.154-.938-.178-.147-.25-.103-.516.156-.904.244-.36.275-.456.196-.59-.104-.177-.304-.16-.684.06l-2.255 1.312c-.47.274-.592.444-.57.747zm6.15 6.303c-.255.244-1.465.918-1.76.617-.204-.21-.362-.51-.59-.743l-2.484-2.55c-.198-.202-.21-.418-.023-.598.297-.284.47.17.948-.123.404-.268.88-.655 1.46-1.21.853-.823 1.37-1.415 1.5-1.73.055-.138-.008-.244-.05-.37-.08-.15-.045-.29.08-.41.274-.265.456-.202.978.334l1.512 1.55c.63.648.818.813 1.184.997.056.032.086.05.117.08.238.246.02.898-.47 1.368-.295.285-.58.333-.78.13-.407-.42.59-.64-.614-1.877-.385-.393-.563-.412-.886-.1l-.57.537c-.277.264-.268.328.062.666.432.444.842-.572 1.24-.166.227.234-.012.715-.646 1.323-.64.617-1.203.86-1.437.62-.337-.344.664-.687.106-1.26-.174-.177-.332-.134-.682.204-.854.82-.88.918-.347 1.465.624.64 1.008.76 1.667.52.37-.142.505-.14.65.007.167.173.095.468-.167.72zm7.467 1.087c-.605.98-1.38.664-1.49.843-.055.088-.043.152.06.294.448.617.256 1.192-.054 1.873-.157.34-.16.46-.012.627.114.126.195.276.08.462-.226.364-.804.336-1.48-.075-.492-.302-.737-.64-.766-1.036-.077-.94.91-2.212.212-2.637-.184-.112-.253-.065-.533.388-.44.714-.5.912-.37 1.16.085.173.088.33.004.47-.22.355-.653.27-1.608-.31-.904-.55-1.22-.99-.99-1.36.276-.448.515.312 1.38-1.09l.747-1.197.286-.46c.513-.836.572-1.013.424-1.28-.136-.24-.155-.34-.065-.487.19-.306.57-.298 1.098.023.286.174.535.393.822.568.462.282.963.486 1.42.763 1.028.627 1.36 1.61.835 2.462zm7.714 3.24l-.383 1.473-.225.865c-.318 1.224-.548 1.598-.907 1.505-.217-.054-.32-.268-.433-.454l-1.798-3.013c-.117-.196-.244-.326-.352-.354-.167-.042-.315.185-.446.69-.218.838-.214 1.065.014 1.28.17.162.213.28.165.465-.105.405-.586.51-1.404.298-.7-.18-1.065-.517-.967-.894.062-.24.24-.303.423-.363.283-.094.456-.52.85-2.04.22-.846.343-1.59.308-1.903-.016-.347-.528-.47-.43-.846.117-.45.525-.513 1.585-.242.482.125.58.19.787.526l1.518 2.48c.136.23.25.368.326.388.15.038.27-.108.358-.45.196-.754.185-.953-.038-1.157-.18-.164-.232-.305-.187-.48.11-.423.422-.49 1.272-.273.943.24 1.207.457 1.1.87-.055.212-.19.316-.423.364-.33.063-.464.313-.713 1.27zm6.423 4.25c-.56.004-1.146-.028-1.422-.073-.268-.055-.46-.234-.46-.453-.003-.22.057-.286.306-.384.13-.05.197-.135.196-.24-.002-.246-.14-.368-.46-.385-.285-.025-.57-.042-.854-.038-.784.008-.895.075-.89.502 0 .266.526.147.53.546.003.372-.39.556-1.21.564-.948.008-1.285-.13-1.29-.512 0-.2.067-.285.3-.38.36-.14.462-.282.8-1.132l.58-1.44c.43-1.05.537-1.45.542-1.955 0-.8.3-1.182.92-1.187.447-.005.846.248 1.16.73.342.51.763 1.353 1.273 2.527l.82 1.874c.15.35.21.416.418.452.2.027.312.14.314.32.004.467-.45.652-1.57.662zm5.842-5.795l.7 2.5c.146.522.28.68.58.737.34.055.447.124.51.343.118.43-.34.774-1.435 1.076-1.302.36-1.96.313-2.087-.144-.077-.274.146-.404.32-.522.21-.137.22-.357.05-1.1l-.25-1.083c-.07-.277-.15-.59-.243-.93-.21-.75-.31-.92-.502-.867-.33.092-.26 1.176-.858 1.34-.298.084-.586-.112-.69-.488-.155-.55-.01-1.823.546-1.976.265-.073.412.005.9-.13l2.134-.588c.233-.065.35-.117.602-.276.07-.038.148-.08.206-.096.563-.155 1.26.866 1.41 1.397.117.42-.04.75-.415.853-.28.078-.527-.03-.84-.38-.285-.324-.373-.38-.522-.338-.198.055-.232.252-.115.672zm5.886 2.54c-.868.438-1.358.48-1.53.14-.082-.16-.075-.26.05-.472.145-.264.105-.437-.29-1.252l-.5-1.027-.118-.23c-.617-1.214-.784-1.428-1.192-1.49-.28-.04-.374-.09-.45-.242-.27-.527 1.03-1.242 1.366-1.412.855-.428 1.416-.465 1.593-.116.068.136.062.256-.024.373l-.094.156c-.168.24-.07.565.57 1.822.055.11.11.222.17.32l.555 1.053c.332.632.44.728.78.74.225.002.346.07.424.223.303.594-.9 1.208-1.31 1.413zm5.557-3.488c-1.332 1.062-3.285.75-4.466-.712-1.145-1.417-.992-3.393.346-4.46.66-.524 1.275-.747 1.993-.722.99.04 2.033.576 2.686 1.385 1.12 1.39.874 3.368-.56 4.51zm7.315-8.16c-.13.182-.368.202-.582.238l-3.478.58c-.228.038-.396.11-.46.2-.1.138.06.358.487.66.708.504.922.582 1.207.45.214-.1.34-.097.495.015.343.243.266.724-.225 1.407-.42.585-.87.8-1.19.573-.202-.143-.198-.33-.188-.522.012-.296-.327-.61-1.612-1.523-.716-.508-1.37-.89-1.678-.97-.332-.11-.63.32-.95.093-.38-.27-.293-.67.344-1.555.29-.404.387-.472.777-.54l2.877-.515c.267-.042.437-.1.482-.162.09-.124-.006-.286-.294-.49-.637-.455-.83-.516-1.1-.384-.22.108-.37.105-.52 0-.357-.254-.31-.567.202-1.276.567-.787.864-.954 1.214-.706.18.127.228.29.188.524-.058.326.128.542.937 1.116l1.247.885.73.52c1.037.736 1.303 1.084 1.088 1.382zm3.424-7.84c-.185.525-.415 1.062-.552 1.305-.142.23-.376.35-.585.277-.208-.073-.25-.15-.26-.417 0-.137-.06-.23-.16-.264-.235-.082-.398.007-.52.3-.122.256-.235.517-.33.782-.258.737-.232.864.174 1.005.254.087.32-.443.7-.31.35.123.392.554.122 1.32-.315.89-.56 1.158-.923 1.032-.19-.066-.248-.16-.262-.41-.006-.382-.106-.526-.797-1.13l-1.167-1.032c-.85-.76-1.19-.995-1.668-1.17-.756-.272-1.017-.682-.813-1.264.148-.42.524-.706 1.088-.836.6-.145 1.54-.253 2.826-.33l2.053-.13c.383-.02.466-.056.57-.237.093-.176.24-.243.41-.184.444.153.464.642.093 1.692zm.73-3.914c-.034.402-.174.57-.45.547-.44-.038-.143-.7-1.153-.785l-.467-.048c-.85-.072-1.71-.102-2.56-.175-.507-.034-.635-.002-.74.213-.177.38-.28.466-.48.448-.43-.036-.616-.662-.524-1.727.11-1.27.3-1.69.757-1.653.247.022.313.26.385.436.076.22.226.268 1.075.34l2.137.182c.992.084 1.192-.01 1.24-.582.058-.648-.208-1.023-.865-1.224-.214-.07-.284-.154-.27-.316.024-.28.367-.467.815-.43.45.04 1.594.47 1.55.965-.026.306-.156.596-.202.9l-.25 2.908z"/><path d="M99.7 44.51l-7.453 6.28v14.616c.133 2.777 1.772 5.098 2.796 5.72.598.365 1.863.066.93-.76-.845-.75-2.528-2.777-2.528-4.76V51.253l5.99-5.026 9.917 18.913c.765 1.688.532 3.043.466 3.705-.067.66 1.064.595 1.297-.497.135-.63-.116-2.313-.432-2.942L99.7 44.51zM113.455 36.076l-7.05 5.947s9.378 17.712 9.31 17.646c2.13 3.965 3.86.792 4.218.11 1.464-2.94 2.287-6.255 2.287-9.76 0-5.08-1.73-9.758-4.634-13.487-.924-1.26-3.067-1.382-4.13-.457z"/><path d="M115.035 60.786l-10.04-19.154 7.38-6.21c.73-.626 1.22-1.022 2.095-1.022.42 0 .5-.457.465-.595-.122-.487-.176-.394-.865-.462-1.263.198-1.43.297-2.426 1.155l-8.112 6.737 10.938 20.872c.798 1.354 2.493 2.047 2.825 1.783.333-.264.234-.66.1-.924-.24-.476-1.164 0-2.36-2.18zM101.34 23.01c.18.014.25-.01.255-.085.02-.256-.456-1.257-.657-1.273-.123-.01-.207.07-.31.29-.11.173-.388.647-.405.855-.008.095.038.128.2.14l.916.072zM85.154 72.923c-.105.17-.143.28.033.388.41.25.74.128 1.056-.383.32-.52.314-.87-.017-1.07-.184-.113-.3-.07-.465.163l-.606.903zM100.234 78.612c.163 0 .223-.03.223-.106-.003-.257-.51-1.21-.692-1.21-.11.003-.18.088-.254.317-.084.18-.294.677-.293.885 0 .096.045.123.19.122l.827-.008zM116.165 71.84c.474.587 2.224 1.947 2.91 1.4.335-.267.317-.74-.054-1.2-.527-.65-2.186-2.023-2.945-1.42-.31.248-.274.77.09 1.22zM127.07 59.594c.054-.154.047-.22-.025-.245-.244-.085-1.32.065-1.38.235-.038.104.02.197.212.345.143.14.54.506.74.575.09.03.13 0 .18-.138l.273-.773z"/></g></svg>