<svg width="200" height="100" viewBox="0 0 200 100" xmlns="http://www.w3.org/2000/svg"><title>klick</title>,<path d="M136.703 15.628c-.517-1.17-1.266-2.207-2.188-3.064-.92-.855-2.014-1.53-3.224-1.97-1.206-.44-2.528-.65-3.912-.58l-56.854 2.86c-1.19.06-2.318.37-3.342.883-1.02.51-1.938 1.22-2.706 2.077-.767.855-1.386 1.858-1.813 2.96-.427 1.1-.663 2.297-.663 3.545v55.327c0 1.247.236 2.446.663 3.545.427 1.1 1.046 2.105 1.813 2.96.768.857 1.685 1.566 2.706 2.077 1.024.51 2.153.822 3.342.882l56.854 2.86c1.384.07 2.706-.14 3.913-.58 1.21-.442 2.305-1.115 3.225-1.97.922-.857 1.67-1.896 2.188-3.065.52-1.17.806-2.47.806-3.847V19.475c0-1.377-.288-2.676-.807-3.847zm-54.92 59.084c-2.494 0-4.516-2.022-4.516-4.516s2.022-4.515 4.516-4.515c2.493 0 4.515 2.022 4.515 4.516s-2.022 4.516-4.515 4.516zm4.847-49.144c-.738 10.817-2.174 35.56-2.174 35.56H79.26s-2.743-32.668-2.746-36.17c0-1.972 1.328-1.962 2.134-2.355 2.04-.45 4.084-.496 6.096.114 1.643.497 2.004 1.126 1.886 2.85zm34.072 48.1h-10.39c-.317 0-.62-.127-.847-.35-.367-.36-.69-.792-1.048-1.138-.68-.66-15.55-18.11-17.745-22.038-.326-.584-.37-1.858.354-2.26 1.124-.624 2.136-1.566 3.084-2.43 4.23-3.856 14.14-14.264 15.035-15.416.87-1.12.466-1.967-.953-2.17-.714-.1-1.445-.083-2.176-.12-.077-.546-.17-1.016.133-1.607h12.157c.228 1.03.182 1.656-.816 2.224-1.802 1.025-3.25 2.544-4.706 4.02-1.047 1.06-8.84 8.996-11.72 11.872-.538.537-1.13 1.017-1.684 1.536-.28.26-.552.53-.797.82-.222.263-.5.54-.556.893-.075.473.392.858.678 1.2.233.278 16.33 19.39 17.72 21.03.655.776 2.89 2.073 3.688 2.707.086.07.174.136.263.202.345.255.332.272.326 1.023z" fill="#000" fill-rule="evenodd"/></svg>