<svg width="200" height="100" viewBox="0 0 200 100" xmlns="http://www.w3.org/2000/svg"><title>koolaid</title>,<g fill="#000" fill-rule="evenodd"><path d="M172.856 64.292c0-.932.766-1.617 1.67-1.617.898 0 1.662.685 1.662 1.617 0 .938-.764 1.625-1.66 1.625-.906 0-1.672-.687-1.672-1.625zm1.67 1.354c.746 0 1.333-.574 1.333-1.354 0-.768-.588-1.347-1.333-1.347-.75 0-1.34.58-1.34 1.347 0 .78.59 1.354 1.34 1.354zm-.346-.416h-.287v-1.87h.722c.448 0 .67.164.67.533 0 .334-.215.48-.492.514l.538.823h-.32l-.5-.81h-.33v.81zm.343-1.05c.244 0 .46-.017.46-.304 0-.232-.213-.276-.412-.276h-.39v.58h.343zM57.612 43.453c-.88 1.383-1.603 3.288-.747 4.754.587 1.022 1.778 1.408 2.973 1.203.974-.263 1.726-.926 2.273-1.638.46-.596 2.25-4.76.67-5.986s-4.12-.035-5.168 1.667zM151.67 41.856c-2.18 1.158-3.232 3.662-2.928 6.074.152 1.07.99 1.776 2.15 1.997 1.163.22 2.323-.348 3.377-1.434 1.014-1.052 1.783-4.518 1.135-5.804-.65-1.286-2.536-1.52-3.734-.834zM115.794 44.967h3.144s.118-3.12.18-4.278c.057-1.173.366-3.914.366-3.914L118.17 39.8l-2.376 5.167z"/><path d="M173.574 23.915s-12.215.014-13.55-.006c-.415 2.293-2.11 7.613-3.053 9.677-.383.843-.577 1.338-.577 1.338-1.41-.842-2.904-1.315-5.426-1.01-.86-.973-.67-.772-4.176-4.957-3.505-4.187-7.782-3.934-11.092-2.853l-4.302-3.945-15.837.01s-.855 3.272-1.795 5.296c-.342.886-1.282 2.655-1.282 2.655l-5.846-4.944s-8.598-.03-13.12-.016c-1.11 4.12-1.86 6.1-3.355 10.312-.244.59-.917 2.276-.917 2.276-2.433-3.12-4.72-3.81-6.79-4.22-2.07-.41-4.343-.222-6.194.512-1.357.364-2.518 1.137-3.556 1.858-3.137-2.82-8.502-7.965-8.502-7.965l-8.95-.008-3.71-3.507-19.023.004s-4.098 15.033-6.723 22.51c-1.84 5.762-4.114 11.36-6.17 17.012 2.703 2.69 8.064 7.987 8.064 7.987l16.165.03s.334-.956.823-1.114c2.203 2.374 4.57 4.32 7.434 5.467 2.807 1.47 6.546 1.93 9.807 1.156 4.56-.82 8.183-5.442 9.195-9.658l-2.144-2.855s2.077-1.587 3.06-2.488c.6-.477 1.23-1.023 1.803-1.43 2.26 2.106 4.192 4.316 6.838 5.624 3.51 1.688 7.27.01 10.105-1.894 0 0 .756.47 1.62.764.865.293 9.834.06 9.834.06s.663-3.447 1.377-4.565c1.725 1.298 5.004 4.69 5.004 4.69l10.794-.008c1.067 1.74 1.963 3.214 3.426 5.112 2.894 3.716 7.058 5.088 11.558 5.395 4.61.2 8.698-2.333 11.17-6.057.66-1.064 1.538-2.072 1.766-3.302l-1.77-2.1c.074-1.395.33-2.576 1.006-3.574 1.86 1.717 3.705 3.72 6.36 4.6 2.38.878 4.828-.224 6.844-1.223.22.342.59.753.59.753l10.886-.012c-.112-1.35-.02-2.402.23-3.957.25-1.555 1.01-5.877 1.85-8.705.786-3.096 1.628-6.192 2.793-9.177 1.393-4.214 3.434-8.156 5.26-12.206-2.202-2.32-7.8-7.345-7.8-7.345zm-39.954 7.072c.17-1.732 2.414-3.15 5.393-3.15 2.98 0 5.133 1.43 5.392 3.15.266 1.754-2.413 3.15-5.392 3.15-2.98 0-5.597-1.093-5.393-3.15zm-71.45 30.75c-2.315 4.26-6.727 6.307-11.5 6.32-2.93-.025-5.683-1.334-7.288-3.863-2.517-3.66-3.68-7.81-5.336-11.922-.07-.25-.148-.56-.203-.45-1.794 2.873-2.416 10.534-2.416 10.534l-11.77.01s1.444-3.892 2.005-5.92c3.682-10.18 9.125-29.28 9.125-29.28l11.634.034s-.1.498-.436 1.014c-2.092 3.512-3.65 7.19-4.227 11.197.507-.11 1.148-.358 1.61-.735 3.323-2.822 5.537-4.896 7.566-8.172 0 0 7.006-.073 10.6-.016-.55.76-1.38 1.49-2.302 2.31-5.464 4.66-10.645 8.492-14.98 14.233.256.947.546 2.027 1.102 3.006 2.743 4.55 6.458 10.366 11.774 11.71 1.948.498 3.976-.46 5.27-1.184.107.32-.045.692-.226 1.174zm12.723-3.798c-2.007.142-3.9-.355-5.3-1.865-1.45-1.565-1.7-3.653-1.954-5.688l-.054-.107c-1.7 2.178-2.97 4.52-5.532 5.944-2.565 1.957-6.8 2.242-9.715.88-2.43-1.253-3.493-3.723-3.796-6.186-.286-4.107.967-6.947 2.942-9.658 2.744-3.615 6.69-6.255 11.508-5.36 1.893.5 3.783 1.64 4.742 3.467.693 1.397 1.276 2.794 1.37 4.4l.18-.2c1.852-3.217 4.868-6.284 8.728-7.32 2.88-.725 5.8.102 7.9 1.938 2.848 3.022 2.21 7.885.607 11.242-1.99 4.26-6.58 8.396-11.627 8.512zm18.884-.857c-3.12-.012-6.235.002-9.557.002.922-1.73 1.83-3.384 2.496-5.197 3.267-7.515 6.24-16.237 9.127-23.916h9.417c-.395.91-.775 1.864-1.216 2.662-4.25 8.47-8.502 16.94-10.267 26.45zm8.086-16.394l5.614.038s-1.824 3.994-2.546 5.968l-.024.32-5.51-.047c.232-1.71 1.908-4.627 2.467-6.28zm33.267 25.365c-1.69 1.27-3.545 2.27-5.714 2.41-3.528.292-6.492-2.034-7.93-5.042-1.915-4.03-2.196-8.934-2.37-13.59l-4.885.01c-.878 1.278-1.272 2.808-1.934 4.192-.334.907-.76 2.146-.93 3.054l-10.107.007s1.542-2.663 2.26-4.1c5.278-8.248 9.747-16.77 13.406-25.725.114-.48.804-2.282.804-2.282l12.393-.003c-2.752 4.524-3.43 9.883-4.183 15.28-.127 1.685-.256 3.583-.067 5.593.3 2.944.922 5.026 2.075 8.058.13.465.524 1.18.524 1.18.684-1.39 1.27-3.37 1.7-4.815 1.34-4.43 3.613-13.927 3.613-13.927l8.868.024s-.33 1.01-.387 1.493c-1.953 6.136-5.006 19.146-5.006 19.146-2.385-.02-7.677.006-7.677.006s.308.584.522.96c1.39 2.153 3.712 3.35 6.373 2.998 1.09-.363 1.643-.455 2.83-1.152-.563 2.4-2.54 4.895-4.178 6.223zm35.805-37.682c-4.414 8.414-7.476 17.276-9.186 26.73l-.242 1.986-8.67.018c-.267-.59-.202-1.924-.202-1.924s-1.802 1.375-2.887 1.528c-2.885.99-6.53.258-8.228-1.837-1.7-2.094-1.636-5.257-.907-7.872 1.35-4.676 4.533-9.697 9.584-10.67 2.607-.407 5.777.55 7.39 2.49 0 0 .294-.553.406-.927 1.39-3.78 2.612-7.092 3.837-10.718l.12-.445 9.775-.007s-.572 1.22-.793 1.647z"/><path d="M80.034 40.918c-1.576.307-3.107 1.684-3.716 3.124-.553 1.226-1.215 3.203-.038 4.226.81.704 1.622.655 2.49.503 2.34-.62 3.716-3.706 3.856-4.804.14-1.1.046-1.912-.645-2.55-.69-.64-1.24-.547-1.946-.498z"/></g></svg>