<svg width="200" height="100" viewBox="0 0 200 100" xmlns="http://www.w3.org/2000/svg"><title>marclaurent</title>,<g fill="#000" fill-rule="evenodd"><path d="M18.95 35h3.686v29.502H18.95v-10.45l-3.075 10.45h-.614l-3.072-10.45v10.45H8.5V35h3.688l3.38 18.44L18.948 35zM36.772 64.502h3.688L36.772 35H32.47l-3.688 29.502h3.688l.446-4.165c.01-.078.075-.138.153-.138h3.103c.08 0 .145.06.153.137l.446 4.165zm-3.275-7.99c-.09 0-.162-.08-.153-.17l.97-9.05h.615l.968 9.05c.01.09-.06.17-.153.17h-2.248zM108.683 64.502h3.687L108.683 35h-4.303l-3.687 29.502h3.687l.447-4.165c.008-.078.074-.138.152-.138h3.104c.078 0 .144.06.152.137l.447 4.165zm-3.276-7.99c-.09 0-.162-.08-.152-.17l.97-9.05h.614l.968 9.05c.01.09-.06.17-.152.17h-2.25zM46.606 35v29.502h3.688V52.978c0-.085.07-.154.154-.154h1.536c.085 0 .154.07.154.154v11.524h3.688v-11.1c0-1.087-.478-2.06-1.232-2.73.754-.668 1.232-1.64 1.232-2.728V37.458c0-1.357-1.1-2.458-2.46-2.458h-6.76zm3.842 3.688h1.536c.085 0 .154.07.154.153v10.143c0 .084-.07.153-.154.153h-1.536c-.085 0-.154-.07-.154-.153V38.84c0-.083.07-.152.154-.152zM135.726 35v29.502h3.688V52.978c0-.085.068-.154.153-.154h1.537c.085 0 .153.07.153.154v11.524h3.688v-11.1c0-1.087-.478-2.06-1.23-2.73.752-.668 1.23-1.64 1.23-2.728V37.458c0-1.357-1.1-2.458-2.458-2.458h-6.76zm3.84 3.688h1.538c.085 0 .153.07.153.153v10.143c0 .084-.068.153-.153.153h-1.537c-.085 0-.153-.07-.153-.153V38.84c0-.083.068-.152.153-.152zM63.816 37.458v24.585c0 1.358 1.1 2.46 2.458 2.46h4.302c1.358 0 2.46-1.102 2.46-2.46v-9.22h-3.69v7.837c0 .085-.068.154-.152.154h-1.537c-.085 0-.154-.07-.154-.154V38.84c0-.083.07-.152.154-.152h1.537c.084 0 .153.07.153.153v3.535h3.688v-4.917c0-1.357-1.1-2.458-2.46-2.458h-4.3c-1.36 0-2.46 1.1-2.46 2.458zM119.13 35v27.043c0 1.358 1.102 2.46 2.46 2.46h4.302c1.358 0 2.458-1.102 2.458-2.46V35h-3.687v25.66c0 .085-.07.154-.154.154h-1.537c-.085 0-.154-.07-.154-.154V35h-3.69zM95.776 64.502v-3.688h-3.073V35h-3.688v29.502h6.76zM181.666 35v3.688h3.073v25.814h3.687V38.688h3.073V35h-9.834zM151.706 35v29.502h6.76v-3.688h-3.072v-9.22h3.073v-3.687h-3.073v-9.22h3.073V35h-6.76zM171.832 35v12.907L168.76 35h-3.074v29.502h3.688V51.595l3.687 12.907h2.46V35h-3.688z"/></g></svg>