<svg width="200" height="100" viewBox="0 0 200 100" xmlns="http://www.w3.org/2000/svg"><title>mayhew</title>,<g transform="translate(30 29)" fill="#000" fill-rule="evenodd"><path d="M-.458 12.85h3.876v1.55c.747-.78 1.383-1.308 1.912-1.584.562-.287 1.268-.43 2.12-.43 1.894 0 3.393.825 4.495 2.48 1.217-1.655 2.864-2.48 4.943-2.48 3.778 0 5.667 2.29 5.667 6.872v10.37h-3.892v-9.32c0-1.607-.196-2.744-.586-3.41-.402-.678-1.062-1.016-1.98-1.016-1.07 0-1.847.402-2.335 1.205-.487.805-.732 2.096-.732 3.876v8.665H9.137V20.36c0-2.986-.86-4.478-2.583-4.478-1.092 0-1.887.407-2.386 1.223-.5.815-.75 2.1-.75 3.858v8.665H-.458V12.85zM37.532 12.85h3.892v16.778h-3.892V27.87c-1.596 1.493-3.313 2.24-5.15 2.24-2.32 0-4.237-.838-5.754-2.515-1.504-1.71-2.256-3.847-2.256-6.408 0-2.515.752-4.61 2.256-6.287 1.505-1.676 3.388-2.515 5.65-2.515 1.953 0 3.704.804 5.254 2.412V12.85zm-9.2 8.337c0 1.608.433 2.917 1.295 3.928.883 1.022 1.998 1.532 3.34 1.532 1.436 0 2.595-.493 3.48-1.48.884-1.023 1.327-2.32 1.327-3.894 0-1.573-.443-2.87-1.326-3.892-.886-1-2.034-1.498-3.446-1.498-1.332 0-2.446.505-3.342 1.516-.884 1.022-1.327 2.285-1.327 3.79zM61.662.534h3.874v13.712c1.38-1.24 2.9-1.86 4.565-1.86 1.897 0 3.412.614 4.55 1.842.963 1.068 1.446 2.773 1.446 5.116v10.284H72.22v-9.922c0-1.344-.238-2.317-.714-2.92-.477-.602-1.244-.904-2.3-.904-1.355 0-2.308.42-2.86 1.257-.54.85-.81 2.307-.81 4.374v8.114h-3.874V.534zM58.522 41.79h-3.875V28.08c-1.38 1.24-2.9 1.86-4.565 1.86-1.895 0-3.41-.614-4.547-1.843-.965-1.068-1.448-2.773-1.448-5.116V12.7h3.876v9.922c0 1.343.24 2.317.715 2.92.476.602 1.242.904 2.3.904 1.354 0 2.308-.42 2.86-1.258.538-.85.81-2.308.81-4.375V12.7h3.874V41.79zM94.08 24.597c-.857 2.422-1.825 3.482-3.26 4.368-.645.396-1.338.685-2.085.87-.748.183-1.556.274-2.43.274-2.502 0-4.513-.804-6.027-2.41-1.517-1.62-2.275-3.768-2.275-6.444 0-2.652.735-4.8 2.205-6.442 1.482-1.62 3.445-2.43 5.892-2.43 2.468 0 4.42.788 5.856 2.36 1.424 1.563 2.136 3.728 2.136 6.495l-.017.912H82.05c.105 1.378.552 2.474 1.345 3.29.793.804 1.808 1.205 3.05 1.205.964 0 1.76-.23 2.393-.688.396-.295.827-.748 1.294-1.36l3.95-.003zm-3.985-5.615c-.54-2.067-1.842-3.1-3.91-3.1-.47 0-.912.072-1.326.215-.414.144-.79.35-1.13.62-.337.27-.628.595-.87.973-.24.38-.425.81-.55 1.292h7.785zM106.995 27.416c-1.217 1.654-2.864 2.48-4.943 2.48-3.778 0-5.667-2.29-5.667-6.872v-10.37h3.893v9.32c0 1.607.195 2.743.584 3.41.403.677 1.063.976 1.98 1.015 1.37.058 2.078-.516 2.482-1.365.54-1.14.66-1.937.66-3.717v-8.664h3.467v8.664c0 1.78 0 3.112.487 3.916.488.803 1.08 1.165 2.15 1.165.917 0 1.577-.34 1.98-1.017.39-.666.584-1.802.584-3.41v-9.32h3.894v10.37c0 4.583-2.395 6.874-6.172 6.874-2.078 0-4.16-.827-5.375-2.48h-.002z"/><circle cx="125.279" cy="4.279" r="4.279"/><circle cx="135.279" cy="4.279" r="4.279"/><circle cx="125.279" cy="14.279" r="4.279"/><circle cx="135.279" cy="14.279" r="4.279"/></g></svg>