<svg width="200" height="100" viewBox="0 0 200 100" xmlns="http://www.w3.org/2000/svg"><title>metronauts</title>,<g fill="#000" fill-rule="evenodd"><path d="M29.44 60.435l-2.794-9.142h-.073l-4.4 9.513H22.1l-4.398-9.513h-.074l-2.842 9.142H12.02l4.99-16.752h.075L22.1 54.48h.074l4.99-10.797h.076l4.966 16.752H29.44zM36.752 60.435V44.053H47.23v2.67h-7.66v4.076h6.35v2.667h-6.35v4.3h7.66v2.668H36.75zM59.51 46.722v13.713h-2.82V46.722h-5.187v-2.67h13.195v2.67h-5.19zM137.39 60.435l-1.385-2.866h-7.24l-1.383 2.865h-3.087l8.053-16.752h.074l8.056 16.752h-3.088zm-4.968-10.427h-.074l-2.37 4.917.048.074h4.695l.05-.075-2.348-4.917zM156.922 56.828c-.338.79-.795 1.473-1.372 2.05-.577.578-1.252 1.034-2.026 1.372-.775.337-1.605.506-2.496.506-.89 0-1.73-.17-2.52-.506-.79-.338-1.475-.794-2.05-1.372-.577-.577-1.034-1.26-1.37-2.05-.34-.79-.508-1.63-.508-2.52V44.052h2.816v10.303c0 .51.094.997.284 1.46.19.46.454.855.79 1.184.34.33.725.593 1.163.79.436.2.9.298 1.395.298s.956-.1 1.383-.297c.43-.197.808-.46 1.138-.79.33-.33.59-.725.78-1.185.19-.462.284-.948.284-1.46V44.054h2.816v10.254c0 .89-.17 1.73-.506 2.52zM169.61 46.722v13.713h-2.817V46.722h-5.19v-2.67h13.195v2.67h-5.19zM188.98 55.913c0 .66-.127 1.285-.38 1.878-.258.595-.607 1.11-1.05 1.546-.447.436-.962.782-1.546 1.037-.585.255-1.208.383-1.866.383-.89 0-1.705-.19-2.445-.568-.742-.38-1.385-.8-1.93-1.26-.64-.543-1.208-1.154-1.703-1.83l2.322-1.432c.314.43.667.807 1.062 1.137.33.28.717.543 1.162.79.446.248.93.37 1.458.37.577 0 1.066-.2 1.47-.605.404-.403.605-.893.605-1.47 0-.36-.087-.687-.26-.976-.173-.287-.4-.523-.68-.704l-3.83-2.2c-.642-.377-1.165-.913-1.568-1.605-.404-.692-.607-1.45-.607-2.272 0-.625.116-1.21.347-1.755.23-.543.552-1.02.964-1.433.41-.412.89-.732 1.433-.963.543-.23 1.126-.347 1.752-.347.858 0 1.64.218 2.348.655.708.437 1.25 1.008 1.632 1.717l-2.495 1.36c-.133-.264-.322-.48-.57-.643-.246-.165-.534-.248-.864-.248-.478 0-.88.16-1.21.482-.33.32-.496.72-.496 1.2 0 .312.08.596.236.85.155.256.35.45.58.582l3.978 2.323c.694.396 1.225.952 1.595 1.668.37.716.556 1.495.556 2.335zM78.793 53.27c.52-.906.78-1.903.78-2.99 0-.857-.166-1.664-.495-2.42-.33-.76-.78-1.418-1.347-1.98-.567-.56-1.234-1.003-2-1.333-.766-.33-1.578-.494-2.434-.494h-4.2v16.382h2.816v-3.93h1.952l4.3 4.3 1.95-1.976-3.36-3.362c.84-.56 1.52-1.293 2.04-2.198zm-2.334-1.62c-.183.438-.426.816-.73 1.137-.305.322-.667.578-1.088.767-.42.19-.868.283-1.346.283h-1.384v-7.115h1.384c.478 0 .926.095 1.346.283.42.19.783.445 1.088.767.304.32.547.696.73 1.124.18.428.27.882.27 1.36 0 .493-.09.958-.27 1.395zm40.693-7.597v10.08h-.074l-10.576-10.45h-.074v16.752h2.816V50.378h.074l10.576 10.428h.074V44.053h-2.817zM105.148 39.774c-.772-.773-2.025-.772-2.796 0-.616.615-.73 1.533-.365 2.273l-3.64 3.64c-.66-.567-1.407-1.033-2.245-1.387-1.054-.445-2.175-.667-3.36-.667-1.187 0-2.302.222-3.35.667-.86.366-1.624.854-2.3 1.45l-3.704-3.703c.37-.74.25-1.658-.364-2.274-.772-.77-2.024-.772-2.796 0-.772.772-.772 2.025 0 2.796.615.615 1.533.73 2.273.364l3.71 3.71c-.563.662-1.028 1.403-1.387 2.227-.454 1.04-.68 2.15-.68 3.337 0 1.186.226 2.298.68 3.336.452 1.038 1.066 1.943 1.84 2.717.774.775 1.684 1.384 2.73 1.83 1.047.444 2.162.666 3.348.666 1.187 0 2.308-.222 3.362-.667 1.054-.446 1.968-1.055 2.743-1.83.774-.774 1.388-1.68 1.84-2.717.453-1.038.68-2.15.68-3.336s-.227-2.298-.68-3.336c-.372-.853-.86-1.615-1.45-2.296l3.64-3.64c.74.368 1.658.25 2.273-.364.772-.772.772-2.024 0-2.796zm-7.082 14.72c-.304.716-.716 1.337-1.235 1.864-.518.528-1.132.947-1.84 1.26-.708.313-1.467.47-2.273.47-.79 0-1.532-.157-2.224-.47-.692-.313-1.297-.732-1.816-1.26-.52-.527-.93-1.148-1.236-1.865-.303-.717-.456-1.47-.456-2.262 0-.82.153-1.592.457-2.31.306-.714.718-1.34 1.237-1.877.52-.535 1.124-.96 1.816-1.272.692-.31 1.433-.468 2.224-.468.806 0 1.565.157 2.273.47.708.312 1.322.736 1.84 1.27.52.537.932 1.164 1.236 1.88.305.716.458 1.487.458 2.31 0 .79-.153 1.544-.458 2.26z"/></g></svg>