<svg width="200" height="100" viewBox="0 0 200 100" xmlns="http://www.w3.org/2000/svg"><title>microsoft</title>,<g fill="#000" fill-rule="evenodd"><path d="M20 33h16.355v16.355H20V33zM38.025 33H54.38c0 5.452.002 10.904 0 16.355H38.026c-.002-5.45 0-10.903 0-16.355zM167.488 39.232c1.508-.982 3.456-1.073 5.156-.605.014 1.01 0 2.02.006 3.03-.807-.355-1.757-.586-2.607-.238-.674.267-1.074.958-1.18 1.65-.126.877-.044 1.766-.065 2.648 1.725.004 3.45 0 5.175.002.012-1.12-.014-2.24.014-3.36 1.173-.335 2.333-.71 3.5-1.06.01 1.475-.013 2.95.013 4.428 1.166-.017 2.333-.004 3.5-.008v2.872c-1.17-.048-2.343-.013-3.514-.017.005 1.652 0 3.303.002 4.955.02.915-.05 1.834.058 2.746.065.537.26 1.132.764 1.41.844.473 1.915.267 2.69-.252v2.9c-1.01.44-2.14.573-3.234.496-1.037-.077-2.112-.454-2.79-1.28-.78-.93-.982-2.194-.998-3.374-.008-2.535 0-5.07-.003-7.604-1.726 0-3.452-.002-5.177 0-.002 3.978 0 7.955 0 11.933h-3.538c0-3.977-.005-7.952 0-11.93-.82-.014-1.64.005-2.46-.01.003-.945.007-1.89-.002-2.835.816-.02 1.633-.01 2.452-.005.06-1.256-.132-2.547.243-3.77.318-1.104 1.023-2.1 1.995-2.723zM91.755 39.438c.713-.108 1.485.136 1.957.694.554.61.656 1.583.246 2.297-.454.805-1.47 1.18-2.355.985-.918-.165-1.683-1.018-1.642-1.97-.026-1.002.812-1.895 1.795-2.007zM64.646 39.876h5.144c1.6 4.066 3.214 8.128 4.817 12.194.41 1.016.793 2.045 1.222 3.054 2.06-5.08 4.15-10.15 6.193-15.236 1.65-.027 3.3-.006 4.95-.01-.004 6.875-.002 13.75 0 20.626-1.192-.003-2.38.01-3.57-.007.012-5.074-.002-10.148.005-15.222.002-.228-.006-.456-.022-.684-.07.107-.13.217-.185.33-2.044 5.195-4.127 10.373-6.16 15.572-.846.03-1.694.002-2.542.016-2.11-5.194-4.19-10.4-6.29-15.597-.054-.107-.113-.212-.177-.313-.042 2.223-.006 4.448-.018 6.67 0 3.08-.002 6.158 0 9.237-1.122.003-2.244 0-3.366 0 0-6.876-.002-13.752 0-20.628zM101.49 45.706c1.706-.486 3.547-.466 5.254.016.35.098.692.235 1.008.42-.02 1.127 0 2.255-.01 3.382-1.14-.87-2.588-1.423-4.038-1.24-1.15.104-2.25.7-2.938 1.63-.885 1.155-1.09 2.686-.937 4.097.113 1.105.57 2.208 1.428 2.94.892.792 2.143 1.073 3.31.985 1.153-.133 2.24-.62 3.174-1.303.01 1.068-.005 2.136.007 3.204-1.447.86-3.18 1.082-4.835 1-1.694-.09-3.383-.73-4.608-1.92-1.332-1.285-2.055-3.116-2.14-4.95-.087-1.906.3-3.895 1.398-5.488.92-1.358 2.357-2.32 3.924-2.772zM140.128 45.48c1.636-.287 3.348-.075 4.896.51.002 1.085 0 2.17 0 3.252-1.08-.743-2.402-1.143-3.714-1.097-.66.026-1.388.306-1.69.934-.24.62-.073 1.436.513 1.81 1.003.67 2.2.955 3.24 1.556.817.46 1.61 1.06 2.025 1.927.78 1.623.45 3.767-.92 4.977-1.308 1.222-3.19 1.56-4.922 1.495-1.23-.08-2.466-.322-3.597-.825.004-1.14-.008-2.28.005-3.42.95.69 2.048 1.186 3.21 1.386.808.132 1.687.137 2.44-.224.72-.36.85-1.383.423-2.01-.4-.483-.99-.75-1.544-1.01-1.043-.47-2.138-.86-3.053-1.563-.643-.503-1.13-1.21-1.32-2.008-.283-1.176-.195-2.5.49-3.53.78-1.196 2.136-1.914 3.518-2.16zM115.662 45.947c.976-.587 2.217-.636 3.283-.277-.005 1.18 0 2.36-.003 3.54-.698-.453-1.568-.646-2.39-.563-1.005.114-1.8.885-2.213 1.77-.45.935-.534 1.994-.505 3.018v7.07h-3.487c-.003-4.926.004-9.852-.003-14.777 1.164-.015 2.328-.01 3.492-.003-.005.846 0 1.69-.003 2.538.378-.92.94-1.814 1.828-2.316zM90.282 45.725c1.173-.005 2.347-.017 3.52.006-.014 4.925 0 9.85-.006 14.775h-3.512c-.003-4.927 0-9.853-.002-14.78zM133.608 49.172c-.614-1.366-1.722-2.506-3.09-3.123-1.575-.718-3.366-.814-5.063-.598-1.783.225-3.52 1.064-4.65 2.485-1.034 1.27-1.537 2.9-1.633 4.518-.143 1.906.176 3.93 1.295 5.52.954 1.374 2.46 2.318 4.087 2.666 1.36.287 2.782.288 4.14.005 1.592-.327 3.077-1.207 4.062-2.506.963-1.224 1.446-2.766 1.555-4.305.112-1.577-.047-3.21-.702-4.663zm-3.417 6.785c-.337.76-.956 1.403-1.737 1.708-.913.35-1.94.37-2.883.126-.96-.25-1.774-.944-2.217-1.828-.57-1.137-.655-2.452-.537-3.7.107-1.134.502-2.302 1.366-3.084.627-.586 1.482-.872 2.327-.92 1.062-.07 2.194.232 2.958 1.005.818.804 1.134 1.97 1.22 3.082.064 1.217.014 2.485-.497 3.612zM161.936 49.6c-.544-1.47-1.633-2.738-3.038-3.44-1.61-.813-3.485-.932-5.25-.713-1.424.182-2.822.723-3.91 1.677-1.325 1.142-2.103 2.822-2.332 4.54-.218 1.718-.144 3.527.556 5.135.672 1.577 1.998 2.858 3.593 3.486 1.575.62 3.325.69 4.983.42 1.694-.28 3.3-1.17 4.348-2.54 1.12-1.418 1.603-3.25 1.6-5.037.025-1.196-.124-2.408-.55-3.53zm-3.19 5.01c-.136.78-.405 1.555-.915 2.17-.512.62-1.277.997-2.065 1.113-.847.126-1.74.065-2.53-.275-.855-.362-1.518-1.102-1.866-1.952-.42-1.014-.504-2.137-.42-3.22.08-1.05.377-2.13 1.07-2.945.634-.76 1.604-1.183 2.582-1.238 1-.07 2.066.16 2.834.836.71.587 1.1 1.468 1.28 2.354.203 1.04.2 2.115.03 3.16zM20 51.024c5.452.002 10.904 0 16.355.002V67.38H20V51.025zM38.026 51.026c5.45-.002 10.903 0 16.355 0V67.38H38.026V51.027z"/></g></svg>