<svg width="200" height="100" viewBox="0 0 200 100" xmlns="http://www.w3.org/2000/svg"><title>moov</title>,<path d="M172.412 33.46c-.086-.093-.19-.21-.315-.35-1.186-1.334-3.655-4.11-6.284-4.11-.608 0-1.19.153-1.724.453-13.086 7.35-19.48 13.9-27.577 22.19-.492.505-.99 1.015-1.5 1.534.346-1.527.714-3.008 1.072-4.454 1.46-5.885 2.613-10.533.83-12.814-.736-.94-1.885-1.4-3.513-1.4-.08 0-.163.003-.248.005-3.37.103-4.69.738-6.087 1.41-.74.356-1.504.724-2.643 1.053-.12-2.365-.785-3.476-1.995-4.712-1.245-1.267-2.23-1.964-3.872-2.02-6.438-.22-9.62 4.69-10.175 5.647-.737.316-4.193 1.724-7.296 1.724-.278 0-.547-.012-.805-.034.004-1.215-.346-2.23-1.044-3.027-1.517-1.73-4.318-2.083-6.89-2.243 0-.004.002-.007.003-.01.067-.24.15-.538-.042-.79-.107-.14-.275-.222-.46-.222l-.092.008c-6.075.81-10.894 14.1-10.716 20.342-.718 3.852-1.075 5.108-2.708 7.186l-5.084-19.482-.03-.084c-.894-1.895-3.085-5.477-4.986-5.477-.118 0-.235.013-.348.04-4.66 1.11-7.868 8.63-9.3 12.768-.39-3.188-1.65-6.782-3.82-9.083-1.297-1.374-2.8-2.1-4.35-2.1-1.175 0-2.38.41-3.584 1.214-.427.285-1.697 1.683-2.014 2.043-1.43 1.623-2.166 3.237-2.944 4.945-.336.738-.684 1.5-1.108 2.318-1.06 2.047-1.93 3.917-2.63 5.663-.26-2.96-.636-5.768-1.157-8.69-.1-.56-.632-3.403-1.34-4.558-.725-1.186-1.607-1.787-2.62-1.787-1.9 0-3.7 2.073-5.36 4.312l-.157.21.09.244c.51 1.405 12.51 34.413 14.57 37.145.335.443.704.85 1.143.85.943 0 .973-1.136 1.072-4.904.073-2.793.184-7.015.754-12.493 1.114-10.73 5.028-13.657 6.285-14.33 3.78 9.272 5.13 12.017 5.186 12.13l.055.11.1.07c.835.595 1.635.897 2.377.897 2.348 0 3.47-2.87 4.21-4.768l.157-.4 3.36-11.018c.822 2.193 1.545 4.41 2.25 6.563 1.903 5.834 3.703 11.345 7.013 14.945l.176.19.256-.04c.216-.034 4.96-.89 6.547-8.672 1.757 4.32 3.52 5.847 6.7 6.076.09.005.18.01.273.01 2.54 0 5.058-2.564 7.48-7.62 1.878-3.92 2.79-10.037 3.017-14.284.324-.004.708.02 1.113.046.454.028.97.06 1.513.06.734 0 1.39-.058 2.012-.18-.483 4.08-2.084 20.712 3.697 21.613.548.085 1.092.13 1.614.13 6.66 0 11.095-6.68 14.81-22.32 2.292-.665 3.223-.817 3.977-.94.778-.128 1.325-.218 2.845-.782-.327 3.024-1.48 6.8-2.596 10.46-.73 2.39-1.42 4.65-1.868 6.648-.023.103-2.22 10.226.017 11.446.263.154.508.23.747.23.708 0 1.204-.59 2.19-1.767.746-.888 1.766-2.103 3.384-3.727l.072-.09c.05-.084 5.384-8.55 27.498-21.53 1.205-.706 2.895-1.46 4.53-2.19 3.98-1.777 6.414-2.952 6.663-4.29.054-.29.03-.72-.38-1.134zm-78.246 3.283c.214.132.337.238.337.238-.115-.088-.226-.162-.337-.237-1.098-.677-4.59-1.825-6.807 6.664 0 0 1.884-10.184 6.806-6.664zm-1.71.14c1.198 0 2.325.778 2.98 1.338-3.274 1.03-6.017 3.416-7.52 4.94 1.02-4.116 2.574-6.277 4.54-6.277zm-3.988 21.652c-.097-3.03.066-14.537 7.95-16.25.123 7.834-3.765 13.927-7.95 16.25zM109.71 46.17c.134-1.404.388-4.483.466-5.436 1.124-.503 5.467-2.48 8.04-4.1 1.564 8.753-1.846 17.742-7.525 19.795-.952-2.215-1.287-7.034-.98-10.26zm11.107 6.127c-4.43 11.6-11.17 9.867-11.17 9.867 6.558.33 10.19-7.422 11.17-9.867.092-.24.184-.477.274-.73 0 0-.09.274-.273.73z" fill="#000" fill-rule="evenodd"/></svg>