<svg width="200" height="100" viewBox="0 0 200 100" xmlns="http://www.w3.org/2000/svg"><title>neptis</title>,<g fill="#000" fill-rule="evenodd"><path d="M39.42 40.064c0-1.016.822-1.886 1.838-1.886 1.064 0 1.886.822 1.886 1.886v2.707c1.643-2.706 4.255-4.882 8.558-4.882 6.044 0 9.573 4.06 9.573 10.01v13.876c0 1.064-.82 1.885-1.837 1.885-1.064 0-1.886-.822-1.886-1.886v-12.96c0-4.64-2.514-7.54-6.914-7.54-4.303 0-7.494 3.14-7.494 7.832v12.668c0 1.064-.774 1.885-1.838 1.885s-1.886-.822-1.886-1.886v-21.71zM76.504 63.998c-6.865 0-12.474-5.27-12.474-13.007v-.096c0-7.204 5.077-13.006 11.99-13.006 7.4 0 11.606 6.044 11.606 12.668 0 1.015-.823 1.74-1.74 1.74H67.8c.53 5.416 4.35 8.462 8.8 8.462 3.094 0 5.366-1.21 7.204-2.9.29-.242.628-.436 1.063-.436.918 0 1.643.725 1.643 1.596 0 .435-.193.87-.58 1.21-2.37 2.27-5.173 3.77-9.43 3.77zm7.4-14.457c-.388-4.544-3-8.51-7.98-8.51-4.35 0-7.64 3.627-8.122 8.51h16.1zM90.572 40.064c0-1.064.822-1.886 1.837-1.886 1.063 0 1.885.822 1.885 1.886v3.384c2.03-2.997 4.98-5.56 9.574-5.56 5.995 0 11.942 4.74 11.942 12.958v.096c0 8.172-5.9 13.008-11.943 13.008-4.643 0-7.64-2.515-9.575-5.32v10.88c0 1.064-.773 1.886-1.838 1.886-1.063 0-1.885-.822-1.885-1.886V40.064zm21.42 10.927v-.096c0-5.898-4.062-9.67-8.8-9.67-4.642 0-9.042 3.917-9.042 9.622v.096c0 5.803 4.4 9.67 9.042 9.67 4.835 0 8.8-3.577 8.8-9.62zM119.725 56.794V41.708h-2.03c-.87 0-1.644-.774-1.644-1.644 0-.92.774-1.644 1.645-1.644h2.03v-5.9c0-1.014.774-1.885 1.838-1.885 1.015 0 1.885.87 1.885 1.886v5.9h6.48c.918 0 1.692.773 1.692 1.644 0 .918-.774 1.644-1.693 1.644h-6.48V56.31c0 3.046 1.693 4.158 4.208 4.158 1.305 0 1.983-.338 2.272-.338.87 0 1.596.725 1.596 1.595 0 .677-.435 1.21-1.064 1.45-1.065.436-2.225.677-3.676.677-4.013 0-7.06-1.982-7.06-7.058zM134.326 30.587c0-1.21.967-1.983 2.175-1.983 1.26 0 2.226.774 2.226 1.983v.628c0 1.16-.967 1.983-2.225 1.983-1.207 0-2.174-.822-2.174-1.983v-.628zm.34 9.477c0-1.016.82-1.886 1.835-1.886 1.066 0 1.888.822 1.888 1.886v21.71c0 1.064-.774 1.885-1.838 1.885s-1.885-.822-1.885-1.886v-21.71zM142.06 60.758c-.337-.242-.676-.725-.676-1.353 0-.87.725-1.596 1.644-1.596.338 0 .677.096.918.29 2.563 1.74 5.223 2.658 7.93 2.658 2.998 0 5.174-1.547 5.174-3.964v-.097c0-2.514-2.95-3.482-6.237-4.4-3.917-1.113-8.27-2.466-8.27-7.06v-.096c0-4.302 3.58-7.156 8.51-7.156 2.66 0 5.562.822 7.98 2.128.482.29.918.822.918 1.547 0 .87-.724 1.595-1.643 1.595-.338 0-.63-.097-.822-.193-2.127-1.21-4.4-1.935-6.528-1.935-2.95 0-4.835 1.548-4.835 3.627v.097c0 2.37 3.095 3.29 6.43 4.304 3.87 1.16 8.028 2.66 8.028 7.156v.097c0 4.738-3.917 7.494-8.897 7.494-3.288 0-6.914-1.207-9.622-3.142z"/></g></svg>