<svg width="200" height="100" viewBox="0 0 200 100" xmlns="http://www.w3.org/2000/svg"><title>nordicity</title>,<g fill="#000" fill-rule="evenodd"><path d="M59.464 44.827v-.006c-.01 0-.022 0-.033-.002.01.004.025.01.034.012 0 0-.002-.002 0-.003zM42.883 21.96c.038.35.082.723.13 1.117.346 2.8.954 7.83 2 12.197-3.893-2.62-8.14-5.65-12.17-8.876.068.348.142.72.226 1.115.626 2.93 1.75 6.984 3.725 11.48.734 1.67 1.59 3.397 2.574 5.146-4.303.17-14.683.212-22.354-1.044.274.22.57.452.88.696 2.226 1.737 6.21 4.863 10.04 7.212-4.607.9-9.75 1.76-14.88 2.328.292.2.61.41.947.628 2.515 1.63 6.176 3.7 10.752 5.484 7.376 2.87 17.053 4.96 28.138 3.243-3.59-.38-14.608-2-24.722-8.183 0 0 1.615-.392 3.93-1.157 6.486 3.392 15.35 7.002 22.297 7.836-2.268-2.807-8.914-11.745-11.693-23.268 0 0 1.418.864 3.595 1.96 2.187 6.986 5.903 15.806 10.226 21.308-1.036-2.228-2.87-9.9-4.38-18.735 2.306 1.27 4.89 2.296 7.285 2.37-.74-.254-3.653-1.863-7.752-5.214-.218-1.386-.43-2.788-.624-4.19 0 0 4.043 3.59 8.41 4.392-.31-.033-10.772-9.76-16.58-17.846zM32.307 46.83s4.035-.243 7.492-1.938c.674 1.16 1.412 2.326 2.212 3.492-1.548.34-3.664.704-6.3.97-1.135-.828-2.274-1.67-3.405-2.524zm22.09 14.353c-2.308-.844-9.028-4.972-16.343-10.15 1.566-.456 3.142-1.052 4.53-1.83 2.995 4.2 6.846 8.345 11.813 11.98zM80.94 48.872c0 3.373.067 6.223.36 9.138l-.064.033c-1.016-2.39-2.326-4.946-3.767-7.403l-5.7-9.466h-4.62V63.25h3.735v-7.893c0-3.636-.065-6.55-.23-9.4l.132-.033c1.08 2.49 2.522 5.175 3.93 7.6l5.765 9.727h4.193V41.175H80.94v7.698zM95.09 46.94c-4.816 0-8.255 3.21-8.255 8.45 0 5.143 3.505 8.222 7.992 8.222h.033c4.028 0 8.156-2.62 8.156-8.484 0-4.848-3.177-8.19-7.927-8.19zm-.132 13.756h-.033c-2.39 0-3.93-2.325-3.93-5.404 0-2.654 1.146-5.438 3.996-5.438 2.752 0 3.866 2.883 3.866 5.372 0 3.243-1.605 5.47-3.898 5.47zM108.78 50.313h-.1l-.163-3.014h-3.472c.098 1.408.13 2.98.13 5.142v10.81h4.03v-8.288c0-.426.032-.85.098-1.212.36-1.834 1.703-3.046 3.603-3.046.49 0 .852.033 1.212.098v-3.767c-.328-.065-.557-.098-.95-.098-1.736 0-3.603 1.145-4.39 3.373zM130.396 39.962h-4.03v9.04h-.064c-.72-1.178-2.293-2.063-4.488-2.063-3.832 0-7.173 3.177-7.14 8.515 0 4.914 3.013 8.157 6.845 8.157 2.292 0 4.225-1.114 5.175-2.883h.065l.197 2.52h3.57c-.065-1.08-.13-2.848-.13-4.486V39.962zm-4.03 16.378c0 .426-.03.82-.13 1.18-.393 1.735-1.834 2.85-3.472 2.85-2.555 0-3.996-2.13-3.996-5.078 0-2.948 1.44-5.24 4.03-5.24 1.833 0 3.11 1.276 3.47 2.816.067.327.1.753.1 1.08v2.392zM135.275 40.65c-1.343 0-2.26.95-2.26 2.195 0 1.18.884 2.16 2.227 2.16h.033c1.376 0 2.26-.98 2.26-2.16-.032-1.245-.884-2.195-2.26-2.195zM133.5 47.5h4.03v15.952h-4.03zM148.475 50.084c1.44 0 2.39.294 3.046.622l.722-3.046c-.917-.393-2.424-.72-3.898-.72-5.6 0-8.877 3.7-8.877 8.483 0 4.946 3.243 8.156 8.222 8.156 1.997 0 3.667-.427 4.52-.82l-.558-2.98c-.786.327-1.802.622-3.177.622-2.752 0-4.88-1.868-4.88-5.143-.033-2.916 1.8-5.176 4.88-5.176zM156.236 40.65c-1.343 0-2.26.95-2.26 2.195 0 1.18.885 2.16 2.228 2.16h.032c1.376 0 2.26-.98 2.26-2.16-.032-1.245-.884-2.195-2.26-2.195zM154.5 47.5h4.03v15.952h-4.03zM166.062 43.205L162.1 44.32v2.98h-2.26v3.013h2.26v7.468c0 2.097.392 3.57 1.276 4.488.754.82 1.966 1.31 3.472 1.31 1.245 0 2.326-.196 2.916-.425l-.066-3.046c-.458.13-.852.163-1.572.163-1.54 0-2.064-.982-2.064-2.947v-7.01h3.833V47.3h-3.833v-4.095zM182.21 47.3l-2.49 8.516c-.328 1.015-.622 2.227-.852 3.11h-.098c-.23-.883-.59-2.095-.917-3.078l-2.85-8.55h-4.454l5.862 14.643c.163.394.196.623.196.787 0 .196-.098.426-.23.72-.556 1.082-1.473 2.032-2.227 2.523-.817.59-1.636.95-2.324 1.113l.917 3.374c.983-.13 2.62-.655 4.226-2.03 1.866-1.638 3.34-4.292 5.534-10.253L186.5 47.3h-4.29z"/></g></svg>