<svg width="200" height="100" viewBox="0 0 200 100" xmlns="http://www.w3.org/2000/svg"><title>pbi</title>,<g fill="#000" fill-rule="evenodd"><path d="M110.78 40.23s-7.565-.126-7.565 10.59c0 10.715 7.438 9.96 7.438 9.96s8.068.25 8.068-9.96c0-10.212-5.798-10.59-7.94-10.59z"/><path d="M100 6.57C76.014 6.57 56.57 26.013 56.57 50S76.013 93.43 100 93.43 143.43 73.987 143.43 50 123.987 6.57 100 6.57zM83.674 64.56c-5.043 0-7.816-3.655-7.816-3.655v16.767h-4.79v-40.72h4.664v3.656s2.773-4.413 8.7-4.413c5.924 0 12.227 3.404 12.227 14.12S88.716 64.56 83.673 64.56zm27.23.127c-5.42 0-8.067-4.16-8.067-4.16v3.404h-4.54V21.7h5.044v18.658s1.892-4.16 8.447-4.16c6.556 0 12.103 4.412 12.103 14.37 0 9.96-7.564 14.12-12.985 14.12zm17.588-38.577c1.775 0 3.215 1.44 3.215 3.215s-1.44 3.215-3.215 3.215c-1.776 0-3.215-1.44-3.215-3.215 0-1.776 1.44-3.215 3.215-3.215zm2.458 37.57h-5.17V36.7h5.17v26.98z"/><path d="M83.674 40.104s-7.942 0-7.942 10.842c0 8.698 7.69 9.362 7.69 9.362s8.068.22 8.068-9.867c0-10.084-5.925-10.336-7.816-10.336z"/></g></svg>