
<svg xmlns="http://www.w3.org/2000/svg" viewBox="0 0 200 100"><path d="M118.648 50.884c1.206-1.945 2.797-4.46 3.9-6.307 1.253 0 2.517.016 3.45.016v14.81h-3.16v-9.642c-.072-.02.07.02 0 0-1.317 1.995-2.843 4.3-4.232 6.407-1.352-2.05-2.84-4.31-4.14-6.28-.064.008.063-.01 0 0 0 3.053-.004 6.422-.004 9.525h-3.136V44.608c1.04 0 2.22-.03 3.385-.03 1.168 1.838 2.698 4.31 3.938 6.306zM75.29 59.704c-4.494.007-7.883-3.243-7.91-7.587-.026-4.353 3.415-7.745 7.868-7.755 4.485-.01 7.88 3.254 7.904 7.6.026 4.375-3.385 7.734-7.86 7.742zm-.045-12.32c-2.54.006-4.44 1.972-4.454 4.603-.012 2.645 1.93 4.697 4.463 4.714 2.562.018 4.502-1.985 4.502-4.65 0-2.62-1.98-4.67-4.51-4.665zM143.275 44.74c2.492 0 4.923-.223 7.295.053 3.78.44 6.296 3.55 6.266 7.294-.03 3.763-2.65 6.844-6.457 7.226-2.324.234-4.69.043-7.105.043V44.74zm3.226 11.75c1.03 0 1.965.035 2.895-.008 2.23-.102 3.77-1.64 4.018-3.964.243-2.29-1.035-4.325-3.18-4.766-1.194-.246-2.453-.18-3.732-.256v8.994zM129.347 44.654h11.02v2.848h-7.795v3.034c4.81.032.005-.02 6.902.013l.005 2.858h-6.932v3.144h7.915v2.864h-11.116V44.654zM164.323 59.463s1.45-3.432 2.144-5.07c1.304-3.08 2.84-6.663 4.128-9.75h3.14c1.68 3.97 4.2 9.92 5.88 13.886.107.252.358.925.358.925l-3.348-.025s3.318 0 0 0c-.323-.725-1.084-2.522-1.35-3.27l-6.282-.003c-.362.703-1.277 3.318-1.277 3.318h-.106l-3.287-.012zm9.737-6.277l-1.938-4.754-1.935 4.754h3.873zM54.388 44.724c2.492 0 4.872-.097 7.342.043 2.556.213 4.14 2.13 4.29 4.693.146 2.57-1.222 4.556-3.69 5.22-.81.218-1.672.27-2.515.333-.7.053-1.406.01-2.2.01v4.36h-3.227v-14.66zm3.25 2.876v4.432c1.114 0 2.188.09 3.24-.024 1.17-.127 1.883-1.095 1.863-2.26-.018-1.152-.77-2.022-2-2.13-1.002-.088-2.02-.018-3.103-.018zM84.48 57.362l1.553-2.162c1.296.537 2.456 1.123 3.683 1.48.635.187 1.444.132 2.07-.118.547-.217.87-.71.904-1.137.05-.626-.355-.974-.72-1.165-.767-.4-1.64-.6-2.47-.877-.725-.242-1.467-.44-2.174-.728-1.573-.64-2.408-1.807-2.448-3.535-.04-1.814.678-3.2 2.29-4.05 2.406-1.27 5.978-.493 8.353 1.248L93.974 48.6c-1.1-.43-2.12-.91-3.19-1.21-.537-.15-1.217-.105-1.736.098-.39.152-.7.314-.873 1.068-.14.613.342.975.705 1.182.65.37 1.425.522 2.15.765.83.28 1.68.51 2.488.848 1.586.663 2.47 1.842 2.48 3.61.01 1.836-.72 3.234-2.39 4.082-2.637 1.337-5.967.67-9.13-1.68zM97.23 44.642h12.19v2.964h-4.454v11.81h-3.228v-11.81H97.23V44.64zM159.422 44.644h3.135v14.763h-3.135V44.644zM19 38v26h11.393v-3.213h-.037V56.37h3.225c3.46 0 5.533-2.378 5.533-5.226s-2.072-5.226-5.532-5.226h-6.496v14.87h-4.87V41.212h20.45v19.574H35.36L32.705 64h13.17V38H19zm11.356 10.837h3.06c1.483 0 2.425.94 2.425 2.307 0 1.365-.94 2.283-2.424 2.283h-3.06v-4.59z"/></svg>

