<svg width="200" height="100" viewBox="0 0 200 100" xmlns="http://www.w3.org/2000/svg"><title>powerhouse</title>,<g fill="#000" fill-rule="evenodd"><path d="M41.018 46.4c.175-.573.264-1.485.264-2.735v-1.707c0-1.227-.048-2.132-.142-2.717-.094-.584-.266-1.083-.518-1.494-.25-.412-.63-.726-1.138-.944-.508-.218-1.23-.327-2.166-.327h-3.476v19.578h3.482V48.18h.923c.742 0 1.346-.155 1.81-.46.464-.308.784-.747.96-1.32zm-2.64-3.353c0 .724-.058 1.202-.175 1.43-.117.23-.326.346-.626.346-.075 0-.16-.005-.253-.013v-4.98c.43 0 .715.102.85.304.137.2.205.637.205 1.305v1.607zM51.134 38.105c-.344-.687-.8-1.202-1.364-1.545-.566-.343-1.203-.515-1.91-.515-.75 0-1.403.182-1.963.545-.56.364-1.006.885-1.336 1.563-.33.68-.525 1.427-.59 2.247-.064.82-.095 2.215-.095 4.186v3.356c0 2.02.034 3.433.103 4.24.07.808.276 1.555.62 2.24.344.688.797 1.203 1.357 1.546.56.342 1.195.514 1.904.514.746 0 1.4-.182 1.96-.545.56-.362 1.006-.883 1.336-1.562.33-.678.526-1.428.59-2.248.065-.82.097-2.214.097-4.185v-3.356c0-2.02-.032-3.432-.097-4.24-.064-.808-.268-1.555-.612-2.24zm-2.774 12.41c0 1.155-.03 1.887-.09 2.193-.06.308-.2.46-.418.46-.22 0-.358-.132-.412-.4-.055-.265-.082-.968-.082-2.11V41.49c0-1.008.042-1.617.13-1.823.087-.206.213-.31.378-.31.2 0 .334.13.397.383.065.254.097.838.097 1.75v9.024zM63.548 50.41l-.423-7.485c-.21-3.735-.333-5.885-.365-6.45h-3.55c-.514 5.533-.845 10.02-.99 13.463l-.353-6.64-.36-6.823H54.13l1.568 19.578h4.286l.978-10.298c.33 3.855.687 7.287 1.07 10.298h4.3l1.57-19.578h-3.378c-.423 4.526-.748 9.17-.976 13.936zM73.753 47.834h2.11V44.09h-2.11v-3.7h2.27v-3.915H70.27v19.578h5.963v-3.916h-2.48v-4.303zM86.71 56.053V50.89c0-1.58-.03-2.543-.09-2.895-.058-.35-.204-.735-.437-1.154-.232-.418-.694-.753-1.387-1.002.762-.106 1.27-.42 1.53-.944.256-.524.384-1.548.384-3.072 0-1.67-.183-2.885-.55-3.647-.368-.762-.842-1.236-1.423-1.422-.58-.185-1.69-.278-3.326-.278h-2.456v19.578h3.483v-8.82c.484 0 .782.123.89.373.11.25.165.898.165 1.946v6.5h3.218zM83.26 43.94c-.152.16-.428.238-.823.238V39.83c.405 0 .683.098.832.292.147.192.222.598.222 1.218v1.074c0 .862-.078 1.37-.23 1.527zM122.116 43.49h-1.003v-7.015h-3.483v19.578h3.483v-8.22h1.003v8.22h3.482V36.475h-3.482v7.014zM135.82 38.105c-.345-.687-.8-1.202-1.365-1.545-.566-.343-1.203-.515-1.91-.515-.75 0-1.403.182-1.964.545-.56.364-1.004.885-1.334 1.563-.33.68-.526 1.427-.59 2.247-.065.82-.096 2.215-.096 4.186v3.356c0 2.02.034 3.433.103 4.24.07.808.275 1.555.62 2.24.344.688.796 1.203 1.357 1.546.56.342 1.195.514 1.904.514.747 0 1.4-.182 1.962-.545.56-.362 1.005-.883 1.335-1.562.33-.678.527-1.428.59-2.248.065-.82.097-2.214.097-4.185v-3.356c0-2.02-.032-3.432-.096-4.24-.063-.808-.267-1.555-.61-2.24zm-2.775 12.41c0 1.155-.03 1.887-.09 2.193-.06.308-.198.46-.418.46-.22 0-.358-.132-.412-.4-.055-.265-.083-.968-.083-2.11V41.49c0-1.008.043-1.617.13-1.823.087-.206.213-.31.378-.31.2 0 .334.13.4.383.063.254.095.838.095 1.75v9.024zM143.933 50.918c0 .977-.032 1.596-.093 1.857-.062.263-.196.394-.404.394-.18 0-.3-.12-.36-.357-.063-.24-.093-.785-.093-1.642V36.476H139.5V48.07c0 2.212.027 3.663.082 4.352.054.69.232 1.346.534 1.967.302.62.758 1.124 1.366 1.512.61.387 1.31.58 2.102.58.722 0 1.35-.164 1.878-.49.53-.327.956-.806 1.277-1.44.32-.633.514-1.25.58-1.852.063-.6.095-1.644.095-3.128V36.475h-3.482v14.443zM156.474 55.81c.638-.448 1.07-1.003 1.292-1.666.223-.663.334-1.693.334-3.09 0-1.924-.205-3.317-.612-4.18-.397-.866-1.366-1.977-2.904-3.335-.533-.47-.863-.872-.99-1.202-.127-.33-.19-.82-.19-1.472 0-.506.054-.884.16-1.133.11-.25.265-.375.472-.375.186 0 .32.094.403.28.082.188.125.624.125 1.31v1.464h3.218v-.777c0-1.564-.1-2.672-.304-3.324-.204-.65-.62-1.192-1.253-1.62-.63-.43-1.396-.645-2.295-.645-.82 0-1.52.196-2.103.588-.584.392-1.003.935-1.26 1.63-.257.695-.385 1.793-.385 3.296 0 1.042.092 1.898.276 2.568.185.67.417 1.197.695 1.576.28.38.85.99 1.715 1.832.865.834 1.412 1.428 1.642 1.782.21.356.317 1.11.317 2.265 0 .524-.06.92-.176 1.187-.116.266-.29.4-.523.4-.232 0-.394-.106-.484-.317-.09-.21-.136-.684-.136-1.42v-2.394h-3.22v1.283c0 1.47.102 2.607.305 3.407.203.8.63 1.46 1.284 1.977.652.517 1.444.775 2.374.775.842 0 1.582-.224 2.22-.672zM164.325 47.834h2.11V44.09h-2.11v-3.7h2.27v-3.915h-5.752v19.578h5.962v-3.916h-2.48v-4.303zM98.768 35.91l-.133-2.034c-.207.403-.324.74-.302 1.212.016.366.22.516.435.823zM99.06 32.504c-.15-.187-.282-.25-.356-.5-.05-.168-.003-.476-.226-.532l.157 2.404c.008-.015.01-.027.017-.042.21-.397.74-.914.41-1.33zM97.97 37.508c.47.215.753.605 1.125.917l-1.27-2.13c-.168.166-.294.41-.328.627-.058.36.147.438.473.586zM100.075 38.307l.116-1.675c-.104.158-.208.318-.29.49-.102.225-.192.555-.108.796.047.135.22.262.283.39zM100.465 34.757c-.04-.043-.088-.084-.136-.124l-.14 2c.183-.275.372-.544.466-.864.11-.367.094-.705-.19-1.013zM99.927 34.135c.034.21.23.35.402.498l.108-1.563c-.206.25-.562.75-.51 1.065zM100.728 38.574l.476-1.727c-.434.503-.918 1.194-.476 1.727zM101.462 36.557c.266-.294.593-.626.675-1.002.056-.26.086-.99-.284-1.065l-.65 2.357c.092-.105.18-.205.26-.29z"/><path d="M112.44 54.635c.445-.612.522-.866-.304-1.355-1.196-.71-2.48-1.26-3.78-1.83-1.22-.534-2.614-.83-3.92-1.196-.82-.23-1.657-.186-1.44-1.022.403-1.56 2.534-2.13 4.166-2.52 1.008-.24 1.99-.537 3.003-.77.903-.21 1.82-.413 2.58-.858.852-.5 1.314-1.05 1.557-1.887.164-.565.007-.922-.3-1.415-.33-.533-.608-1.093-.97-1.61-.825-1.174-2.09-1.617-3.588-1.99-.983-.245-2.233-.532-3.273-.38-.49.072-1.35.645-.944 1.09.3.33 1.486.193 1.883.12.72-.135 1.377-.232 2.124-.23.54 0 .755.096 1.144.43.352.302.583.67.79 1.048.352.643.756 1.453.33 2.154-.13.214-.384.387-.673.42-.45.057-.708-.267-1.094-.414-1.408-.537-2.68.034-3.66.863-.328.28-.537.646-.876.912-.347.272-.85.393-1.296.512-.807.214-2.262.27-2.805-.368-.444-.523-.293-1.433-.293-2.045 0-.404-.115-.844.01-1.237.24-.75 1.715-1.337.487-2.068-.532-.317-1.326-.736-1.922-.358-.333.213-.653.582-.826.896-.195.352-.232.866-.074 1.232.145.335.48.51.727.77.364.386.498.93.53 1.43-.012.147-.028.29-.048.407-.07.404-.173.873-.516 1.19-.49.454-1.24.51-1.928.592-.885.106-1.768.24-2.638.408-1 .19-2.165.3-3.03.775-.537.295-1.042.573-1.255 1.105-.16.4-.196.918.216 1.195.92.616 2.212.2 3.292.235.828.027 1.68.218 2.468.42.292.073.543.242.835.298.125 1.268-2.21 1.29-3.228 1.504-.957.203-1.875.47-2.762.82-.48.19-1.31.514-1.51.958-.3.655 1.21 1.442 1.665 1.89.43.426.883.758 1.34 1.153.257.22.707.75 1.12.77.318-.912-.593-1.686-1.048-2.426-.183-.296-.444-.78-.08-1.042.444-.317 1.72-.1 2.29-.14 1.07-.075 1.987-.602 3.05-.71 1.85-.185 3.77-.09 5.636-.09 2.047 0 4.207.3 6.05 1.037.29.115.653.238.836.473.247.318-.047.573-.28.894-.493.68-.64 1.282-.587 2.06.383-.025 1.298-.523 1.602-.742.507-.365.872-.89 1.214-1.36zM99.74 42.82l-.005-.322c.007.107.01.214.005.323zM15.583 62.734c-.194-.052-.397-.092-.608-.122-.21-.03-.45-.042-.715-.042-.997 0-1.79.303-2.378.91-.588.608-.882 1.42-.882 2.442 0 1.06.293 1.88.88 2.465.586.584 1.378.876 2.376.876.318 0 .57-.016.75-.048.182-.032.377-.078.586-.138.17-.05.335-.11.495-.18l.425-.188v-1.516h-.152c-.084.072-.182.155-.295.247-.113.093-.244.184-.393.273-.137.087-.306.166-.505.237-.2.07-.41.106-.63.106-.21 0-.423-.037-.636-.108-.212-.072-.405-.19-.577-.35-.18-.168-.324-.388-.434-.66-.11-.274-.166-.61-.166-1.01 0-.382.053-.713.158-.992.106-.28.242-.502.41-.666.18-.182.372-.31.573-.383.2-.074.423-.11.663-.11.203 0 .397.032.584.097.185.065.356.144.51.236.155.092.294.186.416.283.122.097.224.18.304.25h.17v-1.537c-.11-.055-.255-.12-.434-.195-.178-.073-.344-.133-.495-.176zM41.896 62.694l-2.247 6.443h1.674l.416-1.315h2.09l.415 1.315h1.72l-2.247-6.443h-1.822zm.21 3.96l.68-2.124.678 2.124h-1.358zM73.07 65.394c-.236-.08-.458-.143-.665-.19l-.645-.143c-.346-.076-.578-.164-.7-.26-.12-.097-.18-.228-.18-.392 0-.112.038-.215.114-.305.076-.09.166-.16.27-.206.128-.057.25-.096.367-.116.117-.02.248-.03.394-.03.375 0 .74.07 1.096.212.356.14.658.315.905.52h.147V63.01c-.31-.133-.66-.237-1.052-.316-.392-.077-.785-.116-1.182-.116-.788 0-1.446.186-1.974.56-.527.374-.79.862-.79 1.465 0 .447.11.82.335 1.116.222.296.592.533 1.107.71.223.074.463.137.72.19.26.05.5.106.727.164.18.046.338.12.47.22.13.1.195.232.195.394 0 .144-.04.26-.12.348-.082.088-.18.157-.296.206-.095.043-.22.074-.378.095-.156.02-.282.03-.377.03-.38 0-.77-.074-1.17-.22-.403-.148-.77-.358-1.105-.633h-.15v1.532c.33.142.687.26 1.073.355.386.096.833.145 1.342.145.885 0 1.586-.195 2.106-.585.52-.39.78-.904.78-1.545 0-.447-.113-.806-.338-1.08-.225-.272-.568-.488-1.03-.65zM97.47 63.923h1.966v5.214h1.67v-5.214h1.965v-1.23h-5.6v1.23zM126.36 63.82h.957v4.193h-.956v1.124h3.583v-1.124h-.956V63.82h.956v-1.126h-3.582v1.126zM158.092 66.386l-2.122-3.692h-2.05v6.443h1.527v-4.49l2.565 4.49h1.608v-6.443h-1.528v3.692zM186.487 65.597v1.21h1.29v1.26c-.06.008-.13.012-.21.015-.08.002-.15.004-.21.004-.676 0-1.21-.18-1.598-.537-.392-.358-.586-.914-.586-1.667 0-.352.05-.66.154-.925.102-.266.24-.485.417-.658.185-.18.395-.312.63-.4.235-.085.496-.127.782-.127.244 0 .475.032.694.1.22.065.413.145.58.237.142.077.29.172.44.283.15.11.265.197.346.257h.152v-1.51c-.373-.176-.733-.315-1.082-.418-.347-.1-.8-.152-1.358-.152-1.077 0-1.926.303-2.547.913-.62.608-.93 1.417-.93 2.426 0 1.073.31 1.9.93 2.485.622.584 1.454.876 2.5.876.453 0 .912-.053 1.378-.163.466-.11.845-.222 1.136-.337v-3.173h-2.907zM24.155 66.302l2.862 2.333 2.86-2.333-2.86-2.333-2.862 2.332zM55.01 66.302l2.862 2.333 2.86-2.333-2.86-2.333L55.01 66.3zM83.625 66.302l2.862 2.333 2.86-2.333-2.86-2.333-2.862 2.332zM110.997 66.302l2.86 2.333 2.862-2.333-2.862-2.333-2.86 2.332zM138.617 66.302l2.862 2.333 2.86-2.333-2.86-2.333-2.863 2.332zM169.224 66.302l2.86 2.333 2.862-2.333-2.86-2.333-2.862 2.332z"/></g></svg>