<svg width="200" height="100" viewBox="0 0 200 100" xmlns="http://www.w3.org/2000/svg"><title>rogers</title>,<path d="M177.148 42.085h3.206v.474h-1.338v3.474h-.53V42.56h-1.338v-.475zm7.464 3.95v-3.95h-.758l-1.12 3.34h-.007l-1.133-3.34h-.76v3.95h.51v-2.332c0-.117-.008-.616-.008-.98h.007l1.113 3.31h.537l1.102-3.318h.014c0 .372-.015.87-.015.988v2.33h.517zm-99.453 4.27c0 1.998.448 3.654 1.387 4.752.794.937 1.9 1.425 3.173 1.425 1.276 0 2.385-.488 3.178-1.425.94-1.098 1.392-2.754 1.392-4.752 0-2.004-.453-3.66-1.392-4.758-.793-.937-1.902-1.424-3.178-1.424-1.274 0-2.38.487-3.173 1.424-.94 1.098-1.388 2.754-1.388 4.758zm11.94-7.147c1.795 1.755 2.69 4.137 2.69 7.158 0 2.992-.892 5.37-2.677 7.132-1.785 1.762-4.25 2.64-7.405 2.64-3.143 0-5.608-.878-7.393-2.64-1.785-1.763-2.678-4.14-2.678-7.132 0-3.02.893-5.403 2.678-7.158 1.785-1.752 4.25-2.63 7.393-2.63 3.133 0 5.6.878 7.393 2.63zm40.744 16.274c1.47 0 1.988-.21 2.692-2.865l.1-.388h-9.59v-4.704h5.464c1.403 0 1.99-.215 2.698-2.866l.098-.377h-8.26v-3.945h5.896c1.75 0 1.935-.216 2.574-2.89l.085-.37h-14.138V59.43h12.382zm29.858-2.78c-1.267-.01-2.893-.21-4.646-1.167l-1.318 2.984.283.153c.775.408 2.966 1.457 6.236 1.457 4.25 0 8.12-1.77 8.12-5.723 0-2.914-2.085-4.277-4.653-5.692-2.564-1.413-4.273-2.15-4.243-3.46.024-.907 1.077-1.322 2.662-1.292 2.024.034 3.233.477 4.228 1.006l1.42-2.843-.268-.144c-.714-.376-2.756-1.343-6.128-1.343-5.14 0-7.308 2.703-7.308 5.232 0 1.49.272 3.504 4.458 5.748 3.422 1.853 3.903 2.434 3.914 3.35.014 1.172-1.128 1.746-2.756 1.732zm-6.32 2.78s-2.238-2.563-3.9-4.915c-1.008-1.414-1.803-2.56-2.43-3.528 2.054-.706 3.462-2.258 3.462-4.89 0-1.952-.78-3.2-2.206-4.047-1.582-.943-3.98-1.026-6.825-1.026h-6.18v18.405h5.443v-7.054h.555c.443 0 .726.107 1.358 1.14 1.36 2.177 2.03 3.198 2.923 4.645.48.768 1.248 1.27 2.704 1.27h5.098zm-8.38-12.767c0 1.367-.625 1.982-1.355 2.358-.52.27-1.32.403-2.164.403h-.737V44.03h1.152c2.104 0 3.103.96 3.103 2.635zM79.486 59.432s-2.24-2.563-3.9-4.915c-1.003-1.414-1.8-2.56-2.428-3.528 2.05-.706 3.457-2.258 3.457-4.89 0-1.952-.776-3.2-2.205-4.047-1.585-.943-3.982-1.026-6.825-1.026h-6.183v18.405h5.45v-7.054h.553c.44 0 .72.107 1.36 1.14 1.356 2.177 2.025 3.198 2.92 4.645.477.768 1.246 1.27 2.703 1.27h5.097zm-8.38-12.767c0 1.367-.634 1.982-1.355 2.358-.52.27-1.32.403-2.165.403h-.734V44.03h1.145c2.11 0 3.11.96 3.11 2.635zm50.236 2.9l.014-.006h-9.852s.41 1.43.473 1.67c.404 1.43.705 1.557 1.536 1.567l.004.01h2.604v3.778c-.72.153-1.54.222-2.45.183-3.31-.13-6.06-2.45-6.06-6.534 0-3.758 2.556-6.186 6.502-6.186 2.083 0 3.853.428 5.37 1.126l1.895-3.01-.292-.172c-1.196-.706-3.164-1.402-6.506-1.492-3.5-.097-6.682 1.06-8.352 2.165-1.558 1.055-4.17 3.47-4.17 7.8 0 2.527.776 4.62 2.296 6.224 2.066 2.18 5.584 3.39 9.656 3.39 3.403 0 5.845-.64 7.386-1.53v-8.985h-.055zm-98.325-.25c.447-.795.732-1.31 1.426-2.247 4.118-5.492 13.452-14.183 21.414-10.364C42.756 33.894 38.583 32 34.064 32c-4.743 0-8.092 1.263-11.097 4.225-.645.64-2.125 3.688-2.125 6.106 0 2.024.588 4.282 2.176 6.984zm10.297 11.794c-.793-.452-1.308-.735-2.244-1.432-5.49-4.117-14.186-13.45-10.367-21.416C17.895 41.37 16 45.542 16 50.062c0 4.74 1.26 8.09 4.225 11.096.638.644 3.686 2.125 6.103 2.125 2.025 0 4.282-.59 6.987-2.174zm11.792-10.296c-.45.788-.734 1.303-1.427 2.244-4.12 5.49-13.452 14.182-21.416 10.364 3.106 2.812 7.278 4.706 11.8 4.706 4.74 0 8.086-1.268 11.09-4.228.65-.637 2.132-3.688 2.132-6.102 0-2.027-.595-4.28-2.18-6.984zM34.81 39.016c.794.447 1.307.734 2.246 1.43 5.492 4.118 14.185 13.45 10.364 21.415 2.81-3.108 4.707-7.275 4.707-11.798 0-4.74-1.267-8.09-4.225-11.094-.64-.646-3.688-2.13-6.107-2.13-2.027 0-4.28.593-6.985 2.178z" fill="#000" fill-rule="evenodd"/></svg>