<svg width="200" height="100" viewBox="0 0 200 100" xmlns="http://www.w3.org/2000/svg"><title>runbets</title>,<g fill="#000" fill-rule="evenodd"><path d="M154.204 38.003c-.892-.022-3.932 2.442-4.943 6.032 5.442-.92 6.61-5.986 4.944-6.032zM66.155 31.033c.344-.808.54-1.688.25-2.33-1.176-2.584-6.802-.8-6.802-.8l-4.35 9.175s8.6-.652 10.902-6.045zM140.178 31.2c.253-.604.4-1.26.182-1.74-.866-1.925-4.8-1.058-4.8-1.058l-3.427 7.303s6.347-.485 8.045-4.506zM137.096 43.586c.53-1.004.694-2.186.32-3.018-1.508-3.347-6.71-1.84-6.71-1.84l-4.237 9.023s7.983.847 10.626-4.164zM168.347 45.955l-.528.486c.19-.115.5-.304.527-.485z"/><path d="M182.122 37.71c-.164-3.6-.32-3.713-.804-4.288-.656-.777-2.424-1.103-2.424-1.103-2.09-.435-3.655.106-4.788.9-.567 0-.82.002-.82.002l2.517-4.775-11.878.023s-2.252 4.07-2.647 4.787c-5.693-1.898-11.578 1.12-13.063 1.962 6.034-12.277-10.054-13.84-19.196-10.84-7.182 2.356-8.95 6.785-8.087 9.465-.136-.18-.708-1.494-3.342-1.494-8.348-.008-33.376.01-38.998.01.245-14.202-20.016-11.598-26.558-9.78-7.817 2.17-16.722 9.2-10.83 21.294-3.442 6.238-9.696 16.47-9.696 16.47s-5.892 1.548-9.19 9.037c-.886-.154-1.513-.47-2.766-.705-.706 3.683 3.473 11.11 12.74 11.07 5.82-.025 12.037-4.712 12.636-4.725.39 1.254 3.993 2.977 7.496 2.297 1.98.913 4.078 1.268 12.23.43 63.76-10.65 98.876-18.277 107.93-22.52 7.36-3.152 6.827-6.536 7.03-7.546 1.14-.96 2.253-2.532 2.505-5.076.05-.517.077-1.195.077-2.025 0-.812-.026-1.77-.075-2.87zm-51.757-7.773c-2.44 1.055-4.028 1.85-5.32 3.846l.046.393-.372 2.476h-1.05c-2.878-9.997 13.408-12.012 18.098-10.404 3.458 1.31 3.43 4.23 2.912 5.67-.653 1.814-1.788 3.487-6.984 4.812 0 0 6.894-1.238 6.105 4.682 0 0-.565 12.653-26.015 10.213.138-.087 12.613-21.747 12.58-21.688zm-54.31 4.894c.006-.012 4.318 0 4.318 0 0 .012 2.325-.01 2.325-.01-1.11 1.92-6.425 11.07-7.14 12.303-.114.306-.195.584-.253.832-.032.198-.05.377-.05.535 0 .71.297 1.074.6 1.263 1.055.656 3.29-.268 5.314-2.2l.026-.023s1.618-2.605 1.63-2.616c1.575-2.84 5.102-8.66 5.81-9.826h6.67l-.043.042h.106c-.024.032-.07.095-.147.18l-6.958 12.023-.008.027c-.15.48-.21.878-.21 1.198 0 .71.295 1.076.596 1.266 2.385.586 6.637-3.248 7.53-4.086 2.83-4.834 6.098-10.42 6.156-10.52.256-.013 5.77.033 6.546 0-.294.56-1.566 2.862-1.566 2.862l1.496-.993c.085-.048 3.556-2.073 6.21-2.148.43-.013.984-.01 1.354-.01.732 0 1.06.785 1.34 1.44.586 1.364.193 3.56-1.077 6.02-.516 1.002-1.044 1.857-1.47 2.545-.752 1.216-1.205 1.947-1.03 2.485.066.208.222.365.467.464l.028.01.032.006c1.17.17 2.6-1.123 4.956-4.54.463 0 .588-.01 1.098-.01-.144.66-1.574 2.178-1.58 2.21-.845 1.55-4.888 5.454-8.073 6.813l.82-.134c-2.375.63-3.92.002-3.92.002-.62-.237-.87-.633-.99-.98-.447-1.308.54-4.04 2.928-8.104 1.73-2.934 1.408-4.09.838-4.545-.94-.75-3.067.084-5.057 1.974l-.023.024-1.52 2.44c-1.505 2.715-4.93 8.36-5.458 9.23-.257.002-5.79.393-6.567.403.136-.234 1.022-1.75 2.22-3.797L90.58 51.4l-.015.01c-.023.022-2.188 1.867-5.584 2.338-.28.04-.93-.003-1.154 0-.514.007-1.47-.07-2.196-.637-.568-.44-.902-1.107-.996-1.983l-.047-.444-.035-1.01c-.407.38-2.77 1.858-2.785 1.863-.04.025-.877.514-2.047 1.036-.1.044-.2.09-.304.134-.015.004-.033.01-.048.018-.078.032-.153.065-.234.097l-.85.745C72 54.773 69.8 53.7 69.8 53.7c-3.922-1.883-.35-7.622.197-8.636.547-1.016 4.78-8.226 6.057-10.233zM52.39 30.004c-3.24 1.386-5.412 2.44-7.174 4.894l-.814 4.444H42.98C38.94 25.44 61.82 22.64 68.41 24.876c4.858 1.82 4.818 5.882 4.09 7.88-.917 2.526-3.915 5.698-9.812 6.694 3.362-.092 6.914.254 4.202 4.394-8.29 12.658 4.277 15.083 9.23 11.403-8.133 10.313-26.78 7.856-19.247-7.587 4.173-8.55 2.09-7.52-1.635-6.908-1.5.25-1.445.277-1.445.277-1.634 3.19-7.702 16.548-7.705 16.537-.04-.132-7.58 1.383-10.456 1.985.194-.12 16.805-29.63 16.76-29.55zM32.47 76.966c-8.006 0-9.396-4.6-9.396-4.6s5.09 2.85 11.336.345c7.364-2.955 10.124-.256 10.124-.256-2.46-.243-7.752 4.512-12.065 4.512zm147.244-34.1c-.2 2.017-1.128 3.173-2.197 3.82-.927 2.573-.556 1.442-2.345 4.46-1.526.61.26 3.847-29.72 8.993-12.037 2.065-81.134 14.87-81.134 14.87-5.398.994-8.275.3-8.275.3 5.184-1.47 4.392-3.376 8.738-4.8 0 0-1.797-1.19-5.898 1.426-6.516 5.085-11.095 1.236-11.095 1.236 13.65-3.857 12.067-7.44 9.738-6.5-6.282 4.31-13.004 4.31-15.75 3.083-2.767-1.24-8.05.484-8.05.484 4.688-5.68 11.857-1.457 11.015-4.39-.845-2.946-19.495 3.022-19.495 3.022 2.518-6.77 17.524-8.915 17.524-8.915 2.047-.41 5.967-.833 11.152-1.262 1.42 2.203 5.094 5.483 11.922 4.952 8.768-.68 11.935-5.676 12.493-6.36.07-.082.13-.16.196-.24 23.856-1.39 52.99-2.763 67.792-3.907l11.01-.866c6.02-.465 11.525-1.278 11.525-1.278 3.74-.356 5.112-2.038 5.28-2.396-.638.207-1.387.36-2.138.377-.067.013-.133.028-.2.038-.62 0-1.098-.025-1.644-.025-1.978 0-2.464-2.434-2.464-2.434l.125-.115c-.087.052-.153.09-.155.105-.573.464-1.144.758-1.688.944-2.004 1.426-3.36 1.876-4.707 1.89-2.03.022-3.242-1.54-2.8-3.555.046-.212.103-.434.165-.66-.783.588-2.224 1.457-2.224 1.492-1.774 1.764-3.478 2.74-4.955 3.232-.263.087-1.393.31-1.643.37-.653.087-.653.087-1.546.06-2.534 0-3.606-1.996-3.606-3.438-.005-3.437 2.14-6.71 4.808-8.93 2.24-1.863 4.294-2.67 5.884-2.708.425-.01 1.086-.07 1.44.023 1.347.358 1.863 1.54 1.794 3.036-.164 3.43-4.11 6.766-9.502 7.164-.498 1.355.37 2.177 1.066 2.31.823.16 7.73-2.664 9.86-6.13.835-1.774 1.916-3.766 3.108-5.92h-2.688l.487-.857h2.68c.798-1.452 1.565-2.92 2.333-4.43l4.506.07c-.867 1.624-1.588 2.93-2.366 4.386h2.69l-.3.675h-2.667c-1.558 2.906-2.84 5.316-3.78 7.24l.033.01c-1.892 3.962-1.163 4.358-.853 4.52.002.002.006.002.008.003.315-.048.7-.136 1.12-.265.97-.427 2.367-1.29 3.61-2.367.24-.778 1.102-2.972 3.28-3.573l-.002-.007s2.82-3.383 3.987-4.76c.565-.597.98-1.098 1.92-1.105.366-.018.44-.028 1.002.007 0 0 .2 1.565.35 3.355.745 1.437 1.353 3.187 1.247 4.24z"/><path d="M173.8 41.113l.057.074c.165.048.324.104.474.17.05.01.105.02.172.035.56.124 1.107.278 1.572.52.14-1.33.12-2.433.074-3.15-.893.858-2.015 1.996-2.35 2.35zM173.427 42.515c-.273.066-.46.143-.46.143.593 2.4-2.02 3.053-2.02 3.053.064.47.56.77.913.927.955-.01 2.7-.442 2.727-2.536-.09-1.054-.602-1.462-1.16-1.585z"/></g></svg>