<?xml version="1.0" encoding="utf-8"?>
<!-- Generator: Adobe Illustrator 19.2.0, SVG Export Plug-In . SVG Version: 6.00 Build 0)  -->
<svg version="1.1" id="Layer_1" xmlns="http://www.w3.org/2000/svg" xmlns:xlink="http://www.w3.org/1999/xlink" x="0px" y="0px"
	 viewBox="0 0 200 52" style="enable-background:new 0 0 200 52;" xml:space="preserve">
<title>sayyeah</title>
<g>
	<path d="M180.923996,26.1c-0.154999,0.004-0.292999,0.1-0.350006,0.246c-1.399994,3.51-4.203003,7.264-6.639999,7.306999
		c-0.945999,0.018002-1.376007-0.431999-1.393005-1.456001c-0.026993-1.6,1.059998-3.530001,2.214996-5.577
		c1.365997-2.424,2.914001-5.17,2.865997-7.944c-0.033005-2-1.190002-4.072001-3.173004-4.733
		c-0.029999-0.01-0.059998-0.02-0.089996-0.028c-4.662003-1.434-8.679993,2.128-11.584,5.243
		c-0.074005,0.08-0.173004,0.120001-0.274002,0.122999c-0.070007,0.002001-0.139999-0.016001-0.205002-0.054001
		c-0.154999-0.094-0.050003-0.356001,0.005997-0.530001c1.203995-3.63,4.654007-11.507,8.929993-17.02
		c0.615005-1.548-3.393997-1.723-4.117996-1.535c-2.559998,0.663-4.132004,3.566-5.238007,5.756
		c-3.960007,7.83-6.425995,16.385-7.429993,25.108c-0.100006,0.870001-0.186996,1.747002-0.220001,2.625
		c-0.638,0.591999-1.451996,0.966999-2.539993,0.987c-4.164993,0.073002-2.576996-5.030001-1.932007-7.455999
		c0.417999-1.575001,0.832993-3.152,1.276001-4.719999c0.802994-2.847,1.367996-5.795-1.253006-7.814
		c-1.059998-0.816-2.419998-1.215-4.039993-1.187c-3.251999,0.057-6.470001,1.802-7.378006,2.335
		c-3.179993,1.870001-5.544006,4.316999-7.020004,7.275c-1.016998,2.042999-1.628006,4.282-1.809998,6.559999
		c-2.279999,2.438-5.946999,5.176998-9.949997,5.247002c-1.887001,0.034-3.019997-0.689999-3.467003-2.215
		c-0.028-0.099998-0.016998-0.208,0.032997-0.299999c0.050003-0.09,0.134003-0.158001,0.234001-0.186001
		c12.023994-3.4,13.213005-10.036999,13.167-12.73c-0.059998-3.487-2.504997-5.610001-6.379997-5.542
		c-7.696999,0.136-12.909996,8.833-12.777,16.554001c0.015999,0.936001,0.115997,1.799999,0.279999,2.605
		c-1.402,1.192001-3.247002,1.875999-4.788002,1.903c0.372002-1.73,0.973999-3.634001,1.339996-5.360001
		c0.802002-3.790001,1.849998-7.466,3.042999-11.146c1.375999-4.247,3.213997-8.406,5.540001-12.214
		c0.251999-0.412,0.510002-0.82,0.779999-1.223c0.497002-1.59-3.513-1.468-4.222-1.227
		c-1.712997,0.582-2.813004,2.214-3.607002,3.762c-1.435997,2.797-2.194,6.14-3.157997,9.107001
		c-1.442001,4.433001-4.529999,11.243999-11.342003,11.365c-7.377998,0.129999,2.254997-11.449999,2.122002-19.115
		c-0.067001-3.847-4.148003-6.458-7.356003-2.875c-0.639999,0.715-0.120003,0.988,0.351997,0.923
		c1.851997-0.254,1.410004,2.02,1.303001,2.682c-1.024002,6.302999-10.016998,17.542-2.222,23.096001
		c3.309998,2.360001,11.900002,0.132,14.061996-3.23c-0.323997,1.870001-0.872002,3.756001-1.292,5.607998
		C88.329948,35.327,82.646942,39.403,82.753944,45.582001c0.07,4.105,4.090004,5.755001,7.327003,5.697998
		c5.515999-0.097,11.321999-3,13.601997-8.264999c0.623001-1.439999,1.112999-2.924999,1.535004-4.432999
		c2.856003-0.049999,5.220001-0.966,6.725998-2.299999c1.447998,2.223,3.860001,3.407001,7.082001,3.349998
		c4.389999-0.077,8.444-2.153,11.140007-4.637001c1.113998,2.756001,3.490005,4.380001,6.649994,4.324001
		c3.619995-0.063999,6.425995-2.251999,7.761993-3.806999c0.399994,1.247002,1.759995,3.786999,5.009995,3.73
		c2.024002-0.035999,3.845993-0.813999,5.384003-1.952999c0.783005,1.033001,1.947998,1.134998,2.421997,1.126999
		c0.753998-0.014999,1.332993-0.332001,1.395996-0.368c0.119995-0.07,0.195007-0.198002,0.195007-0.337002
		c0.007004-8.338001,7.298004-18.493,11.873001-18.573999c0.574005-0.01,0.932999,0.165001,0.949997,1.07
		c0.020004,1.299999-0.983002,3.171999-2.048004,5.157999c-1.397995,2.605999-2.985001,5.559999-2.936005,8.360001
		c0.057007,3.310001,2.078003,5.174999,5.546005,5.113998c5.682999-0.099998,10.559998-6.5,10.494003-10.314999
		c-0.022995-1.377001-0.75-2.305-1.938004-2.422001L180.923996,26.1z M90.323997,46.854c-1.5,0.027-2.277-0.529999-2.294998-1.583
		c-0.044998-2.514999,2.294998-5.799999,12.379997-6.477001c-1.098,4.727001-4.433998,7.959999-10.086998,8.060001H90.323997z
		 M115.923996,27.441c0.675003-4.735001,3.669998-8.780001,6.540001-8.83c1.167999-0.02,1.720001,0.534,1.741997,1.745001
		c0.047997,2.806999-2.928001,5.683001-7.766998,7.506001c-0.042,0.016001-0.084999,0.024-0.129997,0.025
		c-0.087997,0.002001-0.176003-0.028-0.247002-0.084999c-0.106003-0.087-0.160004-0.223-0.139999-0.360001L115.923996,27.441z
		 M145.651993,23.794001c-0.580002,1.898001-1.348007,3.747999-2.320007,5.478001c-1.268005,2.26-4.020004,4.553999-6.610001,4.6
		c-0.917999,0.016998-1.817001-0.173-1.860001-2.632c-0.033997-1.985001,0.414993-3.969999,1.298004-5.737999
		c0.936996-1.878,2.237-3.6,3.904007-4.876999c1.020004-0.783001,4.162994-2.790001,5.602005-2.007999
		c1.444,0.785999,0.315994,4.094999-0.014008,5.177999V23.794001z M23.285999,18.242001c-2.875-1.48-5.355999-2.757999-5.406-5.608
		c-0.046-2.702,2.129999-4.42,5.68-4.483c3.4-0.058,5.543001,1.603,5.59,4.335c0.027,1.537-0.4,2.48-0.403999,2.49
		c-0.052999,0.11-0.049999,0.244,0.01,0.353c0.056999,0.11,0.165001,0.184,0.285999,0.2c0.327,0.044,0.65,0.064,0.958,0.06
		c1.013-0.02,4.306999-0.426,4.23-4.915c-0.077999-4.428-4.34-7.446-10.362999-7.34c-6.888,0.12-11.818,4.24-11.722,9.796
		c0.086,4.994,3.77,6.907001,7.022999,8.598001c3.162001,1.642,6.15,3.193001,6.219999,7.207001
		c0.08,4.657001-4.198,8.244999-9.953,8.347c-4.49,0.077999-7.205-1.917-7.265-5.337999c-0.06-3.460001,2.146-5.65,5.757999-5.715
		c2.046-0.035999,2.948,0.719999,3.056,0.816c0.07,0.068001,0.166,0.108,0.306,0.105h0.02
		c0.118-0.017,0.219999-0.087999,0.280001-0.195c0.014999-0.027,0.379999-0.691999,0.365-1.530001
		c-0.040001-2.4-1.85-3.799999-4.84-3.747c-6.237,0.110001-10.69,4.593-10.584,10.66c0.11,6.341999,4.784,10.047001,12.503,9.91
		C24.396,42.084,31.353998,36.084,31.218998,28.291c-0.104-6.02-4.445-8.253-7.931999-10.048 M76.624001,15.195
		c-0.690002,0.012-1.278,0.204-1.385002,0.24c-0.152,0.056-0.252998,0.195-0.258003,0.355
		c-0.281998,7.851999-6.192001,17.6-10.718002,17.680002c-1,0.016998-1.376999-0.349998-1.394001-1.356998
		c-0.026001-1.5,0.860001-3.51,1.799999-5.638c1.132004-2.568001,2.304001-5.223,2.260002-7.67
		c-0.036003-2.153-1.314003-3.416-3.417999-3.378c-0.773998,0.013-1.782001,0.285-1.794998,0.29
		c-0.167999,0.045-0.285999,0.2-0.285999,0.375001c0.009998,3.497-1.169998,6.389999-2.313,9.189999
		c-1.016998,2.49-1.977001,4.84-1.932999,7.324001c0.009998,0.597,0.095001,1.130001,0.213001,1.632999
		c-0.709999,1.223-1.744999,2.068001-3.407001,2.098c-4.165001,0.073002-2.576-5.030001-1.931999-7.455999
		c0.419998-1.576,0.833-3.153,1.277-4.722c0.803001-2.846001,1.367001-5.794001-1.254002-7.814001
		c-1.057999-0.815-2.417-1.215-4.040001-1.186c-3.25,0.057-6.467999,1.802001-7.376999,2.335999
		c-3.181999,1.870001-5.542999,4.316-7.02,7.275c-1.272999,2.556999-1.92,5.42-1.870001,8.284
		c0.083,4.927002,2.969999,8.060001,7.348001,7.984001c3.622002-0.063999,6.428001-2.251999,7.762001-3.806999
		c0.400002,1.248001,1.762001,3.788002,5.012001,3.73c3-0.051998,5.57-1.720001,7.400002-3.813
		c0.950001,0.646,2.189999,0.987999,3.733002,0.959999c3.163998-0.055,7.202-2.363998,9.34-5.174999
		c-0.18,0.18-1.374001,5.764-2.779999,8.939999c-1.337997,3.022999-3.989998,5.417-7.404999,5.478001
		c-1.665001,0.029999-2.278-0.639999-2.294998-1.583c-0.042999-2.506001,3.598-3.02,5.43-3.173
		c0.452003-0.037998,0.924004-0.110001,1.290001-0.383999c1.213997-0.914001-0.276001-1.869999-1.152-2.071999
		c-1.063004-0.245998-2.181999-0.366001-3.235001-0.348c-1.882,0.034-3.566002,0.498001-4.874001,1.342999
		c-2.02,1.306999-3.110001,3.23-3.07,5.417c0.051998,3.104,3.060001,5.305,7.153999,5.233002
		c3.683998-0.064999,7.047997-1.355,9.370003-3.782001c2.442001-2.549999,3.452003-5.417999,4.345001-8.493
		c1.134003-3.904999,5.124001-16.271999,5.044998-20.837c-0.040001-2.215-1.370003-3.514-3.566002-3.475L76.624001,15.195z
		 M47.957001,25.514999c-0.580002,1.896999-1.346001,3.747-2.318001,5.477001c-1.27,2.259998-4.02,4.554001-6.612999,4.599998
		c-0.917,0.015999-1.814999-0.174999-1.858002-2.632999c-0.035-1.986,0.414001-3.972,1.296001-5.74
		c0.937-1.878,2.237999-3.598,3.903999-4.875999c1.02-0.782999,4.162998-2.789999,5.602001-2.007999
		C49.414001,21.121,48.287003,24.43,47.955002,25.513L47.957001,25.514999z M185.834,31.112
		c-2,0.035999-3.75,1.911999-3.748001,4.016998c0,0.827,0.292007,1.59,0.839996,2.202
		c0.632004,0.709999,1.393997,0.926998,2.343994,1.035c0.175995,0.02,0.345993,0.028,0.509995,0.026001
		c0.875-0.015999,1.639999-0.352001,2.210007-0.973c0.720001-0.785,1.089996-1.98,1.016006-3.278
		c-0.112-1.902-1.326004-3.062-3.171997-3.030001 M195.112,2.257c-0.531998-0.72-1.485001-1.028-2.194-1.016
		c-0.975006,0.018-2.382004,0.468-3.554001,2.516c-2.755005,4.82-4.860001,15.283001-4.766006,20.735001
		c0.063004,3.656,1.822998,4.392,3.289993,4.367001c0.188004-0.003,0.345993-0.143,0.373993-0.336
		c0,0,0.138-0.846001,0.186005-1.120001c0.830002-4.746,2.520004-12.047,4.018005-16.225
		c0.710007-1.986,1.524994-4.078,2.490005-6.395c0.044006-0.108,0.091995-0.215,0.139999-0.32
		c0.278-0.612,0.626007-1.376,0.016006-2.203"/>
</g>
</svg>
