<svg width="200" height="100" viewBox="0 0 200 100" xmlns="http://www.w3.org/2000/svg"><title>shinyads</title>,<g fill="#000" fill-rule="evenodd"><path d="M100.58 53.827h-3.444v15.216h3.443c1.573 0 2.623-.492 3.41-1.444.852-1.05.983-2.72.983-6.263 0-3.542-.13-5.018-.983-6.067-.787-.95-1.837-1.443-3.41-1.443zM77.358 65.14h5.804L80.31 56.65l-2.952 8.493z"/><path d="M135.35 9h-69.7c-3.396 0-6.15 2.754-6.15 6.15v69.7c0 3.396 2.754 6.15 6.15 6.15h69.7c3.396 0 6.15-2.754 6.15-6.15v-69.7c0-3.396-2.754-6.15-6.15-6.15zm-30.094 20.324h2.542l5.784 8.94v-8.94h2.85v14.6h-2.543l-5.784-8.96v8.96h-2.85v-14.6zm-6.252 0h2.85v14.6h-2.85v-14.6zm-14.043 0h2.852v5.968h4.94v-5.968h2.852v14.6h-2.85v-6.11H87.81v6.11h-2.85v-14.6zm-5.92 9.147c-.288-.266-.616-.41-1.293-.513l-1.764-.245c-1.25-.184-2.173-.574-2.83-1.21-.696-.697-1.045-1.64-1.045-2.87 0-2.605 1.927-4.43 5.085-4.43 2.01 0 3.466.492 4.717 1.702l-1.805 1.783c-.923-.88-2.03-1.004-2.993-1.004-1.518 0-2.256.84-2.256 1.845 0 .37.123.76.43 1.046.287.267.76.493 1.353.575l1.722.245c1.333.184 2.174.554 2.79 1.127.778.74 1.127 1.804 1.127 3.097 0 2.828-2.36 4.427-5.415 4.427-2.214 0-3.896-.47-5.33-1.926l1.844-1.845c.922.923 2.173 1.23 3.526 1.23 1.682 0 2.584-.635 2.584-1.804 0-.512-.143-.942-.45-1.23zm6.713 34.64l-1.378-4.133H76.08l-1.41 4.132h-4.756l8.493-23.35h3.574l8.527 23.35h-4.754zm21.417-2.23c-1.54 1.54-3.738 2.23-6.165 2.23h-8.428V49.76h8.428c2.427 0 4.624.69 6.165 2.23 2.624 2.625 2.36 5.838 2.36 9.347 0 3.51.264 6.92-2.36 9.542zm12.63 2.426c-3.54 0-6.23-.754-8.526-3.082l2.952-2.952c1.476 1.475 3.475 1.968 5.64 1.968 2.69 0 4.13-1.017 4.13-2.886 0-.82-.228-1.508-.72-1.968-.46-.426-.984-.655-2.066-.82l-2.82-.393c-2-.295-3.476-.92-4.526-1.935-1.114-1.115-1.67-2.623-1.67-4.59 0-4.166 3.08-7.084 8.13-7.084 3.214 0 5.543.787 7.543 2.723l-2.885 2.85c-1.476-1.41-3.248-1.605-4.788-1.605-2.427 0-3.607 1.344-3.607 2.952 0 .59.196 1.212.688 1.672.46.426 1.214.787 2.165.917l2.754.394c2.13.296 3.476.885 4.46 1.804 1.246 1.182 1.803 2.887 1.803 4.952 0 4.526-3.77 7.084-8.657 7.084zm5.61-35.37v5.99h-2.83v-5.99l-4.39-8.612h3.097l2.727 5.886 2.687-5.886h3.097l-4.388 8.613z"/></g></svg>