<svg width="200" height="100" viewBox="0 0 200 100" xmlns="http://www.w3.org/2000/svg"><title>spiritsandsports</title>,<g fill="#000" fill-rule="evenodd"><path d="M149.104 51.236c1.988-1.07 28.847-15.547 28.847-15.547l-28.87.043-.018-11.908-37.67.058L100.336.24l-1.89 4.07-1.89 4.068-7.21 15.538-37.67.057.02 11.907-28.872.044 28.895 15.46.035 23.31 14.036-.02-11.544 24.874s44.396-22.58 46.202-23.497l46.274 23.358-11.62-24.84 14.037-.02-.036-23.312zM131.72 72.49l10.448 22.338s-40.03-20.207-41.83-21.114l-41.764 21.24 10.38-22.368-15.22.023s-.03-20.263-.035-22.474l-22.694-12.14 22.675-.035c-.003-2.836-.017-11.907-.017-11.907l36.912-.056 7.77-16.744 1.89-4.068 9.722 20.783 36.913-.056.018 11.908 22.675-.035-22.657 12.21.035 22.473-15.22.023z"/><path d="M79.148 39.38c.23-.667.364-1.432.362-2.1 0-.97-.215-2.094-.807-2.17l.007 5.14c.097-.1.266-.377.438-.87zM103.58 50.908c.147-.096.218-.542.217-1.354 0-.812-.073-1.257-.22-1.353l.004 2.708zM94.2 55.982c-.09.613-.13 1.692-.13 3.5.007 3.584.175 4.215.526 4.215.352 0 .52-.63.514-4.218-.006-3.586-.174-4.217-.525-4.217-.143 0-.288.088-.384.72zM106.772 55.43l.008 5.12c.325-.36.802-1.502.8-2.965-.002-1.418-.397-2.09-.808-2.154z"/><path d="M110.656 49.287c-.467-1.862-5.722-3.224-10.445-3.224h-.044c-2.79.004-5.452.404-7.493 1.127-1.72.61-2.78 1.372-2.985 2.13l.547.206-.57.218c.286 1.917 5.654 3.332 10.467 3.332h.045c2.79-.005 5.45-.405 7.492-1.127 1.8-.64 2.882-1.446 3.01-2.237l-.572-.217.548-.21zm-13.794 2.098l-.138-.683h-.52l-.135.684h-.548v-.424h.125l.64-3.23.653-.002.648 3.23h.126v.423l-.852.002zm4.247.007h-.615l-.817-1.904.002 1.468h.114v.424h-.72l-.002-.423h.114l-.004-2.792h-.114v-.425h.727l.817 1.9-.002-1.477h-.114v-.425h.72l.002.423-.114.002.005 3.23zm3.163-.366c-.22.238-.527.35-.96.35h-.66v-.424h.115l-.004-2.793h-.114v-.425h.657c.948 0 1.37.56 1.372 1.818 0 .697-.133 1.18-.407 1.473zM81.368 55.468l.008 5.14c.096-.1.265-.377.437-.87.232-.667.364-1.432.363-2.1-.002-.97-.216-2.094-.808-2.17z"/><path d="M144.815 48.754l16.465-8.873-16.48.026-.017-11.908-36.156.055-8.385-17.925-.105.226-8.225 17.724-36.157.055.018 11.908-16.478.026 16.492 8.823.033 21.632 16.406-.025-9.22 19.864 37.33-18.983 37.384 18.87-9.278-19.835 16.406-.024-.033-21.634zM59.66 31.692l3.483-.005.005 3.472-3.482.004-.006-3.472zm.054 35.23l-.005-3.473c.53-.002 2.95-.005 3.48-.006l.007 3.472-3.483.005zm5.857-18.2l.465-1.27.07.055c.36.283.822.42 1.415.42.355 0 .654-.16.873-.46.225-.31.344-.74.343-1.243-.003-1.72-.556-2.73-1.615-4.515-1.005-1.698-1.397-2.97-1.4-4.54-.003-2.512 1.216-4.137 3.107-4.14.584 0 1.206.195 1.626.51l.026.018.002 2.09-1.13.002-.16-1.097c-.085-.028-.182-.044-.358-.044-.484 0-.903.69-.902 1.473.002 1.232.504 2.21 1.568 3.995 1.11 1.862 1.522 3.205 1.525 4.954.002 1.384-.34 2.535-.993 3.328-.616.75-1.465 1.145-2.455 1.146h-.007c-.78 0-1.404-.208-1.963-.655l-.036-.028zm5.787 15.924c-.616.654-1.464 1-2.453 1.002h-.008c-.778 0-1.4-.182-1.958-.572l-.043-.03.47-1.12.065.046c.36.247.824.368 1.42.368.354 0 .654-.14.873-.403.224-.268.342-.64.34-1.077 0-1.497-.553-2.38-1.61-3.935-1.008-1.484-1.4-2.597-1.403-3.97 0-1.085.288-1.997.836-2.64.55-.643 1.337-.985 2.272-.986.582 0 1.202.17 1.622.442l.03.02.002 1.84-1.13.002-.16-.958c-.084-.025-.18-.04-.357-.04-.226 0-.45.135-.62.368-.184.247-.284.572-.283.913 0 1.07.502 1.923 1.565 3.48 1.11 1.63 1.524 2.804 1.527 4.335.002 1.212-.343 2.22-.997 2.914zm2.67-32.7l52.39-.08v.77l-52.39.08v-.77zm48.85 11.217h.39l.002.97-2.854.003-.002-.97h.39l-.013-8.174h-.617l-.167 1.294-.964.002-.004-2.263 5.578-.008.003 2.262h-.966l-.17-1.293-.618.002.012 8.173zm-2.706 20.366h.39l.002.968-2.853.004-.003-.97h.39l-.013-8.175h-.618l-.167 1.295h-.965l-.004-2.26 5.578-.01.004 2.263h-.964l-.17-1.292h-.62l.013 8.176zm-7.888-13.19c0 .41-.334.744-.745.744h-.002c-.263 0-.493-.137-.626-.342-1.374 1.73-5.663 3.003-10.732 3.01h-.047c-5.045 0-9.318-1.258-10.692-2.98-.133.208-.364.347-.627.347-.412 0-.746-.334-.747-.744l.002-.022-.994.38-.02-.008c-.034-.012-3.37-1.122-5.486-1.122l-.01-.13c2.116-.002 5.458-1.126 5.49-1.138l.023-.007.996.375c0-.007-.003-.014-.003-.022 0-.41.334-.744.746-.745.29 0 .54.168.664.41 1.413-1.706 5.672-2.954 10.695-2.962h.046c5 0 9.243 1.235 10.658 2.93.123-.243.373-.412.664-.413.412 0 .747.334.747.744 0 .007-.003.014-.003.022l.995-.38.022.007c.033.01 3.37 1.122 5.484 1.122l.01.127c-2.115.004-5.457 1.128-5.49 1.14l-.023.007-.995-.377.002.022zm-5.496 14.18l-2.4.003v-.97h.323l-.013-8.176h-.324l-.002-.968 1.92-.004c1.728 0 3.465.978 3.47 3.163 0 1.39-.464 2.443-1.423 3.22.422.52.718 1.014.905 1.504.215.525.262.853.31 1.25h.332l.002.97-2.18.004v-.065c0-.426-.032-.99-.28-1.565-.202-.54-.48-.91-.644-1.1l.004 2.73zm-9.407-5.044c.004 3.49-.905 5.188-2.782 5.19h-.005c-1.873 0-2.786-1.695-2.79-5.182-.004-1.924.26-3.275.81-4.13.458-.712 1.102-1.06 1.97-1.06 1.878 0 2.79 1.695 2.796 5.182zm-16 4.112h.324l.002.97-2.723.003-.002-.968h.325l-.012-8.176h-.324l-.003-.97 1.88-.002c2.13 0 3.505 1.262 3.508 3.215.004 3.008-2.502 3.842-2.978 3.972l.003 1.956zm-4.753-28.53h-.324v-.968l1.88-.003c2.13 0 3.503 1.262 3.506 3.214.004 3.01-2.502 3.844-2.978 3.975l.003 1.955h.324v.97l-2.723.003-.002-.97h.325l-.013-8.175zm14.126 8.154h.324l.002.97-2.725.003v-.97h.323l-.013-8.175h-.324v-.968l2.723-.005.002.97h-.325l.013 8.175zm11.78-1.27c.213.525.26.853.31 1.252h.33l.002.968-2.18.004V44.1c0-.424-.032-.986-.28-1.564-.202-.54-.48-.91-.644-1.1l.005 2.73-2.4.005v-.97h.323l-.012-8.174h-.324l-.002-.97 1.92-.002c1.727 0 3.464.98 3.468 3.164.002 1.39-.463 2.444-1.422 3.22.422.522.72 1.015.906 1.504zm9.636 1.238h.324v.968l-2.722.005-.002-.97h.325l-.012-8.175h-.325v-.97l2.722-.003.002.97h-.325l.012 8.175zM74.08 66.686v-.77l52.387-.08.002.77-52.39.08zm59.072-2.133c-.616.653-1.464 1-2.453 1h-.01c-.777 0-1.4-.18-1.957-.57l-.043-.03.47-1.12.064.045c.36.248.825.368 1.42.368.355 0 .655-.14.874-.402.224-.27.342-.64.34-1.078 0-1.497-.553-2.378-1.61-3.935-1.007-1.483-1.4-2.596-1.403-3.97 0-1.083.288-1.995.836-2.637.552-.645 1.338-.986 2.273-.988.582 0 1.202.17 1.622.444l.03.018.002 1.84-1.13.002-.16-.958c-.084-.024-.18-.04-.357-.04-.226.002-.45.135-.62.368-.184.248-.284.572-.283.913.002 1.072.503 1.923 1.565 3.48 1.11 1.63 1.525 2.805 1.527 4.335 0 1.212-.344 2.22-.998 2.915zm-1.324-15.244h-.006c-.78 0-1.405-.21-1.964-.656l-.037-.03.467-1.27.07.056c.358.283.822.42 1.416.42.72 0 1.216-.702 1.214-1.703-.002-1.72-.556-2.73-1.615-4.515-1.006-1.697-1.398-2.97-1.4-4.54-.002-1.236.286-2.277.832-3.01.55-.737 1.337-1.128 2.274-1.13.584 0 1.205.195 1.626.51l.026.02.003 2.09h-1.13l-.16-1.096c-.085-.028-.182-.045-.358-.045-.484.002-.903.69-.902 1.476.002 1.232.503 2.208 1.568 3.995 1.11 1.863 1.524 3.206 1.526 4.955.004 2.715-1.35 4.47-3.448 4.474zm5.58-17.736l3.48-.005.006 3.47-3.482.006-.005-3.472zm.052 35.23l-.005-3.473 3.482-.004.005 3.473-3.482.004z"/><path d="M96.29 50.28h.35l-.176-.904-.175.903zM100.06 35.08l.01 5.117c.324-.358.802-1.5.8-2.963-.003-1.418-.398-2.09-.81-2.154z"/></g></svg>