<svg width="200" height="100" viewBox="0 0 200 100" xmlns="http://www.w3.org/2000/svg"><title>sportslive24</title>,<g fill="#000" fill-rule="evenodd"><path d="M14.37 58.42c-1.098 0-2.186-.098-3.233-.293l-.444-.083.68-3.837h8.71c.283 0 .4-.096.44-.127.066-.053.146-.14.183-.35l.232-1.305h-4.493c-1.684 0-2.872-.406-3.53-1.207-.66-.8-.84-2.06-.542-3.745l.117-.66c.3-1.683.93-2.942 1.872-3.743.943-.8 2.275-1.207 3.96-1.207h8.267l-.745 4.192h-7.39c-.568 0-.793.192-.894.76l-.077.44c-.1.566.057.758.624.758h3.954c1.58 0 2.708.388 3.35 1.154.645.77.83 1.95.554 3.51l-.192 1.08c-.277 1.56-.883 2.74-1.8 3.51-.915.766-2.18 1.154-3.76 1.154H14.37zM26.54 58.355l2.928-16.492h9.784c1.684 0 2.87.406 3.53 1.207.66.8.84 2.06.542 3.744l-.39 2.197c-.3 1.685-.93 2.945-1.872 3.745-.943.8-2.275 1.207-3.96 1.207H32.39l-.78 4.393h-5.07zm10.43-8.585c.567 0 .792-.19.893-.76l.39-2.196c.1-.567-.057-.76-.624-.76h-3.835l-.66 3.716h3.834zM47.475 58.575c-1.684 0-2.872-.406-3.53-1.207-.66-.8-.84-2.06-.542-3.745l1.248-7.028c.3-1.684.93-2.944 1.874-3.745.943-.8 2.275-1.207 3.96-1.207h5.49c1.683 0 2.87.406 3.53 1.207.658.8.84 2.06.542 3.745l-1.25 7.028c-.298 1.684-.928 2.944-1.87 3.745-.944.8-2.276 1.207-3.96 1.207h-5.49zm3.14-12.74c-.566 0-.792.192-.893.76l-1.248 7.028c-.1.568.056.76.624.76h3.734c.568 0 .793-.192.894-.76l1.25-7.028c.1-.568-.058-.76-.626-.76h-3.734zM69.107 58.355L67.4 53.743h-2.185l-.82 4.612h-5.07l2.93-16.492h9.784c1.682 0 2.87.406 3.53 1.207.657.8.84 2.06.54 3.744l-.35 1.977c-.237 1.332-.642 2.352-1.238 3.12-.475.613-1.086 1.07-1.824 1.367l1.983 5.078h-5.573zm.687-8.805c.568 0 .794-.19.895-.76l.35-1.976c.1-.567-.057-.76-.625-.76H66.58l-.62 3.496h3.834zM79.233 58.355l2.184-12.3h-4.612l.745-4.192h14.296l-.745 4.192h-4.61l-2.186 12.3h-5.07zM93.475 58.42c-1.098 0-2.185-.098-3.232-.293l-.445-.083.682-3.837h8.708c.283 0 .402-.096.44-.127.066-.053.147-.14.184-.35l.232-1.305H95.55c-1.684 0-2.872-.406-3.53-1.207-.658-.8-.84-2.06-.542-3.745l.117-.66c.3-1.682.93-2.942 1.873-3.743.943-.8 2.275-1.207 3.96-1.207h8.267l-.745 4.192h-7.39c-.567 0-.793.192-.894.76l-.078.44c-.1.566.057.758.625.758h3.954c1.58 0 2.706.388 3.35 1.154.644.77.83 1.95.553 3.51l-.192 1.08c-.277 1.56-.883 2.74-1.8 3.51-.916.766-2.18 1.154-3.76 1.154h-5.843zM107.03 58.355l2.93-16.492h5.07l-2.185 12.3h8.017l-.745 4.192H107.03zM120.89 58.355l.746-4.192h1.977l1.44-8.108h-1.977l.745-4.192h9.026l-.745 4.192h-1.976l-1.44 8.108h1.977l-.744 4.192h-9.025zM136.39 58.355l-3.315-16.492h5.49l1.627 9.617 5.045-9.617h5.49l-9.174 16.492h-5.164zM148.25 58.355l2.93-16.492h13.31l-.746 4.192h-8.237l-.328 1.848h6.478l-.744 4.192h-6.48l-.367 2.068h8.237l-.745 4.192h-13.31zM177.586 38.48c-6.474 0-11.722 5.25-11.722 11.722 0 1.316.226 2.575.626 3.756l.123-.58 7.695-4.817.197-.926c.158-.74-.134-1.11-.875-1.11h-5.19l.552-2.596h5.93c1.298 0 2.177.294 2.64.88.46.587.555 1.53.28 2.826l-.08.37c-.084.397-.216.755-.395 1.076-.18.32-.397.618-.653.89-.255.27-.544.525-.865.76-.323.234-.67.47-1.04.704l-4.596 2.872h6.21l-.553 2.594h-7.896c2.118 3.035 5.63 5.024 9.612 5.024 6.473 0 11.72-5.248 11.72-11.722 0-6.473-5.247-11.72-11.72-11.72zm9.634 15.826l-.552 2.594h-3.335l.55-2.594h-6.856l.552-2.595 6.1-7.782h3.707l-6.102 7.783h3.15l.592-2.778h3.335l-.59 2.78h1.297l-.553 2.594h-1.297z"/></g></svg>