<svg width="200" height="100" viewBox="0 0 200 100" xmlns="http://www.w3.org/2000/svg"><title>sprouter</title>,<g fill="#000" fill-rule="evenodd"><path d="M155.45 60.06c-1.25 1.262-2.545 2.143-3.89 2.634-1.003.367-2.21.555-3.61.555-2.805 0-5.12-.988-6.947-2.96-1.985-2.126-2.973-4.95-2.973-8.463 0-3.42.96-6.3 2.877-8.645 1.83-2.217 3.936-3.332 6.312-3.332 2.316 0 4.176.867 5.578 2.59 1.155 1.42 1.873 3.193 2.148 5.322l-14.04 5.73c.276 2.066 1.128 3.915 2.555 5.548 1.55 1.758 3.206 2.635 4.967 2.635 1.095 0 2.235-.267 3.418-.806 1.187-.544 2.08-1.227 2.69-2.06l.914 1.25zm-3.564-13.91c0-.892-.49-1.898-1.463-3.01-1.1-1.265-2.256-1.9-3.477-1.9-2.497 0-4.235 1.11-5.21 3.334-.733 1.663-1.097 4.21-1.097 7.633l10.38-4.343c.574-.245.866-.82.866-1.713zM168 42.628c-.184-.06-.38-.11-.596-.142-.213-.03-.502-.045-.866-.045-1.313 0-2.35.296-3.114.88-1.124.865-1.687 2.313-1.687 4.347v8.277l.228 7.025h-3.067l.277-7.026v-11.05c0-1.85-.2-3.377-.594-4.578h2.7c.303.987.457 1.864.457 2.635v.648c.633-1.728 1.86-2.85 3.675-3.375.605-.153 1.468-.245 2.588-.276v2.68zM68.743 51.507c0 3.125-.993 5.83-2.97 8.102-1.987 2.274-4.2 3.413-6.644 3.413-1.89 0-3.515-.634-4.877-1.902l-.045 3.67.183 7.197h-3.017l.28-7.197V47.233l-.372-7.06h2.928v2.18c1.88-1.885 3.902-2.828 6.06-2.828 2.41 0 4.42 1.096 6.043 3.297 1.623 2.198 2.433 5.09 2.433 8.685m-2.787-.094c0-3.562-.67-6.222-2.004-7.987-1.15-1.488-2.644-2.23-4.477-2.23-.934 0-1.88.308-2.845.93-.964.617-1.773 1.453-2.422 2.503V59.12c.493.773 1.17 1.388 2.025 1.834.854.45 1.718.677 2.59.677 1.988 0 3.604-.728 4.85-2.185 1.523-1.765 2.283-4.443 2.283-8.035M82.533 42.496c-.183-.063-.388-.106-.602-.142-.22-.028-.512-.045-.884-.045-1.33 0-2.382.294-3.156.883-1.147.867-1.718 2.32-1.718 4.366v8.31l.232 7.06h-3.112l.28-7.06V44.776c0-1.862-.204-3.392-.608-4.602h2.74c.31.992.468 1.875.468 2.65v.646c.644-1.734 1.888-2.862 3.734-3.387.613-.158 1.49-.25 2.627-.28v2.693zM101.988 51.667c0 3.63-.944 6.53-2.833 8.706-1.734 2.013-3.917 3.02-6.547 3.02-2.633 0-4.83-1.06-6.593-3.183-1.767-2.126-2.65-4.99-2.65-8.588 0-3.63.883-6.492 2.65-8.585 1.763-2.095 3.978-3.142 6.638-3.142 2.662 0 4.886 1.064 6.667 3.187 1.777 2.127 2.668 4.99 2.668 8.585m-2.926 0c0-3.382-.648-5.988-1.943-7.82-1.143-1.612-2.655-2.42-4.535-2.42-1.85 0-3.334.748-4.443 2.236-1.296 1.77-1.943 4.42-1.943 7.96 0 3.535.632 6.176 1.895 7.91 1.11 1.523 2.606 2.285 4.49 2.285 1.85 0 3.392-.908 4.625-2.725 1.235-1.815 1.852-4.288 1.852-7.426M122.91 40.083l-.417 6.805v9.375c0 2.8.107 5.02.324 6.666h-2.925v-3.25c-1.236 1.24-2.4 2.12-3.483 2.648-.836.403-1.706.6-2.603.6-2.352 0-4.27-.6-5.758-1.807-1.486-1.208-2.23-2.925-2.23-5.156v-9.146l-.327-6.735h3.297l-.37 6.547v9.428c0 1.794.635 3.127 1.903 3.994 1.083.74 2.462 1.116 4.135 1.116.93 0 1.842-.326 2.742-.976.554-.402 1.456-1.222 2.692-2.462V46.91c0-.65-.03-1.643-.09-2.973l-.187-3.854h3.296zM136.838 62.373c-.462.28-.973.472-1.53.58-.558.108-1.147.163-1.766.163-1.425 0-2.524-.434-3.296-1.298-.775-.87-1.16-2.09-1.16-3.67V41.473h-3.905v-1.3h3.905V36.83l-.235-4.135h2.787v7.478h4.83v1.3h-4.83v15.93c0 1.61.18 2.686.536 3.23.356.544.966.81 1.834.81.466 0 .96-.098 1.485-.3.528-.202.976-.488 1.346-.86v2.09zM43.614 39.845l-.03.068c.03-.018.058-.043.09-.063-.02 0-.04 0-.06-.005M46.748 53.083c-.866-.958-2.26-1.827-4.178-2.6l-2.047-.837c-1.61-.678-2.73-1.334-3.367-1.97-.635-.636-.952-1.343-.952-2.116 0-.987.39-1.87 1.16-2.647.902-.895 2.093-1.346 3.58-1.346.49 0 1.003.06 1.54.162-.022-.17-.008-.34.023-.508-.324-.176-.74-.42-.806-.538-.062-.114.085-.587.22-.963-.078-.004-.154-.01-.235-.01-2.294 0-4.257.665-5.9 1.996-1.515 1.24-2.275 2.65-2.275 4.228 0 1.27.418 2.337 1.257 3.204.958.992 2.74 2.045 5.34 3.157l1.716.744c1.332.68 2.27 1.316 2.812 1.904.54.587.812 1.237.812 1.95 0 .308-.044.68-.14 1.112-.28 1.116-.913 1.985-1.905 2.6-.988.623-2.243.93-3.76.93-1.115 0-2.277-.197-3.48-.603-1.21-.4-2.262-1.004-3.162-1.81v2.46c1.086.59 2.22 1.01 3.415 1.255 1.19.248 2.42.373 3.69.373 1.92 0 3.57-.45 4.95-1.35 1.376-.896 2.266-2.008 2.667-3.34.092-.373.17-.736.234-1.093.06-.355.09-.658.09-.906 0-1.326-.43-2.474-1.298-3.437"/><path d="M42.713 40.478c3.403 2.138 10.917-.608 10.037-11.456-.906 6.694-9.886 3.575-10.037 11.456"/><path d="M42.01 38.998c-5.983-2.27.11-6.234-2.467-10.985 2.986 2.07 4.528 5.093 2.466 10.985"/></g></svg>