<svg width="200" height="100" viewBox="0 0 200 100" xmlns="http://www.w3.org/2000/svg"><title>statusnet</title>,<g fill="#000" fill-rule="evenodd"><path d="M30.147 60c-2.956 0-5.37-.543-7.323-2.55l3.038-3.036c1.004 1.003 2.766 1.356 4.312 1.356 1.87 0 2.766-.624 2.766-1.736 0-.46-.11-.84-.38-1.14-.244-.243-.65-.433-1.273-.515l-2.334-.326c-1.708-.244-3.01-.813-3.877-1.71-.895-.92-1.33-2.223-1.33-3.876 0-3.526 2.658-6.102 7.05-6.102 2.768 0 4.856.65 6.51 2.305l-2.983 2.984c-1.22-1.22-2.82-1.138-3.66-1.138-1.655 0-2.333.948-2.333 1.788 0 .245.082.598.38.896.243.243.65.49 1.328.57l2.332.324c1.735.245 2.984.787 3.798 1.6 1.03 1.004 1.436 2.44 1.436 4.23 0 3.934-3.39 6.076-7.457 6.076zM47.636 44.51v14.774h-4.65V44.51h-4.65v-4.144h13.95v4.145h-4.65zM63.002 59.284l-.877-2.816h-5.818l-.93 2.816h-4.863l6.882-18.918h3.587l6.882 18.918h-4.863zM59.31 47.54l-1.702 5.05h3.295l-1.594-5.05zM75.852 44.51v14.774h-4.65V44.51h-4.65v-4.144H80.5v4.145h-4.648zM90.038 59.444c-3.933 0-7.147-2.658-7.147-6.802V40.366h4.65v12.17c0 1.753.958 2.762 2.498 2.762 1.54 0 2.55-1.01 2.55-2.762v-12.17h4.65v12.276c0 4.144-3.268 6.802-7.2 6.802zM106.023 60c-2.956 0-5.37-.543-7.323-2.55l3.038-3.036c1.004 1.003 2.766 1.356 4.312 1.356 1.87 0 2.767-.624 2.767-1.736 0-.46-.11-.84-.38-1.14-.244-.243-.652-.433-1.276-.515l-2.33-.326c-1.708-.244-3.01-.813-3.878-1.71-.896-.92-1.33-2.223-1.33-3.876 0-3.526 2.66-6.102 7.052-6.102 2.766 0 4.854.65 6.51 2.305l-2.985 2.984c-1.222-1.22-2.82-1.138-3.66-1.138-1.656 0-2.334.948-2.334 1.788 0 .245.08.598.38.896.244.243.65.49 1.33.57l2.33.324c1.736.245 2.984.787 3.798 1.6 1.03 1.004 1.437 2.44 1.437 4.23 0 3.934-3.39 6.076-7.457 6.076zM139.513 59.615V48.108c0-2.592-1.644-3.47-3.14-3.47-1.5 0-3.18.878-3.18 3.47v11.507h-4.748v-19.03h4.64v1.753c1.24-1.315 2.995-1.972 4.748-1.972 1.9 0 3.433.62 4.493 1.68 1.534 1.534 1.936 3.324 1.936 5.405v12.165h-4.75zM151.277 51.58c0 2.446 1.497 4.236 4.164 4.236 2.082 0 3.105-.585 4.31-1.79l2.886 2.814c-1.936 1.936-3.798 2.995-7.232 2.995-4.493 0-8.803-2.046-8.803-9.754 0-6.208 3.36-9.714 8.293-9.714 5.296 0 8.29 3.87 8.29 9.095v2.12h-11.906zm6.793-5.297c-.51-1.133-1.57-1.972-3.177-1.972-1.608 0-2.667.84-3.18 1.973-.29.694-.4 1.205-.436 2.045h7.232c-.038-.84-.147-1.35-.44-2.045zM173.526 44.51v14.774h-4.65V44.51h-4.65v-4.144h13.95v4.145h-4.65zM124.56 45.232v8.204h-7.385v-8.204h7.384z"/></g></svg>