<svg width="200" height="100" viewBox="0 0 200 100" xmlns="http://www.w3.org/2000/svg"><title>switch</title>,<g fill="#000" fill-rule="evenodd"><path d="M53.52 63.483c-2.254 0-4.394-.35-6.42-1.05-2.028-.7-3.82-1.75-5.38-3.15l3.886-4.65c2.518 2.015 5.24 3.022 8.167 3.022.935 0 1.648-.15 2.14-.448.49-.3.737-.725.737-1.276v-.07c0-.264-.06-.497-.18-.7-.12-.204-.34-.4-.665-.593-.324-.19-.755-.377-1.295-.557-.54-.18-1.24-.365-2.105-.557-1.343-.31-2.59-.652-3.74-1.023-1.152-.37-2.154-.85-3.005-1.437-.852-.586-1.523-1.316-2.015-2.19-.492-.874-.737-1.958-.737-3.25v-.072c0-1.172.22-2.25.666-3.23.443-.982 1.09-1.832 1.942-2.55.85-.72 1.877-1.275 3.076-1.67 1.2-.395 2.554-.593 4.065-.593 2.16 0 4.083.284 5.774.85 1.692.568 3.22 1.407 4.588 2.517l-3.49 4.943c-1.15-.815-2.332-1.433-3.543-1.853-1.212-.42-2.38-.63-3.508-.63-.84 0-1.47.157-1.888.468-.42.31-.63.694-.63 1.15v.07c0 .288.065.54.197.755.132.215.36.413.683.593.324.18.768.36 1.332.538.563.18 1.277.366 2.14.557 1.44.31 2.74.676 3.903 1.095 1.164.42 2.153.928 2.968 1.526.815.6 1.44 1.323 1.87 2.173.433.85.648 1.86.648 3.033v.072c0 1.293-.245 2.443-.736 3.448-.492 1.006-1.18 1.86-2.068 2.567-.888.707-1.955 1.245-3.202 1.616-1.248.372-2.64.557-4.173.557zM64.025 43.59h6.69l2.555 9.784 2.986-9.857h5.65l3.02 9.93 2.627-9.858h6.583l-6.008 19.605h-5.9l-3.165-10.11-3.238 10.11H69.96L64.026 43.59zM95.25 40.927V37.87h7.772v3.057l-2.087 13.922h-3.597L95.25 40.926zm.325 16.01h7.123v6.114h-7.123v-6.114zM113.31 63.447c-2.075 0-3.69-.49-4.847-1.475-1.157-.983-1.736-2.638-1.736-4.965v-7.914h-2.302V43.59h2.302v-4.93h6.87v4.93h4.534v5.503H113.6v6.583c0 .696.156 1.194.468 1.494.31.3.78.45 1.403.45.454 0 .898-.06 1.33-.18.432-.12.85-.276 1.26-.47v5.362c-.625.336-1.332.606-2.123.81-.792.203-1.668.305-2.628.305zM129.176 63.52c-1.464 0-2.82-.27-4.066-.81-1.247-.54-2.32-1.265-3.22-2.177-.9-.91-1.606-1.984-2.122-3.22-.516-1.235-.774-2.536-.774-3.903v-.072c0-1.367.258-2.668.774-3.903.516-1.235 1.23-2.315 2.14-3.238.912-.923 2.01-1.655 3.292-2.194 1.283-.54 2.692-.81 4.227-.81 2.015 0 3.693.396 5.037 1.187 1.343.792 2.434 1.847 3.274 3.166L133.098 51c-.48-.648-.996-1.152-1.548-1.51-.552-.36-1.247-.54-2.087-.54-.552 0-1.06.113-1.53.34-.466.23-.868.54-1.204.936-.337.396-.6.852-.792 1.367-.193.516-.288 1.074-.288 1.673v.072c0 .624.095 1.205.288 1.745.19.54.455 1.007.79 1.403.337.396.744.707 1.224.935.48.23 1.008.343 1.583.343.815 0 1.505-.18 2.07-.54.562-.36 1.12-.85 1.672-1.475l4.57 3.31c-.913 1.344-2.052 2.423-3.42 3.238-1.366.815-3.117 1.223-5.25 1.223zM138.997 36.79h6.87v9.46c.616-.814 1.386-1.534 2.31-2.158.924-.623 2.073-.935 3.447-.935 2.098 0 3.73.636 4.9 1.907 1.17 1.27 1.755 3.02 1.755 5.252V63.05h-6.872V52.51c0-1.08-.25-1.894-.746-2.446-.497-.55-1.15-.827-1.953-.827-.83 0-1.51.276-2.043.827-.533.552-.8 1.367-.8 2.446v10.54h-6.87V36.79z"/></g></svg>