<?xml version="1.0" encoding="utf-8"?>
<!-- Generator: Adobe Illustrator 19.2.0, SVG Export Plug-In . SVG Version: 6.00 Build 0)  -->
<svg version="1.1" id="Layer_1" xmlns="http://www.w3.org/2000/svg" xmlns:xlink="http://www.w3.org/1999/xlink" x="0px" y="0px"
	 viewBox="0 0 200 100" style="enable-background:new 0 0 200 100;" xml:space="preserve">
<title>thescore</title>
<g>
	<path d="M30.370001,43.375999l-1.132999,4.015999h-2.872l-1.872999,6.75c-0.587999,2.071999-0.702,2.577999,2.055,2.856998
		l-1.096001,3.997002l-4.379999,0.243999c-5.79,0.342999-6.853001-1.154999-5.604-5.612999l2.271999-8.235001h-1.062
		l1.132999-4.014999h1.066l0.955-3.439999l9.146-1.874001l-1.465,5.313999h2.860001 M47.549999,42.978001
		C50.778,42.921001,53.25,44.07,52.145,48.088001l-1.845001,6.612c-0.476002,1.706001-0.476002,1.924999,0.369999,2.321999
		l-1.104,3.934002h-9.205997c0.028-1.110001-0.188-1.02,0.880001-4.806l0.186001-0.674l1.428001-5.145
		c0.254002-0.896,0.580002-2.273998-1.465-2.444c-0.369999,0-0.740002,0.060001-1.134998,0.200001l-1.854004,6.612999
		c-0.486,1.591999-0.59,1.902,0.405998,2.321999l-1.103001,3.934002H26.938L28.041,57.022003
		c1.247-0.473999,1.325001-0.896999,1.690001-2.213001l3.226999-11.556c0.294998-1.169998,0.477001-1.922001-0.473999-2.310001
		l1.096001-3.939999h9.755001l-1.98,7.119999c1.245998-0.509998,2.964001-1.118,6.194-1.146 M65.785004,49.734001h-3.376999
		c0.627998-2.23,1.245998-2.518002,2.347-2.484001C66.305008,47.272999,66.195007,48.290001,65.785004,49.734001 M53.679005,49.924
		l-1.32,4.779999c-0.366001,1.337002-0.585999,2.424-0.477001,3.266998c0.327,2.619999,3.187,3.547001,10.077999,3.518002
		c3.493-0.022999,7.130001-0.896999,9.661999-2.259998l1.244003-4.417h-8.659996l-0.18,0.652
		c-0.553001,1.973999-1.580002,1.948002-2.175999,1.916c-1.403999-0.021999-1.367001-0.830002-1.035-2.004002l0.445-1.627998
		h11.905998L74.344009,49.591c1.470001-5.329998-1.847-6.450001-8.664001-6.450001c-9.252998,0-10.896,2.907001-12,6.785
		 M89.870003,41.696999c-2.067001-0.029999-2.578003,1.763-2.464996,2.355c0.255997,1.389999,4.664001,1.896,6.989998,2.535999
		c4.589996,1.290001,5.218002,3.634998,4.333,6.715l-0.032997,0.112999c-1.400002,5.004002-5.372002,7.982998-14.292,8.012001
		c-4.739998,0.029999-8.307999-0.834-10.666-2.505001l1.769997-6.433998h9.550003
		c-0.143997,0.610001-0.321999,1.207001-0.472,1.792999c-0.181999,0.610001-0.547997,1.953999,1.5,1.985001
		c0.730003,0.026001,1.945999-0.301998,2.419998-1.844002c0.663002-2.186001-0.764999-2.576-4.724998-3.334
		c-3.824997-0.75-7.866997-1.644001-6.318001-7.213001c1.400002-5.004002,5.545998-7.335999,13.354996-7.335999
		c4.604004,0,7.953003,0.638,10.923996,2.504002l-1.57,5.645h-9.159996L91.121002,44.243
		c0.514-1.846001,0.18-2.522999-1.25-2.547001 M114,48.486c0.237-0.827999,0.277-1.367001,0.036003-1.66
		c-0.156998-0.299999-0.507004-0.439999-1.129997-0.439999c-1.290001,0-1.796997,0.321999-2.349998,2.34l-1.667999,5.943001
		c-0.580002,2.130001-0.155998,2.391998,1.005997,2.424c1.099998,0,1.803001-0.321999,2.540001-2.987l0.276001-0.976002h8.643997
		L119.752007,58.903c-2.503998,1.543999-6.107002,2.525002-11.519997,2.554001
		c-9.173996,0.029999-9.524002-3.143002-8.510002-6.849998l1.75-6.211998c1.106003-3.91,3.449997-6.348,11.977997-6.376999
		c5.447998-0.025002,8.449997,1.012001,10.363998,2.318001L122.416,49.432007h-8.652l0.157997-0.595001l0.080002-0.349998
		 M131.117004,54.549999l1.477997-5.386002c0.473007-1.564999,0.815994-2.813999,2.539993-2.776001
		c1.138,0,1.602997,0.497002,0.947006,2.776001l-1.492996,5.387001c-0.737,2.604-1.567993,2.577999-2.496002,2.543999
		c-1.639999-0.032001-1.479996-0.827999-0.977005-2.542999 M143.968994,53.961998l1.363998-4.855999
		c1.487-5.299999-0.190002-7.139999-9.572006-7.085999c-9.246002,0.060001-10.970001,2.342999-12.300003,7.085999l-1.364998,4.855
		c-1.686996,5.950001,0.077003,7.526001,9.131996,7.502998c8.289993-0.035,11.095993-1.696999,12.740005-7.504002
		 M162.149994,41.977001l1.044006,0.088001l-1.755005,6.376999c-3.320007,0-4.843002,0.68-5.667999,3.560001l-0.507004,1.813
		c-0.311996,1.165001-1.253998,2.292999,0.462997,3.098l-1.166,4.167h-11.649994l1.173996-4.233002
		c0.546997-0.208,1.246994-0.415001,1.837997-2.470001l1.479996-5.284c0.436005-1.567001,0.507004-1.896-0.423996-2.459999
		L148.14299,42.395h9.886993l-0.427002,1.48c1.645996-1.540001,2.822998-1.897999,4.546997-1.897999 M175.425003,48.972h-3.604004
		c0.669998-2.327,1.335999-2.625,2.503006-2.591999c1.645004,0.032001,1.524994,1.096001,1.102005,2.591999 M162.534012,49.179001
		l-1.399994,5.066002c-0.395004,1.427002-0.634003,2.583-0.513,3.472c0.352997,2.792999,3.404999,3.768002,10.736008,3.744999
		c3.714005-0.035,7.591995-0.952,10.307007-2.404999l1.320007-4.689999h-9.240005l-0.199997,0.685001
		c-0.585999,2.099998-1.679993,2.075001-2.309998,2.040001c-1.503006-0.029999-1.455002-0.884998-1.102997-2.124001l0.477997-1.723
		h12.679993l1.259995-4.416c1.565002-5.613998-1.955002-6.813-9.244003-6.813c-9.834,0-11.600006,3.09-12.770004,7.161999
		 M95.059998,67.5l1.223999-4.294998h-23.708l-1.220001,4.293999h23.704002"/>
</g>
</svg>
