<svg width="200" height="100" viewBox="0 0 200 100" xmlns="http://www.w3.org/2000/svg"><title>torontofilmchallenge</title>,<g transform="translate(18 21)" fill="#000" fill-rule="evenodd"><path d="M10.984 11.22v3.128H7.542v8.472c0 .793.13 1.325.396 1.59.265.264.796.396 1.59.396.265 0 .52-.012.764-.035.242-.017.473-.052.692-.096v3.65c-.395.057-.837.097-1.323.118-.486.02-.96.03-1.423.03-.73 0-1.416-.05-2.068-.15-.65-.1-1.222-.292-1.72-.578-.496-.288-.886-.695-1.17-1.225-.287-.53-.43-1.223-.43-2.084V14.348H0V11.22h2.85V-.023h4.692V11.22h3.442zM12.503 16.053c.42-1.116 1.015-2.068 1.787-2.85.77-.786 1.695-1.395 2.778-1.825 1.078-.43 2.29-.646 3.635-.646 1.345 0 2.565.215 3.654.646 1.092.43 2.023 1.04 2.794 1.824.773.783 1.367 1.735 1.788 2.85.417 1.117.63 2.36.63 3.73s-.213 2.607-.63 3.712c-.42 1.106-1.015 2.05-1.787 2.833-.77.787-1.7 1.387-2.793 1.807-1.09.42-2.31.63-3.654.63-1.344 0-2.557-.21-3.635-.63-1.083-.42-2.007-1.02-2.778-1.807-.772-.782-1.368-1.727-1.787-2.833-.42-1.105-.627-2.342-.627-3.713 0-1.37.207-2.61.627-3.727zm4.263 5.737c.13.65.357 1.235.677 1.752.32.52.747.932 1.275 1.24.53.308 1.19.463 1.985.463.794 0 1.464-.155 2.004-.462.542-.31.973-.722 1.29-1.24.32-.518.547-1.104.68-1.753.13-.65.196-1.32.196-2 0-.684-.065-1.358-.196-2.018-.133-.66-.36-1.247-.68-1.753-.317-.508-.748-.924-1.29-1.242-.54-.32-1.21-.48-2.004-.48s-1.456.16-1.985.48c-.528.318-.954.734-1.275 1.24-.32.507-.546 1.093-.677 1.754-.133.66-.198 1.334-.198 2.018 0 .68.065 1.35.198 2zM35.185 11.216v3.18h.07c.227-.534.525-1.027.902-1.48.376-.457.806-.847 1.292-1.17.486-.322 1.005-.57 1.56-.75.55-.176 1.122-.264 1.72-.264.31 0 .65.055 1.027.166v4.396c-.22-.043-.484-.082-.793-.115-.312-.033-.61-.052-.897-.052-.86 0-1.592.145-2.188.43-.596.288-1.078.678-1.44 1.177-.366.495-.626 1.073-.78 1.733-.152.662-.228 1.38-.228 2.15v7.706h-4.745V11.216h4.498zM42.38 16.053c.417-1.116 1.016-2.068 1.788-2.85.768-.786 1.695-1.395 2.778-1.825 1.077-.43 2.29-.646 3.635-.646 1.346 0 2.563.215 3.654.646 1.09.43 2.024 1.04 2.797 1.824.77.783 1.366 1.735 1.785 2.85.418 1.117.628 2.36.628 3.73s-.21 2.607-.628 3.712c-.42 1.106-1.015 2.05-1.784 2.833-.772.787-1.705 1.387-2.796 1.807-1.09.42-2.308.63-3.653.63-1.343 0-2.557-.21-3.634-.63-1.083-.42-2.01-1.02-2.778-1.807-.772-.782-1.37-1.727-1.787-2.833-.418-1.105-.626-2.342-.626-3.713 0-1.37.208-2.61.627-3.727zm4.264 5.737c.13.65.357 1.235.678 1.752.32.52.746.932 1.273 1.24.532.308 1.193.463 1.986.463.794 0 1.463-.155 2.006-.462.54-.31.97-.722 1.29-1.24.32-.518.543-1.104.68-1.753.13-.65.195-1.32.195-2 0-.684-.064-1.358-.195-2.018-.136-.66-.36-1.247-.68-1.753-.32-.508-.75-.924-1.29-1.242-.542-.32-1.21-.48-2.004-.48-.792 0-1.453.16-1.985.48-.527.318-.953.734-1.273 1.24-.32.507-.547 1.093-.678 1.754-.133.66-.2 1.334-.2 2.018 0 .68.067 1.35.2 2zM65.96 11.198v2.385h.102c.593-.993 1.366-1.718 2.314-2.172.95-.45 1.92-.678 2.912-.678 1.258 0 2.288.17 3.093.514.807.342 1.44.816 1.904 1.423.464.608.788 1.347.976 2.22.188.872.283 1.84.283 2.897v10.537h-4.69v-9.67c0-1.415-.224-2.468-.663-3.165-.442-.696-1.225-1.045-2.35-1.045-1.276 0-2.2.38-2.774 1.143-.573.763-.86 2.016-.86 3.76v34.2h-4.74v-42.35h4.493zM88.92 11.22v3.128h-3.444v8.472c0 .793.134 1.325.397 1.59.266.264.797.396 1.592.396.264 0 .52-.012.764-.035.238-.017.47-.052.69-.096v3.65c-.396.057-.84.097-1.322.118-.487.02-.964.03-1.426.03-.73 0-1.415-.05-2.067-.15-.65-.1-1.22-.292-1.718-.578-.495-.288-.885-.695-1.173-1.225-.285-.53-.43-1.223-.43-2.084V14.348h-2.848V11.22h2.848V-.023h4.692V11.22h3.444zM89.625 16.053c.418-1.116 1.012-2.068 1.784-2.85.77-.786 1.693-1.395 2.777-1.825 1.08-.43 2.29-.646 3.635-.646 1.348 0 2.565.215 3.655.646 1.09.43 2.02 1.04 2.795 1.824.77.783 1.365 1.735 1.785 2.85.42 1.117.627 2.36.627 3.73s-.207 2.607-.627 3.712c-.42 1.106-1.016 2.05-1.785 2.833-.775.787-1.704 1.387-2.795 1.807-1.09.42-2.307.63-3.655.63-1.344 0-2.556-.21-3.635-.63-1.084-.42-2.007-1.02-2.778-1.807-.773-.782-1.367-1.727-1.785-2.833-.424-1.105-.63-2.342-.63-3.713 0-1.37.206-2.61.63-3.727zm4.258 5.737c.133.65.36 1.235.678 1.752.322.52.746.932 1.277 1.24.528.308 1.192.463 1.985.463.792 0 1.462-.155 2.002-.462.542-.31.972-.722 1.293-1.24.32-.518.543-1.104.68-1.753.13-.65.198-1.32.198-2 0-.684-.068-1.358-.2-2.018-.135-.66-.358-1.247-.678-1.753-.32-.508-.75-.924-1.293-1.242-.54-.32-1.21-.48-2.002-.48-.793 0-1.457.16-1.985.48-.53.318-.955.734-1.276 1.24-.318.507-.544 1.093-.677 1.754-.13.66-.2 1.334-.2 2.018 0 .68.07 1.35.2 2zM112.438 14.348V11.22h2.813V9.89c0-1.528.476-2.78 1.424-3.755.944-.977 2.378-1.462 4.296-1.462.42 0 .842.017 1.26.055.417.035.827.065 1.228.09v3.518c-.553-.063-1.126-.098-1.725-.098-.64 0-1.1.15-1.375.448-.275.298-.415.8-.415 1.506v1.028h3.248v3.128h-3.247v24.885h-4.692V14.348h-2.812zM129.55 11.194v17.13h-4.693v-17.13h4.692zM135.904-.023v28.347h-4.692V-.023h4.692zM142.288 11.198v2.318h.066c.617-.883 1.362-1.57 2.233-2.054.873-.487 1.873-.73 3-.73 1.08 0 2.07.208 2.966.628.89.42 1.57 1.162 2.035 2.223.508-.75 1.2-1.413 2.07-1.99.878-.574 1.912-.86 3.107-.86.904 0 1.744.11 2.516.33.78.222 1.44.575 1.995 1.06.553.486.983 1.123 1.293 1.905.31.784.466 1.73.466 2.832v11.464h-4.69V18.62c0-.577-.024-1.117-.068-1.624-.045-.507-.166-.95-.368-1.326-.2-.374-.494-.672-.882-.893-.387-.22-.917-.332-1.58-.332-.666 0-1.204.13-1.616.38-.41.255-.733.59-.965.996-.234.41-.39.873-.467 1.392-.08.52-.115 1.043-.115 1.573v9.54h-4.693v-9.607c0-.507-.01-1.01-.034-1.506-.022-.498-.116-.954-.282-1.374-.166-.422-.446-.758-.833-1.012-.387-.252-.957-.38-1.712-.38-.225 0-.518.05-.885.15-.366.098-.72.285-1.063.56-.346.277-.64.675-.884 1.195s-.367 1.198-.367 2.036v9.938h-4.69V11.198h4.448zM9.005 39.522c-.75 0-1.38.173-1.89.514-.504.343-.922.78-1.24 1.324-.324.54-.55 1.135-.68 1.785-.133.65-.198 1.294-.198 1.935 0 .617.065 1.245.198 1.883.13.642.347 1.22.645 1.738.3.52.703.944 1.21 1.275.508.33 1.126.494 1.86.494 1.122 0 1.99-.315 2.596-.944.61-.63.99-1.476 1.145-2.536h4.54c-.31 2.276-1.195 4.012-2.652 5.207-1.458 1.193-3.326 1.79-5.598 1.79-1.282 0-2.46-.215-3.528-.646-1.07-.43-1.98-1.03-2.73-1.804-.747-.775-1.33-1.695-1.75-2.77-.417-1.07-.627-2.246-.627-3.53 0-1.324.193-2.56.58-3.696.383-1.137.95-2.12 1.7-2.95.75-.828 1.663-1.473 2.744-1.937 1.08-.465 2.317-.698 3.708-.698 1.017 0 1.994.133 2.934.398.94.265 1.776.67 2.517 1.21.74.54 1.338 1.218 1.804 2.024.465.806.732 1.762.798 2.867h-4.608c-.31-1.952-1.47-2.932-3.48-2.932zM23.455 29.895v8.913h.1c.592-.995 1.354-1.718 2.28-2.172.924-.454 1.828-.68 2.71-.68 1.256 0 2.287.17 3.09.513.805.34 1.438.815 1.9 1.425.465.607.787 1.346.978 2.22.186.87.28 1.838.28 2.898v10.535H30.1v-9.67c0-1.415-.22-2.468-.658-3.166-.443-.693-1.228-1.043-2.35-1.043-1.276 0-2.204.38-2.778 1.142-.572.763-.86 2.016-.86 3.76v8.976h-4.69V29.895h4.69zM37.398 38.93c.483-.727 1.1-1.31 1.85-1.75.75-.442 1.594-.755 2.53-.942.937-.19 1.878-.283 2.828-.283.86 0 1.73.062 2.61.182.883.124 1.687.36 2.415.714.73.356 1.322.847 1.787 1.475.463.63.694 1.466.694 2.502v8.918c0 .773.045 1.513.132 2.22.088.707.245 1.237.465 1.59l-4.763-.007c-.09-.264-.158-.535-.215-.81-.054-.276-.092-.56-.115-.846-.75.776-1.632 1.32-2.647 1.63-1.015.31-2.052.466-3.11.466-.817 0-1.58-.1-2.286-.297-.705-.2-1.322-.51-1.852-.93-.528-.422-.943-.952-1.238-1.592-.3-.644-.45-1.405-.45-2.29 0-.976.172-1.778.515-2.408.34-.632.783-1.134 1.325-1.512.54-.374 1.156-.657 1.852-.844.695-.188 1.393-.34 2.102-.45.704-.11 1.4-.198 2.085-.265.684-.068 1.293-.167 1.822-.3.528-.133.95-.326 1.26-.58.307-.255.45-.626.428-1.113 0-.51-.084-.912-.25-1.213-.163-.298-.384-.53-.662-.694-.276-.168-.595-.278-.96-.333-.362-.055-.755-.084-1.174-.084-.927 0-1.653.2-2.185.6-.532.396-.84 1.06-.93 1.99h-4.69c.066-1.1.342-2.016.828-2.743zm9.277 6.645c-.3.1-.62.183-.963.25-.343.067-.7.122-1.075.166-.377.046-.753.1-1.13.165-.35.068-.7.157-1.04.266-.346.11-.644.26-.896.448-.255.188-.46.425-.613.713-.157.288-.23.65-.23 1.093 0 .42.073.775.23 1.062.153.287.362.513.63.678.263.167.575.284.927.348.352.067.718.1 1.095.1.925 0 1.645-.154 2.15-.464.51-.308.885-.678 1.13-1.11.24-.43.39-.867.446-1.306.056-.444.084-.796.084-1.06V45.16c-.2.176-.447.315-.745.413zM58.652 29.895v23.653h-4.69V29.895h4.69z"/><path d="M73.51 49.44c.708.686 1.726 1.03 3.05 1.03.95 0 1.766-.236 2.452-.706.686-.47 1.104-.97 1.26-1.494h4.143c-.664 2.05-1.68 3.516-3.048 4.397-1.372.88-3.03 1.32-4.973 1.32-1.346 0-2.56-.215-3.642-.646-1.082-.43-1.998-1.043-2.743-1.838-.752-.796-1.33-1.745-1.737-2.85-.41-1.106-.612-2.32-.612-3.648 0-1.28.212-2.473.628-3.58.42-1.104 1.015-2.06 1.786-2.866.77-.807 1.688-1.44 2.76-1.905 1.07-.465 2.257-.698 3.56-.698 1.458 0 2.73.283 3.812.846 1.08.564 1.97 1.32 2.667 2.268.695.95 1.197 2.03 1.508 3.246.31 1.212.42 2.482.33 3.807H72.354c.066 1.528.45 2.634 1.157 3.32zm5.322-8.996c-.565-.614-1.42-.922-2.568-.922-.752 0-1.378.13-1.875.38-.498.25-.894.563-1.195.937-.295.37-.505.765-.627 1.182-.12.415-.195.788-.214 1.117h7.652c-.22-1.185-.613-2.082-1.174-2.696zM90.312 36.422v2.386h.1c.595-.995 1.364-1.718 2.317-2.172.943-.454 1.917-.68 2.91-.68 1.254 0 2.286.17 3.092.513.805.34 1.442.815 1.903 1.425.463.607.788 1.346.98 2.22.185.87.278 1.838.278 2.898v10.535H97.2v-9.67c0-1.415-.218-2.468-.66-3.166-.44-.693-1.222-1.043-2.347-1.043-1.28 0-2.204.38-2.777 1.142-.572.763-.86 2.016-.86 3.76v8.976h-4.74V36.422h4.496zM119.66 54.804c-.187.882-.592 1.705-1.217 2.465-.62.76-1.52 1.404-2.692 1.935-1.175.528-2.744.795-4.707.795-.843 0-1.698-.105-2.57-.317-.87-.21-1.667-.538-2.385-.98-.718-.447-1.314-1.018-1.79-1.712-.474-.7-.745-1.536-.813-2.513h4.673c.22.9.653 1.522 1.293 1.872.64.347 1.38.52 2.22.52 1.325 0 2.29-.398 2.9-1.194.608-.798.9-1.806.88-3.025v-2.26h-.05c-.51.914-1.234 1.587-2.172 2.02-.937.434-1.928.65-2.967.65-1.28 0-2.385-.226-3.313-.68-.928-.45-1.69-1.07-2.286-1.858-.6-.78-1.033-1.7-1.31-2.75-.274-1.048-.41-2.16-.41-3.33 0-1.105.156-2.17.48-3.2.32-1.027.787-1.933 1.405-2.718.62-.784 1.386-1.407 2.305-1.87.916-.466 1.97-.7 3.165-.7 1.127 0 2.114.213 2.966.636.85.42 1.563 1.13 2.14 2.13h.05v-2.283h4.493v16.02c0 .683-.093 1.463-.282 2.347zm-6.464-5.708c.508-.264.926-.618 1.256-1.057.333-.44.582-.94.745-1.502.167-.56.252-1.152.252-1.766 0-.704-.07-1.37-.203-1.998-.13-.627-.35-1.183-.66-1.668-.31-.483-.72-.87-1.23-1.154-.504-.286-1.147-.43-1.92-.43-.66 0-1.23.135-1.704.396-.477.264-.874.624-1.194 1.074-.322.45-.55.968-.693 1.55-.144.584-.217 1.196-.217 1.833 0 .617.06 1.228.18 1.833.122.605.332 1.15.63 1.635.297.484.692.88 1.18 1.19.484.306 1.088.46 1.817.46.663 0 1.25-.13 1.76-.397zM127.21 49.44c.71.686 1.723 1.03 3.048 1.03.95 0 1.767-.236 2.455-.706.68-.47 1.104-.97 1.26-1.494h4.14c-.663 2.05-1.68 3.516-3.05 4.397-1.372.88-3.026 1.32-4.97 1.32-1.347 0-2.56-.215-3.642-.646-1.08-.43-1.998-1.043-2.743-1.838-.75-.796-1.327-1.745-1.737-2.85-.407-1.106-.61-2.32-.61-3.648 0-1.28.21-2.473.63-3.58.418-1.104 1.008-2.06 1.782-2.866.77-.807 1.69-1.44 2.76-1.905 1.07-.465 2.257-.698 3.562-.698 1.456 0 2.73.283 3.81.846 1.082.564 1.968 1.32 2.668 2.268.693.95 1.196 2.03 1.505 3.246.31 1.212.423 2.482.333 3.807h-12.36c.066 1.528.454 2.634 1.16 3.32zm5.32-8.996c-.566-.614-1.42-.922-2.57-.922-.75 0-1.375.13-1.87.38-.5.25-.897.563-1.194.937-.298.37-.51.765-.63 1.182-.123.415-.195.788-.215 1.117h7.657c-.223-1.185-.613-2.082-1.177-2.696z"/><circle cx="127.533" cy="7.533" r="2.533"/><circle cx="141.532" cy="50.532" r="2.532"/></g></svg>