
<svg xmlns="http://www.w3.org/2000/svg" viewBox="0 0 200 100"><title>tourismtoronto</title><path d="M36.872 59.167c-.534 0-.896-.3-.896-.954 0-2.078 2.91-12.96 2.91-12.96h4.884l.667-2.83h-4.953l1.37-5.242H36.69l-3.11 5.207-3.198.804-.406 1.958h2.83s-3.12 11.27-3.12 14.123c0 2.245 1.42 3.65 3.67 3.65 2.718 0 5.428-1.712 7.104-3.906l-1.546-1.337c-.667.79-1.46 1.49-2.042 1.49zm17.993-17.21c-8.47 0-12.69 7.574-12.69 13.496 0 4.36 2.675 7.497 7.945 7.497 8.47 0 12.69-7.92 12.69-13.84 0-4.36-2.674-7.154-7.945-7.154zm.808 11.095c-1.195 4.75-3.244 7.855-5.146 7.855-2.037 0-2.198-4.642-1.006-9.396 1.197-4.752 3.242-7.69 5.143-7.69 2.04 0 2.203 4.475 1.01 9.232zm67.322 6.115c-.532 0-.835-.36-.835-1.014 0-2.694 3.185-9.123 3.185-12.796 0-2.387-1.56-3.4-3.95-3.4-3.306 0-7.203 3.175-9.17 9.29h-.72c2.05-8.126-1.707-12.468-8.864-12.468-2.52 0-5.387.723-7.572 1.598-1.595-.836-3.967-1.59-6.51-1.59-7.283 0-13.275 4.096-16.092 12.46l-.765-.002s1.292-3.717 1.292-6.083c0-2.827-1.62-3.207-3.2-3.207-2.024 0-4.552 1.576-5.852 2.946l.844 1.47c1.95-1.31 2.796-1.05 2.796 1.414 0 2.465-1.637 7.864-3.743 14.783h6.64s1.155-6.03 2.557-9.163c1.66-3.715 3.993-4.952 6.425-4.423 1.68-5.507 4.948-7.923 9.236-7.923 1.14 0 2.47.34 3.033.646-5.373 2.57-9.88 7.43-9.88 13.743 0 4.426 3.14 7.487 7.83 7.487 7.27 0 12.495-5.685 12.495-12.254 0-4.195-1.884-6.82-4.462-8.71 1.236-.544 2.927-.955 4.447-.955 4.786 0 5.843 4.235 4.726 9.226-.537 2.406-1.18 5.406-3.288 12.325h6.64s.916-4.903 2.858-9.534c1.142-2.732 3.108-6.675 4.715-6.675.65 0 .915.357.915 1.01 0 2.37-2.916 8.508-2.916 11.897 0 2.243 1.42 3.653 3.668 3.653 2.72 0 5.43-1.712 7.104-3.906l-1.544-1.337c-.668.79-1.46 1.49-2.043 1.49zM90.16 60.904c-1.5 0-1.93-1.93-1.93-4.13 0-4.963 2.46-10.356 6.185-13.052 1.09 1.41 1.532 3.174 1.532 5.317 0 5.923-2.926 11.864-5.788 11.864zm45.095-1.737c-.533 0-.896-.3-.896-.954 0-2.078 2.91-12.96 2.91-12.96h4.883l.668-2.83h-4.955l1.373-5.242h-4.164l-3.11 5.207-3.2.804-.406 1.958h2.83s-3.12 11.27-3.12 14.123c0 2.245 1.42 3.65 3.67 3.65 2.717 0 5.43-1.712 7.104-3.906l-1.546-1.337c-.668.79-1.46 1.49-2.04 1.49zm17.99-17.21c-8.467 0-12.686 7.574-12.686 13.496 0 4.36 2.675 7.497 7.943 7.497 8.47 0 12.69-7.92 12.69-13.84 0-4.36-2.672-7.154-7.947-7.154zm.81 11.095c-1.195 4.75-3.243 7.855-5.144 7.855-2.037 0-2.197-4.642-1.006-9.396 1.195-4.752 3.242-7.69 5.144-7.69 2.037 0 2.2 4.475 1.006 9.232zm24.02-12.24l-.112-.484-.648-.25c-.266-.1-.33-.25-.224-.636l.63-2.303-.32-.32-2.037.445c-.24.035-.4-.126-.435-.272l-.195-.708-.406-.108-1.89 2.36-.66-.475 1.188-4.942-.347-.248-.846.475c-.312.186-.565.142-.74-.15l-1.422-2.545h-.447l-1.424 2.544c-.174.293-.422.337-.736.15l-.845-.474-.35.248 1.185 4.942-.658.475-1.886-2.36-.41.108-.192.708c-.037.146-.195.307-.438.272l-2.036-.444-.32.32.628 2.302c.106.387.046.536-.222.636l-.648.25-.114.483 4.773 2.83-.734 1.29.352.3 3.755-1.07c0 1.808-.98 3.347-.98 3.347l1.24 1.023c.73-1.167 1.046-2.838.832-4.37l3.75 1.07.355-.3-.737-1.29 4.773-2.83z"/></svg>

