<svg width="200" height="100" viewBox="0 0 200 100" xmlns="http://www.w3.org/2000/svg"><title>unata</title>,<g fill="#000" fill-rule="evenodd"><path d="M55.72 88.636c0 3.035-.84 6.864-7.448 6.864-6.608 0-7.448-3.83-7.448-6.864V78.41h1.728v10.226c0 4.366 2.825 5.276 5.72 5.276 2.897 0 5.72-.91 5.72-5.276V78.41h1.73v10.226zM68.77 78.41h2.08L82.5 92.65h.048V78.41h1.727v16.67h-2.008L70.544 80.835h-.046V95.08H68.77V78.41zM108.462 90.013h-8.78L97.42 95.08H95.55l7.565-16.67h2.008l7.565 16.67h-2.008l-2.218-5.067zm-4.366-9.876l-3.712 8.288h7.377l-3.664-8.288zM126.557 79.995h-6.537V78.41h14.802v1.585h-6.54V95.08h-1.725V79.994zM154.95 90.013h-8.78l-2.264 5.066h-1.868l7.564-16.67h2.01l7.564 16.67h-2.01l-2.216-5.067zm-4.367-9.876l-3.71 8.288h7.376l-3.667-8.288zM123.737 27.65v20.398L103.48 68.024V47.837l20.257-20.187zM82.223 27.65v20.398l20.257 19.976V47.837L82.223 27.65zM122.737 26.65L102.48 6.463v20.4l10.076 9.934 10.18-10.147z"/></g></svg>