<svg width="200" height="100" viewBox="0 0 200 100" xmlns="http://www.w3.org/2000/svg"><title>vtech</title>,<g fill="#000" fill-rule="evenodd"><path d="M37.202 52.085L24.74 28.43h8.456c.913 0 1.647.345 2.066 1.112l9.328 19.23 4.713-15.703c1.072-2.53 3.176-4.334 6.084-4.334h9.948v6.442c-1.95.012-3.903-.013-5.854 0-1.032 0-2.25.484-2.54 1.365l-6.412 19.415h-7.79c-2.572 0-4.387-1.693-5.536-3.873zm38.892 3.918c-1.21-.045-3.488-.298-5.067-1.467-1.58-1.17-2.385-3.256-2.363-5.02V22.87h8.8l.038 3.106c.022 1.8.83 2.98 2.326 3.564.898.35 2.107.457 3.368.44l-.097 5.35H77.5v11.235c.46 3.495 2.814 3.09 5.645 2.875V55c-2.554.8-4.464 1.003-7.053 1.003zm8.373-13.44c-.056-4.772 1.13-8.184 3.513-10.536 2.516-2.482 6.438-3.627 11.83-3.712 6.558.034 12.8 2.21 14.08 9.968.288 1.75.343 3.983.037 5.67H95.03c-.797 0-1.09.105-1.19 1.033-.142 1.315.215 2.494.915 3.414.96 1.262 2.56 2.04 4.396 2.03 1.244-.008 2.865-.334 3.64-1.354 1.106-1.456 1.164-2.42 3.37-2.397l7.385.076c-.522 3.18-2.235 5.487-4.515 6.967-2.752 1.786-6.332 2.408-9.642 2.427-5.25.028-9.208-1.352-11.86-4.374-1.934-2.206-3.016-5.327-3.06-9.214zm36.24 10.12c-3.145-2.712-4.178-6.103-4.178-10.112 0-3.912.652-7.47 3.528-10.366 2.933-2.953 7.156-3.874 11.702-3.875 3.296-.002 7.17.832 9.802 2.875 1.787 1.388 3.003 3.556 3.556 6.54h-7.14c-1.652 0-2.55-.3-3.275-1.57-.82-1.437-2.153-1.834-3.516-1.817-2.29.028-3.628 1.604-4.327 3.545-.448 1.244-.634 2.64-.64 3.873-.01 1.658.213 3.818 1.025 5.51.73 1.527 1.94 2.674 3.882 2.734 2.4.074 3.108-.874 3.907-2.225.63-1.066 1.494-1.125 2.86-1.112l7.14.073c-.664 3.413-2.14 5.61-4.423 7.048-2.943 1.854-6.104 2.38-9.408 2.346-4.196-.042-7.43-.822-10.496-3.467zm51.186 3.12h-5.362V38.625c0-3.168-2.787-4.125-4.768-4.164-3.46-.067-5.71 1.314-5.71 4.703v16.637h-8.76V23.95c-.004-2.746 1.618-5.45 4.647-5.45h4.113v12.23c2.568-1.955 5.696-2.635 9.02-2.423 5.16.328 10.187 3.114 10.187 9.502v15.157c0 2.053-1.685 2.835-3.367 2.835zM105.27 39.164h-9.982c-.984 0-1.34-.39-1.268-1.297.23-2.884 2.892-4.27 5.636-4.19 3.2.096 5.315 1.75 5.613 5.487zM35.674 78.123H30.96v-12.12h4.562c2.11 0 3.574 1.207 3.574 3.234 0 1.277-.766 2.28-1.787 2.656 1.156.425 1.974 1.43 1.974 2.877 0 2.195-1.464 3.353-3.61 3.353zM35.42 67.16h-3.167v4.205h3.166c1.344 0 2.383-.664 2.383-2.112 0-1.446-1.04-2.094-2.384-2.094zm.136 5.362h-3.303v4.443h3.303c1.497 0 2.434-.867 2.434-2.23 0-1.362-.937-2.213-2.434-2.213zM46.857 78.123v-.8c-.68.68-1.294.902-2.418.902-1.158 0-1.84-.22-2.367-.766-.408-.41-.63-1.04-.63-1.703 0-1.464 1.022-2.418 2.895-2.418h2.52v-.8c0-1.226-.614-1.84-2.146-1.84-1.073 0-1.617.256-2.11.954l-.835-.766c.75-.97 1.6-1.243 2.962-1.243 2.246 0 3.353.97 3.353 2.792v5.686h-1.226zm0-3.864h-2.35c-1.26 0-1.872.51-1.872 1.48s.596 1.43 1.924 1.43c.714 0 1.344-.05 1.87-.562.29-.272.427-.75.427-1.447v-.9zM53.698 78.225c-1.413 0-2.52-.323-3.44-1.21l.818-.815c.664.698 1.566.97 2.605.97 1.38 0 2.23-.493 2.23-1.482 0-.73-.425-1.14-1.395-1.225l-1.38-.12c-1.633-.135-2.5-.867-2.5-2.247 0-1.53 1.292-2.45 3.08-2.45 1.19 0 2.264.29 3.013.902l-.8.8c-.596-.46-1.362-.664-2.23-.664-1.226 0-1.873.528-1.873 1.38 0 .714.41 1.14 1.465 1.224l1.344.12c1.464.136 2.47.698 2.47 2.264 0 1.617-1.38 2.553-3.406 2.553zM60.266 74.26c0 1.838.87 2.892 2.47 2.892.97 0 1.53-.288 2.195-.952l.835.73c-.85.853-1.634 1.295-3.064 1.295-2.212 0-3.66-1.327-3.66-4.29 0-2.706 1.312-4.29 3.44-4.29 2.162 0 3.44 1.567 3.44 4.052v.562h-5.654zm4.17-2.317c-.322-.765-1.07-1.26-1.956-1.26-.886 0-1.635.495-1.958 1.26-.187.46-.22.715-.256 1.396h4.427c-.034-.682-.07-.937-.256-1.397zM74.157 77.493c-.443.443-1.192.732-2.043.732-.92 0-1.686-.22-2.366-1.106v1.003h-1.226v-12.12h1.226v4.714c.68-.867 1.447-1.072 2.366-1.072.85 0 1.6.29 2.043.733.85.85 1.02 2.246 1.02 3.557 0 1.31-.17 2.707-1.02 3.558zm-2.298-6.758c-1.823 0-2.112 1.566-2.112 3.2 0 1.635.29 3.2 2.11 3.2 1.822 0 2.095-1.565 2.095-3.2 0-1.634-.273-3.2-2.094-3.2zM82.547 78.123v-.8c-.68.68-1.294.902-2.418.902-1.158 0-1.84-.22-2.367-.766-.408-.41-.63-1.04-.63-1.703 0-1.464 1.022-2.418 2.895-2.418h2.52v-.8c0-1.226-.614-1.84-2.146-1.84-1.073 0-1.617.256-2.11.954l-.835-.766c.75-.97 1.6-1.243 2.962-1.243 2.246 0 3.353.97 3.353 2.792v5.686h-1.226zm0-3.864h-2.35c-1.26 0-1.87.51-1.87 1.48s.594 1.43 1.922 1.43c.714 0 1.344-.05 1.87-.562.29-.272.427-.75.427-1.447v-.9zM88.843 78.123c-1.464 0-2.128-.953-2.128-2.23v-9.89h1.226v9.84c0 .816.274 1.224 1.125 1.224h.664v1.056h-.887zM93.898 78.123c-1.464 0-2.128-.953-2.128-2.23v-9.89h1.226v9.84c0 .816.273 1.224 1.124 1.224h.664v1.056h-.886zM108.332 76.83c-.85.92-1.992 1.395-3.235 1.395-1.19 0-2.28-.442-3.097-1.26-1.14-1.14-1.14-2.33-1.14-4.902 0-2.57 0-3.763 1.14-4.904.816-.817 1.89-1.26 3.097-1.26 2.316 0 3.882 1.498 4.24 3.626h-1.294c-.34-1.532-1.43-2.468-2.946-2.468-.8 0-1.566.323-2.094.868-.765.783-.85 1.6-.85 4.137 0 2.536.085 3.37.85 4.153.528.545 1.294.85 2.094.85.886 0 1.737-.356 2.3-1.037.492-.596.68-1.26.68-2.197v-.92h-2.98v-1.14h4.274v1.924c0 1.396-.29 2.332-1.038 3.132zM112.092 67.364v-1.38h1.38v1.38h-1.38zm.07 10.76v-8.376h1.224v8.375h-1.225zM119.274 78.123h-1.09l-3.063-8.375h1.33l2.28 6.724 2.298-6.724h1.328l-3.082 8.375zM124.67 74.26c0 1.838.868 2.892 2.468 2.892.97 0 1.532-.288 2.196-.952l.834.73c-.85.853-1.634 1.295-3.064 1.295-2.213 0-3.66-1.327-3.66-4.29 0-2.706 1.31-4.29 3.44-4.29 2.16 0 3.437 1.567 3.437 4.052v.562h-5.65zm4.17-2.317c-.323-.765-1.072-1.26-1.957-1.26-.886 0-1.635.495-1.958 1.26-.187.46-.22.715-.256 1.396h4.426c-.034-.682-.07-.937-.256-1.397zM137.673 78.123v-.8c-.68.68-1.293.902-2.417.902-1.157 0-1.838-.22-2.366-.766-.41-.41-.63-1.04-.63-1.703 0-1.464 1.02-2.418 2.895-2.418h2.518v-.8c0-1.226-.612-1.84-2.144-1.84-1.074 0-1.618.256-2.112.954l-.834-.766c.75-.97 1.6-1.243 2.96-1.243 2.25 0 3.356.97 3.356 2.792v5.686h-1.227zm0-3.864h-2.35c-1.258 0-1.87.51-1.87 1.48s.595 1.43 1.923 1.43c.715 0 1.345-.05 1.872-.562.29-.272.425-.75.425-1.447v-.9zM149.843 78.123h-1.14l-2.196-6.503-2.18 6.503h-1.14l-2.656-8.375h1.33l1.922 6.724 2.197-6.724h1.054l2.213 6.724 1.907-6.724h1.328l-2.64 8.375zM158.948 78.123v-.8c-.68.68-1.293.902-2.417.902-1.156 0-1.838-.22-2.365-.766-.41-.41-.63-1.04-.63-1.703 0-1.464 1.02-2.418 2.894-2.418h2.518v-.8c0-1.226-.613-1.84-2.144-1.84-1.073 0-1.618.256-2.112.954l-.833-.766c.747-.97 1.6-1.243 2.96-1.243 2.248 0 3.355.97 3.355 2.792v5.686h-1.227zm0-3.864h-2.35c-1.258 0-1.87.51-1.87 1.48s.595 1.43 1.922 1.43c.716 0 1.346-.05 1.873-.562.29-.272.425-.75.425-1.447v-.9zM165.228 80.15c-.17.46-.358.765-.596.986-.442.426-1.04.58-1.634.58h-.528v-1.09h.374c.852 0 1.107-.273 1.38-1.04l.595-1.633-3.014-8.205h1.328l2.3 6.724 2.28-6.724h1.327l-3.812 10.4z"/></g></svg>