<svg width="200" height="100" viewBox="0 0 200 100" xmlns="http://www.w3.org/2000/svg"><title>wellcast</title>,<g fill="#000" fill-rule="evenodd"><path d="M98.848 14.263c-7.94 0-14.377 6.48-14.377 14.475 0 4.087 2.073 7.782 4.63 10.838 3.638 4.346 8.056 8.113 9.747 13.71 1.69-5.597 6.11-9.364 9.746-13.71 2.558-3.056 4.63-6.75 4.63-10.838h.002c0-7.994-6.437-14.475-14.377-14.475zm9.175 14.327c-.27 1.907-1.262 3.655-2.52 5.114-1.91 2.214-4.325 4.034-6.487 5.994-.047.043-.108.065-.168.065-.06 0-.12-.022-.17-.065-2.16-1.96-4.576-3.78-6.485-5.994-1.258-1.46-2.25-3.207-2.52-5.114-.36-2.544.724-5.253 3.342-6.052 2.26-.69 5.016.52 5.833 2.792.816-2.272 3.57-3.482 5.833-2.792 2.62.8 3.703 3.508 3.343 6.052zM49.724 51.872h4.913l-4.854 31.03h-4.458L42.657 65.83l-2.492 17.073h-4.478l-5.196-31.03h4.905l2.452 16.616L40.1 51.87h4.903l2.45 16.604 2.27-16.604zM57.528 82.903V51.847h13.324v4.705h-8.644v8.47h6.316v4.706h-6.316v8.47h8.644v4.705H57.528zM85.78 82.903H73.024v-31.03h4.68v26.374h8.074v4.656zM100.707 82.903H87.952v-31.03h4.68v26.374h8.075v4.656zM110.31 83.3c-2.064 0-3.82-.723-5.263-2.168-1.446-1.444-2.167-3.19-2.167-5.238v-16.94c0-2.063.726-3.817 2.18-5.262 1.452-1.444 3.202-2.167 5.25-2.167 2.063 0 3.813.727 5.25 2.18 1.436 1.453 2.154 3.203 2.154 5.25v3.54h-4.854v-3.64c0-.742-.264-1.377-.792-1.906-.53-.53-1.164-.794-1.907-.794-.742 0-1.374.264-1.894.793-.52.528-.78 1.163-.78 1.906v16.99c0 .742.26 1.373.78 1.893s1.152.78 1.895.78c.744 0 1.38-.26 1.908-.78s.792-1.152.792-1.895V71.56h4.854v4.334c0 2.064-.726 3.814-2.18 5.25-1.452 1.437-3.194 2.155-5.224 2.155zM125.353 75.77l-1.137 7.133h-4.873l5.275-31.03h6.44l5.2 31.03h-4.922l-1.095-7.133h-4.887zm2.46-16.79l-1.734 12.233h3.466l-1.733-12.233zM153.215 75.176c.033 2.163-.528 4.012-1.684 5.548-.758 1.04-1.83 1.775-3.218 2.204-.743.23-1.61.346-2.6.346-1.833 0-3.352-.453-4.557-1.362-1.008-.742-1.804-1.754-2.39-3.033-.586-1.28-.93-2.746-1.028-4.397l4.458-.322c.198 1.81.676 3.12 1.436 3.934.563.614 1.206.905 1.933.87 1.024-.03 1.84-.536 2.452-1.51.313-.48.47-1.166.47-2.058 0-1.29-.586-2.57-1.758-3.842l-4.16-3.942c-1.552-1.503-2.65-2.85-3.295-4.04-.693-1.338-1.04-2.793-1.04-4.363 0-2.826.95-4.967 2.85-6.42 1.17-.876 2.624-1.314 4.358-1.314 1.666 0 3.095.37 4.284 1.114.924.578 1.67 1.387 2.24 2.427.57 1.04.913 2.237 1.03 3.59l-4.484.818c-.132-1.27-.495-2.262-1.09-2.97-.43-.513-1.048-.77-1.857-.77-.858 0-1.51.38-1.957 1.14-.363.61-.544 1.37-.544 2.28 0 1.418.61 2.863 1.833 4.332.46.562 1.155 1.222 2.08 1.98 1.09.91 1.807 1.546 2.155 1.908 1.154 1.156 2.046 2.296 2.674 3.418.297.53.536 1.015.718 1.46.446 1.108.677 2.098.693 2.973zM160.366 56.577h-4.977v-4.705H170v4.705h-4.953v26.326h-4.68V56.577z"/></g></svg>