<svg width="200" height="100" viewBox="0 0 200 100" xmlns="http://www.w3.org/2000/svg"><title>whbc</title>,<g fill="#000" fill-rule="evenodd"><path d="M71.005 47.246c-.166.053-.393.163-.215.337.17.16.394.2.595.298.015.004.024.015.037.02.028.027.038.054.057.103.092.234.08.48-.06.684-.054.082-.142.2-.24.24-1.42.597-1.34 2.232-1.34 2.232.66 2.136 2.27 1.16 2.27 1.16 1.313-.8.493-4.288.493-4.288-.38-1.18-1.598-.786-1.598-.786zM98.673 42.264c.05.017.1.035.15.048.105.025.21.033.317.042.023-.353.04-.69.055-1.004-.267.263-.545.526-.826.787.097.05.2.093.303.127zM99.302 38.008c-1.17 0-2.125.98-2.125 2.182 0 .227.043.444.108.654.924-.74 1.632-1.313 1.96-1.58l.025-.206c.044-.35.1-.698.15-1.048-.036-.002-.07-.002-.106-.002h-.012zM100.423 33.01l.09-.336-.062.17c-.02.054-.015.11-.027.167zM100.94 41.562c.3-.376.486-.85.486-1.372 0-.174-.026-.342-.063-.503-.047-.203-.12-.397-.22-.58-.037.457-.11 1.368-.202 2.455zM102.225 33.878c.078-.096.145-.204.19-.326l.482-1.32c.065-.175.074-.354.054-.53-.252.722-.5 1.446-.725 2.176zM93.265 30.954c-.05-.378-.385-.665-.832-.774.01.017.03.03.032.05.03.194-.306.407-.753.476-.38.06-.702-.01-.814-.152-.22.21-.336.475-.3.747.07.548.725.91 1.46.813.74-.097 1.277-.617 1.207-1.16zM128.267 65.577c-.532-.293-1.5-.526-2.895-.687l-1.114-.124c-.275 2.49-.55 4.978-.823 7.468l1.074.12c1.63.187 2.817.118 3.57-.232.97-.444 1.563-1.42 1.776-2.94.237-1.68-.29-2.888-1.59-3.605zM124.433 73.017c-.358-.042-.714-.08-1.072-.12-.273 2.49-.548 4.98-.823 7.468.345.038.69.076 1.033.116 1.566.18 2.69.144 3.388-.132 1.032-.414 1.67-1.435 1.9-3.077.205-1.457-.142-2.56-1.056-3.29-.534-.436-1.656-.766-3.37-.963z"/><path d="M164.367 80.225l2.45-9.974-4.808-1.422-1.13.527c-.285.13-.51.183-.675.165l-.48-.347c-1.71-1.435-3.705-2.446-5.915-2.994-3.94-.976-7.53-.646-10.663.977-.1.052-.193.11-.29.165 2.44-6.694 3.678-13.836 3.678-21.385 0-10.305-2.343-18.967-4.146-24.104l6.237-2.35-3.022-5.58-6.657-12.262-4.395 1.32L122.598 6.6C116 2.412 108.338 0 100.163 0c-8.01 0-15.53 2.318-22.037 6.354L62.682 1.65l-2.187 4.01-7.523 13.85 6.256 2.35c-1.807 5.16-4.155 13.835-4.155 24.1 0 6.516.92 12.73 2.74 18.614-1.507.303-3.013.618-4.513.95l-.022-.083-2.753.668-2.275.524.018.076c-4.042.997-8.098 2.067-12.067 3.29l-3.2.986 2.165 6.962 3.784-1.154c.698-.212.854-.057 1.07.16 4.046 3.91 7.936 7.948 11.605 12.044l1.334 1.488 4.493-1.074.44-2.055c.516-2.403 1.175-4.835 1.772-7.262 1.67 2.002 3.393 3.966 4.98 6.006l1.234 1.582 4.542-.778.013-.05c9.856 10.874 22.006 13.232 30.66 13.233 8.8-.162 21.1-2.776 30.86-14.135.434-.032.83-.087 1.194-.166 2.23-.51 3.898-1.64 4.926-3.247.383.78.86 1.542 1.43 2.282 2.085 2.7 4.998 4.53 8.662 5.444 2.96.74 5.763.68 8.332-.174 1.05-.352 2.123-.884 3.286-1.63 1.16-.743 2.158-1.567 2.98-2.45l2.32-2.485-1.26-1.125c.193-.783.54-2.177.54-2.177zM100.163 2.778c6.775 0 13.173 1.78 18.84 4.92l-5.987 1.824 3.302 5.986c3.128 5.672 5.536 11.487 5.56 11.545.04.095.155.365.316.78-2.836-2.367-5.404-4.32-7.7-5.86-2.644-2.127-4.446-3.533-4.446-3.533-1.504-1.376-3.38-1.06-4.512-.67-.036-.005-.075-.015-.12-.027l-.11-.085c-.255-.184-.505-.378-.755-.582-.96-.778-1.724-1.58-2.333-2.445-.23-.33-.447-.67-.655-1.017-.068-.113-.143-.23-.22-.348-.152-.234-.31-.476-.385-.677-.054-.14-.1-.282-.15-.423-.15-.45-.322-.958-.658-1.423-.735-1.04-1.473-1.123-1.96-1.01-.22.05-.507.13-.727.3-.26.177-.616.635-.8 1.164l-.036.143c-.036.25-.134.933-.233 1.68-.438-.797-.87-1.6-1.032-1.958-.19-.41-.6-.693-.77-.797-.584-.352-1.44-.152-1.9.24-.384.327-.61.777-.74 1.08-.345.763-.386 1.557-.398 2.24-.014.88-.01 1.92.13 2.955.084.628.21 1.226.377 1.78.106.344.226.654.364.936-1.548 1.316-6.297 5.43-8.604 8.317-1.438 1.484-3.23 3.32-4.943 5.06.645-2.292 1.395-4.475 2.2-6.494l.35-.907c.002-.002 6.065-16.16 6.065-16.16L81.854 7.49l-.104-.033c5.56-2.992 11.81-4.68 18.413-4.68zm24.454 33.768c-.07-.383-.146-.757-.222-1.12.027.128.054.258.08.39.04.19.077.38.115.575.06.32.12.648.176.98.038.224.074.455.11.685l.075.49c.037.246.072.493.105.744l.052.418c.06.488.115.985.162 1.49.012.13.025.256.035.384.025.29.047.58.067.874.01.13.017.262.025.394.06.976.088 1.98.085 3.005l-.003.372c-.005.334-.012.67-.023 1.008l-.008.174c-.027.69-.072 1.388-.133 2.093l-.022.263c-.033.35-.072.704-.114 1.058-.012.112-.027.225-.042.337-.14 1.11-.332 2.23-.576 3.363l-.085.388c-.082.36-.167.72-.26 1.08l-.05.187c-.187.708-.398 1.417-.63 2.128-.043.127-.083.255-.126.383-.117.345-.24.69-.37 1.035-.057.152-.117.304-.177.457-.15.384-.308.768-.472 1.152-2.936-.29-5.877-.525-8.802-.694l-.35-.02.002-.027-1.568-.062-1.427-.084v.025l-.353-.015-.27-.01c-.448-2.53-.656-3.368-.842-4.11-.14-.57-.264-1.063-.477-2.245-.455-2.66-1.43-4.486-2.896-5.425-.867-.555-1.708-.662-2.282-.654 1.968-2.102 2.638-4.483 2.638-4.483 2.105-15.502-.21-21.616-.517-22.34l-.18 1.312c-.13.927-.295 1.855-.433 2.78-.14.925-.35 1.833-.514 2.75-.046.24-.175.665-.265 1.007-.144.525-.304 1.06-.505 1.568-.062.153-.13.303-.186.46.023.04.05.075.068.116.174.372.19.795.044 1.19l-.48 1.32c-.142.384-.427.673-.77.846-.265.905-.514 1.818-.684 2.745-.074.4-.128.805-.153 1.21.05.06.11.11.155.176.186.262.314.554.4.86.007.022.004.047.01.07.044.193.074.39.074.594 0 .81-.372 1.523-.942 1.997-.2 2.35-.465 5.214-.63 6.128 0 0-.212 2.125-1.858 2.495l-2.225.243s2.167-1.247 2.46-2.96c0 0 .31-2.897.478-5.336-.13-.01-.257-.025-.383-.056-.063-.014-.122-.037-.183-.057-.07-.023-.145-.038-.205-.085-.088-.038-.183-.062-.267-.11l-.025-.018c-4.812 4.387-11.33 8.422-11.33 8.422.463.787.597 3.66.597 3.66.99-.528 5.534-3.21 5.534-3.21 1.148-.427 3.393-.338 3.393-.338-.33.264-8.003 4.642-8.003 4.642l-.633.885c-.86 1.252-2.17.457-2.17.457-.06-.322-.384-1.157-.384-1.157-.335-.39-.67-.783-1.003-1.176-.232-.273-.463-.608-.79-.774-.706-.357-1.575.087-2.254.283l-.614.177c-.164.05-.328.1-.49.138-.485.11-.68.422-.82.65-.238.364-.49.717-.758 1.073-.363.5-.78 1.01-1.284 1.575-.107.12-.214.238-.334.366-5.96.582-7.74-1.774-8.113-2.427.404-2.595-.786-3.932-1.274-4.36-.12-.264-.21-.51-.282-.74-.088-.03-.173-.05-.263-.086 0 0-.885-.74-.425-2.148 0 0 2.06-3.2 4.98-6.58.263-.993.648-1.385 1.075-1.66l.052-.05c.018-.016.05-.027.088-.036.34-.2.702-.36 1.05-.71.52-.523 1.055-1.033 1.606-1.523.25-.22.523-.538.814-.7.386-.212.715.588.882.85.22.35.442.698.664 1.047.56.88 1.12 1.762 1.682 2.643 1.228 1.928 2.457 3.855 3.687 5.78l.56.88c.146.23.292.59.493.772l.07.063c1.256.79 1.785.067 1.785.067 1.17-.234 7.51-5.193 11.11-8.067-.053-.137-.092-.28-.123-.423 0-.008 0-.016-.002-.024-.03-.157-.05-.316-.05-.478 0-1.425 1.135-2.584 2.53-2.584 0 0 .06 0 .06.002.03 0 .06 0 .09.002.01 0 .017.004.026.004.014-.1.025-.2.042-.3.127-.765.252-1.54.412-2.303.072-.34.154-.68.238-1.02-.02-.034-.042-.064-.058-.1-.17-.366-.186-.798-.042-1.185l.48-1.322c.145-.394.444-.7.8-.867.038-.077.07-.157.108-.234.068-.135.17-.39.185-.433.057-.184.332-1.015.4-1.326.216-.964.45-1.928.655-2.903.06-.267.114-.537.17-.81.07-.35.126-.7.192-1.05-.26.123-.434.17-.434.17-5.944 1.25-5.04-4.93-5.04-4.93-1.67 1.027-2.687 1.073-3.27.903l.12-.1-.4-.57c-.203-.295-.37-.66-.508-1.114-.143-.475-.253-.994-.327-1.542-.126-.935-.13-1.903-.115-2.727.01-.53.037-1.14.265-1.65.044-.098.177-.4.33-.533.036-.025.115-.052.17-.06.06.045.11.09.114.09.4.88 2.175 4.024 2.25 4.158l1.436 2.544v-2.92c0-.335.277-2.42.48-3.843.08-.192.2-.343.217-.363.008-.004.05-.024.154-.055 0 0 .136.04.395.406.205.285.32.628.454 1.025.054.16.108.317.167.476.136.355.347.68.534.967.066.103.132.203.19.3.225.376.46.744.714 1.11.694.986 1.553 1.888 2.622 2.755.05.04.103.078.152.117-.01-.235-.034-.468-.094-.69-.003-.025-.02-.12-.04-.134 0 0 1.577 1.024 1.868 1.933l-.003.032c1.888 1.385 4.28 3.38 4.28 3.38.23 2.884 1.696 3.688 1.696 3.688-.268-.195-.386-1.765-.386-1.765.118-.66.385-.116.385-.116.426 1.572 1.7 2.418 1.7 2.418-.116-.23.077-1 .077-1 .23-.5.695.308.695.308.965 2.496 5.096 5.033 5.096 5.033l-.232-1.574c-.155-1.266.848.116.848.116 1.652 2.612 3.38 4.777 4.993 6.544zm-1.876-7.204c.048.14.095.275.144.424l.05.156c.024.07.048.147.07.22-.09-.284-.18-.552-.263-.8zm.288.873l.108.34.054.172c.035.114.07.238.107.357-.092-.305-.18-.595-.27-.87zm.29.938c.038.132.077.257.116.394.024.08.047.164.07.245l.096.346c-.095-.343-.19-.672-.283-.985zm.296 1.04l.07.248.095.362c.044.168.087.343.13.518-.097-.392-.196-.767-.296-1.128zm.3 1.14l.048.188c.043.173.085.348.127.526l.06.272c-.077-.338-.156-.667-.236-.986zm.248 1.03c.028.123.057.243.084.367.04.172.076.348.114.524.01.052.02.105.032.157-.075-.358-.152-.706-.23-1.046zM91.954 60.5c-3.99.16-8.01.396-11.993.77l-.004-.037-.16.018c-.434-1.01-.815-2.026-1.144-3.045.33-.392.64-.773.907-1.14.28-.374.553-.755.807-1.145l.018-.03c.153-.038.305-.085.457-.13l.58-.168c.47-.132.944-.263 1.404-.402.107-.03.215-.067.32-.103l.12-.04.1.11c.053.058.1.11.14.15.605.6.927 1.125 1.03 1.718.03.17.1.523.435.772.383.29.907.39 1.567.288.728-.118 1.39-.583 2.024-1.412.072-.09.132-.186.19-.28.03-.052.076-.124.072-.128.115-.064.23-.126.348-.187.146-.077.292-.154.432-.234l.57-.326c.71-.407 1.42-.814 2.148-1.208l2.003-1.136c.373-.208.745-.42 1.118-.632l1.062-.6c.81-.017 3.196-.2 6.4-2.396.26-.034.947-.063 1.675.403 1.074.686 1.84 2.207 2.215 4.403.223 1.238.358 1.777.5 2.35.17.687.362 1.456.764 3.69-3.678-.116-7.382-.14-11.062-.076v-.034l-2.193.068c-.724.02-2.848.073-2.848.073l.002.076zM75.78 61.712c-.57.067-1.14.146-1.71.217-.293-.767-.557-1.533-.797-2.298.852.092 1.827.105 2.917.032.22.64.457 1.275.71 1.903l-1.124.112.003.033zM65.523 42.957c.617-.015 1.128.47 1.144 1.084.002.11.005.22.01.33.017.612-.468 1.124-1.084 1.142-.617.018-1.132-.465-1.15-1.078l-.01-.34c-.014-.612.473-1.122 1.09-1.137zm-.297-10.154c.02-.113.042-.226.064-.336.118-.604.704-.998 1.31-.88.605.116 1 .7.884 1.303l-.06.316c-.113.604-.695 1.004-1.302.892-.607-.11-1.007-.692-.895-1.295zm1.24 21.554c.23-.038.457-.002.654.09.02.35.01.737-.078 1.196l-.04.212.076.2c.015.04.11.265.318.58-.143.115-.306.208-.5.242-.61.104-1.186-.3-1.29-.907-.02-.11-.04-.223-.058-.336-.1-.605.31-1.178.918-1.277zm5.085-31.342l-.003.003-.027.027-.13.147c-.398.47-1.102.528-1.573.132-.472-.396-.53-1.097-.133-1.566.166-.196.273-.302.297-.326.44-.43 1.15-.42 1.58.018.43.436.42 1.135-.014 1.564h.002zM92.36 33.6c1.252 0 2.01-.686 2.19-.87.42-.27.495-.29.63-.32.12-.03.27-.066.58-.198.122-.053.208-.165.227-.297.02-.132-.033-.264-.137-.35l-2.184-1.773c-.575-.547-1.207-.824-1.877-.824-1.26 0-2.36.99-3.053 1.806.546-1.583 2.04-2.73 3.816-2.73 2.234 0 4.05 1.805 4.05 4.03 0 2.225-1.816 4.03-4.05 4.03-2.122 0-3.843-1.63-4.017-3.695.988.054 1.46.43 1.53.48.785.47 1.557.71 2.294.71zm-1.87-2.446c0-.742.703-1.343 1.57-1.343.862 0 1.565.602 1.565 1.344 0 .74-.703 1.34-1.566 1.34-.867 0-1.57-.6-1.57-1.34zM62.814 20.24l-5.867-2.207 6.01-11.06 1.093-2 16.99 5.173 2.818.91-5.058 13.48-.318.817c-1.545 3.878-2.68 7.663-3.415 11.34-1.016 1.002-1.763 1.714-2.017 1.904-.076.034-.67.327-1.263.885 1.135-8.398 3.92-14.596 4.386-15.886 1.758-4.88 3.084-8.356 4.05-10.793-3.645-1.107-14.068-4.282-14.81-4.51-.4.737-3.944 7.256-4.49 8.265 1.017.38 5.64 2.122 5.64 2.122l-.3.595c-.095.197-5.606 11.564-5.606 26.686 0 5.465.723 11.42 2.678 17.51l-.153.026.01.062c-.87.152-1.74.325-2.61.488-1.802-5.71-2.717-11.747-2.717-18.085 0-11.845 3.278-21.547 4.948-25.72zm5.79 63.822l-.22.803-2.085.357-.49-.628c-2.418-3.108-4.996-6.147-7.588-9.15-.98 3.734-1.937 7.49-2.737 11.22l-.175.813-2.078.497-.53-.59c-3.703-4.133-7.627-8.204-11.68-12.122-.84-.84-1.823-1.053-3.096-.665l-1.857.57-.973-3.132 1.27-.39c4.505-1.388 9.115-2.644 13.7-3.735 0 0 .138-.034.18-.043v-.004l.398-.092c.353-.083.714-.17.714-.17l.002.006.183-.042c4.276-.986 8.625-1.85 12.928-2.57l.594-.1v-.003l.277-.042.44-.076v.005l.594-.093c3.313-.524 6.692-.98 10.044-1.35l1.322-.15v.003l1.138-.112c4.777-.475 9.62-.796 14.398-.952l.314-.01v-.004s.258-.008.48-.013l.536-.02v.006l.314-.008c4.797-.12 9.66-.082 14.455.115l1.33.054-.14 3.273-2.27-.088c-1.33-.05-1.733.175-1.754.153-.007.022-.096.29-.117 1.244l-.225 10.117-.002.213c0 .783.093 1.03.125 1.102.154.058.562.172 1.49.206l2.215.084-.134 3.287-1.33-.056c-4.368-.178-8.79-.214-13.14-.102l-.788.018-.706.025c-4.34.143-8.745.434-13.09.865l-1.32.132-.134-1.316-.202-1.954 2.213-.213c1.19-.114 1.52-.354 1.536-.333.005-.027.027-.143.027-.44 0-.198-.01-.47-.04-.84L82.1 67.53c-.062-.776-.186-1.124-.247-1.253-.106-.038-.504-.146-1.705-.033l-2.266.218-.006-.05-1.016.172c-1.897.322-3.355 1.957-4.337 4.86-1.413 4.164-2.732 8.41-3.92 12.618zm42.96-16.238l1.61.1.715.045c-.08 1.042-.266 3.4-.43 5.508-1.467 1.087-3.06 1.95-4.78 2.588l.186-8.347c.164.005 1.583.06 2.7.104zM106.91 89.71c-.115.023-.228.045-.342.07-.603.12-1.193-.272-1.313-.874-.12-.603.27-1.187.877-1.308.105-.02.21-.04.314-.064.604-.127 1.196.257 1.324.856.128.6-.257 1.19-.86 1.32zm-10.543-1.134c-.15.595-.755.957-1.354.808l-.335-.085c-.598-.156-.955-.764-.8-1.357.156-.594.766-.95 1.364-.795l.313.08c.6.15.962.752.812 1.348zm-10.762-4.078c-.35.426-.963.553-1.444.253l-.188-.12c.544-.046 1.088-.09 1.633-.132zm-8.093-15.62c.042-.01.08-.032.122-.04l.1-.016 2.108-.212s.472-.047.724-.07c.06.722.247 3.045.418 5.162-.09-.106-.182-.204-.27-.313-1.21-1.486-2.262-2.994-3.202-4.512zm-.716 8.337c-.468.4-1.174.345-1.575-.12L75 76.833c-.398-.47-.336-1.17.135-1.566.472-.395 1.176-.336 1.573.135l.21.246c.402.467.348 1.168-.12 1.567zm24.3 20.095c-8.423-.002-20.388-2.39-29.758-13.663.314-1.09.636-2.18.967-3.273.32.415.63.83.966 1.244 8.68 10.63 19.932 12.91 27.826 12.913 6.69-.123 15.83-1.914 23.69-9.156.76.094 1.524.184 2.282.286.443.06.853.11 1.248.152-8.823 9.17-19.498 11.354-27.22 11.498zm14.773-12.835c.797.06 1.595.136 2.393.207-.086.203-.214.39-.416.518l-.29.182c-.526.322-1.214.162-1.54-.36-.106-.17-.142-.36-.148-.547zm21.708-13.352c-.194 1.117-.853 2.46-2.517 3.447 1.273 1.188 1.722 2.5 1.722 3.67 0 .352-.035.688-.09 1.003-.277 1.568-1.267 3.588-4.412 4.306-1.118.245-2.776.197-5.374-.156-4.968-.67-10.02-1.158-15.016-1.447l-1.327-.076.19-3.28 2.214.132c1.184.075 1.55-.11 1.567-.088.015-.038.118-.32.19-1.265l.79-10.093c.016-.22.023-.408.023-.566 0-.483-.054-.655-.077-.72-.15-.068-.587-.22-1.67-.29l-.94-.055-1.332-.083.192-3.267 1.328.077c5.37.31 10.803.83 16.147 1.54 1.874.252 3.395.63 4.526 1.13 3.258 1.463 3.95 3.597 3.95 5.148 0 .345-.034.66-.082.933zm-6.822-47.95l-.145-.29c-.276-.546-.056-1.214.493-1.492.552-.276 1.225-.055 1.5.49.053.103.105.205.156.31.27.553.044 1.217-.51 1.49-.554.27-1.223.044-1.494-.508zm4.622 11.49c-.607.104-1.187-.3-1.293-.904-.02-.108-.038-.216-.058-.32-.11-.605.293-1.185.9-1.294.607-.11 1.188.29 1.298.895l.06.337c.106.604-.3 1.18-.907 1.285zm1.752 9.983c0 .113-.002.227-.004.34-.013.613-.52 1.1-1.138 1.09-.618-.012-1.107-.52-1.096-1.134l.006-.327c.008-.614.516-1.104 1.133-1.095.617.008 1.11.513 1.1 1.126zm-1.96 10.28c.608.1 1.018.674.915 1.28-.018.11-.038.223-.058.334h.002c-.11.605-.686 1.01-1.295.904-.606-.105-1.014-.68-.907-1.286l.055-.322c.102-.605.678-1.013 1.286-.91zm2.508 10.255c2.402-6.692 3.274-13.26 3.274-19.243 0-15.12-5.51-26.49-5.606-26.684l-.3-.597 5.64-2.122c-.545-1.01-4.09-7.527-4.487-8.265l-14.987 4.565c3.33 6.036 5.83 12.11 5.83 12.11s8.142 18.532 1.092 37.033c-.96-.12-1.917-.238-2.88-.345 6.95-17.428-.68-35.373-.795-35.635-.023-.06-2.485-6.008-5.694-11.826l-1.652-2.993 18.263-5.565 2.196-.66 5.572 10.263 1.512 2.79-5.853 2.205c1.67 4.127 4.94 13.74 4.94 25.724 0 7.802-1.38 15.15-4.105 21.992-.36-.92-.967-1.87-1.962-2.75zm24.293 14.29l-.28 1.13-1.663-.188-.95-.187s-.735-3.09-.743-3.114c-.256-.904-.573-1.696-.943-2.357-.946-1.708-2.26-2.754-4.02-3.203-.987-.252-1.78.02-2.57.876-.942 1.02-1.695 2.722-2.242 5.057-1.547 6.7.79 7.294 1.558 7.49 1.386.354 2.77.287 4.228-.204 1.512-.51 2.853-1.378 4.097-2.65l.89-.914 2.443 2.18-.92.986c-.71.76-1.58 1.476-2.593 2.127-1.022.653-1.948 1.115-2.835 1.412-2.196.732-4.618.776-7.198.13-3.258-.813-5.727-2.355-7.552-4.717-1.884-2.45-2.557-5.16-1.99-8.057.58-2.977 2.25-5.198 4.96-6.6 2.687-1.392 5.796-1.665 9.244-.81 1.906.472 3.624 1.342 5.104 2.584.665.554 1.025.695 1.15.73.654.185 1.356.098 2.146-.262l.447-.21 2.226.66-1.992 8.11zm-4.44 1.414l-.104.106c-1.016 1.04-2.096 1.743-3.298 2.148-1.09.366-2.068.42-3.077.16-.703-.178-.74-2.272-.09-5.09.58-2.48 1.28-3.626 1.762-4.15.325-.352.406-.332.58-.287 1.206.307 2.08 1.014 2.753 2.227.3.533.554 1.18.768 1.933.017.06.48 2.004.48 2.004l.226.95z"/><path d="M68.407 68.403c-.486-.357-1.018-.508-1.63-.465l-.463.033.006.04-1.727.288-.21.036c-.076.014-.092.024-.153.036l4 5.016.73-2.236c.155-.463.23-.872.23-1.223 0-.104-.006-.202-.018-.295-.073-.51-.317-.9-.765-1.23zM54.05 70.965c-.428-.23-1.08-.29-1.884-.18l-.047.005v.002l-1.95.464c-.075.018-.09.03-.152.048.28.303 2.668 2.89 4.385 4.747l1.007-3.886c-.712-.766-1.154-1.088-1.36-1.2zM91.94 77.04c.04.795.15 1.154.205 1.292.086.035.422.15 1.53.112l.34-.01v-.01l1.51-.034c1.186-.028 1.536-.243 1.555-.226.01-.037.08-.29.08-1.115l-.04-4.023c-1.483.044-3.884.113-5.368.155l.188 3.858zm3.614-1.67l.012 1.29-.185.006c-.347-.093-.69-.195-1.03-.306l-.046-.954c.61-.018.64-.02 1.25-.037zM91.59 69.872c1.5-.043 4-.115 5.5-.16l-.03-2.944c-.006-.794-.11-1.148-.16-1.274-.152-.057-.604-.173-1.684-.147l-1.172.032-.828.025c-1.335.045-1.72.3-1.74.28-.006.02-.045.178-.045.667 0 .157.004.35.016.58l.144 2.94zm2.79-2.206l1.1-.03c0 .13 0 .255.005.398l-1.54.045-.02-.4c.054 0 .31-.01.456-.014z"/></g></svg>