<svg width="200" height="100" viewBox="0 0 200 100" xmlns="http://www.w3.org/2000/svg"><title>wwwf</title>,<g fill="#000" fill-rule="evenodd"><path d="M76.15 42.858c.206.74.35 1.505.465 2.268.014-.8.118-1.542.3-2.268l1.204-5.03h1.956l-2.422 9.27h-1.906l-1.66-5.912c-.116-.388-.247-.933-.285-1.67-.038.62-.13 1.177-.27 1.67l-1.674 5.91h-1.906L67.53 37.83h1.982l1.22 5.145c.142.635.22 1.322.257 2.087.13-.87.324-1.58.48-2.176l1.36-5.057h1.945l1.375 5.028zM89.418 45.92c-.96.917-2.206 1.422-3.502 1.422-1.14 0-2.256-.4-3.15-1.113-1.165-.934-1.802-2.27-1.802-3.747 0-1.32.493-2.514 1.44-3.435.933-.906 2.217-1.424 3.512-1.424 1.296 0 2.566.518 3.502 1.424.945.92 1.438 2.126 1.438 3.435 0 1.322-.507 2.54-1.438 3.436zm-.598-3.437c0-1.71-1.205-3.11-2.904-3.11-1.723 0-2.915 1.4-2.915 3.11 0 1.725 1.14 3.098 2.916 3.098 1.723 0 2.904-1.372 2.904-3.097zM96.953 47.097l-2.437-4.328v4.327h-1.982V37.83h2.837c2.257 0 3.372.882 3.372 2.63 0 1.285-.856 2.27-2.063 2.426l2.554 4.21h-2.28zm-2.14-5.314c1.232 0 1.972-.103 1.972-1.18 0-1.075-.714-1.255-1.97-1.255h-.3v2.435h.3zM100.393 37.83h1.983v7.583h3.16v1.684h-5.143V37.83zM106.784 37.83h2.53c1.62 0 2.837.142 3.86.91 1.115.827 1.71 2.11 1.71 3.743 0 1.66-.606 2.944-1.734 3.76-1.118.803-2.296.854-3.68.854h-2.686V37.83zm3.084 7.597c2.023 0 2.98-.857 2.98-2.957 0-2.113-.983-2.955-2.98-2.955h-1.1v5.912h1.1zM128.348 42.858c.206.74.35 1.505.464 2.268.013-.8.117-1.542.3-2.268l1.208-5.03h1.955l-2.423 9.27h-1.905l-1.66-5.912c-.12-.388-.247-.933-.285-1.67-.04.62-.13 1.177-.274 1.67l-1.672 5.91h-1.905l-2.422-9.267h1.983l1.22 5.145c.14.635.222 1.322.258 2.087.132-.87.326-1.58.48-2.176l1.36-5.057h1.944l1.376 5.028zM133.605 37.83h1.982v9.267h-1.982V37.83zM137.7 37.83h2.53c1.62 0 2.838.142 3.86.91 1.118.827 1.713 2.11 1.713 3.743 0 1.66-.607 2.944-1.736 3.76-1.115.803-2.294.854-3.683.854H137.7V37.83zm3.087 7.597c2.02 0 2.982-.857 2.982-2.957 0-2.113-.99-2.955-2.983-2.955h-1.103v5.912h1.103zM147.468 37.83h5.458V39.5h-3.474v1.905h3.474v1.686h-3.474v2.32h3.474v1.684h-5.458V37.83zM166.668 42.858c.208.74.35 1.505.47 2.268.012-.8.116-1.542.295-2.268l1.208-5.03h1.957l-2.422 9.27h-1.908l-1.658-5.912c-.117-.388-.25-.933-.287-1.67-.04.62-.13 1.177-.27 1.67l-1.677 5.91h-1.903l-2.424-9.267h1.983l1.217 5.145c.145.635.22 1.322.26 2.087.132-.87.324-1.58.48-2.176l1.36-5.057h1.946l1.372 5.028zM171.886 37.83h5.456V39.5h-3.473v1.905h3.472v1.686h-3.473v2.32h3.472v1.684h-5.456V37.83zM179.292 37.83h1.736c1.272 0 2.257.026 3.047.454.712.402 1.127 1.102 1.127 1.957 0 1.103-.648 1.764-1.946 1.984 1.504.22 2.27.986 2.27 2.23 0 .907-.466 1.71-1.23 2.125-.934.505-2.05.517-3.49.517h-1.514V37.83zm2.425 3.705c1.1 0 1.645-.245 1.645-1.098 0-.83-.495-1.077-1.608-1.077h-.48v2.175h.443zm.337 4.02c1.01 0 1.513-.453 1.513-1.283 0-.764-.503-1.205-1.487-1.205h-.805v2.49h.78zM69.748 53.392h4.59v.79H70.59v2.905h3.603v.79H70.59v4.783h-.842v-9.268zM84.553 61.48c-.946.92-2.178 1.424-3.513 1.424-1.346 0-2.566-.503-3.498-1.424-.936-.92-1.45-2.14-1.45-3.432 0-1.324.503-2.542 1.45-3.463.932-.92 2.14-1.4 3.498-1.4 1.36 0 2.58.48 3.513 1.4.945.92 1.45 2.15 1.45 3.463 0 1.306-.517 2.525-1.45 3.432zm.558-3.432c0-2.296-1.812-4.124-4.07-4.124-2.242 0-4.058 1.814-4.058 4.124 0 2.28 1.79 4.107 4.058 4.107 2.27 0 4.07-1.827 4.07-4.107zM88.954 53.392v6.054c0 1.815.816 2.71 2.538 2.71 1.712 0 2.53-.895 2.53-2.71v-6.054h.84v5.782c0 2.5-1.102 3.73-3.37 3.73-2.267 0-3.37-1.23-3.37-3.73v-5.782h.832zM97.422 53.004l6.558 7.75v-7.362h.792v9.54l-6.56-7.762v7.49h-.79v-9.656zM107.37 53.392h1.44c1.592 0 2.823 0 3.81.61 1.203.74 1.904 2.177 1.904 4.03 0 1.687-.572 3.01-1.57 3.774-1.063.815-2.268.854-3.756.854H107.37v-9.268zm1.594 8.542h.493c1.165 0 2.07-.026 2.775-.533.88-.632 1.396-1.813 1.396-3.38 0-1.27-.335-2.282-.944-2.954-.857-.946-1.917-.973-3.473-.973h-.999v7.84h.754zM119.253 53.03l3.902 9.63h-.923l-1.18-3.137h-3.782l-1.233 3.137h-.855l4.07-9.63zm1.527 5.766l-1.578-4.03-1.648 4.03h3.226zM125.404 54.183h-2.552v-.79h5.948v.79h-2.553v8.477h-.843v-8.477zM130.49 53.392h.843v9.268h-.844v-9.268zM141.947 61.48c-.945.92-2.175 1.424-3.51 1.424-1.35 0-2.568-.503-3.502-1.424-.932-.92-1.45-2.14-1.45-3.432 0-1.324.503-2.542 1.45-3.463.934-.92 2.14-1.4 3.5-1.4 1.362 0 2.58.48 3.512 1.4.947.92 1.454 2.15 1.454 3.463 0 1.306-.518 2.525-1.453 3.432zm.56-3.432c0-2.296-1.816-4.124-4.07-4.124-2.243 0-4.06 1.814-4.06 4.124 0 2.28 1.79 4.107 4.06 4.107 2.267 0 4.07-1.827 4.07-4.107zM145.56 53.004l6.556 7.75v-7.362h.79v9.54l-6.557-7.762v7.49h-.79v-9.656zM55.74 35.95c-2.784-4.22-7.008-7.053-11.894-7.98-4.76-.9-9.71.14-13.768 2.902-.47.32-.918.66-1.352 1.015-4.307.972-8.082 3.436-10.71 7.06-2.915 4.015-4.087 8.94-3.305 13.864 1.206 7.594 7.037 13.58 14.244 15.2.266.216.522.44.8.643 3.116 2.262 6.77 3.46 10.567 3.46.95 0 1.91-.08 2.853-.228 4.74-.754 8.918-3.322 11.756-7.232 2.295-3.163 3.507-6.89 3.507-10.783 0-.77-.063-1.54-.157-2.304.11-.43.214-.86.297-1.3.953-5.017-.055-10.1-2.836-14.315zM40.527 29.6c.964 0 1.937.09 2.89.273 7.32 1.39 12.465 7.807 12.793 15.167-1.296-2.412-3.106-4.527-5.38-6.177-1.88-1.366-3.974-2.337-6.168-2.897-3.127-2.717-7.134-4.397-11.43-4.52 2.262-1.205 4.75-1.846 7.294-1.846zM28.873 64.87c-2.173-2.093-3.682-4.754-4.368-7.73 2.512 4.067 6.514 7.145 11.4 8.3-.786.124-1.584.19-2.374.19-1.61 0-3.175-.275-4.657-.76zm-1.683-9.588c-1.244-1.892-2.06-3.99-2.448-6.178.49-1.644 1.236-3.216 2.26-4.648 2.408-3.366 5.96-5.575 10.006-6.217.798-.128 1.608-.192 2.407-.192 1.693 0 3.35.288 4.928.833 2.272 2.29 3.874 5.276 4.408 8.633.665 4.178-.328 8.353-2.792 11.756-.753 1.035-1.626 1.946-2.577 2.75-1.988.42-4.05.45-6.078.066-4.15-.787-7.743-3.204-10.112-6.804zm23.91-5.226c0-1-.08-2.007-.237-2.987-.317-1.99-.965-3.862-1.858-5.582 3.017 2.435 5.014 5.852 5.63 9.734.075.466.122.93.154 1.396-1.24 2.818-3.213 5.237-5.79 6.993-.306.21-.625.393-.942.58 1.986-3.027 3.042-6.507 3.042-10.134zM28.708 35.01c.747-.24 1.51-.44 2.298-.565.798-.128 1.607-.192 2.407-.192 2.036 0 3.998.427 5.808 1.183-.602.034-1.206.098-1.81.194-4.775.758-8.973 3.36-11.813 7.33-.38.53-.727 1.078-1.045 1.638.05-.527.123-1.053.223-1.58.576-3.042 1.947-5.78 3.933-8.007zM18.19 52.37c-.663-4.18.33-8.355 2.798-11.758.897-1.237 1.952-2.314 3.128-3.215-1.01 1.816-1.74 3.806-2.14 5.92-.556 2.926-.425 5.82.27 8.515-.156 1.57-.116 3.172.138 4.772.34 2.138 1.052 4.148 2.057 5.988-3.24-2.393-5.58-6.02-6.25-10.223zm33.67 10.538c-2.407 3.312-5.94 5.49-9.956 6.125-2.512.398-5.042.162-7.392-.66.396-.035.79-.076 1.183-.138 2.387-.38 4.632-1.217 6.638-2.448 2.888-.357 5.668-1.397 8.138-3.08 1.075-.73 2.06-1.56 2.95-2.47-.427.93-.948 1.824-1.56 2.67z"/></g></svg>