<svg width="200" height="100" viewBox="0 0 200 100" xmlns="http://www.w3.org/2000/svg"><title>yellowpages</title>,<g fill="#000" fill-rule="evenodd"><path d="M132.922 5.15H68.078c-4.307 0-7.83 3.54-7.83 7.87v73.96c0 4.33 3.523 7.87 7.83 7.87h64.844c4.307 0 7.83-3.54 7.83-7.87V13.02c0-4.33-3.523-7.87-7.83-7.87zm1.41 83.562H66.668l.13-6.452s5.794 4.957 14.278-.314c0 0 14.253-11.33 16.29 3.304h6.264c2.036-14.635 16.29-3.304 16.29-3.304 8.483 5.27 14.41.314 14.41.314v6.452zm0-15.028c-2.977 9.573-15.35.55-15.35.55-12.217-7.71-18.32 1.89-18.32 1.89s-6.104-9.6-18.32-1.89c0 0-12.67 8.76-15.54-.865V15.063c0-1.73 1.433-3.147 3.156-3.147h61.24c1.724 0 3.133 1.416 3.133 3.147v58.62z"/><path d="M79.512 13.806l2.61 3.776s-1.88 6.19-.208 9.862l3.237 6.19-7.413 13.324s5.43 1.468 9.293-1.994l8.458-7.973s.96-.69 1.357.106l19.84 31.893s2.4 4.825 6.37 4.195l2.296-.63-26.938-58.75h-18.9z"/><path d="M82.645 64.478s-2.09 3.567.522 5.56c0 0 3.132 1.993 5.743-2.623l12.008-19.094-5.534-8.6-12.74 24.758z"/></g></svg>